# SSTK version 0.8.0
# 27
mtllib original-27.mtl
o mesh46/mesh46-geometry#mesh46-geometry
v -0.047629 -0.508232 0.358619
v -0.046321 -0.509421 0.358869
v -0.047629 -0.517153 0.360498
v -0.043140 -0.508231 0.358620
v -0.046320 -0.517153 0.360499
v -0.047629 -0.508183 0.358851
v -0.043140 -0.509420 0.358870
v -0.046320 -0.513250 0.359676
v -0.047629 -0.517104 0.360731
v -0.043140 -0.508182 0.358852
v -0.043140 -0.509371 0.359103
v -0.046320 -0.512086 0.359431
v -0.046320 -0.513201 0.359909
v -0.046320 -0.517104 0.360731
v -0.046321 -0.509372 0.359102
v -0.043139 -0.513250 0.359677
v -0.043139 -0.513201 0.359910
v -0.043139 -0.512085 0.359432
v -0.046321 -0.512037 0.359664
v -0.043139 -0.512036 0.359664
vn 0.00029638367210211707 -0.20618307822432388 -0.9785133879567827
vn -0.00029638367210211707 0.20618307822432388 0.9785133879567827
vn -0.9999999530953365 -0.00013668984759395168 -0.0002740897855484951
vn 0.9999999530953365 0.00013668984759395168 0.0002740897855484951
vn -0.00007724017017422036 0.9785134232956787 -0.206183109066015
vn 0.00007724017017422036 -0.9785134232956787 0.206183109066015
usemtl material_0_0
f 1//1 2//1 3//1
f 2//1 1//1 4//1
f 3//2 2//2 1//2
f 4//2 1//2 2//2
f 2//1 5//1 3//1
f 3//2 5//2 2//2
f 3//3 6//3 1//3
f 1//4 6//4 3//4
f 6//5 4//5 1//5
f 1//6 4//6 6//6
f 2//1 4//1 7//1
f 7//2 4//2 2//2
f 5//1 2//1 8//1
f 8//2 2//2 5//2
f 5//6 9//6 3//6
f 3//5 9//5 5//5
f 6//3 3//3 9//3
f 9//4 3//4 6//4
f 4//5 6//5 10//5
f 10//6 6//6 4//6
f 4//4 11//4 7//4
f 7//3 11//3 4//3
f 11//6 2//6 7//6
f 7//5 2//5 11//5
f 12//1 8//1 2//1
f 2//2 8//2 12//2
f 13//4 5//4 8//4
f 8//3 5//3 13//3
f 9//6 5//6 14//6
f 14//5 5//5 9//5
f 14//2 6//2 9//2
f 9//1 6//1 14//1
f 6//2 15//2 10//2
f 10//1 15//1 6//1
f 11//4 4//4 10//4
f 10//3 4//3 11//3
f 2//6 11//6 15//6
f 15//5 11//5 2//5
f 8//1 12//1 16//1
f 16//2 12//2 8//2
f 15//4 12//4 2//4
f 2//3 12//3 15//3
f 5//4 13//4 14//4
f 14//3 13//3 5//3
f 8//6 17//6 13//6
f 13//5 17//5 8//5
f 6//2 14//2 15//2
f 15//1 14//1 6//1
f 10//2 15//2 11//2
f 11//1 15//1 10//1
f 16//1 12//1 18//1
f 18//2 12//2 16//2
f 17//6 8//6 16//6
f 16//5 8//5 17//5
f 12//4 15//4 19//4
f 19//3 15//3 12//3
f 19//2 14//2 13//2
f 13//1 14//1 19//1
f 20//2 13//2 17//2
f 17//1 13//1 20//1
f 14//2 19//2 15//2
f 15//1 19//1 14//1
f 12//5 20//5 18//5
f 18//6 20//6 12//6
f 18//4 17//4 16//4
f 16//3 17//3 18//3
f 20//5 12//5 19//5
f 19//6 12//6 20//6
f 19//2 13//2 20//2
f 20//1 13//1 19//1
f 17//4 18//4 20//4
f 20//3 18//3 17//3
