# SSTK version 0.8.0
# 6
mtllib original-6.mtl
o mesh21/mesh21-geometry#mesh21-geometry
v -0.055476 0.914671 0.337584
v -0.310003 0.914671 0.071873
v -0.082349 0.914671 0.316961
v -0.077254 0.914671 0.299252
v -0.024178 0.914671 0.350545
v -0.326705 0.914671 0.050105
v -0.051868 0.914671 0.318729
v -0.337209 0.914671 0.024753
v 0.009411 0.914671 0.354970
v -0.292260 0.914671 0.067776
v -0.022310 0.914671 0.330973
v -0.308040 0.914671 0.047220
v 0.009411 0.914671 0.335151
v -0.340787 0.914671 -0.002448
v 0.042995 0.914671 0.350545
v -0.317955 0.914671 0.023275
v 0.041132 0.914671 0.330973
v -0.321339 0.914671 -0.002419
v 0.074293 0.914671 0.337584
v -0.337209 0.914671 -0.029653
v 0.070690 0.914671 0.318729
v -0.317955 0.914671 -0.028113
v 0.101165 0.914671 0.316961
v -0.326705 0.914671 -0.055005
v 0.096070 0.914671 0.299252
v -0.308040 0.914671 -0.052054
v 0.328820 0.914671 0.083499
v -0.310003 0.914671 -0.076774
v 0.311082 0.914671 0.078760
v -0.292260 0.914671 -0.072615
v 0.329323 0.914671 0.054982
v -0.081189 0.914671 -0.321861
v 0.348135 0.914671 0.058328
v -0.076156 0.914671 -0.304090
v 0.340792 0.914671 0.027296
v -0.051094 0.914671 -0.323321
v 0.360279 0.914671 0.029012
v -0.054654 0.914671 -0.342223
v 0.344704 0.914671 -0.002419
v -0.021911 0.914671 -0.335407
v 0.364424 0.914671 -0.002452
v -0.023750 0.914671 -0.355022
v 0.340792 0.914671 -0.032130
v 0.009411 0.914671 -0.339533
v 0.360279 0.914671 -0.033912
v 0.009411 0.914671 -0.359386
v 0.329323 0.914671 -0.059820
v 0.040728 0.914671 -0.335407
v 0.311082 0.914671 -0.083594
v 0.042572 0.914671 -0.355022
v 0.348135 0.914671 -0.063228
v 0.069910 0.914671 -0.323321
v 0.094972 0.914671 -0.304090
v 0.073470 0.914671 -0.342223
v 0.328820 0.914671 -0.088399
v 0.100006 0.914671 -0.321861
vn 0 1 0
vn 0 -1 0
usemtl material_0_0
f 1//1 2//1 3//1
f 2//1 1//1 4//1
f 3//2 2//2 1//2
f 4//2 1//2 2//2
f 4//1 1//1 5//1
f 5//2 1//2 4//2
f 2//1 4//1 6//1
f 6//2 4//2 2//2
f 4//1 5//1 7//1
f 7//2 5//2 4//2
f 4//1 8//1 6//1
f 6//2 8//2 4//2
f 7//1 5//1 9//1
f 9//2 5//2 7//2
f 8//1 4//1 10//1
f 10//2 4//2 8//2
f 7//1 9//1 11//1
f 11//2 9//2 7//2
f 8//1 10//1 12//1
f 12//2 10//2 8//2
f 11//1 9//1 13//1
f 13//2 9//2 11//2
f 8//1 12//1 14//1
f 14//2 12//2 8//2
f 13//1 9//1 15//1
f 15//2 9//2 13//2
f 14//1 12//1 16//1
f 16//2 12//2 14//2
f 13//1 15//1 17//1
f 17//2 15//2 13//2
f 14//1 16//1 18//1
f 18//2 16//2 14//2
f 17//1 15//1 19//1
f 19//2 15//2 17//2
f 14//1 18//1 20//1
f 20//2 18//2 14//2
f 17//1 19//1 21//1
f 21//2 19//2 17//2
f 20//1 18//1 22//1
f 22//2 18//2 20//2
f 21//1 19//1 23//1
f 23//2 19//2 21//2
f 20//1 22//1 24//1
f 24//2 22//2 20//2
f 21//1 23//1 25//1
f 25//2 23//2 21//2
f 24//1 22//1 26//1
f 26//2 22//2 24//2
f 25//1 23//1 27//1
f 27//2 23//2 25//2
f 24//1 26//1 28//1
f 28//2 26//2 24//2
f 25//1 27//1 29//1
f 29//2 27//2 25//2
f 28//1 26//1 30//1
f 30//2 26//2 28//2
f 29//1 27//1 31//1
f 31//2 27//2 29//2
f 28//1 30//1 32//1
f 32//2 30//2 28//2
f 31//1 27//1 33//1
f 33//2 27//2 31//2
f 32//1 30//1 34//1
f 34//2 30//2 32//2
f 31//1 33//1 35//1
f 35//2 33//2 31//2
f 32//1 34//1 36//1
f 36//2 34//2 32//2
f 35//1 33//1 37//1
f 37//2 33//2 35//2
f 32//1 36//1 38//1
f 38//2 36//2 32//2
f 35//1 37//1 39//1
f 39//2 37//2 35//2
f 38//1 36//1 40//1
f 40//2 36//2 38//2
f 39//1 37//1 41//1
f 41//2 37//2 39//2
f 38//1 40//1 42//1
f 42//2 40//2 38//2
f 39//1 41//1 43//1
f 43//2 41//2 39//2
f 42//1 40//1 44//1
f 44//2 40//2 42//2
f 43//1 41//1 45//1
f 45//2 41//2 43//2
f 42//1 44//1 46//1
f 46//2 44//2 42//2
f 43//1 45//1 47//1
f 47//2 45//2 43//2
f 46//1 44//1 48//1
f 48//2 44//2 46//2
f 47//1 45//1 49//1
f 49//2 45//2 47//2
f 46//1 48//1 50//1
f 50//2 48//2 46//2
f 49//1 45//1 51//1
f 51//2 45//2 49//2
f 50//1 48//1 52//1
f 52//2 48//2 50//2
f 49//1 51//1 53//1
f 53//2 51//2 49//2
f 50//1 52//1 53//1
f 53//2 52//2 50//2
f 54//1 53//1 51//1
f 51//2 53//2 54//2
f 50//1 53//1 54//1
f 54//2 53//2 50//2
f 54//1 51//1 55//1
f 55//2 51//2 54//2
f 54//1 55//1 56//1
f 56//2 55//2 54//2
