# SSTK version 0.8.0
# 14
mtllib original-14.mtl
o mesh44/mesh44-geometry#mesh44-geometry
v 0.059361 -0.510743 0.359131
v 0.059345 -0.512547 0.359511
v 0.059270 -0.511656 0.359324
v 0.059571 -0.513381 0.359687
v 0.059270 -0.511607 0.359556
v 0.059361 -0.510694 0.359364
v 0.059633 -0.509879 0.358949
v 0.059345 -0.512498 0.359744
v 0.059633 -0.509830 0.359182
v 0.059942 -0.514143 0.359848
v 0.059571 -0.513332 0.359920
v 0.060081 -0.509081 0.358781
v 0.059942 -0.514094 0.360080
v 0.060081 -0.509032 0.359014
v 0.060454 -0.514817 0.359990
v 0.060454 -0.514768 0.360223
v 0.060697 -0.508365 0.358631
v 0.060697 -0.508316 0.358863
v 0.060648 -0.511668 0.359327
v 0.061187 -0.515484 0.360131
v 0.061398 -0.507805 0.358513
v 0.060713 -0.511025 0.359191
v 0.060707 -0.512347 0.359470
v 0.061187 -0.515435 0.360363
v 0.060647 -0.511619 0.359559
v 0.061398 -0.507756 0.358745
v 0.060707 -0.512298 0.359702
v 0.062010 -0.515914 0.360465
v 0.060886 -0.512988 0.359605
v 0.060713 -0.510976 0.359424
v 0.062172 -0.507400 0.358428
v 0.060911 -0.510393 0.359058
v 0.060886 -0.512939 0.359837
v 0.062010 -0.515963 0.360232
v 0.061568 -0.514015 0.360064
v 0.061175 -0.513568 0.359727
v 0.060910 -0.510344 0.359291
v 0.062172 -0.507351 0.358660
v 0.061643 -0.509297 0.358827
v 0.061225 -0.509807 0.358935
v 0.061568 -0.514064 0.359832
v 0.062917 -0.516203 0.360526
v 0.061175 -0.513519 0.359960
v 0.062074 -0.514439 0.360154
v 0.061225 -0.509758 0.359167
v 0.061643 -0.509248 0.359060
v 0.063013 -0.507154 0.358376
v 0.062127 -0.508897 0.358743
v 0.062074 -0.514488 0.359921
v 0.062917 -0.516252 0.360293
v 0.062127 -0.508848 0.358976
v 0.063013 -0.507105 0.358609
v 0.062676 -0.508604 0.358682
v 0.063904 -0.516349 0.360314
v 0.062652 -0.514756 0.360221
v 0.062676 -0.508555 0.358914
v 0.063916 -0.507023 0.358592
v 0.063274 -0.508425 0.358644
v 0.062652 -0.514805 0.359988
v 0.063904 -0.516300 0.360546
v 0.063272 -0.515002 0.360030
v 0.063272 -0.514953 0.360263
v 0.063274 -0.508376 0.358877
v 0.063916 -0.507072 0.358359
v 0.064888 -0.516205 0.360527
v 0.063904 -0.515068 0.360044
v 0.064839 -0.507154 0.358377
v 0.063903 -0.508316 0.358864
v 0.063903 -0.508365 0.358632
v 0.064888 -0.516254 0.360294
v 0.063904 -0.515019 0.360277
v 0.064583 -0.515007 0.360031
v 0.064839 -0.507105 0.358609
v 0.064591 -0.508430 0.358646
v 0.064591 -0.508381 0.358878
v 0.065798 -0.515969 0.360234
v 0.064583 -0.514958 0.360264
v 0.065691 -0.507400 0.358429
v 0.065215 -0.508625 0.358687
v 0.065203 -0.514822 0.359993
v 0.065798 -0.515920 0.360467
v 0.065203 -0.514773 0.360225
v 0.065215 -0.508576 0.358919
v 0.065691 -0.507351 0.358661
v 0.066630 -0.515448 0.360368
v 0.065766 -0.514515 0.359928
v 0.066473 -0.507759 0.358748
v 0.065789 -0.508957 0.358757
v 0.066630 -0.515497 0.360135
v 0.066271 -0.514035 0.360070
v 0.065766 -0.514466 0.360161
v 0.066271 -0.514084 0.359838
v 0.065789 -0.508908 0.358989
v 0.066473 -0.507808 0.358515
v 0.067379 -0.514841 0.359997
v 0.066687 -0.513514 0.359960
v 0.067185 -0.508377 0.358635
v 0.066327 -0.509382 0.359089
v 0.066327 -0.509431 0.358857
v 0.066687 -0.513563 0.359728
v 0.067379 -0.514792 0.360230
v 0.067185 -0.508328 0.358868
v 0.066713 -0.509925 0.358961
v 0.066713 -0.509876 0.359194
v 0.067905 -0.514114 0.360087
v 0.066985 -0.512982 0.359605
v 0.066985 -0.512933 0.359838
v 0.067794 -0.509035 0.359017
v 0.066994 -0.510463 0.359075
v 0.067905 -0.514163 0.359855
v 0.067163 -0.512342 0.359471
v 0.067163 -0.512293 0.359703
v 0.066994 -0.510414 0.359307
v 0.067794 -0.509084 0.358784
v 0.067222 -0.511594 0.359556
v 0.067165 -0.511038 0.359196
v 0.068281 -0.513404 0.359695
v 0.068230 -0.509823 0.359183
v 0.067223 -0.511643 0.359323
v 0.067165 -0.510989 0.359428
v 0.068231 -0.509872 0.358950
v 0.068281 -0.513355 0.359927
v 0.068506 -0.512567 0.359518
v 0.068494 -0.510731 0.359132
v 0.068494 -0.510682 0.359364
v 0.068506 -0.512518 0.359751
v 0.068581 -0.511655 0.359326
v 0.068581 -0.511606 0.359559
vn 0.00029638367210211707 -0.20618307822432388 -0.9785133879567827
vn -0.00029638367210211707 0.20618307822432388 0.9785133879567827
vn -0.9966040204594933 -0.08063445204230595 0.016688665249534617
vn 0.9966040204594933 0.08063445204230595 -0.016688665249534617
vn -0.995305552225661 0.09464174110315159 -0.020243481660431255
vn 0.995305552225661 -0.09464174110315159 0.020243481660431255
vn -0.9667428893549496 -0.25031396592336036 0.052450970871497304
vn 0.9667428893549496 0.25031396592336036 -0.052450970871497304
vn -0.9555808959438332 0.28833770360533234 -0.06104522902557245
vn 0.9555808959438332 -0.28833770360533234 0.06104522902557245
vn -0.8766414915173179 0.47075237570345985 -0.09945801184339452
vn 0.8766414915173179 -0.47075237570345985 0.09945801184339452
vn -0.902758631342189 -0.4209601708337052 0.08842730409118645
vn 0.902758631342189 0.4209601708337052 -0.08842730409118645
vn -0.8028945334705094 -0.5833615225163403 0.12267722759579491
vn 0.8028945334705094 0.5833615225163403 -0.12267722759579491
vn -0.7643635241704194 0.6308845701313274 -0.13316554392179258
vn 0.7643635241704194 -0.6308845701313274 0.13316554392179258
vn -0.6803610218908526 -0.7171716589752513 0.1509095472603397
vn 0.6803610218908526 0.7171716589752513 -0.1509095472603397
vn -0.6326339265354834 0.7577720000734198 -0.15986216219301447
vn 0.6326339265354834 -0.7577720000734198 0.15986216219301447
vn 0.995044703577113 -0.09723094366273237 0.02078897490474435
vn -0.995044703577113 0.09723094366273237 -0.02078897490474435
vn 0.9963426890505547 0.08367174523625448 -0.017328734074620922
vn -0.9963426890505547 -0.08367174523625448 0.017328734074620922
vn -0.5116581598133262 -0.8407593382554044 0.17700187183410096
vn 0.5116581598133262 0.8407593382554044 -0.17700187183410096
vn -0.4717164190529288 0.8627756899569256 -0.18193880513852154
vn 0.4717164190529288 -0.8627756899569256 0.18193880513852154
vn 0.964822557993057 0.25731188961785323 -0.0539260887606701
vn -0.964822557993057 -0.25731188961785323 0.0539260887606701
vn 0.9563012885196405 -0.2860421641363223 0.06056175287988905
vn -0.9563012885196405 0.2860421641363223 -0.06056175287988905
vn -0.3099928364183316 -0.9303297145490788 0.1959363763989405
vn 0.3099928364183316 0.9303297145490788 -0.1959363763989405
vn 0.8983903313125382 0.42981588422049827 -0.09029461930756823
vn -0.8983903313125382 -0.42981588422049827 0.09029461930756823
vn -0.2861925724817402 0.9375667958192077 -0.19764188532188226
vn 0.2861925724817402 -0.9375667958192077 0.19764188532188226
vn 0.885503173549902 -0.454595767048716 0.09605632834145551
vn -0.885503173549902 0.454595767048716 -0.09605632834145551
vn 0.7900248119912757 0.5999502287454636 -0.1261765408719683
vn -0.7900248119912757 -0.5999502287454636 0.1261765408719683
vn 0.650922479608314 0.7428725550432008 -0.1563339134805704
vn -0.650922479608314 -0.7428725550432008 0.1563339134805704
vn 0.7802279861371646 -0.6120077679179305 0.1291928080678525
vn -0.7802279861371646 0.6120077679179305 -0.1291928080678525
vn 0.6453321510873872 -0.7474490032279678 0.15769084420613452
vn -0.6453321510873872 0.7474490032279678 -0.15769084420613452
vn -0.0993481741971655 -0.9736785338263357 0.20513423178369486
vn 0.0993481741971655 0.9736785338263357 -0.20513423178369486
vn 0.4891799961114749 0.8534725188595311 -0.1796874813556712
vn -0.4891799961114749 -0.8534725188595311 0.1796874813556712
vn -0.09247997531705711 0.9743144034322117 -0.2053263193793964
vn 0.09247997531705711 -0.9743144034322117 0.2053263193793964
vn 0.4780394130919948 -0.8594366833289955 0.18123715645285593
vn -0.4780394130919948 0.8594366833289955 -0.18123715645285593
vn 0.29292527785569367 -0.9355733641832829 0.1972238875591364
vn -0.29292527785569367 0.9355733641832829 -0.1972238875591364
vn 0.09824687179929732 -0.9737734504891902 0.20521408164165836
vn -0.09824687179929732 0.9737734504891902 -0.20521408164165836
vn 0.3096617978924995 0.9304352494093479 -0.19595871397452522
vn -0.3096617978924995 -0.9304352494093479 0.19595871397452522
vn 0.09030520511317834 0.9745208780605422 -0.2053144616279541
vn -0.09030520511317834 -0.9745208780605422 0.2053144616279541
vn 0.09663793943751532 -0.9739276920294598 0.20524609462652588
vn -0.09663793943751532 0.9739276920294598 -0.20524609462652588
vn 0.1057602091101625 0.9730320596769623 -0.2049960707179115
vn -0.1057602091101625 -0.9730320596769623 0.2049960707179115
vn 0.30472789813621304 -0.9319561691978018 0.19646528138998123
vn -0.30472789813621304 0.9319561691978018 -0.19646528138998123
vn -0.09224297619464462 0.974335929122367 -0.2053307832839691
vn 0.09224297619464462 -0.974335929122367 0.2053307832839691
vn 0.28266233021689546 0.9386264122072838 -0.1976928561765371
vn -0.28266233021689546 -0.9386264122072838 0.1976928561765371
vn -0.09617418410990647 -0.9739834275634018 0.20519943748129923
vn 0.09617418410990647 0.9739834275634018 -0.20519943748129923
vn -0.29057221607311623 0.9362758146902279 -0.19737118855726715
vn 0.29057221607311623 -0.9362758146902279 0.19737118855726715
vn -0.304655764707842 -0.9320159880862152 0.19629330855114754
vn 0.304655764707842 0.9320159880862152 -0.19629330855114754
vn 0.5014521379356851 -0.8465648652529771 0.1785320203183151
vn -0.5014521379356851 0.8465648652529771 -0.1785320203183151
vn 0.47065403117362364 0.8633886140847653 -0.18178251843564663
vn -0.47065403117362364 -0.8633886140847653 0.18178251843564663
vn -0.5085405469241673 -0.8425683536353686 0.17738399472966324
vn 0.5085405469241673 0.8425683536353686 -0.17738399472966324
vn -0.4873816242078095 0.854397437730985 -0.1801781640024267
vn 0.4873816242078095 -0.854397437730985 0.1801781640024267
vn 0.6667350145365514 -0.7292402559501594 0.15386055210056518
vn -0.6667350145365514 0.7292402559501594 -0.15386055210056518
vn -0.656819232872022 0.7378060039550183 -0.15566244202548057
vn 0.656819232872022 -0.7378060039550183 0.15566244202548057
vn 0.6328032348390075 0.7577139668773284 -0.15946664345972447
vn -0.6328032348390075 -0.7577139668773284 0.15946664345972447
vn -0.6693217309517318 -0.7270496334266217 0.15299428423961628
vn 0.6693217309517318 0.7270496334266217 -0.15299428423961628
vn -0.7879767397136548 0.6024274244020854 -0.127176475806294
vn 0.7879767397136548 -0.6024274244020854 0.127176475806294
vn 0.7964659617168449 -0.5916420774825322 0.12490646091621849
vn -0.7964659617168449 0.5916420774825322 -0.12490646091621849
vn 0.7649010793026068 0.6303539398492352 -0.13259053283795977
vn -0.7649010793026068 -0.6303539398492352 0.13259053283795977
vn -0.7944480891716074 -0.594331083273361 0.12499118795617051
vn 0.7944480891716074 0.594331083273361 -0.12499118795617051
vn -0.8940468254492774 0.43829339397577644 -0.09262383441244523
vn 0.8940468254492774 -0.43829339397577644 0.09262383441244523
vn -0.8905571210670209 -0.44515214600023756 0.09352850382745725
vn 0.8905571210670209 0.44515214600023756 -0.09352850382745725
vn 0.9000188572413302 -0.4264309357890211 0.09012609839613633
vn -0.9000188572413302 0.4264309357890211 -0.09012609839613633
vn -0.9647633969893131 0.2574063295779943 -0.05453044399989524
vn 0.9647633969893131 -0.2574063295779943 0.05453044399989524
vn 0.8788351492003168 0.4669273841645301 -0.09812032637188849
vn -0.8788351492003168 -0.4669273841645301 0.09812032637188849
vn -0.9599918654160852 -0.27406957292029005 0.05745857233028909
vn 0.9599918654160852 0.27406957292029005 -0.05745857233028909
vn -0.9965614165754114 0.08101563053758021 -0.01737269702169219
vn 0.9965614165754114 -0.08101563053758021 0.01737269702169219
vn -0.9957398341127934 -0.09028645020258044 0.018722704688258814
vn 0.9957398341127934 0.09028645020258044 -0.018722704688258814
vn 0.9670133054358199 -0.24919343038091693 0.05280058110552371
vn -0.9670133054358199 0.24919343038091693 -0.05280058110552371
vn 0.9579441427776461 0.2808474630684434 -0.05888736541924921
vn -0.9579441427776461 -0.2808474630684434 0.05888736541924921
vn 0.9967732904272997 -0.07848221127714536 0.016838943072050708
vn -0.9967732904272997 0.07848221127714536 -0.016838943072050708
vn 0.9957081026034383 0.09062112752036912 -0.018793234335726286
vn -0.9957081026034383 -0.09062112752036912 0.018793234335726286
usemtl material_0_0
f 1//1 2//1 3//1
f 2//1 1//1 4//1
f 3//2 2//2 1//2
f 4//2 1//2 2//2
f 2//3 5//3 3//3
f 3//4 5//4 2//4
f 3//5 6//5 1//5
f 1//6 6//6 3//6
f 4//1 1//1 7//1
f 7//2 1//2 4//2
f 4//7 8//7 2//7
f 2//8 8//8 4//8
f 5//3 2//3 8//3
f 8//4 2//4 5//4
f 6//5 3//5 5//5
f 5//6 3//6 6//6
f 9//9 1//9 6//9
f 6//10 1//10 9//10
f 1//9 9//9 7//9
f 7//10 9//10 1//10
f 4//1 7//1 10//1
f 10//2 7//2 4//2
f 8//7 4//7 11//7
f 11//8 4//8 8//8
f 8//2 6//2 5//2
f 5//1 6//1 8//1
f 6//2 11//2 9//2
f 9//1 11//1 6//1
f 9//11 12//11 7//11
f 7//12 12//12 9//12
f 10//1 7//1 12//1
f 12//2 7//2 10//2
f 13//13 4//13 10//13
f 10//14 4//14 13//14
f 4//13 13//13 11//13
f 11//14 13//14 4//14
f 6//2 8//2 11//2
f 11//1 8//1 6//1
f 9//2 11//2 13//2
f 13//1 11//1 9//1
f 12//11 9//11 14//11
f 14//12 9//12 12//12
f 10//1 12//1 15//1
f 15//2 12//2 10//2
f 10//15 16//15 13//15
f 13//16 16//16 10//16
f 9//2 13//2 14//2
f 14//1 13//1 9//1
f 14//17 17//17 12//17
f 12//18 17//18 14//18
f 15//1 12//1 17//1
f 17//2 12//2 15//2
f 16//15 10//15 15//15
f 15//16 10//16 16//16
f 14//2 13//2 16//2
f 16//1 13//1 14//1
f 17//17 14//17 18//17
f 18//18 14//18 17//18
f 15//1 17//1 19//1
f 19//2 17//2 15//2
f 20//19 16//19 15//19
f 15//20 16//20 20//20
f 14//2 16//2 18//2
f 18//1 16//1 14//1
f 18//21 21//21 17//21
f 17//22 21//22 18//22
f 19//1 17//1 22//1
f 22//2 17//2 19//2
f 23//1 15//1 19//1
f 19//2 15//2 23//2
f 16//19 20//19 24//19
f 24//20 20//20 16//20
f 15//1 23//1 20//1
f 20//2 23//2 15//2
f 18//2 16//2 25//2
f 25//1 16//1 18//1
f 21//21 18//21 26//21
f 26//22 18//22 21//22
f 22//1 17//1 21//1
f 21//2 17//2 22//2
f 22//23 25//23 19//23
f 19//24 25//24 22//24
f 19//25 27//25 23//25
f 23//26 27//26 19//26
f 20//27 28//27 24//27
f 24//28 28//28 20//28
f 27//2 16//2 24//2
f 24//1 16//1 27//1
f 20//1 23//1 29//1
f 29//2 23//2 20//2
f 16//2 27//2 25//2
f 25//1 27//1 16//1
f 18//2 25//2 30//2
f 30//1 25//1 18//1
f 18//2 30//2 26//2
f 26//1 30//1 18//1
f 26//29 31//29 21//29
f 21//30 31//30 26//30
f 22//1 21//1 32//1
f 32//2 21//2 22//2
f 25//23 22//23 30//23
f 30//24 22//24 25//24
f 27//25 19//25 25//25
f 25//26 19//26 27//26
f 33//31 23//31 27//31
f 27//32 23//32 33//32
f 28//27 20//27 34//27
f 34//28 20//28 28//28
f 35//2 24//2 28//2
f 28//1 24//1 35//1
f 27//2 24//2 33//2
f 33//1 24//1 27//1
f 23//31 33//31 29//31
f 29//32 33//32 23//32
f 20//1 29//1 36//1
f 36//2 29//2 20//2
f 26//2 30//2 37//2
f 37//1 30//1 26//1
f 31//29 26//29 38//29
f 38//30 26//30 31//30
f 39//1 21//1 31//1
f 31//2 21//2 39//2
f 32//1 21//1 40//1
f 40//2 21//2 32//2
f 32//33 30//33 22//33
f 22//34 30//34 32//34
f 20//1 41//1 34//1
f 34//2 41//2 20//2
f 34//35 42//35 28//35
f 28//36 42//36 34//36
f 43//2 24//2 35//2
f 35//1 24//1 43//1
f 35//2 28//2 44//2
f 44//1 28//1 35//1
f 33//2 24//2 43//2
f 43//1 24//1 33//1
f 33//37 36//37 29//37
f 29//38 36//38 33//38
f 20//1 36//1 41//1
f 41//2 36//2 20//2
f 30//33 32//33 37//33
f 37//34 32//34 30//34
f 26//2 37//2 45//2
f 45//1 37//1 26//1
f 26//2 46//2 38//2
f 38//1 46//1 26//1
f 38//39 47//39 31//39
f 31//40 47//40 38//40
f 40//1 21//1 39//1
f 39//2 21//2 40//2
f 39//1 31//1 48//1
f 48//2 31//2 39//2
f 40//41 37//41 32//41
f 32//42 37//42 40//42
f 34//1 41//1 49//1
f 49//2 41//2 34//2
f 42//35 34//35 50//35
f 50//36 34//36 42//36
f 44//2 28//2 42//2
f 42//1 28//1 44//1
f 35//43 36//43 43//43
f 43//44 36//44 35//44
f 49//45 35//45 44//45
f 44//46 35//46 49//46
f 36//37 33//37 43//37
f 43//38 33//38 36//38
f 36//43 35//43 41//43
f 41//44 35//44 36//44
f 37//41 40//41 45//41
f 45//42 40//42 37//42
f 26//2 45//2 46//2
f 46//1 45//1 26//1
f 38//2 46//2 51//2
f 51//1 46//1 38//1
f 47//39 38//39 52//39
f 52//40 38//40 47//40
f 53//1 31//1 47//1
f 47//2 31//2 53//2
f 39//47 45//47 40//47
f 40//48 45//48 39//48
f 48//1 31//1 53//1
f 53//2 31//2 48//2
f 48//49 46//49 39//49
f 39//50 46//50 48//50
f 35//45 49//45 41//45
f 41//46 49//46 35//46
f 34//1 49//1 50//1
f 50//2 49//2 34//2
f 54//51 42//51 50//51
f 50//52 42//52 54//52
f 44//2 42//2 55//2
f 55//1 42//1 44//1
f 55//53 49//53 44//53
f 44//54 49//54 55//54
f 45//47 39//47 46//47
f 46//48 39//48 45//48
f 46//49 48//49 51//49
f 51//50 48//50 46//50
f 38//2 51//2 56//2
f 56//1 51//1 38//1
f 38//2 56//2 52//2
f 52//1 56//1 38//1
f 57//55 47//55 52//55
f 52//56 47//56 57//56
f 53//1 47//1 58//1
f 58//2 47//2 53//2
f 53//57 51//57 48//57
f 48//58 51//58 53//58
f 50//1 49//1 59//1
f 59//2 49//2 50//2
f 42//51 54//51 60//51
f 60//52 54//52 42//52
f 50//1 61//1 54//1
f 54//2 61//2 50//2
f 55//2 42//2 62//2
f 62//1 42//1 55//1
f 49//53 55//53 59//53
f 59//54 55//54 49//54
f 51//57 53//57 56//57
f 56//58 53//58 51//58
f 52//2 56//2 63//2
f 63//1 56//1 52//1
f 47//55 57//55 64//55
f 64//56 57//56 47//56
f 52//2 63//2 57//2
f 57//1 63//1 52//1
f 58//1 47//1 64//1
f 64//2 47//2 58//2
f 63//59 53//59 58//59
f 58//60 53//60 63//60
f 50//1 59//1 61//1
f 61//2 59//2 50//2
f 54//61 65//61 60//61
f 60//62 65//62 54//62
f 62//2 42//2 60//2
f 60//1 42//1 62//1
f 54//1 61//1 66//1
f 66//2 61//2 54//2
f 61//63 55//63 62//63
f 62//64 55//64 61//64
f 55//63 61//63 59//63
f 59//64 61//64 55//64
f 53//59 63//59 56//59
f 56//60 63//60 53//60
f 57//65 67//65 64//65
f 64//66 67//66 57//66
f 57//2 63//2 68//2
f 68//1 63//1 57//1
f 58//1 64//1 69//1
f 69//2 64//2 58//2
f 69//67 63//67 58//67
f 58//68 63//68 69//68
f 65//61 54//61 70//61
f 70//62 54//62 65//62
f 71//2 60//2 65//2
f 65//1 60//1 71//1
f 62//2 60//2 71//2
f 71//1 60//1 62//1
f 62//69 66//69 61//69
f 61//70 66//70 62//70
f 54//1 66//1 72//1
f 72//2 66//2 54//2
f 67//65 57//65 73//65
f 73//66 57//66 67//66
f 74//1 64//1 67//1
f 67//2 64//2 74//2
f 63//67 69//67 68//67
f 68//68 69//68 63//68
f 57//2 68//2 75//2
f 75//1 68//1 57//1
f 69//1 64//1 74//1
f 74//2 64//2 69//2
f 54//1 72//1 70//1
f 70//2 72//2 54//2
f 76//71 65//71 70//71
f 70//72 65//72 76//72
f 71//2 65//2 77//2
f 77//1 65//1 71//1
f 66//69 62//69 71//69
f 71//70 62//70 66//70
f 66//73 77//73 72//73
f 72//74 77//74 66//74
f 57//2 75//2 73//2
f 73//1 75//1 57//1
f 73//75 78//75 67//75
f 67//76 78//76 73//76
f 74//1 67//1 79//1
f 79//2 67//2 74//2
f 74//77 68//77 69//77
f 69//78 68//78 74//78
f 68//77 74//77 75//77
f 75//78 74//78 68//78
f 70//1 72//1 80//1
f 80//2 72//2 70//2
f 65//71 76//71 81//71
f 81//72 76//72 65//72
f 70//1 80//1 76//1
f 76//2 80//2 70//2
f 77//2 65//2 82//2
f 82//1 65//1 77//1
f 77//73 66//73 71//73
f 71//74 66//74 77//74
f 82//79 72//79 77//79
f 77//80 72//80 82//80
f 73//2 75//2 83//2
f 83//1 75//1 73//1
f 78//75 73//75 84//75
f 84//76 73//76 78//76
f 79//1 67//1 78//1
f 78//2 67//2 79//2
f 83//81 74//81 79//81
f 79//82 74//82 83//82
f 74//81 83//81 75//81
f 75//82 83//82 74//82
f 72//79 82//79 80//79
f 80//80 82//80 72//80
f 76//83 85//83 81//83
f 81//84 85//84 76//84
f 82//2 65//2 81//2
f 81//1 65//1 82//1
f 76//1 80//1 86//1
f 86//2 80//2 76//2
f 73//2 83//2 84//2
f 84//1 83//1 73//1
f 87//85 78//85 84//85
f 84//86 78//86 87//86
f 79//1 78//1 88//1
f 88//2 78//2 79//2
f 88//87 83//87 79//87
f 79//88 83//88 88//88
f 82//89 86//89 80//89
f 80//90 86//90 82//90
f 85//83 76//83 89//83
f 89//84 76//84 85//84
f 90//2 81//2 85//2
f 85//1 81//1 90//1
f 82//2 81//2 91//2
f 91//1 81//1 82//1
f 76//1 86//1 92//1
f 92//2 86//2 76//2
f 84//2 83//2 93//2
f 93//1 83//1 84//1
f 78//85 87//85 94//85
f 94//86 87//86 78//86
f 84//2 93//2 87//2
f 87//1 93//1 84//1
f 88//1 78//1 94//1
f 94//2 78//2 88//2
f 83//87 88//87 93//87
f 93//88 88//88 83//88
f 86//89 82//89 91//89
f 91//90 82//90 86//90
f 76//1 92//1 89//1
f 89//2 92//2 76//2
f 95//91 85//91 89//91
f 89//92 85//92 95//92
f 91//2 81//2 90//2
f 90//1 81//1 91//1
f 90//2 85//2 96//2
f 96//1 85//1 90//1
f 86//93 90//93 92//93
f 92//94 90//94 86//94
f 87//95 97//95 94//95
f 94//96 97//96 87//96
f 87//2 93//2 98//2
f 98//1 93//1 87//1
f 88//1 94//1 99//1
f 99//2 94//2 88//2
f 88//97 98//97 93//97
f 93//98 98//98 88//98
f 90//93 86//93 91//93
f 91//94 86//94 90//94
f 89//1 92//1 100//1
f 100//2 92//2 89//2
f 85//91 95//91 101//91
f 101//92 95//92 85//92
f 89//1 100//1 95//1
f 95//2 100//2 89//2
f 96//2 85//2 101//2
f 101//1 85//1 96//1
f 96//99 92//99 90//99
f 90//100 92//100 96//100
f 97//95 87//95 102//95
f 102//96 87//96 97//96
f 103//1 94//1 97//1
f 97//2 94//2 103//2
f 87//2 98//2 104//2
f 104//1 98//1 87//1
f 99//1 94//1 103//1
f 103//2 94//2 99//2
f 98//97 88//97 99//97
f 99//98 88//98 98//98
f 92//99 96//99 100//99
f 100//100 96//100 92//100
f 95//101 105//101 101//101
f 101//102 105//102 95//102
f 95//1 100//1 106//1
f 106//2 100//2 95//2
f 96//2 101//2 107//2
f 107//1 101//1 96//1
f 87//2 104//2 102//2
f 102//1 104//1 87//1
f 108//103 97//103 102//103
f 102//104 97//104 108//104
f 103//1 97//1 109//1
f 109//2 97//2 103//2
f 98//105 103//105 104//105
f 104//106 103//106 98//106
f 103//105 98//105 99//105
f 99//106 98//106 103//106
f 107//107 100//107 96//107
f 96//108 100//108 107//108
f 105//101 95//101 110//101
f 110//102 95//102 105//102
f 108//2 101//2 105//2
f 105//1 101//1 108//1
f 100//107 107//107 106//107
f 106//108 107//108 100//108
f 95//1 106//1 111//1
f 111//2 106//2 95//2
f 107//2 101//2 112//2
f 112//1 101//1 107//1
f 102//2 104//2 113//2
f 113//1 104//1 102//1
f 97//103 108//103 114//103
f 114//104 108//104 97//104
f 102//2 115//2 108//2
f 108//1 115//1 102//1
f 109//1 97//1 116//1
f 116//2 97//2 109//2
f 109//109 104//109 103//109
f 103//110 104//110 109//110
f 95//1 114//1 110//1
f 110//2 114//2 95//2
f 117//111 105//111 110//111
f 110//112 105//112 117//112
f 108//2 115//2 101//2
f 101//1 115//1 108//1
f 108//2 105//2 118//2
f 118//1 105//1 108//1
f 112//113 106//113 107//113
f 107//114 106//114 112//114
f 106//113 112//113 111//113
f 111//114 112//114 106//114
f 95//1 111//1 119//1
f 119//2 111//2 95//2
f 112//2 101//2 115//2
f 115//1 101//1 112//1
f 104//109 109//109 113//109
f 113//110 109//110 104//110
f 102//2 113//2 120//2
f 120//1 113//1 102//1
f 118//115 114//115 108//115
f 108//116 114//116 118//116
f 119//1 97//1 114//1
f 114//2 97//2 119//2
f 102//2 120//2 115//2
f 115//1 120//1 102//1
f 116//1 97//1 119//1
f 119//2 97//2 116//2
f 120//117 109//117 116//117
f 116//118 109//118 120//118
f 119//1 114//1 95//1
f 95//2 114//2 119//2
f 110//1 114//1 121//1
f 121//2 114//2 110//2
f 105//111 117//111 122//111
f 122//112 117//112 105//112
f 110//1 121//1 117//1
f 117//2 121//2 110//2
f 118//2 105//2 122//2
f 122//1 105//1 118//1
f 115//119 111//119 112//119
f 112//120 111//120 115//120
f 111//119 115//119 119//119
f 119//120 115//120 111//120
f 109//117 120//117 113//117
f 113//118 120//118 109//118
f 114//115 118//115 121//115
f 121//116 118//116 114//116
f 120//121 119//121 115//121
f 115//122 119//122 120//122
f 119//121 120//121 116//121
f 116//122 120//122 119//122
f 123//123 122//123 117//123
f 117//124 122//124 123//124
f 117//1 121//1 124//1
f 124//2 121//2 117//2
f 118//2 122//2 125//2
f 125//1 122//1 118//1
f 118//125 124//125 121//125
f 121//126 124//126 118//126
f 122//123 123//123 126//123
f 126//124 123//124 122//124
f 117//1 124//1 123//1
f 123//2 124//2 117//2
f 125//2 122//2 126//2
f 126//1 122//1 125//1
f 124//125 118//125 125//125
f 125//126 118//126 124//126
f 127//127 126//127 123//127
f 123//128 126//128 127//128
f 123//1 124//1 127//1
f 127//2 124//2 123//2
f 125//2 126//2 128//2
f 128//1 126//1 125//1
f 128//129 124//129 125//129
f 125//130 124//130 128//130
f 126//127 127//127 128//127
f 128//128 127//128 126//128
f 124//129 128//129 127//129
f 127//130 128//130 124//130
