# SSTK version 0.8.0
# 30
mtllib original-30.mtl
o mesh67/mesh67-geometry#mesh67-geometry
v 0.042243 -0.498673 0.356580
v 0.040922 -0.507595 0.358460
v 0.040922 -0.498673 0.356580
v 0.042243 -0.507594 0.358460
v 0.040921 -0.498624 0.356813
v 0.042243 -0.507545 0.358693
v 0.040922 -0.507546 0.358692
v 0.042243 -0.498624 0.356813
vn 0.00029638367210211707 -0.20618307822432388 -0.9785133879567827
vn -0.00029638367210211707 0.20618307822432388 0.9785133879567827
vn -0.9999999530953365 -0.00013668984759395168 -0.0002740897855484951
vn 0.9999999530953365 0.00013668984759395168 0.0002740897855484951
vn -0.00007724017017422036 0.9785134232956787 -0.206183109066015
vn 0.00007724017017422036 -0.9785134232956787 0.206183109066015
usemtl material_0_0
f 1//1 2//1 3//1
f 2//1 1//1 4//1
f 3//2 2//2 1//2
f 4//2 1//2 2//2
f 2//3 5//3 3//3
f 3//4 5//4 2//4
f 5//5 1//5 3//5
f 3//6 1//6 5//6
f 1//4 6//4 4//4
f 4//3 6//3 1//3
f 6//6 2//6 4//6
f 4//5 2//5 6//5
f 5//3 2//3 7//3
f 7//4 2//4 5//4
f 1//5 5//5 8//5
f 8//6 5//6 1//6
f 6//4 1//4 8//4
f 8//3 1//3 6//3
f 2//6 6//6 7//6
f 7//5 6//5 2//5
f 6//2 5//2 7//2
f 7//1 5//1 6//1
f 5//2 6//2 8//2
f 8//1 6//1 5//1
