# SSTK version 0.8.0
# 12
mtllib original-12.mtl
o mesh32/mesh32-geometry#mesh32-geometry
v 0.034848 -0.467731 0.350070
v 0.034240 -0.469477 0.350437
v 0.034172 -0.468895 0.350315
v 0.034814 -0.469959 0.350539
v 0.034171 -0.468267 0.353295
v 0.035186 -0.470191 0.350588
v 0.034814 -0.469330 0.353519
v 0.034239 -0.468848 0.353418
v 0.034847 -0.467103 0.353050
v 0.035558 -0.467000 0.349916
v 0.035185 -0.469563 0.353569
v 0.035557 -0.466372 0.352896
v 0.035524 -0.470291 0.350609
v 0.035811 -0.466239 0.352868
v 0.036268 -0.470391 0.350631
v 0.035524 -0.469663 0.353590
v 0.035812 -0.466867 0.349888
v 0.036267 -0.469763 0.353611
v 0.035998 -0.466800 0.349874
v 0.035997 -0.466172 0.352854
v 0.036910 -0.469634 0.353584
v 0.036741 -0.466471 0.352917
v 0.036742 -0.467100 0.349937
v 0.036911 -0.470262 0.350604
v 0.037350 -0.469875 0.350522
v 0.037113 -0.466737 0.352974
v 0.037114 -0.467365 0.349993
v 0.037350 -0.469247 0.353503
v 0.037891 -0.468363 0.350204
v 0.037384 -0.467532 0.350028
v 0.037383 -0.466904 0.353009
v 0.037891 -0.467735 0.353184
v 0.037756 -0.467831 0.350092
v 0.037755 -0.467203 0.353072
vn 0.00028734310845448564 -0.20623433723792328 -0.9785025884370325
vn -0.00028734310845448564 0.20623433723792328 0.9785025884370325
vn -0.8834354090363412 -0.45853259003441815 0.09638330735724403
vn -0.9796623642572715 0.19628130249588788 -0.04165696038323803
vn 0.9796623642572715 -0.19628130249588788 0.04165696038323803
vn 0.8834354090363412 0.45853259003441815 -0.09638330735724403
vn -0.8030435138640113 0.583062039075249 -0.12312503169686494
vn 0.8030435138640113 -0.583062039075249 0.12312503169686494
vn -0.596245859183688 -0.7855790759489393 0.16539767482499962
vn 0.596245859183688 0.7855790759489393 -0.16539767482499962
vn -0.41755499451160366 -0.8891427677516262 0.1872777752788419
vn 0.41755499451160366 0.8891427677516262 -0.1872777752788419
vn -0.6061663171517939 0.7782042986487799 -0.16419642357612824
vn 0.6061663171517939 -0.7782042986487799 0.16419642357612824
vn -0.21274365179152854 -0.9561153995223398 0.20145342245452555
vn 0.21274365179152854 0.9561153995223398 -0.20145342245452555
vn -0.4087600751927834 0.8929982481287213 -0.1883330288808227
vn 0.4087600751927834 -0.8929982481287213 0.1883330288808227
vn 0.03285970434232436 -0.9779722647606627 0.20613221288637845
vn -0.03285970434232436 0.9779722647606627 -0.20613221288637845
vn 0.019638533893634513 0.9783150838607164 -0.20618905081770963
vn -0.019638533893634513 -0.9783150838607164 0.20618905081770963
vn 0.45017413186562627 -0.8737182220221195 0.18428163094984837
vn -0.45017413186562627 0.8737182220221195 -0.18428163094984837
vn 0.48866431391325377 0.8537449792423792 -0.17979627005619042
vn -0.48866431391325377 -0.8537449792423792 0.17979627005619042
vn 0.8321578145953946 -0.5425683896563389 0.1145989273664644
vn -0.8321578145953946 0.5425683896563389 -0.1145989273664644
vn 0.5614030425509665 0.8097857854932548 -0.1705098396796798
vn -0.5614030425509665 -0.8097857854932548 0.1705098396796798
vn 0.9989249781033621 -0.04529950104675565 0.009840900675887143
vn -0.9989249781033621 0.04529950104675565 -0.009840900675887143
vn 0.5846725281700023 0.79386386851818 -0.1671472197335258
vn -0.5846725281700023 -0.79386386851818 0.1671472197335258
vn 0.8454163398711132 0.5226759960708403 -0.10991367253570161
vn -0.8454163398711132 -0.5226759960708403 0.10991367253570161
usemtl material_0_0
f 1//1 2//1 3//1
f 2//1 1//1 4//1
f 3//2 2//2 1//2
f 4//2 1//2 2//2
f 2//3 5//4 3//4
f 3//5 5//5 2//6
f 5//4 1//7 3//4
f 3//5 1//8 5//5
f 4//1 1//1 6//1
f 6//2 1//2 4//2
f 7//9 2//3 4//9
f 4//10 2//6 7//10
f 5//4 2//3 8//3
f 8//6 2//6 5//5
f 1//7 5//4 9//7
f 9//8 5//5 1//8
f 6//1 1//1 10//1
f 10//2 1//2 6//2
f 11//11 4//9 6//11
f 6//12 4//10 11//12
f 2//3 7//9 8//3
f 8//6 7//10 2//6
f 4//9 11//11 7//9
f 7//10 11//12 4//10
f 8//2 9//2 5//2
f 5//1 9//1 8//1
f 12//13 1//7 9//7
f 9//8 1//8 12//14
f 1//7 12//13 10//13
f 10//14 12//14 1//8
f 6//1 10//1 13//1
f 13//2 10//2 6//2
f 13//15 11//11 6//11
f 6//12 11//12 13//16
f 9//2 8//2 7//2
f 7//1 8//1 9//1
f 9//2 7//2 11//2
f 11//1 7//1 9//1
f 9//2 11//2 12//2
f 12//1 11//1 9//1
f 14//17 10//13 12//13
f 12//14 10//14 14//18
f 13//1 10//1 15//1
f 15//2 10//2 13//2
f 11//11 13//15 16//15
f 16//16 13//16 11//12
f 12//2 11//2 16//2
f 16//1 11//1 12//1
f 10//13 14//17 17//17
f 17//18 14//18 10//14
f 12//2 18//2 14//2
f 14//1 18//1 12//1
f 15//1 10//1 17//1
f 17//2 10//2 15//2
f 18//19 13//15 15//19
f 15//20 13//16 18//20
f 13//15 18//19 16//15
f 16//16 18//20 13//16
f 12//2 16//2 18//2
f 18//1 16//1 12//1
f 14//17 19//21 17//17
f 17//18 19//22 14//18
f 14//2 18//2 20//2
f 20//1 18//1 14//1
f 15//1 17//1 19//1
f 19//2 17//2 15//2
f 15//19 21//23 18//19
f 18//20 21//24 15//20
f 19//21 14//17 20//21
f 20//22 14//18 19//22
f 20//2 18//2 22//2
f 22//1 18//1 20//1
f 15//1 19//1 23//1
f 23//2 19//2 15//2
f 21//23 15//19 24//23
f 24//24 15//20 21//24
f 22//2 18//2 21//2
f 21//1 18//1 22//1
f 20//21 23//25 19//21
f 19//22 23//26 20//22
f 23//25 20//21 22//25
f 22//26 20//22 23//26
f 15//1 23//1 24//1
f 24//2 23//2 15//2
f 25//27 21//23 24//23
f 24//24 21//24 25//28
f 22//2 21//2 26//2
f 26//1 21//1 22//1
f 26//29 23//25 22//25
f 22//26 23//26 26//30
f 24//1 23//1 27//1
f 27//2 23//2 24//2
f 21//23 25//27 28//27
f 28//28 25//28 21//24
f 24//1 27//1 25//1
f 25//2 27//2 24//2
f 26//2 21//2 28//2
f 28//1 21//1 26//1
f 23//25 26//29 27//29
f 27//30 26//30 23//26
f 29//31 28//27 25//27
f 25//28 28//28 29//32
f 25//1 27//1 30//1
f 30//2 27//2 25//2
f 26//2 28//2 31//2
f 31//1 28//1 26//1
f 26//29 30//33 27//29
f 27//30 30//34 26//30
f 28//27 29//31 32//31
f 32//32 29//32 28//28
f 25//1 30//1 29//1
f 29//2 30//2 25//2
f 31//2 28//2 32//2
f 32//1 28//1 31//1
f 30//33 26//29 31//33
f 31//34 26//30 30//34
f 33//35 32//31 29//31
f 29//32 32//32 33//36
f 29//1 30//1 33//1
f 33//2 30//2 29//2
f 31//2 32//2 34//2
f 34//1 32//1 31//1
f 31//33 33//35 30//33
f 30//34 33//36 31//34
f 32//31 33//35 34//35
f 34//36 33//36 32//32
f 33//35 31//33 34//35
f 34//36 31//34 33//36
