# SSTK version 0.8.0
# 19
mtllib original-19.mtl
o mesh49/mesh49-geometry#mesh49-geometry
v -0.057749 -0.386273 0.332873
v -0.058095 -0.402527 0.335712
v -0.059115 -0.396311 0.334620
v -0.055887 -0.407086 0.336520
v -0.059141 -0.395411 0.339770
v -0.057775 -0.385373 0.338022
v -0.053649 -0.376508 0.331186
v -0.058120 -0.401627 0.340862
v -0.053675 -0.375607 0.336336
v -0.052834 -0.410341 0.337105
v -0.055913 -0.406186 0.341670
v -0.046842 -0.366114 0.334710
v -0.052484 -0.402836 0.335795
v -0.052860 -0.409441 0.342254
v -0.046816 -0.367015 0.329561
v -0.051682 -0.395121 0.339757
v -0.051656 -0.396021 0.334607
v -0.051803 -0.406407 0.336422
v -0.052510 -0.401936 0.340944
v -0.037250 -0.357794 0.327997
v -0.049196 -0.387237 0.338391
v -0.048937 -0.412292 0.337466
v -0.051828 -0.405507 0.341572
v -0.048963 -0.411392 0.342615
v -0.037276 -0.356893 0.333146
v -0.041708 -0.373294 0.330684
v -0.049170 -0.388137 0.333242
v -0.041734 -0.372394 0.335834
v -0.050523 -0.408957 0.336875
v -0.050549 -0.408057 0.342024
v -0.029090 -0.353877 0.327353
v -0.034365 -0.362689 0.328867
v -0.048646 -0.410486 0.337151
v -0.044221 -0.412039 0.342752
v -0.034391 -0.361789 0.334017
v -0.029115 -0.352976 0.332503
v -0.044195 -0.412939 0.337603
v -0.048672 -0.409586 0.342301
v -0.022332 -0.352567 0.327158
v -0.030738 -0.358977 0.328237
v -0.046172 -0.410994 0.337253
v -0.043584 -0.412039 0.342755
v -0.046198 -0.410094 0.342402
v -0.030764 -0.358077 0.333386
v -0.022358 -0.351667 0.332308
v -0.027141 -0.356324 0.327791
v -0.045853 -0.410994 0.337254
v -0.043558 -0.412939 0.337606
v -0.042577 -0.409601 0.342334
v -0.045879 -0.410094 0.342404
v -0.027167 -0.355424 0.332940
v -0.021375 -0.352567 0.327163
v -0.023574 -0.354731 0.327530
v -0.042551 -0.410501 0.337185
v -0.036937 -0.410651 0.342546
v -0.023600 -0.353831 0.332680
v -0.021401 -0.351666 0.332312
v -0.020037 -0.354198 0.327455
v -0.036912 -0.411551 0.337397
v -0.039237 -0.408129 0.342094
v -0.020062 -0.353298 0.332604
v -0.016885 -0.353112 0.327281
v -0.039211 -0.409029 0.336944
v -0.028984 -0.406499 0.341860
v -0.035859 -0.405678 0.341682
v -0.016911 -0.352212 0.332430
v -0.019718 -0.354198 0.327456
v -0.019744 -0.353298 0.332606
v -0.035833 -0.406578 0.336533
v -0.028958 -0.407399 0.336711
v -0.013231 -0.354757 0.327587
v -0.017383 -0.354541 0.327528
v -0.019699 -0.397950 0.335105
v -0.032443 -0.402247 0.341100
v -0.017409 -0.353641 0.332678
v -0.013257 -0.353857 0.332736
v -0.015605 -0.355576 0.327718
v -0.032417 -0.403147 0.335950
v -0.019725 -0.397050 0.340255
v -0.025473 -0.393348 0.334272
v -0.025499 -0.392448 0.339421
v -0.015631 -0.354675 0.332868
v -0.010413 -0.357502 0.328081
v -0.014386 -0.357302 0.328026
v -0.013085 -0.388214 0.333437
v -0.018377 -0.379631 0.331909
v -0.014412 -0.356401 0.333175
v -0.010439 -0.356602 0.333230
v -0.013724 -0.359719 0.328452
v -0.013111 -0.387314 0.338586
v -0.018403 -0.378731 0.337059
v -0.013750 -0.358819 0.333601
v -0.008459 -0.360446 0.333913
v -0.013724 -0.361352 0.328737
v -0.009117 -0.378190 0.331704
v -0.014887 -0.369627 0.330178
v -0.014913 -0.368726 0.335328
v -0.009143 -0.377290 0.336854
v -0.008433 -0.361347 0.328763
v -0.013750 -0.360451 0.333887
v -0.007821 -0.365030 0.334717
v -0.007821 -0.366977 0.335058
v -0.007795 -0.367877 0.329908
v -0.007795 -0.365931 0.329568
vn 0.004956782137566308 -0.17220719348988778 -0.9850482794366869
vn -0.004956782137566308 0.17220719348988778 0.9850482794366869
vn -0.95454286078657 -0.29439840339339474 0.046663765394694016
vn -0.9998964481007507 -0.014161975167194833 -0.002555686769995021
vn 0.9998964481007507 0.014161975167194833 0.002555686769995021
vn 0.95454286078657 0.29439840339339474 -0.046663765394694016
vn -0.9656638167374539 0.2550459229745148 -0.04944664010962537
vn 0.9656638167374539 -0.2550459229745148 0.04944664010962537
vn -0.8280356450462311 -0.5529912054813773 0.09250782233479182
vn 0.8280356450462311 0.5529912054813773 -0.09250782233479182
vn -0.8753323497339577 0.47553174042957347 -0.08753765677266799
vn 0.8753323497339577 -0.47553174042957347 0.08753765677266799
vn -0.7603783266887686 0.6391175749221557 -0.11555745639122962
vn 0.7603783266887686 -0.6391175749221557 0.11555745639122962
vn -0.6037041841179556 -0.7858082237320291 0.13433798269136984
vn 0.6037041841179556 0.7858082237320291 -0.13433798269136984
vn -0.5756383863769633 0.8049919077384537 -0.14362616963816446
vn 0.5756383863769633 -0.8049919077384537 0.14362616963816446
vn 0.9779751784829461 -0.20471273537340126 0.040709289445891875
vn 0.9994327299160666 0.03366726362069494 -0.0008565820527111572
vn -0.9994327299160666 -0.03366726362069494 0.0008565820527111572
vn -0.9779751784829461 0.20471273537340126 -0.040709289445891875
vn 0.9484960772612315 0.31283145090790965 -0.04991667800352729
vn -0.9484960772612315 -0.31283145090790965 0.04991667800352729
vn -0.30001930052806797 -0.9399366927047275 0.16281103469343694
vn 0.30001930052806797 0.9399366927047275 -0.16281103469343694
vn 0.9284265371285297 -0.36514513101253837 0.06850692266744207
vn -0.9284265371285297 0.36514513101253837 -0.06850692266744207
vn 0.7844100518934832 0.6116339804681634 -0.10297933979752054
vn -0.7844100518934832 -0.6116339804681634 0.10297933979752054
vn -0.3174468261902107 0.9338369273455198 -0.1648517687731622
vn 0.3174468261902107 -0.9338369273455198 0.1648517687731622
vn 0.8630798256789505 -0.4967674319375623 0.09118844812887036
vn -0.8630798256789505 0.4967674319375623 -0.09118844812887036
vn -0.0691745105767268 -0.982759732400619 0.17145901976371553
vn 0.0691745105767268 0.982759732400619 -0.17145901976371553
vn 0.7758290688061327 -0.6208432938133644 0.11244047546316047
vn -0.7758290688061327 0.6208432938133644 -0.11244047546316047
vn 0.43396993475640055 0.8878357549395224 -0.1530286508419043
vn -0.43396993475640055 -0.8878357549395224 0.1530286508419043
vn -0.0965688329641909 0.9803739666079545 -0.1718759613713319
vn 0.0965688329641909 -0.9803739666079545 0.1718759613713319
vn 0.10386555044105668 -0.979643738589449 0.17178501935286275
vn -0.10386555044105668 0.979643738589449 -0.17178501935286275
vn 0.6617316639894121 -0.737967985257896 0.13234219889440305
vn -0.6617316639894121 0.737967985257896 -0.13234219889440305
vn 0.10292540022369584 0.9799165317555786 -0.1707921332524139
vn -0.10292540022369584 -0.9799165317555786 0.1707921332524139
vn 0.061685805589800545 0.9832370586968318 -0.1715801497666329
vn -0.061685805589800545 -0.9832370586968318 0.1715801497666329
vn 0.5085383318731395 -0.8477380211988047 0.15076144211840004
vn -0.5085383318731395 0.8477380211988047 -0.15076144211840004
vn -0.07469884838905891 0.982244426512754 -0.17209290698334823
vn 0.07469884838905891 -0.982244426512754 0.17209290698334823
vn 0.34041260876413465 -0.9259367190234192 0.1635862101723175
vn -0.34041260876413465 0.9259367190234192 -0.1635862101723175
vn 0.28397072220608627 -0.944264933081303 0.1665063514786037
vn -0.28397072220608627 0.944264933081303 -0.1665063514786037
vn -0.2808847145489909 0.9451625809475521 -0.1666477503877379
vn 0.2808847145489909 -0.9451625809475521 0.1666477503877379
vn 0.2729574490364629 0.9478858667729817 -0.1643368935678781
vn -0.2729574490364629 -0.9478858667729817 0.1643368935678781
vn 0.07544985382962825 -0.982188087957681 0.17208683689092116
vn -0.07544985382962825 0.982188087957681 -0.17208683689092116
vn 0.6008945604708107 -0.7868682382446874 0.14058485991845993
vn -0.6008945604708107 0.7868682382446874 -0.14058485991845993
vn -0.5030902669140345 0.8508895565914051 -0.15128498213652153
vn 0.5030902669140345 -0.8508895565914051 0.15128498213652153
vn -0.07438836230735946 -0.9823945526706784 0.17136894244934353
vn 0.07438836230735946 0.9823945526706784 -0.17136894244934353
vn -0.655264072085511 0.7435482830997223 -0.13328520748143557
vn 0.655264072085511 -0.7435482830997223 0.13328520748143557
vn 0.5686569789024831 0.8107664655195075 -0.1388775674272352
vn -0.5686569789024831 -0.8107664655195075 0.1388775674272352
vn 0.7781260010381493 -0.6180486295268368 0.11196346747210417
vn -0.7781260010381493 0.6180486295268368 -0.11196346747210417
vn -0.7693785042464133 0.6285818789273651 -0.11376088382082342
vn 0.7693785042464133 -0.6285818789273651 0.11376088382082342
vn -0.33506998802451493 -0.9284018112275962 0.16061811863725106
vn 0.33506998802451493 0.9284018112275962 -0.16061811863725106
vn 0.8080528464567648 0.5809852777932756 -0.09750232982134457
vn -0.8080528464567648 -0.5809852777932756 0.09750232982134457
vn -0.680689269498521 -0.7222013031049164 0.12283076236485145
vn 0.680689269498521 0.7222013031049164 -0.12283076236485145
vn 0.8865444820644992 -0.4549543208275486 0.08399670994350196
vn -0.8865444820644992 0.4549543208275486 -0.08399670994350196
vn -0.8573923260733114 0.506225341169505 -0.09281327032496378
vn 0.8573923260733114 -0.506225341169505 0.09281327032496378
vn -0.9066368825798294 -0.4163589346543535 0.06822609969374126
vn 0.9066368825798294 0.4163589346543535 -0.06822609969374126
vn -0.9205542054663126 0.38396715183884367 -0.07175779474769528
vn 0.9205542054663126 -0.38396715183884367 0.07175779474769528
vn 0.9544882616257097 0.2945705619721136 -0.04669413708555021
vn -0.9544882616257097 -0.2945705619721136 0.04669413708555021
vn -0.9913298591645198 -0.1301894213938173 0.017771462685900793
vn 0.9913298591645198 0.1301894213938173 -0.017771462685900793
vn 0.9692017524031569 -0.24171543166707737 0.04713399232664335
vn -0.9692017524031569 0.24171543166707737 -0.04713399232664335
vn -0.972658092510998 0.22789257882287586 -0.04473485878290204
vn 0.972658092510998 -0.22789257882287586 0.04473485878290204
vn -0.9976249684122833 0.06682405891418569 -0.01670232171358291
vn 0.9976249684122833 -0.06682405891418569 0.01670232171358291
vn 0.9976671583500594 0.0679210371778921 -0.006853747762869352
vn -0.9976671583500594 -0.0679210371778921 0.006853747762869352
vn 0.998017086686134 -0.06095951213687744 0.015679048522014027
vn -0.998017086686134 0.06095951213687744 -0.015679048522014027
usemtl material_0_0
f 1//1 2//1 3//1
f 2//1 1//1 4//1
f 3//2 2//2 1//2
f 4//2 1//2 2//2
f 2//3 5//4 3//4
f 3//5 5//5 2//6
f 3//4 6//7 1//7
f 1//8 6//8 3//5
f 4//1 1//1 7//1
f 7//2 1//2 4//2
f 4//9 8//3 2//3
f 2//6 8//6 4//10
f 5//4 2//3 8//3
f 8//6 2//6 5//5
f 6//7 3//4 5//4
f 5//5 3//5 6//8
f 9//11 1//7 6//7
f 6//8 1//8 9//12
f 1//7 9//11 7//11
f 7//12 9//12 1//8
f 4//1 7//1 10//1
f 10//2 7//2 4//2
f 8//3 4//9 11//9
f 11//10 4//10 8//6
f 8//2 6//2 5//2
f 5//1 6//1 8//1
f 6//2 11//2 9//2
f 9//1 11//1 6//1
f 12//13 7//11 9//11
f 9//12 7//12 12//14
f 10//1 7//1 13//1
f 13//2 7//2 10//2
f 10//15 11//9 4//9
f 4//10 11//10 10//16
f 6//2 8//2 11//2
f 11//1 8//1 6//1
f 9//2 11//2 14//2
f 14//1 11//1 9//1
f 7//11 12//13 15//13
f 15//14 12//14 7//12
f 9//2 16//2 12//2
f 12//1 16//1 9//1
f 13//1 7//1 17//1
f 17//2 7//2 13//2
f 18//1 10//1 13//1
f 13//2 10//2 18//2
f 11//9 10//15 14//15
f 14//16 10//16 11//10
f 9//2 14//2 19//2
f 19//1 14//1 9//1
f 12//13 20//17 15//13
f 15//14 20//18 12//14
f 17//1 7//1 15//1
f 15//2 7//2 17//2
f 9//2 19//2 16//2
f 16//1 19//1 9//1
f 12//2 16//2 21//2
f 21//1 16//1 12//1
f 17//19 19//20 13//20
f 13//21 19//21 17//22
f 10//1 18//1 22//1
f 22//2 18//2 10//2
f 13//20 23//23 18//23
f 18//24 23//24 13//21
f 10//15 24//25 14//15
f 14//16 24//26 10//16
f 14//2 23//2 19//2
f 19//1 23//1 14//1
f 20//17 12//13 25//17
f 25//18 12//14 20//18
f 26//1 15//1 20//1
f 20//2 15//2 26//2
f 17//1 15//1 27//1
f 27//2 15//2 17//2
f 19//20 17//19 16//19
f 16//22 17//22 19//21
f 16//19 27//27 21//27
f 21//28 27//28 16//22
f 12//2 21//2 28//2
f 28//1 21//1 12//1
f 23//23 13//20 19//20
f 19//21 13//21 23//24
f 22//1 18//1 29//1
f 29//2 18//2 22//2
f 24//25 10//15 22//25
f 22//26 10//16 24//26
f 30//29 18//23 23//23
f 23//24 18//24 30//30
f 23//2 14//2 24//2
f 24//1 14//1 23//1
f 12//2 28//2 25//2
f 25//1 28//1 12//1
f 25//17 31//31 20//17
f 20//18 31//32 25//18
f 27//1 15//1 26//1
f 26//2 15//2 27//2
f 26//1 20//1 32//1
f 32//2 20//2 26//2
f 27//27 16//19 17//19
f 17//22 16//22 27//28
f 26//33 21//27 27//27
f 27//28 21//28 26//34
f 21//27 26//33 28//33
f 28//34 26//34 21//28
f 18//23 30//29 29//29
f 29//30 30//30 18//24
f 22//1 29//1 33//1
f 33//2 29//2 22//2
f 22//25 34//35 24//25
f 24//26 34//36 22//26
f 23//2 24//2 30//2
f 30//1 24//1 23//1
f 25//2 28//2 35//2
f 35//1 28//1 25//1
f 31//31 25//17 36//31
f 36//32 25//18 31//32
f 32//1 20//1 31//1
f 31//2 20//2 32//2
f 32//37 28//33 26//33
f 26//34 28//34 32//38
f 30//29 33//39 29//29
f 29//30 33//40 30//30
f 22//1 33//1 37//1
f 37//2 33//2 22//2
f 34//35 22//25 37//35
f 37//36 22//26 34//36
f 38//2 24//2 34//2
f 34//1 24//1 38//1
f 30//2 24//2 38//2
f 38//1 24//1 30//1
f 28//33 32//37 35//37
f 35//38 32//38 28//34
f 25//2 35//2 36//2
f 36//1 35//1 25//1
f 36//31 39//41 31//31
f 31//32 39//42 36//32
f 32//1 31//1 40//1
f 40//2 31//2 32//2
f 33//39 30//29 38//39
f 38//40 30//30 33//40
f 37//1 33//1 41//1
f 41//2 33//2 37//2
f 37//35 42//43 34//35
f 34//36 42//44 37//36
f 38//2 34//2 43//2
f 43//1 34//1 38//1
f 40//45 35//37 32//37
f 32//38 35//38 40//46
f 36//2 35//2 44//2
f 44//1 35//1 36//1
f 39//41 36//31 45//41
f 45//42 36//32 39//42
f 46//1 31//1 39//1
f 39//2 31//2 46//2
f 40//1 31//1 46//1
f 46//2 31//2 40//2
f 38//39 41//47 33//39
f 33//40 41//48 38//40
f 37//1 41//1 47//1
f 47//2 41//2 37//2
f 42//43 37//35 48//43
f 48//44 37//36 42//44
f 49//2 34//2 42//2
f 42//1 34//1 49//1
f 43//2 34//2 50//2
f 50//1 34//1 43//1
f 41//47 38//39 43//47
f 43//48 38//40 41//48
f 35//37 40//45 44//45
f 44//46 40//46 35//38
f 36//2 44//2 51//2
f 51//1 44//1 36//1
f 36//2 51//2 45//2
f 45//1 51//1 36//1
f 45//41 52//49 39//41
f 39//42 52//50 45//42
f 46//1 39//1 53//1
f 53//2 39//2 46//2
f 51//51 40//45 46//51
f 46//52 40//46 51//52
f 43//47 47//53 41//47
f 41//48 47//54 43//48
f 37//1 47//1 54//1
f 54//2 47//2 37//2
f 37//1 54//1 48//1
f 48//2 54//2 37//2
f 48//43 55//55 42//43
f 42//44 55//56 48//44
f 50//2 34//2 49//2
f 49//1 34//1 50//1
f 49//2 42//2 55//2
f 55//1 42//1 49//1
f 47//53 43//47 50//53
f 50//54 43//48 47//54
f 40//45 51//51 44//45
f 44//46 51//52 40//46
f 45//2 51//2 56//2
f 56//1 51//1 45//1
f 52//49 45//41 57//49
f 57//50 45//42 52//50
f 58//1 39//1 52//1
f 52//2 39//2 58//2
f 53//1 39//1 58//1
f 58//2 39//2 53//2
f 56//57 46//51 53//57
f 53//58 46//52 56//58
f 46//51 56//57 51//51
f 51//52 56//58 46//52
f 50//53 54//59 47//53
f 47//54 54//60 50//54
f 48//1 54//1 59//1
f 59//2 54//2 48//2
f 55//55 48//43 59//55
f 59//56 48//44 55//56
f 54//59 50//53 49//59
f 49//60 50//54 54//60
f 49//2 55//2 60//2
f 60//1 55//1 49//1
f 45//2 56//2 61//2
f 61//1 56//1 45//1
f 45//2 61//2 57//2
f 57//1 61//1 45//1
f 57//49 62//61 52//49
f 52//50 62//62 57//50
f 58//1 52//1 62//1
f 62//2 52//2 58//2
f 61//63 53//57 58//63
f 58//64 53//58 61//64
f 53//57 61//63 56//57
f 56//58 61//64 53//58
f 59//1 54//1 63//1
f 63//2 54//2 59//2
f 59//55 64//65 55//55
f 55//56 64//66 59//56
f 49//59 63//67 54//59
f 54//60 63//68 49//60
f 60//2 55//2 65//2
f 65//1 55//1 60//1
f 63//67 49//59 60//67
f 60//68 49//60 63//68
f 57//2 61//2 66//2
f 66//1 61//1 57//1
f 62//61 57//49 66//61
f 66//62 57//50 62//62
f 58//1 62//1 67//1
f 67//2 62//2 58//2
f 58//63 68//69 61//63
f 61//64 68//70 58//64
f 59//1 63//1 69//1
f 69//2 63//2 59//2
f 64//65 59//55 70//65
f 70//66 59//56 64//66
f 65//2 55//2 64//2
f 64//1 55//1 65//1
f 69//71 60//67 65//71
f 65//72 60//68 69//72
f 60//67 69//71 63//67
f 63//68 69//72 60//68
f 66//2 61//2 68//2
f 68//1 61//1 66//1
f 66//61 71//73 62//61
f 62//62 71//74 66//62
f 67//1 62//1 72//1
f 72//2 62//2 67//2
f 68//69 58//63 67//69
f 67//70 58//64 68//70
f 59//1 69//1 70//1
f 70//2 69//2 59//2
f 73//75 64//65 70//65
f 70//66 64//66 73//76
f 65//2 64//2 74//2
f 74//1 64//1 65//1
f 74//77 69//71 65//71
f 65//72 69//72 74//78
f 66//2 68//2 75//2
f 75//1 68//1 66//1
f 71//73 66//61 76//73
f 76//74 66//62 71//74
f 77//1 62//1 71//1
f 71//2 62//2 77//2
f 72//1 62//1 77//1
f 77//2 62//2 72//2
f 75//79 67//69 72//79
f 72//80 67//70 75//80
f 67//69 75//79 68//69
f 68//70 75//80 67//70
f 70//1 69//1 78//1
f 78//2 69//2 70//2
f 64//65 73//75 79//75
f 79//76 73//76 64//66
f 70//1 80//1 73//1
f 73//2 80//2 70//2
f 74//2 64//2 81//2
f 81//1 64//1 74//1
f 69//71 74//77 78//77
f 78//78 74//78 69//72
f 66//2 75//2 82//2
f 82//1 75//1 66//1
f 66//2 82//2 76//2
f 76//1 82//1 66//1
f 76//73 83//81 71//73
f 71//74 83//82 76//74
f 77//1 71//1 84//1
f 84//2 71//2 77//2
f 82//83 72//79 77//83
f 77//84 72//80 82//84
f 72//79 82//83 75//79
f 75//80 82//84 72//80
f 70//1 78//1 80//1
f 80//2 78//2 70//2
f 85//85 79//75 73//75
f 73//76 79//76 85//86
f 81//2 64//2 79//2
f 79//1 64//1 81//1
f 73//1 80//1 86//1
f 86//2 80//2 73//2
f 81//87 78//77 74//77
f 74//78 78//78 81//88
f 76//2 82//2 87//2
f 87//1 82//1 76//1
f 83//81 76//73 88//81
f 88//82 76//74 83//82
f 85//1 71//1 83//1
f 83//2 71//2 85//2
f 84//1 71//1 89//1
f 89//2 71//2 84//2
f 84//89 82//83 77//83
f 77//84 82//84 84//90
f 78//77 81//87 80//87
f 80//88 81//88 78//78
f 79//75 85//85 90//85
f 90//86 85//86 79//76
f 73//1 86//1 85//1
f 85//2 86//2 73//2
f 81//2 79//2 91//2
f 91//1 79//1 81//1
f 80//87 91//91 86//91
f 86//92 91//92 80//88
f 82//83 84//89 87//89
f 87//90 84//90 82//84
f 76//2 87//2 92//2
f 92//1 87//1 76//1
f 76//2 90//2 88//2
f 88//1 90//1 76//1
f 93//93 83//81 88//81
f 88//82 83//82 93//94
f 85//1 94//1 71//1
f 71//2 94//2 85//2
f 85//1 83//1 95//1
f 95//2 83//2 85//2
f 89//1 71//1 94//1
f 94//2 71//2 89//2
f 89//95 87//89 84//89
f 84//90 87//90 89//96
f 91//91 80//87 81//87
f 81//88 80//88 91//92
f 95//97 90//85 85//85
f 85//86 90//86 95//98
f 91//2 79//2 90//2
f 90//1 79//1 91//1
f 85//1 86//1 96//1
f 96//2 86//2 85//2
f 97//99 86//91 91//91
f 91//92 86//92 97//100
f 87//89 89//95 92//95
f 92//96 89//96 87//90
f 92//2 90//2 76//2
f 76//1 90//1 92//1
f 88//2 90//2 98//2
f 98//1 90//1 88//1
f 83//81 93//93 99//93
f 99//94 93//94 83//82
f 88//2 98//2 93//2
f 93//1 98//1 88//1
f 85//1 96//1 94//1
f 94//2 96//2 85//2
f 95//1 83//1 99//1
f 99//2 83//2 95//2
f 94//101 92//95 89//95
f 89//96 92//96 94//102
f 90//85 95//97 98//97
f 98//98 95//98 90//86
f 91//2 90//2 97//2
f 97//1 90//1 91//1
f 86//91 97//99 96//99
f 96//100 97//100 86//92
f 100//2 90//2 92//2
f 92//1 90//1 100//1
f 101//103 99//93 93//93
f 93//94 99//94 101//104
f 93//2 98//2 102//2
f 102//1 98//1 93//1
f 96//99 100//101 94//101
f 94//102 100//102 96//100
f 95//1 99//1 103//1
f 103//2 99//2 95//2
f 92//95 94//101 100//101
f 100//102 94//102 92//96
f 103//105 98//97 95//97
f 95//98 98//98 103//106
f 97//2 90//2 100//2
f 100//1 90//1 97//1
f 100//101 96//99 97//99
f 97//100 96//100 100//102
f 99//93 101//103 104//103
f 104//104 101//104 99//94
f 93//2 102//2 101//2
f 101//1 102//1 93//1
f 98//97 103//105 102//105
f 102//106 103//106 98//98
f 103//1 99//1 104//1
f 104//2 99//2 103//2
f 102//105 104//103 101//103
f 101//104 104//104 102//106
f 104//103 102//105 103//105
f 103//106 102//106 104//104
