# SSTK version 0.8.0
# 18
mtllib original-18.mtl
o mesh48/mesh48-geometry#mesh48-geometry
v -0.029664 -0.348304 0.326376
v -0.030301 -0.349623 0.326603
v -0.030301 -0.348995 0.326494
v -0.029664 -0.350250 0.326716
v -0.030327 -0.348095 0.331643
v -0.029690 -0.347403 0.331526
v -0.010729 -0.348286 0.326468
v -0.030327 -0.348723 0.331753
v -0.010729 -0.350233 0.326809
v -0.029690 -0.349350 0.331866
v -0.010755 -0.347386 0.331618
v -0.010091 -0.348976 0.326592
v -0.010755 -0.349333 0.331958
v -0.010117 -0.348076 0.331742
v -0.010091 -0.349604 0.326702
v -0.010117 -0.348704 0.331851
vn 0.004956782137566308 -0.17220719348988778 -0.9850482794366869
vn -0.004956782137566308 0.17220719348988778 0.9850482794366869
vn -0.9238387871132236 -0.37782479014447135 0.061402959028486845
vn -0.9327315524768776 0.35435936656187045 -0.06664300671445902
vn 0.9327315524768776 -0.35435936656187045 0.06664300671445902
vn 0.9238387871132236 0.37782479014447135 -0.061402959028486845
vn -0.40460216096423596 0.9004830906816458 -0.15945938272645316
vn 0.40460216096423596 -0.9004830906816458 0.15945938272645316
vn -0.38260670078147785 -0.9104331100946997 0.15723760542696202
vn 0.38260670078147785 0.9104331100946997 -0.15723760542696202
vn 0.40447789901196207 0.9012278809735944 -0.15551828113348487
vn -0.40447789901196207 -0.9012278809735944 0.15551828113348487
vn 0.3827322352591354 -0.9097285852425732 0.16096564007915584
vn -0.3827322352591354 0.9097285852425732 -0.16096564007915584
vn 0.9326825545211143 0.3560765542495759 -0.05755640716477903
vn -0.9326825545211143 -0.3560765542495759 0.05755640716477903
vn 0.9238907860938386 -0.3761238817716778 0.07040341562675564
vn -0.9238907860938386 0.3761238817716778 -0.07040341562675564
usemtl material_0_0
f 1//1 2//1 3//1
f 2//1 1//1 4//1
f 3//2 2//2 1//2
f 4//2 1//2 2//2
f 2//3 5//4 3//4
f 3//5 5//5 2//6
f 3//4 6//7 1//7
f 1//8 6//8 3//5
f 4//1 1//1 7//1
f 7//2 1//2 4//2
f 4//9 8//3 2//3
f 2//6 8//6 4//10
f 5//4 2//3 8//3
f 8//6 2//6 5//5
f 6//7 3//4 5//4
f 5//5 3//5 6//8
f 6//7 7//11 1//7
f 1//8 7//12 6//8
f 4//1 7//1 9//1
f 9//2 7//2 4//2
f 8//3 4//9 10//9
f 10//10 4//10 8//6
f 10//2 5//2 8//2
f 8//1 5//1 10//1
f 5//2 10//2 6//2
f 6//1 10//1 5//1
f 7//11 6//7 11//11
f 11//12 6//8 7//12
f 9//1 7//1 12//1
f 12//2 7//2 9//2
f 13//13 4//9 9//13
f 9//14 4//10 13//14
f 4//9 13//13 10//9
f 10//10 13//14 4//10
f 6//2 10//2 13//2
f 13//1 10//1 6//1
f 6//2 13//2 11//2
f 11//1 13//1 6//1
f 14//15 7//11 11//11
f 11//12 7//12 14//16
f 7//11 14//15 12//15
f 12//16 14//16 7//12
f 9//1 12//1 15//1
f 15//2 12//2 9//2
f 15//17 13//13 9//13
f 9//14 13//14 15//18
f 11//2 13//2 16//2
f 16//1 13//1 11//1
f 11//2 16//2 14//2
f 14//1 16//1 11//1
f 16//17 12//15 14//15
f 14//16 12//16 16//18
f 12//15 16//17 15//17
f 15//18 16//18 12//16
f 13//13 15//17 16//17
f 16//18 15//18 13//14
