# SSTK version 0.8.0
# 3
mtllib original-3.mtl
o Componente_2_2/Componente_2/mesh2/mesh2-geometry#mesh2-geometry
v -0.308037 0.914671 -0.052053
v -0.212316 0.196914 -0.081353
v -0.229767 0.196884 -0.058607
v -0.292260 0.914671 -0.072613
v -0.211911 0.196914 -0.081882
v -0.306193 0.818666 -0.032107
v -0.204920 0.160764 -0.075935
v -0.230021 0.196884 -0.057993
v -0.311525 0.862193 -0.030295
v -0.076154 0.914671 -0.304088
v -0.221212 0.160764 -0.054702
v -0.206355 0.196908 -0.087831
v -0.240994 0.196884 -0.031503
v -0.307437 0.816585 -0.028574
v -0.312421 0.863064 -0.028354
v -0.317954 0.914671 -0.028110
v -0.155982 -0.012144 -0.013726
v -0.221245 0.161461 -0.051116
v -0.203894 0.160017 -0.079673
v -0.185881 0.196908 -0.108306
v -0.147363 -0.012144 -0.056153
v -0.181215 0.160017 -0.102352
v -0.231528 0.161461 -0.026289
v -0.309745 0.811001 -0.006522
v -0.316064 0.867513 -0.004284
v -0.313011 0.864538 -0.025067
v -0.160833 0.196908 -0.133353
v -0.153328 -0.012144 0.029469
v -0.230531 0.161836 -0.022928
v -0.241078 0.196866 -0.030844
v -0.314743 0.867035 -0.013928
v -0.070449 0.196908 -0.223737
v -0.156645 0.159625 -0.128619
v -0.179275 0.159625 -0.105988
v -0.128060 -0.012144 -0.094918
v -0.244821 0.196866 -0.002415
v -0.314088 0.849838 -0.002417
v -0.121845 0.196908 -0.172341
v -0.047703 0.196908 -0.241191
v -0.153856 0.159557 -0.131750
v -0.139586 -0.012144 0.070490
v -0.310187 0.810582 -0.002830
v -0.310244 0.810607 -0.002417
v -0.316063 0.867504 -0.000549
v -0.321337 0.914671 -0.002417
v -0.069629 0.159785 -0.214893
v -0.118645 0.159557 -0.166961
v -0.051093 0.914671 -0.323318
v -0.047059 0.196908 -0.241686
v -0.099386 -0.012144 -0.127380
v -0.234046 0.161836 0.003771
v -0.309743 0.810985 0.001690
v -0.115218 0.159785 -0.169304
v -0.065857 0.160397 -0.216395
v -0.233403 0.161184 0.004457
v -0.314534 0.866486 0.010237
v -0.063296 -0.012144 -0.151323
v -0.022253 -0.012144 -0.165117
v -0.020568 0.196862 -0.252653
v -0.044669 0.160397 -0.232653
v -0.136311 -0.012144 0.075430
v -0.241078 0.196866 0.026011
v -0.313372 0.864472 0.017432
v -0.021908 0.914671 -0.335407
v -0.019820 0.196846 -0.252961
v -0.042770 0.160797 -0.232932
v -0.229901 0.161184 0.031057
v -0.240992 0.196866 0.026670
v -0.312332 0.862237 0.023525
v -0.317954 0.914671 0.023277
v -0.312742 0.863378 0.021337
v -0.000653 -0.012144 -0.166470
v -0.018038 0.160797 -0.243176
v -0.229237 0.160512 0.031683
v 0.008608 0.196846 -0.256704
v -0.016106 0.160885 -0.243336
v -0.133037 -0.012144 0.080371
v -0.311403 0.861194 0.025503
v 0.009411 0.914671 -0.339530
v 0.009411 0.196846 -0.256809
v 0.010448 0.160885 -0.246832
v 0.020947 -0.012144 -0.167823
v -0.219010 0.160512 0.056373
v -0.230021 0.196884 0.053159
v -0.218394 0.159899 0.056928
v -0.229770 0.196914 0.053773
v -0.308037 0.914671 0.047219
v 0.037839 0.196846 -0.253067
v 0.012364 0.160827 -0.246419
v -0.129762 -0.012144 0.085311
v 0.040730 0.914671 -0.335407
v 0.042153 -0.012144 -0.163540
v -0.202182 0.159899 0.078055
v -0.212316 0.196914 0.076519
v 0.038641 0.196846 -0.252961
v 0.038908 0.160827 -0.242925
v -0.201299 0.159608 0.079215
v -0.211911 0.196914 0.077048
v -0.292260 0.914671 0.067779
v 0.065132 0.196862 -0.241990
v 0.040872 0.160433 -0.242348
v -0.121883 -0.012144 0.097199
v 0.069914 0.914671 -0.323318
v 0.063359 -0.012144 -0.159256
v -0.156065 0.159608 0.124449
v -0.160659 0.196932 0.128302
v 0.065880 0.196891 -0.241684
v 0.065551 0.160433 -0.232126
v -0.155454 0.159552 0.125346
v -0.121307 0.196932 0.167653
v 0.088627 0.196891 -0.224229
v 0.067379 0.159971 -0.231020
v -0.115691 -0.012144 0.106542
v -0.076011 0.196932 0.212949
v -0.119915 0.159552 0.160884
v 0.094976 0.914671 -0.304088
v 0.082727 -0.012144 -0.149630
v -0.116787 0.159619 0.163669
v -0.070477 0.196889 0.218902
v 0.089271 0.196891 -0.223736
v 0.088515 0.159971 -0.214801
v -0.071551 0.159619 0.208905
v -0.077251 0.914671 0.299254
v 0.140325 0.196908 -0.172683
v 0.090373 0.159619 -0.213739
v -0.083272 -0.012144 0.135170
v -0.047730 0.196889 0.236356
v -0.069693 0.159971 0.209968
v 0.179676 0.196908 -0.133332
v 0.135609 0.159619 -0.168503
v 0.102094 -0.012144 -0.140003
v -0.063905 -0.012144 0.144796
v -0.048557 0.159971 0.226186
v -0.047078 0.196861 0.236853
v 0.225177 0.196908 -0.087831
v 0.174275 0.159552 -0.130179
v 0.138737 0.159552 -0.165718
v -0.051869 0.914671 0.318731
v 0.230730 0.196898 -0.082164
v 0.176614 0.159779 -0.126754
v -0.046730 0.160433 0.227292
v -0.020588 0.196861 0.247826
v -0.044538 -0.012144 0.154423
v 0.311082 0.914671 -0.083594
v 0.221893 0.159779 -0.081475
v 0.134512 -0.012144 -0.111376
v -0.022050 0.160433 0.237515
v -0.019830 0.196861 0.248139
v 0.248184 0.196898 -0.059417
v 0.223390 0.160392 -0.077704
v 0.158407 -0.012144 -0.075324
v -0.022310 0.914671 0.330975
v 0.248653 0.196898 -0.058807
v 0.239648 0.160392 -0.056516
v 0.172150 -0.012144 -0.034303
v -0.023332 -0.012144 0.158706
v -0.020087 0.160827 0.238091
v 0.008598 0.196845 0.251880
v 0.329326 0.914671 -0.059818
v 0.006458 0.160827 0.241586
v 0.009411 0.196845 0.251987
v 0.259622 0.196869 -0.032316
v 0.239925 0.160793 -0.054617
v 0.173476 -0.012144 -0.012705
v 0.009411 0.914671 0.335151
v 0.259916 0.196869 -0.031606
v 0.250169 0.160793 -0.029886
v -0.002126 -0.012144 0.162989
v 0.008374 0.160885 0.241998
v 0.041131 0.914671 0.330975
v 0.340795 0.914671 -0.032130
v 0.038652 0.196845 0.248138
v 0.010223 0.196845 0.251880
v 0.263657 0.196852 -0.003178
v 0.250328 0.160884 -0.027954
v 0.174803 -0.012144 0.008892
v 0.034927 0.160885 0.238502
v 0.263757 0.196852 -0.002417
v 0.253824 0.160884 -0.001400
v 0.036860 0.160797 0.238342
v 0.039409 0.196861 0.247826
v 0.344706 0.914671 -0.002417
v 0.019474 -0.012144 0.161637
v 0.070690 0.914671 0.318731
v 0.065900 0.196889 0.236856
v 0.260015 0.196852 0.026011
v 0.253411 0.160830 0.000516
v 0.170494 -0.012144 0.030106
v 0.061591 0.160797 0.228098
v 0.259920 0.196898 0.026773
v 0.249916 0.160830 0.027061
v 0.063490 0.160397 0.227819
v 0.096073 0.914671 0.299254
v 0.340795 0.914671 0.027296
v 0.041074 -0.012144 0.160284
v 0.066552 0.196889 0.236356
v 0.259625 0.196898 0.027484
v 0.249339 0.160437 0.029024
v 0.166185 -0.012144 0.051319
v 0.084679 0.160397 0.211561
v 0.089299 0.196889 0.218902
v 0.329326 0.914671 0.054984
v 0.248653 0.196898 0.053973
v 0.088450 0.159785 0.210059
v 0.094827 0.196915 0.213235
v 0.239116 0.160437 0.053704
v 0.082118 -0.012144 0.146490
v 0.311082 0.914671 0.078760
v 0.231199 0.196898 0.076719
v 0.238008 0.159977 0.055532
v 0.156533 -0.012144 0.070702
v 0.133707 0.159785 0.164802
v 0.140244 0.196915 0.167819
v 0.230730 0.196898 0.077330
v 0.221789 0.159977 0.076669
v 0.137135 0.159557 0.162459
v 0.179599 0.196915 0.128464
v 0.118207 -0.012144 0.122546
v 0.220724 0.159625 0.078527
v 0.146881 -0.012144 0.090085
v 0.172677 0.159557 0.126916
v 0.175466 0.159625 0.123785
vn -0.8400449420431272 -0.08671163501345999 -0.5355423304474182
vn -0.7859559877557775 -0.13604205512659673 -0.6031299565995477
vn -0.8977480782228958 -0.1944708658084189 -0.39525873854833515
vn 0.8977480782228958 0.1944708658084189 0.39525873854833515
vn 0.7859559877557775 0.13604205512659673 0.6031299565995477
vn 0.8400449420431272 0.08671163501345999 0.5355423304474182
vn -0.7607773321203322 -0.07684330182527015 -0.6444477929952589
vn 0.7607773321203322 0.07684330182527015 0.6444477929952589
vn -0.7529739946225645 -0.16193391930951398 -0.6378146824895126
vn 0.7529739946225645 0.16193391930951398 0.6378146824895126
vn -0.9195415783156607 -0.09679213720790421 -0.3808865551886417
vn 0.9195415783156607 0.09679213720790421 0.3808865551886417
vn -0.8432651437243022 -0.27668678440547695 -0.4608126742126233
vn 0.8432651437243022 0.27668678440547695 0.4608126742126233
vn -0.9117138978934606 -0.16174986038842828 -0.37764368265897985
vn 0.9117138978934606 0.16174986038842828 0.37764368265897985
vn -0.6633331092269873 -0.08618867990052648 -0.7433442659093176
vn 0.6633331092269873 0.08618867990052648 0.7433442659093176
vn -0.9041433720618531 -0.323171773207944 -0.27943651829754534
vn 0.9041433720618531 0.323171773207944 0.27943651829754534
vn -0.7782011486242151 -0.14742551313353291 -0.6104659616696634
vn 0.7782011486242151 0.14742551313353291 0.6104659616696634
vn -0.9670496798289075 -0.20894241368962585 -0.14545784442360057
vn 0.9670496798289075 0.20894241368962585 0.14545784442360057
vn -0.948822622441719 -0.10031652577387615 -0.2994532113694536
vn 0.948822622441719 0.10031652577387615 0.2994532113694536
vn -0.960890634173718 -0.10180867359720246 -0.2575348192722848
vn 0.960890634173718 0.10180867359720246 0.2575348192722848
vn -0.8970978079893915 -0.3725073307672013 -0.23760010821824903
vn 0.8970978079893915 0.3725073307672013 0.23760010821824903
vn -0.9267872613703175 -0.34153663918177035 -0.15626290749287908
vn 0.9267872613703175 0.34153663918177035 0.15626290749287908
vn -0.8480395588824515 -0.24969581670838867 -0.4674194109028719
vn 0.8480395588824515 0.24969581670838867 0.4674194109028719
vn -0.7499232482419369 -0.15997642757962127 -0.6418899160799495
vn 0.7499232482419369 0.15997642757962127 0.6418899160799495
vn -0.8401048958564378 -0.31659038292496533 -0.4404478327764456
vn 0.8401048958564378 0.31659038292496533 0.4404478327764456
vn -0.7852210236765043 -0.24779528058699282 -0.5674728565272849
vn 0.7852210236765043 0.24779528058699282 0.5674728565272849
vn -0.940074157023113 -0.3399635505566494 -0.02617944976884795
vn 0.940074157023113 0.3399635505566494 0.02617944976884795
vn -0.9897344115872911 -0.10467219784964117 -0.0973114870777549
vn 0.9897344115872911 0.10467219784964117 0.0973114870777549
vn -0.9919840253590978 -0.10833851417762215 -0.06504198473406295
vn 0.9919840253590978 0.10833851417762215 0.06504198473406295
vn -0.9859539970373632 -0.10509992266453042 -0.12980262702255613
vn 0.9859539970373632 0.10509992266453042 0.12980262702255613
vn -0.710145462647814 -0.14453378101248102 -0.6890598000369478
vn 0.710145462647814 0.14453378101248102 0.6890598000369478
vn -0.9208672596917348 -0.38977597357716426 0.00884197092330134
vn 0.9208672596917348 0.38977597357716426 -0.00884197092330134
vn -0.9347052367064097 -0.34259378936855184 0.09463411625682866
vn 0.9347052367064097 0.34259378936855184 -0.09463411625682866
vn -0.9762194606004602 -0.17458174655837172 -0.1285176194674286
vn 0.9762194606004602 0.17458174655837172 0.1285176194674286
vn -0.5941411952628589 -0.16519205875912077 -0.7872152334746478
vn 0.5941411952628589 0.16519205875912077 0.7872152334746478
vn -0.7125924420015683 -0.2072165824379521 -0.6702785238727083
vn 0.7125924420015683 0.2072165824379521 0.6702785238727083
vn -0.7893842134499255 -0.22329821060340385 -0.5718482951774538
vn 0.7893842134499255 0.22329821060340385 0.5718482951774538
vn -0.763588574501727 -0.26195384189321647 -0.5901802043510139
vn 0.763588574501727 0.26195384189321647 0.5901802043510139
vn -0.9723715925253119 -0.19557215819014073 0.12745594137049612
vn 0.9723715925253119 0.19557215819014073 -0.12745594137049612
vn -0.9943973692532312 -0.10570653567209432 0.000018397207508931442
vn 0.9943973692532312 0.10570653567209432 -0.000018397207508931442
vn -0.6645680333276759 -0.14833488332179778 -0.7323565330280694
vn 0.6645680333276759 0.14833488332179778 0.7323565330280694
vn -0.6028533372401226 -0.13897816254745338 -0.7856544559240916
vn 0.6028533372401226 0.13897816254745338 0.7856544559240916
vn -0.7133079638254138 -0.20235642313745952 -0.6710019573430881
vn 0.7133079638254138 0.20235642313745952 0.6710019573430881
vn -0.8951540569293 -0.36568650021826565 0.2548972301166334
vn 0.8951540569293 0.36568650021826565 -0.2548972301166334
vn -0.9864442599882767 -0.10090409104855919 -0.12940667040707396
vn 0.9864442599882767 0.10090409104855919 0.12940667040707396
vn -0.9948093205507197 -0.10175663826265814 0.0000481133845693568
vn 0.9948093205507197 0.10175663826265814 -0.0000481133845693568
vn -0.9919840253590978 -0.10833851417762219 0.0650419847340629
vn 0.9919840253590978 0.10833851417762219 -0.0650419847340629
vn -0.9941819419587489 -0.10771381658418287 0
vn 0.9941819419587489 0.10771381658418287 0
vn -0.5140537057220753 -0.2625074290999671 -0.8166018842133097
vn 0.5140537057220753 0.2625074290999671 0.8166018842133097
vn -0.6209456362177482 -0.20287129597652542 -0.7571457945012577
vn 0.6209456362177482 0.20287129597652542 0.7571457945012577
vn -0.45917755437986874 -0.10293379923363402 -0.8823608142529067
vn 0.45917755437986874 0.10293379923363402 0.8823608142529067
vn -0.41762197705512455 -0.1912798032951975 -0.8882589268518046
vn 0.41762197705512455 0.1912798032951975 0.8882589268518046
vn -0.6536121730099871 -0.2442708889792182 -0.7163259454260087
vn 0.6536121730099871 0.2442708889792182 0.7163259454260087
vn -0.9149668024112118 -0.3194721628137905 0.2465223877713372
vn 0.9149668024112118 0.3194721628137905 -0.2465223877713372
vn -0.9897300659875133 -0.10466927716696094 0.09735881520282692
vn 0.9897300659875133 0.10466927716696094 -0.09735881520282692
vn -0.6185217054809119 -0.21836921437683338 -0.7548150674578699
vn 0.6185217054809119 0.21836921437683338 0.7548150674578699
vn -0.45319779850339154 -0.29372134639952974 -0.8416290905743021
vn 0.45319779850339154 0.29372134639952974 0.8416290905743021
vn -0.888852338102085 -0.283662413732688 0.35982934300276614
vn 0.888852338102085 0.283662413732688 -0.35982934300276614
vn -0.9859539970373632 -0.10509992266453046 0.1298026270225561
vn 0.9859539970373632 0.10509992266453046 -0.1298026270225561
vn -0.5138676642543032 -0.2926237187231611 -0.8064188631687971
vn 0.5138676642543032 0.2926237187231611 0.8064188631687971
vn -0.31630807019039575 -0.367299625635463 -0.8746657588704821
vn 0.31630807019039575 0.367299625635463 0.8746657588704821
vn -0.3779226648457839 -0.1581451857698744 -0.9122305408248911
vn 0.3779226648457839 0.1581451857698744 0.9122305408248911
vn -0.3405580754601353 -0.31431437021945013 -0.8861301675896377
vn 0.3405580754601353 0.31431437021945013 0.8861301675896377
vn -0.8515469854100017 -0.33361283550346243 0.4044381381948026
vn 0.8515469854100017 0.33361283550346243 -0.4044381381948026
vn -0.978025987017696 -0.16395541830326593 0.1287780630661236
vn 0.978025987017696 0.16395541830326593 -0.1287780630661236
vn -0.2149087044108988 -0.11205564768059499 -0.9701844054566695
vn 0.2149087044108988 0.11205564768059499 0.9701844054566695
vn -0.21743468414359768 -0.20509144299290744 -0.9542848935943925
vn 0.21743468414359768 0.20509144299290744 0.9542848935943925
vn -0.21975211076347254 -0.3254233603840145 -0.9196785559810418
vn 0.21975211076347254 0.3254233603840145 0.9196785559810418
vn -0.8794108071249768 -0.3059629626136445 0.36472359098429386
vn 0.8794108071249768 0.3059629626136445 -0.36472359098429386
vn -0.924362113795526 -0.17986485858836454 0.33645700353010144
vn 0.924362113795526 0.17986485858836454 -0.33645700353010144
vn -0.960890634173718 -0.1018086735972026 0.25753481927228467
vn 0.960890634173718 0.1018086735972026 -0.25753481927228467
vn -0.948822622441719 -0.10031652577387627 0.29945321136945346
vn 0.948822622441719 0.10031652577387627 -0.29945321136945346
vn -0.15631821736070636 -0.4004572583613344 -0.9028834914577264
vn 0.15631821736070636 0.4004572583613344 0.9028834914577264
vn -0.21413606316313544 -0.3406559584397108 -0.9154776154732105
vn 0.21413606316313544 0.3406559584397108 0.9154776154732105
vn -0.8360888637341695 -0.26984378667697906 0.4776397625109683
vn 0.8360888637341695 0.26984378667697906 -0.4776397625109683
vn -0.12872470377580322 -0.16554417313061143 -0.9777653488339284
vn 0.12872470377580322 0.16554417313061143 0.9777653488339284
vn -0.09263653709696404 -0.34124819927109196 -0.9353973158444063
vn 0.09263653709696404 0.34124819927109196 0.9353973158444063
vn -0.8174071220974498 -0.33211275979020805 0.4706874881796799
vn 0.8174071220974498 0.33211275979020805 -0.4706874881796799
vn -0.9195412212472973 -0.09679217409558902 0.3808874078528694
vn 0.9195412212472973 0.09679217409558902 -0.3808874078528694
vn 0.04355405655349536 -0.11437214547965313 -0.9924827739039687
vn -0.04355405655349536 0.11437214547965313 0.9924827739039687
vn 0.03968404250835571 -0.20604796772852635 -0.9777368826863081
vn -0.03968404250835571 0.20604796772852635 0.9777368826863081
vn 0.03388696690493098 -0.3407863069221242 -0.9395298646069553
vn -0.03388696690493098 0.3407863069221242 0.9395298646069553
vn 0.002043771868676508 -0.412581004932391 -0.9109186228009213
vn -0.002043771868676508 0.412581004932391 0.9109186228009213
vn -0.832434893008746 -0.2810046776206719 0.4775861388868187
vn 0.832434893008746 0.2810046776206719 -0.4775861388868187
vn -0.9141899055755984 -0.14434990771886508 0.3787082263236875
vn 0.9141899055755984 0.14434990771886508 -0.3787082263236875
vn -0.771370663742664 -0.2454833266451244 0.5871330645232348
vn 0.771370663742664 0.2454833266451244 -0.5871330645232348
vn -0.8363986567766526 -0.15780272034335222 0.5249148391829374
vn 0.8363986567766526 0.15780272034335222 -0.5249148391829374
vn -0.8400449420431272 -0.08671163501346023 0.5355423304474182
vn 0.8400449420431272 0.08671163501346023 -0.5355423304474182
vn 0.12874818955409112 -0.16446885014548923 -0.9779437105571898
vn -0.12874818955409112 0.16446885014548923 0.9779437105571898
vn 0.1561491887361881 -0.3344646415666935 -0.9293819636719305
vn -0.1561491887361881 0.3344646415666935 0.9293819636719305
vn -0.7803731861602387 -0.3089403337778209 0.5436667733891472
vn 0.7803731861602387 0.3089403337778209 -0.5436667733891472
vn 0.2991486340362732 -0.10973841878258286 -0.9478752946444645
vn -0.2991486340362732 0.10973841878258286 0.9478752946444645
vn 0.16048794719015982 -0.40654414067670647 -0.899425083310515
vn -0.16048794719015982 0.40654414067670647 0.899425083310515
vn -0.7848022928367218 -0.2479727266067033 0.5679743726766743
vn 0.7848022928367218 0.2479727266067033 -0.5679743726766743
vn -0.7879289996390789 -0.11673801501312221 0.6045991460286363
vn 0.7879289996390789 0.11673801501312221 -0.6045991460286363
vn 0.24857426958481843 -0.19858998652696538 -0.9480363124646617
vn -0.24857426958481843 0.19858998652696538 0.9480363124646617
vn 0.1629258556941148 -0.33743077353769746 -0.9271438068692968
vn -0.1629258556941148 0.33743077353769746 0.9271438068692968
vn -0.7491889643574536 -0.22884338075980806 0.6215678585379294
vn 0.7491889643574536 0.22884338075980806 -0.6215678585379294
vn -0.7584156471572361 -0.13909655042789926 0.636755726951968
vn 0.7584156471572361 0.13909655042789926 -0.636755726951968
vn -0.7432374213831116 -0.0779050289179416 0.6644764419639553
vn 0.7432374213831116 0.0779050289179416 -0.6644764419639553
vn 0.3783321346333045 -0.15084506407640136 -0.9132965359332059
vn -0.3783321346333045 0.15084506407640136 0.9132965359332059
vn 0.28485554071764047 -0.32021583727932285 -0.9035038120992978
vn -0.28485554071764047 0.32021583727932285 0.9035038120992978
vn -0.765417635644366 -0.268639111665205 0.5847810451171601
vn 0.765417635644366 0.268639111665205 -0.5847810451171601
vn 0.5349508196216786 -0.09844221885732403 -0.8391285659137944
vn -0.5349508196216786 0.09844221885732403 0.8391285659137944
vn 0.31928053118290817 -0.3797590332217434 -0.868241336895478
vn -0.31928053118290817 0.3797590332217434 0.868241336895478
vn -0.7573499736474463 -0.20277605235964272 0.6207277100352873
vn 0.7573499736474463 0.20277605235964272 -0.6207277100352873
vn -0.7337983909828031 -0.1350860053070308 0.6658015414229965
vn 0.7337983909828031 0.1350860053070308 -0.6658015414229965
vn 0.4874262848965151 -0.17498250344110447 -0.8554511910573654
vn -0.4874262848965151 0.17498250344110447 0.8554511910573654
vn 0.4023917339913934 -0.299099543784979 -0.8652284989082462
vn -0.4023917339913934 0.299099543784979 0.8652284989082462
vn -0.7579361688661271 -0.19870419012823132 0.621328744506498
vn 0.7579361688661271 0.19870419012823132 -0.621328744506498
vn -0.6899834712071312 -0.13506232506137367 0.7111124930768505
vn 0.6899834712071312 0.13506232506137367 -0.7111124930768505
vn 0.6036713407497526 -0.1290506685438544 -0.7867190332677737
vn -0.6036713407497526 0.1290506685438544 0.7867190332677737
vn 0.5162468140146299 -0.27471305938125345 -0.811185528732568
vn -0.5162468140146299 0.27471305938125345 0.811185528732568
vn -0.7165458357760657 -0.24343070412939388 0.6536846009499131
vn 0.7165458357760657 0.24343070412939388 -0.6536846009499131
vn -0.7150666083574265 -0.11786281381873186 0.689048694020196
vn 0.7150666083574265 0.11786281381873186 -0.689048694020196
vn -0.6715798725994873 -0.19798977764394204 0.7139891614497791
vn 0.6715798725994873 0.19798977764394204 -0.7139891614497791
vn 0.6755641971756784 -0.08644214413973893 -0.7322163418081475
vn -0.6755641971756784 0.08644214413973893 0.7322163418081475
vn 0.47353106574271436 -0.33382663852961997 -0.8150632522599602
vn -0.47353106574271436 0.33382663852961997 0.8150632522599602
vn -0.6708708686720873 -0.20286081364316735 0.7132879978348096
vn 0.6708708686720873 0.20286081364316735 -0.7132879978348096
vn -0.6277625128808729 -0.15252275281448296 0.7633158175325494
vn 0.6277625128808729 0.15252275281448296 -0.7633158175325494
vn 0.6161847655369018 -0.15367044206675487 -0.7724647111391184
vn -0.6161847655369018 0.15367044206675487 0.7724647111391184
vn 0.5150923079288798 -0.26588658423044953 -0.8148522802562218
vn -0.5150923079288798 0.26588658423044953 0.8148522802562218
vn -0.6047013612105848 -0.22677544191148782 0.7634848804632056
vn 0.6047013612105848 0.22677544191148782 -0.7634848804632056
vn -0.649454121675222 -0.09064532206943551 0.7549786549472737
vn 0.649454121675222 0.09064532206943551 -0.7549786549472737
vn 0.6890717688086456 -0.14415367095049214 -0.7102111070536858
vn -0.6890717688086456 0.14415367095049214 0.7102111070536858
vn 0.5716015295531768 -0.24466608707028806 -0.783205079944061
vn -0.5716015295531768 0.24466608707028806 0.783205079944061
vn -0.5881060103869062 -0.2783213542002957 0.7593869529712173
vn 0.5881060103869062 0.2783213542002957 -0.7593869529712173
vn -0.6036203922458722 -0.12980001484331438 0.7866348442648691
vn 0.6036203922458722 0.12980001484331438 -0.7866348442648691
vn -0.5150573723207603 -0.26608563326619983 0.8148093881315797
vn 0.5150573723207603 0.26608563326619983 -0.8148093881315797
vn 0.732471559941939 -0.1480172746900196 -0.6645120768425218
vn -0.732471559941939 0.1480172746900196 0.6645120768425218
vn 0.6703339806821632 -0.2064674811540831 -0.7127576962535681
vn -0.6703339806821632 0.2064674811540831 0.7127576962535681
vn 0.5881060103869062 -0.27832135420029536 -0.7593869529712174
vn -0.5881060103869062 0.27832135420029536 0.7593869529712174
vn -0.4735310657427143 -0.33382663852962025 0.8150632522599601
vn 0.4735310657427143 0.33382663852962025 -0.8150632522599601
vn -0.51619367048688 -0.2749497443865947 0.8111391573651395
vn 0.51619367048688 0.2749497443865947 -0.8111391573651395
vn -0.4873452832663669 -0.1755666318289619 0.8553776549958846
vn 0.4873452832663669 0.1755666318289619 -0.8553776549958846
vn 0.7044442877167979 -0.13165314497637617 -0.6974422520331005
vn -0.7044442877167979 0.13165314497637617 0.6974422520331005
vn 0.7573848222161637 -0.20229093862454103 -0.6208434643507108
vn -0.7573848222161637 0.20229093862454103 0.6208434643507108
vn 0.6710543506339888 -0.20159439863366166 -0.7134744262653905
vn -0.6710543506339888 0.20159439863366166 0.7134744262653905
vn -0.4591396612843642 -0.10370411336551016 0.8822903310740479
vn 0.4591396612843642 0.10370411336551016 -0.8822903310740479
vn 0.7900178264396011 -0.16282792323398104 -0.5910659026901798
vn -0.7900178264396011 0.16282792323398104 0.5910659026901798
vn 0.7550559918930755 -0.2178157792739391 -0.6184227804711359
vn -0.7550559918930755 0.2178157792739391 0.6184227804711359
vn -0.40231745901965754 -0.29930894072782904 0.865190626491267
vn 0.40231745901965754 0.29930894072782904 -0.865190626491267
vn -0.3782704216737443 -0.1514312009895298 0.9132250979104967
vn 0.3782704216737443 0.1514312009895298 -0.9132250979104967
vn -0.3192805311829081 -0.37975903322174376 0.8682413368954779
vn 0.3192805311829081 0.37975903322174376 -0.8682413368954779
vn 0.7652842902209163 -0.08694050144016038 -0.6377940924392463
vn -0.7652842902209163 0.08694050144016038 0.6377940924392463
vn 0.796854836929133 -0.24600372362209902 -0.5518192972583569
vn -0.796854836929133 0.24600372362209902 0.5518192972583569
vn 0.7165458357760657 -0.24343070412939363 -0.6536846009499132
vn -0.7165458357760657 0.24343070412939363 0.6536846009499132
vn -0.28480584422993055 -0.32036675653814833 0.9034659774433696
vn 0.28480584422993055 0.32036675653814833 -0.9034659774433696
vn -0.24853377592193335 -0.19902672391372725 0.9479553393457707
vn 0.24853377592193335 0.19902672391372725 -0.9479553393457707
vn 0.7859929372390773 -0.13590189768088762 -0.6031134029492478
vn -0.7859929372390773 0.13590189768088762 0.6031134029492478
vn 0.842134204674913 -0.29259317787236655 -0.4529891980821413
vn -0.842134204674913 0.29259317787236655 0.4529891980821413
vn 0.8068326205252784 -0.29194967733078037 -0.5136015073602931
vn -0.8068326205252784 0.29194967733078037 0.5136015073602931
vn -0.21489282212196337 -0.1126936466251198 0.97011402268537
vn 0.21489282212196337 0.1126936466251198 -0.97011402268537
vn 0.8887201227597061 -0.18906466100403807 -0.4176494910345287
vn -0.8887201227597061 0.18906466100403807 0.4176494910345287
vn 0.8866000587385157 -0.3133288579115949 -0.34024309345624654
vn -0.8866000587385157 0.3133288579115949 0.34024309345624654
vn 0.8750771363383011 -0.3667923607840367 -0.3157584037336641
vn -0.8750771363383011 0.3667923607840367 0.3157584037336641
vn -0.16048794719015985 -0.40654414067670686 0.8994250833105147
vn 0.16048794719015985 0.40654414067670686 -0.8994250833105147
vn -0.16291741641064122 -0.3375570390247453 0.9270993263048616
vn 0.16291741641064122 0.3375570390247453 -0.9270993263048616
vn -0.12875506275302 -0.1649556977874581 0.97786080378698
vn 0.12875506275302 0.1649556977874581 -0.97786080378698
vn 0.882638733502644 -0.09985004852009059 -0.4593243232525187
vn -0.882638733502644 0.09985004852009059 0.4593243232525187
vn -0.15615222363912895 -0.3346006361855925 0.9293325009471864
vn 0.15615222363912895 0.3346006361855925 -0.9293325009471864
vn -0.039689409575576456 -0.20646007390362653 0.9776497269734448
vn 0.039689409575576456 0.20646007390362653 -0.9776497269734448
vn 0.912591605088274 -0.1557564071879257 -0.37804299218781523
vn -0.912591605088274 0.1557564071879257 0.37804299218781523
vn 0.9200562275544958 -0.3246454952432355 -0.21932131806202537
vn -0.9200562275544958 0.3246454952432355 0.21932131806202537
vn 0.9031220913722526 -0.40019161544587867 -0.15561863321025074
vn -0.9031220913722526 0.40019161544587867 0.15561863321025074
vn 0 -0.1150849907492382 0.9933556487503596
vn 0 0.1150849907492382 -0.9933556487503596
vn 0.9547002241966822 -0.20323284477011633 -0.21735660267277554
vn -0.9547002241966822 0.20323284477011633 0.21735660267277554
vn 0.9158778618999204 -0.3398383786768616 -0.2137232286390795
vn -0.9158778618999204 0.3398383786768616 0.2137232286390795
vn -0.002043771868676508 -0.4125810049323914 0.910918622800921
vn 0.002043771868676508 0.4125810049323914 -0.910918622800921
vn -0.033883599089931 -0.3409309053401331 0.9394775247427
vn 0.033883599089931 0.3409309053401331 -0.9394775247427
vn 0.21489282212196337 -0.1126936466251198 0.97011402268537
vn -0.21489282212196337 0.1126936466251198 -0.97011402268537
vn 0.9704615707328286 -0.10950366724450156 -0.21497275778753153
vn -0.9704615707328286 0.10950366724450156 0.21497275778753153
vn 0.2542529484823194 -0.18975197119054354 0.9483404597597584
vn -0.2542529484823194 0.18975197119054354 -0.9483404597597584
vn 0.1287139808277444 -0.16604064476239358 0.9776825739606714
vn -0.1287139808277444 0.16604064476239358 -0.9776825739606714
vn 0.9780953592172562 -0.16353302258546154 -0.12878827121182013
vn -0.9780953592172562 0.16353302258546154 0.12878827121182013
vn 0.9356832472967859 -0.34058370570234975 -0.09219327599232567
vn -0.9356832472967859 0.34058370570234975 0.09219327599232567
vn 0.9109282594356262 -0.4125557086728597 0.002737408083399562
vn -0.9109282594356262 0.4125557086728597 -0.002737408083399562
vn 0.1007892206067422 -0.3665622957518653 0.9249181673762319
vn -0.1007892206067422 0.3665622957518653 -0.9249181673762319
vn 0.978075270929316 -0.20439956595636938 0.03986956023576233
vn -0.978075270929316 0.20439956595636938 -0.03986956023576233
vn 0.939708862551931 -0.3402470179624242 0.034339778814572224
vn -0.939708862551931 0.3402470179624242 -0.034339778814572224
vn 0.2622643224965597 -0.3643359281252872 0.8935752663444227
vn -0.2622643224965597 0.3643359281252872 -0.8935752663444227
vn 0.3778688507298024 -0.1587362630592648 0.9121501687979443
vn -0.3778688507298024 0.1587362630592648 -0.9121501687979443
vn 0.9927578614986713 -0.11195430964453461 0.04356674172577757
vn -0.9927578614986713 0.11195430964453461 -0.04356674172577757
vn 0.15631821736070642 -0.40045725836133483 0.9028834914577263
vn -0.15631821736070642 0.40045725836133483 -0.9028834914577263
vn 0.4591396612843642 -0.10370411336551016 0.8822903310740479
vn -0.4591396612843642 0.10370411336551016 -0.8822903310740479
vn 0.41755246164200555 -0.19183610965610184 0.8881716325174508
vn -0.41755246164200555 0.19183610965610184 -0.8881716325174508
vn 0.9782625711355294 -0.1625071255497431 0.128816831434651
vn -0.9782625711355294 0.1625071255497431 -0.128816831434651
vn 0.9294531225045332 -0.3340301762801827 0.156654825654378
vn -0.9294531225045332 0.3340301762801827 -0.156654825654378
vn 0.8992129220620123 -0.4067562553520804 0.1611380449448565
vn -0.8992129220620123 0.4067562553520804 -0.1611380449448565
vn 0.21970925680178321 -0.3255820695700011 0.9196326214582229
vn -0.21970925680178321 0.3255820695700011 -0.9196326214582229
vn 0.9483196772752397 -0.19682571212996489 0.2488964217041252
vn -0.9483196772752397 0.19682571212996489 -0.2488964217041252
vn 0.9272047839685815 -0.336973722445393 0.1635236954299629
vn -0.9272047839685815 0.336973722445393 -0.1635236954299629
vn 0.34051646730941815 -0.3145095424258275 0.8860769059253326
vn -0.34051646730941815 0.3145095424258275 -0.8860769059253326
vn 0.6433028236158712 -0.09116837789525582 0.7601643269713432
vn -0.6433028236158712 0.09116837789525582 -0.7601643269713432
vn 0.9602208753588596 -0.10838017907376633 0.2573511362108271
vn -0.9602208753588596 0.10838017907376633 -0.2573511362108271
vn 0.3163080701903957 -0.36729962563546337 0.874665758870482
vn -0.3163080701903957 0.36729962563546337 -0.874665758870482
vn 0.602788347678297 -0.13974101586446902 0.785569001672313
vn -0.602788347678297 0.13974101586446902 -0.785569001672313
vn 0.9136227441637849 -0.14859474990557803 0.37843504283712176
vn -0.9136227441637849 0.14859474990557803 -0.37843504283712176
vn 0.9034776892914356 -0.31980224065948903 0.2854025084363807
vn -0.9034776892914356 0.31980224065948903 -0.2854025084363807
vn 0.867874081299118 -0.38021463051954807 0.3197364754733115
vn -0.867874081299118 0.38021463051954807 -0.3197364754733115
vn 0.4531558373400829 -0.2939196964160394 0.8415824375207172
vn -0.4531558373400829 0.2939196964160394 -0.8415824375207172
vn 0.5981658816297597 -0.16541030670048 0.784115430591278
vn -0.5981658816297597 0.16541030670048 -0.784115430591278
vn 0.8618429382780659 -0.09756610435448647 0.4977023257141959
vn -0.8618429382780659 0.09756610435448647 -0.4977023257141959
vn 0.8556671881250085 -0.17294069380591529 0.48777574723654504
vn -0.8556671881250085 0.17294069380591529 -0.48777574723654504
vn 0.5557892960798451 -0.24642773493206968 0.7939594635869767
vn -0.5557892960798451 0.24642773493206968 -0.7939594635869767
vn 0.705464953984762 -0.1310278229512311 0.6965277512862917
vn -0.705464953984762 0.1310278229512311 -0.6965277512862917
vn 0.865139906253372 -0.2987923409506464 0.4028102277712661
vn -0.865139906253372 0.2987923409506464 -0.4028102277712661
vn 0.5138395268042586 -0.2927887927564421 0.806376874376864
vn -0.5138395268042586 0.2927887927564421 -0.806376874376864
vn 0.7373990850353751 -0.08500556988105713 0.6700870409716846
vn -0.7373990850353751 0.08500556988105713 -0.6700870409716846
vn 0.7870074918337935 -0.1262250013225966 0.6038927527621042
vn -0.7870074918337935 0.1262250013225966 -0.6038927527621042
vn 0.811023669729975 -0.2744134846231782 0.5166602816113207
vn -0.811023669729975 0.2744134846231782 -0.5166602816113207
vn 0.8146257608227375 -0.334513752362879 0.4737989228397238
vn -0.8146257608227375 0.334513752362879 -0.4737989228397238
vn 0.6186695726860725 -0.21753582014784142 0.7549345182100488
vn -0.6186695726860725 0.21753582014784142 -0.7549345182100488
vn 0.664845969691289 -0.14580810733493382 0.7326116518460883
vn -0.664845969691289 0.14580810733493382 -0.7326116518460883
vn 0.7726196211887504 -0.15132206589899008 0.6165716124881306
vn -0.7726196211887504 0.15132206589899008 -0.6165716124881306
vn 0.8146710833977947 -0.2656800510389596 0.5154853405824449
vn -0.8146710833977947 0.2656800510389596 -0.5154853405824449
vn 0.6210840287674416 -0.20203495172443658 0.7572559062111753
vn -0.6210840287674416 0.20203495172443658 -0.7572559062111753
vn 0.7104063022738775 -0.14194678390604115 0.6893286561780874
vn -0.7104063022738775 0.14194678390604115 -0.6893286561780874
vn 0.6535900298701915 -0.2444358777293995 0.7162898676743515
vn -0.6535900298701915 0.2444358777293995 -0.7162898676743515
vn 0.7830010656406695 -0.24442534342740757 0.571983900731454
vn -0.7830010656406695 0.24442534342740757 -0.571983900731454
vn 0.7590178631711404 -0.2792015947226173 0.5881652428454638
vn -0.7590178631711404 0.2792015947226173 -0.5881652428454638
vn 0.7134565689285355 -0.20132900798646525 0.6711530040131741
vn -0.7134565689285355 0.20132900798646525 -0.6711530040131741
vn 0.7127419480411393 -0.20619444800677916 0.6704347582827889
vn -0.7127419480411393 0.20619444800677916 -0.6704347582827889
usemtl material_0_0
f 1//1 2//2 3//3
f 3//4 2//5 1//6
f 4//7 2//2 1//1
f 1//6 2//5 4//8
f 5//9 3//3 2//2
f 2//5 3//4 5//10
f 3//3 6//11 1//1
f 1//6 6//12 3//4
f 2//2 4//7 5//9
f 5//10 4//8 2//5
f 7//13 3//3 5//9
f 5//10 3//4 7//14
f 6//11 3//3 8//15
f 8//16 3//4 6//12
f 1//1 6//11 9//11
f 9//12 6//12 1//6
f 10//17 5//9 4//7
f 4//8 5//10 10//18
f 3//3 7//13 11//19
f 11//20 7//14 3//4
f 5//9 12//21 7//13
f 7//14 12//22 5//10
f 3//3 13//23 8//15
f 8//16 13//24 3//4
f 8//15 14//25 6//11
f 6//12 14//26 8//16
f 6//11 15//27 9//11
f 9//12 15//28 6//12
f 1//1 9//11 16//25
f 16//26 9//12 1//6
f 5//9 10//17 12//21
f 12//22 10//18 5//10
f 7//13 17//29 11//19
f 11//20 17//30 7//14
f 3//3 11//19 18//31
f 18//32 11//20 3//4
f 12//21 19//33 7//13
f 7//14 19//34 12//22
f 18//31 13//23 3//3
f 3//4 13//24 18//32
f 14//25 8//15 13//23
f 13//24 8//16 14//26
f 15//27 6//11 14//25
f 14//26 6//12 15//28
f 16//25 9//11 15//27
f 15//28 9//12 16//26
f 10//17 20//35 12//21
f 12//22 20//36 10//18
f 7//13 21//37 17//29
f 17//30 21//38 7//14
f 17//29 18//31 11//19
f 11//20 18//32 17//30
f 12//21 22//39 19//33
f 19//34 22//40 12//22
f 21//37 7//13 19//33
f 19//34 7//14 21//38
f 13//23 18//31 23//41
f 23//42 18//32 13//24
f 13//23 24//43 14//25
f 14//26 24//44 13//24
f 14//25 25//45 15//27
f 15//28 25//46 14//26
f 26//47 16//25 15//27
f 15//28 16//26 26//48
f 20//35 10//17 27//49
f 27//50 10//18 20//36
f 22//39 12//21 20//35
f 20//36 12//22 22//40
f 18//31 17//29 28//51
f 28//52 17//30 18//32
f 22//39 21//37 19//33
f 19//34 21//38 22//40
f 18//31 28//51 23//41
f 23//42 28//52 18//32
f 13//23 23//41 29//53
f 29//54 23//42 13//24
f 24//43 13//23 30//55
f 30//56 13//24 24//44
f 14//25 24//43 25//45
f 25//46 24//44 14//26
f 15//27 25//45 26//47
f 26//48 25//46 15//28
f 16//25 26//47 31//47
f 31//48 26//48 16//26
f 32//57 27//49 10//17
f 10//18 27//50 32//58
f 33//59 20//35 27//49
f 27//50 20//36 33//60
f 20//35 34//61 22//39
f 22//40 34//62 20//36
f 22//39 35//63 21//37
f 21//38 35//64 22//40
f 28//51 29//53 23//41
f 23//42 29//54 28//52
f 13//23 29//53 30//55
f 30//56 29//54 13//24
f 36//65 24//43 30//55
f 30//56 24//44 36//66
f 25//45 24//43 37//67
f 37//68 24//44 25//46
f 26//47 25//45 31//47
f 31//48 25//46 26//48
f 16//25 31//47 25//45
f 25//46 31//48 16//26
f 27//49 32//57 38//69
f 38//70 32//58 27//50
f 10//17 39//71 32//57
f 32//58 39//72 10//18
f 20//35 33//59 34//61
f 34//62 33//60 20//36
f 27//49 40//73 33//59
f 33//60 40//74 27//50
f 35//63 22//39 34//61
f 34//62 22//40 35//64
f 29//53 28//51 41//75
f 41//76 28//52 29//54
f 29//53 36//65 30//55
f 30//56 36//66 29//54
f 24//43 36//65 42//77
f 42//78 36//66 24//44
f 24//43 43//79 37//67
f 37//68 43//80 24//44
f 44//81 25//45 37//67
f 37//68 25//46 44//82
f 16//25 25//45 45//83
f 45//84 25//46 16//26
f 46//85 38//69 32//57
f 32//58 38//70 46//86
f 47//87 27//49 38//69
f 38//70 27//50 47//88
f 48//89 39//71 10//17
f 10//18 39//72 48//90
f 49//91 32//57 39//71
f 39//72 32//58 49//92
f 33//59 35//63 34//61
f 34//62 35//64 33//60
f 27//49 47//87 40//73
f 40//74 47//88 27//50
f 50//93 33//59 40//73
f 40//74 33//60 50//94
f 29//53 41//75 51//95
f 51//96 41//76 29//54
f 36//65 29//53 51//95
f 51//96 29//54 36//66
f 43//79 42//77 36//65
f 36//66 42//78 43//80
f 43//79 24//43 42//77
f 42//78 24//44 43//80
f 37//67 43//79 52//97
f 52//98 43//80 37//68
f 25//45 44//81 45//83
f 45//84 44//82 25//46
f 44//81 37//67 52//97
f 52//98 37//68 44//82
f 38//69 46//85 53//99
f 53//100 46//86 38//70
f 32//57 54//101 46//85
f 46//86 54//102 32//58
f 38//69 53//99 47//87
f 47//88 53//100 38//70
f 39//71 48//89 49//91
f 49//92 48//90 39//72
f 49//91 54//101 32//57
f 32//58 54//102 49//92
f 33//59 50//93 35//63
f 35//64 50//94 33//60
f 47//87 50//93 40//73
f 40//74 50//94 47//88
f 41//75 55//103 51//95
f 51//96 55//104 41//76
f 36//65 51//95 55//103
f 55//104 51//96 36//66
f 36//65 52//97 43//79
f 43//80 52//98 36//66
f 56//105 45//83 44//81
f 44//82 45//84 56//106
f 52//97 56//105 44//81
f 44//82 56//106 52//98
f 46//85 57//107 53//99
f 53//100 57//108 46//86
f 58//109 46//85 54//101
f 54//102 46//86 58//110
f 57//107 47//87 53//99
f 53//100 47//88 57//108
f 48//89 59//111 49//91
f 49//92 59//112 48//90
f 54//101 49//91 60//113
f 60//114 49//92 54//102
f 47//87 57//107 50//93
f 50//94 57//108 47//88
f 55//103 41//75 61//115
f 61//116 41//76 55//104
f 55//103 62//117 36//65
f 36//66 62//118 55//104
f 52//97 36//65 62//117
f 62//118 36//66 52//98
f 63//105 45//83 56//105
f 56//106 45//84 63//106
f 52//97 63//105 56//105
f 56//106 63//106 52//98
f 46//85 58//109 57//107
f 57//108 58//110 46//86
f 54//101 60//113 58//109
f 58//110 60//114 54//102
f 64//119 59//111 48//89
f 48//90 59//112 64//120
f 65//121 49//91 59//111
f 59//112 49//92 65//122
f 49//91 66//123 60//113
f 60//114 66//124 49//92
f 55//103 61//115 67//125
f 67//126 61//116 55//104
f 55//103 68//127 62//117
f 62//118 68//128 55//104
f 62//117 69//129 52//97
f 52//98 69//130 62//118
f 63//105 70//131 45//83
f 45//84 70//132 63//106
f 52//97 71//105 63//105
f 63//106 71//106 52//98
f 60//113 72//133 58//109
f 58//110 72//134 60//114
f 59//111 64//119 65//121
f 65//122 64//120 59//112
f 73//135 49//91 65//121
f 65//122 49//92 73//136
f 49//91 73//135 66//123
f 66//124 73//136 49//92
f 72//133 60//113 66//123
f 66//124 60//114 72//134
f 61//115 74//137 67//125
f 67//126 74//138 61//116
f 68//127 55//103 67//125
f 67//126 55//104 68//128
f 69//129 62//117 68//127
f 68//128 62//118 69//130
f 52//97 69//129 71//105
f 71//106 69//130 52//98
f 71//105 70//131 63//105
f 63//106 70//132 71//106
f 64//119 75//139 65//121
f 65//122 75//140 64//120
f 65//121 76//141 73//135
f 73//136 76//142 65//122
f 73//135 72//133 66//123
f 66//124 72//134 73//136
f 74//137 61//115 77//143
f 77//144 61//116 74//138
f 68//127 67//125 74//137
f 74//138 67//126 68//128
f 68//127 78//145 69//129
f 69//130 78//146 68//128
f 70//131 71//105 69//129
f 69//130 71//106 70//132
f 79//147 75//139 64//119
f 64//120 75//140 79//148
f 80//149 65//121 75//139
f 75//140 65//122 80//150
f 65//121 81//151 76//141
f 76//142 81//152 65//122
f 82//153 73//135 76//141
f 76//142 73//136 82//154
f 73//135 82//153 72//133
f 72//134 82//154 73//136
f 74//137 77//143 83//155
f 83//156 77//144 74//138
f 74//137 84//157 68//127
f 68//128 84//158 74//138
f 78//145 68//127 84//157
f 84//158 68//128 78//146
f 70//131 69//129 78//145
f 78//146 69//130 70//132
f 75//139 79//147 80//149
f 80//150 79//148 75//140
f 81//151 65//121 80//149
f 80//150 65//122 81//152
f 81//151 82//153 76//141
f 76//142 82//154 81//152
f 77//143 85//159 83//155
f 83//156 85//160 77//144
f 86//161 74//137 83//155
f 83//156 74//138 86//162
f 74//137 86//161 84//157
f 84//158 86//162 74//138
f 84//157 87//163 78//145
f 78//146 87//164 84//158
f 78//145 87//163 70//131
f 70//132 87//164 78//146
f 79//147 88//165 80//149
f 80//150 88//166 79//148
f 80//149 89//167 81//151
f 81//152 89//168 80//150
f 89//167 82//153 81//151
f 81//152 82//154 89//168
f 85//159 77//143 90//169
f 90//170 77//144 85//160
f 86//161 83//155 85//159
f 85//160 83//156 86//162
f 87//163 84//157 86//161
f 86//162 84//158 87//164
f 91//171 88//165 79//147
f 79//148 88//166 91//172
f 88//165 89//167 80//149
f 80//150 89//168 88//166
f 82//153 89//167 92//173
f 92//174 89//168 82//154
f 85//159 90//169 93//175
f 93//176 90//170 85//160
f 85//159 94//177 86//161
f 86//162 94//178 85//160
f 87//163 86//161 94//177
f 94//178 86//162 87//164
f 88//165 91//171 95//179
f 95//180 91//172 88//166
f 95//179 89//167 88//165
f 88//166 89//168 95//180
f 89//167 96//181 92//173
f 92//174 96//182 89//168
f 90//169 97//183 93//175
f 93//176 97//184 90//170
f 98//185 85//159 93//175
f 93//176 85//160 98//186
f 85//159 98//185 94//177
f 94//178 98//186 85//160
f 94//177 99//187 87//163
f 87//164 99//188 94//178
f 91//171 100//189 95//179
f 95//180 100//190 91//172
f 89//167 95//179 96//181
f 96//182 95//180 89//168
f 101//191 92//173 96//181
f 96//182 92//174 101//192
f 97//183 90//169 102//193
f 102//194 90//170 97//184
f 98//185 93//175 97//183
f 97//184 93//176 98//186
f 99//187 94//177 98//185
f 98//186 94//178 99//188
f 103//195 100//189 91//171
f 91//172 100//190 103//196
f 100//189 101//191 95//179
f 95//180 101//192 100//190
f 95//179 101//191 96//181
f 96//182 101//192 95//180
f 92//173 101//191 104//197
f 104//198 101//192 92//174
f 97//183 102//193 105//199
f 105//200 102//194 97//184
f 97//183 106//201 98//185
f 98//186 106//202 97//184
f 106//201 99//187 98//185
f 98//186 99//188 106//202
f 100//189 103//195 107//203
f 107//204 103//196 100//190
f 107//203 101//191 100//189
f 100//190 101//192 107//204
f 101//191 108//205 104//197
f 104//198 108//206 101//192
f 102//193 109//207 105//199
f 105//200 109//208 102//194
f 106//201 97//183 105//199
f 105//200 97//184 106//202
f 110//209 99//187 106//201
f 106//202 99//188 110//210
f 103//195 111//211 107//203
f 107//204 111//212 103//196
f 101//191 107//203 108//205
f 108//206 107//204 101//192
f 112//213 104//197 108//205
f 108//206 104//198 112//214
f 109//207 102//193 113//215
f 113//216 102//194 109//208
f 106//201 105//199 109//207
f 109//208 105//200 106//202
f 99//187 110//209 114//217
f 114//218 110//210 99//188
f 106//201 115//219 110//209
f 110//210 115//220 106//202
f 116//221 111//211 103//195
f 103//196 111//212 116//222
f 111//211 112//213 107//203
f 107//204 112//214 111//212
f 107//203 112//213 108//205
f 108//206 112//214 107//204
f 104//197 112//213 117//223
f 117//224 112//214 104//198
f 109//207 113//215 115//219
f 115//220 113//216 109//208
f 115//219 106//201 109//207
f 109//208 106//202 115//220
f 118//225 114//217 110//209
f 110//210 114//218 118//226
f 119//227 99//187 114//217
f 114//218 99//188 119//228
f 115//219 118//225 110//209
f 110//210 118//226 115//220
f 111//211 116//221 120//229
f 120//230 116//222 111//212
f 120//229 112//213 111//211
f 111//212 112//214 120//230
f 112//213 121//231 117//223
f 117//224 121//232 112//214
f 113//215 118//225 115//219
f 115//220 118//226 113//216
f 114//217 118//225 122//233
f 122//234 118//226 114//218
f 99//187 119//227 123//235
f 123//236 119//228 99//188
f 114//217 122//233 119//227
f 119//228 122//234 114//218
f 116//221 124//237 120//229
f 120//230 124//238 116//222
f 112//213 120//229 121//231
f 121//232 120//230 112//214
f 125//239 117//223 121//231
f 121//232 117//224 125//240
f 118//225 113//215 126//241
f 126//242 113//216 118//226
f 118//225 126//241 122//233
f 122//234 126//242 118//226
f 119//227 127//243 123//235
f 123//236 127//244 119//228
f 122//233 128//245 119//227
f 119//228 128//246 122//234
f 116//221 129//247 124//237
f 124//238 129//248 116//222
f 130//249 120//229 124//237
f 124//238 120//230 130//250
f 120//229 125//239 121//231
f 121//232 125//240 120//230
f 117//223 125//239 131//251
f 131//252 125//240 117//224
f 132//253 122//233 126//241
f 126//242 122//234 132//254
f 133//255 127//243 119//227
f 119//228 127//244 133//256
f 134//257 123//235 127//243
f 127//244 123//236 134//258
f 122//233 132//253 128//245
f 128//246 132//254 122//234
f 133//255 119//227 128//245
f 128//246 119//228 133//256
f 129//247 116//221 135//259
f 135//260 116//222 129//248
f 136//261 124//237 129//247
f 129//248 124//238 136//262
f 120//229 130//249 125//239
f 125//240 130//250 120//230
f 130//249 124//237 137//263
f 137//264 124//238 130//250
f 125//239 130//249 131//251
f 131//252 130//250 125//240
f 127//243 133//255 134//257
f 134//258 133//256 127//244
f 123//235 134//257 138//265
f 138//266 134//258 123//236
f 132//253 133//255 128//245
f 128//246 133//256 132//254
f 116//221 139//267 135//259
f 135//260 139//268 116//222
f 135//259 140//269 129//247
f 129//248 140//270 135//260
f 124//237 136//261 137//263
f 137//264 136//262 124//238
f 136//261 129//247 140//269
f 140//270 129//248 136//262
f 137//263 131//251 130//249
f 130//250 131//252 137//264
f 133//255 141//271 134//257
f 134//258 141//272 133//256
f 134//257 142//273 138//265
f 138//266 142//274 134//258
f 143//275 133//255 132//253
f 132//254 133//256 143//276
f 139//267 116//221 144//277
f 144//278 116//222 139//268
f 135//259 139//267 145//279
f 145//280 139//268 135//260
f 140//269 135//259 145//279
f 145//280 135//260 140//270
f 137//263 136//261 146//281
f 146//282 136//262 137//264
f 140//269 146//281 136//261
f 136//262 146//282 140//270
f 131//251 137//263 146//281
f 146//282 137//264 131//252
f 133//255 143//275 141//271
f 141//272 143//276 133//256
f 147//283 134//257 141//271
f 141//272 134//258 147//284
f 147//283 142//273 134//257
f 134//258 142//274 147//284
f 148//285 138//265 142//273
f 142//274 138//266 148//286
f 139//267 144//277 149//287
f 149//288 144//278 139//268
f 145//279 139//267 150//289
f 150//290 139//268 145//280
f 140//269 145//279 151//291
f 151//292 145//280 140//270
f 146//281 140//269 151//291
f 151//292 140//270 146//282
f 143//275 147//283 141//271
f 141//272 147//284 143//276
f 142//273 147//283 148//285
f 148//286 147//284 142//274
f 138//265 148//285 152//293
f 152//294 148//286 138//266
f 144//277 153//295 149//287
f 149//288 153//296 144//278
f 149//287 154//297 139//267
f 139//268 154//298 149//288
f 139//267 154//297 150//289
f 150//290 154//298 139//268
f 155//299 145//279 150//289
f 150//290 145//280 155//300
f 145//279 155//299 151//291
f 151//292 155//300 145//280
f 156//301 147//283 143//275
f 143//276 147//284 156//302
f 147//283 157//303 148//285
f 148//286 157//304 147//284
f 148//285 158//305 152//293
f 152//294 158//306 148//286
f 153//295 144//277 159//307
f 159//308 144//278 153//296
f 154//297 149//287 153//295
f 153//296 149//288 154//298
f 155//299 150//289 154//297
f 154//298 150//290 155//300
f 147//283 156//301 157//303
f 157//304 156//302 147//284
f 160//309 148//285 157//303
f 157//304 148//286 160//310
f 160//309 158//305 148//285
f 148//286 158//306 160//310
f 161//311 152//293 158//305
f 158//306 152//294 161//312
f 153//295 159//307 162//313
f 162//314 159//308 153//296
f 154//297 153//295 163//315
f 163//316 153//296 154//298
f 154//297 164//317 155//299
f 155//300 164//318 154//298
f 156//301 160//309 157//303
f 157//304 160//310 156//302
f 158//305 160//309 161//311
f 161//312 160//310 158//306
f 152//293 161//311 165//319
f 165//320 161//312 152//294
f 159//307 166//321 162//313
f 162//314 166//322 159//308
f 162//313 167//323 153//295
f 153//296 167//324 162//314
f 153//295 167//323 163//315
f 163//316 167//324 153//296
f 164//317 154//297 163//315
f 163//316 154//298 164//318
f 168//325 160//309 156//301
f 156//302 160//310 168//326
f 160//309 169//327 161//311
f 161//312 169//328 160//310
f 161//311 170//329 165//319
f 165//320 170//330 161//312
f 166//321 159//307 171//331
f 171//332 159//308 166//322
f 167//323 162//313 166//321
f 166//322 162//314 167//324
f 164//317 163//315 167//323
f 167//324 163//316 164//318
f 160//309 168//325 169//327
f 169//328 168//326 160//310
f 169//327 172//333 161//311
f 161//312 172//334 169//328
f 170//329 161//311 173//335
f 173//336 161//312 170//330
f 166//321 171//331 174//337
f 174//338 171//332 166//322
f 167//323 166//321 175//339
f 175//340 166//322 167//324
f 167//323 176//341 164//317
f 164//318 176//342 167//324
f 169//327 168//325 177//343
f 177//344 168//326 169//328
f 172//333 169//327 177//343
f 177//344 169//328 172//334
f 161//311 172//333 173//335
f 173//336 172//334 161//312
f 170//329 173//335 172//333
f 172//334 173//336 170//330
f 171//331 178//345 174//337
f 174//338 178//346 171//332
f 174//337 179//347 166//321
f 166//322 179//348 174//338
f 166//321 179//347 175//339
f 175//340 179//348 166//322
f 176//341 167//323 175//339
f 175//340 167//324 176//342
f 168//325 180//349 177//343
f 177//344 180//350 168//326
f 181//351 170//329 172//333
f 172//334 170//330 181//352
f 178//345 171//331 182//353
f 182//354 171//332 178//346
f 179//347 174//337 178//345
f 178//346 174//338 179//348
f 176//341 175//339 179//347
f 179//348 175//340 176//342
f 180//349 168//325 183//355
f 183//356 168//326 180//350
f 170//329 181//351 184//357
f 184//358 181//352 170//330
f 172//333 185//359 181//351
f 181//352 185//360 172//334
f 182//353 186//361 178//345
f 178//346 186//362 182//354
f 178//345 187//363 179//347
f 179//348 187//364 178//346
f 179//347 188//365 176//341
f 176//342 188//366 179//348
f 180//349 183//355 189//367
f 189//368 183//356 180//350
f 184//357 181//351 185//359
f 185//360 181//352 184//358
f 180//349 185//359 172//333
f 172//334 185//360 180//350
f 182//353 190//369 186//361
f 186//362 190//370 182//354
f 191//371 178//345 186//361
f 186//362 178//346 191//372
f 178//345 191//371 187//363
f 187//364 191//372 178//346
f 188//365 179//347 187//363
f 187//364 179//348 188//366
f 183//355 192//373 189//367
f 189//368 192//374 183//356
f 185//359 180//349 189//367
f 189//368 180//350 185//360
f 185//359 193//375 184//357
f 184//358 193//376 185//360
f 190//369 182//353 194//377
f 194//378 182//354 190//370
f 191//371 186//361 190//369
f 190//370 186//362 191//372
f 191//371 188//365 187//363
f 187//364 188//366 191//372
f 192//373 183//355 195//379
f 195//380 183//356 192//374
f 185//359 189//367 192//373
f 192//374 189//368 185//360
f 193//375 185//359 196//381
f 196//382 185//360 193//376
f 194//377 197//383 190//369
f 190//370 197//384 194//378
f 190//369 198//385 191//371
f 191//372 198//386 190//370
f 191//371 199//387 188//365
f 188//366 199//388 191//372
f 192//373 195//379 200//389
f 200//390 195//380 192//374
f 192//373 201//391 185//359
f 185//360 201//392 192//374
f 185//359 201//391 196//381
f 196//382 201//392 185//360
f 193//375 196//381 201//391
f 201//392 196//382 193//376
f 197//383 194//377 202//393
f 202//394 194//378 197//384
f 203//395 190//369 197//383
f 197//384 190//370 203//396
f 203//395 198//385 190//369
f 190//370 198//386 203//396
f 199//387 191//371 198//385
f 198//386 191//372 199//388
f 195//379 204//397 200//389
f 200//390 204//398 195//380
f 201//391 192//373 200//389
f 200//390 192//374 201//392
f 205//399 193//375 201//391
f 201//392 193//376 205//400
f 202//393 203//395 197//383
f 197//384 203//396 202//394
f 198//385 203//395 206//401
f 206//402 203//396 198//386
f 198//385 206//401 199//387
f 199//388 206//402 198//386
f 204//397 195//379 207//403
f 207//404 195//380 204//398
f 201//391 200//389 204//397
f 204//398 200//390 201//392
f 193//375 205//399 208//405
f 208//406 205//400 193//376
f 205//399 201//391 204//397
f 204//398 201//392 205//400
f 202//393 209//407 203//395
f 203//396 209//408 202//394
f 203//395 210//409 206//401
f 206//402 210//410 203//396
f 206//401 211//411 199//387
f 199//388 211//412 206//402
f 204//397 207//403 212//413
f 212//414 207//404 204//398
f 208//405 205//399 213//415
f 213//416 205//400 208//406
f 204//397 213//415 205//399
f 205//400 213//416 204//398
f 202//393 214//417 209//407
f 209//408 214//418 202//394
f 215//419 203//395 209//407
f 209//408 203//396 215//420
f 203//395 215//419 210//409
f 210//410 215//420 203//396
f 211//411 206//401 210//409
f 210//410 206//402 211//412
f 207//403 216//421 212//413
f 212//414 216//422 207//404
f 213//415 204//397 212//413
f 212//414 204//398 213//416
f 217//423 208//405 213//415
f 213//416 208//406 217//424
f 214//417 202//393 208//405
f 208//406 202//394 214//418
f 214//417 215//419 209//407
f 209//408 215//420 214//418
f 215//419 211//411 210//409
f 210//410 211//412 215//420
f 216//421 207//403 218//425
f 218//426 207//404 216//422
f 213//415 212//413 216//421
f 216//422 212//414 213//416
f 208//405 217//423 214//417
f 214//418 217//424 208//406
f 216//421 217//423 213//415
f 213//416 217//424 216//422
f 214//417 219//427 215//419
f 215//420 219//428 214//418
f 215//419 220//429 211//411
f 211//412 220//430 215//420
f 216//421 218//425 221//431
f 221//432 218//426 216//422
f 222//433 214//417 217//423
f 217//424 214//418 222//434
f 217//423 216//421 221//431
f 221//432 216//422 217//424
f 214//417 222//433 219//427
f 219//428 222//434 214//418
f 220//429 215//419 219//427
f 219//428 215//420 220//430
f 218//425 222//433 221//431
f 221//432 222//434 218//426
f 217//423 221//431 222//433
f 222//434 221//432 217//424
f 222//433 220//429 219//427
f 219//428 220//430 222//434
f 222//433 218//425 220//429
f 220//430 218//426 222//434
