# SSTK version 0.8.0
# 21
mtllib original-21.mtl
o mesh51/mesh51-geometry#mesh51-geometry
v -0.034364 -0.380132 0.331917
v -0.039926 -0.381912 0.332200
v -0.039926 -0.381284 0.332090
v -0.035957 -0.382442 0.332312
v -0.039952 -0.380383 0.337240
v -0.034634 -0.383540 0.332511
v -0.035983 -0.381542 0.337462
v -0.039952 -0.381011 0.337349
v -0.034389 -0.379232 0.337066
v -0.034634 -0.384544 0.332687
v -0.034660 -0.382639 0.337661
v -0.032383 -0.378698 0.331676
v -0.032084 -0.385123 0.332801
v -0.032409 -0.377798 0.336825
v -0.034666 -0.388285 0.333340
v -0.034660 -0.383644 0.337836
v -0.032110 -0.384223 0.337950
v -0.030963 -0.375791 0.336482
v -0.030937 -0.376691 0.331332
v -0.035781 -0.388141 0.333310
v -0.034692 -0.387385 0.338490
v -0.030937 -0.380961 0.332079
v -0.036929 -0.392711 0.334103
v -0.036955 -0.391810 0.339252
v -0.035807 -0.387241 0.338459
v -0.030963 -0.380061 0.337228
v -0.026692 -0.369255 0.335361
v -0.026666 -0.370156 0.330211
v -0.029183 -0.383225 0.332483
v -0.038586 -0.395664 0.334611
v -0.029209 -0.382324 0.337633
v -0.039224 -0.395288 0.334542
v -0.026692 -0.369632 0.335427
v -0.026666 -0.370532 0.330277
v -0.025964 -0.381899 0.332268
v -0.039224 -0.395665 0.334608
v -0.038612 -0.394764 0.339760
v -0.039250 -0.394387 0.339691
v -0.025990 -0.380999 0.337417
v -0.025964 -0.382590 0.332389
v -0.025990 -0.381689 0.337538
v -0.039250 -0.394764 0.339757
vn 0.004956782137566308 -0.17220719348988778 -0.9850482794366869
vn -0.004956782137566308 0.17220719348988778 0.9850482794366869
vn -0.7533595101131629 -0.6484170950674497 0.1095660501539817
vn -0.7761492139362375 0.6204550225309513 -0.11237420843893738
vn 0.7761492139362375 -0.6204550225309513 0.11237420843893738
vn 0.7533595101131629 0.6484170950674497 -0.1095660501539817
vn -0.407644918074099 0.8991483806955469 -0.15924135851259502
vn 0.407644918074099 -0.8991483806955469 0.15924135851259502
vn -0.4060130615401213 -0.900558840318731 0.15539359376306272
vn 0.4060130615401213 0.900558840318731 -0.15539359376306272
vn -0.9067917842738225 -0.4160309907765834 0.06816798872602783
vn 0.9067917842738225 0.4160309907765834 -0.06816798872602783
vn -0.7126977700698957 0.6903743863389101 -0.12427829748017671
vn 0.7126977700698957 -0.6903743863389101 0.12427829748017671
vn -0.9884204567867315 0.1485513081698828 -0.030943649534690275
vn 0.9884204567867315 -0.1485513081698828 0.030943649534690275
vn -0.8281800629040107 0.5513672689422134 -0.10055803372935355
vn 0.8281800629040107 -0.5513672689422134 0.10055803372935355
vn 0.6738816771147014 -0.7272186316181567 0.13052412450000686
vn 0.8406775869004448 -0.5327122098027808 0.09735962412768173
vn -0.8406775869004448 0.5327122098027808 -0.09735962412768173
vn -0.6738816771147014 0.7272186316181567 -0.13052412450000686
vn -0.930911257204997 0.35896545864181184 -0.0674390888957279
vn 0.930911257204997 -0.35896545864181184 0.0674390888957279
vn 0.8841944120442701 -0.45936549037255797 0.08475604972193285
vn -0.8841944120442701 0.45936549037255797 -0.08475604972193285
vn -0.8406729338984464 0.5327193294756458 -0.09736084538250805
vn 0.8406729338984464 -0.5327193294756458 0.09736084538250805
vn 0.3813764896323464 -0.9102818711320878 0.16105554397155689
vn -0.3813764896323464 0.9102818711320878 -0.16105554397155689
vn -0.9755459532788691 0.21562676376484763 -0.04260506765070909
vn 0.9755459532788691 -0.21562676376484763 0.04260506765070909
vn 0.5079491730233134 -0.8480810308824128 0.15081844277924353
vn -0.5079491730233134 0.8480810308824128 -0.15081844277924353
vn 0.9273270337594748 -0.36784144742253694 0.06897276286293606
vn 0.981660925743524 -0.18688816173763506 0.03761172517573196
vn -0.981660925743524 0.18688816173763506 -0.03761172517573196
vn -0.9273270337594748 0.36784144742253694 -0.06897276286293606
vn 0.9999877127721133 0.0009205283597822368 0.004871029905088158
vn -0.9999877127721133 -0.0009205283597822368 -0.004871029905088158
vn 0.1887731943672054 0.9675103980881031 -0.16819129192619117
vn 0.7709276392271874 0.628054138129225 -0.10591777308059426
vn -0.1887731943672054 -0.9675103980881031 0.16819129192619117
vn -0.7709276392271874 -0.628054138129225 0.10591777308059426
vn 0.7731411116452296 -0.6240874580771587 0.11299409787581516
vn -0.7731411116452296 0.6240874580771587 -0.11299409787581516
vn 0.0000679384876181586 -0.9850603205582014 0.17220964039836847
vn -0.0000679384876181586 0.9850603205582014 -0.17220964039836847
usemtl material_0_0
f 1//1 2//1 3//1
f 2//1 1//1 4//1
f 3//2 2//2 1//2
f 4//2 1//2 2//2
f 2//3 5//4 3//4
f 3//5 5//5 2//6
f 5//4 1//7 3//4
f 3//5 1//8 5//5
f 4//1 1//1 6//1
f 6//2 1//2 4//2
f 7//9 2//3 4//9
f 4//10 2//6 7//10
f 5//4 2//3 8//3
f 8//6 2//6 5//5
f 1//7 5//4 9//7
f 9//8 5//5 1//8
f 6//1 1//1 10//1
f 10//2 1//2 6//2
f 11//11 4//9 6//11
f 6//12 4//10 11//12
f 2//3 7//9 8//3
f 8//6 7//10 2//6
f 4//9 11//11 7//9
f 7//10 11//12 4//10
f 7//2 5//2 8//2
f 8//1 5//1 7//1
f 5//2 7//2 9//2
f 9//1 7//1 5//1
f 9//7 12//13 1//7
f 1//8 12//14 9//8
f 13//1 10//1 1//1
f 1//2 10//2 13//2
f 10//15 11//11 6//11
f 6//12 11//12 10//16
f 9//2 7//2 11//2
f 11//1 7//1 9//1
f 12//13 9//7 14//13
f 14//14 9//8 12//14
f 13//1 1//1 12//1
f 12//2 1//2 13//2
f 15//1 10//1 13//1
f 13//2 10//2 15//2
f 11//11 10//15 16//15
f 16//16 10//16 11//12
f 11//2 17//2 9//2
f 9//1 17//1 11//1
f 9//2 17//2 14//2
f 14//1 17//1 9//1
f 18//17 12//13 14//13
f 14//14 12//14 18//18
f 13//1 12//1 19//1
f 19//2 12//2 13//2
f 15//1 20//1 10//1
f 10//2 20//2 15//2
f 13//19 21//20 15//20
f 15//21 21//21 13//22
f 20//23 16//15 10//15
f 10//16 16//16 20//24
f 16//2 17//2 11//2
f 11//1 17//1 16//1
f 14//2 17//2 18//2
f 18//1 17//1 14//1
f 12//13 18//17 19//17
f 19//18 18//18 12//14
f 13//1 19//1 22//1
f 22//2 19//2 13//2
f 23//1 20//1 15//1
f 15//2 20//2 23//2
f 21//20 13//19 17//19
f 17//22 13//22 21//21
f 24//25 15//20 21//20
f 21//21 15//21 24//26
f 16//15 20//23 25//23
f 25//24 20//24 16//16
f 16//2 21//2 17//2
f 17//1 21//1 16//1
f 18//2 17//2 26//2
f 26//1 17//1 18//1
f 27//27 19//17 18//17
f 18//18 19//18 27//28
f 28//1 22//1 19//1
f 19//2 22//2 28//2
f 13//1 22//1 29//1
f 29//2 22//2 13//2
f 30//1 20//1 23//1
f 23//2 20//2 30//2
f 15//20 24//25 23//25
f 23//26 24//26 15//21
f 13//19 31//29 17//19
f 17//22 31//30 13//22
f 25//2 24//2 21//2
f 21//1 24//1 25//1
f 32//31 25//23 20//23
f 20//24 25//24 32//32
f 25//2 21//2 16//2
f 16//1 21//1 25//1
f 31//2 26//2 17//2
f 17//1 26//1 31//1
f 18//2 26//2 33//2
f 33//1 26//1 18//1
f 19//17 27//27 28//27
f 28//28 27//28 19//18
f 18//2 33//2 27//2
f 27//1 33//1 18//1
f 22//1 28//1 34//1
f 34//2 28//2 22//2
f 29//1 22//1 35//1
f 35//2 22//2 29//2
f 31//29 13//19 29//29
f 29//30 13//22 31//30
f 36//1 20//1 30//1
f 30//2 20//2 36//2
f 23//25 37//33 30//33
f 30//34 37//34 23//26
f 37//33 23//25 24//25
f 24//26 23//26 37//34
f 25//2 37//2 24//2
f 24//1 37//1 25//1
f 25//23 32//31 38//31
f 38//32 32//32 25//24
f 20//1 36//1 32//1
f 32//2 36//2 20//2
f 26//2 31//2 39//2
f 39//1 31//1 26//1
f 26//35 34//36 33//36
f 33//37 34//37 26//38
f 33//36 28//39 27//39
f 27//40 28//40 33//37
f 28//39 33//36 34//36
f 34//37 33//37 28//40
f 34//36 26//35 22//35
f 22//38 26//38 34//37
f 26//41 35//42 22//41
f 22//43 35//44 26//43
f 29//1 35//1 40//1
f 40//2 35//2 29//2
f 29//29 41//45 31//29
f 31//30 41//46 29//30
f 37//33 36//47 30//33
f 30//34 36//48 37//34
f 38//2 37//2 25//2
f 25//1 37//1 38//1
f 36//40 38//31 32//31
f 32//32 38//32 36//39
f 39//2 31//2 41//2
f 41//1 31//1 39//1
f 35//42 26//41 39//42
f 39//44 26//43 35//44
f 35//42 41//45 40//45
f 40//46 41//46 35//44
f 41//45 29//29 40//45
f 40//46 29//30 41//46
f 36//47 37//33 42//47
f 42//48 37//34 36//48
f 37//2 38//2 42//2
f 42//1 38//1 37//1
f 38//31 36//40 42//40
f 42//39 36//39 38//32
f 41//45 35//42 39//42
f 39//44 35//44 41//46
