# SSTK version 0.8.0
# 8
mtllib original-8.mtl
o Group3/mesh28/mesh28-geometry#mesh28-geometry
v 0.002937 -0.149117 0.054135
v -0.000095 -0.149117 0.004206
v -0.011488 -0.149117 0.050533
v 0.002757 -0.149117 0.007058
v 0.016065 -0.149117 0.007058
v -0.000095 -0.149117 -0.009102
v 0.002039 -0.151660 0.062002
v 0.002757 -0.096836 0.007058
v 0.017804 -0.149117 0.053879
v 0.016065 -0.096836 0.007058
v 0.002757 -0.149117 -0.011954
v 0.001012 -0.149117 -0.058779
v -0.000095 -0.096836 -0.000314
v -0.014392 -0.151660 0.057900
v 0.018969 -0.151660 0.061712
v -0.000095 -0.096836 0.004206
v 0.018917 -0.149117 0.004206
v 0.032096 -0.149117 0.049787
v 0.018917 -0.096836 0.004206
v 0.016065 -0.149117 -0.011954
v -0.013280 -0.149117 -0.054687
v 0.015879 -0.149117 -0.059036
v -0.000095 -0.096836 -0.004829
v -0.000095 -0.096836 -0.009102
v -0.024487 -0.149117 0.043318
v -0.016431 -0.157806 0.063071
v 0.001407 -0.157806 0.067524
v 0.002072 -0.096836 0.006374
v 0.006279 -0.096836 0.007058
v 0.004187 -0.096836 0.007058
v 0.003531 -0.096836 0.007058
v 0.008184 -0.092083 -0.001412
v 0.007842 -0.092083 -0.002029
v 0.008004 -0.092083 -0.001640
v 0.008085 -0.092083 -0.001535
v 0.015285 -0.096836 0.007058
v 0.014629 -0.096836 0.007058
v 0.012543 -0.096836 0.007058
v 0.010452 -0.096836 0.007058
v 0.018917 -0.149117 -0.009102
v 0.016744 -0.096836 0.006374
v 0.018917 -0.096836 0.001431
v 0.010813 -0.092083 -0.001640
v 0.010974 -0.092083 -0.002029
v 0.002757 -0.096836 -0.011954
v -0.000152 -0.151660 -0.066612
v 0.016778 -0.151660 -0.066902
v 0.007790 -0.092083 -0.002448
v -0.029202 -0.151660 0.049682
v 0.019791 -0.157806 0.067215
v 0.008365 -0.096836 0.007058
v 0.008265 -0.092083 -0.001302
v 0.035252 -0.151660 0.057054
v 0.030304 -0.149117 -0.055433
v 0.018917 -0.096836 -0.001402
v 0.010556 -0.092083 -0.001302
v 0.010219 -0.092083 -0.001046
v 0.010452 -0.092083 -0.001221
v 0.010323 -0.092083 -0.001126
v 0.011031 -0.092083 -0.002448
v 0.016065 -0.096836 -0.011954
v -0.026027 -0.149117 -0.047035
v -0.016436 -0.151660 -0.061954
v 0.008004 -0.092083 -0.003260
v 0.007842 -0.092083 -0.002871
v 0.002072 -0.096836 -0.011274
v 0.003826 -0.096836 -0.011954
v 0.004729 -0.096836 -0.011954
v 0.008493 -0.092083 -0.003774
v 0.008370 -0.092083 -0.003679
v 0.008265 -0.092083 -0.003598
v -0.035176 -0.149117 0.032985
v -0.017752 -0.172882 0.066412
v -0.032510 -0.157806 0.054150
v 0.000998 -0.172882 0.071099
v 0.009829 -0.092083 -0.000884
v 0.008598 -0.092083 -0.001046
v 0.008988 -0.092083 -0.000884
v 0.008598 -0.092083 -0.003855
v 0.007600 -0.096836 -0.011954
v 0.008988 -0.092083 -0.004016
v 0.010461 -0.096836 -0.011954
v 0.009411 -0.092083 -0.004073
v 0.009411 -0.092083 -0.002448
v 0.009411 -0.092083 -0.000827
v 0.044844 -0.149117 0.042134
v 0.043304 -0.149117 -0.048218
v 0.018917 -0.096836 -0.004259
v 0.018917 -0.096836 -0.007129
v 0.009829 -0.092083 -0.004016
v 0.010974 -0.092083 -0.002871
v 0.010637 -0.092083 -0.003489
v 0.018232 -0.096836 -0.009786
v 0.010556 -0.092083 -0.003598
v 0.010813 -0.092083 -0.003260
v 0.018917 -0.096836 -0.008032
v 0.010732 -0.092083 -0.003365
v 0.018917 -0.096836 -0.009102
v 0.010219 -0.092083 -0.003855
v 0.013289 -0.096836 -0.011954
v -0.000974 -0.157806 -0.072116
v 0.017410 -0.157806 -0.072425
v 0.033208 -0.151660 -0.062800
v -0.041379 -0.151660 0.037914
v -0.034649 -0.172882 0.057040
v 0.020319 -0.172882 0.070766
v 0.037467 -0.157806 0.062154
v 0.049772 -0.151660 0.048337
v -0.036360 -0.149117 -0.036345
v -0.030956 -0.151660 -0.053237
v -0.018650 -0.157806 -0.067054
v 0.035252 -0.157806 -0.067971
v -0.042828 -0.149117 0.020238
v -0.001502 -0.172882 -0.075666
v -0.020081 -0.172882 -0.070348
v -0.045732 -0.157806 0.041374
v -0.048546 -0.172882 0.043608
v 0.017819 -0.172882 -0.075999
v 0.055176 -0.149117 0.031445
v 0.053998 -0.149117 -0.037885
v 0.048019 -0.151660 -0.054582
v 0.036569 -0.172882 -0.071312
v -0.050096 -0.151660 0.023394
v -0.036650 -0.172882 -0.060405
v 0.038898 -0.172882 0.065447
v 0.053232 -0.157806 0.052691
v 0.061541 -0.151660 0.036160
v -0.043570 -0.149117 -0.023346
v -0.042724 -0.151660 -0.041060
v -0.034411 -0.157806 -0.057591
v 0.053465 -0.172882 -0.061940
v 0.051327 -0.157806 -0.059050
v -0.046921 -0.149117 0.005946
v -0.055195 -0.157806 0.025609
v -0.058489 -0.172882 0.027039
v -0.050077 -0.172882 -0.046507
v 0.062391 -0.149117 0.018446
v 0.061650 -0.149117 -0.025138
v 0.060195 -0.151660 -0.042814
v -0.054753 -0.151660 0.007110
v -0.060252 -0.157806 0.007933
v 0.055466 -0.172882 0.055504
v 0.066008 -0.157806 0.039468
v 0.069758 -0.151660 0.021350
v -0.047173 -0.149117 -0.008921
v -0.050942 -0.151660 -0.026250
v -0.047192 -0.157806 -0.044368
v 0.067363 -0.172882 -0.048508
v 0.064549 -0.157806 -0.046274
v -0.063808 -0.172882 0.008460
v -0.059454 -0.172882 -0.029611
v 0.068898 -0.172882 0.041607
v 0.065994 -0.149117 0.004021
v 0.065742 -0.149117 -0.010846
v 0.068912 -0.151660 -0.028294
v -0.055043 -0.151660 -0.009819
v -0.060566 -0.157806 -0.010452
v -0.064136 -0.172882 -0.010860
v 0.078271 -0.172882 0.024710
v 0.074929 -0.157806 0.023389
v 0.073860 -0.151660 0.004919
v -0.056113 -0.157806 -0.028289
v 0.077306 -0.172882 -0.031939
v 0.074012 -0.157806 -0.030509
v 0.079388 -0.157806 0.005551
v 0.073575 -0.151660 -0.012011
v 0.082957 -0.172882 0.005960
v 0.082624 -0.172882 -0.013360
v 0.079074 -0.157806 -0.012833
vn -0.023415005578918426 0.9785352331482786 0.2047450487830732
vn 0 1 0
vn -0.07560902176141372 0.9785352816371726 0.19170805517646203
vn 0.07560902176141372 -0.9785352816371726 -0.19170805517646203
vn 0 -1 0
vn 0.023415005578918426 -0.9785352331482786 -0.2047450487830732
vn -0.061550996460017646 0.8405589516569343 0.5382119690458161
vn 0.061550996460017646 -0.8405589516569343 -0.5382119690458161
vn -0.7071067811865476 0 0.7071067811865476
vn 0.7071067811865476 0 -0.7071067811865476
vn 0.030375005344619344 0.9785351721776819 0.20382903586463944
vn -0.030375005344619344 -0.9785351721776819 -0.20382903586463944
vn 0 0 1
vn 0 0 -1
vn -0.030375005344619344 0.9785351721776819 -0.203829035864639
vn 0.030375005344619344 -0.9785351721776819 0.203829035864639
vn -1 0 0
vn 1 0 0
vn -0.19875292698425004 0.8405586912044306 0.5039428148668144
vn 0.19875292698425004 -0.8405586912044306 -0.5039428148668144
vn 0.07984597035267771 0.8405586878951533 0.5358038010526031
vn -0.07984597035267771 -0.8405586878951533 -0.5358038010526031
vn 0.08209501429545235 0.9785351703952796 0.1890220329149767
vn -0.08209501429545235 -0.9785351703952796 -0.1890220329149767
vn 0.7071067811865476 0 0.7071067811865476
vn -0.7071067811865476 0 -0.7071067811865476
vn -0.08209501429545238 0.9785351703952797 -0.1890220329149763
vn 0.08209501429545238 -0.9785351703952797 0.1890220329149763
vn 0.02341500557891843 0.9785352331482788 -0.20474504878307279
vn -0.02341500557891843 -0.9785352331482788 0.20474504878307279
vn -0.12265003390206851 0.9785352704799072 0.1656070457759469
vn 0.12265003390206851 -0.9785352704799072 -0.1656070457759469
vn -0.32453703932837447 0.46643205652363917 0.8228710997179947
vn 0.32453703932837447 -0.46643205652363917 -0.8228710997179947
vn -0.10050398613643084 0.46643193566014973 0.8788288787739134
vn 0.10050398613643084 -0.46643193566014973 -0.8788288787739134
vn -0.01404200416928931 0.8710812586375658 0.4909381457671668
vn -0.010989002072630382 0.9435821779685795 0.3309560624214635
vn -0.01602100501276498 0.8757322740052867 0.48253115097774807
vn 0.01602100501276498 -0.8757322740052867 -0.48253115097774807
vn 0.010989002072630382 -0.9435821779685795 -0.3309560624214635
vn 0.01404200416928931 -0.8710812586375658 -0.4909381457671668
vn -0.30751998859885044 0.9014069665807879 0.304789988700064
vn -0.2837858719904653 0.9531375700607081 0.1048539527026996
vn -0.4180172045653385 0.895213438091155 0.15444907558284002
vn -0.16458401534145287 0.9021340840910793 0.39883103717643886
vn -0.2096580259038797 0.9554391180473767 0.20779702567394773
vn 0.30751998859885044 -0.9014069665807879 -0.304789988700064
vn 0.2096580259038797 -0.9554391180473767 -0.20779702567394773
vn 0.16458401534145287 -0.9021340840910793 -0.39883103717643886
vn -0.11165304061212611 0.9562053478054152 0.2705640984136505
vn 0.11165304061212611 -0.9562053478054152 -0.2705640984136505
vn 0.2816679855583194 0.953447951114818 0.10770399447780114
vn 0.30788807757641345 0.9002232268229734 0.3079010775796892
vn 0.4148920279079206 0.8959330602653872 0.15864601067140377
vn -0.5110591604493484 -0.859539269856264 -0.0032830010307132998
vn -0.4148920279079206 -0.8959330602653872 -0.15864601067140377
vn -0.3518650098295251 -0.9360480261489701 -0.0022600000631344402
vn -0.07984597035267772 0.8405586878951536 -0.5358038010526027
vn 0.07984597035267772 -0.8405586878951536 0.5358038010526027
vn 0.061550996460017646 0.8405589516569345 -0.5382119690458157
vn -0.061550996460017646 -0.8405589516569345 0.5382119690458157
vn -0.26709995303288125 0.963668830547524 0.000010999998065963486
vn -0.5119288783301339 0.8590267958355553 -0.0013369996822358012
vn -0.5147908718333047 0.8573157865554012 0.000019999995020822223
vn 0.5147908718333047 -0.8573157865554012 -0.000019999995020822223
vn 0.5119288783301339 -0.8590267958355553 0.0013369996822358012
vn 0.26709995303288125 -0.963668830547524 -0.000010999998065963486
vn -0.3224109203158285 0.8405587922550796 0.4353298924077953
vn 0.3224109203158285 -0.8405587922550796 -0.4353298924077953
vn 0.13037798407276568 0.4664319430197443 0.8748958931209745
vn -0.13037798407276568 -0.4664319430197443 -0.8748958931209745
vn -0.010004005585532993 0.8645464827019399 0.5024532805345674
vn -0.00964200047634858 0.9414230465095944 0.3370900166534272
vn 0.00964200047634858 -0.9414230465095944 -0.3370900166534272
vn 0.010004005585532993 -0.8645464827019399 -0.5024532805345674
vn 0.4180172045653385 -0.895213438091155 -0.15444907558284002
vn 0.2837858719904653 -0.9531375700607081 -0.1048539527026996
vn 0.2158019283703884 0.8405587209992738 0.4968808350738501
vn -0.2158019283703884 -0.8405587209992738 -0.4968808350738501
vn 0.07560902176141374 0.9785352816371728 -0.19170805517646164
vn -0.07560902176141374 -0.9785352816371728 0.19170805517646164
vn 0.20996694512619588 0.954894750443064 0.209975945123844
vn -0.20996694512619588 -0.954894750443064 -0.209975945123844
vn -0.2816679855583194 -0.953447951114818 -0.10770399447780114
vn -0.30788807757641345 -0.9002232268229734 -0.3079010775796892
vn 0.3518650098295251 0.9360480261489701 0.0022600000631344402
vn 0.007594002159928168 0.9383522668913504 0.34559709829664165
vn 0.005533001463653371 0.8597482274305183 0.5106881350931166
vn 0.011042006669517587 0.8644815221582353 0.5025433035427802
vn 0.1631820381743209 0.8986292102226459 0.40723109526643203
vn 0.11076704991912074 0.9546304302210065 0.27642612457629884
vn -0.11076704991912074 -0.9546304302210065 -0.27642612457629884
vn -0.1631820381743209 -0.8986292102226459 -0.40723109526643203
vn 0.013886995490553064 0.8683977180100309 0.4956738390425867
vn 0.009540997644389988 0.9401747678769895 0.3405589159182279
vn -0.013886995490553064 -0.8683977180100309 -0.4956738390425867
vn 0.5110591604493484 0.859539269856264 0.0032830010307132998
vn 0.267070962640781 0.9636768651960711 0.00001999999720251457
vn 0.5147401459708034 0.8573462431275681 0.00003900001105987358
vn -0.267070962640781 -0.9636768651960711 -0.00001999999720251457
vn -0.5147401459708034 -0.8573462431275681 -0.00003900001105987358
vn -0.12822001447725853 0.9785351104859162 -0.16133401821614413
vn 0.12822001447725853 -0.9785351104859162 0.16133401821614413
vn -0.2158019283703884 0.840558720999274 -0.4968808350738498
vn 0.2158019283703884 -0.840558720999274 0.4968808350738498
vn -0.28222812036058215 0.953394406589909 -0.10670704550688302
vn -0.41574599819711755 0.8957939961153895 -0.15718899931834973
vn -0.3525069087410845 0.9358087577327131 -0.0009209997615663392
vn 0.41574599819711755 -0.8957939961153895 0.15718899931834973
vn 0.28222812036058215 -0.953394406589909 0.10670704550688302
vn 0.3525069087410845 -0.9358087577327131 0.0009209997615663392
vn 0.3078880775764134 -0.9002232268229734 0.3079010775796887
vn 0.007346996660151588 -0.8666366060383547 0.4988857732130643
vn 0.0057719968654082856 -0.8631265312628651 0.5049547257748163
vn 0.005050001982153942 -0.9393553687022211 0.342908134593355
vn -0.10856698201636945 0.9545108418895873 -0.277708953998765
vn -0.007346996660151588 0.8666366060383547 -0.4988857732130643
vn -0.15996498818218702 0.8983209336342979 -0.40918296977058605
vn 0.15996498818218702 -0.8983209336342979 0.40918296977058605
vn 0.10856698201636945 -0.9545108418895873 0.277708953998765
vn -0.20996694512619588 0.954894750443064 -0.20997594512384354
vn -0.3078880775764134 0.9002232268229734 -0.3079010775796887
vn 0.20996694512619588 -0.954894750443064 0.20997594512384354
vn -0.16133401821614435 0.9785351104859162 0.12822001447725875
vn 0.16133401821614435 -0.9785351104859162 -0.12822001447725875
vn -0.35689402152642047 0.2318560139846276 0.9049140545807978
vn 0.35689402152642047 -0.2318560139846276 -0.9049140545807978
vn -0.526453160376346 0.4664321420918103 0.7108362165459793
vn 0.526453160376346 -0.4664321420918103 -0.7108362165459793
vn -0.11052398371357382 0.2318559658345187 0.9664508575871948
vn 0.11052398371357382 -0.2318559658345187 -0.9664508575871948
vn 0.003808998521611786 0.9361456366533965 0.3515918635365009
vn 0.00004199999802587414 0.8573709597009936 0.5146989758076049
vn -0.005533001463653371 -0.8597482274305183 -0.5106881350931166
vn -0.00004199999802587414 -0.8573709597009936 -0.5146989758076049
vn -0.003808998521611786 -0.9361456366533965 -0.3515918635365009
vn -0.005136999494637425 0.8590869154856106 0.5118039496502655
vn -0.006880001417717318 0.938383193366545 0.3455280712007313
vn 0.006880001417717318 -0.938383193366545 -0.3455280712007313
vn 0.005136999494637425 -0.8590869154856106 -0.5118039496502655
vn -0.0035369992254078654 0.9358367950545716 0.3524159228219788
vn 0.0035369992254078654 -0.9358367950545716 -0.3524159228219788
vn -0.0057719968654082856 0.8631265312628651 -0.5049547257748163
vn -0.005050001982153942 0.9393553687022211 -0.342908134593355
vn -0.003970999453250992 0.937720870889442 -0.34736695217261054
vn 0.003970999453250992 -0.937720870889442 0.34736695217261054
vn -0.002891999504431345 0.8591218527821807 -0.5117629123050822
vn -0.001992000006077592 0.9358530028552876 -0.3523850010751264
vn 0.001992000006077592 -0.9358530028552876 0.3523850010751264
vn 0.002891999504431345 -0.8591218527821807 0.5117629123050822
vn 0.000039000011059683205 0.8573462431275682 -0.5147401459708032
vn 0.00001999999720230059 0.9636768651960712 -0.2670709626407808
vn -0.00001999999720230059 -0.9636768651960712 0.2670709626407808
vn -0.000039000011059683205 -0.8573462431275682 0.5147401459708032
vn 0.00002200001072300584 0.9636834697081107 0.2670471301612066
vn -0.00002200001072300584 -0.9636834697081107 -0.2670471301612066
vn 0.12822001447725853 0.9785351104859162 0.16133401821614457
vn -0.12822001447725853 -0.9785351104859162 -0.16133401821614457
vn 0.12265003390206851 0.9785352704799072 -0.16560704577594645
vn -0.12265003390206851 -0.9785352704799072 0.16560704577594645
vn -0.5117629123050824 -0.8591218527821806 0.002891999504431154
vn 0.0022600000631342325 0.9360480261489702 -0.3518650098295249
vn -0.0022600000631342325 -0.9360480261489702 0.3518650098295249
vn 0.5117629123050824 0.8591218527821806 -0.002891999504431154
vn 0.35238500107512666 0.9358530028552876 -0.0019920000060773845
vn -0.35238500107512666 -0.9358530028552876 0.0019920000060773845
vn 0.2777089539987653 0.9545108418895875 -0.10856698201636926
vn 0.30790107757968893 0.9002232268229734 -0.3078880775764132
vn 0.20997594512384377 0.954894750443064 -0.20996694512619565
vn -0.20997594512384377 -0.954894750443064 0.20996694512619565
vn -0.30790107757968893 -0.9002232268229734 0.3078880775764132
vn -0.2777089539987653 -0.9545108418895875 0.10856698201636926
vn 0.34736695217261077 0.9377208708894419 -0.0039709994532507835
vn 0.4988857732130646 0.8666366060383548 -0.007346996660151397
vn 0.34290813459335523 0.939355368702221 -0.0050500019821537335
vn -0.34290813459335523 -0.939355368702221 0.0050500019821537335
vn -0.4988857732130646 -0.8666366060383548 0.007346996660151397
vn -0.34736695217261077 -0.9377208708894419 0.0039709994532507835
vn 0.5049547257748165 0.863126531262865 -0.005771996865408094
vn -0.5049547257748165 -0.863126531262865 0.005771996865408094
vn -0.007594002159928168 -0.9383522668913504 -0.34559709829664165
vn -0.009540997644389988 -0.9401747678769895 -0.3405589159182279
vn 0.40918296977058627 0.8983209336342978 -0.15996498818218682
vn -0.40918296977058627 -0.8983209336342978 0.15996498818218682
vn 0.10770399447780094 0.9534479511148181 -0.2816679855583192
vn 0.003283001030713109 0.8595392698562642 -0.5110591604493482
vn -0.003283001030713109 -0.8595392698562642 0.5110591604493482
vn -0.10770399447780094 -0.9534479511148181 0.2816679855583192
vn -0.011042006669517587 -0.8644815221582353 -0.5025433035427802
vn -0.13037798407276568 0.4664319430197446 -0.8748958931209743
vn 0.13037798407276568 -0.4664319430197446 0.8748958931209743
vn 0.10050398613643084 0.4664319356601502 -0.8788288787739131
vn -0.10050398613643084 -0.4664319356601502 0.8788288787739131
vn 0.19875292698425004 0.8405586912044308 -0.5039428148668139
vn -0.19875292698425004 -0.8405586912044308 0.5039428148668139
vn -0.4240959520139698 0.8405589048916058 0.337050961863023
vn 0.4240959520139698 -0.8405589048916058 -0.337050961863023
vn -0.5789419986160391 0.23185599944574806 0.7817089981313247
vn 0.5789419986160391 -0.23185599944574806 -0.7817089981313247
vn 0.14337695636029074 0.23185592942990532 0.962125707157362
vn -0.14337695636029074 -0.23185592942990532 -0.962125707157362
vn 0.35237595567110763 0.4664319413228654 0.8113398979334474
vn -0.35237595567110763 -0.4664319413228654 -0.8113398979334474
vn 0.33705096186302286 0.8405589048916058 0.42409595201397
vn -0.33705096186302286 -0.8405589048916058 -0.42409595201397
vn 0.15864601067140358 0.8959330602653873 -0.4148920279079204
vn -0.15864601067140358 -0.8959330602653873 0.4148920279079204
vn -0.16560704577594668 0.9785352704799072 -0.12265003390206829
vn 0.16560704577594668 -0.9785352704799072 0.12265003390206829
vn -0.33705096186302286 0.840558904891606 -0.42409595201396966
vn 0.33705096186302286 -0.840558904891606 0.42409595201396966
vn -0.35237595567110763 0.46643194132286575 -0.8113398979334472
vn 0.35237595567110763 -0.46643194132286575 0.8113398979334472
vn 0.32453703932837447 0.4664320565236395 -0.8228710997179944
vn -0.32453703932837447 -0.4664320565236395 0.8228710997179944
vn -0.18902203291497652 0.9785351703952797 0.0820950142954526
vn 0.18902203291497652 -0.9785351703952797 -0.0820950142954526
vn -0.6924928633870989 0.46643190798372147 0.5503588914268599
vn 0.6924928633870989 -0.46643190798372147 -0.5503588914268599
vn -0.7615364388762417 0.2318561336195397 0.6052313487970452
vn 0.7615364388762417 -0.2318561336195397 -0.6052313487970452
vn 0.16560704577594668 0.9785352704799072 0.12265003390206873
vn -0.16560704577594668 -0.9785352704799072 -0.12265003390206873
vn 0.16133401821614435 0.9785351104859162 -0.1282200144772583
vn -0.16133401821614435 -0.9785351104859162 0.1282200144772583
vn 0.3224109203158285 0.8405587922550798 -0.43532989240779496
vn -0.3224109203158285 -0.8405587922550798 0.43532989240779496
vn -0.14337695636029074 0.23185592942990577 -0.962125707157362
vn 0.14337695636029074 -0.23185592942990577 0.962125707157362
vn 0.11052398371357379 0.23185596583451912 -0.9664508575871946
vn -0.11052398371357379 -0.23185596583451912 0.9664508575871946
vn 0.35689402152642036 0.23185601398462793 -0.9049140545807977
vn -0.35689402152642036 -0.23185601398462793 0.9049140545807977
vn -0.49688083507384995 0.8405587209992739 0.21580192837038858
vn 0.49688083507384995 -0.8405587209992739 -0.21580192837038858
vn 0.38750811991653755 0.2318560717491475 0.8922332761065372
vn -0.38750811991653755 -0.2318560717491475 -0.8922332761065372
vn 0.5503588914268598 0.4664319079837214 0.692492863387099
vn -0.5503588914268598 -0.4664319079837214 -0.692492863387099
vn 0.4353298924077951 0.8405587922550796 0.3224109203158287
vn -0.4353298924077951 -0.8405587922550796 -0.3224109203158287
vn -0.1917080551764618 0.9785352816371726 -0.0756090217614135
vn 0.1917080551764618 -0.9785352816371726 0.0756090217614135
vn -0.435329892407795 0.8405587922550797 -0.3224109203158283
vn 0.435329892407795 -0.8405587922550797 0.3224109203158283
vn -0.5503588914268598 0.46643190798372175 -0.6924928633870988
vn 0.5503588914268598 -0.46643190798372175 0.6924928633870988
vn -0.38750811991653755 0.23185607174914788 -0.8922332761065372
vn 0.38750811991653755 -0.23185607174914788 0.8922332761065372
vn 0.5789419986160391 0.2318559994457484 -0.7817089981313247
vn -0.5789419986160391 -0.2318559994457484 0.7817089981313247
vn 0.526453160376346 0.4664321420918106 -0.7108362165459791
vn -0.526453160376346 -0.4664321420918106 0.7108362165459791
vn -0.2038290358646392 0.9785351721776819 0.030375005344619562
vn 0.2038290358646392 -0.9785351721776819 -0.030375005344619562
vn -0.605231348797045 0.23185613361953994 -0.7615364388762415
vn 0.605231348797045 -0.23185613361953994 0.7615364388762415
vn -0.8113398979334473 0.46643194132286553 0.35237595567110774
vn 0.8113398979334473 -0.46643194132286553 -0.35237595567110774
vn -0.8922332761065372 0.2318560717491476 0.3875081199165376
vn 0.8922332761065372 -0.2318560717491476 -0.3875081199165376
vn 0.1917080551764618 0.9785352816371726 0.07560902176141394
vn -0.1917080551764618 -0.9785352816371726 -0.07560902176141394
vn 0.18902203291497652 0.9785351703952797 -0.08209501429545216
vn -0.18902203291497652 -0.9785351703952797 0.08209501429545216
vn 0.4240959520139698 0.840558904891606 -0.3370509618630227
vn -0.4240959520139698 -0.840558904891606 0.3370509618630227
vn -0.5358038010526028 0.8405586878951534 0.07984597035267789
vn 0.5358038010526028 -0.8405586878951534 -0.07984597035267789
vn -0.7817089981313247 0.23185599944574836 -0.5789419986160391
vn 0.7817089981313247 -0.23185599944574836 0.5789419986160391
vn -0.8748958931209744 0.4664319430197444 0.1303779840727658
vn 0.8748958931209744 -0.4664319430197444 -0.1303779840727658
vn 0.6052313487970452 0.23185613361953966 0.7615364388762417
vn -0.6052313487970452 -0.23185613361953966 -0.7615364388762417
vn 0.7108362165459792 0.46643214209181033 0.5264531603763462
vn -0.7108362165459792 -0.46643214209181033 -0.5264531603763462
vn 0.503942814866814 0.8405586912044305 0.19875292698425018
vn -0.503942814866814 -0.8405586912044305 -0.19875292698425018
vn -0.20474504878307298 0.9785352331482786 -0.023415005578918208
vn 0.20474504878307298 -0.9785352331482786 0.023415005578918208
vn -0.5039428148668141 0.8405586912044307 -0.19875292698424984
vn 0.5039428148668141 -0.8405586912044307 0.19875292698424984
vn -0.7108362165459792 0.46643214209181055 -0.5264531603763459
vn 0.7108362165459792 -0.46643214209181055 0.5264531603763459
vn 0.7615364388762415 0.2318561336195399 -0.605231348797045
vn -0.7615364388762415 -0.2318561336195399 0.605231348797045
vn 0.6924928633870989 0.4664319079837217 -0.5503588914268597
vn -0.6924928633870989 -0.4664319079837217 0.5503588914268597
vn -0.962125707157362 0.23185592942990552 0.1433769563602908
vn 0.962125707157362 -0.23185592942990552 -0.1433769563602908
vn 0.7817089981313247 0.23185599944574808 0.5789419986160391
vn -0.7817089981313247 -0.23185599944574808 -0.5789419986160391
vn 0.20474504878307298 0.9785352331482786 0.023415005578918645
vn -0.20474504878307298 -0.9785352331482786 -0.023415005578918645
vn 0.2038290358646392 0.9785351721776819 -0.030375005344619125
vn -0.2038290358646392 -0.9785351721776819 0.030375005344619125
vn 0.49688083507384995 0.8405587209992739 -0.2158019283703882
vn -0.49688083507384995 -0.8405587209992739 0.2158019283703882
vn -0.5382119690458159 0.8405589516569344 -0.06155099646001746
vn 0.5382119690458159 -0.8405589516569344 0.06155099646001746
vn -0.8788288787739132 0.46643193566014995 -0.10050398613643075
vn 0.8788288787739132 -0.46643193566014995 0.10050398613643075
vn -0.9049140545807978 0.23185601398462788 -0.3568940215264204
vn 0.9049140545807978 -0.23185601398462788 0.3568940215264204
vn -0.9664508575871948 0.23185596583451895 -0.11052398371357376
vn 0.9664508575871948 -0.23185596583451895 0.11052398371357376
vn 0.9049140545807977 0.23185601398462766 0.3568940215264204
vn -0.9049140545807977 -0.23185601398462766 -0.3568940215264204
vn 0.8228710997179945 0.4664320565236393 0.3245370393283746
vn -0.8228710997179945 -0.4664320565236393 -0.3245370393283746
vn 0.5382119690458159 0.8405589516569344 0.06155099646001783
vn -0.5382119690458159 -0.8405589516569344 -0.06155099646001783
vn -0.8228710997179945 0.4664320565236394 -0.32453703932837435
vn 0.8228710997179945 -0.4664320565236394 0.32453703932837435
vn 0.8922332761065372 0.23185607174914777 -0.3875081199165375
vn -0.8922332761065372 -0.23185607174914777 0.3875081199165375
vn 0.8113398979334473 0.46643194132286564 -0.3523759556711075
vn -0.8113398979334473 -0.46643194132286564 0.3523759556711075
vn 0.8788288787739132 0.46643193566014995 0.10050398613643094
vn -0.8788288787739132 -0.46643193566014995 -0.10050398613643094
vn 0.535803801052603 0.8405586878951535 -0.07984597035267754
vn -0.535803801052603 -0.8405586878951535 0.07984597035267754
vn 0.9664508575871946 0.23185596583451887 0.11052398371357385
vn -0.9664508575871946 -0.23185596583451887 -0.11052398371357385
vn 0.8748958931209744 0.4664319430197445 -0.13037798407276557
vn -0.8748958931209744 -0.4664319430197445 0.13037798407276557
vn 0.962125707157362 0.23185592942990557 -0.14337695636029069
vn -0.962125707157362 -0.23185592942990557 0.14337695636029069
usemtl material_0_0
f 1//1 2//2 3//3
f 2//2 1//1 4//2
f 4//2 1//1 5//2
f 3//4 2//5 1//6
f 4//5 1//6 2//5
f 5//5 1//6 4//5
f 6//2 3//3 2//2
f 2//5 3//4 6//5
f 3//3 7//7 1//1
f 1//6 7//8 3//4
f 8//9 2//9 4//9
f 4//10 2//10 8//10
f 4//2 6//2 2//2
f 2//5 6//5 4//5
f 5//2 1//1 9//11
f 9//12 1//6 5//5
f 10//13 4//13 5//13
f 5//14 4//14 10//14
f 11//2 4//2 5//2
f 5//5 4//5 11//5
f 12//15 3//3 6//2
f 6//5 3//4 12//16
f 2//17 13//17 6//17
f 6//18 13//18 2//18
f 6//2 4//2 11//2
f 11//5 4//5 6//5
f 7//7 3//3 14//19
f 14//20 3//4 7//8
f 15//21 1//1 7//7
f 7//8 1//6 15//22
f 2//9 8//9 16//9
f 16//10 8//10 2//10
f 4//13 10//13 8//13
f 8//14 10//14 4//14
f 1//1 15//21 9//11
f 9//12 15//22 1//6
f 5//2 9//11 17//2
f 17//2 9//11 18//23
f 17//5 9//12 5//5
f 18//24 9//12 17//5
f 19//25 5//25 17//25
f 5//25 19//25 10//25
f 17//26 5//26 19//26
f 10//26 19//26 5//26
f 11//2 5//2 20//2
f 20//5 5//5 11//5
f 21//27 3//3 12//15
f 12//16 3//4 21//28
f 12//15 6//2 11//2
f 12//15 11//2 22//29
f 11//5 6//5 12//16
f 22//30 11//5 12//16
f 13//17 2//17 16//17
f 16//18 2//18 13//18
f 6//17 13//17 23//17
f 23//18 13//18 6//18
f 24//26 11//26 6//26
f 6//25 11//25 24//25
f 25//31 14//19 3//3
f 3//4 14//20 25//32
f 26//33 7//7 14//19
f 14//20 7//8 26//34
f 27//35 15//21 7//7
f 7//8 15//22 27//36
f 16//9 8//9 28//9
f 28//10 8//10 16//10
f 8//13 29//13 30//13
f 8//13 30//13 31//13
f 30//14 29//14 8//14
f 31//14 30//14 8//14
f 30//37 32//38 31//39
f 31//40 32//41 30//42
f 28//43 33//44 16//45
f 8//46 34//47 28//43
f 28//48 34//49 8//50
f 31//39 35//51 8//46
f 8//50 35//52 31//40
f 8//13 10//13 36//13
f 8//13 36//13 37//13
f 8//13 37//13 38//13
f 36//14 10//14 8//14
f 37//14 36//14 8//14
f 38//14 37//14 8//14
f 8//13 38//13 39//13
f 15//21 18//23 9//11
f 9//12 18//24 15//22
f 17//2 18//23 40//2
f 40//5 18//24 17//5
f 20//2 5//2 17//2
f 17//5 5//5 20//5
f 40//18 19//18 17//18
f 17//17 19//17 40//17
f 10//25 19//25 41//25
f 41//26 19//26 10//26
f 19//18 40//18 42//18
f 42//17 40//17 19//17
f 43//53 41//54 19//55
f 42//56 19//57 44//58
f 20//2 17//2 40//2
f 40//5 17//5 20//5
f 22//29 11//2 20//2
f 20//5 11//5 22//30
f 45//14 20//14 11//14
f 11//13 20//13 45//13
f 21//27 25//31 3//3
f 3//4 25//32 21//28
f 46//59 21//27 12//15
f 12//16 21//28 46//60
f 47//61 12//15 22//29
f 22//30 12//16 47//62
f 48//63 23//64 13//65
f 13//66 23//67 48//68
f 6//17 23//17 24//17
f 24//18 23//18 6//18
f 11//26 24//26 45//26
f 45//25 24//25 11//25
f 14//19 25//31 49//69
f 49//70 25//32 14//20
f 7//7 26//33 27//35
f 27//36 26//34 7//8
f 49//69 26//33 14//19
f 14//20 26//34 49//70
f 15//21 27//35 50//71
f 50//72 27//36 15//22
f 8//13 39//13 51//13
f 8//13 51//13 29//13
f 39//14 38//14 8//14
f 51//14 39//14 8//14
f 29//14 51//14 8//14
f 29//73 52//74 30//37
f 30//42 52//75 29//76
f 32//38 30//37 52//74
f 52//75 30//42 32//41
f 33//44 13//65 16//45
f 33//44 28//43 34//47
f 16//77 33//78 28//48
f 34//49 28//48 33//78
f 34//47 8//46 35//51
f 35//52 8//50 34//49
f 35//51 31//39 32//38
f 32//41 31//40 35//52
f 13//65 33//44 48//63
f 16//77 13//66 33//78
f 48//68 33//78 13//66
f 18//23 15//21 53//79
f 53//80 15//22 18//24
f 40//2 18//23 54//81
f 54//82 18//24 40//5
f 42//18 40//18 55//18
f 55//17 40//17 42//17
f 41//54 43//53 56//83
f 56//84 43//85 41//86
f 19//57 41//86 43//85
f 19//55 44//87 43//53
f 43//85 44//58 19//57
f 57//88 38//89 37//90
f 10//91 56//83 58//92
f 56//83 10//91 41//54
f 58//93 56//84 10//94
f 41//86 10//94 56//84
f 36//95 58//92 59//96
f 10//94 36//97 58//93
f 42//98 60//99 44//87
f 60//99 42//98 55//100
f 44//58 60//101 42//56
f 55//102 42//56 60//101
f 44//87 19//55 42//98
f 54//81 20//2 40//2
f 40//5 20//5 54//82
f 61//10 40//10 20//10
f 20//9 40//9 61//9
f 22//29 20//2 54//81
f 54//82 20//5 22//30
f 20//14 45//14 61//14
f 61//13 45//13 20//13
f 62//103 25//31 21//27
f 21//28 25//32 62//104
f 21//27 46//59 63//105
f 63//106 46//60 21//28
f 12//15 47//61 46//59
f 46//60 47//62 12//16
f 54//81 47//61 22//29
f 22//30 47//62 54//82
f 23//64 64//107 24//108
f 64//107 23//64 65//109
f 24//110 64//111 23//67
f 65//112 23//67 64//111
f 23//64 48//63 65//109
f 65//112 48//68 23//67
f 45//26 24//26 66//26
f 66//25 24//25 45//25
f 24//110 66//113 64//111
f 61//14 45//14 67//14
f 61//14 67//14 68//14
f 67//13 45//13 61//13
f 67//114 68//115 69//116
f 70//117 67//118 45//119
f 45//120 67//114 70//121
f 71//122 45//119 66//123
f 66//113 45//120 71//124
f 64//107 66//123 24//108
f 72//125 49//69 25//31
f 25//32 49//70 72//126
f 73//127 27//35 26//33
f 26//34 27//36 73//128
f 26//33 49//69 74//129
f 74//130 49//70 26//34
f 75//131 50//71 27//35
f 27//36 50//72 75//132
f 50//71 53//79 15//21
f 15//22 53//80 50//72
f 76//133 39//134 38//89
f 38//135 39//136 76//137
f 51//138 77//139 29//73
f 29//76 77//140 51//141
f 39//134 78//142 51//138
f 51//141 78//143 39//136
f 52//74 29//73 77//139
f 77//140 29//76 52//75
f 77//139 51//138 78//142
f 78//143 51//141 77//140
f 68//144 69//145 79//146
f 79//147 69//116 68//115
f 80//148 79//146 81//149
f 81//150 79//147 80//151
f 67//118 70//117 69//145
f 69//116 70//121 67//114
f 82//152 81//149 83//153
f 83//154 81//150 82//155
f 45//119 71//122 70//117
f 70//121 71//124 45//120
f 66//123 64//107 71//122
f 71//124 64//111 66//113
f 76//133 84//2 85//156
f 85//157 84//5 76//137
f 78//142 39//134 85//156
f 85//157 39//136 78//143
f 60//99 83//153 84//2
f 84//5 83//154 60//101
f 84//2 65//109 48//63
f 65//109 84//2 64//107
f 64//107 84//2 71//122
f 71//122 84//2 70//117
f 70//117 84//2 69//145
f 69//145 84//2 79//146
f 79//146 84//2 81//149
f 81//149 84//2 83//153
f 48//68 65//112 84//5
f 64//111 84//5 65//112
f 71//124 84//5 64//111
f 70//121 84//5 71//124
f 69//116 84//5 70//121
f 79//147 84//5 69//116
f 81//150 84//5 79//147
f 83//154 84//5 81//150
f 33//44 84//2 48//63
f 84//2 33//44 34//47
f 84//2 34//47 35//51
f 84//2 35//51 32//38
f 84//2 32//38 52//74
f 84//2 52//74 77//139
f 84//2 77//139 78//142
f 84//2 78//142 85//156
f 48//68 84//5 33//78
f 34//49 33//78 84//5
f 35//52 34//49 84//5
f 32//41 35//52 84//5
f 52//75 32//41 84//5
f 77//140 52//75 84//5
f 78//143 77//140 84//5
f 85//157 78//143 84//5
f 53//79 86//158 18//23
f 18//24 86//159 53//80
f 54//81 18//23 87//160
f 87//161 18//24 54//82
f 55//18 40//18 88//18
f 88//18 40//18 89//18
f 88//17 40//17 55//17
f 55//102 60//101 88//162
f 90//163 82//152 83//153
f 83//154 82//155 90//164
f 60//99 88//165 91//166
f 91//167 88//162 60//101
f 92//168 93//169 94//170
f 94//171 93//172 92//173
f 95//174 96//175 97//176
f 97//177 96//178 95//179
f 91//166 89//180 95//174
f 95//179 89//181 91//167
f 84//2 76//133 60//99
f 60//99 76//133 57//88
f 60//99 57//88 59//96
f 60//99 59//96 58//92
f 60//99 58//92 56//83
f 60//99 56//83 43//53
f 60//99 43//53 44//87
f 60//101 76//137 84//5
f 57//182 76//137 60//101
f 59//183 57//182 60//101
f 58//93 59//183 60//101
f 56//84 58//93 60//101
f 43//85 56//84 60//101
f 44//58 43//85 60//101
f 39//134 76//133 85//156
f 85//157 76//137 39//136
f 38//89 57//88 76//133
f 76//137 57//182 38//135
f 97//176 98//184 92//168
f 92//173 98//185 97//177
f 99//186 100//187 90//163
f 90//164 100//188 99//189
f 59//183 58//93 36//97
f 37//90 59//96 57//88
f 57//182 59//183 37//190
f 83//153 60//99 90//163
f 90//163 60//99 99//186
f 99//186 60//99 94//170
f 94//170 60//99 92//168
f 92//168 60//99 97//176
f 97//176 60//99 95//174
f 95//174 60//99 91//166
f 90//164 60//101 83//154
f 99//189 60//101 90//164
f 94//171 60//101 99//189
f 92//173 60//101 94//171
f 97//177 60//101 92//173
f 95//179 60//101 97//177
f 91//167 60//101 95//179
f 58//92 36//95 10//91
f 37//190 38//135 57//182
f 59//96 37//90 36//95
f 36//97 37//190 59//183
f 88//165 60//99 55//100
f 96//175 95//174 89//180
f 88//162 91//167 89//181
f 89//181 95//179 96//178
f 89//180 91//166 88//165
f 40//10 61//10 98//10
f 98//9 61//9 40//9
f 68//13 67//13 61//13
f 61//14 68//14 80//14
f 62//103 72//125 25//31
f 25//32 72//126 62//104
f 63//105 62//103 21//27
f 21//28 62//104 63//106
f 101//191 63//105 46//59
f 46//60 63//106 101//192
f 102//193 46//59 47//61
f 47//62 46//60 102//194
f 47//61 54//81 103//195
f 103//196 54//82 47//62
f 69//145 68//144 67//118
f 68//115 80//151 79//147
f 61//14 80//14 82//14
f 61//14 82//14 100//14
f 80//13 68//13 61//13
f 82//13 80//13 61//13
f 79//146 80//148 68//144
f 81//149 82//152 80//148
f 49//69 72//125 104//197
f 104//198 72//126 49//70
f 27//35 73//127 75//131
f 75//132 73//128 27//36
f 26//33 105//199 73//127
f 73//128 105//200 26//34
f 104//197 74//129 49//69
f 49//70 74//130 104//198
f 105//199 26//33 74//129
f 74//130 26//34 105//200
f 50//71 75//131 106//201
f 106//202 75//132 50//72
f 53//79 50//71 107//203
f 107//204 50//72 53//80
f 80//151 82//155 81//150
f 86//158 53//79 108//205
f 108//206 53//80 86//159
f 87//160 18//23 86//158
f 86//159 18//24 87//161
f 87//160 103//195 54//81
f 54//82 103//196 87//161
f 89//18 40//18 96//18
f 96//18 40//18 98//18
f 89//17 40//17 88//17
f 96//17 40//17 89//17
f 98//17 40//17 96//17
f 82//152 90//163 100//187
f 100//188 90//164 82//155
f 93//169 92//168 98//184
f 98//185 92//173 93//172
f 98//184 97//176 96//175
f 96//178 97//177 98//185
f 100//187 99//186 61//207
f 61//208 99//189 100//188
f 94//170 61//207 99//186
f 61//207 94//170 93//169
f 99//189 61//208 94//171
f 93//172 94//171 61//208
f 98//10 61//10 93//10
f 93//9 61//9 98//9
f 109//209 72//125 62//103
f 62//104 72//126 109//210
f 62//103 63//105 110//211
f 110//212 63//106 62//104
f 63//105 101//191 111//213
f 111//214 101//192 63//106
f 46//59 102//193 101//191
f 101//192 102//194 46//60
f 47//61 112//215 102//193
f 102//194 112//216 47//62
f 112//215 47//61 103//195
f 103//196 47//62 112//216
f 100//13 82//13 61//13
f 113//217 104//197 72//125
f 72//126 104//198 113//218
f 73//5 114//5 75//5
f 75//2 114//2 73//2
f 105//5 115//5 73//5
f 73//2 115//2 105//2
f 74//129 104//197 116//219
f 116//220 104//198 74//130
f 74//129 117//221 105//199
f 105//200 117//222 74//130
f 75//5 118//5 106//5
f 106//2 118//2 75//2
f 106//201 107//203 50//71
f 50//72 107//204 106//202
f 107//203 108//205 53//79
f 53//80 108//206 107//204
f 108//205 119//223 86//158
f 86//159 119//224 108//206
f 87//160 86//158 120//225
f 120//226 86//159 87//161
f 103//195 87//160 121//227
f 121//228 87//161 103//196
f 109//209 113//217 72//125
f 72//126 113//218 109//210
f 110//211 109//209 62//103
f 62//104 109//210 110//212
f 111//213 110//211 63//105
f 63//106 110//212 111//214
f 114//229 111//213 101//191
f 101//192 111//214 114//230
f 118//231 101//191 102//193
f 102//194 101//192 118//232
f 122//233 102//193 112//215
f 112//216 102//194 122//234
f 121//227 112//215 103//195
f 103//196 112//216 121//228
f 104//197 113//217 123//235
f 123//236 113//218 104//198
f 73//5 115//5 114//5
f 114//2 115//2 73//2
f 75//5 114//5 118//5
f 118//2 114//2 75//2
f 105//5 124//5 115//5
f 115//2 124//2 105//2
f 123//235 116//219 104//197
f 104//198 116//220 123//236
f 117//221 74//129 116//219
f 116//220 74//130 117//222
f 117//5 124//5 105//5
f 105//2 124//2 117//2
f 106//5 118//5 122//5
f 122//2 118//2 106//2
f 107//203 106//201 125//237
f 125//238 106//202 107//204
f 108//205 107//203 126//239
f 126//240 107//204 108//206
f 119//223 108//205 127//241
f 127//242 108//206 119//224
f 120//225 86//158 119//223
f 119//224 86//159 120//226
f 120//225 121//227 87//160
f 87//161 121//228 120//226
f 128//243 113//217 109//209
f 109//210 113//218 128//244
f 109//209 110//211 129//245
f 129//246 110//212 109//210
f 110//211 111//213 130//247
f 130//248 111//214 110//212
f 111//213 114//229 115//249
f 115//250 114//230 111//214
f 101//191 118//231 114//229
f 114//230 118//232 101//192
f 102//193 122//233 118//231
f 118//232 122//234 102//194
f 112//215 131//251 122//233
f 122//234 131//252 112//216
f 112//215 121//227 132//253
f 132//254 121//228 112//216
f 133//255 123//235 113//217
f 113//218 123//236 133//256
f 130//247 115//249 124//257
f 124//258 115//250 130//248
f 116//219 123//235 134//259
f 134//260 123//236 116//220
f 116//219 135//261 117//221
f 117//222 135//262 116//220
f 117//5 136//5 124//5
f 124//2 136//2 117//2
f 106//5 122//5 125//5
f 125//2 122//2 106//2
f 125//237 126//239 107//203
f 107//204 126//240 125//238
f 126//239 127//241 108//205
f 108//206 127//242 126//240
f 127//241 137//263 119//223
f 119//224 137//264 127//242
f 120//225 119//223 138//265
f 138//266 119//224 120//226
f 121//227 120//225 139//267
f 139//268 120//226 121//228
f 128//243 133//255 113//217
f 113//218 133//256 128//244
f 129//245 128//243 109//209
f 109//210 128//244 129//246
f 130//247 129//245 110//211
f 110//212 129//246 130//248
f 115//249 130//247 111//213
f 111//214 130//248 115//250
f 131//251 112//215 132//253
f 132//254 112//216 131//252
f 125//5 122//5 131//5
f 131//2 122//2 125//2
f 139//267 132//253 121//227
f 121//228 132//254 139//268
f 123//235 133//255 140//269
f 140//270 133//256 123//236
f 136//271 130//247 124//257
f 124//258 130//248 136//272
f 123//235 141//273 134//259
f 134//260 141//274 123//236
f 135//261 116//219 134//259
f 134//260 116//220 135//262
f 135//5 136//5 117//5
f 117//2 136//2 135//2
f 126//239 125//237 142//275
f 142//276 125//238 126//240
f 127//241 126//239 143//277
f 143//278 126//240 127//242
f 137//263 127//241 144//279
f 144//280 127//242 137//264
f 138//265 119//223 137//263
f 137//264 119//224 138//266
f 138//265 139//267 120//225
f 120//226 139//268 138//266
f 133//255 128//243 145//281
f 145//282 128//244 133//256
f 128//243 129//245 146//283
f 146//284 129//246 128//244
f 129//245 130//247 147//285
f 147//286 130//248 129//246
f 132//253 148//287 131//251
f 131//252 148//288 132//254
f 125//5 131//5 142//5
f 142//2 131//2 125//2
f 132//253 139//267 149//289
f 149//290 139//268 132//254
f 145//281 140//269 133//255
f 133//256 140//270 145//282
f 141//273 123//235 140//269
f 140//270 123//236 141//274
f 130//247 136//271 147//285
f 147//286 136//272 130//248
f 150//291 134//259 141//273
f 141//274 134//260 150//292
f 134//259 150//291 135//261
f 135//262 150//292 134//260
f 135//5 151//5 136//5
f 136//2 151//2 135//2
f 152//293 126//239 142//275
f 142//276 126//240 152//294
f 126//239 152//293 143//277
f 143//278 152//294 126//240
f 143//277 144//279 127//241
f 127//242 144//280 143//278
f 144//279 153//295 137//263
f 137//264 153//296 144//280
f 138//265 137//263 154//297
f 154//298 137//264 138//266
f 139//267 138//265 155//299
f 155//300 138//266 139//268
f 146//283 145//281 128//243
f 128//244 145//282 146//284
f 147//285 146//283 129//245
f 129//246 146//284 147//286
f 148//287 132//253 149//289
f 149//290 132//254 148//288
f 142//5 131//5 148//5
f 148//2 131//2 142//2
f 155//299 149//289 139//267
f 139//268 149//290 155//300
f 140//269 145//281 156//301
f 156//302 145//282 140//270
f 140//269 157//303 141//273
f 141//274 157//304 140//270
f 151//305 147//285 136//271
f 136//272 147//286 151//306
f 141//273 158//307 150//291
f 150//292 158//308 141//274
f 150//5 151//5 135//5
f 135//2 151//2 150//2
f 142//5 148//5 152//5
f 152//2 148//2 142//2
f 159//309 143//277 152//293
f 152//294 143//278 159//310
f 144//279 143//277 160//311
f 160//312 143//278 144//280
f 153//295 144//279 161//313
f 161//314 144//280 153//296
f 154//297 137//263 153//295
f 153//296 137//264 154//298
f 154//297 155//299 138//265
f 138//266 155//300 154//298
f 145//281 146//283 156//301
f 156//302 146//284 145//282
f 146//283 147//285 162//315
f 162//316 147//286 146//284
f 149//289 163//317 148//287
f 148//288 163//318 149//290
f 149//289 155//299 164//319
f 164//320 155//300 149//290
f 157//303 140//269 156//301
f 156//302 140//270 157//304
f 158//307 141//273 157//303
f 157//304 141//274 158//308
f 147//285 151//305 162//315
f 162//316 151//306 147//286
f 151//5 150//5 158//5
f 158//2 150//2 151//2
f 152//5 148//5 163//5
f 163//2 148//2 152//2
f 143//277 159//309 160//311
f 160//312 159//310 143//278
f 152//5 163//5 159//5
f 159//2 163//2 152//2
f 165//321 144//279 160//311
f 160//312 144//280 165//322
f 144//279 165//321 161//313
f 161//314 165//322 144//280
f 166//323 153//295 161//313
f 161//314 153//296 166//324
f 153//295 166//323 154//297
f 154//298 166//324 153//296
f 155//299 154//297 166//323
f 166//324 154//298 155//300
f 146//283 157//303 156//301
f 156//302 157//304 146//284
f 157//303 146//283 162//315
f 162//316 146//284 157//304
f 163//317 149//289 164//319
f 164//320 149//290 163//318
f 162//315 158//307 157//303
f 157//304 158//308 162//316
f 158//307 162//315 151//305
f 151//306 162//316 158//308
f 167//325 160//311 159//309
f 159//310 160//312 167//326
f 159//5 163//5 168//5
f 168//2 163//2 159//2
f 160//311 167//325 165//321
f 165//322 167//326 160//312
f 169//327 161//313 165//321
f 165//322 161//314 169//328
f 161//313 169//327 166//323
f 166//324 169//328 161//314
f 169//327 155//299 166//323
f 166//324 155//300 169//328
f 164//319 168//329 163//317
f 163//318 168//330 164//320
f 159//5 168//5 167//5
f 167//2 168//2 159//2
f 168//329 165//321 167//325
f 167//326 165//322 168//330
f 165//321 168//329 169//327
f 169//328 168//330 165//322
f 155//299 169//327 164//319
f 164//320 169//328 155//300
f 168//329 164//319 169//327
f 169//328 164//320 168//330
