# SSTK version 0.8.0
# 20
mtllib original-20.mtl
o mesh50/mesh50-geometry#mesh50-geometry
v -0.016049 -0.399490 0.335393
v -0.017738 -0.404751 0.336304
v -0.018375 -0.404752 0.336301
v -0.016001 -0.402536 0.335926
v -0.017764 -0.403851 0.341454
v -0.016075 -0.398589 0.340542
v -0.009068 -0.387473 0.333327
v -0.018401 -0.403851 0.341451
v -0.009094 -0.386572 0.338477
v -0.013722 -0.401796 0.335808
v -0.016027 -0.401635 0.341075
v -0.008776 -0.386886 0.338533
v -0.009993 -0.391006 0.333940
v -0.013747 -0.400895 0.340957
v -0.008750 -0.387786 0.333384
v -0.010019 -0.390106 0.339090
v -0.012383 -0.401794 0.335814
v -0.012409 -0.400894 0.340964
v -0.010407 -0.394005 0.334462
v -0.010433 -0.393105 0.339612
v -0.010407 -0.394319 0.334517
v -0.003802 -0.402896 0.341357
v -0.010433 -0.393419 0.339667
v -0.009498 -0.398028 0.335170
v -0.003776 -0.403796 0.336207
v -0.005890 -0.401363 0.341079
v -0.007984 -0.400676 0.335641
v -0.009524 -0.397127 0.340320
v -0.005864 -0.402263 0.335929
v 0.000151 -0.402515 0.341310
v -0.008010 -0.399775 0.340790
v -0.003164 -0.401890 0.341184
v -0.003138 -0.402791 0.336035
v 0.000177 -0.403416 0.336161
v 0.004363 -0.400781 0.341028
v -0.000486 -0.401440 0.341119
v -0.000461 -0.402341 0.335970
v 0.004389 -0.401681 0.335879
v 0.001681 -0.400096 0.340895
v 0.001707 -0.400996 0.335746
v 0.007371 -0.398411 0.340629
v 0.003339 -0.397857 0.340512
v 0.003364 -0.398758 0.335363
v 0.007397 -0.399311 0.335480
v 0.004486 -0.394724 0.339970
v 0.004512 -0.395624 0.334821
v 0.009202 -0.396307 0.334964
v 0.007801 -0.386871 0.338614
v 0.007827 -0.387771 0.333464
v 0.009176 -0.395407 0.340113
v 0.002238 -0.391539 0.339402
v 0.002264 -0.392439 0.334252
v 0.009803 -0.392668 0.334330
v 0.009309 -0.390046 0.333870
v 0.001058 -0.381884 0.337708
v 0.009283 -0.389146 0.339019
v 0.001084 -0.382785 0.332559
v 0.009777 -0.391767 0.339480
v -0.001189 -0.378715 0.337143
v -0.004478 -0.387154 0.333295
v -0.001163 -0.379615 0.331993
v 0.009803 -0.392354 0.334275
v 0.009777 -0.391453 0.339425
v -0.003979 -0.375012 0.336482
v -0.004504 -0.386254 0.338444
v -0.003953 -0.375912 0.331332
v -0.001189 -0.377396 0.336912
v -0.001163 -0.378296 0.331763
v -0.006465 -0.383697 0.337987
v -0.006308 -0.378803 0.331826
v -0.006334 -0.377903 0.336975
v -0.000815 -0.375865 0.336647
v -0.006439 -0.384597 0.332838
v -0.000789 -0.376765 0.331497
v -0.000054 -0.372999 0.336149
v -0.007118 -0.381672 0.337630
v -0.007092 -0.382572 0.332480
v -0.000028 -0.373899 0.331000
v 0.000309 -0.374600 0.336431
v 0.000335 -0.375500 0.331282
v 0.005441 -0.371863 0.335978
v 0.005467 -0.372764 0.330829
v 0.004803 -0.372869 0.336151
v 0.004829 -0.373769 0.331001
v 0.007704 -0.373377 0.336254
v 0.005785 -0.372763 0.330830
v 0.007730 -0.374277 0.331105
v 0.005759 -0.371863 0.335980
v 0.014749 -0.372860 0.336199
v 0.014775 -0.373760 0.331050
v 0.009776 -0.374466 0.336455
v 0.009802 -0.375366 0.331306
v 0.011019 -0.376137 0.336754
v 0.015094 -0.373760 0.331051
v 0.011045 -0.377037 0.331604
v 0.011434 -0.378389 0.337149
v 0.015068 -0.372859 0.336201
v 0.016433 -0.375328 0.331332
v 0.011460 -0.379290 0.332000
v 0.011753 -0.382973 0.337952
v 0.016407 -0.374428 0.336482
v 0.016432 -0.372754 0.330882
v 0.011779 -0.383874 0.332803
v 0.011460 -0.382241 0.332516
v 0.011434 -0.381341 0.337665
v 0.016406 -0.371853 0.336032
v 0.017070 -0.372753 0.330885
v 0.011116 -0.382974 0.337949
v 0.016725 -0.373172 0.336264
v 0.011142 -0.383874 0.332800
v 0.016751 -0.374072 0.331114
v 0.019722 -0.374425 0.336498
v 0.017044 -0.371853 0.336035
v 0.017070 -0.373067 0.330940
v 0.019748 -0.375325 0.331349
v 0.019339 -0.373169 0.336277
v 0.017044 -0.372167 0.336090
v 0.019365 -0.374070 0.331127
v 0.021023 -0.376643 0.331585
v 0.023264 -0.372777 0.336228
v 0.023290 -0.373678 0.331078
v 0.020997 -0.375743 0.336735
v 0.021023 -0.377648 0.331761
v 0.028966 -0.374103 0.336488
v 0.026585 -0.372509 0.330891
v 0.020997 -0.376748 0.336911
v 0.028992 -0.375003 0.331339
v 0.026559 -0.371609 0.336040
v 0.011780 -0.396874 0.335076
v 0.018729 -0.395925 0.334945
v 0.018703 -0.395025 0.340094
v 0.029225 -0.369663 0.335713
v 0.029251 -0.370563 0.330564
v 0.011754 -0.395973 0.340225
v 0.011780 -0.398883 0.335427
v 0.017391 -0.403400 0.336245
v 0.017365 -0.402499 0.341394
v 0.029986 -0.372846 0.336274
v 0.030012 -0.373746 0.331124
v 0.012105 -0.399631 0.340866
v 0.012131 -0.400531 0.335717
v 0.013183 -0.401834 0.335950
v 0.018729 -0.396867 0.335109
v 0.018703 -0.395967 0.340259
v 0.013157 -0.400933 0.341099
v 0.037892 -0.374094 0.336532
v 0.031261 -0.366941 0.335248
v 0.031287 -0.367841 0.330098
v 0.037918 -0.374995 0.331382
v 0.011754 -0.397983 0.340576
v 0.020754 -0.402828 0.336162
v 0.020728 -0.401927 0.341311
v 0.038274 -0.372838 0.336314
v 0.034257 -0.363987 0.334746
v 0.034283 -0.364887 0.329597
v 0.038300 -0.373738 0.331165
v 0.019558 -0.399064 0.335498
v 0.019532 -0.398164 0.340647
v 0.038912 -0.373466 0.336427
v 0.034257 -0.363359 0.334637
v 0.034283 -0.364259 0.329487
v 0.038938 -0.374366 0.331277
v 0.022045 -0.400130 0.335696
v 0.023676 -0.400217 0.341027
v 0.022019 -0.399230 0.340846
v 0.023702 -0.401117 0.335877
v 0.024674 -0.398494 0.335424
v 0.026236 -0.398269 0.335392
v 0.024648 -0.397594 0.340573
v 0.026210 -0.397369 0.340542
v 0.027973 -0.393593 0.334584
v 0.028356 -0.394284 0.334706
v 0.027947 -0.392693 0.339733
v 0.028330 -0.393383 0.339856
v 0.028356 -0.393969 0.334651
v 0.028330 -0.393069 0.339801
vn 0.004956782137566308 -0.17220719348988778 -0.9850482794366869
vn -0.004956782137566308 0.17220719348988778 0.9850482794366869
vn 0.4407229806777979 -0.8838538932566128 0.15673400932026696
vn 0.0000679384876181586 -0.9850603205582014 0.17220964039836847
vn -0.4407229806777979 0.8838538932566128 -0.15673400932026696
vn -0.0000679384876181586 0.9850603205582014 -0.17220964039836847
vn -0.9167338552294984 0.3927221331563417 -0.07326912586617791
vn -0.8936141693304553 0.4413461856889928 -0.08165329601196399
vn 0.8936141693304553 -0.4413461856889928 0.08165329601196399
vn 0.9167338552294984 -0.3927221331563417 0.07326912586617791
vn 0.5771009386918036 -0.8039744892122811 0.1434556630352776
vn -0.5771009386918036 0.8039744892122811 -0.1434556630352776
vn -0.8678412480974705 0.4886598216535591 -0.08979502660023138
vn 0.8678412480974705 -0.4886598216535591 0.08979502660023138
vn 0.9778129462139115 0.20712981549612614 -0.031290282021911
vn 0.7070406052395365 0.6972030417037228 -0.11832793914197501
vn -0.7070406052395365 -0.6972030417037228 0.11832793914197501
vn -0.9778129462139115 -0.20712981549612614 0.031290282021911
vn 0.15816899489865158 -0.9725251743123539 0.17081380032502008
vn -0.15816899489865158 0.9725251743123539 -0.17081380032502008
vn -0.11603598696703646 -0.978505193677113 0.17047942889246612
vn 0.11603598696703646 0.978505193677113 -0.17047942889246612
vn 0.9690556887824946 -0.24228122934017654 0.04723217068585674
vn -0.9690556887824946 0.24228122934017654 -0.04723217068585674
vn 0.9977050546491782 -0.06566849014496552 0.016500706941243205
vn -0.9977050546491782 0.06566849014496552 -0.016500706941243205
vn -0.06801055812654914 -0.9828375721481728 0.17147848482302522
vn 0.06801055812654914 0.9828375721481728 -0.17147848482302522
vn 0.9929815853373763 0.11724885620200087 -0.01550086772388445
vn -0.9929815853373763 -0.11724885620200087 0.01550086772388445
vn 0.9305619134143166 0.36143038006485045 -0.05850303982583817
vn -0.9305619134143166 -0.36143038006485045 0.05850303982583817
vn 0.2434546681708357 -0.9552136007260702 0.16821653168985592
vn -0.2434546681708357 0.9552136007260702 -0.16821653168985592
vn 0.7540935802105858 0.6475883631758538 -0.1094174765035239
vn -0.7540935802105858 -0.6475883631758538 0.1094174765035239
vn 0.41021392376482435 0.8987124876551807 -0.1550496735956044
vn -0.41021392376482435 -0.8987124876551807 0.1550496735956044
vn 0.013341545695871582 0.9849840944878738 -0.17212883768952864
vn -0.013341545695871582 -0.9849840944878738 0.17212883768952864
vn 0.5095362110626518 -0.8471558312904826 0.15066468440363892
vn -0.5095362110626518 0.8471558312904826 -0.15066468440363892
vn -0.3566647116644266 0.9199692777437333 -0.16262475660552209
vn 0.3566647116644266 -0.9199692777437333 0.16262475660552209
vn 0.7546294363783307 -0.6456938977641943 0.11667820765423746
vn -0.7546294363783307 0.6456938977641943 -0.11667820765423746
vn -0.6822453243738787 0.7196105427746163 -0.12923615630930443
vn 0.6822453243738787 -0.7196105427746163 0.12923615630930443
vn -0.8830966566086633 0.4614076316584653 -0.08510753511838179
vn 0.8830966566086633 -0.4614076316584653 0.08510753511838179
vn 0.9400473696921403 -0.3351150390790382 0.06331550614141228
vn -0.9400473696921403 0.3351150390790382 -0.06331550614141228
vn -0.9914933217087194 -0.1289679843733047 0.017557107213227067
vn 0.9914933217087194 0.1289679843733047 -0.017557107213227067
vn -0.7298644672531993 -0.6739928708131437 0.11415546213064215
vn 0.7298644672531993 0.6739928708131437 -0.11415546213064215
vn 0.9967356256670726 -0.0785286746495798 0.018744059961756897
vn -0.9967356256670726 0.0785286746495798 -0.018744059961756897
vn 0.7328325147975865 0.6708600242391147 -0.11359283926964588
vn 0.925223225229287 0.374517266140451 -0.060817767625905815
vn -0.925223225229287 -0.374517266140451 0.060817767625905815
vn -0.7328325147975865 -0.6708600242391147 0.11359283926964588
vn 0.7193897287551297 0.6848345703732973 -0.11610352872864027
vn -0.7193897287551297 -0.6848345703732973 0.11610352872864027
vn -0.7162712099748322 -0.6879993344201784 0.1166724886105601
vn 0.7162712099748322 0.6879993344201784 -0.1166724886105601
vn 0.9945856238018413 0.10310154363633112 -0.013019547861116166
vn -0.9945856238018413 -0.10310154363633112 0.013019547861116166
vn 0.9539032645516851 0.29640822737971595 -0.0470183434337349
vn -0.9539032645516851 -0.29640822737971595 0.0470183434337349
vn 0.9930111825196329 -0.11530831949625242 0.02515517533054622
vn -0.9930111825196329 0.11530831949625242 -0.02515517533054622
vn -0.8882895104237482 -0.4531598871116887 0.07475200588652654
vn 0.8882895104237482 0.4531598871116887 -0.07475200588652654
vn -0.9049864089612462 0.4182887518733146 -0.07767959610922935
vn -0.634098404638292 0.7611526965440463 -0.13625632381251096
vn 0.634098404638292 -0.7611526965440463 0.13625632381251096
vn 0.9049864089612462 -0.4182887518733146 0.07767959610922935
vn 0.8879817671628486 -0.452229503045073 0.08352758683184008
vn -0.8879817671628486 0.452229503045073 -0.08352758683184008
vn -0.9985974741206973 -0.0527771846651643 0.00420160190671507
vn 0.9985974741206973 0.0527771846651643 -0.00420160190671507
vn -0.3360107750917181 0.9274988653819979 -0.16383715615625546
vn 0.3360107750917181 -0.9274988653819979 0.16383715615625546
vn 0.574316445920856 -0.8059081937457866 0.1437797037075835
vn -0.574316445920856 0.8059081937457866 -0.1437797037075835
vn -0.10282559653607465 0.9797510678819581 -0.1717985497062274
vn 0.10282559653607465 -0.9797510678819581 0.1717985497062274
vn 0.09751288907528685 -0.9802824871976118 0.17186471935174774
vn -0.09751288907528685 0.9802824871976118 -0.17186471935174774
vn 0.056395945215508114 0.98354074155845 -0.17165985860970437
vn -0.056395945215508114 -0.98354074155845 0.17165985860970437
vn -0.3275898542585755 -0.930983038596053 0.16110701174469502
vn 0.3275898542585755 0.930983038596053 -0.16110701174469502
vn -0.6554018177676078 -0.7445493598256803 0.12686492048665332
vn 0.6554018177676078 0.7445493598256803 -0.12686492048665332
vn -0.3198716655692693 0.9330318204858714 -0.16472322097009362
vn 0.3198716655692693 -0.9330318204858714 0.16472322097009362
vn -0.9187887943067073 -0.38961048373070634 0.0634887582454735
vn 0.9187887943067073 0.38961048373070634 -0.0634887582454735
vn -0.9959682918705547 -0.0890820539367537 0.010561688068619896
vn 0.9959682918705547 0.0890820539367537 -0.010561688068619896
vn -0.9954854492603847 0.09252009744182826 -0.02118376454279701
vn 0.9954854492603847 -0.09252009744182826 0.02118376454279701
vn 0.5133939566811958 -0.844890605929713 0.15028808753507047
vn -0.5133939566811958 0.844890605929713 -0.15028808753507047
vn -0.9820063324076906 0.18512661139645756 -0.037305507154588025
vn 0.9820063324076906 -0.18512661139645756 0.037305507154588025
vn -0.39384287911227206 -0.9057797593443806 0.156367561004808
vn 0.39384287911227206 0.9057797593443806 -0.156367561004808
vn 0.9885520172672364 -0.14770410640225365 0.030796202830691687
vn 0.9999877127721133 0.0009205283597822368 0.004871029905088158
vn -0.9999877127721133 -0.0009205283597822368 -0.004871029905088158
vn -0.9885520172672364 0.14770410640225365 -0.030796202830691687
vn 0.95448624586627 -0.29294738918981666 0.05601636920565934
vn -0.95448624586627 0.29294738918981666 -0.05601636920565934
vn -0.9284365591561979 -0.3667055017418829 0.05943593706196351
vn 0.9284365591561979 0.3667055017418829 -0.05943593706196351
vn -0.05013090182671558 0.9837789980347322 -0.17223755603183166
vn 0.05013090182671558 -0.9837789980347322 0.17223755603183166
vn -0.2207048865257479 0.9605804154562098 -0.1690402866349678
vn 0.2207048865257479 -0.9605804154562098 0.1690402866349678
vn -0.9756240457750234 0.2152848930886523 -0.04254569441650867
vn 0.9756240457750234 -0.2152848930886523 0.04254569441650867
vn -0.4714622843486898 0.8683056837459011 -0.15417053548352982
vn 0.4714622843486898 -0.8683056837459011 0.15417053548352982
vn -0.707716908995404 0.695328646603552 -0.12511934276707093
vn 0.707716908995404 -0.695328646603552 0.12511934276707093
vn 0.5314168732831805 -0.8339972784773645 0.14847439604954665
vn 0.9747571462706837 -0.21904868047195686 0.04319932149614539
vn -0.9747571462706837 0.21904868047195686 -0.04319932149614539
vn -0.5314168732831805 0.8339972784773645 -0.14847439604954665
vn -0.9946530474760394 -0.10246320633897354 0.01290761377499791
vn 0.9946530474760394 0.10246320633897354 -0.01290761377499791
vn 0.9842071293766742 0.17514997375896005 -0.02566735624021478
vn -0.9842071293766742 -0.17514997375896005 0.02566735624021478
vn 0.2757380078161339 -0.9466360451616889 0.16687944464860452
vn -0.2757380078161339 0.9466360451616889 -0.16687944464860452
vn -0.7885086359805734 0.6051501472385791 -0.1097607866279291
vn 0.7885086359805734 -0.6051501472385791 0.1097607866279291
vn -0.9050621824172558 -0.4196750107546269 0.06881374358525931
vn 0.9050621824172558 0.4196750107546269 -0.06881374358525931
vn -0.09575466929005072 -0.9806156194886069 0.17095043177520475
vn -0.5895116351780394 -0.7961902692127344 0.1362244001662984
vn 0.09575466929005072 0.9806156194886069 -0.17095043177520475
vn 0.5895116351780394 0.7961902692127344 -0.1362244001662984
vn 0.3436865745492571 -0.9247599534341231 0.16339696141335225
vn -0.3436865745492571 0.9247599534341231 -0.16339696141335225
vn 0.7263649481039627 0.6776518266748629 -0.114812734355335
vn -0.7263649481039627 -0.6776518266748629 0.114812734355335
vn 0.5300400359645647 -0.8348477703949341 0.14861615168376005
vn -0.5300400359645647 0.8348477703949341 -0.14861615168376005
vn 0.38260670078147785 0.9104331100946997 -0.15723760542696202
vn -0.38260670078147785 -0.9104331100946997 0.15723760542696202
vn 0.9032291494534679 -0.42195311843297295 0.07831136202528148
vn 0.975505632446727 -0.21580305713224412 0.04263568455048861
vn -0.975505632446727 0.21580305713224412 -0.04263568455048861
vn -0.9032291494534679 0.42195311843297295 -0.07831136202528148
vn -0.7715644112203435 0.6259774077409036 -0.11331656690962531
vn 0.7715644112203435 -0.6259774077409036 0.11331656690962531
vn 0.6373912395489554 -0.7584782887447404 0.13580535059082277
vn -0.6373912395489554 0.7584782887447404 -0.13580535059082277
vn -0.07566184091154618 0.9821720838063336 -0.17208510575119704
vn 0.07566184091154618 -0.9821720838063336 0.17208510575119704
vn 0.824546035444805 -0.5566237242451475 0.10145868636896621
vn -0.824546035444805 0.5566237242451475 -0.10145868636896621
vn -0.6988244410033153 0.7040022297092379 -0.12659092076774436
vn 0.6988244410033153 -0.7040022297092379 0.12659092076774436
vn 0.9710105931024916 -0.23458873651601475 0.04589719798165598
vn -0.9710105931024916 0.23458873651601475 -0.04589719798165598
vn -0.8333013715774913 0.5438335554147349 -0.09926675239998593
vn 0.8333013715774913 -0.5438335554147349 0.09926675239998593
vn 0.9238387871132236 0.37782479014447135 -0.061402959028486845
vn -0.9238387871132236 -0.37782479014447135 0.061402959028486845
usemtl material_0_0
f 1//1 2//1 3//1
f 2//1 1//1 4//1
f 3//2 2//2 1//2
f 4//2 1//2 2//2
f 5//3 3//4 2//3
f 2//5 3//6 5//5
f 3//7 6//8 1//8
f 1//9 6//9 3//10
f 4//1 1//1 7//1
f 7//2 1//2 4//2
f 4//11 5//3 2//3
f 2//5 5//5 4//12
f 3//4 5//3 8//4
f 8//6 5//5 3//6
f 6//8 3//7 8//7
f 8//10 3//10 6//9
f 9//13 1//8 6//8
f 6//9 1//9 9//14
f 1//8 9//13 7//13
f 7//14 9//14 1//9
f 4//1 7//1 10//1
f 10//2 7//2 4//2
f 5//3 4//11 11//11
f 11//12 4//12 5//5
f 5//2 6//2 8//2
f 8//1 6//1 5//1
f 6//2 11//2 9//2
f 9//1 11//1 6//1
f 12//15 7//16 9//16
f 9//17 7//17 12//18
f 10//1 7//1 13//1
f 13//2 7//2 10//2
f 14//19 4//11 10//19
f 10//20 4//12 14//20
f 4//11 14//19 11//11
f 11//12 14//20 4//12
f 6//2 5//2 11//2
f 11//1 5//1 6//1
f 9//2 11//2 14//2
f 14//1 11//1 9//1
f 7//16 12//15 15//15
f 15//18 12//18 7//17
f 9//2 16//2 12//2
f 12//1 16//1 9//1
f 13//1 7//1 15//1
f 15//2 7//2 13//2
f 10//1 13//1 17//1
f 17//2 13//2 10//2
f 10//19 18//21 14//19
f 14//20 18//22 10//20
f 9//2 14//2 16//2
f 16//1 14//1 9//1
f 16//23 15//15 12//15
f 12//18 15//18 16//24
f 15//15 16//23 13//23
f 13//24 16//24 15//18
f 17//1 13//1 19//1
f 19//2 13//2 17//2
f 18//21 10//19 17//21
f 17//22 10//20 18//22
f 16//2 14//2 18//2
f 18//1 14//1 16//1
f 20//25 13//23 16//23
f 16//24 13//24 20//26
f 13//23 20//25 19//25
f 19//26 20//26 13//24
f 21//1 17//1 19//1
f 19//2 17//2 21//2
f 17//21 22//27 18//21
f 18//22 22//28 17//22
f 16//2 18//2 20//2
f 20//1 18//1 16//1
f 23//29 19//25 20//25
f 20//26 19//26 23//30
f 24//1 17//1 21//1
f 21//2 17//2 24//2
f 19//25 23//29 21//29
f 21//30 23//30 19//26
f 22//27 17//21 25//27
f 25//28 17//22 22//28
f 26//2 18//2 22//2
f 22//1 18//1 26//1
f 20//2 18//2 23//2
f 23//1 18//1 20//1
f 27//1 17//1 24//1
f 24//2 17//2 27//2
f 21//29 28//31 24//31
f 24//32 28//32 21//30
f 28//31 21//29 23//29
f 23//30 21//30 28//32
f 17//1 29//1 25//1
f 25//2 29//2 17//2
f 25//27 30//33 22//27
f 22//28 30//34 25//28
f 31//2 18//2 26//2
f 26//1 18//1 31//1
f 26//2 22//2 32//2
f 32//1 22//1 26//1
f 18//2 28//2 23//2
f 23//1 28//1 18//1
f 29//1 17//1 27//1
f 27//2 17//2 29//2
f 24//31 31//35 27//35
f 27//36 31//36 24//32
f 31//35 24//31 28//31
f 28//32 24//32 31//36
f 25//1 29//1 33//1
f 33//2 29//2 25//2
f 30//33 25//27 34//33
f 34//34 25//28 30//34
f 32//2 22//2 30//2
f 30//1 22//1 32//1
f 28//2 18//2 31//2
f 31//1 18//1 28//1
f 29//37 31//35 26//37
f 26//38 31//36 29//38
f 33//39 26//37 32//39
f 32//40 26//38 33//40
f 31//35 29//37 27//35
f 27//36 29//38 31//36
f 26//37 33//39 29//37
f 29//38 33//40 26//38
f 25//1 33//1 34//1
f 34//2 33//2 25//2
f 34//33 35//41 30//33
f 30//34 35//42 34//34
f 32//2 30//2 36//2
f 36//1 30//1 32//1
f 32//39 37//43 33//39
f 33//40 37//44 32//40
f 34//1 33//1 37//1
f 37//2 33//2 34//2
f 35//41 34//33 38//41
f 38//42 34//34 35//42
f 39//2 30//2 35//2
f 35//1 30//1 39//1
f 36//2 30//2 39//2
f 39//1 30//1 36//1
f 37//43 32//39 36//43
f 36//44 32//40 37//44
f 34//1 37//1 40//1
f 40//2 37//2 34//2
f 34//1 40//1 38//1
f 38//2 40//2 34//2
f 38//41 41//45 35//41
f 35//42 41//46 38//42
f 39//2 35//2 42//2
f 42//1 35//1 39//1
f 40//47 36//43 39//47
f 39//48 36//44 40//48
f 36//43 40//47 37//43
f 37//44 40//48 36//44
f 38//1 40//1 43//1
f 43//2 40//2 38//2
f 41//45 38//41 44//45
f 44//46 38//42 41//46
f 45//2 35//2 41//2
f 41//1 35//1 45//1
f 42//2 35//2 45//2
f 45//1 35//1 42//1
f 42//49 40//47 39//47
f 39//48 40//48 42//50
f 40//47 42//49 43//49
f 43//50 42//50 40//48
f 38//1 43//1 46//1
f 46//2 43//2 38//2
f 38//1 46//1 44//1
f 44//2 46//2 38//2
f 47//51 41//45 44//45
f 44//46 41//46 47//52
f 48//2 45//2 41//2
f 41//1 45//1 48//1
f 45//53 43//49 42//49
f 42//50 43//50 45//54
f 43//49 45//53 46//53
f 46//54 45//54 43//50
f 46//1 49//1 44//1
f 44//2 49//2 46//2
f 41//45 47//51 50//51
f 50//52 47//52 41//46
f 44//1 49//1 47//1
f 47//2 49//2 44//2
f 48//2 51//2 45//2
f 45//1 51//1 48//1
f 48//2 41//2 50//2
f 50//1 41//1 48//1
f 51//55 46//53 45//53
f 45//54 46//54 51//56
f 52//1 49//1 46//1
f 46//2 49//2 52//2
f 53//57 50//51 47//51
f 47//52 50//52 53//58
f 47//1 49//1 54//1
f 54//2 49//2 47//2
f 55//2 51//2 48//2
f 48//1 51//1 55//1
f 48//2 50//2 56//2
f 56//1 50//1 48//1
f 46//53 51//55 52//55
f 52//56 51//56 46//54
f 52//1 57//1 49//1
f 49//2 57//2 52//2
f 50//51 53//57 58//57
f 58//58 53//58 50//52
f 47//1 54//1 53//1
f 53//2 54//2 47//2
f 49//59 56//60 54//60
f 54//61 56//61 49//62
f 59//2 51//2 55//2
f 55//1 51//1 59//1
f 49//59 55//63 48//59
f 48//62 55//64 49//62
f 56//2 50//2 58//2
f 58//1 50//1 56//1
f 56//60 49//59 48//59
f 48//62 49//62 56//61
f 51//55 60//65 52//55
f 52//56 60//66 51//56
f 52//1 61//1 57//1
f 57//2 61//2 52//2
f 55//63 49//59 57//63
f 57//64 49//62 55//64
f 62//67 58//57 53//57
f 53//58 58//58 62//68
f 53//1 54//1 62//1
f 62//2 54//2 53//2
f 63//67 54//60 56//60
f 56//61 54//61 63//68
f 64//2 51//2 59//2
f 59//1 51//1 64//1
f 55//63 61//69 59//69
f 59//70 61//70 55//64
f 56//2 58//2 63//2
f 63//1 58//1 56//1
f 60//65 51//55 65//65
f 65//66 51//56 60//66
f 60//1 66//1 52//1
f 52//2 66//2 60//2
f 52//1 66//1 61//1
f 61//2 66//2 52//2
f 61//69 55//63 57//63
f 57//64 55//64 61//70
f 58//57 62//67 63//67
f 63//68 62//68 58//58
f 54//60 63//67 62//67
f 62//68 63//68 54//61
f 64//2 65//2 51//2
f 51//1 65//1 64//1
f 67//2 64//2 59//2
f 59//1 64//1 67//1
f 68//71 59//69 61//69
f 61//70 59//70 68//72
f 69//73 60//65 65//65
f 65//66 60//66 69//74
f 60//1 70//1 66//1
f 66//2 70//2 60//2
f 61//1 66//1 68//1
f 68//2 66//2 61//2
f 71//2 65//2 64//2
f 64//1 65//1 71//1
f 72//2 64//2 67//2
f 67//1 64//1 72//1
f 59//69 68//71 67//71
f 67//72 68//72 59//70
f 60//65 69//73 73//73
f 73//74 69//74 60//66
f 71//2 69//2 65//2
f 65//1 69//1 71//1
f 73//1 70//1 60//1
f 60//2 70//2 73//2
f 70//75 64//76 66//76
f 66//77 64//77 70//78
f 66//1 74//1 68//1
f 68//2 74//2 66//2
f 64//76 70//75 71//75
f 71//78 70//78 64//77
f 64//2 72//2 75//2
f 75//1 72//1 64//1
f 67//71 74//79 72//79
f 72//80 74//80 67//72
f 74//79 67//71 68//71
f 68//72 67//72 74//80
f 76//81 73//73 69//73
f 69//74 73//74 76//82
f 69//2 71//2 76//2
f 76//1 71//1 69//1
f 70//1 73//1 77//1
f 77//2 73//2 70//2
f 64//76 78//83 66//76
f 66//77 78//84 64//77
f 74//1 66//1 78//1
f 78//2 66//2 74//2
f 77//81 71//75 70//75
f 70//78 71//78 77//82
f 75//2 72//2 79//2
f 79//1 72//1 75//1
f 78//83 64//76 75//83
f 75//84 64//77 78//84
f 80//85 72//79 74//79
f 74//80 72//80 80//86
f 73//73 76//81 77//81
f 77//82 76//82 73//74
f 71//75 77//81 76//81
f 76//82 77//82 71//78
f 74//1 78//1 80//1
f 80//2 78//2 74//2
f 72//79 80//85 79//85
f 79//86 80//86 72//80
f 75//2 79//2 81//2
f 81//1 79//1 75//1
f 75//83 82//87 78//83
f 78//84 82//88 75//84
f 80//1 78//1 82//1
f 82//2 78//2 80//2
f 80//85 83//89 79//85
f 79//86 83//90 80//86
f 81//2 79//2 83//2
f 83//1 79//1 81//1
f 82//87 75//83 81//87
f 81//88 75//84 82//88
f 80//1 82//1 84//1
f 84//2 82//2 80//2
f 83//89 80//85 84//89
f 84//90 80//86 83//90
f 81//2 83//2 85//2
f 85//1 83//1 81//1
f 81//87 86//91 82//87
f 82//88 86//92 81//88
f 84//1 82//1 87//1
f 87//2 82//2 84//2
f 84//89 85//93 83//89
f 83//90 85//94 84//90
f 81//2 85//2 88//2
f 88//1 85//1 81//1
f 86//91 81//87 88//91
f 88//92 81//88 86//92
f 87//1 82//1 86//1
f 86//2 82//2 87//2
f 85//93 84//89 87//93
f 87//94 84//90 85//94
f 88//2 85//2 89//2
f 89//1 85//1 88//1
f 88//91 90//91 86//91
f 86//92 90//92 88//92
f 87//1 86//1 90//1
f 90//2 86//2 87//2
f 87//93 91//95 85//93
f 85//94 91//96 87//94
f 89//2 85//2 91//2
f 91//1 85//1 89//1
f 90//91 88//91 89//91
f 89//92 88//92 90//92
f 87//1 90//1 92//1
f 92//2 90//2 87//2
f 91//95 87//93 92//95
f 92//96 87//94 91//96
f 89//2 91//2 93//2
f 93//1 91//1 89//1
f 89//91 94//97 90//91
f 90//92 94//98 89//92
f 92//1 90//1 95//1
f 95//2 90//2 92//2
f 95//99 91//95 92//95
f 92//96 91//96 95//100
f 91//95 95//99 93//99
f 93//100 95//100 91//96
f 89//2 93//2 96//2
f 96//1 93//1 89//1
f 94//97 89//91 97//97
f 97//98 89//92 94//98
f 98//1 90//1 94//1
f 94//2 90//2 98//2
f 95//1 90//1 99//1
f 99//2 90//2 95//2
f 99//101 93//99 95//99
f 95//100 93//100 99//102
f 93//99 99//101 96//101
f 96//102 99//102 93//100
f 89//2 96//2 100//2
f 100//1 96//1 89//1
f 89//2 101//2 97//2
f 97//1 101//1 89//1
f 97//97 102//97 94//97
f 94//98 102//98 97//98
f 103//1 90//1 98//1
f 98//2 90//2 103//2
f 98//1 94//1 102//1
f 102//2 94//2 98//2
f 99//1 90//1 104//1
f 104//2 90//2 99//2
f 104//103 96//101 99//101
f 99//102 96//102 104//104
f 105//2 100//2 96//2
f 96//1 100//1 105//1
f 89//2 100//2 101//2
f 101//1 100//1 89//1
f 97//2 101//2 106//2
f 106//1 101//1 97//1
f 102//97 97//97 106//97
f 106//98 97//98 102//98
f 104//1 90//1 103//1
f 103//2 90//2 104//2
f 98//105 100//105 103//105
f 103//106 100//106 98//106
f 98//1 102//1 107//1
f 107//2 102//2 98//2
f 96//101 104//103 105//103
f 105//104 104//104 96//102
f 100//2 105//2 108//2
f 108//1 105//1 100//1
f 100//105 98//105 101//105
f 101//106 98//106 100//106
f 106//2 101//2 109//2
f 109//1 101//1 106//1
f 106//97 107//6 102//97
f 102//98 107//4 106//98
f 103//1 110//1 104//1
f 104//2 110//2 103//2
f 100//105 110//4 103//105
f 103//106 110//6 100//106
f 98//1 107//1 111//1
f 111//2 107//2 98//2
f 110//107 105//103 104//103
f 104//104 105//104 110//108
f 105//103 110//107 108//107
f 108//108 110//108 105//104
f 110//4 100//105 108//4
f 108//6 100//106 110//6
f 98//105 112//109 101//105
f 101//106 112//110 98//106
f 109//2 101//2 112//2
f 112//1 101//1 109//1
f 109//2 113//2 106//2
f 106//1 113//1 109//1
f 107//6 106//97 113//6
f 113//4 106//98 107//4
f 111//1 107//1 114//1
f 114//2 107//2 111//2
f 111//1 115//1 98//1
f 98//2 115//2 111//2
f 112//109 98//105 115//109
f 115//110 98//106 112//110
f 109//2 112//2 116//2
f 116//1 112//1 109//1
f 113//2 109//2 117//2
f 117//1 109//1 113//1
f 117//111 107//112 113//112
f 113//113 107//113 117//114
f 107//112 117//111 114//111
f 114//114 117//114 107//113
f 114//111 109//115 111//115
f 111//116 109//116 114//114
f 115//1 111//1 118//1
f 118//2 111//2 115//2
f 119//117 112//109 115//109
f 115//110 112//110 119//118
f 116//2 112//2 120//2
f 120//1 112//1 116//1
f 118//119 109//6 116//119
f 116//120 109//4 118//120
f 109//115 114//111 117//111
f 117//114 114//114 109//116
f 109//6 118//119 111//6
f 111//4 118//120 109//4
f 115//1 118//1 121//1
f 121//2 118//2 115//2
f 112//109 119//117 122//117
f 122//118 119//118 112//110
f 115//1 121//1 119//1
f 119//2 121//2 115//2
f 120//2 112//2 122//2
f 122//1 112//1 120//1
f 121//121 116//119 120//121
f 120//122 116//120 121//122
f 116//119 121//121 118//119
f 118//120 121//122 116//120
f 123//123 122//117 119//117
f 119//118 122//118 123//124
f 119//1 121//1 123//1
f 123//2 121//2 119//2
f 122//2 124//2 120//2
f 120//1 124//1 122//1
f 120//121 125//125 121//121
f 121//122 125//126 120//122
f 122//117 123//123 126//123
f 126//124 123//124 122//118
f 127//1 123//1 121//1
f 121//2 123//2 127//2
f 126//2 124//2 122//2
f 122//1 124//1 126//1
f 120//2 124//2 128//2
f 128//1 124//1 120//1
f 125//125 120//121 128//125
f 128//126 120//122 125//126
f 127//1 121//1 125//1
f 125//2 121//2 127//2
f 129//123 126//123 123//123
f 123//124 126//124 129//124
f 130//1 123//1 127//1
f 127//2 123//2 130//2
f 126//2 131//2 124//2
f 124//1 131//1 126//1
f 128//2 124//2 132//2
f 132//1 124//1 128//1
f 128//125 133//127 125//125
f 125//126 133//128 128//126
f 127//1 125//1 133//1
f 133//2 125//2 127//2
f 126//123 129//123 134//123
f 134//124 129//124 126//124
f 123//1 135//1 129//1
f 129//2 135//2 123//2
f 136//1 123//1 130//1
f 130//2 123//2 136//2
f 127//129 131//130 130//130
f 130//131 131//131 127//132
f 126//2 137//2 131//2
f 131//1 137//1 126//1
f 131//130 127//129 124//129
f 124//132 127//132 131//131
f 132//2 124//2 138//2
f 138//1 124//1 132//1
f 133//127 128//125 132//127
f 132//128 128//126 133//128
f 127//1 133//1 139//1
f 139//2 133//2 127//2
f 135//133 134//123 129//123
f 129//124 134//124 135//134
f 134//2 140//2 126//2
f 126//1 140//1 134//1
f 135//1 123//1 141//1
f 141//2 123//2 135//2
f 142//1 123//1 136//1
f 136//2 123//2 142//2
f 143//1 136//1 130//1
f 130//2 136//2 143//2
f 144//135 130//130 131//130
f 131//131 130//131 144//136
f 126//2 145//2 137//2
f 137//1 145//1 126//1
f 131//2 137//2 144//2
f 144//1 137//1 131//1
f 127//129 146//137 124//129
f 124//132 146//138 127//132
f 138//2 124//2 146//2
f 146//1 124//1 138//1
f 138//2 147//2 132//2
f 132//1 147//1 138//1
f 147//139 133//127 132//127
f 132//128 133//128 147//140
f 148//1 139//1 133//1
f 133//2 139//2 148//2
f 127//1 139//1 149//1
f 149//2 139//2 127//2
f 134//123 135//133 150//133
f 150//134 135//134 134//124
f 140//2 134//2 150//2
f 150//1 134//1 140//1
f 126//2 140//2 145//2
f 145//1 140//1 126//1
f 141//1 123//1 142//1
f 142//2 123//2 141//2
f 141//141 150//133 135//133
f 135//134 150//134 141//142
f 137//143 142//144 136//143
f 136//145 142//146 137//145
f 136//1 143//1 151//1
f 151//2 143//2 136//2
f 130//130 144//135 143//135
f 143//136 144//136 130//131
f 142//144 137//143 145//144
f 145//146 137//145 142//146
f 152//2 144//2 137//2
f 137//1 144//1 152//1
f 146//137 127//129 149//137
f 149//138 127//132 146//138
f 138//2 146//2 153//2
f 153//1 146//1 138//1
f 147//2 138//2 154//2
f 154//1 138//1 147//1
f 133//127 147//139 148//139
f 148//140 147//140 133//128
f 139//1 148//1 155//1
f 155//2 148//2 139//2
f 149//1 139//1 156//1
f 156//2 139//2 149//2
f 150//133 141//141 140//141
f 140//142 141//142 150//134
f 140//141 142//144 145//144
f 145//146 142//146 140//142
f 142//144 140//141 141//141
f 141//142 140//142 142//146
f 136//143 152//147 137//143
f 137//145 152//148 136//145
f 151//1 143//1 157//1
f 157//2 143//2 151//2
f 152//147 136//143 151//147
f 151//148 136//145 152//148
f 158//149 143//135 144//135
f 144//136 143//136 158//150
f 144//2 152//2 158//2
f 158//1 152//1 144//1
f 149//137 159//151 146//137
f 146//138 159//152 149//138
f 153//2 146//2 159//2
f 159//1 146//1 153//1
f 156//153 138//6 153//153
f 153//154 138//4 156//154
f 138//155 155//156 154//156
f 154//157 155//157 138//158
f 147//2 154//2 160//2
f 160//1 154//1 147//1
f 160//159 148//139 147//139
f 147//140 148//140 160//160
f 155//1 148//1 161//1
f 161//2 148//2 155//2
f 155//156 138//155 139//155
f 139//158 138//158 155//157
f 138//6 156//153 139//6
f 139//4 156//154 138//4
f 149//1 156//1 162//1
f 162//2 156//2 149//2
f 143//135 158//149 157//149
f 157//150 158//150 143//136
f 151//1 157//1 163//1
f 163//2 157//2 151//2
f 151//147 164//161 152//147
f 152//148 164//162 151//148
f 158//2 152//2 165//2
f 165//1 152//1 158//1
f 159//151 149//137 162//151
f 162//152 149//138 159//152
f 159//16 156//153 153//153
f 153//154 156//154 159//17
f 161//112 154//156 155//156
f 155//157 154//157 161//113
f 154//156 161//112 160//112
f 160//113 161//113 154//157
f 148//139 160//159 161//159
f 161//160 160//160 148//140
f 156//153 159//16 162//16
f 162//17 159//17 156//154
f 158//149 163//163 157//149
f 157//150 163//164 158//150
f 151//1 163//1 166//1
f 166//2 163//2 151//2
f 164//161 151//147 166//161
f 166//162 151//148 164//162
f 165//2 152//2 164//2
f 164//1 152//1 165//1
f 163//163 158//149 165//163
f 165//164 158//150 163//164
f 166//1 163//1 167//1
f 167//2 163//2 166//2
f 168//165 164//161 166//161
f 166//162 164//162 168//166
f 165//2 164//2 169//2
f 169//1 164//1 165//1
f 165//163 167//167 163//163
f 163//164 167//168 165//164
f 166//1 167//1 168//1
f 168//2 167//2 166//2
f 164//161 168//165 170//165
f 170//166 168//166 164//162
f 169//2 164//2 170//2
f 170//1 164//1 169//1
f 167//167 165//163 169//167
f 169//168 165//164 167//168
f 168//1 167//1 171//1
f 171//2 167//2 168//2
f 172//169 170//165 168//165
f 168//166 170//166 172//170
f 169//2 170//2 173//2
f 173//1 170//1 169//1
f 173//171 167//167 169//167
f 169//168 167//168 173//172
f 167//167 173//171 171//171
f 171//172 173//172 167//168
f 168//1 171//1 172//1
f 172//2 171//2 168//2
f 170//165 172//169 174//169
f 174//170 172//170 170//166
f 173//2 170//2 174//2
f 174//1 170//1 173//1
f 173//16 175//173 171//16
f 171//17 175//174 173//17
f 172//1 171//1 175//1
f 175//2 171//2 172//2
f 175//173 174//169 172//169
f 172//170 174//170 175//174
f 173//2 174//2 176//2
f 176//1 174//1 173//1
f 175//173 173//16 176//173
f 176//174 173//17 175//174
f 174//169 175//173 176//173
f 176//174 175//174 174//170
