# SSTK version 0.8.0
# 22
mtllib original-22.mtl
o mesh52/mesh52-geometry#mesh52-geometry
v 0.030778 -0.387314 0.333500
v 0.030014 -0.395601 0.334945
v 0.030013 -0.392649 0.334429
v 0.030532 -0.398517 0.335457
v 0.029988 -0.391749 0.339578
v 0.030752 -0.386414 0.338650
v 0.032086 -0.400733 0.335852
v 0.029988 -0.394701 0.340094
v 0.033047 -0.381588 0.337817
v 0.033073 -0.382488 0.332668
v 0.030506 -0.397616 0.340607
v 0.032060 -0.399833 0.341002
v 0.034676 -0.402250 0.336131
v 0.036872 -0.377271 0.337082
v 0.034650 -0.401349 0.341280
v 0.036898 -0.378171 0.331932
v 0.035305 -0.395596 0.334971
v 0.038276 -0.402166 0.341441
v 0.042253 -0.374363 0.331294
v 0.035279 -0.394696 0.340120
v 0.036198 -0.391293 0.334223
v 0.036963 -0.399739 0.335703
v 0.038302 -0.403066 0.336292
v 0.036937 -0.398839 0.340853
v 0.042227 -0.373462 0.336443
v 0.037600 -0.388058 0.333664
v 0.036172 -0.390393 0.339372
v 0.038914 -0.402166 0.341444
v 0.038388 -0.399874 0.341041
v 0.037574 -0.387157 0.338814
v 0.045138 -0.373183 0.331102
v 0.038301 -0.387115 0.333503
v 0.038414 -0.400774 0.335892
v 0.038940 -0.403066 0.336295
v 0.038275 -0.386215 0.338653
v 0.045112 -0.372282 0.336251
v 0.044214 -0.376794 0.331729
v 0.040915 -0.388745 0.333801
v 0.042659 -0.401511 0.341349
v 0.040253 -0.400218 0.341111
v 0.040279 -0.401118 0.335961
v 0.040889 -0.387845 0.338951
v 0.044188 -0.375894 0.336878
v 0.050222 -0.372409 0.330992
v 0.046823 -0.374213 0.331290
v 0.038620 -0.387115 0.333505
v 0.042685 -0.402411 0.336199
v 0.038594 -0.386214 0.338654
v 0.046797 -0.373313 0.336440
v 0.050196 -0.371508 0.336142
v 0.040596 -0.387427 0.333569
v 0.044204 -0.387465 0.338901
v 0.046118 -0.399553 0.341024
v 0.040890 -0.400217 0.341114
v 0.040916 -0.401117 0.335964
v 0.040570 -0.386527 0.338719
v 0.052956 -0.372834 0.331080
v 0.049202 -0.373351 0.331152
v 0.043832 -0.386851 0.333485
v 0.044230 -0.388366 0.333752
v 0.043806 -0.385951 0.338634
v 0.046144 -0.400453 0.335874
v 0.043560 -0.399641 0.341026
v 0.049176 -0.372451 0.336301
v 0.052930 -0.371934 0.336230
v 0.051035 -0.373758 0.331232
v 0.049727 -0.386020 0.338676
v 0.046818 -0.384229 0.338348
v 0.043586 -0.400542 0.335877
v 0.049315 -0.397192 0.335320
v 0.046213 -0.397920 0.340739
v 0.051009 -0.372858 0.336382
v 0.054972 -0.374115 0.331314
v 0.052199 -0.374982 0.331452
v 0.046844 -0.385129 0.333199
v 0.049753 -0.386920 0.333527
v 0.046239 -0.398820 0.335589
v 0.049289 -0.396292 0.340470
v 0.052173 -0.374081 0.336601
v 0.054946 -0.373215 0.336464
v 0.053698 -0.384918 0.333197
v 0.052199 -0.378247 0.332023
v 0.053672 -0.384018 0.338346
v 0.049607 -0.381361 0.337861
v 0.052200 -0.392629 0.334537
v 0.051499 -0.391939 0.334413
v 0.051473 -0.391038 0.339562
v 0.056245 -0.375353 0.336844
v 0.056064 -0.382361 0.332761
v 0.049633 -0.382261 0.332711
v 0.052173 -0.377347 0.337172
v 0.052174 -0.391728 0.339686
v 0.056038 -0.381461 0.337911
v 0.056271 -0.376253 0.331695
v 0.052200 -0.392315 0.334482
v 0.051881 -0.391938 0.334415
v 0.051855 -0.391038 0.339564
v 0.056827 -0.378348 0.337371
v 0.056853 -0.379248 0.332221
v 0.052174 -0.391414 0.339632
vn 0.004956782137566308 -0.17220719348988778 -0.9850482794366869
vn -0.004956782137566308 0.17220719348988778 0.9850482794366869
vn -0.9962337071045904 -0.08612508748820091 0.01004341245767321
vn -0.9975310813030083 0.06815401318188448 -0.01693435329897222
vn 0.9975310813030083 -0.06815401318188448 0.01693435329897222
vn 0.9962337071045904 0.08612508748820091 -0.01004341245767321
vn -0.9584455697443567 0.2801564420546038 -0.05380016554547757
vn 0.9584455697443567 -0.2801564420546038 0.05380016554547757
vn -0.9253662533496056 -0.37417360660825627 0.060756968978735795
vn 0.9253662533496056 0.37417360660825627 -0.060756968978735795
vn -0.8375045409204768 0.5375364633363131 -0.09818703845961589
vn 0.8375045409204768 -0.5375364633363131 0.09818703845961589
vn -0.6829060880137352 -0.7201679058711776 0.12246412661224135
vn 0.6829060880137352 0.7201679058711776 -0.12246412661224135
vn -0.6733867777912834 0.727663415575332 -0.13059939176395274
vn 0.6733867777912834 -0.727663415575332 0.13059939176395274
vn -0.37213192049155486 -0.9146290480873872 0.1580238530919524
vn 0.37213192049155486 0.9146290480873872 -0.1580238530919524
vn -0.11256614848724168 -0.9788955005578867 0.17056512305355087
vn 0.11256614848724168 0.9788955005578867 -0.17056512305355087
vn -0.4871282391851997 0.8598641198565546 -0.1527736036481416
vn 0.4871282391851997 -0.8598641198565546 0.1527736036481416
vn 0.9545528112499748 -0.2927373760172265 0.055979989436575325
vn 0.9962139539144638 0.08634870641406137 -0.010082605155837683
vn -0.9962139539144638 -0.08634870641406137 0.010082605155837683
vn -0.9545528112499748 0.2927373760172265 -0.055979989436575325
vn 0.7903687258110216 0.6041412867858517 -0.10163947491303464
vn -0.7903687258110216 -0.6041412867858517 0.10163947491303464
vn 0.08735031769607687 -0.9812204848432267 0.171977562845906
vn -0.08735031769607687 0.9812204848432267 -0.171977562845906
vn -0.26931135498511166 0.948434715679855 -0.16716155110956527
vn 0.26931135498511166 -0.948434715679855 0.16716155110956527
vn 0.46120809444038274 -0.8736396005420274 0.1550514172377595
vn -0.46120809444038274 0.8736396005420274 -0.1550514172377595
vn 0.3954826694589791 0.9050873245685924 -0.1562382573599295
vn -0.3954826694589791 -0.9050873245685924 0.1562382573599295
vn 0.3409175974219562 -0.9257560400099788 0.16355716478676083
vn -0.3409175974219562 0.9257560400099788 -0.16355716478676083
vn 0.09272675212348666 0.9808953887123635 -0.1710145778682359
vn -0.09272675212348666 -0.9808953887123635 0.1710145778682359
vn 0.0025129602075808287 0.9850594155299648 -0.1721964950478367
vn -0.0025129602075808287 -0.9850594155299648 0.1721964950478367
vn 0.7967350883432179 -0.5946074604718786 0.10795909852304393
vn 0.8707771972508757 -0.48357036346222987 0.08892005583059553
vn -0.8707771972508757 0.48357036346222987 -0.08892005583059553
vn -0.7967350883432179 0.5946074604718786 -0.10795909852304393
vn -0.046707330648734474 -0.9840251463695862 0.1717932960740445
vn 0.046707330648734474 0.9840251463695862 -0.1717932960740445
vn 0.5390475132567801 -0.8292277711055631 0.14767898319998468
vn -0.5390475132567801 0.8292277711055631 -0.14767898319998468
vn -0.0000679384876181586 0.9850603205582014 -0.17220964039836847
vn 0.0798001931990111 0.9819869457031184 -0.17127045172492875
vn 0.0000679384876181586 -0.9850603205582014 0.17220964039836847
vn -0.0798001931990111 -0.9819869457031184 0.17127045172492875
vn 0.18583763369019726 -0.9677420298536226 0.1701168350258678
vn -0.18583763369019726 0.9677420298536226 -0.1701168350258678
vn 0.6159875857772065 -0.7754554419666578 0.13866561106728698
vn -0.6159875857772065 0.7754554419666578 -0.13866561106728698
vn -0.10713642133269445 0.979299105175393 -0.17174122925697857
vn 0.10713642133269445 -0.979299105175393 0.17174122925697857
vn 0.35748301072390665 0.9202707346004553 -0.15908385236003653
vn -0.35748301072390665 -0.9202707346004553 0.15908385236003653
vn -0.009061580909225776 0.9850122011424938 -0.17224648429458495
vn 0.009061580909225776 -0.9850122011424938 0.17224648429458495
vn 0.06464226733039616 -0.9829448982191235 0.1721647592841878
vn -0.06464226733039616 0.9829448982191235 -0.1721647592841878
vn -0.3443626553704288 0.9245153621658313 -0.16335760375816338
vn 0.3443626553704288 -0.9245153621658313 0.16335760375816338
vn 0.3587497528956634 -0.9191807286268605 0.16249739357384874
vn -0.3587497528956634 0.9191807286268605 -0.16249739357384874
vn 0.7894958473927778 -0.6039004072182427 0.10954727340833434
vn -0.7894958473927778 0.6039004072182427 -0.10954727340833434
vn -0.3877609018415226 0.9076562764653804 -0.16062866119111482
vn 0.3877609018415226 -0.9076562764653804 0.16062866119111482
vn 0.7191897717279414 0.6850383461240475 -0.11614015921093407
vn -0.7191897717279414 -0.6850383461240475 0.11614015921093407
vn -0.4971727080761149 -0.8551101614251247 0.14698949000441847
vn 0.4971727080761149 0.8551101614251247 -0.14698949000441847
vn -0.617677820103559 0.7741491366537339 -0.1384457466677625
vn 0.617677820103559 -0.7741491366537339 0.1384457466677625
vn -0.6841712770726383 0.7178338028426808 -0.12893523616610836
vn 0.6841712770726383 -0.7178338028426808 0.12893523616610836
vn -0.9300465504206752 -0.3627176878532262 0.058730681666502055
vn 0.9300465504206752 0.3627176878532262 -0.058730681666502055
vn 0.6076261747790005 -0.7818334666294698 0.1397385493755586
vn -0.6076261747790005 0.7818334666294698 -0.1397385493755586
vn -0.7879558121996914 0.6058481788631509 -0.10988003544287939
vn 0.7879558121996914 -0.6058481788631509 0.10988003544287939
vn 0.9614454728659058 -0.2700259255634035 0.052044233391244706
vn -0.9614454728659058 0.2700259255634035 -0.052044233391244706
vn -0.4462806954147507 0.881140027093348 -0.15628753486462119
vn 0.4462806954147507 -0.881140027093348 0.15628753486462119
vn 0.9344176995316713 0.35162590122727766 -0.056769607960987484
vn -0.9344176995316713 -0.35162590122727766 0.056769607960987484
vn -0.9607442645038409 0.2724303517136246 -0.05246104924765302
vn 0.9607442645038409 -0.2724303517136246 0.05246104924765302
vn 0.881327942917903 -0.4646738324490664 0.08566963563127059
vn -0.881327942917903 0.4646738324490664 -0.08566963563127059
vn 0.9402341175037536 0.3362125228240123 -0.05404575633896263
vn -0.9402341175037536 -0.3362125228240123 0.05404575633896263
vn 0.4240792021703734 0.8924550074987166 -0.1538859638726197
vn -0.4240792021703734 -0.8924550074987166 0.1538859638726197
vn 0.9996029519144544 -0.0264701711221905 0.00965756515231126
vn -0.9996029519144544 0.0264701711221905 -0.00965756515231126
usemtl material_0_0
f 1//1 2//1 3//1
f 2//1 1//1 4//1
f 3//2 2//2 1//2
f 4//2 1//2 2//2
f 2//3 5//4 3//4
f 3//5 5//5 2//6
f 3//4 6//7 1//7
f 1//8 6//8 3//5
f 4//1 1//1 7//1
f 7//2 1//2 4//2
f 4//9 8//3 2//3
f 2//6 8//6 4//10
f 5//4 2//3 8//3
f 8//6 2//6 5//5
f 6//7 3//4 5//4
f 5//5 3//5 6//8
f 9//11 1//7 6//7
f 6//8 1//8 9//12
f 7//1 1//1 10//1
f 10//2 1//2 7//2
f 7//13 11//9 4//9
f 4//10 11//10 7//14
f 8//3 4//9 11//9
f 11//10 4//10 8//6
f 11//2 5//2 8//2
f 8//1 5//1 11//1
f 5//2 11//2 6//2
f 6//1 11//1 5//1
f 1//7 9//11 10//11
f 10//12 9//12 1//8
f 6//2 12//2 9//2
f 9//1 12//1 6//1
f 7//1 10//1 13//1
f 13//2 10//2 7//2
f 11//9 7//13 12//13
f 12//14 7//14 11//10
f 6//2 11//2 12//2
f 12//1 11//1 6//1
f 14//15 10//11 9//11
f 9//12 10//12 14//16
f 9//2 12//2 15//2
f 15//1 12//1 9//1
f 13//1 10//1 16//1
f 16//2 10//2 13//2
f 15//17 7//13 13//17
f 13//18 7//14 15//18
f 7//13 15//17 12//13
f 12//14 15//18 7//14
f 10//11 14//15 16//15
f 16//16 14//16 10//12
f 9//2 15//2 14//2
f 14//1 15//1 9//1
f 13//1 16//1 17//1
f 17//2 16//2 13//2
f 13//17 18//19 15//17
f 15//18 18//20 13//18
f 14//15 19//21 16//15
f 16//16 19//22 14//16
f 14//2 15//2 20//2
f 20//1 15//1 14//1
f 17//1 16//1 21//1
f 21//2 16//2 17//2
f 22//1 13//1 17//1
f 17//2 13//2 22//2
f 18//19 13//17 23//19
f 23//20 13//18 18//20
f 24//2 15//2 18//2
f 18//1 15//1 24//1
f 19//21 14//15 25//21
f 25//22 14//16 19//22
f 26//1 16//1 19//1
f 19//2 16//2 26//2
f 15//2 24//2 20//2
f 20//1 24//1 15//1
f 14//2 20//2 27//2
f 27//1 20//1 14//1
f 21//1 16//1 26//1
f 26//2 16//2 21//2
f 21//23 20//24 17//24
f 17//25 20//25 21//26
f 13//1 22//1 23//1
f 23//2 22//2 13//2
f 17//24 24//27 22//27
f 22//28 24//28 17//25
f 23//19 28//29 18//19
f 18//20 28//30 23//20
f 24//2 18//2 29//2
f 29//1 18//1 24//1
f 14//2 30//2 25//2
f 25//1 30//1 14//1
f 25//21 31//31 19//21
f 19//22 31//32 25//22
f 26//1 19//1 32//1
f 32//2 19//2 26//2
f 24//27 17//24 20//24
f 20//25 17//25 24//28
f 20//24 21//23 27//23
f 27//26 21//26 20//25
f 14//2 27//2 30//2
f 30//1 27//1 14//1
f 26//33 27//23 21//23
f 21//26 27//26 26//34
f 23//1 22//1 33//1
f 33//2 22//2 23//2
f 24//27 33//35 22//27
f 22//28 33//36 24//28
f 28//29 23//19 34//29
f 34//30 23//20 28//30
f 29//2 18//2 28//2
f 28//1 18//1 29//1
f 33//35 24//27 29//35
f 29//36 24//28 33//36
f 25//2 30//2 35//2
f 35//1 30//1 25//1
f 31//31 25//21 36//31
f 36//32 25//22 31//32
f 37//1 19//1 31//1
f 31//2 19//2 37//2
f 32//1 19//1 37//1
f 37//2 19//2 32//2
f 32//1 38//1 26//1
f 26//2 38//2 32//2
f 27//23 26//33 30//33
f 30//34 26//34 27//26
f 23//1 33//1 34//1
f 34//2 33//2 23//2
f 34//29 39//37 28//29
f 28//30 39//38 34//30
f 29//2 28//2 40//2
f 40//1 28//1 29//1
f 29//35 41//39 33//35
f 33//36 41//40 29//36
f 42//2 35//2 30//2
f 30//1 35//1 42//1
f 25//2 35//2 43//2
f 43//1 35//1 25//1
f 25//2 43//2 36//2
f 36//1 43//1 25//1
f 36//31 44//41 31//31
f 31//32 44//42 36//32
f 37//1 31//1 45//1
f 45//2 31//2 37//2
f 37//43 35//44 32//44
f 32//45 35//45 37//46
f 38//1 32//1 46//1
f 46//2 32//2 38//2
f 42//47 26//33 38//47
f 38//48 26//34 42//48
f 26//33 42//47 30//33
f 30//34 42//48 26//34
f 34//1 33//1 41//1
f 41//2 33//2 34//2
f 39//37 34//29 47//37
f 47//38 34//30 39//38
f 40//2 28//2 39//2
f 39//1 28//1 40//1
f 41//39 29//35 40//39
f 40//40 29//36 41//40
f 35//2 42//2 48//2
f 48//1 42//1 35//1
f 35//44 37//43 43//43
f 43//46 37//46 35//45
f 36//2 43//2 49//2
f 49//1 43//1 36//1
f 44//41 36//31 50//41
f 50//42 36//32 44//42
f 45//1 31//1 44//1
f 44//2 31//2 45//2
f 45//49 43//43 37//43
f 37//46 43//46 45//50
f 35//51 46//52 32//51
f 32//53 46//54 35//53
f 38//1 46//1 51//1
f 51//2 46//2 38//2
f 38//47 52//55 42//47
f 42//48 52//56 38//48
f 34//1 41//1 47//1
f 47//2 41//2 34//2
f 47//37 53//57 39//37
f 39//38 53//58 47//38
f 40//2 39//2 54//2
f 54//1 39//1 40//1
f 40//39 55//59 41//39
f 41//40 55//60 40//40
f 48//2 42//2 56//2
f 56//1 42//1 48//1
f 46//52 35//51 48//52
f 48//54 35//53 46//54
f 43//43 45//49 49//49
f 49//50 45//50 43//46
f 36//2 49//2 50//2
f 50//1 49//1 36//1
f 50//41 57//61 44//41
f 44//42 57//62 50//42
f 45//1 44//1 58//1
f 58//2 44//2 45//2
f 48//52 51//63 46//52
f 46//54 51//64 48//54
f 38//1 51//1 59//1
f 59//2 51//2 38//2
f 52//55 38//47 60//55
f 60//56 38//48 52//56
f 61//2 42//2 52//2
f 52//1 42//1 61//1
f 47//1 41//1 55//1
f 55//2 41//2 47//2
f 53//57 47//37 62//57
f 62//58 47//38 53//58
f 63//2 39//2 53//2
f 53//1 39//1 63//1
f 54//2 39//2 63//2
f 63//1 39//1 54//1
f 55//59 40//39 54//59
f 54//60 40//40 55//60
f 56//2 42//2 61//2
f 61//1 42//1 56//1
f 51//63 48//52 56//63
f 56//64 48//54 51//64
f 45//49 64//65 49//49
f 49//50 64//66 45//50
f 50//2 49//2 64//2
f 64//1 49//1 50//1
f 57//61 50//41 65//61
f 65//62 50//42 57//62
f 66//1 44//1 57//1
f 57//2 44//2 66//2
f 58//1 44//1 66//1
f 66//2 44//2 58//2
f 64//65 45//49 58//65
f 58//66 45//50 64//66
f 56//63 59//67 51//63
f 51//64 59//68 56//64
f 38//1 59//1 60//1
f 60//2 59//2 38//2
f 60//55 67//69 52//55
f 52//56 67//70 60//56
f 61//2 52//2 68//2
f 68//1 52//1 61//1
f 47//1 55//1 69//1
f 69//2 55//2 47//2
f 47//1 69//1 62//1
f 62//2 69//2 47//2
f 70//71 53//57 62//57
f 62//58 53//58 70//72
f 63//2 53//2 71//2
f 71//1 53//1 63//1
f 69//73 54//59 63//73
f 63//74 54//60 69//74
f 54//59 69//73 55//59
f 55//60 69//74 54//60
f 59//67 56//63 61//67
f 61//68 56//64 59//68
f 50//2 64//2 72//2
f 72//1 64//1 50//1
f 50//2 72//2 65//2
f 65//1 72//1 50//1
f 65//61 73//75 57//61
f 57//62 73//76 65//62
f 66//1 57//1 74//1
f 74//2 57//2 66//2
f 72//77 58//65 66//77
f 66//78 58//66 72//78
f 58//65 72//77 64//65
f 64//66 72//78 58//66
f 60//1 59//1 75//1
f 75//2 59//2 60//2
f 67//69 60//55 76//69
f 76//70 60//56 67//70
f 68//2 52//2 67//2
f 67//1 52//1 68//1
f 75//79 61//67 68//79
f 68//80 61//68 75//80
f 62//1 69//1 77//1
f 77//2 69//2 62//2
f 53//57 70//71 78//71
f 78//72 70//72 53//58
f 62//1 77//1 70//1
f 70//2 77//2 62//2
f 71//2 53//2 78//2
f 78//1 53//1 71//1
f 77//81 63//73 71//81
f 71//82 63//74 77//82
f 63//73 77//81 69//73
f 69//74 77//82 63//74
f 61//67 75//79 59//67
f 59//68 75//80 61//68
f 65//2 72//2 79//2
f 79//1 72//1 65//1
f 73//75 65//61 80//75
f 80//76 65//62 73//76
f 81//1 57//1 73//1
f 73//2 57//2 81//2
f 74//1 57//1 82//1
f 82//2 57//2 74//2
f 74//83 72//77 66//77
f 66//78 72//78 74//84
f 60//1 75//1 76//1
f 76//2 75//2 60//2
f 76//69 83//85 67//69
f 67//70 83//86 76//70
f 68//2 67//2 84//2
f 84//1 67//1 68//1
f 84//87 75//79 68//79
f 68//80 75//80 84//88
f 85//89 78//71 70//71
f 70//72 78//72 85//90
f 70//1 77//1 86//1
f 86//2 77//2 70//2
f 71//2 78//2 87//2
f 87//1 78//1 71//1
f 87//91 77//81 71//81
f 71//82 77//82 87//92
f 72//77 74//83 79//83
f 79//84 74//84 72//78
f 79//2 83//2 65//2
f 65//1 83//1 79//1
f 65//2 83//2 80//2
f 80//1 83//1 65//1
f 88//93 73//75 80//75
f 80//76 73//76 88//94
f 81//1 82//1 57//1
f 57//2 82//2 81//2
f 81//1 73//1 89//1
f 89//2 73//2 81//2
f 82//95 79//83 74//83
f 74//84 79//84 82//96
f 76//1 75//1 90//1
f 90//2 75//2 76//2
f 83//85 76//69 81//85
f 81//86 76//70 83//86
f 91//2 67//2 83//2
f 83//1 67//1 91//1
f 84//2 67//2 91//2
f 91//1 67//1 84//1
f 75//79 84//87 90//87
f 90//88 84//88 75//80
f 78//71 85//89 92//89
f 92//90 85//90 78//72
f 70//1 86//1 85//1
f 85//2 86//2 70//2
f 77//81 87//91 86//91
f 86//92 87//92 77//82
f 87//2 78//2 92//2
f 92//1 78//1 87//1
f 91//2 83//2 79//2
f 79//1 83//1 91//1
f 80//2 83//2 93//2
f 93//1 83//1 80//1
f 73//75 88//93 94//93
f 94//94 88//94 73//76
f 80//2 93//2 88//2
f 88//1 93//1 80//1
f 76//1 82//1 81//1
f 81//2 82//2 76//2
f 89//1 73//1 94//1
f 94//2 73//2 89//2
f 89//97 83//85 81//85
f 81//86 83//86 89//98
f 79//83 82//95 91//95
f 91//96 82//96 79//84
f 76//1 90//1 82//1
f 82//2 90//2 76//2
f 91//95 90//87 84//87
f 84//88 90//88 91//96
f 95//99 92//89 85//89
f 85//90 92//90 95//100
f 85//1 86//1 96//1
f 96//2 86//2 85//2
f 87//91 96//101 86//91
f 86//92 96//102 87//92
f 87//2 92//2 97//2
f 97//1 92//1 87//1
f 83//85 89//97 93//97
f 93//98 89//98 83//86
f 98//103 94//93 88//93
f 88//94 94//94 98//104
f 88//2 93//2 98//2
f 98//1 93//1 88//1
f 89//1 94//1 99//1
f 99//2 94//2 89//2
f 90//87 91//95 82//95
f 82//96 91//96 90//88
f 92//89 95//99 100//99
f 100//100 95//100 92//90
f 85//1 96//1 95//1
f 95//2 96//2 85//2
f 96//101 87//91 97//101
f 97//102 87//92 96//102
f 97//2 92//2 100//2
f 100//1 92//1 97//1
f 99//103 93//97 89//97
f 89//98 93//98 99//104
f 94//93 98//103 99//103
f 99//104 98//104 94//94
f 93//97 99//103 98//103
f 98//104 99//104 93//98
f 96//101 100//99 95//99
f 95//100 100//100 96//102
f 100//99 96//101 97//101
f 97//102 96//102 100//100
