# SSTK version 0.8.0
# 23
mtllib original-23.mtl
o mesh53/mesh53-geometry#mesh53-geometry
v 0.057172 -0.373344 0.331191
v 0.057172 -0.374663 0.331421
v 0.056470 -0.374036 0.331308
v 0.063101 -0.373339 0.331219
v 0.057146 -0.373763 0.336571
v 0.057146 -0.372444 0.336340
v 0.059786 -0.374661 0.331434
v 0.056444 -0.373135 0.336457
v 0.059760 -0.373760 0.336583
v 0.063075 -0.372438 0.336369
v 0.062033 -0.375224 0.331544
v 0.067356 -0.374151 0.331383
v 0.062782 -0.376919 0.331844
v 0.062007 -0.374323 0.336693
v 0.067330 -0.373251 0.336532
v 0.064935 -0.386725 0.333569
v 0.062782 -0.377296 0.331910
v 0.062756 -0.376018 0.336993
v 0.064909 -0.385825 0.338719
v 0.068420 -0.375171 0.331566
v 0.068074 -0.382739 0.332888
v 0.068048 -0.381838 0.338037
v 0.068394 -0.374270 0.336716
v 0.062464 -0.392305 0.334532
v 0.062756 -0.376395 0.337059
v 0.068749 -0.375699 0.336968
v 0.068775 -0.377604 0.331994
v 0.056855 -0.402735 0.336327
v 0.062439 -0.391405 0.339682
v 0.051181 -0.402427 0.336245
v 0.071857 -0.379445 0.337638
v 0.068749 -0.376704 0.337143
v 0.068775 -0.376599 0.331818
v 0.071883 -0.380345 0.332488
v 0.051181 -0.402741 0.336300
v 0.056829 -0.401835 0.341477
v 0.051155 -0.401526 0.341394
v 0.070935 -0.375596 0.331654
v 0.076336 -0.378644 0.337521
v 0.070909 -0.374696 0.336803
v 0.073525 -0.374161 0.331416
v 0.051155 -0.401840 0.341449
v 0.076362 -0.379544 0.332371
v 0.073499 -0.373261 0.336565
v 0.077994 -0.378642 0.337529
v 0.079970 -0.372109 0.336396
v 0.079996 -0.373009 0.331247
v 0.078020 -0.379542 0.332379
v 0.079390 -0.377987 0.332114
v 0.079364 -0.377086 0.337264
v 0.081334 -0.373008 0.331253
v 0.081309 -0.372422 0.336458
v 0.081309 -0.372108 0.336403
v 0.081334 -0.373322 0.331308
vn 0.004956782137566308 -0.17220719348988778 -0.9850482794366869
vn -0.004956782137566308 0.17220719348988778 0.9850482794366869
vn -0.3605207242038249 -0.9191223150325454 0.15886779858978334
vn -0.6726045659557778 -0.7295134903995343 0.12414976915213508
vn 0.3605207242038249 0.9191223150325454 -0.15886779858978334
vn 0.6726045659557778 0.7295134903995343 -0.12414976915213508
vn -0.7071366860537849 0.6959012354057386 -0.12521652366056946
vn -0.3827322352591354 0.9097285852425732 -0.16096564007915584
vn 0.3827322352591354 -0.9097285852425732 0.16096564007915584
vn 0.7071366860537849 -0.6959012354057386 0.12521652366056946
vn 0.09595463676858962 0.9805968209171385 -0.17094613914859125
vn -0.09595463676858962 -0.9805968209171385 0.17094613914859125
vn -0.1245917823961614 -0.9774910399876666 0.1702590805307535
vn 0.1245917823961614 0.9774910399876666 -0.1702590805307535
vn 0.46368234948344267 0.8731578558945301 -0.15031313138638758
vn -0.46368234948344267 -0.8731578558945301 0.15031313138638758
vn -0.6480822503732102 -0.7507393164632938 0.1279838875305089
vn 0.6480822503732102 0.7507393164632938 -0.1279838875305089
vn -0.9789866396975133 -0.2016566365551037 0.030327548978681396
vn 0.9789866396975133 0.2016566365551037 -0.030327548978681396
vn 0.8681460910613551 0.4896167602733736 -0.08122679751347567
vn -0.8681460910613551 -0.4896167602733736 0.08122679751347567
vn -0.977296045491939 0.20782418506630249 -0.04124981899772445
vn 0.977296045491939 -0.20782418506630249 0.04124981899772445
vn 0.6735233222886807 -0.7275407577820284 0.13057863569194547
vn 0.8598863183038269 -0.5021075721929683 0.092105947367003
vn -0.8598863183038269 0.5021075721929683 -0.092105947367003
vn -0.6735233222886807 0.7275407577820284 -0.13057863569194547
vn 0.9927998938836535 0.11874299509332892 -0.01576298895743266
vn -0.9927998938836535 -0.11874299509332892 0.01576298895743266
vn 0.9007075338903571 -0.42714437151498963 0.07920621362125341
vn -0.9007075338903571 0.42714437151498963 -0.07920621362125341
vn 0.3644062606061551 -0.9170149147633702 0.16214722733543072
vn -0.3644062606061551 0.9170149147633702 -0.16214722733543072
vn 0.5156107927924722 -0.8435784207489087 0.15006984508119947
vn -0.5156107927924722 0.8435784207489087 -0.15006984508119947
vn 0.9999877127721133 0.0009205283597822368 0.004871029905088158
vn -0.9999877127721133 -0.0009205283597822368 -0.004871029905088158
vn 0.0000679384876181586 -0.9850603205582014 0.17220964039836847
vn -0.0000679384876181586 0.9850603205582014 -0.17220964039836847
vn 0.08928519328034262 -0.9810498376692596 0.17195746645613058
vn -0.08928519328034262 0.9810498376692596 -0.17195746645613058
vn -0.6860238703282632 0.7161158515736987 -0.12864422437368303
vn -0.5922584698551738 0.7931996429996461 -0.14164826589140403
vn 0.6860238703282632 -0.7161158515736987 0.12864422437368303
vn 0.5922584698551738 -0.7931996429996461 0.14164826589140403
vn -0.3380416929901712 0.9267809678539812 -0.16372187216122594
vn 0.3380416929901712 -0.9267809678539812 0.16372187216122594
vn 0.41489664503391116 -0.8959190066940262 0.15871328672796714
vn -0.41489664503391116 0.8959190066940262 -0.15871328672796714
vn -0.0888982628269461 0.9810842616728866 -0.17196153745567153
vn 0.0888982628269461 -0.9810842616728866 0.17196153745567153
vn 0.8512332697278263 -0.5162040403418253 0.09452676469259247
vn -0.8512332697278263 0.5162040403418253 -0.09452676469259247
vn 0.9810710000159123 -0.1898577263036341 0.03812789911065446
vn -0.9810710000159123 0.1898577263036341 -0.03812789911065446
usemtl material_0_0
f 1//1 2//1 3//1
f 2//1 1//1 4//1
f 3//2 2//2 1//2
f 4//2 1//2 2//2
f 5//3 3//4 2//3
f 2//5 3//6 5//5
f 3//7 6//8 1//8
f 1//9 6//9 3//10
f 6//8 4//11 1//8
f 1//9 4//12 6//9
f 2//1 4//1 7//1
f 7//2 4//2 2//2
f 3//4 5//3 8//4
f 8//6 5//5 3//6
f 2//3 9//13 5//3
f 5//5 9//14 2//5
f 6//8 3//7 8//7
f 8//10 3//10 6//9
f 4//11 6//8 10//11
f 10//12 6//9 4//12
f 7//1 4//1 11//1
f 11//2 4//2 7//2
f 9//13 2//3 7//13
f 7//14 2//5 9//14
f 5//2 6//2 8//2
f 8//1 6//1 5//1
f 6//2 5//2 9//2
f 9//1 5//1 6//1
f 6//2 9//2 10//2
f 10//1 9//1 6//1
f 10//11 12//15 4//11
f 4//12 12//16 10//12
f 11//1 4//1 13//1
f 13//2 4//2 11//2
f 14//17 7//13 11//17
f 11//18 7//14 14//18
f 7//13 14//17 9//13
f 9//14 14//18 7//14
f 10//2 9//2 14//2
f 14//1 9//1 10//1
f 12//15 10//11 15//15
f 15//16 10//12 12//16
f 16//1 4//1 12//1
f 12//2 4//2 16//2
f 13//1 4//1 17//1
f 17//2 4//2 13//2
f 13//19 14//17 11//17
f 11//18 14//18 13//20
f 10//2 14//2 18//2
f 18//1 14//1 10//1
f 10//2 19//2 15//2
f 15//1 19//1 10//1
f 15//15 20//21 12//15
f 12//16 20//22 15//16
f 16//1 17//1 4//1
f 4//2 17//2 16//2
f 16//1 12//1 21//1
f 21//2 12//2 16//2
f 17//23 18//19 13//19
f 13//20 18//20 17//24
f 14//17 13//19 18//19
f 18//20 13//20 14//18
f 18//2 19//2 10//2
f 10//1 19//1 18//1
f 15//2 19//2 22//2
f 22//1 19//1 15//1
f 20//21 15//15 23//21
f 23//22 15//16 20//22
f 21//1 12//1 20//1
f 20//2 12//2 21//2
f 24//1 17//1 16//1
f 16//2 17//2 24//2
f 21//25 19//26 16//26
f 16//27 19//27 21//28
f 18//19 17//23 25//23
f 25//24 17//24 18//20
f 25//2 19//2 18//2
f 18//1 19//1 25//1
f 19//26 21//25 22//25
f 22//28 21//28 19//27
f 15//2 22//2 23//2
f 23//1 22//1 15//1
f 26//29 20//21 23//21
f 23//22 20//22 26//30
f 21//1 20//1 27//1
f 27//2 20//2 21//2
f 28//1 17//1 24//1
f 24//2 17//2 28//2
f 16//26 29//31 24//31
f 24//32 29//32 16//27
f 29//31 16//26 19//26
f 19//27 16//27 29//32
f 30//23 25//23 17//23
f 17//24 25//24 30//24
f 25//2 29//2 19//2
f 19//1 29//1 25//1
f 21//25 31//33 22//25
f 22//28 31//34 21//28
f 23//2 22//2 32//2
f 32//1 22//1 23//1
f 20//21 26//29 33//29
f 33//30 26//30 20//22
f 26//2 23//2 32//2
f 32//1 23//1 26//1
f 27//1 20//1 33//1
f 33//2 20//2 27//2
f 21//1 27//1 34//1
f 34//2 27//2 21//2
f 35//1 17//1 28//1
f 28//2 17//2 35//2
f 24//31 36//35 28//35
f 28//36 36//36 24//32
f 36//35 24//31 29//31
f 29//32 24//32 36//36
f 25//23 30//23 37//23
f 37//24 30//24 25//24
f 17//1 35//1 30//1
f 30//2 35//2 17//2
f 25//2 36//2 29//2
f 29//1 36//1 25//1
f 31//33 21//25 34//33
f 34//34 21//28 31//34
f 32//2 22//2 31//2
f 31//1 22//1 32//1
f 32//37 33//29 26//29
f 26//30 33//30 32//38
f 33//29 32//37 27//37
f 27//38 32//38 33//30
f 34//1 27//1 38//1
f 38//2 27//2 34//2
f 36//35 35//39 28//35
f 28//36 35//40 36//36
f 35//38 37//23 30//23
f 30//24 37//24 35//37
f 37//2 36//2 25//2
f 25//1 36//1 37//1
f 34//33 39//41 31//33
f 31//34 39//42 34//34
f 32//2 31//2 40//2
f 40//1 31//1 32//1
f 32//43 38//44 27//43
f 27//45 38//46 32//45
f 34//1 38//1 41//1
f 41//2 38//2 34//2
f 35//39 36//35 42//39
f 42//40 36//36 35//40
f 37//23 35//38 42//38
f 42//37 35//37 37//24
f 36//2 37//2 42//2
f 42//1 37//1 36//1
f 39//41 34//33 43//41
f 43//42 34//34 39//42
f 44//2 31//2 39//2
f 39//1 31//1 44//1
f 40//2 31//2 44//2
f 44//1 31//1 40//1
f 38//44 32//43 40//44
f 40//46 32//45 38//46
f 40//44 41//47 38//44
f 38//46 41//48 40//46
f 34//1 41//1 43//1
f 43//2 41//2 34//2
f 43//41 45//49 39//41
f 39//42 45//50 43//42
f 44//2 39//2 46//2
f 46//1 39//1 44//1
f 41//47 40//44 44//47
f 44//48 40//46 41//48
f 43//1 41//1 47//1
f 47//2 41//2 43//2
f 45//49 43//41 48//49
f 48//50 43//42 45//50
f 46//2 39//2 45//2
f 45//1 39//1 46//1
f 47//51 44//47 46//51
f 46//52 44//48 47//52
f 44//47 47//51 41//47
f 41//48 47//52 44//48
f 43//1 47//1 48//1
f 48//2 47//2 43//2
f 49//53 45//49 48//49
f 48//50 45//50 49//54
f 46//2 45//2 50//2
f 50//1 45//1 46//1
f 46//51 51//40 47//51
f 47//52 51//39 46//52
f 48//1 47//1 49//1
f 49//2 47//2 48//2
f 45//49 49//53 50//53
f 50//54 49//54 45//50
f 46//2 50//2 52//2
f 52//1 50//1 46//1
f 51//40 46//51 53//40
f 53//39 46//52 51//39
f 54//1 47//1 51//1
f 51//2 47//2 54//2
f 49//1 47//1 54//1
f 54//2 47//2 49//2
f 54//55 50//53 49//53
f 49//54 50//54 54//56
f 50//53 54//55 52//55
f 52//56 54//56 50//54
f 46//2 52//2 53//2
f 53//1 52//1 46//1
f 52//55 51//37 53//37
f 53//38 51//38 52//56
f 51//37 52//55 54//55
f 54//56 52//56 51//38
