# SSTK version 0.8.0
# 37
mtllib original-37.mtl
o mesh78/mesh78-geometry#mesh78-geometry
v 0.226770 -0.001882 -0.009758
v 0.227559 0.000371 -0.010390
v 0.226941 -0.001892 -0.010689
v 0.227417 0.000490 -0.009449
v 0.228576 -0.000475 -0.011820
v 0.228182 -0.001963 -0.012015
v 0.227440 -0.001920 -0.011483
vn -0.9749775897704657 0.2184659080787408 -0.04112598269591737
vn -0.8442403738377406 0.36323016084180165 -0.3941091745153251
vn -0.905355741993568 0.25791592649964556 -0.33735790386043285
vn -0.9253729766037954 0.3655139907587099 -0.10042099746105587
vn -0.3760691633342065 0.24119010475358865 -0.8946503885641939
vn -0.3839609257317892 0.20844395968141852 -0.8995138260102058
vn -0.7044518147119381 0.253651933283336 -0.6628788256466512
vn 0.905355741993568 -0.25791592649964556 0.33735790386043285
vn 0.8442403738377406 -0.36323016084180165 0.3941091745153251
vn 0.9749775897704657 -0.2184659080787408 0.04112598269591737
vn 0.9253729766037954 -0.3655139907587099 0.10042099746105587
vn 0.7044518147119381 -0.253651933283336 0.6628788256466512
vn 0.3839609257317892 -0.20844395968141852 0.8995138260102058
vn 0.3760691633342065 -0.24119010475358865 0.8946503885641939
usemtl material_0_0
f 1//1 2//2 3//3
f 2//2 1//1 4//4
f 5//5 6//6 7//7
usemtl material_1_0
f 3//8 2//9 1//10
f 4//11 1//10 2//9
f 7//12 6//13 5//14
