# SSTK version 0.8.0
# 16
mtllib original-16.mtl
o mesh46/mesh46-geometry#mesh46-geometry
v 0.075870 -0.507248 0.358400
v 0.077179 -0.508437 0.358651
v 0.075871 -0.516169 0.360280
v 0.080360 -0.507248 0.358401
v 0.077179 -0.516169 0.360280
v 0.075870 -0.507199 0.358632
v 0.080360 -0.508436 0.358652
v 0.077179 -0.512266 0.359458
v 0.075870 -0.516120 0.360512
v 0.080359 -0.507199 0.358634
v 0.080360 -0.508387 0.358884
v 0.077179 -0.511102 0.359212
v 0.077179 -0.512217 0.359690
v 0.077179 -0.516120 0.360513
v 0.077179 -0.508388 0.358883
v 0.080360 -0.512266 0.359459
v 0.080360 -0.512217 0.359691
v 0.080360 -0.511102 0.359213
v 0.077179 -0.511053 0.359445
v 0.080360 -0.511053 0.359446
vn 0.00029638367210211707 -0.20618307822432388 -0.9785133879567827
vn -0.00029638367210211707 0.20618307822432388 0.9785133879567827
vn -0.9999999530953365 -0.00013668984759395168 -0.0002740897855484951
vn 0.9999999530953365 0.00013668984759395168 0.0002740897855484951
vn -0.00007724017017422036 0.9785134232956787 -0.206183109066015
vn 0.00007724017017422036 -0.9785134232956787 0.206183109066015
usemtl material_0_0
f 1//1 2//1 3//1
f 2//1 1//1 4//1
f 3//2 2//2 1//2
f 4//2 1//2 2//2
f 2//1 5//1 3//1
f 3//2 5//2 2//2
f 3//3 6//3 1//3
f 1//4 6//4 3//4
f 6//5 4//5 1//5
f 1//6 4//6 6//6
f 2//1 4//1 7//1
f 7//2 4//2 2//2
f 5//1 2//1 8//1
f 8//2 2//2 5//2
f 5//6 9//6 3//6
f 3//5 9//5 5//5
f 6//3 3//3 9//3
f 9//4 3//4 6//4
f 4//5 6//5 10//5
f 10//6 6//6 4//6
f 4//4 11//4 7//4
f 7//3 11//3 4//3
f 11//6 2//6 7//6
f 7//5 2//5 11//5
f 12//1 8//1 2//1
f 2//2 8//2 12//2
f 13//4 5//4 8//4
f 8//3 5//3 13//3
f 9//6 5//6 14//6
f 14//5 5//5 9//5
f 14//2 6//2 9//2
f 9//1 6//1 14//1
f 6//2 15//2 10//2
f 10//1 15//1 6//1
f 11//4 4//4 10//4
f 10//3 4//3 11//3
f 2//6 11//6 15//6
f 15//5 11//5 2//5
f 8//1 12//1 16//1
f 16//2 12//2 8//2
f 15//4 12//4 2//4
f 2//3 12//3 15//3
f 5//4 13//4 14//4
f 14//3 13//3 5//3
f 8//6 17//6 13//6
f 13//5 17//5 8//5
f 6//2 14//2 15//2
f 15//1 14//1 6//1
f 10//2 15//2 11//2
f 11//1 15//1 10//1
f 16//1 12//1 18//1
f 18//2 12//2 16//2
f 17//6 8//6 16//6
f 16//5 8//5 17//5
f 12//4 15//4 19//4
f 19//3 15//3 12//3
f 19//2 14//2 13//2
f 13//1 14//1 19//1
f 20//2 13//2 17//2
f 17//1 13//1 20//1
f 14//2 19//2 15//2
f 15//1 19//1 14//1
f 12//5 20//5 18//5
f 18//6 20//6 12//6
f 18//4 17//4 16//4
f 16//3 17//3 18//3
f 20//5 12//5 19//5
f 19//6 12//6 20//6
f 19//2 13//2 20//2
f 20//1 13//1 19//1
f 17//4 18//4 20//4
f 20//3 18//3 17//3
