# SSTK version 0.8.0
# 2
mtllib original-2.mtl
o Componente_2_1/Componente_2/mesh2/mesh2-geometry#mesh2-geometry
v -0.326713 0.914671 -0.055016
v -0.225361 0.196914 -0.086040
v -0.243838 0.196884 -0.061956
v -0.310009 0.914671 -0.076786
v -0.224932 0.196914 -0.086600
v -0.324761 0.818666 -0.033897
v -0.217530 0.160764 -0.080303
v -0.244108 0.196884 -0.061305
v -0.330407 0.862193 -0.031978
v -0.081188 0.914671 -0.321879
v -0.234781 0.160764 -0.057821
v -0.219050 0.196908 -0.092899
v -0.255726 0.196884 -0.033257
v -0.326079 0.816585 -0.030156
v -0.331355 0.863064 -0.029923
v -0.337214 0.914671 -0.029665
v -0.165712 -0.012144 -0.014434
v -0.234815 0.161461 -0.054023
v -0.216444 0.160017 -0.084261
v -0.197371 0.196908 -0.114578
v -0.156587 -0.012144 -0.059357
v -0.192431 0.160017 -0.108275
v -0.245704 0.161461 -0.027737
v -0.328522 0.811001 -0.006807
v -0.335213 0.867513 -0.004437
v -0.331980 0.864538 -0.026442
v -0.170849 0.196908 -0.141100
v -0.162903 -0.012144 0.031302
v -0.244647 0.161836 -0.024177
v -0.255815 0.196866 -0.032559
v -0.333815 0.867035 -0.014648
v -0.075148 0.196908 -0.236801
v -0.166414 0.159625 -0.136086
v -0.190376 0.159625 -0.112124
v -0.136148 -0.012144 -0.100403
v -0.259778 0.196866 -0.002457
v -0.333120 0.849838 -0.002459
v -0.129568 0.196908 -0.182381
v -0.051063 0.196908 -0.255282
v -0.163462 0.159557 -0.139402
v -0.148352 -0.012144 0.074737
v -0.328990 0.810582 -0.002897
v -0.329050 0.810607 -0.002460
v -0.335212 0.867504 -0.000482
v -0.340796 0.914671 -0.002460
v -0.074279 0.159785 -0.227436
v -0.126179 0.159557 -0.176685
v -0.054652 0.914671 -0.342241
v -0.050381 0.196908 -0.255805
v -0.105787 -0.012144 -0.134774
v -0.248369 0.161836 0.004093
v -0.328520 0.810985 0.001888
v -0.122550 0.159785 -0.179165
v -0.070285 0.160397 -0.229027
v -0.247688 0.161184 0.004819
v -0.333593 0.866486 0.010939
v -0.067574 -0.012144 -0.160127
v -0.024115 -0.012144 -0.174733
v -0.022332 0.196862 -0.267418
v -0.047851 0.160397 -0.246241
v -0.144885 -0.012144 0.079968
v -0.255816 0.196866 0.027640
v -0.332363 0.864472 0.018557
v -0.023751 0.914671 -0.355041
v -0.021540 0.196846 -0.267744
v -0.045839 0.160797 -0.246536
v -0.243980 0.161184 0.032983
v -0.255724 0.196866 0.028338
v -0.331261 0.862237 0.025008
v -0.337214 0.914671 0.024746
v -0.331695 0.863378 0.022692
v -0.001245 -0.012144 -0.176165
v -0.019653 0.160797 -0.257383
v -0.243278 0.160512 0.033646
v 0.008561 0.196846 -0.271707
v -0.017607 0.160885 -0.257553
v -0.141418 -0.012144 0.085199
v -0.330278 0.861194 0.027103
v 0.009411 0.914671 -0.359407
v 0.009411 0.196846 -0.271819
v 0.010509 0.160885 -0.261255
v 0.021626 -0.012144 -0.177597
v -0.232449 0.160512 0.059789
v -0.244108 0.196884 0.056386
v -0.231796 0.159899 0.060377
v -0.243842 0.196914 0.057036
v -0.326713 0.914671 0.050097
v 0.039511 0.196846 -0.267856
v 0.012537 0.160827 -0.260818
v -0.137950 -0.012144 0.090430
v 0.042572 0.914671 -0.355041
v 0.044080 -0.012144 -0.173062
v -0.214631 0.159899 0.082747
v -0.225361 0.196914 0.081121
v 0.040361 0.196846 -0.267744
v 0.040644 0.160827 -0.257118
v -0.213696 0.159608 0.083975
v -0.224932 0.196914 0.081680
v -0.310009 0.914671 0.071866
v 0.068410 0.196862 -0.256128
v 0.042723 0.160433 -0.256507
v -0.129608 -0.012144 0.103017
v 0.073474 0.914671 -0.342241
v 0.066533 -0.012144 -0.168527
v -0.165800 0.159608 0.131871
v -0.170664 0.196932 0.135950
v 0.069202 0.196891 -0.255803
v 0.068854 0.160433 -0.245683
v -0.165153 0.159552 0.132820
v -0.128998 0.196932 0.177616
v 0.093288 0.196891 -0.237322
v 0.070789 0.159971 -0.244512
v -0.123051 -0.012144 0.112910
v -0.081037 0.196932 0.225577
v -0.127524 0.159552 0.170449
v 0.100010 0.914671 -0.321879
v 0.087040 -0.012144 -0.158334
v -0.124212 0.159619 0.173398
v -0.075177 0.196889 0.231880
v 0.093969 0.196891 -0.236799
v 0.093169 0.159971 -0.227340
v -0.076314 0.159619 0.221296
v -0.082350 0.914671 0.316960
v 0.148027 0.196908 -0.182743
v 0.095136 0.159619 -0.226215
v -0.088725 -0.012144 0.143222
v -0.051092 0.196889 0.250361
v -0.074347 0.159971 0.222421
v 0.189694 0.196908 -0.141077
v 0.143033 0.159619 -0.178317
v 0.107547 -0.012144 -0.148141
v -0.068219 -0.012144 0.153415
v -0.051968 0.159971 0.239593
v -0.050402 0.196861 0.250887
v 0.237871 0.196908 -0.092899
v 0.183975 0.159552 -0.137739
v 0.146345 0.159552 -0.175368
v -0.055474 0.914671 0.337583
v 0.243751 0.196898 -0.086899
v 0.186452 0.159779 -0.134112
v -0.050033 0.160433 0.240764
v -0.022353 0.196861 0.262506
v -0.047712 -0.012144 0.163608
v 0.328830 0.914671 -0.088412
v 0.234394 0.159779 -0.086169
v 0.141873 -0.012144 -0.117829
v -0.023901 0.160433 0.251588
v -0.021551 0.196861 0.262838
v 0.262232 0.196898 -0.062814
v 0.235980 0.160392 -0.082176
v 0.167173 -0.012144 -0.079656
v -0.024176 0.914671 0.350547
v 0.262729 0.196898 -0.062167
v 0.253194 0.160392 -0.059742
v 0.181724 -0.012144 -0.036222
v -0.025258 -0.012144 0.168143
v -0.021822 0.160827 0.252198
v 0.008550 0.196845 0.266799
v 0.348148 0.914671 -0.063237
v 0.006284 0.160827 0.255899
v 0.009411 0.196845 0.266912
v 0.274343 0.196869 -0.034118
v 0.253487 0.160793 -0.057730
v 0.183129 -0.012144 -0.013353
v 0.009411 0.914671 0.354969
v 0.274655 0.196869 -0.033366
v 0.264334 0.160793 -0.031545
v -0.002805 -0.012144 0.172678
v 0.008313 0.160885 0.256335
v 0.042997 0.914671 0.350547
v 0.360291 0.914671 -0.033921
v 0.040372 0.196845 0.262836
v 0.010271 0.196845 0.266799
v 0.278615 0.196852 -0.003266
v 0.264503 0.160884 -0.029499
v 0.184534 -0.012144 0.009515
v 0.036428 0.160885 0.252634
v 0.278722 0.196852 -0.002460
v 0.268204 0.160884 -0.001383
v 0.038475 0.160797 0.252464
v 0.041174 0.196861 0.262506
v 0.364433 0.914671 -0.002460
v 0.020066 -0.012144 0.171246
v 0.074295 0.914671 0.337583
v 0.069223 0.196889 0.250891
v 0.274759 0.196852 0.027641
v 0.267766 0.160830 0.000645
v 0.179971 -0.012144 0.031976
v 0.064661 0.160797 0.241617
v 0.274658 0.196898 0.028447
v 0.264066 0.160830 0.028752
v 0.066672 0.160397 0.241322
v 0.101171 0.914671 0.316960
v 0.360291 0.914671 0.029001
v 0.042937 -0.012144 0.169813
v 0.069914 0.196889 0.250361
v 0.274346 0.196898 0.029200
v 0.263455 0.160437 0.030831
v 0.175408 -0.012144 0.054438
v 0.089107 0.160397 0.224107
v 0.093999 0.196889 0.231880
v 0.348148 0.914671 0.058318
v 0.262729 0.196898 0.057248
v 0.093100 0.159785 0.222517
v 0.099853 0.196915 0.225880
v 0.252630 0.160437 0.056963
v 0.086395 -0.012144 0.155208
v 0.328830 0.914671 0.083493
v 0.244248 0.196898 0.081333
v 0.251457 0.159977 0.058899
v 0.165189 -0.012144 0.074961
v 0.141020 0.159785 0.174598
v 0.147941 0.196915 0.177791
v 0.243751 0.196898 0.081979
v 0.234284 0.159977 0.081279
v 0.144649 0.159557 0.172116
v 0.189611 0.196915 0.136121
v 0.124608 -0.012144 0.129855
v 0.233156 0.159625 0.083247
v 0.154969 -0.012144 0.095484
v 0.182283 0.159557 0.134482
v 0.185236 0.159625 0.131167
vn -0.8396626634817332 -0.09177144014289777 -0.5352986216392307
vn -0.7850764907883587 -0.1438847545884619 -0.6024550448028918
vn -0.8956988336954077 -0.20544232583384342 -0.39435650124305954
vn 0.8956988336954077 0.20544232583384342 0.39435650124305954
vn 0.7850764907883587 0.1438847545884619 0.6024550448028918
vn 0.8396626634817332 0.09177144014289777 0.5352986216392307
vn -0.7605054028842324 -0.08133521294005311 -0.6442174441288343
vn 0.7605054028842324 0.08133521294005311 0.6442174441288343
vn -0.7517809910591051 -0.17118946752454914 -0.6368041360503647
vn 0.7517809910591051 0.17118946752454914 0.6368041360503647
vn -0.9190202620369501 -0.10242869638721441 -0.3806706189370958
vn 0.9190202620369501 0.10242869638721441 0.3806706189370958
vn -0.839382276902687 -0.29161637884177566 -0.4586908335827856
vn 0.839382276902687 0.29161637884177566 0.4586908335827856
vn -0.910272662705793 -0.1709955035140022 -0.3770467044127272
vn 0.910272662705793 0.1709955035140022 0.3770467044127272
vn -0.6630348743925645 -0.09121846858367079 -0.743010058026462
vn 0.6630348743925645 0.09121846858367079 0.743010058026462
vn -0.8984780260820001 -0.34004111304773205 -0.2776855741392632
vn 0.8984780260820001 0.34004111304773205 0.2776855741392632
vn -0.7771787979543651 -0.15589406283275364 -0.6096639707114939
vn 0.7771787979543651 0.15589406283275364 0.6096639707114939
vn -0.9645028325315237 -0.2206526664786546 -0.1450747628449798
vn 0.9645028325315237 0.2206526664786546 0.1450747628449798
vn -0.9482448559184762 -0.10615386184523008 -0.29927086533689207
vn 0.9482448559184762 0.10615386184523008 0.29927086533689207
vn -0.9602879996461892 -0.10773087108747141 -0.25737330310320694
vn 0.9602879996461892 0.10773087108747141 0.25737330310320694
vn -0.8896522779025303 -0.3911498555798174 -0.23562812842003117
vn 0.8896522779025303 0.3911498555798174 0.23562812842003117
vn -0.9203083631804745 -0.3591025293736353 -0.15517051929259407
vn 0.9203083631804745 0.3591025293736353 0.15517051929259407
vn -0.8448553142882077 -0.26339367751082493 -0.4656643303564248
vn 0.8448553142882077 0.26339367751082493 0.4656643303564248
vn -0.7487635641349167 -0.16912652698828676 -0.640897295120565
vn 0.7487635641349167 0.16912652698828676 0.640897295120565
vn -0.8350511255233607 -0.33320009688544583 -0.43779825627530566
vn 0.8350511255233607 0.33320009688544583 0.43779825627530566
vn -0.7823171159927722 -0.2614037386250325 -0.565374226028749
vn 0.7823171159927722 0.2614037386250325 0.565374226028749
vn -0.9335621466373241 -0.3574714213553949 -0.02599810147040202
vn 0.9335621466373241 0.3574714213553949 0.02599810147040202
vn -0.9890783138373792 -0.11075700505478298 -0.09724697901683986
vn 0.9890783138373792 0.11075700505478298 0.09724697901683986
vn -0.9912796131959686 -0.11463103718632918 -0.06499579813832183
vn 0.9912796131959686 0.11463103718632918 0.06499579813832183
vn -0.9852950582072164 -0.11120899085740898 -0.12971587653373284
vn 0.9852950582072164 0.11120899085740898 0.12971587653373284
vn -0.7092486907336856 -0.1528440162391008 -0.688189655104212
vn 0.7092486907336856 0.1528440162391008 0.688189655104212
vn -0.9125092624397445 -0.40896219658793914 0.008761719217204507
vn 0.9125092624397445 0.40896219658793914 -0.008761719217204507
vn -0.9281308994813159 -0.3601984935503276 0.09396849829638658
vn 0.9281308994813159 0.3601984935503276 -0.09396849829638658
vn -0.9744223953784448 -0.18451279208000074 -0.12828103890979542
vn 0.9744223953784448 0.18451279208000074 0.12828103890979542
vn -0.5931616778083041 -0.1746225942261229 -0.785917408870281
vn 0.5931616778083041 0.1746225942261229 0.785917408870281
vn -0.7107464945537845 -0.218839579772892 -0.6685421892478673
vn 0.7107464945537845 0.218839579772892 0.6685421892478673
vn -0.7870111121740883 -0.2357249331141537 -0.5701291653852069
vn 0.7870111121740883 0.2357249331141537 0.5701291653852069
vn -0.7604347968062921 -0.2762200396090943 -0.5877426388518391
vn 0.7604347968062921 0.2762200396090943 0.5877426388518391
vn -0.9701268855957773 -0.20660039955137594 0.1271617110196674
vn 0.9701268855957773 0.20660039955137594 -0.1271617110196674
vn -0.9937251015261379 -0.11184999892207025 0.00001838476997716813
vn 0.9937251015261379 0.11184999892207025 -0.00001838476997716813
vn -0.6636841841291992 -0.156853121602667 -0.7313825278062488
vn 0.6636841841291992 0.156853121602667 0.7313825278062488
vn -0.6021493532873298 -0.14698295391473618 -0.7847370053681355
vn 0.6021493532873298 0.14698295391473618 0.7847370053681355
vn -0.7115455075870338 -0.21373244465870198 -0.6693440316705044
vn 0.7115455075870338 0.21373244465870198 0.6693440316705044
vn -0.8879910145959037 -0.3841028820842316 0.2528575369086799
vn 0.8879910145959037 0.3841028820842316 -0.2528575369086799
vn -0.9858365339875629 -0.106774853424079 -0.12932694588389282
vn 0.9858365339875629 0.106774853424079 0.12932694588389282
vn -0.994186050503642 -0.10767587785559 0.00004808324046962195
vn 0.994186050503642 0.10767587785559 -0.00004808324046962195
vn -0.9912796131959685 -0.11463103718632923 0.06499579813832206
vn 0.9912796131959685 0.11463103718632923 -0.06499579813832206
vn -0.9934840785378016 -0.11397098618462083 0
vn 0.9934840785378016 0.11397098618462083 0
vn -0.5119216309338279 -0.2767989485004361 -0.813214969052527
vn 0.5119216309338279 0.2767989485004361 0.813214969052527
vn -0.6194036024887134 -0.2142735682524006 -0.7552655262703227
vn 0.6194036024887134 0.2142735682524006 0.7552655262703227
vn -0.45888318131506944 -0.10891992743221932 -0.8817951436214202
vn 0.45888318131506944 0.10891992743221932 0.8817951436214202
vn -0.4166996177167008 -0.20208623104586723 -0.8862971193772615
vn 0.4166996177167008 0.20208623104586723 0.8862971193772615
vn -0.6512628845267198 -0.2577126639198806 -0.7137512438470811
vn 0.6512628845267198 0.2577126639198806 0.7137512438470811
vn -0.909362953547683 -0.3361961945792297 0.24501252511959282
vn 0.909362953547683 0.3361961945792297 -0.24501252511959282
vn -0.989074007695614 -0.11075391868272406 0.09729427936603847
vn 0.989074007695614 0.11075391868272406 -0.09729427936603847
vn -0.6167430962299607 -0.23055185159195477 -0.7526445356077479
vn 0.6167430962299607 0.23055185159195477 0.7526445356077479
vn -0.45084821764839345 -0.30938975365876215 -0.8372657075112043
vn 0.45084821764839345 0.30938975365876215 0.8372657075112043
vn -0.8845521066189623 -0.2988983012730305 0.35808850326707314
vn 0.8845521066189623 0.2988983012730305 -0.35808850326707314
vn -0.9852950582072164 -0.11120899085740904 0.12971587653373298
vn 0.9852950582072164 0.11120899085740904 -0.12971587653373298
vn -0.5112232646999302 -0.30824546460647084 -0.8022689743340983
vn 0.5112232646999302 0.30824546460647084 0.8022689743340983
vn -0.31375485655191504 -0.3857700620217827 -0.8676055262835738
vn 0.31375485655191504 0.3857700620217827 0.8676055262835738
vn -0.37735151678162854 -0.1671964254318974 -0.9108519023998359
vn 0.37735151678162854 0.1671964254318974 0.9108519023998359
vn -0.33853848996772773 -0.3308331024897835 -0.8808752176712403
vn 0.33853848996772773 0.3308331024897835 0.8808752176712403
vn -0.84586435970025 -0.3508833113308731 0.40173920249132733
vn 0.84586435970025 0.3508833113308731 -0.40173920249132733
vn -0.9764375787638213 -0.17331961471751625 0.1285689151078819
vn 0.9764375787638213 0.17331961471751625 -0.1285689151078819
vn -0.21474545724692673 -0.11855819545993763 -0.9694474420416465
vn 0.21474545724692673 0.11855819545993763 0.9694474420416465
vn -0.21688287687220922 -0.21660667460265298 -0.9518631026766479
vn 0.21688287687220922 0.21660667460265298 0.9518631026766479
vn -0.21835607724834988 -0.342380328698152 -0.9138360542511212
vn 0.21835607724834988 0.342380328698152 0.9138360542511212
vn -0.8744668542741177 -0.322142676424278 0.3626731542341277
vn 0.8744668542741177 0.322142676424278 -0.3626731542341277
vn -0.9225562713188018 -0.1900749564974785 0.33579969797906467
vn 0.9225562713188018 0.1900749564974785 -0.33579969797906467
vn -0.9602879996461892 -0.10773087108747154 0.2573733031032071
vn 0.9602879996461892 0.10773087108747154 -0.2573733031032071
vn -0.9482448559184762 -0.10615386184523022 0.2992708653368922
vn 0.9482448559184762 0.10615386184523022 -0.2992708653368922
vn -0.15482174174792224 -0.4199584998984352 -0.8942399491440739
vn 0.15482174174792224 0.4199584998984352 0.8942399491440739
vn -0.21264673057090747 -0.3581894055507124 -0.9091103990873337
vn 0.21264673057090747 0.3581894055507124 0.9091103990873337
vn -0.8324258787353944 -0.28446799236482295 0.47554717718806133
vn 0.8324258787353944 0.28446799236482295 -0.47554717718806133
vn -0.12851158127655787 -0.17499358002213103 -0.9761465158616491
vn 0.12851158127655787 0.17499358002213103 0.9761465158616491
vn -0.09199002416204627 -0.35880347455482176 -0.9288691523040549
vn 0.09199002416204627 0.35880347455482176 0.9288691523040549
vn -0.8120007815862605 -0.3493264272778459 0.46757435548648063
vn 0.8120007815862605 0.3493264272778459 -0.46757435548648063
vn -0.9190199047740083 -0.10242873537875505 0.3806714709534745
vn 0.9190199047740083 0.10242873537875505 -0.3806714709534745
vn 0.043519592002852076 -0.12100528065216982 -0.9916974171420406
vn -0.043519592002852076 0.12100528065216982 0.9916974171420406
vn 0.03958239408445162 -0.217611748424653 -0.9752324651210647
vn -0.03958239408445162 0.217611748424653 0.9752324651210647
vn 0.033651101953565174 -0.3583245620896176 -0.9329904134237365
vn -0.033651101953565174 0.3583245620896176 0.9329904134237365
vn 0.002023021936283709 -0.4324194848651454 -0.9016702814727828
vn -0.002023021936283709 0.4324194848651454 0.9016702814727828
vn -0.8284821853692843 -0.2961244712148302 0.4753183839001729
vn 0.8284821853692843 0.2961244712148302 -0.4753183839001729
vn -0.9130383961764319 -0.15265006066034645 0.3782312071841261
vn 0.9130383961764319 0.15265006066034645 -0.3782312071841261
vn -0.7685706727334477 -0.2589825729755625 0.585001835816789
vn 0.7685706727334477 0.2589825729755625 -0.585001835816789
vn -0.835140078084948 -0.16683544943238993 0.5241249686753721
vn 0.835140078084948 0.16683544943238993 -0.5241249686753721
vn -0.839662663481733 -0.09177144014289802 0.5352986216392309
vn 0.839662663481733 0.09177144014289802 -0.5352986216392309
vn 0.12853778167270122 -0.17386060105126433 -0.9763454972932246
vn -0.12853778167270122 0.17386060105126433 0.9763454972932246
vn 0.15510188437384448 -0.3517672512883896 -0.9231485288861666
vn -0.15510188437384448 0.3517672512883896 0.9231485288861666
vn -0.7759009483867461 -0.3252418378011307 0.5405510755111778
vn 0.7759009483867461 0.3252418378011307 -0.5405510755111778
vn 0.2989306880832504 -0.11611010735961061 -0.9471847162465272
vn -0.2989306880832504 0.11611010735961061 0.9471847162465272
vn 0.15890518677721532 -0.4262174319766915 -0.8905547946614473
vn -0.15890518677721532 0.4262174319766915 0.8905547946614473
vn -0.7818957985337139 -0.26158954619666513 0.5658708947771998
vn 0.7818957985337139 0.26158954619666513 -0.5658708947771998
vn -0.7872794779965443 -0.12350427797844157 0.6041007505760214
vn 0.7872794779965443 0.12350427797844157 -0.6041007505760214
vn 0.24798265691978377 -0.20977335974770894 -0.9457799635259583
vn -0.24798265691978377 0.20977335974770894 0.9457799635259583
vn 0.16181383086555032 -0.35484457292826405 -0.9208157324915627
vn -0.16181383086555032 0.35484457292826405 0.9208157324915627
vn -0.7468239865484949 -0.24154224167200836 0.619605744489086
vn 0.7468239865484949 0.24154224167200836 -0.619605744489086
vn -0.7575284979536847 -0.14710786801522874 0.6360108882370239
vn 0.7575284979536847 0.14710786801522874 -0.6360108882370239
vn -0.7429643737729422 -0.08245818385154254 0.6642323292494012
vn 0.7429643737729422 0.08245818385154254 -0.6642323292494012
vn 0.37781182961055954 -0.15950021608131423 -0.9120405158085553
vn -0.37781182961055954 0.15950021608131423 0.9120405158085553
vn 0.28310284405024694 -0.3369692096309555 -0.8979446149130528
vn -0.28310284405024694 0.3369692096309555 0.8979446149130528
vn -0.7620939480560536 -0.28320905957336373 0.5822417392388732
vn 0.7620939480560536 0.28320905957336373 -0.5822417392388732
vn 0.5346371202094756 -0.10417283811057959 -0.8386364942536818
vn -0.5346371202094756 0.10417283811057959 0.8386364942536818
vn 0.31652780547793014 -0.3986349691592626 -0.8607556620334944
vn -0.31652780547793014 0.3986349691592626 0.8607556620334944
vn -0.7554709573511197 -0.21417347018566665 0.6191876591693443
vn 0.7554709573511197 0.21417347018566665 -0.6191876591693443
vn -0.7329887407762834 -0.14287582739474355 0.6650669168147412
vn 0.7329887407762834 0.14287582739474355 -0.6650669168147412
vn 0.4865248976717377 -0.18493478262833957 -0.8538692230779337
vn -0.4865248976717377 0.18493478262833957 0.8538692230779337
vn 0.4002290774311851 -0.3149946578248938 -0.8605783236407717
vn -0.4002290774311851 0.3149946578248938 0.8605783236407717
vn -0.7561301948461547 -0.2098934205604287 0.6198482721177488
vn 0.7561301948461547 0.2098934205604287 -0.6198482721177488
vn -0.6892224314588948 -0.14285083683684943 0.7103281483855902
vn 0.6892224314588948 0.14285083683684943 -0.7103281483855902
vn 0.6030633684284157 -0.13650561011923193 -0.7859267090929976
vn -0.6030633684284157 0.13650561011923193 0.7859267090929976
vn 0.5139032863294972 -0.28955506540933756 -0.80750311231322
vn -0.5139032863294972 0.28955506540933756 0.80750311231322
vn -0.7139879359075029 -0.2568325733925701 0.6513511008842261
vn 0.7139879359075029 0.2568325733925701 -0.6513511008842261
vn -0.7144657506367237 -0.12469228185496542 0.6884696986889873
vn 0.7144657506367237 0.12469228185496542 -0.6884696986889873
vn -0.6699911094571228 -0.20914235150633181 0.7123000702336169
vn 0.6699911094571228 0.20914235150633181 -0.7123000702336169
vn 0.6752586753803043 -0.09148648223309913 -0.7318851992575407
vn -0.6752586753803043 0.09148648223309913 0.7318851992575407
vn 0.47036704132557666 -0.35110518842833804 -0.8096171892279241
vn -0.47036704132557666 0.35110518842833804 0.8096171892279241
vn -0.6692050239635228 -0.21426255168166417 0.7115168268205909
vn 0.6692050239635228 0.21426255168166417 -0.7115168268205909
vn -0.6268799062240885 -0.16126920949321036 0.7622426288537747
vn 0.6268799062240885 0.16126920949321036 -0.7622426288537747
vn 0.6153053778921596 -0.16247926494028422 -0.7713622886824659
vn -0.6153053778921596 0.16247926494028422 0.7713622886824659
vn 0.5129009225886438 -0.28033201028669336 -0.8113856096926659
vn -0.5129009225886438 0.28033201028669336 0.8113856096926659
vn -0.602826673471533 -0.23937312356467214 0.7611179340063787
vn 0.602826673471533 0.23937312356467214 -0.7611179340063787
vn -0.6491311723069209 -0.09593061638704348 0.75460323215518
vn 0.6491311723069209 0.09593061638704348 -0.75460323215518
vn 0.6882061710101552 -0.15244306162467808 -0.7093189544528155
vn -0.6882061710101552 0.15244306162467808 0.7093189544528155
vn 0.5695403959041433 -0.25812660994001135 -0.780380926646871
vn -0.5695403959041433 0.25812660994001135 0.780380926646871
vn -0.5853661735558414 -0.2933231796125403 0.7558491616444261
vn 0.5853661735558414 0.2933231796125403 -0.7558491616444261
vn -0.6030054016412357 -0.1372966346656421 0.7858333918210534
vn 0.6030054016412357 0.1372966346656421 -0.7858333918210534
vn -0.5128628745027778 -0.28054008966162003 0.8113377410483245
vn 0.5128628745027778 0.28054008966162003 -0.8113377410483245
vn 0.7315015606546528 -0.15651816394105197 -0.6636320751111489
vn -0.7315015606546528 0.15651816394105197 0.6636320751111489
vn 0.6686099863613574 -0.2180525319771705 -0.7109245947610835
vn -0.6686099863613574 0.2180525319771705 0.7109245947610835
vn 0.5853661735558414 -0.2933231796125399 -0.7558491616444263
vn -0.5853661735558414 0.2933231796125399 0.7558491616444263
vn -0.47036704132557666 -0.35110518842833843 0.809617189227924
vn 0.47036704132557666 0.35110518842833843 -0.809617189227924
vn -0.5138463720032904 -0.2898022751287304 0.8074506469805247
vn 0.5138463720032904 0.2898022751287304 -0.8074506469805247
vn -0.4864380355727922 -0.18554984122574641 0.8537852739238264
vn 0.4864380355727922 0.18554984122574641 -0.8537852739238264
vn 0.7037059668515363 -0.1392527147676028 -0.6967112699299451
vn -0.7037059668515363 0.1392527147676028 0.6967112699299451
vn 0.7555146664586384 -0.21366361996022468 -0.6193104603277626
vn -0.7555146664586384 0.21366361996022468 0.6193104603277626
vn 0.6694087138382113 -0.21293153099094203 -0.7117247620726183
vn -0.6694087138382113 0.21293153099094203 0.7117247620726183
vn -0.4588408947731035 -0.10973398275714165 0.8817162164279804
vn 0.4588408947731035 0.10973398275714165 -0.8817162164279804
vn 0.7887523054694915 -0.17213155223804577 -0.5901190806444772
vn -0.7887523054694915 0.17213155223804577 0.5901190806444772
vn 0.7528957116792429 -0.22997088376525657 -0.6166534196412384
vn -0.7528957116792429 0.22997088376525657 0.6166534196412384
vn -0.4001521974424671 -0.31521281628448033 0.8605341941677688
vn 0.4001521974424671 0.31521281628448033 -0.8605341941677688
vn -0.37774615925814287 -0.1601182707913385 0.9119594171477772
vn 0.37774615925814287 0.1601182707913385 -0.9119594171477772
vn -0.3165278054779301 -0.39863496915926294 0.8607556620334943
vn 0.3165278054779301 0.39863496915926294 -0.8607556620334943
vn 0.7649341933862976 -0.0920134401266525 -0.637502318916969
vn -0.7649341933862976 0.0920134401266525 0.637502318916969
vn 0.7939501316788624 -0.2595275957786213 -0.5498077986319272
vn -0.7939501316788624 0.2595275957786213 0.5498077986319272
vn 0.7139879359075029 -0.2568325733925698 -0.6513511008842263
vn -0.7139879359075029 0.2568325733925698 0.6513511008842263
vn -0.28305181636374965 -0.33712607512810233 0.89790182020191
vn 0.28305181636374965 0.33712607512810233 -0.89790182020191
vn -0.24793966438869308 -0.2102324909584367 0.9456892843678799
vn 0.24793966438869308 0.2102324909584367 -0.9456892843678799
vn 0.7851152072482607 -0.14373684825799166 -0.602439897251485
vn -0.7851152072482607 0.14373684825799166 0.602439897251485
vn 0.8378014197404399 -0.3082136235375944 -0.4506585662635621
vn -0.8378014197404399 0.3082136235375944 0.4506585662635621
vn 0.8026995617356557 -0.3075427034178118 -0.5109705462782078
vn -0.8026995617356557 0.3075427034178118 0.5109705462782078
vn -0.21472772509087312 -0.11923218336971358 0.969368707214231
vn 0.21472772509087312 0.11923218336971358 -0.969368707214231
vn 0.8868023488165644 -0.19975609160744398 -0.4167482429466773
vn -0.8868023488165644 0.19975609160744398 0.4167482429466773
vn 0.8813749507210755 -0.32980800624636014 -0.3382378974290476
vn -0.8813749507210755 0.32980800624636014 0.3382378974290476
vn 0.8680328453412811 -0.38524583713541055 -0.3132165774325431
vn -0.8680328453412811 0.38524583713541055 0.3132165774325431
vn -0.1589051867772154 -0.42621743197669204 0.8905547946614473
vn 0.1589051867772154 0.42621743197669204 -0.8905547946614473
vn -0.1618046253468721 -0.35497554722638464 0.92076686739244
vn 0.1618046253468721 0.35497554722638464 -0.92076686739244
vn -0.12854339913804952 -0.17437356120057787 0.9762532743567441
vn 0.12854339913804952 0.17437356120057787 -0.9762532743567441
vn 0.8821062506829589 -0.1056608374620733 -0.45904721972022233
vn -0.8821062506829589 0.1056608374620733 0.45904721972022233
vn -0.15510405561374588 -0.35190836787382557 0.9230943790060409
vn 0.15510405561374588 0.35190836787382557 -0.9230943790060409
vn -0.03958734190768316 -0.2180447492846756 0.9751355442552934
vn 0.03958734190768316 0.2180447492846756 -0.9751355442552934
vn 0.9112536805031606 -0.16467838439510207 -0.37748875411389726
vn -0.9112536805031606 0.16467838439510207 0.37748875411389726
vn 0.9142389713767061 -0.34157225950164694 -0.21793461119106772
vn -0.9142389713767061 0.34157225950164694 0.21793461119106772
vn 0.8944875675550916 -0.41968522396463415 -0.1541308024864932
vn -0.8944875675550916 0.41968522396463415 0.1541308024864932
vn 0 -0.12175826387481552 0.9925597841833966
vn 0 0.12175826387481552 -0.9925597841833966
vn 0.9523209300441444 -0.2146535383738749 -0.2168149087665131
vn -0.9523209300441444 0.2146535383738749 0.2168149087665131
vn 0.9095380849210648 -0.3573416193816486 -0.21224382001797595
vn -0.9095380849210648 0.3573416193816486 0.21224382001797595
vn -0.0020230219362837093 -0.4324194848651459 0.9016702814727827
vn 0.0020230219362837093 0.4324194848651459 -0.9016702814727827
vn -0.03364755948518964 -0.3584744916725828 0.9329329453721601
vn 0.03364755948518964 0.3584744916725828 -0.9329329453721601
vn 0.21472772509087343 -0.11923218336971358 0.969368707214231
vn -0.21472772509087343 0.11923218336971358 -0.969368707214231
vn 0.9697575554504693 -0.11586208618576627 -0.21481680714369625
vn -0.9697575554504693 0.11586208618576627 0.21481680714369625
vn 0.2537003113813549 -0.2004791208665166 0.9462791734480858
vn -0.2537003113813549 0.2004791208665166 -0.9462791734480858
vn 0.12849959914739137 -0.17551664653563337 0.9760541787256715
vn -0.12849959914739137 0.17551664653563337 -0.9760541787256715
vn 0.9765149929137334 -0.17287453779986614 -0.12858018041352112
vn -0.9765149929137334 0.17287453779986614 0.12858018041352112
vn 0.9291782307669904 -0.3581144867599757 -0.09155233389359879
vn -0.9291782307669904 0.3581144867599757 0.09155233389359879
vn 0.901680937108931 -0.43239350783544883 0.0027096191827646458
vn -0.901680937108931 0.43239350783544883 -0.0027096191827646458
vn 0.09997888183910505 -0.38500806854584146 0.9174818855654879
vn -0.09997888183910505 0.38500806854584146 -0.9174818855654879
vn 0.9756097604138938 -0.21587963640999344 0.039769057929929366
vn -0.9756097604138938 0.21587963640999344 -0.039769057929929366
vn 0.9331886354173029 -0.3577653668707533 0.03410151016930702
vn -0.9331886354173029 0.3577653668707533 -0.03410151016930702
vn 0.2601809667934728 -0.3827067828500146 0.8864769499987044
vn -0.2601809667934728 0.3827067828500146 -0.8864769499987044
vn 0.37729351698558417 -0.16781943432508578 0.9107613515644243
vn -0.37729351698558417 0.16781943432508578 -0.9107613515644243
vn 0.9920051128220895 -0.11845113942186186 0.043533707681476255
vn -0.9920051128220895 0.11845113942186186 -0.043533707681476255
vn 0.15482174174792226 -0.4199584998984356 0.8942399491440737
vn -0.15482174174792226 0.4199584998984356 -0.8942399491440737
vn 0.45884089477310375 -0.10973398275714163 0.8817162164279801
vn -0.45884089477310375 0.10973398275714163 -0.8817162164279801
vn 0.41662490174894956 -0.20267136160455776 0.8861986292180961
vn -0.41662490174894956 0.20267136160455776 -0.8861986292180961
vn 0.9767016568779752 -0.17179350730319884 0.12861129149605752
vn -0.9767016568779752 0.17179350730319884 -0.12861129149605752
vn 0.9232352334259736 -0.35131640731618496 0.15560683054203128
vn -0.9232352334259736 0.35131640731618496 -0.15560683054203128
vn 0.8903356060180095 -0.42643544319839227 0.15954723890037917
vn -0.8903356060180095 0.42643544319839227 -0.15954723890037917
vn 0.21831214672987553 -0.34254519146174034 0.9137847659031273
vn -0.21831214672987553 0.34254519146174034 -0.9137847659031273
vn 0.9461024386874849 -0.20791847543560169 0.24831448423748714
vn -0.9461024386874849 0.20791847543560169 -0.24831448423748714
vn 0.9208932511796571 -0.3543704603382821 0.1624105808480311
vn -0.9208932511796571 0.3543704603382821 -0.1624105808480311
vn 0.338494642281907 -0.3310361004376302 0.8808158021706303
vn -0.338494642281907 0.3310361004376302 -0.8808158021706303
vn 0.6429792334357639 -0.0964836150905688 0.7597819538455836
vn -0.6429792334357639 0.0964836150905688 -0.7597819538455836
vn 0.9595384943466069 -0.11467505944150275 0.25716824961323426
vn -0.9595384943466069 0.11467505944150275 -0.25716824961323426
vn 0.313754856551915 -0.385770062021783 0.8676055262835737
vn -0.313754856551915 0.385770062021783 -0.8676055262835737
vn 0.6020767046009097 -0.1477878469932053 0.7846415704371149
vn -0.6020767046009097 0.1477878469932053 -0.7846415704371149
vn 0.912403409464784 -0.15712717886549574 0.3779299777191648
vn -0.912403409464784 0.15712717886549574 -0.3779299777191648
vn 0.8979328720269424 -0.3365393033079764 0.28365093806019465
vn -0.8979328720269424 0.3365393033079764 -0.28365093806019465
vn 0.8603738406752414 -0.3991049864723043 0.31697328602687647
vn -0.8603738406752414 0.3991049864723043 -0.31697328602687647
vn 0.4508033245837193 -0.30959652161631906 0.8372134473044147
vn -0.4508033245837193 0.30959652161631906 -0.8372134473044147
vn 0.5971771279429038 -0.17485253999779546 0.78281930681236
vn -0.5971771279429038 0.17485253999779546 -0.78281930681236
vn 0.8613464947141896 -0.10324679489886578 0.4974156364517406
vn -0.8613464947141896 0.10324679489886578 -0.4974156364517406
vn 0.854121434018523 -0.18278467869208706 0.48689458529087415
vn -0.854121434018523 0.18278467869208706 -0.48689458529087415
vn 0.5537563743367904 -0.2599716532197547 0.7910553820078339
vn -0.5537563743367904 0.2599716532197547 -0.7910553820078339
vn 0.7047325596497448 -0.13859267242967013 0.695804635309597
vn -0.7047325596497448 0.13859267242967013 -0.695804635309597
vn 0.8604996768959076 -0.31467459222422 0.4006497311499903
vn -0.8604996768959076 0.31467459222422 -0.4006497311499903
vn 0.5111923108886843 -0.30841756457795033 0.8022225546243963
vn -0.5111923108886843 0.30841756457795033 -0.8022225546243963
vn 0.7370765836524971 -0.08996741740362026 0.6697939785015138
vn -0.7370765836524971 0.08996741740362026 -0.6697939785015138
vn 0.7862491574032546 -0.1335225325593009 0.6033108616473127
vn -0.7862491574032546 0.1335225325593009 -0.6033108616473127
vn 0.8073499590047929 -0.2892421611086158 0.5143199548259593
vn -0.8073499590047929 0.2892421611086158 -0.5143199548259593
vn 0.8091604159909465 -0.3518182120104463 0.47062019388369974
vn -0.8091604159909465 0.3518182120104463 -0.47062019388369974
vn 0.6169040335339682 -0.22967698737106879 0.752780110577897
vn -0.6169040335339682 0.22967698737106879 -0.752780110577897
vn 0.6639915607674701 -0.15418816595363496 0.7316701556777025
vn -0.6639915607674701 0.15418816595363496 -0.7316701556777025
vn 0.7715503517253346 -0.16000319430703533 0.6157183061790981
vn -0.7715503517253346 0.16000319430703533 -0.6157183061790981
vn 0.8112105317987908 -0.28011610302484896 0.5132956671596743
vn -0.8112105317987908 0.28011610302484896 -0.5132956671596743
vn 0.6195542953118642 -0.21339457270751652 0.7553907806556788
vn -0.6195542953118642 0.21339457270751652 -0.7553907806556788
vn 0.709540969709209 -0.15011499617813412 0.6884889978979722
vn -0.709540969709209 0.15011499617813412 -0.6884889978979722
vn 0.6512376635535954 -0.2578854813786845 0.7137118354513523
vn -0.6512376635535954 0.2578854813786845 -0.7137118354513523
vn 0.7801831716260967 -0.257874447299676 0.569925423315482
vn -0.7801831716260967 0.257874447299676 -0.569925423315482
vn 0.7554595463542239 -0.2942422019133638 0.58540789235835
vn -0.7554595463542239 0.2942422019133638 -0.58540789235835
vn 0.7117115352245255 -0.2126525859412771 0.6695114400223771
vn -0.7117115352245255 0.2126525859412771 -0.6695114400223771
vn 0.7109137133092548 -0.21776565709761772 0.6687150445576124
vn -0.7109137133092548 0.21776565709761772 -0.6687150445576124
usemtl material_0_0
f 1//1 2//2 3//3
f 3//4 2//5 1//6
f 4//7 2//2 1//1
f 1//6 2//5 4//8
f 5//9 3//3 2//2
f 2//5 3//4 5//10
f 3//3 6//11 1//1
f 1//6 6//12 3//4
f 2//2 4//7 5//9
f 5//10 4//8 2//5
f 7//13 3//3 5//9
f 5//10 3//4 7//14
f 6//11 3//3 8//15
f 8//16 3//4 6//12
f 1//1 6//11 9//11
f 9//12 6//12 1//6
f 10//17 5//9 4//7
f 4//8 5//10 10//18
f 3//3 7//13 11//19
f 11//20 7//14 3//4
f 5//9 12//21 7//13
f 7//14 12//22 5//10
f 3//3 13//23 8//15
f 8//16 13//24 3//4
f 8//15 14//25 6//11
f 6//12 14//26 8//16
f 6//11 15//27 9//11
f 9//12 15//28 6//12
f 1//1 9//11 16//25
f 16//26 9//12 1//6
f 5//9 10//17 12//21
f 12//22 10//18 5//10
f 7//13 17//29 11//19
f 11//20 17//30 7//14
f 3//3 11//19 18//31
f 18//32 11//20 3//4
f 12//21 19//33 7//13
f 7//14 19//34 12//22
f 18//31 13//23 3//3
f 3//4 13//24 18//32
f 14//25 8//15 13//23
f 13//24 8//16 14//26
f 15//27 6//11 14//25
f 14//26 6//12 15//28
f 16//25 9//11 15//27
f 15//28 9//12 16//26
f 10//17 20//35 12//21
f 12//22 20//36 10//18
f 7//13 21//37 17//29
f 17//30 21//38 7//14
f 17//29 18//31 11//19
f 11//20 18//32 17//30
f 12//21 22//39 19//33
f 19//34 22//40 12//22
f 21//37 7//13 19//33
f 19//34 7//14 21//38
f 13//23 18//31 23//41
f 23//42 18//32 13//24
f 13//23 24//43 14//25
f 14//26 24//44 13//24
f 14//25 25//45 15//27
f 15//28 25//46 14//26
f 26//47 16//25 15//27
f 15//28 16//26 26//48
f 20//35 10//17 27//49
f 27//50 10//18 20//36
f 22//39 12//21 20//35
f 20//36 12//22 22//40
f 18//31 17//29 28//51
f 28//52 17//30 18//32
f 22//39 21//37 19//33
f 19//34 21//38 22//40
f 18//31 28//51 23//41
f 23//42 28//52 18//32
f 13//23 23//41 29//53
f 29//54 23//42 13//24
f 24//43 13//23 30//55
f 30//56 13//24 24//44
f 14//25 24//43 25//45
f 25//46 24//44 14//26
f 15//27 25//45 26//47
f 26//48 25//46 15//28
f 16//25 26//47 31//47
f 31//48 26//48 16//26
f 32//57 27//49 10//17
f 10//18 27//50 32//58
f 33//59 20//35 27//49
f 27//50 20//36 33//60
f 20//35 34//61 22//39
f 22//40 34//62 20//36
f 22//39 35//63 21//37
f 21//38 35//64 22//40
f 28//51 29//53 23//41
f 23//42 29//54 28//52
f 13//23 29//53 30//55
f 30//56 29//54 13//24
f 36//65 24//43 30//55
f 30//56 24//44 36//66
f 25//45 24//43 37//67
f 37//68 24//44 25//46
f 26//47 25//45 31//47
f 31//48 25//46 26//48
f 16//25 31//47 25//45
f 25//46 31//48 16//26
f 27//49 32//57 38//69
f 38//70 32//58 27//50
f 10//17 39//71 32//57
f 32//58 39//72 10//18
f 20//35 33//59 34//61
f 34//62 33//60 20//36
f 27//49 40//73 33//59
f 33//60 40//74 27//50
f 35//63 22//39 34//61
f 34//62 22//40 35//64
f 29//53 28//51 41//75
f 41//76 28//52 29//54
f 29//53 36//65 30//55
f 30//56 36//66 29//54
f 24//43 36//65 42//77
f 42//78 36//66 24//44
f 24//43 43//79 37//67
f 37//68 43//80 24//44
f 44//81 25//45 37//67
f 37//68 25//46 44//82
f 16//25 25//45 45//83
f 45//84 25//46 16//26
f 46//85 38//69 32//57
f 32//58 38//70 46//86
f 47//87 27//49 38//69
f 38//70 27//50 47//88
f 48//89 39//71 10//17
f 10//18 39//72 48//90
f 49//91 32//57 39//71
f 39//72 32//58 49//92
f 33//59 35//63 34//61
f 34//62 35//64 33//60
f 27//49 47//87 40//73
f 40//74 47//88 27//50
f 50//93 33//59 40//73
f 40//74 33//60 50//94
f 29//53 41//75 51//95
f 51//96 41//76 29//54
f 36//65 29//53 51//95
f 51//96 29//54 36//66
f 43//79 42//77 36//65
f 36//66 42//78 43//80
f 43//79 24//43 42//77
f 42//78 24//44 43//80
f 37//67 43//79 52//97
f 52//98 43//80 37//68
f 25//45 44//81 45//83
f 45//84 44//82 25//46
f 44//81 37//67 52//97
f 52//98 37//68 44//82
f 38//69 46//85 53//99
f 53//100 46//86 38//70
f 32//57 54//101 46//85
f 46//86 54//102 32//58
f 38//69 53//99 47//87
f 47//88 53//100 38//70
f 39//71 48//89 49//91
f 49//92 48//90 39//72
f 49//91 54//101 32//57
f 32//58 54//102 49//92
f 33//59 50//93 35//63
f 35//64 50//94 33//60
f 47//87 50//93 40//73
f 40//74 50//94 47//88
f 41//75 55//103 51//95
f 51//96 55//104 41//76
f 36//65 51//95 55//103
f 55//104 51//96 36//66
f 36//65 52//97 43//79
f 43//80 52//98 36//66
f 56//105 45//83 44//81
f 44//82 45//84 56//106
f 52//97 56//105 44//81
f 44//82 56//106 52//98
f 46//85 57//107 53//99
f 53//100 57//108 46//86
f 58//109 46//85 54//101
f 54//102 46//86 58//110
f 57//107 47//87 53//99
f 53//100 47//88 57//108
f 48//89 59//111 49//91
f 49//92 59//112 48//90
f 54//101 49//91 60//113
f 60//114 49//92 54//102
f 47//87 57//107 50//93
f 50//94 57//108 47//88
f 55//103 41//75 61//115
f 61//116 41//76 55//104
f 55//103 62//117 36//65
f 36//66 62//118 55//104
f 52//97 36//65 62//117
f 62//118 36//66 52//98
f 63//105 45//83 56//105
f 56//106 45//84 63//106
f 52//97 63//105 56//105
f 56//106 63//106 52//98
f 46//85 58//109 57//107
f 57//108 58//110 46//86
f 54//101 60//113 58//109
f 58//110 60//114 54//102
f 64//119 59//111 48//89
f 48//90 59//112 64//120
f 65//121 49//91 59//111
f 59//112 49//92 65//122
f 49//91 66//123 60//113
f 60//114 66//124 49//92
f 55//103 61//115 67//125
f 67//126 61//116 55//104
f 55//103 68//127 62//117
f 62//118 68//128 55//104
f 62//117 69//129 52//97
f 52//98 69//130 62//118
f 63//105 70//131 45//83
f 45//84 70//132 63//106
f 52//97 71//105 63//105
f 63//106 71//106 52//98
f 60//113 72//133 58//109
f 58//110 72//134 60//114
f 59//111 64//119 65//121
f 65//122 64//120 59//112
f 73//135 49//91 65//121
f 65//122 49//92 73//136
f 49//91 73//135 66//123
f 66//124 73//136 49//92
f 72//133 60//113 66//123
f 66//124 60//114 72//134
f 61//115 74//137 67//125
f 67//126 74//138 61//116
f 68//127 55//103 67//125
f 67//126 55//104 68//128
f 69//129 62//117 68//127
f 68//128 62//118 69//130
f 52//97 69//129 71//105
f 71//106 69//130 52//98
f 71//105 70//131 63//105
f 63//106 70//132 71//106
f 64//119 75//139 65//121
f 65//122 75//140 64//120
f 65//121 76//141 73//135
f 73//136 76//142 65//122
f 73//135 72//133 66//123
f 66//124 72//134 73//136
f 74//137 61//115 77//143
f 77//144 61//116 74//138
f 68//127 67//125 74//137
f 74//138 67//126 68//128
f 68//127 78//145 69//129
f 69//130 78//146 68//128
f 70//131 71//105 69//129
f 69//130 71//106 70//132
f 79//147 75//139 64//119
f 64//120 75//140 79//148
f 80//149 65//121 75//139
f 75//140 65//122 80//150
f 65//121 81//151 76//141
f 76//142 81//152 65//122
f 82//153 73//135 76//141
f 76//142 73//136 82//154
f 73//135 82//153 72//133
f 72//134 82//154 73//136
f 74//137 77//143 83//155
f 83//156 77//144 74//138
f 74//137 84//157 68//127
f 68//128 84//158 74//138
f 78//145 68//127 84//157
f 84//158 68//128 78//146
f 70//131 69//129 78//145
f 78//146 69//130 70//132
f 75//139 79//147 80//149
f 80//150 79//148 75//140
f 81//151 65//121 80//149
f 80//150 65//122 81//152
f 81//151 82//153 76//141
f 76//142 82//154 81//152
f 77//143 85//159 83//155
f 83//156 85//160 77//144
f 86//161 74//137 83//155
f 83//156 74//138 86//162
f 74//137 86//161 84//157
f 84//158 86//162 74//138
f 84//157 87//163 78//145
f 78//146 87//164 84//158
f 78//145 87//163 70//131
f 70//132 87//164 78//146
f 79//147 88//165 80//149
f 80//150 88//166 79//148
f 80//149 89//167 81//151
f 81//152 89//168 80//150
f 89//167 82//153 81//151
f 81//152 82//154 89//168
f 85//159 77//143 90//169
f 90//170 77//144 85//160
f 86//161 83//155 85//159
f 85//160 83//156 86//162
f 87//163 84//157 86//161
f 86//162 84//158 87//164
f 91//171 88//165 79//147
f 79//148 88//166 91//172
f 88//165 89//167 80//149
f 80//150 89//168 88//166
f 82//153 89//167 92//173
f 92//174 89//168 82//154
f 85//159 90//169 93//175
f 93//176 90//170 85//160
f 85//159 94//177 86//161
f 86//162 94//178 85//160
f 87//163 86//161 94//177
f 94//178 86//162 87//164
f 88//165 91//171 95//179
f 95//180 91//172 88//166
f 95//179 89//167 88//165
f 88//166 89//168 95//180
f 89//167 96//181 92//173
f 92//174 96//182 89//168
f 90//169 97//183 93//175
f 93//176 97//184 90//170
f 98//185 85//159 93//175
f 93//176 85//160 98//186
f 85//159 98//185 94//177
f 94//178 98//186 85//160
f 94//177 99//187 87//163
f 87//164 99//188 94//178
f 91//171 100//189 95//179
f 95//180 100//190 91//172
f 89//167 95//179 96//181
f 96//182 95//180 89//168
f 101//191 92//173 96//181
f 96//182 92//174 101//192
f 97//183 90//169 102//193
f 102//194 90//170 97//184
f 98//185 93//175 97//183
f 97//184 93//176 98//186
f 99//187 94//177 98//185
f 98//186 94//178 99//188
f 103//195 100//189 91//171
f 91//172 100//190 103//196
f 100//189 101//191 95//179
f 95//180 101//192 100//190
f 95//179 101//191 96//181
f 96//182 101//192 95//180
f 92//173 101//191 104//197
f 104//198 101//192 92//174
f 97//183 102//193 105//199
f 105//200 102//194 97//184
f 97//183 106//201 98//185
f 98//186 106//202 97//184
f 106//201 99//187 98//185
f 98//186 99//188 106//202
f 100//189 103//195 107//203
f 107//204 103//196 100//190
f 107//203 101//191 100//189
f 100//190 101//192 107//204
f 101//191 108//205 104//197
f 104//198 108//206 101//192
f 102//193 109//207 105//199
f 105//200 109//208 102//194
f 106//201 97//183 105//199
f 105//200 97//184 106//202
f 110//209 99//187 106//201
f 106//202 99//188 110//210
f 103//195 111//211 107//203
f 107//204 111//212 103//196
f 101//191 107//203 108//205
f 108//206 107//204 101//192
f 112//213 104//197 108//205
f 108//206 104//198 112//214
f 109//207 102//193 113//215
f 113//216 102//194 109//208
f 106//201 105//199 109//207
f 109//208 105//200 106//202
f 99//187 110//209 114//217
f 114//218 110//210 99//188
f 106//201 115//219 110//209
f 110//210 115//220 106//202
f 116//221 111//211 103//195
f 103//196 111//212 116//222
f 111//211 112//213 107//203
f 107//204 112//214 111//212
f 107//203 112//213 108//205
f 108//206 112//214 107//204
f 104//197 112//213 117//223
f 117//224 112//214 104//198
f 109//207 113//215 115//219
f 115//220 113//216 109//208
f 115//219 106//201 109//207
f 109//208 106//202 115//220
f 118//225 114//217 110//209
f 110//210 114//218 118//226
f 119//227 99//187 114//217
f 114//218 99//188 119//228
f 115//219 118//225 110//209
f 110//210 118//226 115//220
f 111//211 116//221 120//229
f 120//230 116//222 111//212
f 120//229 112//213 111//211
f 111//212 112//214 120//230
f 112//213 121//231 117//223
f 117//224 121//232 112//214
f 113//215 118//225 115//219
f 115//220 118//226 113//216
f 114//217 118//225 122//233
f 122//234 118//226 114//218
f 99//187 119//227 123//235
f 123//236 119//228 99//188
f 114//217 122//233 119//227
f 119//228 122//234 114//218
f 116//221 124//237 120//229
f 120//230 124//238 116//222
f 112//213 120//229 121//231
f 121//232 120//230 112//214
f 125//239 117//223 121//231
f 121//232 117//224 125//240
f 118//225 113//215 126//241
f 126//242 113//216 118//226
f 118//225 126//241 122//233
f 122//234 126//242 118//226
f 119//227 127//243 123//235
f 123//236 127//244 119//228
f 122//233 128//245 119//227
f 119//228 128//246 122//234
f 116//221 129//247 124//237
f 124//238 129//248 116//222
f 130//249 120//229 124//237
f 124//238 120//230 130//250
f 120//229 125//239 121//231
f 121//232 125//240 120//230
f 117//223 125//239 131//251
f 131//252 125//240 117//224
f 132//253 122//233 126//241
f 126//242 122//234 132//254
f 133//255 127//243 119//227
f 119//228 127//244 133//256
f 134//257 123//235 127//243
f 127//244 123//236 134//258
f 122//233 132//253 128//245
f 128//246 132//254 122//234
f 133//255 119//227 128//245
f 128//246 119//228 133//256
f 129//247 116//221 135//259
f 135//260 116//222 129//248
f 136//261 124//237 129//247
f 129//248 124//238 136//262
f 120//229 130//249 125//239
f 125//240 130//250 120//230
f 130//249 124//237 137//263
f 137//264 124//238 130//250
f 125//239 130//249 131//251
f 131//252 130//250 125//240
f 127//243 133//255 134//257
f 134//258 133//256 127//244
f 123//235 134//257 138//265
f 138//266 134//258 123//236
f 132//253 133//255 128//245
f 128//246 133//256 132//254
f 116//221 139//267 135//259
f 135//260 139//268 116//222
f 135//259 140//269 129//247
f 129//248 140//270 135//260
f 124//237 136//261 137//263
f 137//264 136//262 124//238
f 136//261 129//247 140//269
f 140//270 129//248 136//262
f 137//263 131//251 130//249
f 130//250 131//252 137//264
f 133//255 141//271 134//257
f 134//258 141//272 133//256
f 134//257 142//273 138//265
f 138//266 142//274 134//258
f 143//275 133//255 132//253
f 132//254 133//256 143//276
f 139//267 116//221 144//277
f 144//278 116//222 139//268
f 135//259 139//267 145//279
f 145//280 139//268 135//260
f 140//269 135//259 145//279
f 145//280 135//260 140//270
f 137//263 136//261 146//281
f 146//282 136//262 137//264
f 140//269 146//281 136//261
f 136//262 146//282 140//270
f 131//251 137//263 146//281
f 146//282 137//264 131//252
f 133//255 143//275 141//271
f 141//272 143//276 133//256
f 147//283 134//257 141//271
f 141//272 134//258 147//284
f 147//283 142//273 134//257
f 134//258 142//274 147//284
f 148//285 138//265 142//273
f 142//274 138//266 148//286
f 139//267 144//277 149//287
f 149//288 144//278 139//268
f 145//279 139//267 150//289
f 150//290 139//268 145//280
f 140//269 145//279 151//291
f 151//292 145//280 140//270
f 146//281 140//269 151//291
f 151//292 140//270 146//282
f 143//275 147//283 141//271
f 141//272 147//284 143//276
f 142//273 147//283 148//285
f 148//286 147//284 142//274
f 138//265 148//285 152//293
f 152//294 148//286 138//266
f 144//277 153//295 149//287
f 149//288 153//296 144//278
f 149//287 154//297 139//267
f 139//268 154//298 149//288
f 139//267 154//297 150//289
f 150//290 154//298 139//268
f 155//299 145//279 150//289
f 150//290 145//280 155//300
f 145//279 155//299 151//291
f 151//292 155//300 145//280
f 156//301 147//283 143//275
f 143//276 147//284 156//302
f 147//283 157//303 148//285
f 148//286 157//304 147//284
f 148//285 158//305 152//293
f 152//294 158//306 148//286
f 153//295 144//277 159//307
f 159//308 144//278 153//296
f 154//297 149//287 153//295
f 153//296 149//288 154//298
f 155//299 150//289 154//297
f 154//298 150//290 155//300
f 147//283 156//301 157//303
f 157//304 156//302 147//284
f 160//309 148//285 157//303
f 157//304 148//286 160//310
f 160//309 158//305 148//285
f 148//286 158//306 160//310
f 161//311 152//293 158//305
f 158//306 152//294 161//312
f 153//295 159//307 162//313
f 162//314 159//308 153//296
f 154//297 153//295 163//315
f 163//316 153//296 154//298
f 154//297 164//317 155//299
f 155//300 164//318 154//298
f 156//301 160//309 157//303
f 157//304 160//310 156//302
f 158//305 160//309 161//311
f 161//312 160//310 158//306
f 152//293 161//311 165//319
f 165//320 161//312 152//294
f 159//307 166//321 162//313
f 162//314 166//322 159//308
f 162//313 167//323 153//295
f 153//296 167//324 162//314
f 153//295 167//323 163//315
f 163//316 167//324 153//296
f 164//317 154//297 163//315
f 163//316 154//298 164//318
f 168//325 160//309 156//301
f 156//302 160//310 168//326
f 160//309 169//327 161//311
f 161//312 169//328 160//310
f 161//311 170//329 165//319
f 165//320 170//330 161//312
f 166//321 159//307 171//331
f 171//332 159//308 166//322
f 167//323 162//313 166//321
f 166//322 162//314 167//324
f 164//317 163//315 167//323
f 167//324 163//316 164//318
f 160//309 168//325 169//327
f 169//328 168//326 160//310
f 169//327 172//333 161//311
f 161//312 172//334 169//328
f 170//329 161//311 173//335
f 173//336 161//312 170//330
f 166//321 171//331 174//337
f 174//338 171//332 166//322
f 167//323 166//321 175//339
f 175//340 166//322 167//324
f 167//323 176//341 164//317
f 164//318 176//342 167//324
f 169//327 168//325 177//343
f 177//344 168//326 169//328
f 172//333 169//327 177//343
f 177//344 169//328 172//334
f 161//311 172//333 173//335
f 173//336 172//334 161//312
f 170//329 173//335 172//333
f 172//334 173//336 170//330
f 171//331 178//345 174//337
f 174//338 178//346 171//332
f 174//337 179//347 166//321
f 166//322 179//348 174//338
f 166//321 179//347 175//339
f 175//340 179//348 166//322
f 176//341 167//323 175//339
f 175//340 167//324 176//342
f 168//325 180//349 177//343
f 177//344 180//350 168//326
f 181//351 170//329 172//333
f 172//334 170//330 181//352
f 178//345 171//331 182//353
f 182//354 171//332 178//346
f 179//347 174//337 178//345
f 178//346 174//338 179//348
f 176//341 175//339 179//347
f 179//348 175//340 176//342
f 180//349 168//325 183//355
f 183//356 168//326 180//350
f 170//329 181//351 184//357
f 184//358 181//352 170//330
f 172//333 185//359 181//351
f 181//352 185//360 172//334
f 182//353 186//361 178//345
f 178//346 186//362 182//354
f 178//345 187//363 179//347
f 179//348 187//364 178//346
f 179//347 188//365 176//341
f 176//342 188//366 179//348
f 180//349 183//355 189//367
f 189//368 183//356 180//350
f 184//357 181//351 185//359
f 185//360 181//352 184//358
f 180//349 185//359 172//333
f 172//334 185//360 180//350
f 182//353 190//369 186//361
f 186//362 190//370 182//354
f 191//371 178//345 186//361
f 186//362 178//346 191//372
f 178//345 191//371 187//363
f 187//364 191//372 178//346
f 188//365 179//347 187//363
f 187//364 179//348 188//366
f 183//355 192//373 189//367
f 189//368 192//374 183//356
f 185//359 180//349 189//367
f 189//368 180//350 185//360
f 185//359 193//375 184//357
f 184//358 193//376 185//360
f 190//369 182//353 194//377
f 194//378 182//354 190//370
f 191//371 186//361 190//369
f 190//370 186//362 191//372
f 191//371 188//365 187//363
f 187//364 188//366 191//372
f 192//373 183//355 195//379
f 195//380 183//356 192//374
f 185//359 189//367 192//373
f 192//374 189//368 185//360
f 193//375 185//359 196//381
f 196//382 185//360 193//376
f 194//377 197//383 190//369
f 190//370 197//384 194//378
f 190//369 198//385 191//371
f 191//372 198//386 190//370
f 191//371 199//387 188//365
f 188//366 199//388 191//372
f 192//373 195//379 200//389
f 200//390 195//380 192//374
f 192//373 201//391 185//359
f 185//360 201//392 192//374
f 185//359 201//391 196//381
f 196//382 201//392 185//360
f 193//375 196//381 201//391
f 201//392 196//382 193//376
f 197//383 194//377 202//393
f 202//394 194//378 197//384
f 203//395 190//369 197//383
f 197//384 190//370 203//396
f 203//395 198//385 190//369
f 190//370 198//386 203//396
f 199//387 191//371 198//385
f 198//386 191//372 199//388
f 195//379 204//397 200//389
f 200//390 204//398 195//380
f 201//391 192//373 200//389
f 200//390 192//374 201//392
f 205//399 193//375 201//391
f 201//392 193//376 205//400
f 202//393 203//395 197//383
f 197//384 203//396 202//394
f 198//385 203//395 206//401
f 206//402 203//396 198//386
f 198//385 206//401 199//387
f 199//388 206//402 198//386
f 204//397 195//379 207//403
f 207//404 195//380 204//398
f 201//391 200//389 204//397
f 204//398 200//390 201//392
f 193//375 205//399 208//405
f 208//406 205//400 193//376
f 205//399 201//391 204//397
f 204//398 201//392 205//400
f 202//393 209//407 203//395
f 203//396 209//408 202//394
f 203//395 210//409 206//401
f 206//402 210//410 203//396
f 206//401 211//411 199//387
f 199//388 211//412 206//402
f 204//397 207//403 212//413
f 212//414 207//404 204//398
f 208//405 205//399 213//415
f 213//416 205//400 208//406
f 204//397 213//415 205//399
f 205//400 213//416 204//398
f 202//393 214//417 209//407
f 209//408 214//418 202//394
f 215//419 203//395 209//407
f 209//408 203//396 215//420
f 203//395 215//419 210//409
f 210//410 215//420 203//396
f 211//411 206//401 210//409
f 210//410 206//402 211//412
f 207//403 216//421 212//413
f 212//414 216//422 207//404
f 213//415 204//397 212//413
f 212//414 204//398 213//416
f 217//423 208//405 213//415
f 213//416 208//406 217//424
f 214//417 202//393 208//405
f 208//406 202//394 214//418
f 214//417 215//419 209//407
f 209//408 215//420 214//418
f 215//419 211//411 210//409
f 210//410 211//412 215//420
f 216//421 207//403 218//425
f 218//426 207//404 216//422
f 213//415 212//413 216//421
f 216//422 212//414 213//416
f 208//405 217//423 214//417
f 214//418 217//424 208//406
f 216//421 217//423 213//415
f 213//416 217//424 216//422
f 214//417 219//427 215//419
f 215//420 219//428 214//418
f 215//419 220//429 211//411
f 211//412 220//430 215//420
f 216//421 218//425 221//431
f 221//432 218//426 216//422
f 222//433 214//417 217//423
f 217//424 214//418 222//434
f 217//423 216//421 221//431
f 221//432 216//422 217//424
f 214//417 222//433 219//427
f 219//428 222//434 214//418
f 220//429 215//419 219//427
f 219//428 215//420 220//430
f 218//425 222//433 221//431
f 221//432 222//434 218//426
f 217//423 221//431 222//433
f 222//434 221//432 217//424
f 222//433 220//429 219//427
f 219//428 220//430 222//434
f 222//433 218//425 220//429
f 220//430 218//426 222//434
