# SSTK version 0.8.0
# 26
mtllib original-26.mtl
o mesh45/mesh45-geometry#mesh45-geometry
v -0.049257 -0.513250 0.359676
v -0.052438 -0.512087 0.359429
v -0.052438 -0.513251 0.359675
v -0.049257 -0.512086 0.359430
v -0.052438 -0.509421 0.358868
v -0.052437 -0.514329 0.354559
v -0.049257 -0.513201 0.359908
v -0.049256 -0.514328 0.354560
v -0.049257 -0.512037 0.359663
v -0.049256 -0.513164 0.354314
v -0.052438 -0.512038 0.359662
v -0.053747 -0.508233 0.358617
v -0.052437 -0.513165 0.354313
v -0.052436 -0.518232 0.355381
v -0.052438 -0.513202 0.359907
v -0.052438 -0.517154 0.360497
v -0.049258 -0.508232 0.358618
v -0.052437 -0.510499 0.353752
v -0.052439 -0.509372 0.359100
v -0.052438 -0.517105 0.360730
v -0.053747 -0.517154 0.360497
v -0.049257 -0.509421 0.358869
v -0.049256 -0.509310 0.353502
v -0.049258 -0.508183 0.358851
v -0.053746 -0.509311 0.353501
v -0.049257 -0.509372 0.359101
v -0.053745 -0.518232 0.355381
v -0.053747 -0.517105 0.360729
v -0.053747 -0.508184 0.358849
v -0.049256 -0.510499 0.353753
vn -0.00029638367210211707 0.20618307822432388 0.9785133879567827
vn 0.00029638367210211707 -0.20618307822432388 -0.9785133879567827
vn 0.00007724017017422036 -0.9785134232956787 0.206183109066015
vn -0.00007724017017422036 0.9785134232956787 -0.206183109066015
vn 0.9999999530953365 0.00013668984759395168 0.0002740897855484951
vn -0.9999999530953365 -0.00013668984759395168 -0.0002740897855484951
usemtl material_0_0
f 1//1 2//1 3//1
f 2//1 1//1 4//1
f 3//2 2//2 1//2
f 4//2 1//2 2//2
f 5//1 3//1 2//1
f 2//2 3//2 5//2
f 6//3 1//3 3//3
f 3//4 1//4 6//4
f 7//3 3//3 1//3
f 1//4 3//4 7//4
f 8//5 4//5 1//5
f 1//6 4//6 8//6
f 9//5 1//5 4//5
f 4//6 1//6 9//6
f 10//4 2//4 4//4
f 4//3 2//3 10//3
f 11//4 4//4 2//4
f 2//3 4//3 11//3
f 12//1 3//1 5//1
f 5//2 3//2 12//2
f 13//5 5//5 2//5
f 2//6 5//6 13//6
f 5//5 11//5 2//5
f 2//6 11//6 5//6
f 1//3 6//3 8//3
f 8//4 6//4 1//4
f 3//5 14//5 6//5
f 6//6 14//6 3//6
f 3//3 7//3 15//3
f 15//4 7//4 3//4
f 1//5 9//5 7//5
f 7//6 9//6 1//6
f 4//5 8//5 10//5
f 10//6 8//6 4//6
f 4//4 11//4 9//4
f 9//3 11//3 4//3
f 2//4 10//4 13//4
f 13//3 10//3 2//3
f 12//1 16//1 3//1
f 3//2 16//2 12//2
f 12//1 5//1 17//1
f 17//2 5//2 12//2
f 5//5 13//5 18//5
f 18//6 13//6 5//6
f 11//5 5//5 19//5
f 19//6 5//6 11//6
f 6//2 10//2 8//2
f 8//1 10//1 6//1
f 14//5 3//5 16//5
f 16//6 3//6 14//6
f 14//2 13//2 6//2
f 6//1 13//1 14//1
f 7//1 11//1 15//1
f 15//2 11//2 7//2
f 20//5 3//5 15//5
f 15//6 3//6 20//6
f 11//1 7//1 9//1
f 9//2 7//2 11//2
f 10//2 6//2 13//2
f 13//1 6//1 10//1
f 16//1 12//1 21//1
f 21//2 12//2 16//2
f 3//5 20//5 16//5
f 16//6 20//6 3//6
f 17//1 5//1 22//1
f 22//2 5//2 17//2
f 23//4 12//4 17//4
f 17//3 12//3 23//3
f 12//4 24//4 17//4
f 17//3 24//3 12//3
f 25//2 18//2 13//2
f 13//1 18//1 25//1
f 18//3 22//3 5//3
f 5//4 22//4 18//4
f 5//3 26//3 19//3
f 19//4 26//4 5//4
f 19//1 15//1 11//1
f 11//2 15//2 19//2
f 16//3 27//3 14//3
f 14//4 27//4 16//4
f 14//2 25//2 13//2
f 13//1 25//1 14//1
f 20//1 15//1 28//1
f 28//2 15//2 20//2
f 12//6 27//6 21//6
f 21//5 27//5 12//5
f 21//6 29//6 12//6
f 12//5 29//5 21//5
f 27//3 16//3 21//3
f 21//4 16//4 27//4
f 20//3 21//3 16//3
f 16//4 21//4 20//4
f 26//3 5//3 22//3
f 22//4 5//4 26//4
f 30//5 17//5 22//5
f 22//6 17//6 30//6
f 17//5 26//5 22//5
f 22//6 26//6 17//6
f 12//4 23//4 25//4
f 25//3 23//3 12//3
f 17//5 30//5 23//5
f 23//6 30//6 17//6
f 24//4 12//4 29//4
f 29//3 12//3 24//3
f 26//5 17//5 24//5
f 24//6 17//6 26//6
f 18//2 25//2 23//2
f 23//1 25//1 18//1
f 22//3 18//3 30//3
f 30//4 18//4 22//4
f 24//1 19//1 26//1
f 26//2 19//2 24//2
f 19//1 28//1 15//1
f 15//2 28//2 19//2
f 25//2 14//2 27//2
f 27//1 14//1 25//1
f 21//3 20//3 28//3
f 28//4 20//4 21//4
f 27//6 12//6 25//6
f 25//5 12//5 27//5
f 29//6 21//6 28//6
f 28//5 21//5 29//5
f 18//2 23//2 30//2
f 30//1 23//1 18//1
f 29//1 19//1 24//1
f 24//2 19//2 29//2
f 19//1 29//1 28//1
f 28//2 29//2 19//2
