# SSTK version 0.8.0
# 27
mtllib original-27.mtl
o #ID88
v -0.009053 0.357037 0.472680
v -0.009055 0.357037 0.472680
v -0.009055 0.357037 0.472680
v -0.009053 0.357037 0.472680
v -0.009055 0.357038 0.472680
v -0.009054 0.357038 0.472680
v -0.009055 0.357040 0.472680
v -0.009053 0.357038 0.472680
v -0.009053 0.357038 0.472680
v -0.009054 0.357039 0.472680
v -0.009053 0.357040 0.472680
v -0.009053 0.357039 0.472680
v -0.009053 0.357039 0.472680
v -0.009053 0.357039 0.472680
v -0.009053 0.357039 0.472680
v -0.009053 0.357040 0.472680
v -0.009054 0.357039 0.472680
v -0.009054 0.357038 0.472680
v -0.009055 0.357040 0.472680
v -0.009053 0.357037 0.472680
v -0.009053 0.357037 0.472680
v -0.009053 0.357038 0.472680
v -0.009053 0.357038 0.472680
v -0.009055 0.357038 0.472680
v -0.009055 0.357037 0.472680
v -0.009055 0.357037 0.472680
vt 0.03667496 0.005695893
vt 0.02278607 0.007094737
vt 0.02278607 0.005695893
vt 0.03493841 0.007094737
vt 0.02278607 0.0161358
vt 0.02452263 0.01753464
vt 0.02278607 0.03002469
vt 0.03493841 0.0161358
vt 0.03667496 0.01753464
vt 0.02452263 0.02862584
vt 0.03667496 0.03002469
vt 0.03493841 0.02862584
vt 0.03667496 0.02862584
vn 0 0 1
vn 0 0 -1
usemtl material_0_0
f 1/1/1 2/2/1 3/3/1
f 2/2/1 1/1/1 4/4/1
f 5/5/1 6/6/1 7/7/1
f 6/6/1 5/5/1 8/8/1
f 6/6/1 8/8/1 9/9/1
f 9/9/1 8/8/1 4/4/1
f 9/9/1 4/4/1 1/1/1
f 7/7/1 10/10/1 11/11/1
f 10/10/1 7/7/1 6/6/1
f 11/11/1 10/10/1 12/12/1
f 11/11/1 12/12/1 13/13/1
f 14/13/2 15/12/2 16/11/2
f 15/12/2 17/10/2 16/11/2
f 18/6/2 19/7/2 17/10/2
f 16/11/2 17/10/2 19/7/2
f 20/1/2 21/4/2 22/9/2
f 21/4/2 23/8/2 22/9/2
f 22/9/2 23/8/2 18/6/2
f 23/8/2 24/5/2 18/6/2
f 19/7/2 18/6/2 24/5/2
f 21/4/2 20/1/2 25/2/2
f 26/3/2 25/2/2 20/1/2
