# SSTK version 0.8.0
# 110
mtllib original-110.mtl
o #ID464
v -0.034367 0.177574 0.123898
v -0.049359 0.167865 0.120363
v -0.037555 0.167865 0.129420
v -0.044850 0.177574 0.115854
v -0.022158 0.177574 0.128955
v -0.023808 0.167865 0.135114
v -0.030361 0.185985 0.116961
v -0.039186 0.185985 0.110190
v -0.058417 0.167865 0.108558
v -0.052895 0.177574 0.105370
v -0.009057 0.177574 0.130680
v -0.009057 0.167865 0.137056
v -0.020085 0.185985 0.121218
v -0.032549 0.192826 0.103552
v -0.025668 0.192826 0.108832
v -0.045957 0.185985 0.101365
v -0.064111 0.167865 0.094812
v -0.057952 0.177574 0.093162
v 0.004045 0.177574 0.128955
v 0.005695 0.167865 0.135114
v -0.009057 0.185985 0.122669
v -0.017655 0.192826 0.112151
v -0.025152 0.197877 0.096156
v -0.020438 0.197877 0.099774
v -0.037828 0.192826 0.096671
v -0.050214 0.185985 0.091088
v -0.066053 0.167865 0.080060
v -0.059677 0.177574 0.080060
v 0.019441 0.167865 0.129420
v 0.016253 0.177574 0.123898
v 0.001971 0.185985 0.121218
v -0.009057 0.192826 0.113283
v -0.014948 0.197877 0.102048
v -0.017237 0.200974 0.088240
v -0.014841 0.200974 0.090079
v -0.028770 0.197877 0.091442
v -0.041147 0.192826 0.088659
v -0.051666 0.185985 0.080060
v -0.064111 0.167865 0.065309
v -0.057952 0.177574 0.066959
v 0.031245 0.167865 0.120363
v 0.026737 0.177574 0.115854
v 0.012248 0.185985 0.116961
v -0.000458 0.192826 0.112151
v -0.009057 0.197877 0.102823
v -0.012051 0.200974 0.091234
v -0.009057 0.202017 0.080060
v -0.019075 0.200974 0.085844
v -0.031044 0.197877 0.085952
v -0.042279 0.192826 0.080060
v -0.050214 0.185985 0.069032
v -0.058417 0.167865 0.051562
v -0.052895 0.177574 0.054750
v 0.040303 0.167865 0.108558
v 0.034781 0.177574 0.105370
v 0.021072 0.185985 0.110190
v 0.007554 0.192826 0.108832
v -0.003165 0.197877 0.102048
v -0.009057 0.200974 0.091629
v -0.020231 0.200974 0.083054
v -0.031820 0.197877 0.080060
v -0.041147 0.192826 0.071462
v -0.045957 0.185985 0.058756
v -0.049359 0.167865 0.039758
v -0.044850 0.177574 0.044267
v 0.039838 0.177574 0.093162
v 0.045997 0.167865 0.094812
v 0.027844 0.185985 0.101365
v 0.014435 0.192826 0.103552
v 0.002325 0.197877 0.099774
v -0.006063 0.200974 0.091234
v -0.020625 0.200974 0.080060
v -0.031044 0.197877 0.074169
v -0.037828 0.192826 0.063449
v -0.039186 0.185985 0.049931
v -0.034367 0.177574 0.036222
v -0.037555 0.167865 0.030700
v 0.041563 0.177574 0.080060
v 0.047939 0.167865 0.080060
v 0.032100 0.185985 0.091088
v 0.019715 0.192826 0.096672
v 0.007039 0.197877 0.096156
v -0.003273 0.200974 0.090079
v -0.020231 0.200974 0.077066
v -0.028770 0.197877 0.068679
v -0.032549 0.192826 0.056569
v -0.030361 0.185985 0.043160
v -0.022158 0.177574 0.031165
v -0.023808 0.167865 0.025006
v 0.039838 0.177574 0.066959
v 0.045997 0.167865 0.065309
v 0.033552 0.185985 0.080060
v 0.023034 0.192826 0.088659
v 0.010656 0.197877 0.091442
v -0.000877 0.200974 0.088240
v -0.019075 0.200974 0.074276
v -0.025153 0.197877 0.063965
v -0.025668 0.192826 0.051289
v -0.020085 0.185985 0.038903
v -0.009057 0.167865 0.023064
v -0.009057 0.177574 0.029440
v 0.034781 0.177574 0.054750
v 0.040303 0.167865 0.051562
v 0.032100 0.185985 0.069032
v 0.024166 0.192826 0.080060
v 0.012930 0.197877 0.085952
v 0.000962 0.200974 0.085844
v -0.017237 0.200974 0.071880
v -0.020438 0.197877 0.060347
v -0.017655 0.192826 0.047970
v -0.009057 0.185985 0.037451
v 0.005695 0.167865 0.025006
v 0.004045 0.177574 0.031165
v 0.026737 0.177574 0.044267
v 0.031246 0.167865 0.039758
v 0.027844 0.185985 0.058756
v 0.023034 0.192826 0.071462
v 0.013706 0.197877 0.080060
v 0.002117 0.200974 0.083054
v -0.014841 0.200974 0.070042
v -0.014948 0.197877 0.058073
v -0.009057 0.192826 0.046838
v 0.001971 0.185985 0.038903
v 0.019441 0.167865 0.030700
v 0.016253 0.177574 0.036222
v 0.021072 0.185985 0.049931
v 0.019715 0.192826 0.063449
v 0.012930 0.197877 0.074169
v 0.002511 0.200974 0.080060
v -0.012051 0.200974 0.068886
v -0.009057 0.197877 0.057297
v -0.000458 0.192826 0.047970
v 0.012248 0.185985 0.043160
v 0.014435 0.192826 0.056569
v 0.010656 0.197877 0.068679
v 0.002117 0.200974 0.077066
v -0.009057 0.200974 0.068492
v -0.003165 0.197877 0.058073
v 0.007554 0.192826 0.051289
v 0.007039 0.197877 0.063965
v 0.000962 0.200974 0.074276
v -0.006063 0.200974 0.068886
v 0.002325 0.197877 0.060347
v -0.000877 0.200974 0.071880
v -0.003273 0.200974 0.070042
vn -0.39300436435476443 0.6182154013303484 0.6807035236841834
vn -0.5910392831628929 0.5489491985099828 0.5910392061560223
vn -0.41792785881092376 0.5489491997429367 0.7238722821957654
vn -0.5557921044142448 0.6182154037543596 0.555792093531043
vn -0.20343402288654228 0.6182154037543595 0.7592261276411872
vn -0.21633532863771654 0.5489491985099827 0.8073746361129129
vn -0.3317013476119802 0.7482625654503682 0.5745235844924298
vn -0.4690965213279026 0.7482625711671068 0.4690965553790079
vn -0.723872283381422 0.5489491931845512 0.41792786537176074
vn -0.6807035246147644 0.6182154077239065 0.39300435268556627
vn 6.109221117344119e-9 0.6182154077239064 0.7860087211047752
vn -9.83388122144564e-9 0.548949193184551 0.8358557191896399
vn -0.17170127554710307 0.7482625711671068 0.6407977813365835
vn -0.36730980680234876 0.8544981137745112 0.36730978666872455
vn -0.2597272553858079 0.854498105912309 0.4498608004728034
vn -0.5745235849768485 0.7482625674006477 0.33170134237343857
vn -0.8073746377570774 0.5489491756380455 0.21633538053896328
vn -0.7592261228345664 0.6182154089795179 0.20343402494636736
vn 0.20343402494636723 0.6182154089795177 0.7592261228345665
vn 0.21633538053896317 0.5489491756380452 0.8073746377570775
vn 1.0130201458665064e-9 0.7482625674006477 0.6634026908499777
vn -0.13444470481144277 0.854498113774511 0.5017545165755528
vn -0.25363289698743213 0.9334563226321854 0.2536328987015688
vn -0.17934554305778905 0.9334563222693195 0.31063559132968444
vn -0.449860799518895 0.8544981084138661 0.25972724880794673
vn -0.6407978122731958 0.7482625493860123 0.1717012550106474
vn -0.8358557191896397 0.5489491931845513 -9.833881099554433e-9
vn -0.7860087211047749 0.6182154077239065 6.1092212546155145e-9
vn 0.41792786537176063 0.5489491931845512 0.7238722833814221
vn 0.3930043526855661 0.6182154077239064 0.6807035246147644
vn 0.17170125501064723 0.7482625493860122 0.6407978122731959
vn 2.2708804950979863e-9 0.8544981084138661 0.5194545049541148
vn -0.09283608632851807 0.9334563226321854 0.34646898102600987
vn -0.13166448930193023 0.9825115377450195 0.13166449959947116
vn -0.09310082534845009 0.9825115498074383 0.16125535902543828
vn -0.31063558470138436 0.9334563275202475 0.1793455272083519
vn -0.5017544974634088 0.8544981239640939 0.1344447113764089
vn -0.6634026908499776 0.7482625674006478 1.0130203120141726e-9
vn -0.8073746361129128 0.5489491985099829 -0.21633532863771643
vn -0.7592261276411871 0.6182154037543597 -0.20343402288654214
vn 0.5910392061560222 0.5489491985099828 0.591039283162893
vn 0.5557920935310429 0.6182154037543596 0.5557921044142449
vn 0.3317013423734384 0.7482625674006477 0.5745235849768486
vn 0.1344447113764087 0.8544981239640937 0.501754497463409
vn 8.375702052312658e-9 0.9334563275202474 0.35869107127500766
vn -0.048192557459400674 0.9825115377450195 0.17985704212912995
vn 0 1 0
vn -0.16125536038675373 0.982511551399999 0.09310080618397061
vn -0.34646893701213544 0.9334563404760771 0.09283607117220657
vn -0.5194545049541146 0.8544981084138662 2.2708806848346813e-9
vn -0.6407977813365835 0.7482625711671071 -0.17170127554710293
vn -0.7238722821957597 0.5489491997429369 -0.41792785881093325
vn -0.6807035236841765 0.6182154013303486 -0.393004364354776
vn 0.7238722821957556 0.5489491997429367 0.4179278588109406
vn 0.6807035236841716 0.6182154013303484 0.39300436435478475
vn 0.46909655537900785 0.748262571167107 0.46909652132790286
vn 0.25972724880794656 0.8544981084138661 0.4498607995188952
vn 0.09283607117220637 0.933456340476077 0.34646893701213566
vn 1.6220578452705538e-8 0.982511551399999 0.18620164168332903
vn -0.1798569643095731 0.9825115534367596 0.04819252797510024
vn -0.35869107127500743 0.9334563275202475 8.3757022595816e-9
vn -0.5017545165755526 0.8544981137745111 -0.13444470481144258
vn -0.5745235844924261 0.7482625654503684 -0.3317013476119861
vn -0.5910392061560222 0.548949198509983 -0.5910392831628928
vn -0.5557920935310428 0.6182154037543597 -0.5557921044142445
vn 0.759226127641187 0.6182154037543596 0.20343402288654236
vn 0.8073746361129128 0.5489491985099829 0.21633532863771665
vn 0.5745235844924221 0.7482625654503681 0.33170134761199316
vn 0.3673097866687244 0.8544981137745112 0.3673098068023489
vn 0.1793455272083517 0.9334563275202474 0.3106355847013846
vn 0.04819252797510003 0.9825115534367596 0.17985696430957332
vn -0.18620164168332887 0.9825115513999992 1.622057867086693e-8
vn -0.34646898102600965 0.9334563226321855 -0.09283608632851786
vn -0.44986080047279964 0.8544981059123092 -0.2597272553858139
vn -0.46909655537900774 0.748262571167107 -0.4690965213279024
vn -0.39300435268556616 0.6182154077239067 -0.6807035246147642
vn -0.41792786537176063 0.5489491931845514 -0.7238722833814218
vn 0.7860087211047749 0.6182154077239065 -6.1092209800727215e-9
vn 0.8358557191896397 0.5489491931845513 9.833881343336847e-9
vn 0.6407977813365834 0.7482625711671069 0.17170127554710324
vn 0.4498608004728003 0.854498105912309 0.2597272553858131
vn 0.2536328987015686 0.9334563226321854 0.25363289698743235
vn 0.09310080618397039 0.982511551399999 0.16125536038675395
vn -0.17985704212912973 0.9825115377450195 -0.04819255745940046
vn -0.3106355913296836 0.9334563222693196 -0.17934554305778994
vn -0.36730978666872427 0.8544981137745112 -0.36730980680234854
vn -0.3317013423734384 0.7482625674006479 -0.5745235849768484
vn -0.20343402494636723 0.6182154089795181 -0.7592261228345663
vn -0.21633538053896317 0.5489491756380457 -0.8073746377570773
vn 0.7592261228345664 0.6182154089795179 -0.2034340249463671
vn 0.8073746377570776 0.5489491756380456 -0.21633538053896312
vn 0.6634026908499776 0.7482625674006478 -1.0130199797188403e-9
vn 0.5017545165755526 0.8544981137745111 0.13444470481144297
vn 0.3106355913296825 0.9334563222693196 0.17934554305779218
vn 0.13166449959947094 0.9825115377450195 0.13166448930193045
vn -0.1612553590254396 0.9825115498074385 -0.09310082534844724
vn -0.2536328987015685 0.9334563226321854 -0.25363289698743186
vn -0.25972724880794656 0.8544981084138663 -0.44986079951889485
vn -0.17170125501064723 0.7482625493860124 -0.6407978122731957
vn 9.83388122144564e-9 0.5489491931845515 -0.8358557191896396
vn -6.109221117344118e-9 0.6182154077239067 -0.7860087211047748
vn 0.6807035246147642 0.6182154077239066 -0.393004352685566
vn 0.723872283381422 0.5489491931845514 -0.4179278653717605
vn 0.6407978122731958 0.7482625493860123 -0.17170125501064706
vn 0.5194545049541146 0.8544981084138662 -2.2708803053612917e-9
vn 0.34646898102600954 0.9334563226321853 0.09283608632851825
vn 0.1612553590254403 0.9825115498074383 0.09310082534844644
vn -0.13166449959947094 0.9825115377450195 -0.13166448930193
vn -0.1793455272083517 0.9334563275202477 -0.31063558470138414
vn -0.1344447113764087 0.854498123964094 -0.5017544974634086
vn -1.0130201458665064e-9 0.7482625674006479 -0.6634026908499775
vn 0.21633532863771654 0.5489491985099831 -0.8073746361129127
vn 0.20343402288654222 0.6182154037543598 -0.7592261276411869
vn 0.5557921044142448 0.6182154037543598 -0.5557920935310428
vn 0.5910392831628929 0.548949198509983 -0.5910392061560221
vn 0.5745235849768485 0.7482625674006479 -0.33170134237343823
vn 0.5017544974634088 0.8544981239640939 -0.1344447113764085
vn 0.35869107127500743 0.9334563275202475 -8.375701845043718e-9
vn 0.17985704212912973 0.9825115377450195 0.04819255745940089
vn -0.09310080618397039 0.982511551399999 -0.1612553603867535
vn -0.09283607117220637 0.9334563404760772 -0.3464689370121352
vn -2.2708804950979863e-9 0.8544981084138663 -0.5194545049541144
vn 0.17170127554710307 0.748262571167107 -0.6407977813365833
vn 0.4179278588109236 0.5489491997429369 -0.7238722821957653
vn 0.39300436435476105 0.6182154013303486 -0.6807035236841851
vn 0.4690965213279026 0.748262571167107 -0.4690965553790076
vn 0.449860799518895 0.8544981084138663 -0.2597272488079464
vn 0.34646893701213544 0.9334563404760771 -0.09283607117220616
vn 0.18620164168332887 0.9825115513999992 -1.6220578234544152e-8
vn -0.04819252797510003 0.9825115534367596 -0.17985696430957288
vn -8.375702052312658e-9 0.9334563275202477 -0.3586910712750072
vn 0.1344447048114428 0.8544981137745115 -0.5017545165755525
vn 0.33170134761197523 0.7482625654503683 -0.5745235844924322
vn 0.3673098068023487 0.8544981137745112 -0.3673097866687241
vn 0.31063558470138436 0.9334563275202475 -0.1793455272083515
vn 0.1798569643095731 0.9825115534367596 -0.04819252797509981
vn -1.622057845270554e-8 0.9825115513999992 -0.18620164168332864
vn 0.09283608632851804 0.9334563226321854 -0.3464689810260093
vn 0.2597272553857971 0.8544981059123092 -0.4498608004728093
vn 0.2536328969874321 0.9334563226321854 -0.2536328987015683
vn 0.16125536038675378 0.9825115513999992 -0.0931008061839702
vn 0.048192557459400674 0.9825115377450195 -0.1798570421291295
vn 0.1793455430577812 0.9334563222693197 -0.31063559132968854
vn 0.13166448930193023 0.9825115377450195 -0.1316644995994707
vn 0.09310082534843907 0.9825115498074385 -0.16125535902544422
usemtl material_0_0
f 1//1 2//2 3//3
f 2//2 1//1 4//4
f 5//5 3//3 6//6
f 3//3 5//5 1//1
f 7//7 4//4 1//1
f 4//4 7//7 8//8
f 4//4 9//9 2//2
f 9//9 4//4 10//10
f 11//11 6//6 12//12
f 6//6 11//11 5//5
f 13//13 1//1 5//5
f 1//1 13//13 7//7
f 7//7 14//14 8//8
f 14//14 7//7 15//15
f 4//4 16//16 10//10
f 16//16 4//4 8//8
f 10//10 17//17 9//9
f 17//17 10//10 18//18
f 19//19 12//12 20//20
f 12//12 19//19 11//11
f 5//5 21//21 13//13
f 21//21 5//5 11//11
f 13//13 15//15 7//7
f 15//15 13//13 22//22
f 15//15 23//23 14//14
f 23//23 15//15 24//24
f 8//8 25//25 16//16
f 25//25 8//8 14//14
f 10//10 26//26 18//18
f 26//26 10//10 16//16
f 18//18 27//27 17//17
f 27//27 18//18 28//28
f 29//29 19//19 20//20
f 19//19 29//29 30//30
f 11//11 31//31 21//21
f 31//31 11//11 19//19
f 13//13 32//32 22//22
f 32//32 13//13 21//21
f 15//15 33//33 24//24
f 33//33 15//15 22//22
f 24//24 34//34 23//23
f 34//34 24//24 35//35
f 14//14 36//36 25//25
f 36//36 14//14 23//23
f 16//16 37//37 26//26
f 37//37 16//16 25//25
f 18//18 38//38 28//28
f 38//38 18//18 26//26
f 28//28 39//39 27//27
f 39//39 28//28 40//40
f 41//41 30//30 29//29
f 30//30 41//41 42//42
f 19//19 43//43 31//31
f 43//43 19//19 30//30
f 21//21 44//44 32//32
f 44//44 21//21 31//31
f 22//22 45//45 33//33
f 45//45 22//22 32//32
f 24//24 46//46 35//35
f 46//46 24//24 33//33
f 47//47 34//34 35//35
f 23//23 48//48 36//36
f 48//48 23//23 34//34
f 25//25 49//49 37//37
f 49//49 25//25 36//36
f 26//26 50//50 38//38
f 50//50 26//26 37//37
f 28//28 51//51 40//40
f 51//51 28//28 38//38
f 40//40 52//52 39//39
f 52//52 40//40 53//53
f 54//54 42//42 41//41
f 42//42 54//54 55//55
f 30//30 56//56 43//43
f 56//56 30//30 42//42
f 31//31 57//57 44//44
f 57//57 31//31 43//43
f 32//32 58//58 45//45
f 58//58 32//32 44//44
f 33//33 59//59 46//46
f 59//59 33//33 45//45
f 46//46 47//47 35//35
f 47//47 48//48 34//34
f 36//36 60//60 49//49
f 60//60 36//36 48//48
f 37//37 61//61 50//50
f 61//61 37//37 49//49
f 38//38 62//62 51//51
f 62//62 38//38 50//50
f 51//51 53//53 40//40
f 53//53 51//51 63//63
f 53//53 64//64 52//52
f 64//64 53//53 65//65
f 54//54 66//66 55//55
f 66//66 54//54 67//67
f 55//55 56//56 42//42
f 56//56 55//55 68//68
f 43//43 69//69 57//57
f 69//69 43//43 56//56
f 44//44 70//70 58//58
f 70//70 44//44 57//57
f 45//45 71//71 59//59
f 71//71 45//45 58//58
f 59//59 47//47 46//46
f 47//47 60//60 48//48
f 49//49 72//72 61//61
f 72//72 49//49 60//60
f 50//50 73//73 62//62
f 73//73 50//50 61//61
f 51//51 74//74 63//63
f 74//74 51//51 62//62
f 75//75 53//53 63//63
f 53//53 75//75 65//65
f 76//76 64//64 65//65
f 64//64 76//76 77//77
f 67//67 78//78 66//66
f 78//78 67//67 79//79
f 66//66 68//68 55//55
f 68//68 66//66 80//80
f 56//56 81//81 69//69
f 81//81 56//56 68//68
f 57//57 82//82 70//70
f 82//82 57//57 69//69
f 58//58 83//83 71//71
f 83//83 58//58 70//70
f 71//71 47//47 59//59
f 47//47 72//72 60//60
f 61//61 84//84 73//73
f 84//84 61//61 72//72
f 62//62 85//85 74//74
f 85//85 62//62 73//73
f 74//74 75//75 63//63
f 75//75 74//74 86//86
f 75//75 76//76 65//65
f 76//76 75//75 87//87
f 88//88 77//77 76//76
f 77//77 88//88 89//89
f 79//79 90//90 78//78
f 90//90 79//79 91//91
f 80//80 78//78 92//92
f 78//78 80//80 66//66
f 81//81 80//80 93//93
f 80//80 81//81 68//68
f 69//69 94//94 82//82
f 94//94 69//69 81//81
f 70//70 95//95 83//83
f 95//95 70//70 82//82
f 83//83 47//47 71//71
f 47//47 84//84 72//72
f 73//73 96//96 85//85
f 96//96 73//73 84//84
f 85//85 86//86 74//74
f 86//86 85//85 97//97
f 86//86 87//87 75//75
f 87//87 86//86 98//98
f 87//87 88//88 76//76
f 88//88 87//87 99//99
f 88//88 100//100 89//89
f 100//100 88//88 101//101
f 102//102 91//91 103//103
f 91//91 102//102 90//90
f 92//92 90//90 104//104
f 90//90 92//92 78//78
f 93//93 92//92 105//105
f 92//92 93//93 80//80
f 94//94 93//93 106//106
f 93//93 94//94 81//81
f 82//82 107//107 95//95
f 107//107 82//82 94//94
f 95//95 47//47 83//83
f 47//47 96//96 84//84
f 96//96 97//97 85//85
f 97//97 96//96 108//108
f 97//97 98//98 86//86
f 98//98 97//97 109//109
f 98//98 99//99 87//87
f 99//99 98//98 110//110
f 99//99 101//101 88//88
f 101//101 99//99 111//111
f 101//101 112//112 100//100
f 112//112 101//101 113//113
f 114//114 103//103 115//115
f 103//103 114//114 102//102
f 104//104 102//102 116//116
f 102//102 104//104 90//90
f 105//105 104//104 117//117
f 104//104 105//105 92//92
f 106//106 105//105 118//118
f 105//105 106//106 93//93
f 107//107 106//106 119//119
f 106//106 107//107 94//94
f 107//107 47//47 95//95
f 47//47 108//108 96//96
f 108//108 109//109 97//97
f 109//109 108//108 120//120
f 109//109 110//110 98//98
f 110//110 109//109 121//121
f 110//110 111//111 99//99
f 111//111 110//110 122//122
f 111//111 113//113 101//101
f 113//113 111//111 123//123
f 113//113 124//124 112//112
f 124//124 113//113 125//125
f 125//125 115//115 124//124
f 115//115 125//125 114//114
f 116//116 114//114 126//126
f 114//114 116//116 102//102
f 117//117 116//116 127//127
f 116//116 117//117 104//104
f 118//118 117//117 128//128
f 117//117 118//118 105//105
f 119//119 118//118 129//129
f 118//118 119//119 106//106
f 107//107 119//119 47//47
f 47//47 120//120 108//108
f 120//120 121//121 109//109
f 121//121 120//120 130//130
f 121//121 122//122 110//110
f 122//122 121//121 131//131
f 122//122 123//123 111//111
f 123//123 122//122 132//132
f 123//123 125//125 113//113
f 125//125 123//123 133//133
f 133//133 114//114 125//125
f 114//114 133//133 126//126
f 127//127 126//126 134//134
f 126//126 127//127 116//116
f 128//128 127//127 135//135
f 127//127 128//128 117//117
f 129//129 128//128 136//136
f 128//128 129//129 118//118
f 119//119 129//129 47//47
f 47//47 130//130 120//120
f 130//130 131//131 121//121
f 131//131 130//130 137//137
f 131//131 132//132 122//122
f 132//132 131//131 138//138
f 132//132 133//133 123//123
f 133//133 132//132 139//139
f 134//134 133//133 139//139
f 133//133 134//134 126//126
f 135//135 134//134 140//140
f 134//134 135//135 127//127
f 136//136 135//135 141//141
f 135//135 136//136 128//128
f 129//129 136//136 47//47
f 47//47 137//137 130//130
f 137//137 138//138 131//131
f 138//138 137//137 142//142
f 138//138 139//139 132//132
f 139//139 138//138 143//143
f 143//143 134//134 139//139
f 134//134 143//143 140//140
f 141//141 140//140 144//144
f 140//140 141//141 135//135
f 136//136 141//141 47//47
f 47//47 142//142 137//137
f 142//142 143//143 138//138
f 143//143 142//142 145//145
f 144//144 143//143 145//145
f 143//143 144//144 140//140
f 141//141 144//144 47//47
f 145//145 142//142 47//47
f 144//144 145//145 47//47
