# SSTK version 0.8.0
# 49
mtllib original-49.mtl
o #ID280
v 0.056515 0.635482 0.469924
v 0.056515 0.651875 0.461728
v 0.056515 0.651875 0.469924
v 0.056515 0.619089 0.469924
v 0.056515 0.619089 0.461728
v 0.056515 0.619089 0.461728
v 0.056515 0.619089 0.469924
v 0.056515 0.651875 0.461728
v 0.056515 0.635482 0.469924
v 0.056515 0.651875 0.469924
v 0.056515 0.619089 0.461728
v -0.074629 0.619089 0.469924
v -0.074629 0.619089 0.461728
v -0.009057 0.619089 0.469924
v 0.056515 0.619089 0.469924
v 0.056515 0.619089 0.469924
v 0.056515 0.619089 0.461728
v -0.009057 0.619089 0.469924
v -0.074629 0.619089 0.469924
v -0.074629 0.619089 0.461728
v -0.009057 0.651875 0.469924
v -0.074629 0.651875 0.461728
v -0.074629 0.651875 0.469924
v 0.056515 0.651875 0.461728
v 0.056515 0.651875 0.469924
v 0.056515 0.651875 0.469924
v -0.009057 0.651875 0.469924
v 0.056515 0.651875 0.461728
v -0.074629 0.651875 0.461728
v -0.074629 0.651875 0.469924
v -0.074629 0.651875 0.461728
v -0.074629 0.635482 0.469924
v -0.074629 0.651875 0.469924
v -0.074629 0.619089 0.469924
v -0.074629 0.619089 0.461728
v -0.074629 0.619089 0.461728
v -0.074629 0.651875 0.461728
v -0.074629 0.619089 0.469924
v -0.074629 0.635482 0.469924
v -0.074629 0.651875 0.469924
vn 1 0 0
vn -1 0 0
vn 0 -1 0
vn 0 1 0
usemtl material_0_0
f 1//1 2//1 3//1
f 2//1 1//1 4//1
f 2//1 4//1 5//1
f 6//2 7//2 8//2
f 7//2 9//2 8//2
f 10//2 8//2 9//2
f 11//3 12//3 13//3
f 12//3 11//3 14//3
f 14//3 11//3 15//3
f 16//4 17//4 18//4
f 18//4 17//4 19//4
f 20//4 19//4 17//4
f 21//4 22//4 23//4
f 22//4 21//4 24//4
f 24//4 21//4 25//4
f 26//3 27//3 28//3
f 28//3 27//3 29//3
f 30//3 29//3 27//3
f 31//2 32//2 33//2
f 32//2 31//2 34//2
f 34//2 31//2 35//2
f 36//1 37//1 38//1
f 38//1 37//1 39//1
f 40//1 39//1 37//1
