# SSTK version 0.8.0
# 22
mtllib original-22.mtl
o #ID48
v -0.009035 0.357055 0.472656
v -0.009035 0.357040 0.472680
v -0.009035 0.357040 0.472656
v -0.009035 0.357055 0.472680
v -0.009035 0.357055 0.472680
v -0.009035 0.357055 0.472656
v -0.009035 0.357040 0.472680
v -0.009035 0.357040 0.472656
v -0.009035 0.357040 0.472656
v -0.009020 0.357040 0.472680
v -0.009020 0.357040 0.472656
v -0.009035 0.357040 0.472680
v -0.009035 0.357040 0.472680
v -0.009035 0.357040 0.472656
v -0.009020 0.357040 0.472680
v -0.009020 0.357040 0.472656
v -0.009020 0.357040 0.472680
v -0.009035 0.357055 0.472656
v -0.009020 0.357040 0.472656
v -0.009035 0.357055 0.472680
v -0.009035 0.357055 0.472680
v -0.009020 0.357040 0.472680
v -0.009035 0.357055 0.472656
v -0.009020 0.357040 0.472656
vt 0.1864784 0.2430556
vt 0.1864784 4.797144e-14
vt 0.0322716 0.2430556
vt 0.0322716 2.280638e-14
vt -0.21875 0.2430556
vt -0.21875 2.376057e-14
vt -0.3729568 0.2430556
vt -0.3729568 -1.601857e-15
vt 0.02281946 0.2430556
vt 0.2409008 0.2430556
vt 0.02281946 3.937077e-14
vt 0.2409008 -1.115671e-14
vn 1 0 0
vn 0 1 0
vn -0.7071067811865475 -0.7071067811865475 0
vn -1 0 0
vn 0 -1 0
vn 0.7071067811865475 0.7071067811865475 0
usemtl material_0_0
f 1//1 2//1 3//1
f 2//1 1//1 4//1
f 9//2 10//2 11//2
f 10//2 9//2 12//2
f 17//3 18//3 19//3
f 18//3 17//3 20//3
usemtl material_1_0
f 5/1/4 6/2/4 7/3/4
f 8/4/4 7/3/4 6/2/4
f 13/5/5 14/6/5 15/7/5
f 16/8/5 15/7/5 14/6/5
f 21/9/6 22/10/6 23/11/6
f 24/12/6 23/11/6 22/10/6
