# SSTK version 0.8.0
# 79
mtllib original-79.mtl
o #ID364
v 0.146871 0.388424 0.517054
v 0.141212 0.392766 0.469241
v 0.141212 0.392766 0.517054
v 0.146871 0.388424 0.469241
v 0.141212 0.392766 0.469241
v 0.137797 0.386851 0.517054
v 0.141212 0.392766 0.517054
v 0.137797 0.386851 0.510224
v 0.137797 0.386851 0.469241
v 0.139504 0.389808 0.469241
v 0.146871 0.388424 0.517054
v 0.137797 0.386851 0.517054
v 0.142041 0.383594 0.517054
v 0.141212 0.392766 0.517054
v 0.142041 0.383594 0.510224
v 0.146871 0.388424 0.517054
v 0.142041 0.383594 0.517054
v 0.146871 0.388424 0.469241
v 0.142041 0.383594 0.469241
v 0.144456 0.386009 0.469241
v 0.142041 0.383594 0.510224
v 0.137797 0.386851 0.517054
v 0.137797 0.386851 0.510224
v 0.142041 0.383594 0.517054
vn 0.608761430209528 0.7933533393698233 0
vn -0.866025402838329 0.5000000016387101 0
vn 0 0 1
vn 0.7071067811865476 -0.7071067811865476 0
vn -0.608761430209528 -0.7933533393698233 0
usemtl material_0_0
f 1//1 2//1 3//1
f 2//1 1//1 4//1
f 5//2 6//2 7//2
f 6//2 5//2 8//2
f 8//2 5//2 9//2
f 9//2 5//2 10//2
f 11//3 12//3 13//3
f 12//3 11//3 14//3
f 15//4 16//4 17//4
f 16//4 15//4 18//4
f 18//4 15//4 19//4
f 18//4 19//4 20//4
f 21//5 22//5 23//5
f 22//5 21//5 24//5
