# SSTK version 0.8.0
# 97
mtllib original-97.mtl
o #ID438
v -0.237419 0.161035 0.362477
v -0.259307 0.084175 0.392057
v -0.188437 0.161035 0.390757
v -0.211914 0.084175 0.431420
v -0.188437 0.161035 0.390757
v -0.163581 0.161035 0.234584
v -0.237419 0.161035 0.362477
v -0.118322 0.161035 0.269313
v -0.065617 0.161035 0.291144
v -0.139455 0.161035 0.419036
v -0.229696 0.000006 0.462219
v -0.282615 0.000006 0.418267
v -0.154129 0.084175 0.452782
v -0.139455 0.161035 0.419036
v -0.244301 -0.085148 0.487515
v -0.301758 -0.085148 0.439793
v -0.165173 0.000006 0.486071
v -0.174244 -0.085148 0.513413
v -0.255694 -0.171092 0.507249
v -0.316692 -0.171092 0.456586
v -0.181320 -0.171092 0.534743
v -0.263851 -0.257631 0.521377
v -0.327384 -0.257631 0.468609
v -0.186386 -0.257631 0.550014
v -0.268753 -0.344566 0.529867
v -0.333809 -0.344566 0.475834
v -0.189431 -0.344566 0.559190
v -0.335952 -0.431700 0.478244
v -0.270388 -0.431700 0.532699
v -0.190446 -0.431700 0.562251
v -0.270388 -0.443687 0.532699
v -0.335952 -0.488154 0.478244
v -0.270388 -0.488154 0.532699
v -0.335952 -0.469336 0.478244
v -0.335952 -0.443687 0.478244
v -0.190446 -0.469336 0.562251
v -0.190446 -0.488154 0.562251
v -0.190446 -0.443687 0.562251
vn -0.4515187081350109 0.4295619049237053 0.782053339640212
vn -0.5534239831615074 0.43675919405698727 0.7091990561671261
vn -0.44228561831179464 0.4664051162531943 0.766061159025438
vn -0.44567544963788974 0.45331399666028316 0.7719325190856684
vn 0 1 0
vn -0.4672790062204295 0.3558108024042795 0.8093509765473017
vn -0.5979561281650793 0.3523371995033166 0.7199353905983419
vn -0.3374724105556874 0.43675919405698727 0.8338787552878563
vn -0.4515187081350108 0.4295619049237053 0.782053339640212
vn -0.478589493264558 0.2894967940281543 0.8289413146804747
vn -0.6121377192165921 0.28653729120472565 0.7370100362012494
vn -0.32450427658112607 0.35233719950331654 0.8778128914106468
vn -0.3322005579868917 0.2865372912047256 0.8986318322996666
vn -0.4877411517535798 0.22007789934867247 0.8447924520877107
vn -0.6235980238671138 0.21774469285167597 0.7508080669278665
vn -0.3384198508567488 0.217744692851676 0.9154557626018993
vn -0.49448062442189245 0.14817440634692292 0.8564655611144398
vn -0.6320291341029947 0.14656170398113824 0.7609591582806293
vn -0.34299539877327806 0.14656170398113824 0.9278328639073448
vn -0.4986092348614448 0.0745340872484695 0.8636165241291542
vn -0.6371905614313943 0.07370990289749575 0.7671734084531255
vn -0.34579638365260645 0.07370990289749571 0.9354099161691739
vn -0.6388195193688238 0.018479760157652243 0.7691346567005681
vn -0.4999124033647042 0.01871797000328945 0.865873678177759
vn -0.34668039549835467 0.018479760157652205 0.9378012592450599
vn -0.5000000019902245 0 0.866025402635382
vn -0.6389286230130702 0 0.7692660233590342
vn -0.5000000016387101 0 0.866025402838329
vn -0.3467396105402795 0 0.9379614291016315
usemtl material_0_0
f 1//1 2//2 3//3
f 3//3 2//2 4//4
f 5//5 6//5 7//5
f 6//5 5//5 8//5
f 8//5 5//5 9//5
f 9//5 5//5 10//5
f 11//6 2//2 12//7
f 2//2 11//6 4//4
f 3//3 4//4 13//8
f 3//3 13//8 14//9
f 15//10 12//7 16//11
f 12//7 15//10 11//6
f 13//8 11//6 17//12
f 11//6 13//8 4//4
f 17//12 15//10 18//13
f 15//10 17//12 11//6
f 19//14 16//11 20//15
f 16//11 19//14 15//10
f 18//13 19//14 21//16
f 19//14 18//13 15//10
f 22//17 20//15 23//18
f 20//15 22//17 19//14
f 21//16 22//17 24//19
f 22//17 21//16 19//14
f 25//20 23//18 26//21
f 23//18 25//20 22//17
f 24//19 25//20 27//22
f 25//20 24//19 22//17
f 25//20 28//23 29//24
f 28//23 25//20 26//21
f 27//22 29//24 30//25
f 29//24 27//22 25//20
f 31//26 32//27 33//28
f 32//27 31//26 34//27
f 34//27 31//26 35//27
f 35//27 31//26 29//24
f 35//27 29//24 28//23
f 36//29 33//28 37//29
f 33//28 36//29 31//26
f 31//26 36//29 38//29
f 31//26 38//29 30//25
f 31//26 30//25 29//24
