# SSTK version 0.8.0
# 12
mtllib original-12.mtl
o #ID130
v -0.015654 0.337950 0.544376
v -0.015654 0.341486 0.544376
v -0.015887 0.339718 0.544376
v -0.014972 0.336303 0.544376
v -0.014972 0.343133 0.544376
v -0.013887 0.334888 0.544376
v -0.013887 0.344548 0.544376
v -0.012472 0.333802 0.544376
v -0.012472 0.345633 0.544376
v -0.010825 0.333120 0.544376
v -0.010825 0.346315 0.544376
v -0.009057 0.332887 0.544376
v -0.009057 0.346548 0.544376
v -0.007289 0.333120 0.544376
v -0.007289 0.346315 0.544376
v -0.005642 0.333802 0.544376
v -0.005642 0.345633 0.544376
v -0.004227 0.334888 0.544376
v -0.004227 0.344548 0.544376
v -0.003141 0.336303 0.544376
v -0.003141 0.343133 0.544376
v -0.002459 0.337950 0.544376
v -0.002459 0.341486 0.544376
v -0.002226 0.339718 0.544376
v -0.002226 0.339718 0.544376
v -0.002459 0.337950 0.544376
v -0.002459 0.341486 0.544376
v -0.003141 0.343133 0.544376
v -0.003141 0.336303 0.544376
v -0.004227 0.344548 0.544376
v -0.004227 0.334888 0.544376
v -0.005642 0.345633 0.544376
v -0.005642 0.333802 0.544376
v -0.007289 0.346315 0.544376
v -0.007289 0.333120 0.544376
v -0.009057 0.346548 0.544376
v -0.009057 0.332887 0.544376
v -0.010825 0.346315 0.544376
v -0.010825 0.333120 0.544376
v -0.012472 0.345633 0.544376
v -0.012472 0.333802 0.544376
v -0.013887 0.344548 0.544376
v -0.013887 0.334888 0.544376
v -0.014972 0.343133 0.544376
v -0.014972 0.336303 0.544376
v -0.015654 0.341486 0.544376
v -0.015654 0.337950 0.544376
v -0.015887 0.339718 0.544376
v -0.002226 0.327887 0.537545
v 0.000603 0.330058 0.537545
v 0.000603 0.330058 0.537545
v -0.002226 0.327887 0.537545
v 0.002774 0.332887 0.537545
v 0.002774 0.332887 0.537545
v 0.004139 0.336182 0.537545
v 0.004139 0.336182 0.537545
v 0.004604 0.339718 0.537545
v 0.004604 0.339718 0.537545
v 0.004139 0.343253 0.537545
v 0.004139 0.343253 0.537545
v 0.002774 0.346548 0.537545
v 0.002774 0.346548 0.537545
v 0.000603 0.349377 0.537545
v 0.000603 0.349377 0.537545
v -0.002226 0.351548 0.537545
v -0.002226 0.351548 0.537545
v -0.005521 0.352913 0.537545
v -0.005521 0.352913 0.537545
v -0.009057 0.353379 0.537545
v -0.009057 0.353379 0.537545
v -0.012592 0.352913 0.537545
v -0.012592 0.352913 0.537545
v -0.015887 0.351548 0.537545
v -0.015887 0.351548 0.537545
v -0.018716 0.349377 0.537545
v -0.018716 0.349377 0.537545
v -0.020887 0.346548 0.537545
v -0.020887 0.346548 0.537545
v -0.022252 0.343253 0.537545
v -0.022252 0.343253 0.537545
v -0.022718 0.339718 0.537545
v -0.022718 0.339718 0.537545
v -0.022252 0.336182 0.537545
v -0.022252 0.336182 0.537545
v -0.020887 0.332887 0.537545
v -0.020887 0.332887 0.537545
v -0.018716 0.330058 0.537545
v -0.018716 0.330058 0.537545
v -0.015887 0.327887 0.537545
v -0.015887 0.327887 0.537545
v -0.012592 0.326522 0.537545
v -0.012592 0.326522 0.537545
v -0.009057 0.326057 0.537545
v -0.009057 0.326057 0.537545
v -0.005521 0.326522 0.537545
v -0.005521 0.326522 0.537545
v -0.005642 0.333802 0.469241
v -0.004227 0.334888 0.469241
v -0.005642 0.333802 0.469241
v -0.004227 0.334888 0.469241
v -0.003141 0.336303 0.469241
v -0.003141 0.336303 0.469241
v -0.002459 0.337950 0.469241
v -0.002459 0.337950 0.469241
v -0.002226 0.339718 0.469241
v -0.002226 0.339718 0.469241
v -0.002459 0.341486 0.469241
v -0.002459 0.341486 0.469241
v -0.003141 0.343133 0.469241
v -0.003141 0.343133 0.469241
v -0.004227 0.344548 0.469241
v -0.004227 0.344548 0.469241
v -0.005642 0.345633 0.469241
v -0.005642 0.345633 0.469241
v -0.007289 0.346315 0.469241
v -0.007289 0.346315 0.469241
v -0.009057 0.347173 0.475491
v -0.009057 0.346548 0.469241
v -0.009057 0.347173 0.475491
v -0.009057 0.346548 0.469241
v -0.010825 0.346315 0.469241
v -0.010825 0.346315 0.469241
v -0.012472 0.345633 0.469241
v -0.012472 0.345633 0.469241
v -0.013887 0.344548 0.469241
v -0.013887 0.344548 0.469241
v -0.014972 0.343133 0.469241
v -0.014972 0.343133 0.469241
v -0.015654 0.341486 0.469241
v -0.015654 0.341486 0.469241
v -0.015887 0.339718 0.469241
v -0.015887 0.339718 0.469241
v -0.015654 0.337950 0.469241
v -0.015654 0.337950 0.469241
v -0.014972 0.336303 0.469241
v -0.014972 0.336303 0.469241
v -0.013887 0.334888 0.469241
v -0.013887 0.334888 0.469241
v -0.012472 0.333802 0.469241
v -0.012472 0.333802 0.469241
v -0.010825 0.333120 0.469241
v -0.010825 0.333120 0.469241
v -0.009057 0.332262 0.475491
v -0.009057 0.332887 0.469241
v -0.009057 0.332262 0.475491
v -0.009057 0.332887 0.469241
v -0.007289 0.333120 0.469241
v -0.007289 0.333120 0.469241
vt 0.03457222 0.02762777
vt 0.03433559 0.02583042
vt 0.03433559 0.02942513
vt 0.03364184 0.0311
vt 0.03364184 0.02415555
vt 0.03253824 0.03253824
vt 0.03253824 0.02271731
vt 0.0311 0.03364184
vt 0.0311 0.02161371
vt 0.02942513 0.03433559
vt 0.02942513 0.02091996
vt 0.02762777 0.03457222
vt 0.02762777 0.02068333
vt 0.02583042 0.03433559
vt 0.02583042 0.02091996
vt 0.02415555 0.03364184
vt 0.02415555 0.02161371
vt 0.02271731 0.03253824
vt 0.02271731 0.02271731
vt 0.02161371 0.0311
vt 0.02161371 0.02415555
vt 0.02091996 0.02942513
vt 0.02091996 0.02583042
vt 0.02068333 0.02762777
vt 0.04055017 0.04321077
vt 0.03692445 0.04321077
vt 0.03964374 0.05298978
vt 0.03783088 0.05298978
vt 0.04055017 0.03602952
vt 0.03692445 0.03602952
vt 0.03964374 0.04580853
vt 0.03783088 0.04580853
vt 0.03791029 0.02909297
vt 0.03428456 0.02909297
vt 0.03700386 0.03887198
vt 0.03519099 0.03887198
vt 0.03281043 0.02287383
vt 0.0291847 0.02287383
vt 0.03190399 0.03265284
vt 0.03009113 0.03265284
vt 0.0219724 0.01779592
vt 0.02287883 0.02757493
vt 0.02559813 0.01779592
vt 0.0246917 0.02757493
vt 0.01313918 0.0142053
vt 0.01404561 0.0239843
vt 0.01676491 0.0142053
vt 0.01585848 0.0239843
vt 0.003287 0.01234665
vt 0.004193432 0.02212566
vt 0.006912727 0.01234665
vt 0.006006296 0.02212566
vt -0.006912727 0.01234665
vt -0.006006296 0.02212566
vt -0.003287 0.01234665
vt -0.004193432 0.02212566
vt -0.01676491 0.0142053
vt -0.01585848 0.0239843
vt -0.01313918 0.0142053
vt -0.01404561 0.0239843
vt -0.02559813 0.01779592
vt -0.0246917 0.02757493
vt -0.0219724 0.01779592
vt -0.02287883 0.02757493
vt -0.03190399 0.03265284
vt -0.03009113 0.03265284
vt -0.03281043 0.02287383
vt -0.0291847 0.02287383
vt -0.03700386 0.03887198
vt -0.03519099 0.03887198
vt -0.03791029 0.02909297
vt -0.03428456 0.02909297
vt -0.03964374 0.04580853
vt -0.03783088 0.04580853
vt -0.04055017 0.03602952
vt -0.03692445 0.03602952
vt -0.03964374 0.05298978
vt -0.03783088 0.05298978
vt -0.04055017 0.04321077
vt -0.03692445 0.04321077
vt -0.03700386 0.05992633
vt -0.03519099 0.05992633
vt -0.03791029 0.05014732
vt -0.03428456 0.05014732
vt -0.03190399 0.06614547
vt -0.03009113 0.06614547
vt -0.03281043 0.05636646
vt -0.0291847 0.05636646
vt -0.02287883 0.07122338
vt -0.0219724 0.06144437
vt -0.0246917 0.07122338
vt -0.02559813 0.06144437
vt -0.01404561 0.074814
vt -0.01313918 0.06503499
vt -0.01585848 0.074814
vt -0.01676491 0.06503499
vt -0.004193432 0.07667264
vt -0.003287 0.06689364
vt -0.006006296 0.07667264
vt -0.006912727 0.06689364
vt 0.006006296 0.07667264
vt 0.006912727 0.06689364
vt 0.004193432 0.07667264
vt 0.003287 0.06689364
vt 0.01585848 0.074814
vt 0.01676491 0.06503499
vt 0.01404561 0.074814
vt 0.01313918 0.06503499
vt 0.0246917 0.07122338
vt 0.02559813 0.06144437
vt 0.02287883 0.07122338
vt 0.0219724 0.06144437
vt 0.03190399 0.06614547
vt 0.03281043 0.05636646
vt 0.03009113 0.06614547
vt 0.0291847 0.05636646
vt 0.03791029 0.05014732
vt 0.03428456 0.05014732
vt 0.03700386 0.05992633
vt 0.03519099 0.05992633
vt 0.03692445 0.06996104
vt 0.04055017 0.06996104
vt 0.03783088 0.0001761263
vt 0.03964374 0.0001761263
vt 0.03964374 0.001182439
vt 0.03783088 0.001182439
vt 0.04055017 0.07096736
vt 0.03692445 0.07096736
vt 0.03700386 0.002154463
vt 0.03519099 0.002154463
vt 0.03791029 0.07193938
vt 0.03428456 0.07193938
vt 0.03190399 0.003025956
vt 0.03009113 0.003025956
vt 0.03281043 0.07281087
vt 0.0291847 0.07281087
vt 0.02559813 0.07352244
vt 0.0246917 0.003737526
vt 0.0219724 0.07352244
vt 0.02287883 0.003737526
vt 0.01676491 0.0740256
vt 0.01585848 0.004240683
vt 0.01313918 0.0740256
vt 0.01404561 0.004240683
vt 0.006912727 0.07428605
vt 0.006006296 0.004501136
vt 0.003287 0.07428605
vt 0.004193432 0.004501136
vt -0.006912727 0.07428605
vt -0.003287 0.07428605
vt -0.006006296 0.004501136
vt -0.004193432 0.004501136
vt -0.01676491 0.0740256
vt -0.01313918 0.0740256
vt -0.01585848 0.004240683
vt -0.01404561 0.004240683
vt -0.0219724 0.07352244
vt -0.0227959 0.01012285
vt -0.02559813 0.07352244
vt -0.0246917 0.003737526
vt -0.02287883 0.003737526
vt -0.03281043 0.07281087
vt -0.0291847 0.07281087
vt -0.03198693 0.009411275
vt -0.03190399 0.003025956
vt -0.03009113 0.003025956
vt -0.03791029 0.07193938
vt -0.03428456 0.07193938
vt -0.03700386 0.002154463
vt -0.03519099 0.002154463
vt -0.04055017 0.07096736
vt -0.03692445 0.07096736
vt -0.03964374 0.001182439
vt -0.03783088 0.001182439
vt -0.04055017 0.06996104
vt -0.03692445 0.06996104
vt -0.03964374 0.0001761263
vt -0.03783088 0.0001761263
vt -0.03791029 0.06898902
vt -0.03428456 0.06898902
vt -0.03700386 -0.0007958974
vt -0.03519099 -0.0007958974
vt -0.03190399 -0.00166739
vt -0.03281043 0.06811753
vt -0.03009113 -0.00166739
vt -0.0291847 0.06811753
vt -0.0246917 -0.002378961
vt -0.02559813 0.06740596
vt -0.02287883 -0.002378961
vt -0.0219724 0.06740596
vt -0.01585848 -0.002882117
vt -0.01676491 0.0669028
vt -0.01404561 -0.002882117
vt -0.01313918 0.0669028
vt -0.006006296 -0.00314257
vt -0.006912727 0.06664235
vt -0.004193432 -0.00314257
vt -0.003287 0.06664235
vt 0.003287 0.06664235
vt 0.006912727 0.06664235
vt 0.004193432 -0.00314257
vt 0.006006296 -0.00314257
vt 0.01313918 0.0669028
vt 0.01676491 0.0669028
vt 0.01404561 -0.002882117
vt 0.01585848 -0.002882117
vt 0.02559813 0.06740596
vt 0.02477464 0.004006359
vt 0.0219724 0.06740596
vt 0.02287883 -0.002378961
vt 0.0246917 -0.002378961
vt 0.0291847 0.06811753
vt 0.03281043 0.06811753
vt 0.03000819 0.00471793
vt 0.03009113 -0.00166739
vt 0.03190399 -0.00166739
vt 0.03428456 0.06898902
vt 0.03791029 0.06898902
vt 0.03519099 -0.0007958974
vt 0.03700386 -0.0007958974
vn -0.39528789835621314 -0.10591709955954852 0.9124302962056997
vn -0.39528789835621314 0.10591709955954852 0.9124302962056997
vn -0.40923210736034643 0 0.9124303164107437
vn -0.3544054020756709 -0.2046161011983894 0.9124303053438944
vn -0.3544054020756709 0.2046161011983894 0.9124303053438944
vn -0.2893708040304477 -0.2893708040304477 0.9124303127086169
vn -0.2893708040304477 0.2893708040304477 0.9124303127086169
vn -0.20461610119838938 -0.3544054020756709 0.9124303053438944
vn -0.20461610119838938 0.3544054020756709 0.9124303053438944
vn -0.1059170995595485 -0.39528789835621314 0.9124302962056997
vn -0.1059170995595485 0.39528789835621314 0.9124302962056997
vn 0 -0.40923210736034643 0.9124303164107437
vn 0 0.40923210736034643 0.9124303164107437
vn 0.10591709955954853 -0.39528789835621314 0.9124302962056997
vn 0.10591709955954853 0.39528789835621314 0.9124302962056997
vn 0.20461610119838944 -0.3544054020756709 0.9124303053438944
vn 0.20461610119838944 0.3544054020756709 0.9124303053438944
vn 0.2893708040304477 -0.2893708040304477 0.9124303127086169
vn 0.2893708040304477 0.2893708040304477 0.9124303127086169
vn 0.3544054020756709 -0.2046161011983894 0.9124303053438944
vn 0.3544054020756709 0.2046161011983894 0.9124303053438944
vn 0.39528789835621314 -0.10591709955954852 0.9124302962056997
vn 0.39528789835621314 0.10591709955954852 0.9124302962056997
vn 0.40923210736034643 0 0.9124303164107437
vn 0.4727841854938255 -0.8188862748745673 0.3254233900152149
vn 0.6686178286766048 -0.6686178286766048 0.3254234139572087
vn 0.8188862748745673 -0.4727841854938255 0.3254233900152149
vn 0.9133489394082768 -0.24473111055941593 0.3254234140410476
vn 0.9455684055097704 0 0.3254234018962226
vn 0.9133489394082768 0.24473111055941593 0.3254234140410476
vn 0.8188862748745673 0.4727841854938255 0.3254233900152149
vn 0.6686178286766048 0.6686178286766048 0.3254234139572087
vn 0.4727841854938255 0.8188862748745673 0.3254233900152149
vn 0.24473111055941593 0.9133489394082768 0.3254234140410476
vn 0 0.9455684055097704 0.3254234018962226
vn -0.24473111055941593 0.9133489394082768 0.3254234140410476
vn -0.4727841854938255 0.8188862748745673 0.3254233900152149
vn -0.6686178286766048 0.6686178286766048 0.3254234139572087
vn -0.8188862748745673 0.4727841854938255 0.3254233900152149
vn -0.9133489394082768 0.24473111055941593 0.3254234140410476
vn -0.9455684055097704 0 0.3254234018962226
vn -0.9133489394082768 -0.24473111055941593 0.3254234140410476
vn -0.8188862748745673 -0.4727841854938255 0.3254233900152149
vn -0.6686178286766048 -0.6686178286766048 0.3254234139572087
vn -0.4727841854938255 -0.8188862748745673 0.3254233900152149
vn -0.24473111055941593 -0.9133489394082768 0.3254234140410476
vn 0 -0.9455684055097704 0.3254234018962226
vn 0.24473111055941593 -0.9133489394082768 0.3254234140410476
vn 0.4975185920655615 -0.8617274862571493 -0.09950371841311233
vn 0.7035975442188771 -0.7035975442188771 -0.09950372625349405
vn 0.8617274862571493 -0.4975185920655615 -0.09950371841311233
vn 0.9611321124267616 -0.2575346033297411 -0.0995037212865131
vn 0.9950371902099892 0 -0.09950371902099896
vn 0.9611321124267616 0.2575346033297411 -0.0995037212865131
vn 0.8617274862571493 0.4975185920655615 -0.09950371841311233
vn 0.7035975442188771 0.7035975442188771 -0.09950372625349405
vn 0.4975185920655615 0.8617274862571493 -0.09950371841311233
vn 0.2575346033297411 0.9611321124267616 -0.09950372128651307
vn 0 0.9950371902099892 -0.09950371902099893
vn -0.2575346033297411 0.9611321124267616 -0.09950372128651307
vn -0.4975185920655615 0.8617274862571493 -0.0995037184131123
vn -0.7035975442188771 0.7035975442188771 -0.09950372625349402
vn -0.8617274862571493 0.4975185920655615 -0.0995037184131123
vn -0.9611321124267616 0.2575346033297411 -0.09950372128651304
vn -0.9950371902099892 0 -0.0995037190209989
vn -0.9611321124267616 -0.2575346033297411 -0.09950372128651304
vn -0.8617274862571493 -0.4975185920655615 -0.0995037184131123
vn -0.7035975442188771 -0.7035975442188771 -0.09950372625349402
vn -0.4975185920655615 -0.8617274862571493 -0.0995037184131123
vn -0.2575346033297411 -0.9611321124267616 -0.09950372128651307
vn 0 -0.9950371902099892 -0.09950371902099893
vn 0.2575346033297411 -0.9611321124267616 -0.09950372128651307
vn -0.40923210736034643 0 -0.9124303164107437
vn -0.39528789835621314 0.10591709955954852 -0.9124302962056997
vn -0.39528789835621314 -0.10591709955954852 -0.9124302962056997
vn -0.3544054020756709 -0.2046161011983894 -0.9124303053438944
vn -0.3544054020756709 0.2046161011983894 -0.9124303053438944
vn -0.2893708040304477 -0.2893708040304477 -0.9124303127086169
vn -0.2893708040304477 0.2893708040304477 -0.9124303127086169
vn -0.20461610119838944 -0.3544054020756709 -0.9124303053438944
vn -0.20461610119838944 0.3544054020756709 -0.9124303053438944
vn -0.10591709955954853 -0.39528789835621314 -0.9124302962056997
vn -0.10591709955954853 0.39528789835621314 -0.9124302962056997
vn 0 -0.40923210736034643 -0.9124303164107437
vn 0 0.40923210736034643 -0.9124303164107437
vn 0.1059170995595485 -0.39528789835621314 -0.9124302962056997
vn 0.1059170995595485 0.39528789835621314 -0.9124302962056997
vn 0.20461610119838938 -0.3544054020756709 -0.9124303053438944
vn 0.20461610119838938 0.3544054020756709 -0.9124303053438944
vn 0.2893708040304477 -0.2893708040304477 -0.9124303127086169
vn 0.2893708040304477 0.2893708040304477 -0.9124303127086169
vn 0.3544054020756709 -0.2046161011983894 -0.9124303053438944
vn 0.3544054020756709 0.2046161011983894 -0.9124303053438944
vn 0.39528789835621314 -0.10591709955954852 -0.9124302962056997
vn 0.39528789835621314 0.10591709955954852 -0.9124302962056997
vn 0.40923210736034643 0 -0.9124303164107437
vn -0.6686178286766048 0.6686178286766048 -0.3254234139572087
vn -0.4727841854938255 0.8188862748745673 -0.3254233900152149
vn -0.8188862748745673 0.4727841854938255 -0.3254233900152149
vn -0.9133489394082768 0.24473111055941593 -0.3254234140410476
vn -0.9455684055097704 0 -0.3254234018962226
vn -0.9133489394082768 -0.24473111055941593 -0.3254234140410476
vn -0.8188862748745673 -0.4727841854938255 -0.3254233900152149
vn -0.6686178286766048 -0.6686178286766048 -0.3254234139572087
vn -0.4727841854938255 -0.8188862748745673 -0.3254233900152149
vn -0.24473111055941593 -0.9133489394082768 -0.3254234140410476
vn 0 -0.9455684055097704 -0.3254234018962226
vn 0.24473111055941593 -0.9133489394082768 -0.3254234140410476
vn 0.4727841854938255 -0.8188862748745673 -0.3254233900152149
vn 0.6686178286766048 -0.6686178286766048 -0.3254234139572087
vn 0.8188862748745673 -0.4727841854938255 -0.3254233900152149
vn 0.9133489394082768 -0.24473111055941593 -0.3254234140410476
vn 0.9455684055097704 0 -0.3254234018962226
vn 0.9133489394082768 0.24473111055941593 -0.3254234140410476
vn 0.8188862748745673 0.4727841854938255 -0.3254233900152149
vn 0.6686178286766048 0.6686178286766048 -0.3254234139572087
vn 0.4727841854938255 0.8188862748745673 -0.3254233900152149
vn 0.24473111055941593 0.9133489394082768 -0.3254234140410476
vn 0 0.9455684055097704 -0.3254234018962226
vn -0.24473111055941593 0.9133489394082768 -0.3254234140410476
vn -0.4975185920655615 0.8617274862571493 0.09950371841311233
vn -0.7035975442188771 0.7035975442188771 0.09950372625349405
vn -0.8617274862571493 0.4975185920655615 0.09950371841311233
vn -0.9611321124267616 0.2575346033297411 0.0995037212865131
vn -0.9950371902099892 0 0.09950371902099896
vn -0.9611321124267616 -0.2575346033297411 0.0995037212865131
vn -0.8617274862571493 -0.4975185920655615 0.09950371841311233
vn -0.7035975442188771 -0.7035975442188771 0.09950372625349405
vn -0.4975185920655615 -0.8617274862571493 0.09950371841311233
vn -0.2575346033297411 -0.9611321124267616 0.09950372128651307
vn 0 -0.9950371902099892 0.09950371902099893
vn 0.2575346033297411 -0.9611321124267616 0.09950372128651307
vn 0.4975185920655615 -0.8617274862571493 0.0995037184131123
vn 0.7035975442188771 -0.7035975442188771 0.09950372625349402
vn 0.8617274862571493 -0.4975185920655615 0.0995037184131123
vn 0.9611321124267616 -0.2575346033297411 0.09950372128651304
vn 0.9950371902099892 0 0.0995037190209989
vn 0.9611321124267616 0.2575346033297411 0.09950372128651304
vn 0.8617274862571493 0.4975185920655615 0.0995037184131123
vn 0.7035975442188771 0.7035975442188771 0.09950372625349402
vn 0.4975185920655615 0.8617274862571493 0.0995037184131123
vn 0.2575346033297411 0.9611321124267616 0.09950372128651307
vn 0 0.9950371902099892 0.09950371902099893
vn -0.2575346033297411 0.9611321124267616 0.09950372128651307
usemtl material_0_0
f 25/1/73 26/2/74 27/3/75
f 27/3/75 26/2/74 28/4/76
f 26/2/74 29/5/77 28/4/76
f 28/4/76 29/5/77 30/6/78
f 29/5/77 31/7/79 30/6/78
f 30/6/78 31/7/79 32/8/80
f 31/7/79 33/9/81 32/8/80
f 32/8/80 33/9/81 34/10/82
f 33/9/81 35/11/83 34/10/82
f 34/10/82 35/11/83 36/12/84
f 35/11/83 37/13/85 36/12/84
f 36/12/84 37/13/85 38/14/86
f 37/13/85 39/15/87 38/14/86
f 38/14/86 39/15/87 40/16/88
f 39/15/87 41/17/89 40/16/88
f 40/16/88 41/17/89 42/18/90
f 41/17/89 43/19/91 42/18/90
f 42/18/90 43/19/91 44/20/92
f 43/19/91 45/21/93 44/20/92
f 44/20/92 45/21/93 46/22/94
f 45/21/93 47/23/95 46/22/94
f 48/24/96 46/22/94 47/23/95
f 51/25/97 52/26/98 31/27/79
f 33/28/81 31/27/79 52/26/98
f 54/29/99 51/30/97 29/31/77
f 31/32/79 29/31/77 51/30/97
f 56/33/100 54/34/99 26/35/74
f 29/36/77 26/35/74 54/34/99
f 58/37/101 56/38/100 25/39/73
f 26/40/74 25/39/73 56/38/100
f 58/41/101 25/42/73 60/43/102
f 27/44/75 60/43/102 25/42/73
f 60/45/102 27/46/75 62/47/103
f 28/48/76 62/47/103 27/46/75
f 62/49/103 28/50/76 64/51/104
f 30/52/78 64/51/104 28/50/76
f 64/53/104 30/54/78 66/55/105
f 32/56/80 66/55/105 30/54/78
f 66/57/105 32/58/80 68/59/106
f 34/60/82 68/59/106 32/58/80
f 68/61/106 34/62/82 70/63/107
f 36/64/84 70/63/107 34/62/82
f 36/65/84 38/66/86 70/67/107
f 72/68/108 70/67/107 38/66/86
f 38/69/86 40/70/88 72/71/108
f 74/72/109 72/71/108 40/70/88
f 40/73/88 42/74/90 74/75/109
f 76/76/110 74/75/109 42/74/90
f 42/77/90 44/78/92 76/79/110
f 78/80/111 76/79/110 44/78/92
f 44/81/92 46/82/94 78/83/111
f 80/84/112 78/83/111 46/82/94
f 46/85/94 48/86/96 80/87/112
f 82/88/113 80/87/112 48/86/96
f 47/89/95 84/90/114 48/91/96
f 82/92/113 48/91/96 84/90/114
f 45/93/93 86/94/115 47/95/95
f 84/96/114 47/95/95 86/94/115
f 43/97/91 88/98/116 45/99/93
f 86/100/115 45/99/93 88/98/116
f 41/101/89 90/102/117 43/103/91
f 88/104/116 43/103/91 90/102/117
f 39/105/87 92/106/118 41/107/89
f 90/108/117 41/107/89 92/106/118
f 37/109/85 94/110/119 39/111/87
f 92/112/118 39/111/87 94/110/119
f 35/113/83 96/114/120 37/115/85
f 94/116/119 37/115/85 96/114/120
f 52/117/98 96/118/120 33/119/81
f 35/120/83 33/119/81 96/118/120
f 52/121/98 51/122/97 99/123/121
f 100/124/122 99/123/121 51/122/97
f 102/125/123 100/126/122 54/127/99
f 51/128/97 54/127/99 100/126/122
f 104/129/124 102/130/123 56/131/100
f 54/132/99 56/131/100 102/130/123
f 106/133/125 104/134/124 58/135/101
f 56/136/100 58/135/101 104/134/124
f 60/137/102 108/138/126 58/139/101
f 106/140/125 58/139/101 108/138/126
f 62/141/103 110/142/127 60/143/102
f 108/144/126 60/143/102 110/142/127
f 64/145/104 112/146/128 62/147/103
f 110/148/127 62/147/103 112/146/128
f 64/149/104 66/150/105 112/151/128
f 114/152/129 112/151/128 66/150/105
f 66/153/105 68/154/106 114/155/129
f 116/156/130 114/155/129 68/154/106
f 70/157/107 119/158/131 68/159/106
f 68/159/106 119/158/131 116/160/130
f 120/161/131 116/160/130 119/158/131
f 70/162/107 72/163/108 119/164/131
f 119/164/131 72/163/108 120/165/131
f 122/166/132 120/165/131 72/163/108
f 72/167/108 74/168/109 122/169/132
f 124/170/133 122/169/132 74/168/109
f 74/171/109 76/172/110 124/173/133
f 126/174/134 124/173/133 76/172/110
f 76/175/110 78/176/111 126/177/134
f 128/178/135 126/177/134 78/176/111
f 78/179/111 80/180/112 128/181/135
f 130/182/136 128/181/135 80/180/112
f 130/183/136 80/184/112 132/185/137
f 82/186/113 132/185/137 80/184/112
f 132/187/137 82/188/113 134/189/138
f 84/190/114 134/189/138 82/188/113
f 134/191/138 84/192/114 136/193/139
f 86/194/115 136/193/139 84/192/114
f 136/195/139 86/196/115 138/197/140
f 88/198/116 138/197/140 86/196/115
f 88/199/116 90/200/117 138/201/140
f 140/202/141 138/201/140 90/200/117
f 90/203/117 92/204/118 140/205/141
f 142/206/142 140/205/141 92/204/118
f 94/207/119 145/208/143 92/209/118
f 92/209/118 145/208/143 142/210/142
f 146/211/143 142/210/142 145/208/143
f 94/212/119 96/213/120 145/214/143
f 145/214/143 96/213/120 146/215/143
f 148/216/144 146/215/143 96/213/120
f 96/217/120 52/218/98 148/219/144
f 99/220/121 148/219/144 52/218/98
usemtl material_1_0
f 1//1 2//2 3//3
f 2//2 1//1 4//4
f 2//2 4//4 5//5
f 5//5 4//4 6//6
f 5//5 6//6 7//7
f 7//7 6//6 8//8
f 7//7 8//8 9//9
f 9//9 8//8 10//10
f 9//9 10//10 11//11
f 11//11 10//10 12//12
f 11//11 12//12 13//13
f 13//13 12//12 14//14
f 13//13 14//14 15//15
f 15//15 14//14 16//16
f 15//15 16//16 17//17
f 17//17 16//16 18//18
f 17//17 18//18 19//19
f 19//19 18//18 20//20
f 19//19 20//20 21//21
f 21//21 20//20 22//22
f 21//21 22//22 23//23
f 23//23 22//22 24//24
f 49//25 18//18 16//16
f 18//18 49//25 50//26
f 50//26 20//20 18//18
f 20//20 50//26 53//27
f 53//27 22//22 20//20
f 22//22 53//27 55//28
f 55//28 24//24 22//22
f 24//24 55//28 57//29
f 24//24 59//30 23//23
f 59//30 24//24 57//29
f 23//23 61//31 21//21
f 61//31 23//23 59//30
f 21//21 63//32 19//19
f 63//32 21//21 61//31
f 19//19 65//33 17//17
f 65//33 19//19 63//32
f 17//17 67//34 15//15
f 67//34 17//17 65//33
f 15//15 69//35 13//13
f 69//35 15//15 67//34
f 11//11 69//35 71//36
f 69//35 11//11 13//13
f 9//9 71//36 73//37
f 71//36 9//9 11//11
f 7//7 73//37 75//38
f 73//37 7//7 9//9
f 5//5 75//38 77//39
f 75//38 5//5 7//7
f 2//2 77//39 79//40
f 77//39 2//2 5//5
f 3//3 79//40 81//41
f 79//40 3//3 2//2
f 83//42 3//3 81//41
f 3//3 83//42 1//1
f 85//43 1//1 83//42
f 1//1 85//43 4//4
f 87//44 4//4 85//43
f 4//4 87//44 6//6
f 89//45 6//6 87//44
f 6//6 89//45 8//8
f 91//46 8//8 89//45
f 8//8 91//46 10//10
f 93//47 10//10 91//46
f 10//10 93//47 12//12
f 95//48 12//12 93//47
f 12//12 95//48 14//14
f 95//48 16//16 14//14
f 16//16 95//48 49//25
f 50//26 97//49 98//50
f 97//49 50//26 49//25
f 98//50 53//27 50//26
f 53//27 98//50 101//51
f 101//51 55//28 53//27
f 55//28 101//51 103//52
f 103//52 57//29 55//28
f 57//29 103//52 105//53
f 107//54 57//29 105//53
f 57//29 107//54 59//30
f 109//55 59//30 107//54
f 59//30 109//55 61//31
f 111//56 61//31 109//55
f 61//31 111//56 63//32
f 65//33 111//56 113//57
f 111//56 65//33 63//32
f 67//34 113//57 115//58
f 113//57 67//34 65//33
f 117//59 115//58 118//59
f 115//58 117//59 67//34
f 67//34 117//59 69//35
f 71//36 118//59 121//60
f 118//59 71//36 117//59
f 117//59 71//36 69//35
f 73//37 121//60 123//61
f 121//60 73//37 71//36
f 75//38 123//61 125//62
f 123//61 75//38 73//37
f 77//39 125//62 127//63
f 125//62 77//39 75//38
f 79//40 127//63 129//64
f 127//63 79//40 77//39
f 79//40 131//65 81//41
f 131//65 79//40 129//64
f 81//41 133//66 83//42
f 133//66 81//41 131//65
f 83//42 135//67 85//43
f 135//67 83//42 133//66
f 85//43 137//68 87//44
f 137//68 85//43 135//67
f 89//45 137//68 139//69
f 137//68 89//45 87//44
f 91//46 139//69 141//70
f 139//69 91//46 89//45
f 143//71 141//70 144//71
f 141//70 143//71 91//46
f 91//46 143//71 93//47
f 95//48 144//71 147//72
f 144//71 95//48 143//71
f 143//71 95//48 93//47
f 49//25 147//72 97//49
f 147//72 49//25 95//48
