# SSTK version 0.8.0
# 3
mtllib original-3.mtl
o #ID12
v 0.282412 0.864653 0.411476
v 0.279063 0.871426 0.415841
v 0.279063 0.864653 0.415841
v 0.282412 0.871426 0.411476
v 0.282412 0.871426 0.411476
v 0.282412 0.864653 0.411476
v 0.279063 0.871426 0.415841
v 0.279063 0.864653 0.415841
v 0.274698 0.864653 0.419190
v 0.274698 0.871426 0.419190
v 0.274698 0.871426 0.419190
v 0.274698 0.864653 0.419190
v 0.284518 0.864653 0.406392
v 0.284518 0.871426 0.406392
v 0.284518 0.871426 0.406392
v 0.284518 0.864653 0.406392
v -0.302631 0.871426 0.406392
v -0.303754 0.871426 0.285810
v -0.303754 0.871426 0.397868
v -0.297176 0.871426 0.415841
v -0.295977 0.871426 0.404609
v -0.296923 0.871426 0.397421
v -0.292811 0.871426 0.419190
v -0.294559 0.871426 0.408031
v -0.292305 0.871426 0.410969
v -0.287728 0.871426 0.421296
v -0.289366 0.871426 0.413224
v -0.285945 0.871426 0.414641
v -0.279204 0.871426 0.422418
v -0.278756 0.871426 0.415588
v 0.261090 0.871426 0.422418
v 0.260643 0.871426 0.415588
v 0.267831 0.871426 0.414641
v 0.269614 0.871426 0.421296
v 0.271253 0.871426 0.413224
v 0.274698 0.871426 0.419190
v 0.274191 0.871426 0.410969
v 0.276446 0.871426 0.408031
v 0.279063 0.871426 0.415841
v 0.277863 0.871426 0.404609
v 0.278810 0.871426 0.397421
v 0.278810 0.871426 0.278979
v 0.285640 0.871426 0.285810
v 0.356268 0.871426 0.278979
v 0.282412 0.871426 0.411476
v 0.284518 0.871426 0.406392
v 0.285640 0.871426 0.397868
v 0.356716 0.871426 0.285810
v 0.363457 0.871426 0.278033
v 0.365240 0.871426 0.284688
v 0.366879 0.871426 0.276616
v 0.370323 0.871426 0.282582
v 0.369817 0.871426 0.274361
v 0.372071 0.871426 0.271423
v 0.374688 0.871426 0.279233
v 0.373489 0.871426 0.268001
v 0.374435 0.871426 0.260813
v 0.374435 0.871426 -0.300443
v -0.398257 0.871426 0.269784
v -0.399379 0.871426 -0.019709
v -0.399379 0.871426 0.261260
v -0.398387 0.871426 -0.308890
v -0.396518 0.871426 -0.313724
v -0.396151 0.871426 0.274868
v -0.393528 0.871426 -0.317957
v -0.392802 0.871426 0.279233
v -0.392549 0.871426 -0.300443
v -0.391712 0.871426 -0.307214
v -0.389597 0.871426 -0.321335
v -0.390452 0.871426 -0.310473
v -0.388436 0.871426 -0.313327
v -0.382365 0.871426 -0.324955
v -0.385786 0.871426 -0.315605
v -0.379684 0.871426 -0.318658
v -0.378902 0.871426 -0.326183
v -0.376764 0.871426 -0.319694
v -0.327498 0.871426 -0.341832
v -0.325657 0.871426 -0.335253
v -0.275436 0.871426 -0.355129
v -0.273896 0.871426 -0.348472
v -0.222824 0.871426 -0.366045
v -0.221588 0.871426 -0.359326
v -0.169770 0.871426 -0.374559
v -0.168841 0.871426 -0.367791
v -0.116384 0.871426 -0.380653
v -0.115763 0.871426 -0.373849
v -0.062776 0.871426 -0.384315
v -0.062465 0.871426 -0.377490
v -0.009057 0.871426 -0.385536
v -0.009057 0.871426 -0.378704
v 0.044352 0.871426 -0.377490
v 0.044662 0.871426 -0.384315
v 0.097650 0.871426 -0.373849
v 0.098270 0.871426 -0.380653
v 0.150727 0.871426 -0.367791
v 0.151656 0.871426 -0.374559
v 0.203475 0.871426 -0.359326
v 0.204710 0.871426 -0.366045
v 0.255783 0.871426 -0.348472
v 0.257323 0.871426 -0.355129
v 0.307544 0.871426 -0.335253
v 0.309384 0.871426 -0.341832
v 0.358650 0.871426 -0.319694
v 0.360788 0.871426 -0.326183
v 0.361571 0.871426 -0.318658
v 0.364251 0.871426 -0.324955
v 0.367672 0.871426 -0.315605
v 0.371484 0.871426 -0.321335
v 0.370322 0.871426 -0.313327
v 0.372338 0.871426 -0.310473
v 0.375415 0.871426 -0.317957
v 0.373598 0.871426 -0.307214
v 0.378038 0.871426 0.274868
v 0.378404 0.871426 -0.313724
v 0.380143 0.871426 0.269784
v 0.380273 0.871426 -0.308890
v 0.381266 0.871426 0.261260
v 0.381266 0.871426 -0.300864
v -0.392549 0.871426 0.260813
v -0.391602 0.871426 0.268001
v -0.388437 0.871426 0.282582
v -0.390185 0.871426 0.271423
v -0.387930 0.871426 0.274361
v -0.383353 0.871426 0.284688
v -0.384992 0.871426 0.276616
v -0.381570 0.871426 0.278033
v -0.374829 0.871426 0.285810
v -0.374382 0.871426 0.278979
v -0.296923 0.871426 0.278979
v -0.300526 0.871426 0.411476
v -0.399379 0.871426 -0.300864
v -0.399379 0.871426 -0.019709
v -0.399379 0.871426 -0.300864
v -0.398387 0.871426 -0.308890
v -0.296923 0.871426 0.397421
v -0.297176 0.871426 0.415841
v -0.296923 0.871426 0.278979
v -0.300526 0.871426 0.411476
v -0.302631 0.871426 0.406392
v -0.303754 0.871426 0.285810
v -0.374382 0.871426 0.278979
v -0.374829 0.871426 0.285810
v -0.381570 0.871426 0.278033
v -0.383353 0.871426 0.284688
v -0.384992 0.871426 0.276616
v -0.387930 0.871426 0.274361
v -0.388437 0.871426 0.282582
v -0.390185 0.871426 0.271423
v -0.391602 0.871426 0.268001
v -0.392802 0.871426 0.279233
v -0.392549 0.871426 0.260813
v -0.392549 0.871426 -0.300443
v 0.381266 0.871426 -0.300864
v 0.381266 0.871426 0.261260
v 0.380273 0.871426 -0.308890
v 0.380143 0.871426 0.269784
v 0.378404 0.871426 -0.313724
v 0.378038 0.871426 0.274868
v 0.375415 0.871426 -0.317957
v 0.374688 0.871426 0.279233
v 0.374435 0.871426 -0.300443
v 0.373598 0.871426 -0.307214
v 0.372338 0.871426 -0.310473
v 0.371484 0.871426 -0.321335
v 0.370322 0.871426 -0.313327
v 0.367672 0.871426 -0.315605
v 0.364251 0.871426 -0.324955
v 0.361571 0.871426 -0.318658
v 0.360788 0.871426 -0.326183
v 0.358650 0.871426 -0.319694
v 0.309384 0.871426 -0.341832
v 0.307544 0.871426 -0.335253
v 0.257323 0.871426 -0.355129
v 0.255783 0.871426 -0.348472
v 0.204710 0.871426 -0.366045
v 0.203475 0.871426 -0.359326
v 0.151656 0.871426 -0.374559
v 0.150727 0.871426 -0.367791
v 0.098270 0.871426 -0.380653
v 0.097650 0.871426 -0.373849
v 0.044662 0.871426 -0.384315
v 0.044352 0.871426 -0.377490
v -0.009057 0.871426 -0.385536
v -0.009057 0.871426 -0.378704
v -0.062465 0.871426 -0.377490
v -0.062776 0.871426 -0.384315
v -0.115763 0.871426 -0.373849
v -0.116384 0.871426 -0.380653
v -0.168841 0.871426 -0.367791
v -0.169770 0.871426 -0.374559
v -0.221588 0.871426 -0.359326
v -0.222824 0.871426 -0.366045
v -0.273896 0.871426 -0.348472
v -0.275436 0.871426 -0.355129
v -0.325657 0.871426 -0.335253
v -0.327498 0.871426 -0.341832
v -0.376764 0.871426 -0.319694
v -0.378902 0.871426 -0.326183
v -0.379684 0.871426 -0.318658
v -0.382365 0.871426 -0.324955
v -0.385786 0.871426 -0.315605
v -0.388436 0.871426 -0.313327
v -0.389597 0.871426 -0.321335
v -0.390452 0.871426 -0.310473
v -0.391712 0.871426 -0.307214
v -0.393528 0.871426 -0.317957
v -0.396151 0.871426 0.274868
v -0.396518 0.871426 -0.313724
v -0.398257 0.871426 0.269784
v -0.399379 0.871426 0.261260
v 0.374435 0.871426 0.260813
v 0.373489 0.871426 0.268001
v 0.372071 0.871426 0.271423
v 0.370323 0.871426 0.282582
v 0.369817 0.871426 0.274361
v 0.366879 0.871426 0.276616
v 0.365240 0.871426 0.284688
v 0.363457 0.871426 0.278033
v 0.356716 0.871426 0.285810
v 0.356268 0.871426 0.278979
v 0.285640 0.871426 0.285810
v 0.285640 0.871426 0.397868
v 0.284518 0.871426 0.406392
v 0.282412 0.871426 0.411476
v 0.279063 0.871426 0.415841
v 0.278810 0.871426 0.278979
v 0.278810 0.871426 0.397421
v 0.277863 0.871426 0.404609
v 0.276446 0.871426 0.408031
v 0.274698 0.871426 0.419190
v 0.274191 0.871426 0.410969
v 0.271253 0.871426 0.413224
v 0.269614 0.871426 0.421296
v 0.267831 0.871426 0.414641
v 0.261090 0.871426 0.422418
v 0.260643 0.871426 0.415588
v -0.278756 0.871426 0.415588
v -0.279204 0.871426 0.422418
v -0.285945 0.871426 0.414641
v -0.287728 0.871426 0.421296
v -0.289366 0.871426 0.413224
v -0.292305 0.871426 0.410969
v -0.292811 0.871426 0.419190
v -0.294559 0.871426 0.408031
v -0.295977 0.871426 0.404609
v -0.303754 0.871426 0.397868
v 0.269614 0.864653 0.421296
v 0.269614 0.871426 0.421296
v 0.269614 0.871426 0.421296
v 0.269614 0.864653 0.421296
v 0.285640 0.864653 0.397868
v 0.285640 0.871426 0.397868
v 0.285640 0.871426 0.397868
v 0.285640 0.864653 0.397868
v 0.381266 0.864653 -0.300864
v 0.381266 0.871426 0.261260
v 0.381266 0.864653 0.261260
v 0.381266 0.871426 -0.300864
v 0.381266 0.871426 -0.300864
v 0.381266 0.864653 -0.300864
v 0.381266 0.871426 0.261260
v 0.381266 0.864653 0.261260
v 0.380273 0.864653 -0.308890
v 0.380273 0.871426 -0.308890
v 0.380273 0.871426 -0.308890
v 0.380273 0.864653 -0.308890
v 0.378404 0.864653 -0.313724
v 0.378404 0.871426 -0.313724
v 0.378404 0.871426 -0.313724
v 0.378404 0.864653 -0.313724
v 0.375415 0.864653 -0.317957
v 0.375415 0.871426 -0.317957
v 0.375415 0.871426 -0.317957
v 0.375415 0.864653 -0.317957
v 0.371484 0.871426 -0.321335
v 0.371484 0.864653 -0.321335
v 0.371484 0.871426 -0.321335
v 0.371484 0.864653 -0.321335
v 0.364251 0.871426 -0.324955
v 0.364251 0.864653 -0.324955
v 0.364251 0.871426 -0.324955
v 0.364251 0.864653 -0.324955
v 0.360788 0.871426 -0.326183
v 0.360788 0.864653 -0.326183
v 0.360788 0.871426 -0.326183
v 0.360788 0.864653 -0.326183
v 0.309384 0.871426 -0.341832
v 0.309384 0.864653 -0.341832
v 0.309384 0.871426 -0.341832
v 0.309384 0.864653 -0.341832
v 0.257323 0.871426 -0.355129
v 0.257323 0.864653 -0.355129
v 0.257323 0.871426 -0.355129
v 0.257323 0.864653 -0.355129
v 0.204710 0.871426 -0.366045
v 0.204710 0.864653 -0.366045
v 0.204710 0.871426 -0.366045
v 0.204710 0.864653 -0.366045
v 0.151656 0.871426 -0.374559
v 0.151656 0.864653 -0.374559
v 0.151656 0.871426 -0.374559
v 0.151656 0.864653 -0.374559
v 0.098270 0.871426 -0.380653
v 0.098270 0.864653 -0.380653
v 0.098270 0.871426 -0.380653
v 0.098270 0.864653 -0.380653
v 0.044662 0.871426 -0.384315
v 0.044662 0.864653 -0.384315
v 0.044662 0.871426 -0.384315
v 0.044662 0.864653 -0.384315
v -0.009057 0.871426 -0.385536
v -0.009057 0.864653 -0.385536
v -0.009057 0.871426 -0.385536
v -0.009057 0.864653 -0.385536
v -0.062776 0.871426 -0.384315
v -0.062776 0.864653 -0.384315
v -0.062776 0.871426 -0.384315
v -0.062776 0.864653 -0.384315
v -0.116384 0.871426 -0.380653
v -0.116384 0.864653 -0.380653
v -0.116384 0.871426 -0.380653
v -0.116384 0.864653 -0.380653
v -0.169770 0.871426 -0.374559
v -0.169770 0.864653 -0.374559
v -0.169770 0.871426 -0.374559
v -0.169770 0.864653 -0.374559
v -0.222824 0.871426 -0.366045
v -0.222824 0.864653 -0.366045
v -0.222824 0.871426 -0.366045
v -0.222824 0.864653 -0.366045
v -0.275436 0.871426 -0.355129
v -0.275436 0.864653 -0.355129
v -0.275436 0.871426 -0.355129
v -0.275436 0.864653 -0.355129
v -0.327498 0.871426 -0.341832
v -0.327498 0.864653 -0.341832
v -0.327498 0.871426 -0.341832
v -0.327498 0.864653 -0.341832
v -0.378902 0.871426 -0.326183
v -0.378902 0.864653 -0.326183
v -0.378902 0.871426 -0.326183
v -0.378902 0.864653 -0.326183
v -0.382365 0.871426 -0.324955
v -0.382365 0.864653 -0.324955
v -0.382365 0.871426 -0.324955
v -0.382365 0.864653 -0.324955
v -0.389597 0.871426 -0.321335
v -0.389597 0.864653 -0.321335
v -0.389597 0.871426 -0.321335
v -0.389597 0.864653 -0.321335
v -0.393528 0.871426 -0.317957
v -0.393528 0.864653 -0.317957
v -0.393528 0.871426 -0.317957
v -0.393528 0.864653 -0.317957
v -0.396518 0.864653 -0.313724
v -0.396518 0.871426 -0.313724
v -0.396518 0.864653 -0.313724
v -0.396518 0.871426 -0.313724
v -0.398387 0.864653 -0.308890
v -0.398387 0.871426 -0.308890
v -0.398387 0.864653 -0.308890
v -0.398387 0.871426 -0.308890
v -0.399379 0.864653 -0.300864
v -0.399379 0.871426 -0.300864
v -0.399379 0.864653 -0.300864
v -0.399379 0.871426 -0.300864
v -0.399379 0.871426 -0.019709
v -0.399379 0.864653 0.261260
v -0.399379 0.871426 0.261260
v -0.399379 0.864653 -0.019709
v -0.399379 0.864653 -0.019709
v -0.399379 0.871426 -0.019709
v -0.399379 0.864653 0.261260
v -0.399379 0.871426 0.261260
v -0.398257 0.864653 0.269784
v -0.398257 0.871426 0.269784
v -0.398257 0.864653 0.269784
v -0.398257 0.871426 0.269784
v -0.396151 0.864653 0.274868
v -0.396151 0.871426 0.274868
v -0.396151 0.864653 0.274868
v -0.396151 0.871426 0.274868
v -0.392802 0.864653 0.279233
v -0.392802 0.871426 0.279233
v -0.392802 0.864653 0.279233
v -0.392802 0.871426 0.279233
v -0.388437 0.871426 0.282582
v -0.388437 0.864653 0.282582
v -0.388437 0.871426 0.282582
v -0.388437 0.864653 0.282582
v -0.383353 0.871426 0.284688
v -0.383353 0.864653 0.284688
v -0.383353 0.871426 0.284688
v -0.383353 0.864653 0.284688
v -0.374829 0.871426 0.285810
v -0.374829 0.864653 0.285810
v -0.374829 0.871426 0.285810
v -0.374829 0.864653 0.285810
v -0.303754 0.871426 0.285810
v -0.303754 0.864653 0.285810
v -0.303754 0.871426 0.285810
v -0.303754 0.864653 0.285810
v -0.303754 0.871426 0.285810
v -0.303754 0.864653 0.397868
v -0.303754 0.871426 0.397868
v -0.303754 0.864653 0.285810
v -0.303754 0.864653 0.285810
v -0.303754 0.871426 0.285810
v -0.303754 0.864653 0.397868
v -0.303754 0.871426 0.397868
v -0.302631 0.864653 0.406392
v -0.302631 0.871426 0.406392
v -0.302631 0.864653 0.406392
v -0.302631 0.871426 0.406392
v -0.300526 0.864653 0.411476
v -0.300526 0.871426 0.411476
v -0.300526 0.864653 0.411476
v -0.300526 0.871426 0.411476
v -0.297176 0.864653 0.415841
v -0.297176 0.871426 0.415841
v -0.297176 0.864653 0.415841
v -0.297176 0.871426 0.415841
v -0.292811 0.871426 0.419190
v -0.292811 0.864653 0.419190
v -0.292811 0.871426 0.419190
v -0.292811 0.864653 0.419190
v -0.287728 0.871426 0.421296
v -0.287728 0.864653 0.421296
v -0.287728 0.871426 0.421296
v -0.287728 0.864653 0.421296
v -0.279204 0.871426 0.422418
v -0.279204 0.864653 0.422418
v -0.279204 0.871426 0.422418
v -0.279204 0.864653 0.422418
v 0.261090 0.871426 0.422418
v 0.261090 0.864653 0.422418
v 0.261090 0.871426 0.422418
v 0.261090 0.864653 0.422418
v 0.285640 0.864653 0.285810
v 0.285640 0.871426 0.285810
v 0.285640 0.871426 0.285810
v 0.285640 0.864653 0.285810
v 0.356716 0.871426 0.285810
v 0.285640 0.864653 0.285810
v 0.356716 0.864653 0.285810
v 0.285640 0.871426 0.285810
v 0.285640 0.871426 0.285810
v 0.356716 0.871426 0.285810
v 0.285640 0.864653 0.285810
v 0.356716 0.864653 0.285810
v 0.365240 0.871426 0.284688
v 0.365240 0.864653 0.284688
v 0.365240 0.871426 0.284688
v 0.365240 0.864653 0.284688
v 0.370323 0.871426 0.282582
v 0.370323 0.864653 0.282582
v 0.370323 0.871426 0.282582
v 0.370323 0.864653 0.282582
v 0.374688 0.871426 0.279233
v 0.374688 0.864653 0.279233
v 0.374688 0.871426 0.279233
v 0.374688 0.864653 0.279233
v 0.378038 0.864653 0.274868
v 0.378038 0.871426 0.274868
v 0.378038 0.871426 0.274868
v 0.378038 0.864653 0.274868
v 0.380143 0.864653 0.269784
v 0.380143 0.871426 0.269784
v 0.380143 0.871426 0.269784
v 0.380143 0.864653 0.269784
vn 0.866025402838329 0 0.5000000016387101
vn 0.7071067811865476 0 0.7071067811865476
vn -0.866025402838329 0 -0.5000000016387101
vn -0.7071067811865476 0 -0.7071067811865476
vn 0.5000000016387101 0 0.866025402838329
vn -0.5000000016387101 0 -0.866025402838329
vn 0.9659258358036645 0 0.25881900959356163
vn -0.9659258358036645 0 -0.25881900959356163
vn 0 1 0
vn 0 -1 0
vn 0.25881900959356163 0 0.9659258358036645
vn -0.25881900959356163 0 -0.9659258358036645
vn 0.9978589230889555 0 0.06540313151333016
vn -0.9978589230889555 0 -0.06540313151333016
vn 0.9981100329758331 0 -0.06145211203027173
vn -0.9981100329758331 0 0.06145211203027173
vn 0.9699031826615018 0 -0.243490895647229
vn -0.9699031826615018 0 0.243490895647229
vn 0.881424411896863 0 -0.47232510637512076
vn -0.881424411896863 0 0.47232510637512076
vn 0.7398894604445857 0 -0.6727284640350963
vn -0.7398894604445857 0 0.6727284640350963
vn 0.5538179076567403 0 -0.83263781151153
vn -0.5538179076567403 0 0.83263781151153
vn 0.3916922037573995 0 -0.92009630882624
vn -0.3916922037573995 0 0.92009630882624
vn 0.31290230540673597 0 -0.9497853164116351
vn -0.31290230540673597 0 0.9497853164116351
vn 0.2694128897486444 0 -0.9630247633562102
vn -0.2694128897486444 0 0.9630247633562102
vn 0.22536679756398323 0 -0.9742739894689555
vn -0.22536679756398323 0 0.9742739894689555
vn 0.1808548013221318 0 -0.9835098071899091
vn -0.1808548013221318 0 0.9835098071899091
vn 0.13596919525057913 0 -0.9907130653942694
vn -0.13596919525057913 0 0.9907130653942694
vn 0.09080254148654379 0 -0.9958689163035388
vn -0.09080254148654379 0 0.9958689163035388
vn 0.04544822978823345 0 -0.9989666953453032
vn -0.04544822978823345 0 0.9989666953453032
vn 0 0 -1
vn 0 0 1
vn -0.04544822978823345 0 -0.9989666953453032
vn 0.04544822978823345 0 0.9989666953453032
vn -0.09080254148654379 0 -0.9958689163035388
vn 0.09080254148654379 0 0.9958689163035388
vn -0.13596919525057913 0 -0.9907130653942694
vn 0.13596919525057913 0 0.9907130653942694
vn -0.1808548013221318 0 -0.9835098071899091
vn 0.1808548013221318 0 0.9835098071899091
vn -0.22536679756398323 0 -0.9742739894689555
vn 0.22536679756398323 0 0.9742739894689555
vn -0.2694128897486444 0 -0.9630247633562102
vn 0.2694128897486444 0 0.9630247633562102
vn -0.31290230540673597 0 -0.9497853164116351
vn 0.31290230540673597 0 0.9497853164116351
vn -0.3916922037573995 0 -0.92009630882624
vn 0.3916922037573995 0 0.92009630882624
vn -0.5538179076567403 0 -0.83263781151153
vn 0.5538179076567403 0 0.83263781151153
vn -0.7398894604445857 0 -0.6727284640350963
vn 0.7398894604445857 0 0.6727284640350963
vn -0.881424411896863 0 -0.47232510637512076
vn 0.881424411896863 0 0.47232510637512076
vn -0.9699031826615018 0 -0.243490895647229
vn 0.9699031826615018 0 0.243490895647229
vn -0.9981100329758331 0 -0.06145211203027173
vn 0.9981100329758331 0 0.06145211203027173
vn -1 0 0
vn -0.9978589230889555 0 0.06540313151333016
vn 1 0 0
vn 0.9978589230889555 0 -0.06540313151333016
vn -0.9659258358036645 0 0.25881900959356163
vn 0.9659258358036645 0 -0.25881900959356163
vn -0.866025402838329 0 0.5000000016387101
vn 0.866025402838329 0 -0.5000000016387101
vn -0.7071067811865476 0 0.7071067811865476
vn 0.7071067811865476 0 -0.7071067811865476
vn -0.5000000016387101 0 0.866025402838329
vn 0.5000000016387101 0 -0.866025402838329
vn -0.25881900959356163 0 0.9659258358036645
vn 0.25881900959356163 0 -0.9659258358036645
vn -0.06540313151333016 0 0.9978589230889555
vn 0.06540313151333016 0 -0.9978589230889555
vn 0.06540313151333016 0 0.9978589230889555
vn -0.06540313151333016 0 -0.9978589230889555
usemtl material_0_0
f 1//1 2//2 3//2
f 2//2 1//1 4//1
f 5//3 6//3 7//4
f 8//4 7//4 6//3
f 2//2 9//5 3//2
f 9//5 2//2 10//5
f 11//6 7//4 12//6
f 8//4 12//6 7//4
f 13//7 4//1 1//1
f 4//1 13//7 14//7
f 15//8 16//8 5//3
f 6//3 5//3 16//8
f 17//9 18//9 19//9
f 20//9 21//9 22//9
f 21//9 20//9 23//9
f 21//9 23//9 24//9
f 24//9 23//9 25//9
f 25//9 23//9 26//9
f 25//9 26//9 27//9
f 27//9 26//9 28//9
f 28//9 26//9 29//9
f 28//9 29//9 30//9
f 30//9 29//9 31//9
f 30//9 31//9 32//9
f 32//9 31//9 33//9
f 33//9 31//9 34//9
f 33//9 34//9 35//9
f 35//9 34//9 36//9
f 35//9 36//9 37//9
f 37//9 36//9 38//9
f 38//9 36//9 39//9
f 38//9 39//9 40//9
f 40//9 39//9 41//9
f 41//9 39//9 42//9
f 42//9 39//9 43//9
f 42//9 43//9 44//9
f 43//9 39//9 45//9
f 43//9 45//9 46//9
f 43//9 46//9 47//9
f 44//9 43//9 48//9
f 44//9 48//9 49//9
f 49//9 48//9 50//9
f 49//9 50//9 51//9
f 51//9 50//9 52//9
f 51//9 52//9 53//9
f 53//9 52//9 54//9
f 54//9 52//9 55//9
f 54//9 55//9 56//9
f 56//9 55//9 57//9
f 57//9 55//9 58//9
f 59//9 60//9 61//9
f 60//9 59//9 62//9
f 62//9 59//9 63//9
f 63//9 59//9 64//9
f 63//9 64//9 65//9
f 65//9 64//9 66//9
f 65//9 66//9 67//9
f 65//9 67//9 68//9
f 65//9 68//9 69//9
f 69//9 68//9 70//9
f 69//9 70//9 71//9
f 69//9 71//9 72//9
f 72//9 71//9 73//9
f 72//9 73//9 74//9
f 72//9 74//9 75//9
f 75//9 74//9 76//9
f 75//9 76//9 77//9
f 77//9 76//9 78//9
f 77//9 78//9 79//9
f 79//9 78//9 80//9
f 79//9 80//9 81//9
f 81//9 80//9 82//9
f 81//9 82//9 83//9
f 83//9 82//9 84//9
f 83//9 84//9 85//9
f 85//9 84//9 86//9
f 85//9 86//9 87//9
f 87//9 86//9 88//9
f 87//9 88//9 89//9
f 89//9 88//9 90//9
f 89//9 90//9 91//9
f 89//9 91//9 92//9
f 92//9 91//9 93//9
f 92//9 93//9 94//9
f 94//9 93//9 95//9
f 94//9 95//9 96//9
f 96//9 95//9 97//9
f 96//9 97//9 98//9
f 98//9 97//9 99//9
f 98//9 99//9 100//9
f 100//9 99//9 101//9
f 100//9 101//9 102//9
f 102//9 101//9 103//9
f 102//9 103//9 104//9
f 104//9 103//9 105//9
f 104//9 105//9 106//9
f 106//9 105//9 107//9
f 106//9 107//9 108//9
f 108//9 107//9 109//9
f 108//9 109//9 110//9
f 108//9 110//9 111//9
f 111//9 110//9 112//9
f 111//9 112//9 58//9
f 111//9 58//9 55//9
f 111//9 55//9 113//9
f 111//9 113//9 114//9
f 114//9 113//9 115//9
f 114//9 115//9 116//9
f 116//9 115//9 117//9
f 116//9 117//9 118//9
f 66//9 119//9 67//9
f 119//9 66//9 120//9
f 120//9 66//9 121//9
f 120//9 121//9 122//9
f 122//9 121//9 123//9
f 123//9 121//9 124//9
f 123//9 124//9 125//9
f 125//9 124//9 126//9
f 126//9 124//9 127//9
f 126//9 127//9 128//9
f 128//9 127//9 18//9
f 128//9 18//9 129//9
f 129//9 18//9 17//9
f 129//9 17//9 130//9
f 129//9 130//9 20//9
f 129//9 20//9 22//9
f 62//9 131//9 60//9
f 132//10 133//10 134//10
f 135//10 136//10 137//10
f 136//10 138//10 137//10
f 138//10 139//10 137//10
f 139//10 140//10 137//10
f 137//10 140//10 141//10
f 140//10 142//10 141//10
f 141//10 142//10 143//10
f 142//10 144//10 143//10
f 143//10 144//10 145//10
f 145//10 144//10 146//10
f 144//10 147//10 146//10
f 146//10 147//10 148//10
f 148//10 147//10 149//10
f 147//10 150//10 149//10
f 149//10 150//10 151//10
f 152//10 151//10 150//10
f 153//10 154//10 155//10
f 154//10 156//10 155//10
f 155//10 156//10 157//10
f 156//10 158//10 157//10
f 157//10 158//10 159//10
f 158//10 160//10 159//10
f 160//10 161//10 159//10
f 161//10 162//10 159//10
f 162//10 163//10 159//10
f 159//10 163//10 164//10
f 163//10 165//10 164//10
f 165//10 166//10 164//10
f 164//10 166//10 167//10
f 166//10 168//10 167//10
f 167//10 168//10 169//10
f 168//10 170//10 169//10
f 169//10 170//10 171//10
f 170//10 172//10 171//10
f 171//10 172//10 173//10
f 172//10 174//10 173//10
f 173//10 174//10 175//10
f 174//10 176//10 175//10
f 175//10 176//10 177//10
f 176//10 178//10 177//10
f 177//10 178//10 179//10
f 178//10 180//10 179//10
f 179//10 180//10 181//10
f 180//10 182//10 181//10
f 181//10 182//10 183//10
f 182//10 184//10 183//10
f 184//10 185//10 183//10
f 183//10 185//10 186//10
f 185//10 187//10 186//10
f 186//10 187//10 188//10
f 187//10 189//10 188//10
f 188//10 189//10 190//10
f 189//10 191//10 190//10
f 190//10 191//10 192//10
f 191//10 193//10 192//10
f 192//10 193//10 194//10
f 193//10 195//10 194//10
f 194//10 195//10 196//10
f 195//10 197//10 196//10
f 196//10 197//10 198//10
f 197//10 199//10 198//10
f 198//10 199//10 200//10
f 199//10 201//10 200//10
f 201//10 202//10 200//10
f 200//10 202//10 203//10
f 202//10 204//10 203//10
f 204//10 205//10 203//10
f 203//10 205//10 206//10
f 205//10 152//10 206//10
f 152//10 150//10 206//10
f 150//10 207//10 206//10
f 206//10 207//10 208//10
f 207//10 209//10 208//10
f 208//10 209//10 134//10
f 134//10 209//10 132//10
f 210//10 132//10 209//10
f 161//10 160//10 211//10
f 211//10 160//10 212//10
f 212//10 160//10 213//10
f 160//10 214//10 213//10
f 213//10 214//10 215//10
f 215//10 214//10 216//10
f 214//10 217//10 216//10
f 216//10 217//10 218//10
f 217//10 219//10 218//10
f 218//10 219//10 220//10
f 219//10 221//10 220//10
f 222//10 223//10 221//10
f 223//10 224//10 221//10
f 224//10 225//10 221//10
f 220//10 221//10 226//10
f 221//10 225//10 226//10
f 226//10 225//10 227//10
f 227//10 225//10 228//10
f 228//10 225//10 229//10
f 225//10 230//10 229//10
f 229//10 230//10 231//10
f 231//10 230//10 232//10
f 230//10 233//10 232//10
f 232//10 233//10 234//10
f 233//10 235//10 234//10
f 234//10 235//10 236//10
f 236//10 235//10 237//10
f 235//10 238//10 237//10
f 237//10 238//10 239//10
f 238//10 240//10 239//10
f 239//10 240//10 241//10
f 241//10 240//10 242//10
f 240//10 243//10 242//10
f 242//10 243//10 244//10
f 244//10 243//10 245//10
f 243//10 136//10 245//10
f 135//10 245//10 136//10
f 246//10 140//10 139//10
f 10//5 247//11 9//5
f 247//11 10//5 248//11
f 249//12 11//6 250//12
f 12//6 250//12 11//6
f 251//13 14//7 13//7
f 14//7 251//13 252//13
f 253//14 254//14 15//8
f 16//8 15//8 254//14
f 255//15 256//13 257//13
f 256//13 255//15 258//15
f 259//16 260//16 261//14
f 262//14 261//14 260//16
f 263//17 258//15 255//15
f 258//15 263//17 264//17
f 265//18 266//18 259//16
f 260//16 259//16 266//18
f 267//19 264//17 263//17
f 264//17 267//19 268//19
f 269//20 270//20 265//18
f 266//18 265//18 270//20
f 271//21 268//19 267//19
f 268//19 271//21 272//21
f 273//22 274//22 269//20
f 270//20 269//20 274//22
f 275//23 271//21 276//23
f 271//21 275//23 272//21
f 273//22 277//24 274//22
f 278//24 274//22 277//24
f 279//25 276//23 280//25
f 276//23 279//25 275//23
f 277//24 281//26 278//24
f 282//26 278//24 281//26
f 283//27 280//25 284//27
f 280//25 283//27 279//25
f 281//26 285//28 282//26
f 286//28 282//26 285//28
f 287//29 284//27 288//29
f 284//27 287//29 283//27
f 285//28 289//30 286//28
f 290//30 286//28 289//30
f 291//31 288//29 292//31
f 288//29 291//31 287//29
f 289//30 293//32 290//30
f 294//32 290//30 293//32
f 295//33 292//31 296//33
f 292//31 295//33 291//31
f 293//32 297//34 294//32
f 298//34 294//32 297//34
f 299//35 296//33 300//35
f 296//33 299//35 295//33
f 297//34 301//36 298//34
f 302//36 298//34 301//36
f 303//37 300//35 304//37
f 300//35 303//37 299//35
f 301//36 305//38 302//36
f 306//38 302//36 305//38
f 307//39 304//37 308//39
f 304//37 307//39 303//37
f 305//38 309//40 306//38
f 310//40 306//38 309//40
f 311//41 308//39 312//41
f 308//39 311//41 307//39
f 309//40 313//42 310//40
f 314//42 310//40 313//42
f 315//43 312//41 316//43
f 312//41 315//43 311//41
f 313//42 317//44 314//42
f 318//44 314//42 317//44
f 319//45 316//43 320//45
f 316//43 319//45 315//43
f 317//44 321//46 318//44
f 322//46 318//44 321//46
f 323//47 320//45 324//47
f 320//45 323//47 319//45
f 321//46 325//48 322//46
f 326//48 322//46 325//48
f 327//49 324//47 328//49
f 324//47 327//49 323//47
f 325//48 329//50 326//48
f 330//50 326//48 329//50
f 331//51 328//49 332//51
f 328//49 331//51 327//49
f 329//50 333//52 330//50
f 334//52 330//50 333//52
f 335//53 332//51 336//53
f 332//51 335//53 331//51
f 333//52 337//54 334//52
f 338//54 334//52 337//54
f 339//55 336//53 340//55
f 336//53 339//55 335//53
f 337//54 341//56 338//54
f 342//56 338//54 341//56
f 343//57 340//55 344//57
f 340//55 343//57 339//55
f 341//56 345//58 342//56
f 346//58 342//56 345//58
f 347//59 344//57 348//59
f 344//57 347//59 343//57
f 345//58 349//60 346//58
f 350//60 346//58 349//60
f 351//61 348//59 352//61
f 348//59 351//61 347//59
f 349//60 353//62 350//60
f 354//62 350//60 353//62
f 351//61 355//63 356//63
f 355//63 351//61 352//61
f 354//62 353//62 357//64
f 358//64 357//64 353//62
f 356//63 359//65 360//65
f 359//65 356//63 355//63
f 357//64 358//64 361//66
f 362//66 361//66 358//64
f 360//65 363//67 364//67
f 363//67 360//65 359//65
f 361//66 362//66 365//68
f 366//68 365//68 362//66
f 367//69 368//70 369//70
f 368//70 367//69 370//69
f 370//69 367//69 364//67
f 370//69 364//67 363//67
f 365//68 366//68 371//71
f 366//68 372//71 371//71
f 371//71 372//71 373//72
f 374//72 373//72 372//71
f 369//70 375//73 376//73
f 375//73 369//70 368//70
f 373//72 374//72 377//74
f 378//74 377//74 374//72
f 376//73 379//75 380//75
f 379//75 376//73 375//73
f 377//74 378//74 381//76
f 382//76 381//76 378//74
f 380//75 383//77 384//77
f 383//77 380//75 379//75
f 381//76 382//76 385//78
f 386//78 385//78 382//76
f 387//79 383//77 388//79
f 383//77 387//79 384//77
f 386//78 389//80 385//78
f 390//80 385//78 389//80
f 391//81 388//79 392//81
f 388//79 391//81 387//79
f 389//80 393//82 390//80
f 394//82 390//80 393//82
f 395//83 392//81 396//83
f 392//81 395//83 391//81
f 393//82 397//84 394//82
f 398//84 394//82 397//84
f 399//42 396//83 400//42
f 396//83 399//42 395//83
f 397//84 401//41 398//84
f 402//41 398//84 401//41
f 403//69 404//70 405//70
f 404//70 403//69 406//69
f 407//71 408//71 409//72
f 410//72 409//72 408//71
f 405//70 411//73 412//73
f 411//73 405//70 404//70
f 409//72 410//72 413//74
f 414//74 413//74 410//72
f 412//73 415//75 416//75
f 415//75 412//73 411//73
f 413//74 414//74 417//76
f 418//76 417//76 414//74
f 416//75 419//77 420//77
f 419//77 416//75 415//75
f 417//76 418//76 421//78
f 422//78 421//78 418//76
f 423//79 419//77 424//79
f 419//77 423//79 420//77
f 422//78 425//80 421//78
f 426//80 421//78 425//80
f 427//81 424//79 428//81
f 424//79 427//81 423//79
f 425//80 429//82 426//80
f 430//82 426//80 429//82
f 431//83 428//81 432//83
f 428//81 431//83 427//81
f 429//82 433//84 430//82
f 434//84 430//82 433//84
f 435//85 432//83 436//85
f 432//83 435//85 431//83
f 433//84 437//86 434//84
f 438//86 434//84 437//86
f 248//11 436//85 247//11
f 436//85 248//11 435//85
f 437//86 249//12 438//86
f 250//12 438//86 249//12
f 439//71 252//13 251//13
f 252//13 439//71 440//71
f 441//69 442//69 253//14
f 254//14 253//14 442//69
f 443//85 444//42 445//85
f 444//42 443//85 446//42
f 447//41 448//86 449//41
f 450//86 449//41 448//86
f 451//11 445//85 452//11
f 445//85 451//11 443//85
f 448//86 453//12 450//86
f 454//12 450//86 453//12
f 455//5 452//11 456//5
f 452//11 455//5 451//11
f 453//12 457//6 454//12
f 458//6 454//12 457//6
f 459//2 456//5 460//2
f 456//5 459//2 455//5
f 457//6 461//4 458//6
f 462//4 458//6 461//4
f 463//1 459//2 460//2
f 459//2 463//1 464//1
f 465//3 466//3 461//4
f 462//4 461//4 466//3
f 467//7 464//1 463//1
f 464//1 467//7 468//7
f 469//8 470//8 465//3
f 466//3 465//3 470//8
f 257//13 468//7 467//7
f 468//7 257//13 256//13
f 261//14 262//14 469//8
f 470//8 469//8 262//14
