# SSTK version 0.8.0
# 14
mtllib original-14.mtl
o #ID148
v -0.026079 0.344279 0.477958
v -0.026079 0.335157 0.477958
v -0.026679 0.339718 0.477958
v -0.024318 0.348529 0.477958
v -0.024318 0.330907 0.477958
v -0.021518 0.352179 0.477958
v -0.021518 0.327257 0.477958
v -0.020805 0.339718 0.477958
v -0.020405 0.342758 0.477958
v -0.017868 0.354979 0.477958
v -0.019231 0.345592 0.477958
v -0.017364 0.348025 0.477958
v -0.013618 0.356740 0.477958
v -0.014931 0.349892 0.477958
v -0.012097 0.351066 0.477958
v -0.009057 0.357340 0.477958
v -0.009057 0.351466 0.477958
v -0.004496 0.356740 0.477958
v -0.006016 0.351066 0.477958
v -0.003183 0.349892 0.477958
v -0.000246 0.354979 0.477958
v -0.000749 0.348025 0.477958
v 0.001118 0.345592 0.477958
v 0.003404 0.352179 0.477958
v 0.002291 0.342758 0.477958
v 0.002692 0.339718 0.477958
v -0.020405 0.336677 0.477958
v -0.017868 0.324456 0.477958
v -0.019231 0.333844 0.477958
v -0.017364 0.331410 0.477958
v -0.013618 0.322696 0.477958
v -0.014931 0.329543 0.477958
v -0.012097 0.328370 0.477958
v -0.009057 0.322095 0.477958
v -0.009057 0.327969 0.477958
v -0.006016 0.328370 0.477958
v -0.004496 0.322696 0.477958
v -0.003183 0.329543 0.477958
v -0.000246 0.324456 0.477958
v -0.000749 0.331410 0.477958
v 0.001118 0.333844 0.477958
v 0.003404 0.327257 0.477958
v 0.002291 0.336677 0.477958
v 0.006205 0.348529 0.477958
v 0.006205 0.330907 0.477958
v 0.007965 0.344279 0.477958
v 0.007965 0.335157 0.477958
v 0.008566 0.339718 0.477958
v 0.008566 0.339718 0.477958
v 0.007965 0.344279 0.477958
v 0.007965 0.335157 0.477958
v 0.006205 0.330907 0.477958
v 0.006205 0.348529 0.477958
v 0.003404 0.327257 0.477958
v 0.003404 0.352179 0.477958
v 0.002692 0.339718 0.477958
v 0.002291 0.336677 0.477958
v 0.001118 0.333844 0.477958
v -0.000246 0.324456 0.477958
v -0.000749 0.331410 0.477958
v -0.003183 0.329543 0.477958
v -0.004496 0.322696 0.477958
v -0.006016 0.328370 0.477958
v -0.009057 0.322095 0.477958
v -0.009057 0.327969 0.477958
v -0.012097 0.328370 0.477958
v -0.013618 0.322696 0.477958
v -0.014931 0.329543 0.477958
v -0.017364 0.331410 0.477958
v -0.017868 0.324456 0.477958
v -0.019231 0.333844 0.477958
v -0.020405 0.336677 0.477958
v -0.020805 0.339718 0.477958
v -0.021518 0.327257 0.477958
v 0.002291 0.342758 0.477958
v 0.001118 0.345592 0.477958
v -0.000246 0.354979 0.477958
v -0.000749 0.348025 0.477958
v -0.003183 0.349892 0.477958
v -0.004496 0.356740 0.477958
v -0.006016 0.351066 0.477958
v -0.009057 0.351466 0.477958
v -0.009057 0.357340 0.477958
v -0.012097 0.351066 0.477958
v -0.013618 0.356740 0.477958
v -0.014931 0.349892 0.477958
v -0.017364 0.348025 0.477958
v -0.017868 0.354979 0.477958
v -0.019231 0.345592 0.477958
v -0.020405 0.342758 0.477958
v -0.021518 0.352179 0.477958
v -0.024318 0.330907 0.477958
v -0.024318 0.348529 0.477958
v -0.026079 0.335157 0.477958
v -0.026079 0.344279 0.477958
v -0.026679 0.339718 0.477958
v -0.009057 0.357340 0.475491
v -0.013618 0.356740 0.477958
v -0.013618 0.356740 0.475491
v -0.009057 0.357340 0.477958
v -0.009057 0.357340 0.477958
v -0.009057 0.357340 0.475491
v -0.013618 0.356740 0.477958
v -0.013618 0.356740 0.475491
v -0.004496 0.356740 0.477958
v -0.004496 0.356740 0.475491
v -0.004496 0.356740 0.477958
v -0.004496 0.356740 0.475491
v -0.000246 0.354979 0.475491
v -0.000246 0.354979 0.477958
v -0.000246 0.354979 0.477958
v -0.000246 0.354979 0.475491
v 0.003404 0.352179 0.477958
v 0.003404 0.352179 0.475491
v 0.003404 0.352179 0.477958
v 0.003404 0.352179 0.475491
v 0.006205 0.348529 0.475491
v 0.006205 0.348529 0.477958
v 0.006205 0.348529 0.475491
v 0.006205 0.348529 0.477958
v 0.007965 0.344279 0.475491
v 0.007965 0.344279 0.477958
v 0.007965 0.344279 0.475491
v 0.007965 0.344279 0.477958
v 0.008566 0.339718 0.475491
v 0.008566 0.339718 0.477958
v 0.008566 0.339718 0.475491
v 0.008566 0.339718 0.477958
v 0.007965 0.335157 0.475491
v 0.007965 0.335157 0.477958
v 0.007965 0.335157 0.475491
v 0.007965 0.335157 0.477958
v 0.006205 0.330907 0.475491
v 0.006205 0.330907 0.477958
v 0.006205 0.330907 0.475491
v 0.006205 0.330907 0.477958
v 0.003404 0.327257 0.475491
v 0.003404 0.327257 0.477958
v 0.003404 0.327257 0.475491
v 0.003404 0.327257 0.477958
v -0.000246 0.324456 0.475491
v -0.000246 0.324456 0.477958
v -0.000246 0.324456 0.477958
v -0.000246 0.324456 0.475491
v -0.004496 0.322696 0.477958
v -0.004496 0.322696 0.475491
v -0.004496 0.322696 0.477958
v -0.004496 0.322696 0.475491
v -0.009057 0.322095 0.475491
v -0.009057 0.322095 0.477958
v -0.009057 0.322095 0.477958
v -0.009057 0.322095 0.475491
v -0.013618 0.322696 0.477958
v -0.013618 0.322696 0.475491
v -0.013618 0.322696 0.477958
v -0.013618 0.322696 0.475491
v -0.017868 0.324456 0.477958
v -0.017868 0.324456 0.475491
v -0.017868 0.324456 0.477958
v -0.017868 0.324456 0.475491
v -0.021518 0.327257 0.477958
v -0.021518 0.327257 0.475491
v -0.021518 0.327257 0.477958
v -0.021518 0.327257 0.475491
v -0.024318 0.330907 0.475491
v -0.024318 0.330907 0.477958
v -0.024318 0.330907 0.477958
v -0.024318 0.330907 0.475491
v -0.026079 0.335157 0.475491
v -0.026079 0.335157 0.477958
v -0.026079 0.335157 0.477958
v -0.026079 0.335157 0.475491
v -0.026679 0.339718 0.475491
v -0.026679 0.339718 0.477958
v -0.026679 0.339718 0.477958
v -0.026679 0.339718 0.475491
v -0.026079 0.344279 0.475491
v -0.026079 0.344279 0.477958
v -0.026079 0.344279 0.477958
v -0.026079 0.344279 0.475491
v -0.024318 0.348529 0.475491
v -0.024318 0.348529 0.477958
v -0.024318 0.348529 0.477958
v -0.024318 0.348529 0.475491
v -0.021518 0.352179 0.475491
v -0.021518 0.352179 0.477958
v -0.021518 0.352179 0.477958
v -0.021518 0.352179 0.475491
v -0.017868 0.354979 0.477958
v -0.017868 0.354979 0.475491
v -0.017868 0.354979 0.477958
v -0.017868 0.354979 0.475491
vt -0.0103216 0.03226495
vt -0.0103216 0.0229906
vt -0.009711108 0.02762777
vt -0.01211149 0.03658611
vt -0.01211149 0.01866944
vt -0.01495878 0.04029677
vt -0.01495878 0.01495878
vt -0.01568333 0.02762777
vt -0.01609033 0.03071922
vt -0.01866944 0.04314406
vt -0.01728358 0.0336
vt -0.01918178 0.03607377
vt -0.0229906 0.04493395
vt -0.02165555 0.03797197
vt -0.02453632 0.03916522
vt -0.02762777 0.04554444
vt -0.02762777 0.03957222
vt -0.03226495 0.04493395
vt -0.03071922 0.03916522
vt -0.0336 0.03797197
vt -0.03658611 0.04314406
vt -0.03607377 0.03607377
vt -0.03797197 0.0336
vt -0.04029677 0.04029677
vt -0.03916522 0.03071922
vt -0.03957222 0.02762777
vt -0.01609033 0.02453632
vt -0.01866944 0.01211149
vt -0.01728358 0.02165555
vt -0.01918178 0.01918178
vt -0.0229906 0.0103216
vt -0.02165555 0.01728358
vt -0.02453632 0.01609033
vt -0.02762777 0.009711108
vt -0.02762777 0.01568333
vt -0.03071922 0.01609033
vt -0.03226495 0.0103216
vt -0.0336 0.01728358
vt -0.03658611 0.01211149
vt -0.03607377 0.01918178
vt -0.03797197 0.02165555
vt -0.04029677 0.01495878
vt -0.03916522 0.02453632
vt -0.04314406 0.03658611
vt -0.04314406 0.01866944
vt -0.04493395 0.03226495
vt -0.04493395 0.0229906
vt -0.04554444 0.02762777
vt 0.03333616 0.006354167
vt 0.02865897 0.0088625
vt 0.02865897 0.006354167
vt 0.03333616 0.0088625
vt 0.02612386 0.0088625
vt 0.02144667 0.006354167
vt 0.02612386 0.006354167
vt 0.02144667 0.0088625
vt 0.01729064 0.006354167
vt 0.01261345 0.0088625
vt 0.01261345 0.006354167
vt 0.01729064 0.0088625
vt 0.007438458 0.0088625
vt 0.002761269 0.006354167
vt 0.007438458 0.006354167
vt 0.002761269 0.0088625
vt -0.007438458 0.0088625
vt -0.002761269 0.006354167
vt -0.002761269 0.0088625
vt -0.007438458 0.006354167
vt -0.01729064 0.0088625
vt -0.01261345 0.006354167
vt -0.01261345 0.0088625
vt -0.01729064 0.006354167
vt -0.02612386 0.0088625
vt -0.02144667 0.006354167
vt -0.02144667 0.0088625
vt -0.02612386 0.006354167
vt -0.03333616 0.0088625
vt -0.02865897 0.006354167
vt -0.02865897 0.0088625
vt -0.03333616 0.006354167
vt -0.03843602 0.0088625
vt -0.03375883 0.006354167
vt -0.03375883 0.0088625
vt -0.03843602 0.006354167
vt -0.0410759 0.0088625
vt -0.03639872 0.006354167
vt -0.03639872 0.0088625
vt -0.0410759 0.006354167
vt 0.03843602 0.006354167
vt 0.03375883 0.0088625
vt 0.03375883 0.006354167
vt 0.03843602 0.0088625
vt 0.0410759 0.006354167
vt 0.03639872 0.0088625
vt 0.03639872 0.006354167
vt 0.0410759 0.0088625
vn 0 0 -1
vn 0 -1 0
vn 0.25881900959356163 -0.9659258358036645 0
vn -0.25881900959356163 -0.9659258358036645 0
vn -0.5000000016387101 -0.866025402838329 0
vn -0.7071067811865476 -0.7071067811865476 0
vn -0.866025402838329 -0.5000000016387101 0
vn -0.9659258358036645 -0.25881900959356163 0
vn -1 0 0
vn -0.9659258358036645 0.25881900959356163 0
vn -0.866025402838329 0.5000000016387101 0
vn -0.7071067811865476 0.7071067811865476 0
vn -0.5000000016387101 0.866025402838329 0
vn -0.25881900959356163 0.9659258358036645 0
vn 0 1 0
vn 0.25881900959356163 0.9659258358036645 0
vn 0.5000000016387101 0.866025402838329 0
vn 0.7071067811865476 0.7071067811865476 0
vn 0.866025402838329 0.5000000016387101 0
vn 0.9659258358036645 0.25881900959356163 0
vn 1 0 0
vn 0.9659258358036645 -0.25881900959356163 0
vn 0.866025402838329 -0.5000000016387101 0
vn 0.7071067811865476 -0.7071067811865476 0
vn 0.5000000016387101 -0.866025402838329 0
vn 0 0 1
usemtl material_0_0
f 1/1/1 2/2/1 3/3/1
f 2/2/1 1/1/1 4/4/1
f 2/2/1 4/4/1 5/5/1
f 5/5/1 4/4/1 6/6/1
f 5/5/1 6/6/1 7/7/1
f 7/7/1 6/6/1 8/8/1
f 8/8/1 6/6/1 9/9/1
f 9/9/1 6/6/1 10/10/1
f 9/9/1 10/10/1 11/11/1
f 11/11/1 10/10/1 12/12/1
f 12/12/1 10/10/1 13/13/1
f 12/12/1 13/13/1 14/14/1
f 14/14/1 13/13/1 15/15/1
f 15/15/1 13/13/1 16/16/1
f 15/15/1 16/16/1 17/17/1
f 17/17/1 16/16/1 18/18/1
f 17/17/1 18/18/1 19/19/1
f 19/19/1 18/18/1 20/20/1
f 20/20/1 18/18/1 21/21/1
f 20/20/1 21/21/1 22/22/1
f 22/22/1 21/21/1 23/23/1
f 23/23/1 21/21/1 24/24/1
f 23/23/1 24/24/1 25/25/1
f 25/25/1 24/24/1 26/26/1
f 7/7/1 27/27/1 28/28/1
f 27/27/1 7/7/1 8/8/1
f 28/28/1 27/27/1 29/29/1
f 28/28/1 29/29/1 30/30/1
f 28/28/1 30/30/1 31/31/1
f 31/31/1 30/30/1 32/32/1
f 31/31/1 32/32/1 33/33/1
f 31/31/1 33/33/1 34/34/1
f 34/34/1 33/33/1 35/35/1
f 34/34/1 35/35/1 36/36/1
f 34/34/1 36/36/1 37/37/1
f 37/37/1 36/36/1 38/38/1
f 37/37/1 38/38/1 39/39/1
f 39/39/1 38/38/1 40/40/1
f 39/39/1 40/40/1 41/41/1
f 39/39/1 41/41/1 42/42/1
f 42/42/1 41/41/1 43/43/1
f 42/42/1 43/43/1 26/26/1
f 42/42/1 26/26/1 24/24/1
f 42/42/1 24/24/1 44/44/1
f 42/42/1 44/44/1 45/45/1
f 45/45/1 44/44/1 46/46/1
f 45/45/1 46/46/1 47/47/1
f 47/47/1 46/46/1 48/48/1
f 97/49/2 98/50/3 99/51/3
f 98/50/3 97/49/2 100/52/2
f 105/53/4 97/54/2 106/55/4
f 97/54/2 105/53/4 100/56/2
f 109/57/5 105/58/4 106/59/4
f 105/58/4 109/57/5 110/60/5
f 113/61/6 109/62/5 114/63/6
f 109/62/5 113/61/6 110/64/5
f 113/65/6 117/66/7 118/67/7
f 117/66/7 113/65/6 114/68/6
f 118/69/7 121/70/8 122/71/8
f 121/70/8 118/69/7 117/72/7
f 122/73/8 125/74/9 126/75/9
f 125/74/9 122/73/8 121/76/8
f 126/77/9 129/78/10 130/79/10
f 129/78/10 126/77/9 125/80/9
f 130/81/10 133/82/11 134/83/11
f 133/82/11 130/81/10 129/84/10
f 134/85/11 137/86/12 138/87/12
f 137/86/12 134/85/11 133/88/11
f 141/86/13 138/85/12 137/88/12
f 138/85/12 141/86/13 142/87/13
f 145/83/14 141/84/13 146/82/14
f 141/84/13 145/83/14 142/81/13
f 149/78/15 145/77/14 146/80/14
f 145/77/14 149/78/15 150/79/15
f 153/75/16 149/76/15 154/74/16
f 149/76/15 153/75/16 150/73/15
f 157/71/17 154/72/16 158/70/17
f 154/72/16 157/71/17 153/69/16
f 161/67/18 158/68/17 162/66/18
f 158/68/17 161/67/18 157/65/17
f 165/63/19 161/64/18 162/62/18
f 161/64/18 165/63/19 166/61/19
f 169/57/20 166/58/19 165/59/19
f 166/58/19 169/57/20 170/60/20
f 173/55/21 170/56/20 169/54/20
f 170/56/20 173/55/21 174/53/21
f 177/49/22 174/50/21 173/51/21
f 174/50/21 177/49/22 178/52/22
f 181/89/23 178/90/22 177/91/22
f 178/90/22 181/89/23 182/92/23
f 185/93/24 182/94/23 181/95/23
f 182/94/23 185/93/24 186/96/24
f 189/96/25 185/95/24 190/93/25
f 185/95/24 189/96/25 186/94/24
f 98/92/3 190/91/25 99/89/3
f 190/91/25 98/92/3 189/90/25
usemtl material_1_0
f 49//26 50//26 51//26
f 51//26 50//26 52//26
f 50//26 53//26 52//26
f 52//26 53//26 54//26
f 53//26 55//26 54//26
f 55//26 56//26 54//26
f 56//26 57//26 54//26
f 57//26 58//26 54//26
f 54//26 58//26 59//26
f 58//26 60//26 59//26
f 60//26 61//26 59//26
f 59//26 61//26 62//26
f 61//26 63//26 62//26
f 62//26 63//26 64//26
f 63//26 65//26 64//26
f 65//26 66//26 64//26
f 64//26 66//26 67//26
f 66//26 68//26 67//26
f 68//26 69//26 67//26
f 67//26 69//26 70//26
f 69//26 71//26 70//26
f 71//26 72//26 70//26
f 73//26 74//26 72//26
f 70//26 72//26 74//26
f 56//26 55//26 75//26
f 75//26 55//26 76//26
f 55//26 77//26 76//26
f 76//26 77//26 78//26
f 78//26 77//26 79//26
f 77//26 80//26 79//26
f 79//26 80//26 81//26
f 81//26 80//26 82//26
f 80//26 83//26 82//26
f 82//26 83//26 84//26
f 83//26 85//26 84//26
f 84//26 85//26 86//26
f 86//26 85//26 87//26
f 85//26 88//26 87//26
f 87//26 88//26 89//26
f 89//26 88//26 90//26
f 88//26 91//26 90//26
f 90//26 91//26 73//26
f 73//26 91//26 74//26
f 74//26 91//26 92//26
f 91//26 93//26 92//26
f 92//26 93//26 94//26
f 93//26 95//26 94//26
f 96//26 94//26 95//26
f 101//15 102//15 103//14
f 104//14 103//14 102//15
f 101//15 107//16 102//15
f 108//16 102//15 107//16
f 111//17 112//17 107//16
f 108//16 107//16 112//17
f 111//17 115//18 112//17
f 116//18 112//17 115//18
f 116//18 115//18 119//19
f 120//19 119//19 115//18
f 119//19 120//19 123//20
f 124//20 123//20 120//19
f 123//20 124//20 127//21
f 128//21 127//21 124//20
f 127//21 128//21 131//22
f 132//22 131//22 128//21
f 131//22 132//22 135//23
f 136//23 135//23 132//22
f 135//23 136//23 139//24
f 140//24 139//24 136//23
f 143//25 144//25 140//24
f 139//24 140//24 144//25
f 143//25 147//3 144//25
f 148//3 144//25 147//3
f 151//2 152//2 147//3
f 148//3 147//3 152//2
f 151//2 155//4 152//2
f 156//4 152//2 155//4
f 155//4 159//5 156//4
f 160//5 156//4 159//5
f 159//5 163//6 160//5
f 164//6 160//5 163//6
f 167//7 168//7 163//6
f 164//6 163//6 168//7
f 171//8 172//8 167//7
f 168//7 167//7 172//8
f 175//9 176//9 171//8
f 172//8 171//8 176//9
f 179//10 180//10 175//9
f 176//9 175//9 180//10
f 183//11 184//11 179//10
f 180//10 179//10 184//11
f 187//12 188//12 183//11
f 184//11 183//11 188//12
f 187//12 191//13 188//12
f 192//13 188//12 191//13
f 191//13 103//14 192//13
f 104//14 192//13 103//14
