# SSTK version 0.8.0
# 26
mtllib original-26.mtl
o #ID80
v -0.009048 0.357037 0.472680
v -0.009050 0.357037 0.472680
v -0.009050 0.357037 0.472680
v -0.009049 0.357037 0.472680
v -0.009048 0.357040 0.472680
v -0.009049 0.357040 0.472680
v -0.009049 0.357037 0.472680
v -0.009049 0.357040 0.472680
v -0.009048 0.357040 0.472680
v -0.009048 0.357037 0.472680
v -0.009050 0.357037 0.472680
v -0.009050 0.357037 0.472680
vt 0.08528607 0.005695893
vt 0.07139718 0.007094737
vt 0.07139718 0.005695893
vt 0.08354952 0.007094737
vt 0.08528607 0.03002469
vt 0.08354952 0.03002469
vn 0 0 1
vn 0 0 -1
usemtl material_0_0
f 1/1/1 2/2/1 3/3/1
f 2/2/1 1/1/1 4/4/1
f 4/4/1 1/1/1 5/5/1
f 5/5/1 6/6/1 4/4/1
f 7/4/2 8/6/2 9/5/2
f 9/5/2 10/1/2 7/4/2
f 7/4/2 10/1/2 11/2/2
f 12/3/2 11/2/2 10/1/2
