# SSTK version 0.8.0
# 45
mtllib original-45.mtl
o #ID261
v -0.273808 -0.556892 0.151000
v -0.273808 -0.556892 0.009121
v -0.283147 -0.556892 0.080060
v -0.246426 -0.556892 0.217106
v -0.246426 -0.556892 -0.056985
v -0.202868 -0.556892 0.273872
v -0.202868 -0.556892 -0.113751
v -0.146102 -0.556892 0.317430
v -0.146102 -0.556892 -0.157309
v -0.079997 -0.556892 0.344811
v -0.079997 -0.556892 -0.184691
v -0.009057 -0.556892 0.354151
v -0.009057 -0.556892 -0.194030
v 0.061883 -0.556892 0.344811
v 0.061883 -0.556892 -0.184691
v 0.127988 -0.556892 0.317430
v 0.127988 -0.556892 -0.157309
v 0.184754 -0.556892 0.273872
v 0.184754 -0.556892 -0.113751
v 0.228312 -0.556892 0.217106
v 0.228312 -0.556892 -0.056985
v 0.255694 -0.556892 0.151000
v 0.255694 -0.556892 0.009121
v 0.265034 -0.556892 0.080060
vn 0 1 0
usemtl material_0_0
f 1//1 2//1 3//1
f 2//1 1//1 4//1
f 2//1 4//1 5//1
f 5//1 4//1 6//1
f 5//1 6//1 7//1
f 7//1 6//1 8//1
f 7//1 8//1 9//1
f 9//1 8//1 10//1
f 9//1 10//1 11//1
f 11//1 10//1 12//1
f 11//1 12//1 13//1
f 13//1 12//1 14//1
f 13//1 14//1 15//1
f 15//1 14//1 16//1
f 15//1 16//1 17//1
f 17//1 16//1 18//1
f 17//1 18//1 19//1
f 19//1 18//1 20//1
f 19//1 20//1 21//1
f 21//1 20//1 22//1
f 21//1 22//1 23//1
f 23//1 22//1 24//1
