# SSTK version 0.8.0
# 109
mtllib original-109.mtl
o #ID458
v -0.136040 0.174696 0.413121
v -0.237419 0.161035 0.362477
v -0.139455 0.161035 0.419036
v -0.234004 0.174696 0.356561
v -0.065616 0.161035 0.291144
v -0.136040 0.174696 0.413121
v -0.139455 0.161035 0.419036
v -0.065616 0.174696 0.291144
v -0.136040 0.174696 0.413121
v -0.163581 0.174696 0.234584
v -0.234004 0.174696 0.356561
v -0.118322 0.174696 0.269313
v -0.065616 0.174696 0.291144
v -0.234004 0.174696 0.356561
v -0.163581 0.161035 0.234584
v -0.237419 0.161035 0.362477
v -0.163581 0.174696 0.234584
v -0.009057 0.174696 0.298590
v -0.065616 0.161035 0.291144
v -0.009057 0.161035 0.298590
v -0.065616 0.174696 0.291144
v -0.065616 0.174696 0.291144
v -0.062206 0.188357 0.172118
v -0.118322 0.174696 0.269313
v -0.036569 0.188357 0.182737
v -0.084222 0.188357 0.155225
v -0.163581 0.174696 0.234584
v -0.163581 0.174696 0.234584
v -0.198309 0.161035 0.189325
v -0.163581 0.161035 0.234584
v -0.198309 0.174696 0.189325
v 0.047503 0.174696 0.291144
v 0.047503 0.161035 0.291144
v -0.009057 0.188357 0.186359
v -0.009057 0.174696 0.298590
v -0.065616 0.174696 0.291144
v -0.118322 0.161035 0.269313
v -0.065616 0.161035 0.291144
v -0.118322 0.174696 0.269313
v -0.031311 0.167865 0.163115
v -0.052049 0.167865 0.154525
v -0.163581 0.161035 0.234584
v -0.163581 0.174696 0.234584
v -0.069857 0.167865 0.140861
v -0.101114 0.188357 0.133210
v -0.198309 0.174696 0.189325
v -0.220140 0.161035 0.136620
v -0.220140 0.174696 0.136620
v 0.100208 0.161035 0.269313
v 0.100208 0.174696 0.269313
v 0.018455 0.188357 0.182737
v 0.047503 0.174696 0.291144
v -0.009057 0.167865 0.166045
v -0.092111 0.167865 0.057806
v -0.069857 0.167865 0.019260
v -0.083522 0.167865 0.037068
v -0.052049 0.167865 0.005595
v -0.095041 0.167865 0.080060
v -0.031311 0.167865 -0.002994
v -0.092112 0.167865 0.102315
v -0.058417 0.167865 0.051562
v -0.064111 0.167865 0.065309
v -0.083522 0.167865 0.123053
v -0.066053 0.167865 0.080060
v -0.064111 0.167865 0.094812
v -0.069857 0.167865 0.140861
v -0.058417 0.167865 0.108558
v -0.049359 0.167865 0.120363
v -0.052049 0.167865 0.154525
v -0.037555 0.167865 0.129420
v -0.023808 0.167865 0.135114
v -0.031311 0.167865 0.163115
v -0.009057 0.167865 0.137056
v -0.009057 0.167865 0.166045
v 0.005695 0.167865 0.135114
v 0.019441 0.167865 0.129420
v 0.013198 0.167865 0.163115
v 0.031245 0.167865 0.120363
v 0.040303 0.167865 0.108558
v -0.049359 0.167865 0.039758
v -0.009057 0.167865 -0.005924
v -0.037555 0.167865 0.030700
v -0.023808 0.167865 0.025006
v 0.013198 0.167865 -0.002994
v -0.009057 0.167865 0.023064
v 0.005695 0.167865 0.025006
v 0.033936 0.167865 0.005595
v 0.019441 0.167865 0.030700
v 0.051743 0.167865 0.019260
v 0.031246 0.167865 0.039758
v 0.040303 0.167865 0.051562
v 0.065408 0.167865 0.037068
v 0.045997 0.167865 0.065309
v 0.047939 0.167865 0.080060
v 0.073998 0.167865 0.057806
v 0.045997 0.167865 0.094812
v 0.033936 0.167865 0.154525
v 0.076928 0.167865 0.080060
v 0.051744 0.167865 0.140861
v 0.073998 0.167865 0.102315
v 0.065408 0.167865 0.123053
v -0.083522 0.167865 0.123053
v -0.111734 0.188357 0.107573
v -0.220140 0.174696 0.136620
v -0.227587 0.174696 0.080060
v -0.227587 0.161035 0.080060
v 0.145467 0.161035 0.234584
v 0.145467 0.174696 0.234584
v 0.044093 0.188357 0.172118
v 0.100208 0.174696 0.269313
v 0.013198 0.167865 0.163115
v -0.069857 0.167865 0.019260
v -0.062206 0.188357 -0.011997
v -0.084222 0.188357 0.004896
v -0.052049 0.167865 0.005595
v -0.101114 0.188357 0.026911
v -0.083522 0.167865 0.037068
v -0.092111 0.167865 0.057806
v -0.111734 0.188357 0.052548
v -0.115356 0.188357 0.080060
v -0.095041 0.167865 0.080060
v -0.092112 0.167865 0.102315
v 0.033936 0.167865 0.154525
v 0.051744 0.167865 0.140861
v 0.066108 0.188357 0.155225
v 0.083001 0.188357 0.133210
v 0.065408 0.167865 0.123053
v 0.093620 0.188357 0.107573
v 0.073998 0.167865 0.102315
v 0.097242 0.188357 0.080060
v 0.076928 0.167865 0.080060
v 0.093620 0.188357 0.052548
v 0.073998 0.167865 0.057806
v 0.083001 0.188357 0.026911
v 0.065408 0.167865 0.037068
v 0.066108 0.188357 0.004896
v 0.051743 0.167865 0.019260
v 0.033936 0.167865 0.005595
v 0.044093 0.188357 -0.011997
v 0.013198 0.167865 -0.002994
v 0.018455 0.188357 -0.022617
v -0.009057 0.167865 -0.005924
v -0.009057 0.188357 -0.026239
v -0.031311 0.167865 -0.002994
v -0.036569 0.188357 -0.022617
v -0.227587 0.174696 0.080060
v -0.220140 0.174696 0.023501
v -0.220140 0.161035 0.023501
v 0.180196 0.161035 0.189325
v 0.180196 0.174696 0.189325
v 0.145467 0.174696 0.234584
v -0.118322 0.174696 -0.109192
v -0.163581 0.174696 -0.074464
v -0.198309 0.174696 -0.029205
v -0.220140 0.174696 0.023501
v 0.180196 0.174696 0.189325
v 0.202027 0.174696 0.136620
v 0.209473 0.174696 0.080060
v 0.202027 0.174696 0.023501
v 0.180196 0.174696 -0.029205
v 0.145467 0.174696 -0.074464
v 0.100208 0.174696 -0.109192
v 0.047503 0.174696 -0.131023
v -0.009057 0.174696 -0.138470
v -0.065617 0.174696 -0.131023
v -0.198309 0.174696 -0.029205
v -0.198309 0.161035 -0.029205
v 0.202027 0.161035 0.136620
v 0.202027 0.174696 0.136620
v -0.118322 0.174696 -0.109192
v -0.163581 0.161035 -0.074464
v -0.163581 0.174696 -0.074464
v -0.118322 0.161035 -0.109192
v 0.209473 0.161035 0.080060
v 0.209473 0.174696 0.080060
v 0.202027 0.161035 0.023501
v 0.202027 0.174696 0.023501
v 0.180196 0.174696 -0.029205
v 0.180196 0.161035 -0.029205
v 0.145467 0.174696 -0.074464
v 0.145467 0.161035 -0.074464
v 0.100208 0.174696 -0.109192
v 0.100208 0.161035 -0.109192
v 0.047503 0.174696 -0.131023
v 0.047503 0.161035 -0.131023
v -0.009057 0.174696 -0.138470
v -0.009057 0.161035 -0.138470
v -0.065617 0.174696 -0.131023
v -0.065617 0.161035 -0.131023
vn -0.4472136255942474 0.44721348098560443 0.7745967179814197
vn 0.8660254028383274 0 0.5000000016387129
vn 0 1 0
vn -0.8660254028383275 0 -0.5000000016387125
vn 0 0 1
vn -0.13052621140662463 0 0.99144485884785
vn -0.031272778495898094 0.9926733635775737 0.11671163853160685
vn 0.14732884327070905 0.9556028716633139 -0.2551810408501049
vn -0.06041441689750457 0.9926733566583905 0.10464083911885645
vn 0.0762630270013432 0.9556028676908705 -0.28461748009139765
vn 0.20835445540809527 0.9556028676908704 -0.20835445800985586
vn -0.08543885496106707 0.9926733635775737 0.08543883956683689
vn -0.793353330814223 0 0.6087614413594031
vn -0.866025405676658 0 0.49999999672258
vn 0.2588190432747772 0 0.9659258267788108
vn 1.70484848508426e-8 0.9556028636206305 -0.2946577116588841
vn -3.73449505091066e-9 0.9926733583289257 0.12082881967466388
vn -0.38268343164498014 0 0.9238795328095659
vn -0.5000000016387094 0 0.8660254028383294
vn 0.1838038048218117 0.7040370782016192 -0.6859649800466147
vn 0.3550816061515003 0.7040370836804691 -0.6150193799999891
vn -0.6087614326294897 0 0.7933533375129213
vn 0.5021611983163465 0.7040370782016192 -0.5021612524108346
vn 0.25518105575089856 0.9556028636206304 -0.14732886962814587
vn -0.10464082570893482 0.9926733583289257 0.06041441267549286
vn -0.9659258267788108 0 0.2588190432747772
vn 0.49999999672258 0 0.866025405676658
vn -0.0762630245899962 0.9556028665217088 -0.28461748466297504
vn 0.031272798067553106 0.9926733590064588 0.11671167216632655
vn -3.4672644532814126e-8 0.7040370648723104 -0.7101632286214071
vn 0.6150194154998214 0.7040370648723103 -0.3550815819558092
vn 0.28461748466297526 0.9556028665217087 -0.076263024589996
vn -0.11671167216632633 0.9926733590064588 0.03127279806755333
vn -1 0 0
vn 0.7071068058429081 0 0.7071067565301862
vn -0.1473288696281461 0.9556028636206305 -0.25518105575089833
vn 0.060414412675492635 0.9926733583289257 0.10464082570893504
vn -0.183803772778546 0.7040370439131826 -0.6859650238243641
vn 0.5021612524108348 0.704037078201619 0.5021611983163466
vn 0.14732886962814612 0.9556028636206305 0.25518105575089883
vn 0.20835445800985608 0.9556028676908704 0.2083544554080955
vn 0.3550815819558094 0.7040370648723102 0.6150194154998218
vn 0.25518104085010673 0.9556028716633138 0.14732884327070647
vn 0.6150193799999928 0.7040370836804689 0.35508160615149437
vn 0.6859649800466148 0.7040370782016191 0.18380380482181186
vn 0.28461748009139787 0.9556028676908704 0.07626302700134341
vn 0.2946577116588843 0.9556028636206304 1.7048485063029062e-8
vn 0.7101632286214071 0.7040370648723102 -3.4672644376486486e-8
vn 0.6859650238243642 0.7040370439131824 -0.18380377277854584
vn -0.35508158195580936 0.7040370648723103 -0.6150194154998213
vn -0.5021612524108348 0.7040370782016192 -0.5021611983163464
vn -0.20835445800985608 0.9556028676908704 -0.20835445540809505
vn -0.2551810408501043 0.9556028716633138 -0.14732884327071027
vn -0.6150193799999882 0.7040370836804691 -0.35508160615150186
vn -0.28461748009139787 0.9556028676908704 -0.07626302700134299
vn -0.6859649800466148 0.7040370782016191 -0.18380380482181152
vn -0.2946577116588843 0.9556028636206304 -1.704848463865614e-8
vn -0.7101632286214071 0.7040370648723102 3.467264468914175e-8
vn -0.28461748466297526 0.9556028665217087 0.07626302458999641
vn -0.6859650238243641 0.7040370439131823 0.18380377277854612
vn -0.25518105575089856 0.9556028636206304 0.14732886962814631
vn -0.6150194154998216 0.7040370648723102 0.3550815819558096
vn -0.20835445540809527 0.9556028676908704 0.2083544580098563
vn -0.5021611983163465 0.704037078201619 0.5021612524108349
vn -0.3550816061514977 0.7040370836804689 0.6150193799999909
vn -0.14732884327070767 0.9556028716633137 0.2551810408501061
vn -0.1838038048218117 0.704037078201619 0.6859649800466149
vn -0.0762630270013432 0.9556028676908703 0.2846174800913981
vn 3.4672644532814126e-8 0.7040370648723102 0.7101632286214073
vn -1.70484848508426e-8 0.9556028636206303 0.29465771165888455
vn 0.183803772778546 0.7040370439131823 0.6859650238243643
vn 0.07626302458999622 0.9556028665217088 0.28461748466297554
vn -0.12082881967466366 0.9926733583289257 -3.734494830492895e-9
vn -0.9659258162847282 0 -0.258819082439223
vn 0.8660254028383301 0 0.5000000016387083
vn 0.08543883956683666 0.9926733635775737 0.08543885496106729
vn -0.060414412675492635 0.9926733583289257 -0.1046408257089346
vn -0.08543883956683666 0.9926733635775737 -0.08543885496106685
vn -0.10464083911885652 0.9926733566583905 -0.06041441689750386
vn -0.11671163853160663 0.9926733635775737 -0.03127277849589787
vn 0.10464083911885634 0.9926733566583905 0.06041441689750461
vn 0.11671163853160663 0.9926733635775737 0.03127277849589832
vn 0.12082881967466366 0.9926733583289257 3.734495271328424e-9
vn 0.11671167216632633 0.9926733590064588 -0.031272798067552884
vn 0.10464082570893482 0.9926733583289257 -0.06041441267549241
vn 0.08543885496106707 0.9926733635775737 -0.08543883956683644
vn 0.060414416897504306 0.9926733566583905 -0.10464083911885617
vn 0.031272778495898094 0.9926733635775737 -0.1167116385316064
vn 3.73449505091066e-9 0.9926733583289257 -0.12082881967466344
vn -0.031272798067553106 0.9926733590064588 -0.11671167216632611
vn -0.8660254028383305 0 -0.5000000016387073
vn 0.9659258162847282 0 0.258819082439223
vn -0.49999999672258 0 -0.866025405676658
vn -0.7071068058429081 0 -0.7071067565301862
vn 1 0 0
vn 0.9659258267788108 0 -0.2588190432747772
vn 0.866025405676658 0 -0.49999999672258
vn 0.7071067565301862 0 -0.7071068058429081
vn 0.5000000016387083 0 -0.86602540283833
vn 0.258819082439223 0 -0.9659258162847282
vn 0 0 -1
vn -0.2588190432747772 0 -0.9659258267788108
usemtl material_0_0
f 1//1 2//1 3//1
f 2//1 1//1 4//1
f 5//2 6//2 7//2
f 6//2 5//2 8//2
f 9//3 10//3 11//3
f 10//3 9//3 12//3
f 12//3 9//3 13//3
f 14//4 15//4 16//4
f 15//4 14//4 17//4
f 18//5 19//6 20//5
f 19//6 18//5 21//6
f 22//7 23//8 24//9
f 23//8 22//7 25//10
f 24//9 26//11 27//12
f 26//11 24//9 23//8
f 28//13 29//14 30//13
f 29//14 28//13 31//14
f 32//15 20//5 33//15
f 20//5 32//15 18//5
f 22//7 34//16 25//10
f 34//16 22//7 35//17
f 36//18 37//19 38//18
f 37//19 36//18 39//19
f 23//8 40//20 41//21
f 40//20 23//8 25//10
f 39//19 42//22 37//19
f 42//22 39//19 43//22
f 26//11 41//21 44//23
f 41//21 26//11 23//8
f 27//12 45//24 46//25
f 45//24 27//12 26//11
f 31//14 47//26 29//14
f 47//26 31//14 48//26
f 49//27 32//15 33//15
f 32//15 49//27 50//27
f 35//17 51//28 34//16
f 51//28 35//17 52//29
f 25//10 53//30 40//20
f 53//30 25//10 34//16
f 54//3 55//3 56//3
f 55//3 54//3 57//3
f 57//3 54//3 58//3
f 57//3 58//3 59//3
f 59//3 58//3 60//3
f 59//3 60//3 61//3
f 61//3 60//3 62//3
f 62//3 60//3 63//3
f 62//3 63//3 64//3
f 64//3 63//3 65//3
f 65//3 63//3 66//3
f 65//3 66//3 67//3
f 67//3 66//3 68//3
f 68//3 66//3 69//3
f 68//3 69//3 70//3
f 70//3 69//3 71//3
f 71//3 69//3 72//3
f 71//3 72//3 73//3
f 73//3 72//3 74//3
f 73//3 74//3 75//3
f 75//3 74//3 76//3
f 76//3 74//3 77//3
f 76//3 77//3 78//3
f 78//3 77//3 79//3
f 59//3 80//3 81//3
f 80//3 59//3 61//3
f 81//3 80//3 82//3
f 81//3 82//3 83//3
f 81//3 83//3 84//3
f 84//3 83//3 85//3
f 84//3 85//3 86//3
f 84//3 86//3 87//3
f 87//3 86//3 88//3
f 87//3 88//3 89//3
f 89//3 88//3 90//3
f 89//3 90//3 91//3
f 89//3 91//3 92//3
f 92//3 91//3 93//3
f 92//3 93//3 94//3
f 92//3 94//3 95//3
f 95//3 94//3 96//3
f 95//3 96//3 79//3
f 95//3 79//3 77//3
f 95//3 77//3 97//3
f 95//3 97//3 98//3
f 98//3 97//3 99//3
f 98//3 99//3 100//3
f 100//3 99//3 101//3
f 26//11 102//31 45//24
f 102//31 26//11 44//23
f 46//25 103//32 104//33
f 103//32 46//25 45//24
f 105//34 47//26 48//26
f 47//26 105//34 106//34
f 107//35 50//27 49//27
f 50//27 107//35 108//35
f 52//29 109//36 51//28
f 109//36 52//29 110//37
f 34//16 111//38 53//30
f 111//38 34//16 51//28
f 112//39 113//40 114//41
f 113//40 112//39 115//42
f 112//39 116//43 117//44
f 116//43 112//39 114//41
f 118//45 116//43 119//46
f 116//43 118//45 117//44
f 120//47 118//45 119//46
f 118//45 120//47 121//48
f 103//32 121//48 120//47
f 121//48 103//32 122//49
f 45//24 122//49 103//32
f 122//49 45//24 102//31
f 51//28 123//50 111//38
f 123//50 51//28 109//36
f 109//36 124//51 123//50
f 124//51 109//36 125//52
f 126//53 124//51 125//52
f 124//51 126//53 127//54
f 128//55 127//54 126//53
f 127//54 128//55 129//56
f 129//56 130//57 131//58
f 130//57 129//56 128//55
f 131//58 132//59 133//60
f 132//59 131//58 130//57
f 133//60 134//61 135//62
f 134//61 133//60 132//59
f 135//62 136//63 137//64
f 136//63 135//62 134//61
f 136//63 138//65 137//64
f 138//65 136//63 139//66
f 139//66 140//67 138//65
f 140//67 139//66 141//68
f 142//69 141//68 143//70
f 141//68 142//69 140//67
f 144//71 143//70 145//72
f 143//70 144//71 142//69
f 115//42 145//72 113//40
f 145//72 115//42 144//71
f 104//33 120//47 146//73
f 120//47 104//33 103//32
f 147//74 106//34 105//34
f 106//34 147//74 148//74
f 149//75 108//35 107//35
f 108//35 149//75 150//75
f 110//37 125//52 109//36
f 125//52 110//37 151//76
f 114//41 152//77 153//78
f 152//77 114//41 113//40
f 116//43 153//78 154//79
f 153//78 116//43 114//41
f 155//80 116//43 154//79
f 116//43 155//80 119//46
f 146//73 119//46 155//80
f 119//46 146//73 120//47
f 151//76 126//53 125//52
f 126//53 151//76 156//81
f 126//53 157//82 128//55
f 157//82 126//53 156//81
f 128//55 158//83 130//57
f 158//83 128//55 157//82
f 130//57 159//84 132//59
f 159//84 130//57 158//83
f 132//59 160//85 134//61
f 160//85 132//59 159//84
f 134//61 161//86 136//63
f 161//86 134//61 160//85
f 139//66 161//86 162//87
f 161//86 139//66 136//63
f 141//68 162//87 163//88
f 162//87 141//68 139//66
f 143//70 163//88 164//89
f 163//88 143//70 141//68
f 145//72 164//89 165//90
f 164//89 145//72 143//70
f 113//40 165//90 152//77
f 165//90 113//40 145//72
f 166//91 148//74 147//74
f 148//74 166//91 167//91
f 168//92 150//75 149//75
f 150//75 168//92 169//92
f 170//93 171//94 172//94
f 171//94 170//93 173//93
f 172//94 167//91 166//91
f 167//91 172//94 171//94
f 174//95 169//92 168//92
f 169//92 174//95 175//95
f 176//96 175//95 174//95
f 175//95 176//96 177//96
f 178//97 176//96 179//97
f 176//96 178//97 177//96
f 180//98 179//97 181//98
f 179//97 180//98 178//97
f 182//99 181//98 183//99
f 181//98 182//99 180//98
f 184//100 183//99 185//100
f 183//99 184//100 182//99
f 186//101 185//100 187//101
f 185//100 186//101 184//100
f 188//102 187//101 189//102
f 187//101 188//102 186//101
f 188//102 173//93 170//93
f 173//93 188//102 189//102
