# SSTK version 0.8.0
# 44
mtllib original-44.mtl
o #ID255
v 0.234559 -0.528041 -0.060591
v 0.184754 -0.556892 -0.113751
v 0.228312 -0.556892 -0.056985
v 0.189855 -0.528041 -0.118851
v 0.262661 -0.528041 0.007254
v 0.255694 -0.556892 0.009121
v 0.127988 -0.556892 -0.157309
v 0.131595 -0.528041 -0.163555
v 0.265034 -0.556892 0.080060
v 0.272246 -0.528041 0.080060
v 0.061883 -0.556892 -0.184691
v 0.063750 -0.528041 -0.191658
v 0.255694 -0.556892 0.151000
v 0.262661 -0.528041 0.152867
v -0.009057 -0.556892 -0.194030
v -0.009057 -0.528041 -0.201243
v 0.228312 -0.556892 0.217106
v 0.234559 -0.528041 0.220712
v -0.079997 -0.556892 -0.184691
v -0.081863 -0.528041 -0.191658
v 0.184754 -0.556892 0.273872
v 0.189855 -0.528041 0.278972
v -0.146102 -0.556892 -0.157309
v -0.149708 -0.528041 -0.163555
v 0.131595 -0.528041 0.323676
v 0.127988 -0.556892 0.317430
v -0.202868 -0.556892 -0.113751
v -0.207968 -0.528041 -0.118851
v 0.063750 -0.528041 0.351778
v 0.061883 -0.556892 0.344811
v -0.252673 -0.528041 -0.060591
v -0.246426 -0.556892 -0.056985
v -0.009057 -0.528041 0.361364
v -0.009057 -0.556892 0.354151
v -0.280775 -0.528041 0.007254
v -0.273808 -0.556892 0.009121
v -0.081863 -0.528041 0.351778
v -0.079997 -0.556892 0.344811
v -0.283147 -0.556892 0.080060
v -0.290360 -0.528041 0.080060
v -0.149708 -0.528041 0.323676
v -0.146102 -0.556892 0.317430
v -0.273808 -0.556892 0.151000
v -0.280775 -0.528041 0.152867
v -0.207968 -0.528041 0.278972
v -0.202868 -0.556892 0.273872
v -0.246426 -0.556892 0.217106
v -0.252673 -0.528041 0.220712
vn -0.8401680497543141 0.24253558549532211 0.48507127099063857
vn -0.6859943423490594 0.24253561497265275 0.6859943423490594
vn -0.9370856917696653 0.2425355978698328 0.2510913977946882
vn -0.4850712709906385 0.24253558549532206 0.8401680497543141
vn -0.9701425060276845 0.24253560150692094 0
vn -0.25109139779468814 0.24253559786983264 0.9370856917696653
vn -0.9370856917696653 0.24253559786983292 -0.25109139779468803
vn 0 0.2425356015069208 0.9701425060276847
vn -0.8401680497543141 0.24253558549532236 -0.48507127099063846
vn 0.25109139779468814 0.24253559786983264 0.9370856917696653
vn -0.6859943423490594 0.24253561497265305 -0.6859943423490594
vn 0.4850712709906385 0.24253558549532206 0.8401680497543141
vn -0.4850712709906385 0.24253558549532242 -0.8401680497543141
vn 0.6859943423490594 0.24253561497265275 0.6859943423490594
vn -0.25109139779468814 0.24253559786983306 -0.9370856917696653
vn 0.8401680497543141 0.24253558549532211 0.48507127099063857
vn 0 0.24253560150692116 -0.9701425060276845
vn 0.9370856917696653 0.2425355978698328 0.2510913977946882
vn 0.25109139779468814 0.24253559786983306 -0.9370856917696653
vn 0.9701425060276845 0.24253560150692094 0
vn 0.4850712709906385 0.24253558549532242 -0.8401680497543141
vn 0.9370856917696653 0.24253559786983292 -0.25109139779468803
vn 0.6859943423490594 0.24253561497265305 -0.6859943423490594
vn 0.8401680497543141 0.24253558549532236 -0.48507127099063846
usemtl material_0_0
f 1//1 2//2 3//1
f 2//2 1//1 4//2
f 5//3 3//1 6//3
f 3//1 5//3 1//1
f 4//2 7//4 2//2
f 7//4 4//2 8//4
f 5//3 9//5 10//5
f 9//5 5//3 6//3
f 8//4 11//6 7//4
f 11//6 8//4 12//6
f 10//5 13//7 14//7
f 13//7 10//5 9//5
f 12//6 15//8 11//6
f 15//8 12//6 16//8
f 14//7 17//9 18//9
f 17//9 14//7 13//7
f 16//8 19//10 15//8
f 19//10 16//8 20//10
f 18//9 21//11 22//11
f 21//11 18//9 17//9
f 20//10 23//12 19//10
f 23//12 20//10 24//12
f 25//13 21//11 26//13
f 21//11 25//13 22//11
f 24//12 27//14 23//12
f 27//14 24//12 28//14
f 29//15 26//13 30//15
f 26//13 29//15 25//13
f 27//14 31//16 32//16
f 31//16 27//14 28//14
f 33//17 30//15 34//17
f 30//15 33//17 29//15
f 32//16 35//18 36//18
f 35//18 32//16 31//16
f 37//19 34//17 38//19
f 34//17 37//19 33//17
f 39//20 35//18 40//20
f 35//18 39//20 36//18
f 41//21 38//19 42//21
f 38//19 41//21 37//19
f 43//22 40//20 44//22
f 40//20 43//22 39//20
f 45//23 42//21 46//23
f 42//21 45//23 41//21
f 47//24 44//22 48//24
f 44//22 47//24 43//22
f 46//23 48//24 45//23
f 48//24 46//23 47//24
