# SSTK version 0.8.0
# 105
mtllib original-105.mtl
o #ID496
v -0.093064 -0.443687 -0.233461
v -0.009057 -0.469336 -0.244520
v -0.093064 -0.469336 -0.233461
v -0.009057 -0.443687 -0.244520
v -0.171347 -0.469336 -0.201035
v -0.171347 -0.443687 -0.201035
v 0.074951 -0.469336 -0.233460
v 0.074951 -0.443687 -0.233460
v -0.238570 -0.443687 -0.149453
v -0.238570 -0.469336 -0.149453
v 0.153234 -0.469336 -0.201035
v 0.153234 -0.443687 -0.201035
v -0.290152 -0.469336 -0.082230
v -0.290152 -0.443687 -0.082230
v 0.220456 -0.469336 -0.149453
v 0.220456 -0.443687 -0.149453
v -0.322578 -0.469336 -0.003947
v -0.322578 -0.443687 -0.003947
v 0.272038 -0.469336 -0.082230
v 0.272038 -0.443687 -0.082230
v -0.333637 -0.469336 0.080060
v -0.333637 -0.443687 0.080060
v 0.304464 -0.469336 -0.003947
v 0.304464 -0.443687 -0.003947
v -0.322578 -0.469336 0.164068
v -0.322578 -0.443687 0.164068
v 0.315524 -0.443687 0.080060
v 0.315524 -0.469336 0.080060
v -0.290152 -0.443687 0.242351
v -0.290152 -0.469336 0.242351
v 0.304464 -0.443687 0.164068
v 0.304464 -0.469336 0.164068
v -0.238570 -0.443687 0.309573
v -0.238570 -0.469336 0.309573
v 0.272038 -0.443687 0.242351
v 0.272038 -0.469336 0.242351
v -0.171347 -0.443687 0.361155
v -0.171347 -0.469336 0.361155
v 0.220456 -0.443687 0.309574
v 0.220456 -0.469336 0.309574
v -0.093064 -0.443687 0.393581
v -0.093064 -0.469336 0.393581
v 0.153234 -0.469336 0.361155
v 0.153234 -0.443687 0.361155
v -0.009057 -0.443687 0.404641
v -0.009057 -0.469336 0.404641
v 0.074951 -0.469336 0.393581
v 0.074951 -0.443687 0.393581
vn -0.2588190432747773 0 -0.9659258267788108
vn 0 0 -1
vn -0.4999999967225799 0 -0.866025405676658
vn 0.258819082439223 0 -0.9659258162847283
vn -0.7071068058429081 0 -0.7071067565301862
vn 0.5000000016387123 0 -0.8660254028383277
vn 0.5000000016387092 0 -0.8660254028383295
vn -0.8660254028383291 0 -0.5000000016387101
vn 0.7071067565301862 0 -0.7071068058429081
vn -0.9659258162847283 0 -0.258819082439223
vn 0.866025405676658 0 -0.4999999967225799
vn -1 0 0
vn 0.9659258267788108 0 -0.2588190432747773
vn -0.9659258267788108 0 0.2588190432747773
vn 1 0 0
vn -0.866025405676658 0 0.4999999967225799
vn 0.9659258162847283 0 0.258819082439223
vn -0.7071067565301862 0 0.7071068058429081
vn 0.8660254028383292 0 0.5000000016387098
vn -0.5000000016387103 0 0.866025402838329
vn 0.7071068058429081 0 0.7071067565301862
vn -0.258819082439223 0 0.9659258162847283
vn 0.4999999967225799 0 0.866025405676658
vn 0 0 1
vn 0.2588190432747773 0 0.9659258267788108
usemtl material_0_0
f 1//1 2//2 3//1
f 2//2 1//1 4//2
f 1//1 5//3 6//3
f 5//3 1//1 3//1
f 4//2 7//4 2//2
f 7//4 4//2 8//4
f 9//5 5//3 10//5
f 5//3 9//5 6//3
f 8//4 11//6 7//4
f 11//6 8//4 12//7
f 9//5 13//8 14//8
f 13//8 9//5 10//5
f 12//7 15//9 11//6
f 15//9 12//7 16//9
f 14//8 17//10 18//10
f 17//10 14//8 13//8
f 16//9 19//11 15//9
f 19//11 16//9 20//11
f 18//10 21//12 22//12
f 21//12 18//10 17//10
f 20//11 23//13 19//11
f 23//13 20//11 24//13
f 22//12 25//14 26//14
f 25//14 22//12 21//12
f 23//13 27//15 28//15
f 27//15 23//13 24//13
f 29//16 25//14 30//16
f 25//14 29//16 26//14
f 28//15 31//17 32//17
f 31//17 28//15 27//15
f 33//18 30//16 34//18
f 30//16 33//18 29//16
f 32//17 35//19 36//19
f 35//19 32//17 31//17
f 37//20 34//18 38//20
f 34//18 37//20 33//18
f 36//19 39//21 40//21
f 39//21 36//19 35//19
f 41//22 38//20 42//22
f 38//20 41//22 37//20
f 43//23 39//21 44//23
f 39//21 43//23 40//21
f 45//24 42//22 46//24
f 42//22 45//24 41//22
f 47//25 44//23 48//25
f 44//23 47//25 43//23
f 48//25 46//24 47//25
f 46//24 48//25 45//24
