# SSTK version 0.8.0
# 60
mtllib original-60.mtl
o #ID346
v -0.163411 0.358859 0.517054
v -0.172055 0.362033 0.517054
v -0.169326 0.355444 0.517054
v -0.165458 0.363801 0.517054
v -0.163411 0.358859 0.510224
v -0.165458 0.363801 0.517054
v -0.163411 0.358859 0.517054
v -0.165458 0.363801 0.510224
v -0.165458 0.363801 0.517054
v -0.172055 0.362033 0.469241
v -0.172055 0.362033 0.517054
v -0.168757 0.362917 0.469241
v -0.165458 0.363801 0.469241
v -0.165458 0.363801 0.510224
v -0.172055 0.362033 0.469241
v -0.169326 0.355444 0.517054
v -0.172055 0.362033 0.517054
v -0.169326 0.355444 0.469241
v -0.166368 0.357152 0.469241
v -0.169326 0.355444 0.517054
v -0.169326 0.355444 0.469241
v -0.163411 0.358859 0.469241
vn 0 0 1
vn 0.8187014402398645 -0.574219428223368 0
vn 0.9238795391929066 0.38268341623423263 0
vn 0.9469301158865235 -0.3214395053927488 0
vn -0.25881900959356163 0.9659258358036645 0
vn -0.9238795391929066 -0.38268341623423263 0
vn 0.5000000016387101 -0.866025402838329 0
usemtl material_0_0
f 1//1 2//1 3//1
f 2//1 1//1 4//1
f 5//2 6//3 7//4
f 6//3 5//2 8//3
f 9//5 10//5 11//5
f 10//5 9//5 12//5
f 12//5 9//5 13//5
f 13//5 9//5 14//5
f 15//6 16//6 17//6
f 16//6 15//6 18//6
f 19//7 20//7 21//7
f 20//7 19//7 7//4
f 7//4 19//7 22//7
f 7//4 22//7 5//2
