# SSTK version 0.8.0
# 35
mtllib original-35.mtl
o #ID216
v 0.243934 0.498359 0.469240
v 0.243934 0.502651 0.469240
v 0.243651 0.500505 0.469240
v 0.244762 0.496358 0.469240
v 0.244648 0.500505 0.469240
v 0.244897 0.498617 0.469240
v 0.246080 0.494641 0.469240
v 0.245625 0.496857 0.469240
v 0.246785 0.495346 0.469240
v 0.247798 0.493323 0.469240
v 0.248296 0.494186 0.469240
v 0.249798 0.492495 0.469240
v 0.250056 0.493457 0.469240
v 0.251944 0.492212 0.469240
v 0.251944 0.493209 0.469240
v 0.253833 0.493457 0.469240
v 0.254091 0.492495 0.469240
v 0.255593 0.494186 0.469240
v 0.256091 0.493323 0.469240
v 0.257104 0.495346 0.469240
v 0.257809 0.494641 0.469240
v 0.258263 0.496857 0.469240
v 0.259127 0.496358 0.469240
v 0.258992 0.498617 0.469240
v 0.259241 0.500505 0.469240
v 0.259955 0.498359 0.469240
v 0.244762 0.504652 0.469240
v 0.244897 0.502394 0.469240
v 0.246080 0.506369 0.469240
v 0.245625 0.504153 0.469240
v 0.246785 0.505665 0.469240
v 0.247798 0.507687 0.469240
v 0.248296 0.506824 0.469240
v 0.249798 0.508516 0.469240
v 0.250056 0.507553 0.469240
v 0.251944 0.508798 0.469240
v 0.251944 0.507802 0.469240
v 0.253833 0.507553 0.469240
v 0.254091 0.508516 0.469240
v 0.255593 0.506824 0.469240
v 0.256091 0.507687 0.469240
v 0.257104 0.505665 0.469240
v 0.257809 0.506369 0.469240
v 0.258263 0.504153 0.469240
v 0.259127 0.504652 0.469240
v 0.258992 0.502394 0.469240
v 0.259955 0.502651 0.469240
v 0.260238 0.500505 0.469240
v 0.260238 0.500505 0.469240
v 0.259955 0.498359 0.469240
v 0.259955 0.502651 0.469240
v 0.259241 0.500505 0.469240
v 0.259127 0.504652 0.469240
v 0.258992 0.502394 0.469240
v 0.258263 0.504153 0.469240
v 0.257809 0.506369 0.469240
v 0.257104 0.505665 0.469240
v 0.256091 0.507687 0.469240
v 0.255593 0.506824 0.469240
v 0.254091 0.508516 0.469240
v 0.253833 0.507553 0.469240
v 0.251944 0.508798 0.469240
v 0.251944 0.507802 0.469240
v 0.250056 0.507553 0.469240
v 0.249798 0.508516 0.469240
v 0.248296 0.506824 0.469240
v 0.247798 0.507687 0.469240
v 0.246785 0.505665 0.469240
v 0.246080 0.506369 0.469240
v 0.245625 0.504153 0.469240
v 0.244897 0.502394 0.469240
v 0.244762 0.504652 0.469240
v 0.244648 0.500505 0.469240
v 0.243934 0.502651 0.469240
v 0.259127 0.496358 0.469240
v 0.258992 0.498617 0.469240
v 0.258263 0.496857 0.469240
v 0.257809 0.494641 0.469240
v 0.257104 0.495346 0.469240
v 0.256091 0.493323 0.469240
v 0.255593 0.494186 0.469240
v 0.254091 0.492495 0.469240
v 0.253833 0.493457 0.469240
v 0.251944 0.492212 0.469240
v 0.251944 0.493209 0.469240
v 0.250056 0.493457 0.469240
v 0.249798 0.492495 0.469240
v 0.248296 0.494186 0.469240
v 0.247798 0.493323 0.469240
v 0.246785 0.495346 0.469240
v 0.246080 0.494641 0.469240
v 0.245625 0.496857 0.469240
v 0.244897 0.498617 0.469240
v 0.244762 0.496358 0.469240
v 0.243934 0.498359 0.469240
v 0.243651 0.500505 0.469240
vt 0.02777778 0.01388889
vt 0.02730453 0.01029418
vt 0.02730453 0.0174836
vt 0.02610874 0.01388889
vt 0.02591702 0.02083333
vt 0.02569236 0.01705162
vt 0.02447159 0.01999881
vt 0.02370982 0.02370982
vt 0.02252963 0.02252963
vt 0.02083333 0.02591702
vt 0.01999881 0.02447159
vt 0.0174836 0.02730453
vt 0.01705162 0.02569236
vt 0.01388889 0.02777778
vt 0.01388889 0.02610874
vt 0.01072616 0.02569236
vt 0.01029418 0.02730453
vt 0.007778964 0.02447159
vt 0.006944444 0.02591702
vt 0.005248151 0.02252963
vt 0.004067961 0.02370982
vt 0.003306189 0.01999881
vt 0.002085421 0.01705162
vt 0.001860758 0.02083333
vt 0.00166904 0.01388889
vt 0.0004732524 0.0174836
vt 0.02591702 0.006944444
vt 0.02569236 0.01072616
vt 0.02447159 0.007778964
vt 0.02370982 0.004067961
vt 0.02252963 0.005248151
vt 0.02083333 0.001860758
vt 0.01999881 0.003306189
vt 0.0174836 0.0004732524
vt 0.01705162 0.002085421
vt 0.01388889 6.219278e-35
vt 0.01388889 0.00166904
vt 0.01072616 0.002085421
vt 0.01029418 0.0004732524
vt 0.007778964 0.003306189
vt 0.006944444 0.001860758
vt 0.005248151 0.005248151
vt 0.004067961 0.004067961
vt 0.003306189 0.007778964
vt 0.002085421 0.01072616
vt 0.001860758 0.006944444
vt 0.0004732524 0.01029418
vt -7.949731e-35 0.01388889
vn 0 0 1
vn 0 0 -1
usemtl material_0_0
f 1//1 2//1 3//1
f 2//1 1//1 4//1
f 2//1 4//1 5//1
f 5//1 4//1 6//1
f 6//1 4//1 7//1
f 6//1 7//1 8//1
f 8//1 7//1 9//1
f 9//1 7//1 10//1
f 9//1 10//1 11//1
f 11//1 10//1 12//1
f 11//1 12//1 13//1
f 13//1 12//1 14//1
f 13//1 14//1 15//1
f 15//1 14//1 16//1
f 16//1 14//1 17//1
f 16//1 17//1 18//1
f 18//1 17//1 19//1
f 18//1 19//1 20//1
f 20//1 19//1 21//1
f 20//1 21//1 22//1
f 22//1 21//1 23//1
f 22//1 23//1 24//1
f 24//1 23//1 25//1
f 25//1 23//1 26//1
f 5//1 27//1 2//1
f 27//1 5//1 28//1
f 27//1 28//1 29//1
f 29//1 28//1 30//1
f 29//1 30//1 31//1
f 29//1 31//1 32//1
f 32//1 31//1 33//1
f 32//1 33//1 34//1
f 34//1 33//1 35//1
f 34//1 35//1 36//1
f 36//1 35//1 37//1
f 36//1 37//1 38//1
f 36//1 38//1 39//1
f 39//1 38//1 40//1
f 39//1 40//1 41//1
f 41//1 40//1 42//1
f 41//1 42//1 43//1
f 43//1 42//1 44//1
f 43//1 44//1 45//1
f 45//1 44//1 46//1
f 45//1 46//1 25//1
f 45//1 25//1 47//1
f 47//1 25//1 26//1
f 47//1 26//1 48//1
usemtl material_1_0
f 49/1/2 50/2/2 51/3/2
f 50/2/2 52/4/2 51/3/2
f 51/3/2 52/4/2 53/5/2
f 52/4/2 54/6/2 53/5/2
f 54/6/2 55/7/2 53/5/2
f 53/5/2 55/7/2 56/8/2
f 55/7/2 57/9/2 56/8/2
f 56/8/2 57/9/2 58/10/2
f 57/9/2 59/11/2 58/10/2
f 58/10/2 59/11/2 60/12/2
f 59/11/2 61/13/2 60/12/2
f 60/12/2 61/13/2 62/14/2
f 61/13/2 63/15/2 62/14/2
f 63/15/2 64/16/2 62/14/2
f 62/14/2 64/16/2 65/17/2
f 64/16/2 66/18/2 65/17/2
f 65/17/2 66/18/2 67/19/2
f 66/18/2 68/20/2 67/19/2
f 67/19/2 68/20/2 69/21/2
f 68/20/2 70/22/2 69/21/2
f 70/22/2 71/23/2 69/21/2
f 69/21/2 71/23/2 72/24/2
f 71/23/2 73/25/2 72/24/2
f 74/26/2 72/24/2 73/25/2
f 50/2/2 75/27/2 52/4/2
f 52/4/2 75/27/2 76/28/2
f 76/28/2 75/27/2 77/29/2
f 75/27/2 78/30/2 77/29/2
f 77/29/2 78/30/2 79/31/2
f 78/30/2 80/32/2 79/31/2
f 79/31/2 80/32/2 81/33/2
f 80/32/2 82/34/2 81/33/2
f 81/33/2 82/34/2 83/35/2
f 82/34/2 84/36/2 83/35/2
f 83/35/2 84/36/2 85/37/2
f 85/37/2 84/36/2 86/38/2
f 84/36/2 87/39/2 86/38/2
f 86/38/2 87/39/2 88/40/2
f 87/39/2 89/41/2 88/40/2
f 88/40/2 89/41/2 90/42/2
f 89/41/2 91/43/2 90/42/2
f 90/42/2 91/43/2 92/44/2
f 92/44/2 91/43/2 93/45/2
f 91/43/2 94/46/2 93/45/2
f 93/45/2 94/46/2 73/25/2
f 73/25/2 94/46/2 74/26/2
f 94/46/2 95/47/2 74/26/2
f 96/48/2 74/26/2 95/47/2
