# SSTK version 0.8.0
# 46
mtllib original-46.mtl
o #ID267
v 0.311431 -0.542467 0.165935
v 0.272038 -0.528041 0.242351
v 0.278285 -0.542467 0.245957
v 0.304464 -0.528041 0.164068
v 0.322737 -0.542467 0.080060
v 0.315524 -0.528041 0.080060
v -0.322578 -0.528041 0.164068
v -0.322578 -0.528041 -0.003947
v -0.333637 -0.528041 0.080060
v -0.290152 -0.528041 0.242351
v -0.290360 -0.528041 0.080060
v -0.280775 -0.528041 0.152867
v -0.238570 -0.528041 0.309574
v -0.252673 -0.528041 0.220712
v -0.207968 -0.528041 0.278972
v -0.171347 -0.528041 0.361155
v -0.149708 -0.528041 0.323676
v -0.093064 -0.528041 0.393581
v -0.081863 -0.528041 0.351778
v -0.009057 -0.528041 0.404641
v -0.009057 -0.528041 0.361364
v 0.074951 -0.528041 0.393581
v 0.063750 -0.528041 0.351778
v 0.131595 -0.528041 0.323676
v 0.153234 -0.528041 0.361155
v 0.189855 -0.528041 0.278972
v 0.220456 -0.528041 0.309574
v 0.234559 -0.528041 0.220712
v 0.272038 -0.528041 0.242351
v 0.262661 -0.528041 0.152867
v 0.272246 -0.528041 0.080060
v 0.304464 -0.528041 0.164068
v -0.290152 -0.528041 -0.082230
v -0.280775 -0.528041 0.007254
v -0.238570 -0.528041 -0.149453
v -0.252673 -0.528041 -0.060591
v -0.207968 -0.528041 -0.118851
v -0.171347 -0.528041 -0.201035
v -0.149708 -0.528041 -0.163555
v -0.093064 -0.528041 -0.233460
v -0.081863 -0.528041 -0.191658
v -0.009057 -0.528041 -0.244520
v -0.009057 -0.528041 -0.201243
v 0.063750 -0.528041 -0.191658
v 0.074951 -0.528041 -0.233460
v 0.131595 -0.528041 -0.163555
v 0.153234 -0.528041 -0.201035
v 0.189855 -0.528041 -0.118851
v 0.220456 -0.528041 -0.149453
v 0.234559 -0.528041 -0.060591
v 0.272038 -0.528041 -0.082230
v 0.262661 -0.528041 0.007254
v 0.304464 -0.528041 -0.003947
v 0.315524 -0.528041 0.080060
v 0.220456 -0.528041 0.309574
v 0.225557 -0.542467 0.314674
v 0.311431 -0.542467 -0.005814
v 0.304464 -0.528041 -0.003947
v -0.322578 -0.528041 -0.003947
v -0.340850 -0.542467 0.080060
v -0.333637 -0.528041 0.080060
v -0.329545 -0.542467 -0.005814
v -0.322578 -0.528041 0.164068
v -0.329545 -0.542467 0.165935
v -0.290152 -0.528041 0.242351
v -0.296398 -0.542467 0.245957
v -0.238570 -0.528041 0.309574
v -0.243670 -0.542467 0.314674
v -0.171347 -0.528041 0.361155
v -0.174954 -0.542467 0.367402
v -0.093064 -0.528041 0.393581
v -0.094931 -0.542467 0.400548
v -0.009057 -0.528041 0.404641
v -0.009057 -0.542467 0.411854
v 0.074951 -0.528041 0.393581
v 0.076818 -0.542467 0.400548
v 0.153234 -0.528041 0.361155
v 0.156840 -0.542467 0.367402
v 0.272038 -0.528041 -0.082230
v 0.278285 -0.542467 -0.085836
v 0.220456 -0.528041 -0.149453
v 0.225557 -0.542467 -0.154553
v 0.153234 -0.528041 -0.201035
v 0.156840 -0.542467 -0.207281
v 0.074951 -0.528041 -0.233460
v 0.076818 -0.542467 -0.240428
v -0.009057 -0.528041 -0.244520
v -0.009057 -0.542467 -0.251733
v -0.093064 -0.528041 -0.233460
v -0.094931 -0.542467 -0.240428
v -0.171347 -0.528041 -0.201035
v -0.174954 -0.542467 -0.207281
v -0.238570 -0.528041 -0.149453
v -0.243670 -0.542467 -0.154553
v -0.296398 -0.542467 -0.085836
v -0.290152 -0.528041 -0.082230
vn 0.8639503141160454 0.447213607307003 0.23149480378238332
vn 0.7745966784271692 0.4472135875449205 0.44721358754492074
vn 0.8944271909999159 0.4472135954999579 0
vn 0 1 0
vn 0.6324555243541361 0.4472136172209757 0.6324555243541362
vn 0.8639503141160454 0.4472136073070031 -0.23149480378238313
vn -0.8639503141160454 0.4472136073070031 -0.23149480378238313
vn -0.8944271909999159 0.4472135954999579 0
vn -0.8639503141160454 0.447213607307003 0.23149480378238332
vn -0.7745966784271692 0.4472135875449205 0.44721358754492074
vn -0.6324555243541361 0.4472136172209757 0.6324555243541362
vn -0.44721358754492063 0.44721358754492047 0.7745966784271693
vn -0.2314948037823832 0.4472136073070029 0.8639503141160455
vn 0 0.44721359549995776 0.894427190999916
vn 0.2314948037823832 0.4472136073070029 0.8639503141160455
vn 0.44721358754492063 0.44721358754492047 0.7745966784271693
vn 0.7745966784271692 0.44721358754492074 -0.4472135875449205
vn 0.6324555243541361 0.44721361722097597 -0.632455524354136
vn 0.44721358754492063 0.4472135875449208 -0.7745966784271691
vn 0.2314948037823832 0.4472136073070032 -0.8639503141160453
vn 0 0.4472135954999581 -0.8944271909999157
vn -0.2314948037823832 0.4472136073070032 -0.8639503141160453
vn -0.44721358754492063 0.4472135875449208 -0.7745966784271691
vn -0.6324555243541361 0.44721361722097597 -0.632455524354136
vn -0.7745966784271692 0.44721358754492074 -0.4472135875449205
usemtl material_0_0
f 1//1 2//2 3//2
f 2//2 1//1 4//1
f 5//3 4//1 1//1
f 4//1 5//3 6//3
f 7//4 8//4 9//4
f 8//4 7//4 10//4
f 8//4 10//4 11//4
f 11//4 10//4 12//4
f 12//4 10//4 13//4
f 12//4 13//4 14//4
f 14//4 13//4 15//4
f 15//4 13//4 16//4
f 15//4 16//4 17//4
f 17//4 16//4 18//4
f 17//4 18//4 19//4
f 19//4 18//4 20//4
f 19//4 20//4 21//4
f 21//4 20//4 22//4
f 21//4 22//4 23//4
f 23//4 22//4 24//4
f 24//4 22//4 25//4
f 24//4 25//4 26//4
f 26//4 25//4 27//4
f 26//4 27//4 28//4
f 28//4 27//4 29//4
f 28//4 29//4 30//4
f 30//4 29//4 31//4
f 31//4 29//4 32//4
f 11//4 33//4 8//4
f 33//4 11//4 34//4
f 33//4 34//4 35//4
f 35//4 34//4 36//4
f 35//4 36//4 37//4
f 35//4 37//4 38//4
f 38//4 37//4 39//4
f 38//4 39//4 40//4
f 40//4 39//4 41//4
f 40//4 41//4 42//4
f 42//4 41//4 43//4
f 42//4 43//4 44//4
f 42//4 44//4 45//4
f 45//4 44//4 46//4
f 45//4 46//4 47//4
f 47//4 46//4 48//4
f 47//4 48//4 49//4
f 49//4 48//4 50//4
f 49//4 50//4 51//4
f 51//4 50//4 52//4
f 51//4 52//4 31//4
f 51//4 31//4 53//4
f 53//4 31//4 32//4
f 53//4 32//4 54//4
f 3//2 55//5 56//5
f 55//5 3//2 2//2
f 57//6 6//3 5//3
f 6//3 57//6 58//6
f 59//7 60//8 61//8
f 60//8 59//7 62//7
f 63//9 60//8 64//9
f 60//8 63//9 61//8
f 65//10 64//9 66//10
f 64//9 65//10 63//9
f 67//11 66//10 68//11
f 66//10 67//11 65//10
f 69//12 68//11 70//12
f 68//11 69//12 67//11
f 71//13 70//12 72//13
f 70//12 71//13 69//12
f 73//14 72//13 74//14
f 72//13 73//14 71//13
f 75//15 74//14 76//15
f 74//14 75//15 73//14
f 77//16 76//15 78//16
f 76//15 77//16 75//15
f 55//5 78//16 56//5
f 78//16 55//5 77//16
f 57//6 79//17 58//6
f 79//17 57//6 80//17
f 80//17 81//18 79//17
f 81//18 80//17 82//18
f 83//19 82//18 84//19
f 82//18 83//19 81//18
f 85//20 84//19 86//20
f 84//19 85//20 83//19
f 87//21 86//20 88//21
f 86//20 87//21 85//20
f 89//22 88//21 90//22
f 88//21 89//22 87//21
f 91//23 90//22 92//23
f 90//22 91//23 89//22
f 93//24 92//23 94//24
f 92//23 93//24 91//23
f 93//24 95//25 96//25
f 95//25 93//24 94//24
f 96//25 62//7 59//7
f 62//7 96//25 95//25
