# SSTK version 0.8.0
# 57
mtllib original-57.mtl
o #ID326
v -0.127919 0.358859 0.510224
v -0.131175 0.354615 0.517054
v -0.127919 0.358859 0.517054
v -0.131175 0.354615 0.510224
v -0.131175 0.354615 0.510224
v -0.126346 0.349786 0.517054
v -0.131175 0.354615 0.517054
v -0.126346 0.349786 0.469241
v -0.131175 0.354615 0.469241
v -0.128760 0.352200 0.469241
v -0.122004 0.355444 0.517054
v -0.131175 0.354615 0.517054
v -0.126346 0.349786 0.517054
v -0.127919 0.358859 0.517054
v -0.122004 0.355444 0.517054
v -0.127919 0.358859 0.510224
v -0.127919 0.358859 0.517054
v -0.127919 0.358859 0.469241
v -0.124961 0.357152 0.469241
v -0.122004 0.355444 0.469241
v -0.126346 0.349786 0.469241
v -0.122004 0.355444 0.517054
v -0.126346 0.349786 0.517054
v -0.122004 0.355444 0.469241
vn -0.7933533393698233 0.608761430209528 0
vn -0.7071067811865476 -0.7071067811865476 0
vn 0 0 1
vn 0.5000000016387101 0.866025402838329 0
vn 0.7933533393698233 -0.608761430209528 0
usemtl material_0_0
f 1//1 2//1 3//1
f 2//1 1//1 4//1
f 5//2 6//2 7//2
f 6//2 5//2 8//2
f 8//2 5//2 9//2
f 8//2 9//2 10//2
f 11//3 12//3 13//3
f 12//3 11//3 14//3
f 15//4 16//4 17//4
f 16//4 15//4 18//4
f 18//4 15//4 19//4
f 19//4 15//4 20//4
f 21//5 22//5 23//5
f 22//5 21//5 24//5
