# SSTK version 0.8.0
# 98
mtllib original-98.mtl
o #ID444
v -0.188620 0.084175 0.269624
v -0.207964 0.000006 0.288968
v -0.141275 0.084175 0.310794
v -0.153707 0.000006 0.330601
v -0.141275 0.084175 0.310794
v -0.242231 0.084175 0.362481
v -0.188620 0.084175 0.269624
v -0.179067 0.084175 0.388687
v -0.083442 0.084175 0.330348
v -0.137053 0.084175 0.423205
v -0.164941 -0.085148 0.350059
v -0.223852 -0.085148 0.304855
v -0.090523 0.000006 0.356773
v -0.137053 0.084175 0.423205
v -0.148097 0.000006 0.456495
v -0.179067 0.084175 0.388687
v -0.242231 0.084175 0.362481
v -0.202375 0.000006 0.414897
v -0.265539 0.000006 0.388690
v -0.083442 0.084175 0.330348
v -0.096338 -0.085148 0.378476
v -0.173705 -0.171092 0.365240
v -0.236246 -0.171092 0.317250
v -0.216979 -0.085148 0.440192
v -0.100874 -0.171092 0.395407
v -0.179980 -0.257631 0.376107
v -0.245120 -0.257631 0.326124
v -0.284682 -0.085148 0.410216
v -0.104122 -0.257631 0.407528
v -0.183750 -0.344566 0.382638
v -0.250452 -0.344566 0.331456
v -0.157168 -0.085148 0.483836
v -0.228373 -0.171092 0.459927
v -0.106074 -0.344566 0.414813
v -0.252231 -0.431700 0.333235
v -0.185008 -0.431700 0.384817
v -0.164244 -0.171092 0.505167
v -0.299616 -0.171092 0.427010
v -0.106725 -0.431700 0.417242
v -0.318876 -0.431700 0.448667
v -0.185008 -0.431700 0.384817
v -0.252231 -0.431700 0.333235
v -0.243066 -0.431700 0.485377
v -0.106725 -0.431700 0.417242
v -0.173370 -0.431700 0.532675
v -0.236530 -0.257631 0.474055
v -0.316733 -0.344566 0.446257
v -0.243066 -0.431700 0.485377
v -0.318876 -0.431700 0.448667
v -0.241431 -0.344566 0.482545
v -0.173370 -0.431700 0.532675
v -0.169310 -0.257631 0.520437
v -0.310308 -0.257631 0.439033
v -0.172355 -0.344566 0.529614
vn -0.6241932278470113 0.30842491303800873 0.7178139642883983
vn -0.5954434428592623 0.26794860310747537 0.7573972883821684
vn -0.4755876281301309 0.29450250507699427 0.8289057138619152
vn -0.4829667210596766 0.26120000712779723 0.8357737149643455
vn 0 -1 0
vn -0.4869411674321482 0.22705330664004936 0.8434068386037883
vn -0.5931225260586329 0.22520969011887157 0.772972356917366
vn -0.3575947994318226 0.26710380644700976 0.894863965081192
vn 0.5916469174445165 -0.36244960790694086 -0.7201279100316181
vn 0.5710682803397772 -0.3438431985741639 -0.7454212728276929
vn 0.47724096371930913 -0.37209910525098155 -0.7961050925723838
vn 0.3565770326092622 -0.3663608885800405 -0.8594373270544027
vn 0.46524352604277397 -0.35184780228787815 -0.8122509375189892
vn 0.3653404943266662 -0.3390926934540528 -0.8669154909512361
vn -0.30467860856669976 0.30852590457806806 0.9011008332512762
vn -0.3728524378907997 0.22520969011887157 0.9001453521712198
vn -0.49260548603901744 0.1713456940207304 0.8532177261782702
vn -0.5999084800965557 0.16992240311941595 0.7818159581553469
vn 0.47785049195906065 -0.28457089402832175 -0.831070582806542
vn -0.3771182442438436 0.16992240311941592 0.9104439613598211
vn -0.49669777400860127 0.11474010479402487 0.860305776829818
vn -0.6048087343242 0.1137712966743434 0.7882020597145112
vn 0.3925009774708138 -0.2765199037870396 -0.8771999347321352
vn -0.38019864333954934 0.11377129667434334 0.9178807567738876
vn -0.4991720528522247 0.05752436995162592 0.864591353480339
vn -0.6077704977378214 0.05703385183797188 0.7920619684242167
vn 0.5671490445349786 -0.2724718871986696 -0.7772393659417004
vn 0.48625769879523995 -0.2195778889687834 -0.8457771580259013
vn -0.3820605406486431 0.05703385183797185 0.9223756734778897
vn -0.6085122424250936 0.02861134904210421 0.7930285250385227
vn -0.49979176179322804 0.02885803049178232 0.8656647208473709
vn 0.5637853573395456 -0.2135435056485081 -0.7978378544822665
vn 0.412334492583375 -0.2104017962372466 -0.8864036046667177
vn -0.382526730891452 0.028611349042104182 0.9235013215255784
vn 0 1 0
vn 0.49459901088081476 -0.14658540226392675 -0.8566706124753215
vn 0.433444960617517 -0.07101987843995491 -0.8983772275506838
vn 0.4992568337952365 -0.03703769848102481 -0.8656620719426169
vn 0.4355486009559748 -0.03559172142819409 -0.8994613085458824
vn 0.49845547085025776 -0.0733032277731007 -0.8638106160365783
vn 0.5619255808813393 -0.03651384845741517 -0.8263814981120997
vn 0.561018010445478 -0.1416103921762113 -0.8156011824313996
vn 0.4258223415014674 -0.14161039217621124 -0.8936564386305886
vn 0.5617019177443469 -0.07054282013190936 -0.8243267957128169
usemtl material_0_0
f 1//1 2//2 3//3
f 3//3 2//2 4//4
f 5//5 6//5 7//5
f 6//5 5//5 8//5
f 8//5 5//5 9//5
f 8//5 9//5 10//5
f 11//6 2//2 12//7
f 2//2 11//6 4//4
f 3//3 4//4 13//8
f 14//9 15//10 16//11
f 17//12 18//13 19//14
f 18//13 17//12 16//11
f 3//3 13//8 20//15
f 13//8 11//6 21//16
f 11//6 13//8 4//4
f 22//17 12//7 23//18
f 12//7 22//17 11//6
f 16//11 15//10 18//13
f 18//13 24//19 19//14
f 21//16 22//17 25//20
f 22//17 21//16 11//6
f 26//21 23//18 27//22
f 23//18 26//21 22//17
f 15//10 24//19 18//13
f 19//14 24//19 28//23
f 25//20 26//21 29//24
f 26//21 25//20 22//17
f 30//25 27//22 31//26
f 27//22 30//25 26//21
f 15//10 32//27 24//19
f 24//19 33//28 28//23
f 29//24 30//25 34//29
f 30//25 29//24 26//21
f 30//25 35//30 36//31
f 35//30 30//25 31//26
f 24//19 32//27 37//32
f 24//19 37//32 33//28
f 28//23 33//28 38//33
f 34//29 36//31 39//34
f 36//31 34//29 30//25
f 40//35 41//35 42//35
f 41//35 40//35 43//35
f 41//35 43//35 44//35
f 44//35 43//35 45//35
f 37//32 46//36 33//28
f 33//28 46//36 38//33
f 47//37 48//38 49//39
f 50//40 51//41 48//38
f 37//32 52//42 46//36
f 38//33 46//36 53//43
f 50//40 48//38 47//37
f 50//40 54//44 51//41
f 46//36 52//42 50//40
f 46//36 50//40 53//43
f 53//43 50//40 47//37
f 52//42 54//44 50//40
