# SSTK version 0.8.0
# 72
mtllib original-72.mtl
o #ID320
v 0.153942 0.362033 0.469241
v 0.154873 0.369105 0.517054
v 0.153942 0.362033 0.517054
v 0.154873 0.369105 0.469241
v 0.154873 0.369105 0.517054
v 0.148042 0.369105 0.510224
v 0.148042 0.369105 0.517054
v 0.148042 0.369105 0.469241
v 0.151458 0.369105 0.469241
v 0.154873 0.369105 0.469241
v 0.154873 0.369105 0.517054
v 0.147344 0.363801 0.517054
v 0.153942 0.362033 0.517054
v 0.148042 0.369105 0.517054
v 0.150643 0.362917 0.469241
v 0.147344 0.363801 0.510224
v 0.147344 0.363801 0.469241
v 0.147344 0.363801 0.517054
v 0.153942 0.362033 0.517054
v 0.153942 0.362033 0.469241
v 0.147344 0.363801 0.517054
v 0.147344 0.363801 0.510224
vn 0.9914448610250887 -0.1305261948688555 0
vn 0 1 0
vn -0.42190651792116746 0.9066393385109845 0
vn -0.659345810272054 0.7518398117130328 0
vn 0 0 1
vn -0.25881900959356163 -0.9659258358036645 0
vn -0.9914448610250887 0.1305261948688555 0
usemtl material_0_0
f 1//1 2//1 3//1
f 2//1 1//1 4//1
f 5//2 6//3 7//4
f 6//3 5//2 8//2
f 8//2 5//2 9//2
f 9//2 5//2 10//2
f 11//5 12//5 13//5
f 12//5 11//5 14//5
f 15//6 16//6 17//6
f 16//6 15//6 18//6
f 18//6 15//6 19//6
f 19//6 15//6 20//6
f 6//3 21//7 7//4
f 21//7 6//3 22//7
