# SSTK version 0.8.0
# 40
mtllib original-40.mtl
o #ID208
v -0.209775 0.397758 0.469241
v -0.210649 0.395869 0.470527
v -0.209526 0.395869 0.469241
v -0.210859 0.397467 0.470527
v -0.210859 0.397467 0.470527
v -0.209775 0.397758 0.469241
v -0.210649 0.395869 0.470527
v -0.209526 0.395869 0.469241
v -0.211476 0.398956 0.470527
v -0.210504 0.399517 0.469241
v -0.210504 0.399517 0.469241
v -0.211476 0.398956 0.470527
v -0.222787 0.394271 0.470527
v -0.222787 0.397467 0.470527
v -0.222997 0.395869 0.470527
v -0.222170 0.392782 0.470527
v -0.222170 0.398956 0.470527
v -0.221189 0.391504 0.470527
v -0.221189 0.400235 0.470527
v -0.219910 0.390522 0.470527
v -0.219910 0.401216 0.470527
v -0.218421 0.389906 0.470527
v -0.218421 0.401833 0.470527
v -0.216823 0.389695 0.470527
v -0.216823 0.402043 0.470527
v -0.215225 0.389906 0.470527
v -0.215225 0.401833 0.470527
v -0.213736 0.390522 0.470527
v -0.213736 0.401216 0.470527
v -0.212457 0.400235 0.470527
v -0.212457 0.391504 0.470527
v -0.211476 0.392782 0.470527
v -0.210859 0.394271 0.470527
v -0.210859 0.394271 0.470527
v -0.211476 0.392782 0.470527
v -0.212457 0.400235 0.470527
v -0.212457 0.391504 0.470527
v -0.213736 0.390522 0.470527
v -0.213736 0.401216 0.470527
v -0.215225 0.401833 0.470527
v -0.215225 0.389906 0.470527
v -0.216823 0.402043 0.470527
v -0.216823 0.389695 0.470527
v -0.218421 0.401833 0.470527
v -0.218421 0.389906 0.470527
v -0.219910 0.401216 0.470527
v -0.219910 0.390522 0.470527
v -0.221189 0.400235 0.470527
v -0.221189 0.391504 0.470527
v -0.222170 0.398956 0.470527
v -0.222170 0.392782 0.470527
v -0.222787 0.397467 0.470527
v -0.222787 0.394271 0.470527
v -0.222997 0.395869 0.470527
v -0.209775 0.393981 0.469241
v -0.209775 0.393981 0.469241
v -0.211664 0.401029 0.469241
v -0.211664 0.401029 0.469241
v -0.218711 0.388821 0.469241
v -0.216823 0.388573 0.469241
v -0.218711 0.388821 0.469241
v -0.216823 0.388573 0.469241
v -0.214935 0.388821 0.469241
v -0.214935 0.388821 0.469241
v -0.213175 0.389550 0.469241
v -0.213175 0.389550 0.469241
v -0.211664 0.390710 0.469241
v -0.211664 0.390710 0.469241
v -0.210504 0.392221 0.469241
v -0.210504 0.392221 0.469241
v -0.213175 0.402188 0.469241
v -0.213175 0.402188 0.469241
v -0.214935 0.402917 0.469241
v -0.214935 0.402917 0.469241
v -0.216823 0.403166 0.469241
v -0.216823 0.403166 0.469241
v -0.218711 0.402917 0.469241
v -0.218711 0.402917 0.469241
v -0.220471 0.402188 0.469241
v -0.220471 0.402188 0.469241
v -0.221982 0.401029 0.469241
v -0.221982 0.401029 0.469241
v -0.223142 0.399517 0.469241
v -0.223142 0.399517 0.469241
v -0.223871 0.397758 0.469241
v -0.223871 0.397758 0.469241
v -0.224120 0.395869 0.469241
v -0.224120 0.395869 0.469241
v -0.223871 0.393981 0.469241
v -0.223871 0.393981 0.469241
v -0.223142 0.392221 0.469241
v -0.223142 0.392221 0.469241
v -0.221982 0.390710 0.469241
v -0.221982 0.390710 0.469241
v -0.220471 0.389550 0.469241
v -0.220471 0.389550 0.469241
vt 0.0133068 -0.01528363
vt 0.01355221 -0.01813132
vt 0.01060761 -0.01528363
vt 0.01036219 -0.01813132
vt 0.009111623 -0.01980957
vt 0.005921602 -0.01980957
vt 0.008866209 -0.01696189
vt 0.006167016 -0.01696189
vt 0.02422855 0.01388889
vt 0.02387623 0.01121279
vt 0.02387623 0.01656499
vt 0.0228433 0.01905872
vt 0.0228433 0.008719058
vt 0.02120013 0.02120013
vt 0.02120013 0.006577644
vt 0.01905872 0.004934479
vt 0.01905872 0.0228433
vt 0.01656499 0.02387623
vt 0.01656499 0.003901543
vt 0.01388889 0.02422855
vt 0.01388889 0.003549227
vt 0.01121279 0.02387623
vt 0.01121279 0.003901543
vt 0.008719058 0.0228433
vt 0.008719058 0.004934479
vt 0.006577644 0.02120013
vt 0.006577644 0.006577644
vt 0.004934479 0.01905872
vt 0.004934479 0.008719058
vt 0.003901543 0.01656499
vt 0.003901543 0.01121279
vt 0.003549227 0.01388889
vt 0.01693253 -0.01291022
vt 0.01717794 -0.01575791
vt 0.01423333 -0.01291022
vt 0.01398792 -0.01575791
vt 0.0009687662 -0.0206783
vt 0.00121418 -0.01783061
vt 0.004158787 -0.0206783
vt 0.003913373 -0.01783061
vt 0.01060761 0.005117602
vt 0.0133068 0.005117602
vt 0.01036219 0.002269914
vt 0.01355221 0.002269914
vt 0.01423333 0.002744194
vt 0.01693253 0.002744194
vt 0.01398792 -0.0001034945
vt 0.01717794 -0.0001034945
vt 0.01679711 -0.0001626256
vt 0.0194963 -0.0001626256
vt 0.0165517 -0.003010314
vt 0.01974172 -0.003010314
vt 0.02106883 -0.00625245
vt 0.01787881 -0.00625245
vt 0.02082341 -0.003404762
vt 0.01812422 -0.003404762
vt 0.02106883 -0.009608957
vt 0.01787881 -0.009608957
vt 0.02082341 -0.006761268
vt 0.01812422 -0.006761268
vt 0.0194963 -0.0100034
vt 0.01974172 -0.01285109
vt 0.01679711 -0.0100034
vt 0.0165517 -0.01285109
vt -0.004158787 -0.0206783
vt -0.003913373 -0.01783061
vt -0.0009687662 -0.0206783
vt -0.00121418 -0.01783061
vt -0.008866209 -0.01696189
vt -0.006167016 -0.01696189
vt -0.009111623 -0.01980957
vt -0.005921602 -0.01980957
vt -0.0133068 -0.01528363
vt -0.01060761 -0.01528363
vt -0.01355221 -0.01813132
vt -0.01036219 -0.01813132
vt -0.01693253 -0.01291022
vt -0.01423333 -0.01291022
vt -0.01717794 -0.01575791
vt -0.01398792 -0.01575791
vt -0.0194963 -0.0100034
vt -0.01679711 -0.0100034
vt -0.01974172 -0.01285109
vt -0.0165517 -0.01285109
vt -0.02082341 -0.006761268
vt -0.01812422 -0.006761268
vt -0.02106883 -0.009608957
vt -0.01787881 -0.009608957
vt -0.02082341 -0.003404762
vt -0.01812422 -0.003404762
vt -0.02106883 -0.00625245
vt -0.01787881 -0.00625245
vt -0.01974172 -0.003010314
vt -0.0194963 -0.0001626256
vt -0.0165517 -0.003010314
vt -0.01679711 -0.0001626256
vt -0.01717794 -0.0001034945
vt -0.01693253 0.002744194
vt -0.01398792 -0.0001034945
vt -0.01423333 0.002744194
vt -0.0133068 0.005117602
vt -0.01060761 0.005117602
vt -0.01355221 0.002269914
vt -0.01036219 0.002269914
vt -0.008866209 0.006795856
vt -0.006167016 0.006795856
vt -0.009111623 0.003948167
vt -0.005921602 0.003948167
vt -0.00121418 0.007664583
vt -0.0009687662 0.004816895
vt -0.003913373 0.007664583
vt -0.004158787 0.004816895
vt 0.003913373 0.007664583
vt 0.004158787 0.004816895
vt 0.00121418 0.007664583
vt 0.0009687662 0.004816895
vt 0.006167016 0.006795856
vt 0.008866209 0.006795856
vt 0.005921602 0.003948167
vt 0.009111623 0.003948167
vn 0.7275179250418622 0.19493780670994557 0.6578122226425253
vn 0.4413878194877581 0 0.8973164396175087
vn 0.753181994127877 0 0.6578121948714198
vn 0.4263479128434049 0.11423960344138069 0.8973164270309713
vn 0.3822531092379531 0.22069390533353395 0.8973164216855449
vn 0.6522747143468054 0.3765910082831326 0.6578122144686028
vn -0.4263479128434049 -0.11423960344138069 0.8973164270309713
vn -0.4263479128434049 0.11423960344138069 0.8973164270309713
vn -0.4413878194877581 0 0.8973164396175087
vn -0.3822531092379531 -0.22069390533353395 0.8973164216855449
vn -0.3822531092379531 0.22069390533353395 0.8973164216855449
vn -0.3121083150488115 -0.3121083150488115 0.8973164432655759
vn -0.3121083150488115 0.3121083150488115 0.8973164432655759
vn -0.22069390533353392 -0.3822531092379531 0.8973164216855449
vn -0.22069390533353392 0.3822531092379531 0.8973164216855449
vn -0.11423960344138068 -0.4263479128434049 0.8973164270309713
vn -0.11423960344138068 0.4263479128434049 0.8973164270309713
vn 0 -0.4413878194877581 0.8973164396175087
vn 0 0.4413878194877581 0.8973164396175087
vn 0.11423960344138072 -0.4263479128434049 0.8973164270309713
vn 0.11423960344138072 0.4263479128434049 0.8973164270309713
vn 0.22069390533353397 -0.3822531092379531 0.8973164216855449
vn 0.22069390533353397 0.3822531092379531 0.8973164216855449
vn 0.3121083150488115 0.3121083150488115 0.8973164432655759
vn 0.3121083150488115 -0.3121083150488115 0.8973164432655759
vn 0.3822531092379531 -0.22069390533353395 0.8973164216855449
vn 0.4263479128434049 -0.11423960344138069 0.8973164270309713
vn 0.7275179250418622 -0.19493780670994557 0.6578122226425253
vn 0.5325800956592432 0.5325800956592432 0.6578121946385478
vn -0.19493780670994557 -0.7275179250418622 0.6578122226425253
vn 0 -0.753181994127877 0.6578121948714198
vn 0.19493780670994557 -0.7275179250418622 0.6578122226425253
vn 0.3765910082831326 -0.6522747143468054 0.6578122144686028
vn 0.5325800956592432 -0.5325800956592432 0.6578121946385478
vn 0.6522747143468054 -0.3765910082831326 0.6578122144686028
vn 0.3765910082831326 0.6522747143468054 0.6578122144686028
vn 0.19493780670994557 0.7275179250418622 0.6578122226425253
vn 0 0.753181994127877 0.6578121948714198
vn -0.19493780670994557 0.7275179250418622 0.6578122226425253
vn -0.3765910082831326 0.6522747143468054 0.6578122144686028
vn -0.5325800956592432 0.5325800956592432 0.6578121946385478
vn -0.6522747143468054 0.3765910082831326 0.6578122144686028
vn -0.7275179250418622 0.19493780670994557 0.6578122226425253
vn -0.753181994127877 0 0.6578121948714198
vn -0.7275179250418622 -0.19493780670994557 0.6578122226425253
vn -0.6522747143468054 -0.3765910082831326 0.6578122144686028
vn -0.5325800956592432 -0.5325800956592432 0.6578121946385478
vn -0.3765910082831326 -0.6522747143468054 0.6578122144686028
vn -0.4263479128434049 -0.11423960344138069 -0.8973164270309713
vn -0.7275179250418622 -0.19493780670994557 -0.6578122226425253
vn -0.4413878194877581 0 -0.8973164396175087
vn -0.753181994127877 0 -0.6578121948714198
vn -0.6522747143468054 -0.3765910082831326 -0.6578122144686028
vn -0.3822531092379531 -0.22069390533353395 -0.8973164216855449
vn -0.4263479128434049 0.11423960344138069 -0.8973164270309713
vn -0.3822531092379531 0.22069390533353395 -0.8973164216855449
vn -0.3121083150488115 -0.3121083150488115 -0.8973164432655759
vn -0.3121083150488115 0.3121083150488115 -0.8973164432655759
vn -0.22069390533353397 0.3822531092379531 -0.8973164216855449
vn -0.22069390533353397 -0.3822531092379531 -0.8973164216855449
vn -0.11423960344138072 -0.4263479128434049 -0.8973164270309713
vn -0.11423960344138072 0.4263479128434049 -0.8973164270309713
vn 0 -0.4413878194877581 -0.8973164396175087
vn 0 0.4413878194877581 -0.8973164396175087
vn 0.11423960344138068 -0.4263479128434049 -0.8973164270309713
vn 0.11423960344138068 0.4263479128434049 -0.8973164270309713
vn 0.22069390533353392 -0.3822531092379531 -0.8973164216855449
vn 0.22069390533353392 0.3822531092379531 -0.8973164216855449
vn 0.3121083150488115 -0.3121083150488115 -0.8973164432655759
vn 0.3121083150488115 0.3121083150488115 -0.8973164432655759
vn 0.3822531092379531 -0.22069390533353395 -0.8973164216855449
vn 0.3822531092379531 0.22069390533353395 -0.8973164216855449
vn 0.4263479128434049 -0.11423960344138069 -0.8973164270309713
vn 0.4263479128434049 0.11423960344138069 -0.8973164270309713
vn 0.4413878194877581 0 -0.8973164396175087
vn -0.7275179250418622 0.19493780670994557 -0.6578122226425253
vn -0.5325800956592432 -0.5325800956592432 -0.6578121946385478
vn 0.19493780670994557 0.7275179250418622 -0.6578122226425253
vn 0 0.753181994127877 -0.6578121948714198
vn -0.19493780670994557 0.7275179250418622 -0.6578122226425253
vn -0.3765910082831326 0.6522747143468054 -0.6578122144686028
vn -0.5325800956592432 0.5325800956592432 -0.6578121946385478
vn -0.6522747143468054 0.3765910082831326 -0.6578122144686028
vn -0.3765910082831326 -0.6522747143468054 -0.6578122144686028
vn -0.19493780670994557 -0.7275179250418622 -0.6578122226425253
vn 0 -0.753181994127877 -0.6578121948714198
vn 0.19493780670994557 -0.7275179250418622 -0.6578122226425253
vn 0.3765910082831326 -0.6522747143468054 -0.6578122144686028
vn 0.5325800956592432 -0.5325800956592432 -0.6578121946385478
vn 0.6522747143468054 -0.3765910082831326 -0.6578122144686028
vn 0.7275179250418622 -0.19493780670994557 -0.6578122226425253
vn 0.753181994127877 0 -0.6578121948714198
vn 0.7275179250418622 0.19493780670994557 -0.6578122226425253
vn 0.6522747143468054 0.3765910082831326 -0.6578122144686028
vn 0.5325800956592432 0.5325800956592432 -0.6578121946385478
vn 0.3765910082831326 0.6522747143468054 -0.6578122144686028
usemtl material_0_0
f 5/1/49 6/2/50 7/3/51
f 8/4/52 7/3/51 6/2/50
f 11/5/53 6/6/50 12/7/54
f 5/8/49 12/7/54 6/6/50
f 7/9/51 34/10/55 5/11/49
f 5/11/49 34/10/55 12/12/54
f 34/10/55 35/13/56 12/12/54
f 12/12/54 35/13/56 36/14/57
f 35/13/56 37/15/58 36/14/57
f 37/15/58 38/16/59 36/14/57
f 36/14/57 38/16/59 39/17/60
f 39/17/60 38/16/59 40/18/61
f 38/16/59 41/19/62 40/18/61
f 40/18/61 41/19/62 42/20/63
f 41/19/62 43/21/64 42/20/63
f 42/20/63 43/21/64 44/22/65
f 43/21/64 45/23/66 44/22/65
f 44/22/65 45/23/66 46/24/67
f 45/23/66 47/25/68 46/24/67
f 46/24/67 47/25/68 48/26/69
f 47/25/68 49/27/70 48/26/69
f 48/26/69 49/27/70 50/28/71
f 49/27/70 51/29/72 50/28/71
f 50/28/71 51/29/72 52/30/73
f 51/29/72 53/31/74 52/30/73
f 54/32/75 52/30/73 53/31/74
f 7/33/51 8/34/52 34/35/55
f 56/36/76 34/35/55 8/34/52
f 11/37/53 12/38/54 58/39/77
f 36/40/57 58/39/77 12/38/54
f 45/41/66 43/42/64 61/43/78
f 62/44/79 61/43/78 43/42/64
f 43/45/64 41/46/62 62/47/79
f 64/48/80 62/47/79 41/46/62
f 41/49/62 38/50/59 64/51/80
f 66/52/81 64/51/80 38/50/59
f 68/53/82 66/54/81 37/55/58
f 38/56/59 37/55/58 66/54/81
f 70/57/83 68/58/82 35/59/56
f 37/60/58 35/59/56 68/58/82
f 34/61/55 56/62/76 35/63/56
f 70/64/83 35/63/56 56/62/76
f 58/65/77 36/66/57 72/67/84
f 39/68/60 72/67/84 36/66/57
f 39/69/60 40/70/61 72/71/84
f 74/72/85 72/71/84 40/70/61
f 40/73/61 42/74/63 74/75/85
f 76/76/86 74/75/85 42/74/63
f 42/77/63 44/78/65 76/79/86
f 78/80/87 76/79/86 44/78/65
f 44/81/65 46/82/67 78/83/87
f 80/84/88 78/83/87 46/82/67
f 46/85/67 48/86/69 80/87/88
f 82/88/89 80/87/88 48/86/69
f 48/89/69 50/90/71 82/91/89
f 84/92/90 82/91/89 50/90/71
f 84/93/90 50/94/71 86/95/91
f 52/96/73 86/95/91 50/94/71
f 86/97/91 52/98/73 88/99/92
f 54/100/75 88/99/92 52/98/73
f 54/101/75 53/102/74 88/103/92
f 90/104/93 88/103/92 53/102/74
f 53/105/74 51/106/72 90/107/93
f 92/108/94 90/107/93 51/106/72
f 49/109/70 94/110/95 51/111/72
f 92/112/94 51/111/72 94/110/95
f 47/113/68 96/114/96 49/115/70
f 94/116/95 49/115/70 96/114/96
f 47/117/68 45/118/66 96/119/96
f 61/120/78 96/119/96 45/118/66
usemtl material_1_0
f 1//1 2//2 3//3
f 2//2 1//1 4//4
f 1//1 9//5 4//4
f 9//5 1//1 10//6
f 13//7 14//8 15//9
f 14//8 13//7 16//10
f 14//8 16//10 17//11
f 17//11 16//10 18//12
f 17//11 18//12 19//13
f 19//13 18//12 20//14
f 19//13 20//14 21//15
f 21//15 20//14 22//16
f 21//15 22//16 23//17
f 23//17 22//16 24//18
f 23//17 24//18 25//19
f 25//19 24//18 26//20
f 25//19 26//20 27//21
f 27//21 26//20 28//22
f 27//21 28//22 29//23
f 29//23 28//22 30//24
f 30//24 28//22 31//25
f 30//24 31//25 32//26
f 30//24 32//26 9//5
f 9//5 32//26 33//27
f 9//5 33//27 4//4
f 4//4 33//27 2//2
f 3//3 33//27 55//28
f 33//27 3//3 2//2
f 9//5 57//29 30//24
f 57//29 9//5 10//6
f 24//18 59//30 60//31
f 59//30 24//18 22//16
f 26//20 60//31 63//32
f 60//31 26//20 24//18
f 28//22 63//32 65//33
f 63//32 28//22 26//20
f 65//33 31//25 28//22
f 31//25 65//33 67//34
f 67//34 32//26 31//25
f 32//26 67//34 69//35
f 55//28 32//26 69//35
f 32//26 55//28 33//27
f 30//24 71//36 29//23
f 71//36 30//24 57//29
f 27//21 71//36 73//37
f 71//36 27//21 29//23
f 25//19 73//37 75//38
f 73//37 25//19 27//21
f 23//17 75//38 77//39
f 75//38 23//17 25//19
f 21//15 77//39 79//40
f 77//39 21//15 23//17
f 19//13 79//40 81//41
f 79//40 19//13 21//15
f 17//11 81//41 83//42
f 81//41 17//11 19//13
f 17//11 85//43 14//8
f 85//43 17//11 83//42
f 14//8 87//44 15//9
f 87//44 14//8 85//43
f 13//7 87//44 89//45
f 87//44 13//7 15//9
f 16//10 89//45 91//46
f 89//45 16//10 13//7
f 93//47 16//10 91//46
f 16//10 93//47 18//12
f 95//48 18//12 93//47
f 18//12 95//48 20//14
f 22//16 95//48 59//30
f 95//48 22//16 20//14
