# SSTK version 0.8.0
# 7
mtllib original-7.mtl
o #ID227
v 0.377463 0.809953 0.330306
v 0.359785 -0.542467 0.332633
v 0.377463 -0.542467 0.330306
v 0.359785 0.809953 0.332633
v 0.359785 0.809953 0.332633
v 0.377463 0.809953 0.330306
v 0.359785 -0.542467 0.332633
v 0.377463 -0.542467 0.330306
v 0.332463 -0.542467 0.332633
v 0.332463 0.236199 0.332633
v 0.332463 0.809953 0.332633
v 0.332463 0.809953 0.332633
v 0.332463 0.236199 0.332633
v 0.332463 -0.542467 0.332633
v -0.446202 -0.542467 -0.303747
v -0.443875 -0.542467 0.282008
v -0.446202 -0.542467 0.264329
v -0.444147 -0.542467 -0.320378
v -0.438103 -0.542467 -0.336008
v -0.437051 -0.542467 0.298481
v -0.428436 -0.542467 -0.349697
v -0.426197 -0.542467 0.312627
v -0.415726 -0.542467 -0.360619
v -0.412050 -0.542467 0.323482
v -0.400740 -0.542467 -0.368118
v -0.395577 -0.542467 0.330306
v -0.393557 -0.542467 -0.370667
v -0.377898 -0.542467 0.332633
v -0.340116 -0.542467 -0.386936
v -0.350577 -0.542467 -0.019709
v -0.340555 -0.542467 -0.083370
v -0.318774 -0.542467 -0.144023
v -0.285991 -0.542467 -0.400759
v -0.286006 -0.542467 -0.199516
v -0.243415 -0.542467 -0.247881
v -0.231294 -0.542467 -0.412108
v -0.192511 -0.542467 -0.287402
v -0.176138 -0.542467 -0.420960
v -0.135099 -0.542467 -0.316678
v -0.120636 -0.542467 -0.427295
v -0.073216 -0.542467 -0.334669
v -0.064904 -0.542467 -0.431102
v -0.009057 -0.542467 -0.340737
v -0.009057 -0.542467 -0.432372
v 0.046791 -0.542467 -0.431102
v 0.055102 -0.542467 -0.334669
v 0.102523 -0.542467 -0.427295
v 0.116985 -0.542467 -0.316678
v 0.158025 -0.542467 -0.420960
v 0.174397 -0.542467 -0.287402
v 0.213181 -0.542467 -0.412108
v 0.225302 -0.542467 -0.247881
v 0.267878 -0.542467 -0.400759
v 0.267893 -0.542467 -0.199516
v 0.322002 -0.542467 -0.386936
v 0.300660 -0.542467 -0.144023
v 0.322441 -0.542467 -0.083370
v 0.375443 -0.542467 -0.370667
v 0.332463 -0.542467 -0.019709
v 0.332463 -0.542467 0.332633
v 0.359785 -0.542467 0.332633
v 0.377463 -0.542467 0.330306
v 0.382626 -0.542467 -0.368118
v 0.393937 -0.542467 0.323482
v 0.397613 -0.542467 -0.360619
v 0.408083 -0.542467 0.312627
v 0.410322 -0.542467 -0.349697
v 0.418938 -0.542467 0.298481
v 0.419990 -0.542467 -0.336008
v 0.425762 -0.542467 0.282008
v 0.426033 -0.542467 -0.320378
v 0.428089 -0.542467 0.264329
v 0.428089 -0.542467 -0.303747
v -0.350577 -0.542467 0.332633
v -0.350577 -0.542467 -0.019709
v -0.377898 -0.542467 0.332633
v -0.350577 -0.542467 0.332633
v 0.428089 -0.542467 -0.303747
v 0.426033 -0.542467 -0.320378
v 0.428089 -0.542467 0.264329
v 0.425762 -0.542467 0.282008
v 0.419990 -0.542467 -0.336008
v 0.418938 -0.542467 0.298481
v 0.410322 -0.542467 -0.349697
v 0.408083 -0.542467 0.312627
v 0.397613 -0.542467 -0.360619
v 0.393937 -0.542467 0.323482
v 0.382626 -0.542467 -0.368118
v 0.377463 -0.542467 0.330306
v 0.375443 -0.542467 -0.370667
v 0.359785 -0.542467 0.332633
v 0.332463 -0.542467 0.332633
v 0.332463 -0.542467 -0.019709
v 0.322441 -0.542467 -0.083370
v 0.322002 -0.542467 -0.386936
v 0.300660 -0.542467 -0.144023
v 0.267893 -0.542467 -0.199516
v 0.267878 -0.542467 -0.400759
v 0.225302 -0.542467 -0.247881
v 0.213181 -0.542467 -0.412108
v 0.174397 -0.542467 -0.287402
v 0.158025 -0.542467 -0.420960
v 0.116985 -0.542467 -0.316678
v 0.102523 -0.542467 -0.427295
v 0.055102 -0.542467 -0.334669
v 0.046791 -0.542467 -0.431102
v -0.009057 -0.542467 -0.340737
v -0.009057 -0.542467 -0.432372
v -0.064904 -0.542467 -0.431102
v -0.073216 -0.542467 -0.334669
v -0.120636 -0.542467 -0.427295
v -0.135099 -0.542467 -0.316678
v -0.176138 -0.542467 -0.420960
v -0.192511 -0.542467 -0.287402
v -0.231294 -0.542467 -0.412108
v -0.243415 -0.542467 -0.247881
v -0.285991 -0.542467 -0.400759
v -0.286006 -0.542467 -0.199516
v -0.318774 -0.542467 -0.144023
v -0.340116 -0.542467 -0.386936
v -0.340555 -0.542467 -0.083370
v -0.393557 -0.542467 -0.370667
v -0.395577 -0.542467 0.330306
v -0.400740 -0.542467 -0.368118
v -0.412050 -0.542467 0.323482
v -0.415726 -0.542467 -0.360619
v -0.426197 -0.542467 0.312627
v -0.428436 -0.542467 -0.349697
v -0.437051 -0.542467 0.298481
v -0.438103 -0.542467 -0.336008
v -0.443875 -0.542467 0.282008
v -0.444147 -0.542467 -0.320378
v -0.446202 -0.542467 -0.303747
v -0.446202 -0.542467 0.264329
v 0.393937 0.809953 0.323482
v 0.393937 -0.542467 0.323482
v 0.393937 0.809953 0.323482
v 0.393937 -0.542467 0.323482
v 0.332463 0.236199 0.400937
v 0.332463 0.809953 0.332633
v 0.332463 0.809953 0.400937
v 0.332463 0.236199 0.332633
v 0.332463 0.236199 0.332633
v 0.332463 0.236199 0.400937
v 0.332463 0.809953 0.332633
v 0.332463 0.809953 0.400937
v -0.350577 0.236199 0.332633
v -0.377898 -0.542467 0.332633
v -0.350577 -0.542467 0.332633
v -0.377898 0.809953 0.332633
v -0.350577 0.809953 0.332633
v -0.350577 0.809953 0.332633
v -0.350577 0.236199 0.332633
v -0.377898 0.809953 0.332633
v -0.377898 -0.542467 0.332633
v -0.350577 -0.542467 0.332633
v -0.395577 -0.542467 0.330306
v -0.395577 0.809953 0.330306
v -0.395577 0.809953 0.330306
v -0.395577 -0.542467 0.330306
v -0.412050 -0.542467 0.323482
v -0.412050 0.809953 0.323482
v -0.412050 0.809953 0.323482
v -0.412050 -0.542467 0.323482
v -0.426197 -0.542467 0.312627
v -0.426197 0.809953 0.312627
v -0.426197 0.809953 0.312627
v -0.426197 -0.542467 0.312627
v -0.437051 0.809953 0.298481
v -0.437051 -0.542467 0.298481
v -0.437051 -0.542467 0.298481
v -0.437051 0.809953 0.298481
v -0.443875 0.809953 0.282008
v -0.443875 -0.542467 0.282008
v -0.443875 -0.542467 0.282008
v -0.443875 0.809953 0.282008
v -0.446202 0.809953 0.264329
v -0.446202 -0.542467 0.264329
v -0.446202 -0.542467 0.264329
v -0.446202 0.809953 0.264329
v -0.446202 0.809953 -0.019709
v -0.446202 -0.542467 -0.303747
v -0.446202 0.809953 -0.303747
v -0.446202 0.809953 -0.303747
v -0.446202 0.809953 -0.019709
v -0.446202 -0.542467 -0.303747
v -0.444147 0.809953 -0.320378
v -0.444147 -0.542467 -0.320378
v -0.444147 -0.542467 -0.320378
v -0.444147 0.809953 -0.320378
v -0.438103 0.809953 -0.336008
v -0.438103 -0.542467 -0.336008
v -0.438103 -0.542467 -0.336008
v -0.438103 0.809953 -0.336008
v -0.428436 0.809953 -0.349697
v -0.428436 -0.542467 -0.349697
v -0.428436 -0.542467 -0.349697
v -0.428436 0.809953 -0.349697
v -0.415726 -0.542467 -0.360619
v -0.415726 0.809953 -0.360619
v -0.415726 0.809953 -0.360619
v -0.415726 -0.542467 -0.360619
v -0.400740 -0.542467 -0.368118
v -0.400740 0.809953 -0.368118
v -0.400740 0.809953 -0.368118
v -0.400740 -0.542467 -0.368118
v 0.382626 0.809953 -0.368118
v 0.397613 -0.542467 -0.360619
v 0.382626 -0.542467 -0.368118
v 0.397613 0.809953 -0.360619
v 0.397613 0.809953 -0.360619
v 0.382626 0.809953 -0.368118
v 0.397613 -0.542467 -0.360619
v 0.382626 -0.542467 -0.368118
v 0.410322 -0.542467 -0.349697
v 0.410322 0.809953 -0.349697
v 0.410322 0.809953 -0.349697
v 0.410322 -0.542467 -0.349697
v 0.419990 0.809953 -0.336008
v 0.419990 -0.542467 -0.336008
v 0.419990 0.809953 -0.336008
v 0.419990 -0.542467 -0.336008
v 0.426033 0.809953 -0.320378
v 0.426033 -0.542467 -0.320378
v 0.426033 0.809953 -0.320378
v 0.426033 -0.542467 -0.320378
v 0.428089 0.809953 -0.303747
v 0.428089 -0.542467 -0.303747
v 0.428089 0.809953 -0.303747
v 0.428089 -0.542467 -0.303747
v 0.428089 0.809953 0.264329
v 0.428089 -0.542467 0.264329
v 0.428089 0.809953 0.264329
v 0.428089 -0.542467 0.264329
v 0.425762 0.809953 0.282008
v 0.425762 -0.542467 0.282008
v 0.425762 0.809953 0.282008
v 0.425762 -0.542467 0.282008
v 0.418938 0.809953 0.298481
v 0.418938 -0.542467 0.298481
v 0.418938 0.809953 0.298481
v 0.418938 -0.542467 0.298481
v 0.408083 0.809953 0.312627
v 0.408083 -0.542467 0.312627
v 0.408083 0.809953 0.312627
v 0.408083 -0.542467 0.312627
v 0.330136 0.236199 0.418616
v 0.330136 0.809953 0.418616
v 0.330136 0.236199 0.418616
v 0.330136 0.809953 0.418616
v -0.350577 0.809953 0.332633
v -0.350577 0.236199 0.400937
v -0.350577 0.809953 0.400937
v -0.350577 0.236199 0.332633
v -0.350577 0.236199 0.332633
v -0.350577 0.809953 0.332633
v -0.350577 0.236199 0.400937
v -0.350577 0.809953 0.400937
v 0.323312 0.236199 0.435089
v 0.323312 0.809953 0.435089
v 0.323312 0.236199 0.435089
v 0.323312 0.809953 0.435089
v -0.348249 0.236199 0.418616
v -0.348249 0.809953 0.418616
v -0.348249 0.236199 0.418616
v -0.348249 0.809953 0.418616
v 0.312458 0.236199 0.449235
v 0.312458 0.809953 0.449235
v 0.312458 0.236199 0.449235
v 0.312458 0.809953 0.449235
v -0.341426 0.236199 0.435089
v -0.341426 0.809953 0.435089
v -0.341426 0.236199 0.435089
v -0.341426 0.809953 0.435089
v 0.298311 0.236199 0.460090
v 0.298311 0.809953 0.460090
v 0.298311 0.809953 0.460090
v 0.298311 0.236199 0.460090
v -0.330571 0.236199 0.449235
v -0.330571 0.809953 0.449235
v -0.330571 0.236199 0.449235
v -0.330571 0.809953 0.449235
v 0.281838 0.236199 0.466914
v 0.281838 0.809953 0.466914
v 0.281838 0.809953 0.466914
v 0.281838 0.236199 0.466914
v -0.316425 0.809953 0.460090
v -0.316425 0.236199 0.460090
v -0.316425 0.809953 0.460090
v -0.316425 0.236199 0.460090
v 0.264159 0.236199 0.469241
v 0.264159 0.809953 0.469241
v 0.264159 0.809953 0.469241
v 0.264159 0.236199 0.469241
v -0.299951 0.809953 0.466914
v -0.299951 0.236199 0.466914
v -0.299951 0.809953 0.466914
v -0.299951 0.236199 0.466914
v -0.005521 0.326522 0.469241
v -0.282273 0.236199 0.469241
v -0.002226 0.327887 0.469241
v 0.256091 0.493323 0.469240
v 0.257809 0.494641 0.469240
v 0.259127 0.496359 0.469240
v 0.259955 0.498359 0.469240
v 0.260238 0.500505 0.469240
v -0.009057 0.326057 0.469241
v 0.000603 0.330058 0.469241
v 0.002774 0.332887 0.469241
v 0.004139 0.336182 0.469241
v 0.004604 0.339718 0.469241
v 0.004139 0.343253 0.469241
v 0.002774 0.346548 0.469241
v 0.000603 0.349377 0.469241
v -0.002226 0.351548 0.469241
v -0.005521 0.352913 0.469241
v -0.009057 0.353379 0.469241
v 0.254091 0.492495 0.469240
v -0.006910 0.411715 0.469350
v -0.009057 0.411433 0.469350
v -0.216823 0.387576 0.469241
v -0.214677 0.387858 0.469241
v -0.212676 0.388687 0.469241
v -0.210959 0.390005 0.469241
v -0.209641 0.391723 0.469241
v -0.208812 0.393723 0.469241
v -0.208530 0.395869 0.469241
v -0.208812 0.398016 0.469241
v -0.209641 0.400016 0.469241
v -0.210959 0.401733 0.469241
v -0.212676 0.403051 0.469241
v -0.214677 0.403880 0.469241
v -0.216823 0.404162 0.469241
v -0.004910 0.412544 0.469350
v -0.003193 0.413862 0.469350
v -0.001875 0.415579 0.469350
v -0.001046 0.417579 0.469350
v -0.000764 0.419726 0.469350
v -0.001046 0.421872 0.469350
v -0.001875 0.423872 0.469350
v -0.003193 0.425590 0.469350
v -0.004910 0.426908 0.469350
v -0.006910 0.427736 0.469350
v -0.009057 0.428019 0.469350
v 0.251945 0.492212 0.469240
v 0.259955 0.502652 0.469240
v 0.259127 0.504652 0.469240
v 0.257809 0.506369 0.469240
v 0.256091 0.507687 0.469240
v 0.254091 0.508516 0.469240
v 0.251945 0.508798 0.469240
v 0.089908 0.624080 0.469241
v 0.079673 0.613454 0.469241
v 0.063391 0.604330 0.469241
v 0.042171 0.597329 0.469241
v -0.267166 0.508798 0.469240
v 0.017461 0.592927 0.469241
v -0.009057 0.591426 0.469241
v 0.093399 0.635482 0.469241
v 0.089908 0.646885 0.469241
v 0.079673 0.657510 0.469241
v 0.063391 0.666635 0.469241
v 0.042171 0.673636 0.469241
v 0.017461 0.678037 0.469241
v -0.009057 0.679538 0.469241
v -0.275459 0.500505 0.469240
v -0.282273 0.809953 0.469241
v -0.275177 0.498359 0.469240
v -0.274348 0.496359 0.469240
v -0.224005 0.391723 0.469241
v -0.222687 0.390005 0.469241
v -0.220970 0.388687 0.469241
v -0.218969 0.387858 0.469241
v -0.012592 0.326522 0.469241
v -0.015887 0.327887 0.469241
v -0.018716 0.330058 0.469241
v -0.020887 0.332887 0.469241
v -0.022252 0.336182 0.469241
v -0.022718 0.339718 0.469241
v -0.022252 0.343253 0.469241
v -0.020887 0.346548 0.469241
v -0.018716 0.349377 0.469241
v -0.015887 0.351548 0.469241
v -0.012592 0.352913 0.469241
v -0.224834 0.393723 0.469241
v -0.225116 0.395869 0.469241
v -0.224834 0.398016 0.469241
v -0.224005 0.400016 0.469241
v -0.222687 0.401733 0.469241
v -0.220970 0.403051 0.469241
v -0.218969 0.403880 0.469241
v -0.273030 0.494641 0.469240
v -0.271312 0.493323 0.469240
v -0.269312 0.492495 0.469240
v -0.011203 0.411715 0.469350
v -0.013203 0.412544 0.469350
v -0.014921 0.413862 0.469350
v -0.016239 0.415579 0.469350
v -0.017067 0.417579 0.469350
v -0.017350 0.419726 0.469350
v -0.017067 0.421872 0.469350
v -0.016239 0.423872 0.469350
v -0.014921 0.425590 0.469350
v -0.013203 0.426908 0.469350
v -0.011203 0.427736 0.469350
v -0.267166 0.492212 0.469240
v -0.275177 0.502652 0.469240
v -0.274348 0.504652 0.469240
v -0.273030 0.506369 0.469240
v -0.271312 0.507687 0.469240
v -0.269312 0.508516 0.469240
v -0.108022 0.624080 0.469241
v -0.097786 0.613454 0.469241
v -0.081504 0.604330 0.469241
v -0.060285 0.597329 0.469241
v -0.035574 0.592927 0.469241
v -0.111513 0.635482 0.469241
v -0.108022 0.646885 0.469241
v -0.097786 0.657510 0.469241
v -0.081504 0.666635 0.469241
v -0.060285 0.673636 0.469241
v -0.035574 0.678037 0.469241
v 0.249798 0.492495 0.469240
v -0.265020 0.492495 0.469240
v 0.247798 0.493323 0.469240
v -0.263019 0.493323 0.469240
v 0.246080 0.494641 0.469240
v -0.261302 0.494641 0.469240
v 0.244762 0.496359 0.469240
v -0.259984 0.496359 0.469240
v 0.243934 0.498359 0.469240
v -0.259155 0.498359 0.469240
v 0.243651 0.500505 0.469240
v -0.258873 0.500505 0.469240
v 0.243934 0.502652 0.469240
v -0.259155 0.502652 0.469240
v 0.244762 0.504652 0.469240
v -0.259984 0.504652 0.469240
v 0.246080 0.506369 0.469240
v -0.261302 0.506369 0.469240
v 0.247798 0.507687 0.469240
v -0.263019 0.507687 0.469240
v 0.249798 0.508516 0.469240
v -0.265020 0.508516 0.469240
v -0.267166 0.508798 0.469240
v 0.251945 0.508798 0.469240
v -0.265020 0.508516 0.469240
v 0.249798 0.508516 0.469240
v -0.263019 0.507687 0.469240
v 0.247798 0.507687 0.469240
v -0.261302 0.506369 0.469240
v 0.246080 0.506369 0.469240
v -0.259984 0.504652 0.469240
v 0.244762 0.504652 0.469240
v -0.259155 0.502652 0.469240
v 0.243934 0.502652 0.469240
v -0.258873 0.500505 0.469240
v 0.243651 0.500505 0.469240
v -0.259155 0.498359 0.469240
v 0.243934 0.498359 0.469240
v -0.259984 0.496359 0.469240
v 0.244762 0.496359 0.469240
v -0.261302 0.494641 0.469240
v 0.246080 0.494641 0.469240
v -0.263019 0.493323 0.469240
v 0.247798 0.493323 0.469240
v -0.265020 0.492495 0.469240
v 0.249798 0.492495 0.469240
v -0.267166 0.492212 0.469240
v 0.251945 0.492212 0.469240
v -0.009057 0.679538 0.469241
v -0.282273 0.809953 0.469241
v -0.035574 0.678037 0.469241
v -0.060285 0.673636 0.469241
v -0.081504 0.666635 0.469241
v -0.097786 0.657510 0.469241
v -0.108022 0.646885 0.469241
v -0.111513 0.635482 0.469241
v -0.108022 0.624080 0.469241
v -0.009057 0.591426 0.469241
v -0.035574 0.592927 0.469241
v -0.060285 0.597329 0.469241
v -0.081504 0.604330 0.469241
v -0.097786 0.613454 0.469241
v -0.269312 0.508516 0.469240
v -0.271312 0.507687 0.469240
v -0.273030 0.506369 0.469240
v -0.274348 0.504652 0.469240
v -0.275177 0.502652 0.469240
v -0.275459 0.500505 0.469240
v -0.009057 0.428019 0.469350
v -0.269312 0.492495 0.469240
v -0.011203 0.427736 0.469350
v -0.013203 0.426908 0.469350
v -0.014921 0.425590 0.469350
v -0.016239 0.423872 0.469350
v -0.017067 0.421872 0.469350
v -0.017350 0.419726 0.469350
v -0.017067 0.417579 0.469350
v -0.016239 0.415579 0.469350
v -0.014921 0.413862 0.469350
v -0.013203 0.412544 0.469350
v -0.011203 0.411715 0.469350
v -0.009057 0.411433 0.469350
v -0.216823 0.404162 0.469241
v -0.271312 0.493323 0.469240
v -0.273030 0.494641 0.469240
v -0.274348 0.496359 0.469240
v -0.218969 0.403880 0.469241
v -0.220970 0.403051 0.469241
v -0.222687 0.401733 0.469241
v -0.224005 0.400016 0.469241
v -0.224834 0.398016 0.469241
v -0.225116 0.395869 0.469241
v -0.224834 0.393723 0.469241
v -0.224005 0.391723 0.469241
v -0.216823 0.387576 0.469241
v -0.009057 0.353379 0.469241
v -0.218969 0.387858 0.469241
v -0.012592 0.352913 0.469241
v -0.015887 0.351548 0.469241
v -0.018716 0.349377 0.469241
v -0.020887 0.346548 0.469241
v -0.022252 0.343253 0.469241
v -0.022718 0.339718 0.469241
v -0.022252 0.336182 0.469241
v -0.020887 0.332887 0.469241
v -0.018716 0.330058 0.469241
v -0.015887 0.327887 0.469241
v -0.012592 0.326522 0.469241
v -0.009057 0.326057 0.469241
v -0.282273 0.236199 0.469241
v -0.220970 0.388687 0.469241
v -0.222687 0.390005 0.469241
v -0.275177 0.498359 0.469240
v 0.017461 0.678037 0.469241
v 0.042171 0.673636 0.469241
v 0.063391 0.666635 0.469241
v 0.079673 0.657510 0.469241
v 0.089908 0.646885 0.469241
v 0.093399 0.635482 0.469241
v 0.089908 0.624080 0.469241
v 0.017461 0.592927 0.469241
v 0.042171 0.597329 0.469241
v 0.063391 0.604330 0.469241
v 0.079673 0.613454 0.469241
v 0.254091 0.508516 0.469240
v 0.256091 0.507687 0.469240
v 0.257809 0.506369 0.469240
v 0.259127 0.504652 0.469240
v 0.259955 0.502652 0.469240
v 0.260238 0.500505 0.469240
v 0.254091 0.492495 0.469240
v -0.006910 0.427736 0.469350
v -0.004910 0.426908 0.469350
v -0.003193 0.425590 0.469350
v -0.001875 0.423872 0.469350
v -0.001046 0.421872 0.469350
v -0.000764 0.419726 0.469350
v -0.001046 0.417579 0.469350
v -0.001875 0.415579 0.469350
v -0.003193 0.413862 0.469350
v -0.004910 0.412544 0.469350
v -0.006910 0.411715 0.469350
v -0.214677 0.403880 0.469241
v -0.212676 0.403051 0.469241
v -0.210959 0.401733 0.469241
v -0.209641 0.400016 0.469241
v -0.208812 0.398016 0.469241
v -0.208530 0.395869 0.469241
v -0.208812 0.393723 0.469241
v -0.209641 0.391723 0.469241
v -0.210959 0.390005 0.469241
v -0.212676 0.388687 0.469241
v -0.214677 0.387858 0.469241
v 0.256091 0.493323 0.469240
v -0.005521 0.352913 0.469241
v -0.002226 0.351548 0.469241
v 0.000603 0.349377 0.469241
v 0.002774 0.346548 0.469241
v 0.004139 0.343253 0.469241
v 0.004604 0.339718 0.469241
v 0.004139 0.336182 0.469241
v 0.002774 0.332887 0.469241
v 0.000603 0.330058 0.469241
v -0.002226 0.327887 0.469241
v -0.005521 0.326522 0.469241
v 0.259955 0.498359 0.469240
v 0.259127 0.496359 0.469240
v 0.257809 0.494641 0.469240
vt 0.8486913 0.5833333
vt 0.8305626 -0.7916667
vt 0.8486913 -0.7916667
vt 0.8305626 0.5833333
vt 0.8194444 0.5833333
vt 0.7916667 -0.7916667
vt 0.8194444 -0.7916667
vt 0.7916667 -2.162497e-18
vt 0.7916667 0.5833333
vt -7.600532e-17 0.7858939
vt -0.002366262 0.1903598
vt -1.990454e-18 0.2083333
vt -0.002090056 0.8028029
vt -0.008234417 0.8186942
vt -0.009303791 0.1736111
vt -0.01806323 0.8326111
vt -0.02033981 0.1592287
vt -0.03098487 0.8437159
vt -0.03472222 0.1481927
vt -0.04622152 0.8513402
vt -0.0514709 0.1412552
vt -0.0535249 0.8539317
vt -0.06944444 0.1388889
vt -0.1078577 0.8704722
vt -0.09722222 0.4971136
vt -0.1074116 0.5618377
vt -0.1295562 0.6235033
vt -0.162886 0.8845263
vt -0.1628706 0.6799231
vt -0.2061731 0.7290955
vt -0.2184963 0.8960649
vt -0.2579275 0.7692765
vt -0.2745735 0.9050642
vt -0.3162981 0.7990407
vt -0.3310017 0.9115056
vt -0.3792144 0.8173323
vt -0.3876644 0.9153757
vt -0.4444444 0.8235025
vt -0.4444444 0.9166667
vt -0.5012245 0.9153757
vt -0.5096745 0.8173323
vt -0.5578872 0.9115056
vt -0.5725908 0.7990407
vt -0.6143154 0.9050642
vt -0.6309614 0.7692765
vt -0.6703926 0.8960649
vt -0.6827158 0.7290955
vt -0.7260028 0.8845263
vt -0.7260183 0.6799231
vt -0.7810312 0.8704722
vt -0.7593327 0.6235033
vt -0.7814773 0.5618377
vt -0.835364 0.8539317
vt -0.7916667 0.4971136
vt -0.7916667 0.1388889
vt -0.8194444 0.1388889
vt -0.837418 0.1412552
vt -0.8426674 0.8513402
vt -0.8541667 0.1481927
vt -0.857904 0.8437159
vt -0.8685491 0.1592287
vt -0.8708257 0.8326111
vt -0.8795851 0.1736111
vt -0.8806545 0.8186942
vt -0.8865226 0.1903598
vt -0.8867988 0.8028029
vt -0.8888889 0.2083333
vt -0.8888889 0.7858939
vt -0.09722222 0.1388889
vt 0.845858 0.5833333
vt 0.8277293 -0.7916667
vt 0.845858 -0.7916667
vt 0.8277293 0.5833333
vt 0.06944444 -2.701331e-18
vt 0.1388889 0.5833333
vt 0.06944444 0.5833333
vt 0.1388889 -2.701331e-18
vt 0.09722222 -2.162497e-18
vt 0.06944444 -0.7916667
vt 0.09722222 -0.7916667
vt 0.09722222 0.5833333
vt 0.0507217 0.5833333
vt 0.03259306 -0.7916667
vt 0.0507217 -0.7916667
vt 0.03259306 0.5833333
vt -0.006503095 0.5833333
vt -0.02463173 -0.7916667
vt -0.006503095 -0.7916667
vt -0.02463173 0.5833333
vt -0.062667 0.5833333
vt -0.08079563 -0.7916667
vt -0.062667 -0.7916667
vt -0.08079563 0.5833333
vt -0.1320712 0.5833333
vt -0.1139425 -0.7916667
vt -0.1139425 0.5833333
vt -0.1320712 -0.7916667
vt -0.174964 0.5833333
vt -0.1568353 -0.7916667
vt -0.1568353 0.5833333
vt -0.174964 -0.7916667
vt -0.206551 0.5833333
vt -0.1884224 -0.7916667
vt -0.1884224 0.5833333
vt -0.206551 -0.7916667
vt -0.4971136 0.5833333
vt -0.2083333 -0.7916667
vt -0.2083333 0.5833333
vt -0.7858939 -0.7916667
vt -0.7858939 0.5833333
vt -0.796996 0.5833333
vt -0.7799582 -0.7916667
vt -0.7799582 0.5833333
vt -0.796996 -0.7916667
vt -0.7665725 0.5833333
vt -0.7495347 -0.7916667
vt -0.7495347 0.5833333
vt -0.7665725 -0.7916667
vt -0.690519 0.5833333
vt -0.6734812 -0.7916667
vt -0.6734812 0.5833333
vt -0.690519 -0.7916667
vt -0.5563756 0.5833333
vt -0.5734134 -0.7916667
vt -0.5563756 -0.7916667
vt -0.5734134 0.5833333
vt -0.405267 0.5833333
vt -0.4223048 -0.7916667
vt -0.405267 -0.7916667
vt -0.4223048 0.5833333
vt -0.372617 0.5833333
vt -0.3896548 -0.7916667
vt -0.372617 -0.7916667
vt -0.3896548 0.5833333
vt -0.1007299 0.5833333
vt -0.1177677 -0.7916667
vt -0.1007299 -0.7916667
vt -0.1177677 0.5833333
vt 0.1777333 -0.7916667
vt 0.1606955 0.5833333
vt 0.1606955 -0.7916667
vt 0.1777333 0.5833333
vt 0.4460109 -0.7916667
vt 0.4289731 0.5833333
vt 0.4289731 -0.7916667
vt 0.4460109 0.5833333
vt 0.6879543 -0.7916667
vt 0.6709165 0.5833333
vt 0.6709165 -0.7916667
vt 0.6879543 0.5833333
vt 0.7858939 -0.7916667
vt 0.2083333 0.5833333
vt 0.2083333 -0.7916667
vt 0.7858939 0.5833333
vt 0.3225743 -0.7916667
vt 0.3044457 0.5833333
vt 0.3044457 -0.7916667
vt 0.3225743 0.5833333
vt 0.515127 -0.7916667
vt 0.4969984 0.5833333
vt 0.4969984 -0.7916667
vt 0.515127 0.5833333
vt 0.6731924 -0.7916667
vt 0.6550638 0.5833333
vt 0.6550638 -0.7916667
vt 0.6731924 0.5833333
vt 0.7859986 0.5833333
vt 0.76787 -0.7916667
vt 0.7859986 -0.7916667
vt 0.76787 0.5833333
vt 0.1540549 -1.047933e-18
vt 0.1721836 0.5833333
vt 0.1540549 0.5833333
vt 0.1721836 -1.047933e-18
vt -0.1388889 0.5833333
vt -0.06944444 -3.317424e-19
vt -0.06944444 0.5833333
vt -0.1388889 -3.317424e-19
vt 0.3314765 1.990848e-18
vt 0.3496051 0.5833333
vt 0.3314765 0.5833333
vt 0.3496051 1.990848e-18
vt -0.05616029 0.5833333
vt -0.03803165 -5.710699e-19
vt -0.03803165 0.5833333
vt -0.05616029 -5.710699e-19
vt 0.4856907 4.059759e-18
vt 0.5038193 0.5833333
vt 0.4856907 0.5833333
vt 0.5038193 4.059759e-18
vt -0.009442048 0.5833333
vt 0.00868659 -1.017725e-18
vt 0.00868659 0.5833333
vt -0.009442048 -1.017725e-18
vt 0.6243168 0.5833333
vt 0.6061882 4.658987e-18
vt 0.6243168 4.658987e-18
vt 0.6061882 0.5833333
vt 0.03730194 0.5833333
vt 0.05543058 -1.287401e-18
vt 0.05543058 0.5833333
vt 0.03730194 -1.287401e-18
vt 0.7028859 0.5833333
vt 0.6847572 3.67617e-18
vt 0.7028859 3.67617e-18
vt 0.6847572 0.5833333
vt 0.09901478 0.5833333
vt 0.08088614 -1.265542e-18
vt 0.09901478 -1.265542e-18
vt 0.08088614 0.5833333
vt 0.7341721 0.5833333
vt 0.7160435 1.413222e-18
vt 0.7341721 1.413222e-18
vt 0.7160435 0.5833333
vt 0.136469 0.5833333
vt 0.1183404 -9.271332e-19
vt 0.136469 -9.271332e-19
vt 0.1183404 0.5833333
vt 0.7222222 -8.804251e-35
vt 0.4480392 0.09183144
vt 0.1666667 -8.804251e-35
vt 0.4513889 0.09321894
vt 0.7140193 0.261417
vt 0.7157656 0.2627569
vt 0.7171055 0.2645032
vt 0.7179478 0.2665367
vt 0.7182351 0.268719
vt 0.7222222 0.5833333
vt 0.4444444 0.09135818
vt 0.4542654 0.09542615
vt 0.4564726 0.09830263
vt 0.4578601 0.1016524
vt 0.4583333 0.1052471
vt 0.4578601 0.1088418
vt 0.4564726 0.1121915
vt 0.4542654 0.115068
vt 0.4513889 0.1172752
vt 0.4480392 0.1186627
vt 0.4444444 0.119136
vt 0.7119858 0.2605747
vt 0.4466267 0.1784465
vt 0.4444444 0.1781592
vt 0.2332093 0.1539043
vt 0.2353916 0.1541916
vt 0.2374251 0.1550339
vt 0.2391713 0.1563739
vt 0.2405113 0.1581201
vt 0.2413536 0.1601536
vt 0.2416409 0.1623359
vt 0.2413536 0.1645182
vt 0.2405113 0.1665517
vt 0.2391713 0.168298
vt 0.2374251 0.1696379
vt 0.2353916 0.1704802
vt 0.2332093 0.1707675
vt 0.4486602 0.1792889
vt 0.4504065 0.1806288
vt 0.4517464 0.182375
vt 0.4525888 0.1844086
vt 0.4528761 0.1865908
vt 0.4525888 0.1887731
vt 0.4517464 0.1908066
vt 0.4504065 0.1925529
vt 0.4486602 0.1938928
vt 0.4466267 0.1947351
vt 0.4444444 0.1950224
vt 0.7098035 0.2602874
vt 0.7179478 0.2709012
vt 0.7171055 0.2729348
vt 0.7157656 0.274681
vt 0.7140193 0.276021
vt 0.7119858 0.2768633
vt 0.7098035 0.2771506
vt 0.5450617 0.394357
vt 0.5346554 0.3835541
vt 0.5181014 0.3742774
vt 0.4965278 0.3671592
vt 0.1820258 0.2771506
vt 0.4714048 0.3626845
vt 0.4444444 0.3611583
vt 0.5486111 0.4059499
vt 0.5450617 0.4175429
vt 0.5346554 0.4283458
vt 0.5181014 0.4376224
vt 0.4965278 0.4447406
vt 0.4714048 0.4492154
vt 0.4444444 0.4507416
vt 0.1735942 0.268719
vt 0.1666667 0.5833333
vt 0.1738815 0.2665367
vt 0.1747238 0.2645032
vt 0.2259073 0.1581201
vt 0.2272472 0.1563739
vt 0.2289935 0.1550339
vt 0.231027 0.1541916
vt 0.4408497 0.09183144
vt 0.4375 0.09321894
vt 0.4346235 0.09542615
vt 0.4324163 0.09830263
vt 0.4310288 0.1016524
vt 0.4305556 0.1052471
vt 0.4310288 0.1088418
vt 0.4324163 0.1121915
vt 0.4346235 0.115068
vt 0.4375 0.1172752
vt 0.4408497 0.1186627
vt 0.225065 0.1601536
vt 0.2247777 0.1623359
vt 0.225065 0.1645182
vt 0.2259073 0.1665517
vt 0.2272472 0.168298
vt 0.2289935 0.1696379
vt 0.231027 0.1704802
vt 0.1760637 0.2627569
vt 0.17781 0.261417
vt 0.1798435 0.2605747
vt 0.4422622 0.1784465
vt 0.4402286 0.1792889
vt 0.4384824 0.1806288
vt 0.4371425 0.182375
vt 0.4363001 0.1844086
vt 0.4360128 0.1865908
vt 0.4363001 0.1887731
vt 0.4371425 0.1908066
vt 0.4384824 0.1925529
vt 0.4402286 0.1938928
vt 0.4422622 0.1947351
vt 0.1820258 0.2602874
vt 0.1738815 0.2709012
vt 0.1747238 0.2729348
vt 0.1760637 0.274681
vt 0.17781 0.276021
vt 0.1798435 0.2768633
vt 0.3438272 0.394357
vt 0.3542335 0.3835541
vt 0.3707875 0.3742774
vt 0.3923611 0.3671592
vt 0.4174841 0.3626845
vt 0.3402778 0.4059499
vt 0.3438272 0.4175429
vt 0.3542335 0.4283458
vt 0.3707875 0.4376224
vt 0.3923611 0.4447406
vt 0.4174841 0.4492154
vt 0.7076213 0.2605747
vt 0.184208 0.2605747
vt 0.7055877 0.261417
vt 0.1862416 0.261417
vt 0.7038415 0.2627569
vt 0.1879878 0.2627569
vt 0.7025016 0.2645032
vt 0.1893277 0.2645032
vt 0.7016592 0.2665367
vt 0.1901701 0.2665367
vt 0.7013719 0.268719
vt 0.1904574 0.268719
vt 0.7016592 0.2709012
vt 0.1901701 0.2709012
vt 0.7025016 0.2729348
vt 0.1893277 0.2729348
vt 0.7038415 0.274681
vt 0.1879878 0.274681
vt 0.7055877 0.276021
vt 0.1862416 0.276021
vt 0.7076213 0.2768633
vt 0.184208 0.2768633
vt 0.1652408 0.5833333
vt 0.1471122 -3.455062e-19
vt 0.1652408 -3.455062e-19
vt 0.1471122 0.5833333
vn 0.25881900959356163 0 0.9659258358036645
vn 0.06540313151333016 0 0.9978589230889555
vn 0 0 1
vn 0 -1 0
vn 0.5000000016387101 0 0.866025402838329
vn 0.9978589230889555 0 0.06540313151333016
vn 1 0 0
vn -0.06540313151333016 0 0.9978589230889555
vn -0.25881900959356163 0 0.9659258358036645
vn -0.5000000016387101 0 0.866025402838329
vn -0.7071067811865476 0 0.7071067811865476
vn -0.866025402838329 0 0.5000000016387101
vn -0.9659258358036645 0 0.25881900959356163
vn -0.9978589230889555 0 0.06540313151333016
vn -1 0 0
vn -0.9981100329758331 0 -0.06145211203027173
vn -0.9699031826615018 0 -0.243490895647229
vn -0.881424411896863 0 -0.47232510637512076
vn -0.7398894604445857 0 -0.6727284640350963
vn -0.5538179076567403 0 -0.83263781151153
vn -0.44749381355739803 0 -0.8942870270935706
vn 0.44749381355739803 0 -0.8942870270935706
vn 0.5538179076567403 0 -0.83263781151153
vn 0.7398894604445857 0 -0.6727284640350963
vn 0.881424411896863 0 -0.47232510637512076
vn 0.9699031826615018 0 -0.243490895647229
vn 0.9981100329758331 0 -0.06145211203027173
vn 0.9659258358036645 0 0.25881900959356163
vn 0.866025402838329 0 0.5000000016387101
vn 0.7071067811865476 0 0.7071067811865476
vn -0.06540313151333016 0 -0.9978589230889555
vn -0.25881900959356163 0 -0.9659258358036645
vn 0 0 -1
vn 0 1 0
vn -0.5000000016387101 0 -0.866025402838329
vn -0.9978589230889555 0 -0.06540313151333016
vn 0.06540313151333016 0 -0.9978589230889555
vn 0.25881900959356163 0 -0.9659258358036645
vn 0.5000000016387101 0 -0.866025402838329
vn 0.7071067811865476 0 -0.7071067811865476
vn 0.866025402838329 0 -0.5000000016387101
vn 0.9659258358036645 0 -0.25881900959356163
vn 0.9978589230889555 0 -0.06540313151333016
vn 0.9981100329758331 0 0.06145211203027173
vn 0.9699031826615018 0 0.243490895647229
vn 0.881424411896863 0 0.47232510637512076
vn 0.7398894604445857 0 0.6727284640350963
vn 0.5538179076567403 0 0.83263781151153
vn 0.44749381355739803 0 0.8942870270935706
vn -0.5538179076567403 0 0.83263781151153
vn -0.44749381355739803 0 0.8942870270935706
vn -0.7398894604445857 0 0.6727284640350963
vn -0.881424411896863 0 0.47232510637512076
vn -0.9699031826615018 0 0.243490895647229
vn -0.9981100329758331 0 0.06145211203027173
vn -0.9659258358036645 0 -0.25881900959356163
vn -0.866025402838329 0 -0.5000000016387101
vn -0.7071067811865476 0 -0.7071067811865476
usemtl material_0_0
f 5//31 6//32 7//31
f 8//32 7//31 6//32
f 12//33 5//31 13//33
f 13//33 5//31 14//33
f 7//31 14//33 5//31
f 75//34 76//34 77//34
f 78//34 79//34 80//34
f 80//34 79//34 81//34
f 79//34 82//34 81//34
f 81//34 82//34 83//34
f 82//34 84//34 83//34
f 83//34 84//34 85//34
f 84//34 86//34 85//34
f 85//34 86//34 87//34
f 86//34 88//34 87//34
f 87//34 88//34 89//34
f 88//34 90//34 89//34
f 89//34 90//34 91//34
f 91//34 90//34 92//34
f 92//34 90//34 93//34
f 93//34 90//34 94//34
f 90//34 95//34 94//34
f 94//34 95//34 96//34
f 96//34 95//34 97//34
f 95//34 98//34 97//34
f 97//34 98//34 99//34
f 98//34 100//34 99//34
f 99//34 100//34 101//34
f 100//34 102//34 101//34
f 101//34 102//34 103//34
f 102//34 104//34 103//34
f 103//34 104//34 105//34
f 104//34 106//34 105//34
f 105//34 106//34 107//34
f 106//34 108//34 107//34
f 108//34 109//34 107//34
f 107//34 109//34 110//34
f 109//34 111//34 110//34
f 110//34 111//34 112//34
f 111//34 113//34 112//34
f 112//34 113//34 114//34
f 113//34 115//34 114//34
f 114//34 115//34 116//34
f 115//34 117//34 116//34
f 116//34 117//34 118//34
f 118//34 117//34 119//34
f 117//34 120//34 119//34
f 119//34 120//34 121//34
f 121//34 120//34 75//34
f 75//34 120//34 76//34
f 120//34 122//34 76//34
f 76//34 122//34 123//34
f 122//34 124//34 123//34
f 123//34 124//34 125//34
f 124//34 126//34 125//34
f 125//34 126//34 127//34
f 126//34 128//34 127//34
f 127//34 128//34 129//34
f 128//34 130//34 129//34
f 129//34 130//34 131//34
f 130//34 132//34 131//34
f 132//34 133//34 131//34
f 134//34 131//34 133//34
f 6//32 137//35 8//32
f 138//35 8//32 137//35
f 143//15 144//36 145//15
f 146//36 145//15 144//36
f 152//33 153//33 154//37
f 154//37 153//33 155//37
f 156//33 155//37 153//33
f 159//38 154//37 160//38
f 155//37 160//38 154//37
f 163//39 159//38 164//39
f 160//38 164//39 159//38
f 167//40 163//39 168//40
f 164//39 168//40 163//39
f 171//41 172//41 168//40
f 167//40 168//40 172//41
f 175//42 176//42 171//41
f 172//41 171//41 176//42
f 179//43 180//43 175//42
f 176//42 175//42 180//43
f 184//44 185//7 186//44
f 186//44 185//7 179//43
f 180//43 179//43 185//7
f 189//45 190//45 186//44
f 184//44 186//44 190//45
f 193//46 194//46 189//45
f 190//45 189//45 194//46
f 197//47 198//47 193//46
f 194//46 193//46 198//47
f 201//48 198//47 202//48
f 197//47 202//48 198//47
f 205//49 201//48 206//49
f 202//48 206//49 201//48
f 211//50 212//51 213//50
f 214//51 213//50 212//51
f 217//52 211//50 218//52
f 213//50 218//52 211//50
f 217//52 218//52 221//53
f 222//53 221//53 218//52
f 221//53 222//53 225//54
f 226//54 225//54 222//53
f 225//54 226//54 229//55
f 230//55 229//55 226//54
f 229//55 230//55 233//36
f 234//36 233//36 230//55
f 233//36 234//36 237//56
f 238//56 237//56 234//36
f 237//56 238//56 241//57
f 242//57 241//57 238//56
f 241//57 242//57 245//58
f 246//58 245//58 242//57
f 137//35 245//58 138//35
f 246//58 138//35 245//58
f 144//36 249//56 146//36
f 250//56 146//36 249//56
f 255//7 256//7 257//43
f 258//43 257//43 256//7
f 249//56 261//57 250//56
f 262//57 250//56 261//57
f 257//43 258//43 265//42
f 266//42 265//42 258//43
f 261//57 269//58 262//57
f 270//58 262//57 269//58
f 265//42 266//42 273//41
f 274//41 273//41 266//42
f 277//35 270//58 278//35
f 269//58 278//35 270//58
f 273//41 274//41 281//40
f 282//40 281//40 274//41
f 285//32 277//35 286//32
f 278//35 286//32 277//35
f 282//40 289//39 281//40
f 290//39 281//40 289//39
f 293//31 285//32 294//31
f 286//32 294//31 285//32
f 289//39 297//38 290//39
f 298//38 290//39 297//38
f 445//33 446//33 447//33
f 446//33 448//33 447//33
f 447//33 448//33 449//33
f 448//33 450//33 449//33
f 449//33 450//33 451//33
f 450//33 452//33 451//33
f 451//33 452//33 453//33
f 452//33 454//33 453//33
f 453//33 454//33 455//33
f 454//33 456//33 455//33
f 455//33 456//33 457//33
f 456//33 458//33 457//33
f 457//33 458//33 459//33
f 458//33 460//33 459//33
f 459//33 460//33 461//33
f 460//33 462//33 461//33
f 461//33 462//33 463//33
f 462//33 464//33 463//33
f 463//33 464//33 465//33
f 464//33 466//33 465//33
f 465//33 466//33 467//33
f 466//33 468//33 467//33
f 467//33 468//33 469//33
f 470//33 469//33 468//33
f 293//31 471//33 472//37
f 471//33 473//33 472//37
f 473//33 474//33 472//37
f 474//33 475//33 472//37
f 475//33 476//33 472//37
f 476//33 477//33 472//37
f 477//33 478//33 472//37
f 478//33 479//33 472//37
f 480//33 445//33 481//33
f 481//33 445//33 482//33
f 482//33 445//33 483//33
f 483//33 445//33 484//33
f 484//33 445//33 479//33
f 479//33 445//33 472//37
f 445//33 485//33 472//37
f 485//33 486//33 472//37
f 486//33 487//33 472//37
f 487//33 488//33 472//37
f 488//33 489//33 472//37
f 489//33 490//33 472//37
f 470//33 491//33 469//33
f 469//33 491//33 492//33
f 491//33 493//33 492//33
f 493//33 494//33 492//33
f 494//33 495//33 492//33
f 495//33 496//33 492//33
f 496//33 497//33 492//33
f 497//33 498//33 492//33
f 498//33 499//33 492//33
f 499//33 500//33 492//33
f 500//33 501//33 492//33
f 501//33 502//33 492//33
f 502//33 503//33 492//33
f 504//33 505//33 503//33
f 503//33 505//33 492//33
f 492//33 505//33 506//33
f 506//33 505//33 507//33
f 507//33 505//33 508//33
f 505//33 509//33 508//33
f 509//33 510//33 508//33
f 510//33 511//33 508//33
f 511//33 512//33 508//33
f 512//33 513//33 508//33
f 513//33 514//33 508//33
f 514//33 515//33 508//33
f 515//33 516//33 508//33
f 517//33 518//33 519//33
f 518//33 520//33 519//33
f 520//33 521//33 519//33
f 521//33 522//33 519//33
f 522//33 523//33 519//33
f 523//33 524//33 519//33
f 524//33 525//33 519//33
f 525//33 526//33 519//33
f 526//33 527//33 519//33
f 527//33 528//33 519//33
f 528//33 529//33 519//33
f 529//33 530//33 519//33
f 531//33 532//37 530//33
f 530//33 532//37 519//33
f 519//33 532//37 533//33
f 533//33 532//37 534//33
f 534//33 532//37 516//33
f 516//33 532//37 508//33
f 508//33 532//37 535//33
f 535//33 532//37 490//33
f 472//37 490//33 532//37
f 471//33 293//31 536//33
f 536//33 293//31 537//33
f 537//33 293//31 538//33
f 538//33 293//31 539//33
f 539//33 293//31 540//33
f 540//33 293//31 541//33
f 541//33 293//31 542//33
f 480//33 543//33 445//33
f 543//33 544//33 445//33
f 445//33 544//33 446//33
f 544//33 545//33 446//33
f 545//33 546//33 446//33
f 546//33 542//33 446//33
f 542//33 293//31 446//33
f 446//33 293//31 547//33
f 547//33 293//31 548//33
f 548//33 293//31 549//33
f 549//33 293//31 550//33
f 550//33 293//31 551//33
f 551//33 293//31 552//33
f 470//33 553//33 491//33
f 491//33 553//33 554//33
f 554//33 553//33 555//33
f 555//33 553//33 556//33
f 556//33 553//33 557//33
f 557//33 553//33 558//33
f 558//33 553//33 559//33
f 559//33 553//33 560//33
f 560//33 553//33 561//33
f 561//33 553//33 562//33
f 562//33 553//33 563//33
f 563//33 553//33 564//33
f 505//33 504//33 565//33
f 565//33 504//33 566//33
f 566//33 504//33 567//33
f 567//33 504//33 568//33
f 568//33 504//33 569//33
f 569//33 504//33 570//33
f 570//33 504//33 571//33
f 571//33 504//33 572//33
f 572//33 504//33 573//33
f 573//33 504//33 574//33
f 574//33 504//33 575//33
f 575//33 504//33 517//33
f 517//33 504//33 518//33
f 504//33 564//33 518//33
f 564//33 553//33 518//33
f 553//33 576//33 518//33
f 518//33 576//33 577//33
f 577//33 576//33 578//33
f 578//33 576//33 579//33
f 579//33 576//33 580//33
f 580//33 576//33 581//33
f 581//33 576//33 582//33
f 582//33 576//33 583//33
f 583//33 576//33 584//33
f 584//33 576//33 585//33
f 585//33 576//33 586//33
f 531//33 587//33 532//37
f 293//31 294//31 552//33
f 552//33 294//31 588//33
f 588//33 294//31 589//33
f 589//33 294//31 590//33
f 590//33 294//31 576//33
f 576//33 294//31 586//33
f 586//33 294//31 587//33
f 532//37 587//33 294//31
f 297//38 472//37 298//38
f 532//37 298//38 472//37
usemtl material_1_0
f 1/1/1 2/2/2 3/3/1
f 2/2/2 1/1/1 4/4/2
f 4/5/2 9/6/3 2/7/2
f 9/6/3 4/5/2 10/8/3
f 10/8/3 4/5/2 11/9/3
f 15/10/4 16/11/4 17/12/4
f 16/11/4 15/10/4 18/13/4
f 16/11/4 18/13/4 19/14/4
f 16/11/4 19/14/4 20/15/4
f 20/15/4 19/14/4 21/16/4
f 20/15/4 21/16/4 22/17/4
f 22/17/4 21/16/4 23/18/4
f 22/17/4 23/18/4 24/19/4
f 24/19/4 23/18/4 25/20/4
f 24/19/4 25/20/4 26/21/4
f 26/21/4 25/20/4 27/22/4
f 26/21/4 27/22/4 28/23/4
f 28/23/4 27/22/4 29/24/4
f 28/23/4 29/24/4 30/25/4
f 30/25/4 29/24/4 31/26/4
f 31/26/4 29/24/4 32/27/4
f 32/27/4 29/24/4 33/28/4
f 32/27/4 33/28/4 34/29/4
f 34/29/4 33/28/4 35/30/4
f 35/30/4 33/28/4 36/31/4
f 35/30/4 36/31/4 37/32/4
f 37/32/4 36/31/4 38/33/4
f 37/32/4 38/33/4 39/34/4
f 39/34/4 38/33/4 40/35/4
f 39/34/4 40/35/4 41/36/4
f 41/36/4 40/35/4 42/37/4
f 41/36/4 42/37/4 43/38/4
f 43/38/4 42/37/4 44/39/4
f 43/38/4 44/39/4 45/40/4
f 43/38/4 45/40/4 46/41/4
f 46/41/4 45/40/4 47/42/4
f 46/41/4 47/42/4 48/43/4
f 48/43/4 47/42/4 49/44/4
f 48/43/4 49/44/4 50/45/4
f 50/45/4 49/44/4 51/46/4
f 50/45/4 51/46/4 52/47/4
f 52/47/4 51/46/4 53/48/4
f 52/47/4 53/48/4 54/49/4
f 54/49/4 53/48/4 55/50/4
f 54/49/4 55/50/4 56/51/4
f 56/51/4 55/50/4 57/52/4
f 57/52/4 55/50/4 58/53/4
f 57/52/4 58/53/4 59/54/4
f 59/54/4 58/53/4 60/55/4
f 60/55/4 58/53/4 61/56/4
f 61/56/4 58/53/4 62/57/4
f 62/57/4 58/53/4 63/58/4
f 62/57/4 63/58/4 64/59/4
f 64/59/4 63/58/4 65/60/4
f 64/59/4 65/60/4 66/61/4
f 66/61/4 65/60/4 67/62/4
f 66/61/4 67/62/4 68/63/4
f 68/63/4 67/62/4 69/64/4
f 68/63/4 69/64/4 70/65/4
f 70/65/4 69/64/4 71/66/4
f 70/65/4 71/66/4 72/67/4
f 72/67/4 71/66/4 73/68/4
f 74/69/4 28/23/4 30/25/4
f 135/70/5 3/71/1 136/72/5
f 3/71/1 135/70/5 1/73/1
f 139/74/6 140/75/7 141/76/6
f 140/75/7 139/74/6 142/77/7
f 147/78/3 148/79/8 149/80/3
f 148/79/8 147/78/3 150/76/8
f 150/76/8 147/78/3 151/81/3
f 150/82/8 157/83/9 148/84/8
f 157/83/9 150/82/8 158/85/9
f 158/86/9 161/87/10 157/88/9
f 161/87/10 158/86/9 162/89/10
f 162/90/10 165/91/11 161/92/10
f 165/91/11 162/90/10 166/93/11
f 169/94/12 165/95/11 166/96/11
f 165/95/11 169/94/12 170/97/12
f 173/98/13 170/99/12 169/100/12
f 170/99/12 173/98/13 174/101/13
f 177/102/14 174/103/13 173/104/13
f 174/103/13 177/102/14 178/105/14
f 181/106/15 178/107/14 177/108/14
f 178/107/14 181/106/15 182/109/16
f 182/109/16 181/106/15 183/110/16
f 187/111/17 182/112/16 183/113/16
f 182/112/16 187/111/17 188/114/17
f 191/115/18 188/116/17 187/117/17
f 188/116/17 191/115/18 192/118/18
f 195/119/19 192/120/18 191/121/18
f 192/120/18 195/119/19 196/122/19
f 195/123/19 199/124/20 196/125/19
f 199/124/20 195/123/19 200/126/20
f 200/127/20 203/128/21 199/129/20
f 203/128/21 200/127/20 204/130/21
f 207/131/22 208/132/23 209/133/22
f 208/132/23 207/131/22 210/134/23
f 210/135/23 215/136/24 208/137/23
f 215/136/24 210/135/23 216/138/24
f 215/139/24 219/140/25 220/141/25
f 219/140/25 215/139/24 216/142/24
f 220/143/25 223/144/26 224/145/26
f 223/144/26 220/143/25 219/146/25
f 224/147/26 227/148/27 228/149/27
f 227/148/27 224/147/26 223/150/26
f 228/151/27 231/152/6 232/153/6
f 231/152/6 228/151/27 227/154/27
f 232/155/6 235/156/28 236/157/28
f 235/156/28 232/155/6 231/158/6
f 236/159/28 239/160/29 240/161/29
f 239/160/29 236/159/28 235/162/28
f 240/163/29 243/164/30 244/165/30
f 243/164/30 240/163/29 239/166/29
f 243/167/30 136/168/5 244/169/30
f 136/168/5 243/167/30 135/170/5
f 247/171/28 141/172/6 248/173/28
f 141/172/6 247/171/28 139/174/6
f 251/175/15 252/176/14 253/177/14
f 252/176/14 251/175/15 254/178/15
f 259/179/29 248/180/28 260/181/29
f 248/180/28 259/179/29 247/182/28
f 253/183/14 263/184/13 264/185/13
f 263/184/13 253/183/14 252/186/14
f 267/187/30 260/188/29 268/189/30
f 260/188/29 267/187/30 259/190/29
f 264/191/13 271/192/12 272/193/12
f 271/192/12 264/191/13 263/194/13
f 268/195/30 275/196/5 267/197/30
f 275/196/5 268/195/30 276/198/5
f 272/199/12 279/200/11 280/201/11
f 279/200/11 272/199/12 271/202/12
f 276/203/5 283/204/1 275/205/5
f 283/204/1 276/203/5 284/206/1
f 287/207/10 279/208/11 288/209/10
f 279/208/11 287/207/10 280/210/11
f 284/211/1 291/212/2 283/213/1
f 291/212/2 284/211/1 292/214/2
f 295/215/9 288/216/10 296/217/9
f 288/216/10 295/215/9 287/218/10
f 291/219/2 299/220/3 300/221/8
f 299/220/3 291/219/2 301/222/3
f 301/222/3 291/219/2 302/223/3
f 302/223/3 291/219/2 303/224/3
f 303/224/3 291/219/2 304/225/3
f 304/225/3 291/219/2 305/226/3
f 305/226/3 291/219/2 306/227/3
f 306/227/3 291/219/2 292/228/2
f 300/221/8 299/220/3 307/229/3
f 301/222/3 302/223/3 308/230/3
f 308/230/3 302/223/3 309/231/3
f 309/231/3 302/223/3 310/232/3
f 310/232/3 302/223/3 311/233/3
f 311/233/3 302/223/3 312/234/3
f 312/234/3 302/223/3 313/235/3
f 313/235/3 302/223/3 314/236/3
f 314/236/3 302/223/3 315/237/3
f 315/237/3 302/223/3 316/238/3
f 316/238/3 302/223/3 317/239/3
f 317/239/3 302/223/3 318/240/3
f 317/239/3 318/240/3 319/241/3
f 317/239/3 319/241/3 320/242/3
f 317/239/3 320/242/3 321/243/3
f 321/243/3 320/242/3 322/244/3
f 322/244/3 320/242/3 323/245/3
f 323/245/3 320/242/3 324/246/3
f 324/246/3 320/242/3 325/247/3
f 325/247/3 320/242/3 326/248/3
f 326/248/3 320/242/3 327/249/3
f 327/249/3 320/242/3 328/250/3
f 328/250/3 320/242/3 329/251/3
f 329/251/3 320/242/3 330/252/3
f 330/252/3 320/242/3 331/253/3
f 331/253/3 320/242/3 332/254/3
f 332/254/3 320/242/3 333/255/3
f 319/241/3 318/240/3 334/256/3
f 334/256/3 318/240/3 335/257/3
f 335/257/3 318/240/3 336/258/3
f 336/258/3 318/240/3 337/259/3
f 337/259/3 318/240/3 338/260/3
f 338/260/3 318/240/3 339/261/3
f 339/261/3 318/240/3 340/262/3
f 340/262/3 318/240/3 341/263/3
f 341/263/3 318/240/3 342/264/3
f 342/264/3 318/240/3 343/265/3
f 343/265/3 318/240/3 344/266/3
f 344/266/3 318/240/3 345/267/3
f 306/227/3 292/228/2 346/268/3
f 346/268/3 292/228/2 347/269/3
f 347/269/3 292/228/2 348/270/3
f 348/270/3 292/228/2 349/271/3
f 349/271/3 292/228/2 350/272/3
f 350/272/3 292/228/2 351/273/3
f 351/273/3 292/228/2 352/274/3
f 351/273/3 352/274/3 353/275/3
f 351/273/3 353/275/3 354/276/3
f 351/273/3 354/276/3 355/277/3
f 351/273/3 355/277/3 356/278/3
f 356/278/3 355/277/3 357/279/3
f 356/278/3 357/279/3 358/280/3
f 352/274/3 292/228/2 359/281/3
f 359/281/3 292/228/2 360/282/3
f 360/282/3 292/228/2 361/283/3
f 361/283/3 292/228/2 362/284/3
f 362/284/3 292/228/2 363/285/3
f 363/285/3 292/228/2 364/286/3
f 364/286/3 292/228/2 365/287/3
f 300/221/8 366/288/3 367/289/8
f 366/288/3 300/221/8 368/290/3
f 368/290/3 300/221/8 369/291/3
f 369/291/3 300/221/8 370/292/3
f 370/292/3 300/221/8 371/293/3
f 371/293/3 300/221/8 372/294/3
f 372/294/3 300/221/8 373/295/3
f 373/295/3 300/221/8 374/296/3
f 374/296/3 300/221/8 307/229/3
f 373/295/3 374/296/3 375/297/3
f 373/295/3 375/297/3 376/298/3
f 373/295/3 376/298/3 377/299/3
f 373/295/3 377/299/3 378/300/3
f 373/295/3 378/300/3 379/301/3
f 373/295/3 379/301/3 380/302/3
f 373/295/3 380/302/3 381/303/3
f 373/295/3 381/303/3 382/304/3
f 373/295/3 382/304/3 383/305/3
f 373/295/3 383/305/3 384/306/3
f 373/295/3 384/306/3 317/239/3
f 373/295/3 317/239/3 321/243/3
f 369/291/3 370/292/3 385/307/3
f 369/291/3 385/307/3 386/308/3
f 369/291/3 386/308/3 387/309/3
f 369/291/3 387/309/3 388/310/3
f 369/291/3 388/310/3 389/311/3
f 369/291/3 389/311/3 390/312/3
f 369/291/3 390/312/3 391/313/3
f 369/291/3 391/313/3 333/255/3
f 369/291/3 333/255/3 392/314/3
f 392/314/3 333/255/3 393/315/3
f 393/315/3 333/255/3 394/316/3
f 394/316/3 333/255/3 395/317/3
f 395/317/3 333/255/3 320/242/3
f 394/316/3 395/317/3 396/318/3
f 394/316/3 396/318/3 397/319/3
f 394/316/3 397/319/3 398/320/3
f 394/316/3 398/320/3 399/321/3
f 394/316/3 399/321/3 400/322/3
f 394/316/3 400/322/3 401/323/3
f 394/316/3 401/323/3 402/324/3
f 394/316/3 402/324/3 403/325/3
f 394/316/3 403/325/3 404/326/3
f 394/316/3 404/326/3 405/327/3
f 394/316/3 405/327/3 344/266/3
f 394/316/3 344/266/3 406/328/3
f 406/328/3 344/266/3 345/267/3
f 367/289/8 366/288/3 407/329/3
f 367/289/8 407/329/3 408/330/3
f 367/289/8 408/330/3 409/331/3
f 367/289/8 409/331/3 410/332/3
f 367/289/8 410/332/3 411/333/3
f 367/289/8 411/333/3 356/278/3
f 367/289/8 356/278/3 412/334/3
f 412/334/3 356/278/3 413/335/3
f 413/335/3 356/278/3 414/336/3
f 414/336/3 356/278/3 415/337/3
f 415/337/3 356/278/3 416/338/3
f 416/338/3 356/278/3 358/280/3
f 367/289/8 412/334/3 417/339/3
f 367/289/8 417/339/3 418/340/3
f 367/289/8 418/340/3 419/341/3
f 367/289/8 419/341/3 420/342/3
f 367/289/8 420/342/3 421/343/3
f 367/289/8 421/343/3 422/344/3
f 367/289/8 422/344/3 365/287/3
f 367/289/8 365/287/3 292/228/2
f 423/345/3 406/328/3 345/267/3
f 406/328/3 423/345/3 424/346/3
f 424/346/3 423/345/3 425/347/3
f 424/346/3 425/347/3 426/348/3
f 426/348/3 425/347/3 427/349/3
f 426/348/3 427/349/3 428/350/3
f 428/350/3 427/349/3 429/351/3
f 428/350/3 429/351/3 430/352/3
f 430/352/3 429/351/3 431/353/3
f 430/352/3 431/353/3 432/354/3
f 432/354/3 431/353/3 433/355/3
f 432/354/3 433/355/3 434/356/3
f 434/356/3 433/355/3 435/357/3
f 434/356/3 435/357/3 436/358/3
f 436/358/3 435/357/3 437/359/3
f 436/358/3 437/359/3 438/360/3
f 438/360/3 437/359/3 439/361/3
f 438/360/3 439/361/3 440/362/3
f 440/362/3 439/361/3 441/363/3
f 440/362/3 441/363/3 442/364/3
f 442/364/3 441/363/3 443/365/3
f 442/364/3 443/365/3 444/366/3
f 444/366/3 443/365/3 351/273/3
f 444/366/3 351/273/3 356/278/3
f 367/367/8 296/368/9 300/369/8
f 296/368/9 367/367/8 295/370/9
