# SSTK version 0.8.0
# 4
mtllib original-4.mtl
o #ID18
v -0.289366 0.871426 0.413224
v -0.285945 0.809953 0.414641
v -0.289366 0.809953 0.413224
v -0.285945 0.871426 0.414641
v -0.285945 0.871426 0.414641
v -0.289366 0.871426 0.413224
v -0.285945 0.809953 0.414641
v -0.289366 0.809953 0.413224
v -0.292305 0.871426 0.410969
v -0.292305 0.809953 0.410969
v -0.292305 0.871426 0.410969
v -0.292305 0.809953 0.410969
v -0.295977 0.871426 0.404609
v -0.296923 0.871426 0.278979
v -0.296923 0.871426 0.397421
v -0.392549 0.871426 0.260813
v -0.391712 0.871426 -0.307214
v -0.392549 0.871426 -0.300443
v -0.391602 0.871426 0.268001
v -0.390452 0.871426 -0.310473
v -0.390185 0.871426 0.271423
v -0.388436 0.871426 -0.313327
v -0.387930 0.871426 0.274361
v -0.385786 0.871426 -0.315605
v -0.384992 0.871426 0.276616
v -0.379684 0.871426 -0.318658
v -0.381570 0.871426 0.278033
v -0.374382 0.871426 0.278979
v -0.376764 0.871426 -0.319694
v -0.325657 0.871426 -0.335253
v -0.273896 0.871426 -0.348472
v -0.294559 0.871426 0.408031
v -0.292305 0.871426 0.410969
v -0.289366 0.871426 0.413224
v -0.285945 0.871426 0.414641
v -0.278756 0.871426 0.415588
v 0.260643 0.871426 0.415588
v -0.221588 0.871426 -0.359326
v -0.168841 0.871426 -0.367791
v -0.115763 0.871426 -0.373849
v -0.062465 0.871426 -0.377490
v -0.009057 0.871426 -0.378704
v 0.044352 0.871426 -0.377490
v 0.097650 0.871426 -0.373849
v 0.150727 0.871426 -0.367791
v 0.203475 0.871426 -0.359326
v 0.255783 0.871426 -0.348472
v 0.307544 0.871426 -0.335253
v 0.267831 0.871426 0.414641
v 0.271253 0.871426 0.413224
v 0.278810 0.871426 0.278979
v 0.274191 0.871426 0.410969
v 0.276446 0.871426 0.408031
v 0.277863 0.871426 0.404609
v 0.278810 0.871426 0.397421
v 0.356268 0.871426 0.278979
v 0.358650 0.871426 -0.319694
v 0.363457 0.871426 0.278033
v 0.361571 0.871426 -0.318658
v 0.367672 0.871426 -0.315605
v 0.366879 0.871426 0.276616
v 0.369817 0.871426 0.274361
v 0.370322 0.871426 -0.313327
v 0.372071 0.871426 0.271423
v 0.372338 0.871426 -0.310473
v 0.373489 0.871426 0.268001
v 0.373598 0.871426 -0.307214
v 0.374435 0.871426 0.260813
v 0.374435 0.871426 -0.300443
v 0.374435 0.871426 -0.300443
v 0.374435 0.871426 0.260813
v 0.373598 0.871426 -0.307214
v 0.373489 0.871426 0.268001
v 0.372338 0.871426 -0.310473
v 0.372071 0.871426 0.271423
v 0.370322 0.871426 -0.313327
v 0.369817 0.871426 0.274361
v 0.367672 0.871426 -0.315605
v 0.366879 0.871426 0.276616
v 0.363457 0.871426 0.278033
v 0.361571 0.871426 -0.318658
v 0.358650 0.871426 -0.319694
v 0.356268 0.871426 0.278979
v 0.307544 0.871426 -0.335253
v 0.278810 0.871426 0.278979
v 0.278810 0.871426 0.397421
v 0.277863 0.871426 0.404609
v 0.276446 0.871426 0.408031
v 0.274191 0.871426 0.410969
v 0.271253 0.871426 0.413224
v 0.267831 0.871426 0.414641
v 0.260643 0.871426 0.415588
v 0.255783 0.871426 -0.348472
v 0.203475 0.871426 -0.359326
v 0.150727 0.871426 -0.367791
v 0.097650 0.871426 -0.373849
v 0.044352 0.871426 -0.377490
v -0.009057 0.871426 -0.378704
v -0.062465 0.871426 -0.377490
v -0.115763 0.871426 -0.373849
v -0.168841 0.871426 -0.367791
v -0.221588 0.871426 -0.359326
v -0.273896 0.871426 -0.348472
v -0.278756 0.871426 0.415588
v -0.285945 0.871426 0.414641
v -0.289366 0.871426 0.413224
v -0.292305 0.871426 0.410969
v -0.294559 0.871426 0.408031
v -0.295977 0.871426 0.404609
v -0.296923 0.871426 0.278979
v -0.325657 0.871426 -0.335253
v -0.374382 0.871426 0.278979
v -0.376764 0.871426 -0.319694
v -0.379684 0.871426 -0.318658
v -0.381570 0.871426 0.278033
v -0.384992 0.871426 0.276616
v -0.385786 0.871426 -0.315605
v -0.387930 0.871426 0.274361
v -0.388436 0.871426 -0.313327
v -0.390185 0.871426 0.271423
v -0.390452 0.871426 -0.310473
v -0.391602 0.871426 0.268001
v -0.391712 0.871426 -0.307214
v -0.392549 0.871426 0.260813
v -0.392549 0.871426 -0.300443
v -0.296923 0.871426 0.397421
v -0.278756 0.809953 0.415588
v -0.278756 0.871426 0.415588
v -0.278756 0.871426 0.415588
v -0.278756 0.809953 0.415588
v -0.294559 0.809953 0.408031
v -0.294559 0.871426 0.408031
v -0.294559 0.871426 0.408031
v -0.294559 0.809953 0.408031
v 0.374435 0.871426 -0.300443
v 0.374435 0.809953 0.260813
v 0.374435 0.871426 0.260813
v 0.374435 0.809953 -0.300443
v 0.374435 0.809953 -0.300443
v 0.374435 0.871426 -0.300443
v 0.374435 0.809953 0.260813
v 0.374435 0.871426 0.260813
v 0.373598 0.871426 -0.307214
v 0.373598 0.809953 -0.307214
v 0.373598 0.809953 -0.307214
v 0.373598 0.871426 -0.307214
v 0.372338 0.871426 -0.310473
v 0.372338 0.809953 -0.310473
v 0.372338 0.809953 -0.310473
v 0.372338 0.871426 -0.310473
v 0.370322 0.871426 -0.313327
v 0.370322 0.809953 -0.313327
v 0.370322 0.809953 -0.313327
v 0.370322 0.871426 -0.313327
v 0.367672 0.809953 -0.315605
v 0.367672 0.871426 -0.315605
v 0.367672 0.871426 -0.315605
v 0.367672 0.809953 -0.315605
v 0.361571 0.809953 -0.318658
v 0.361571 0.871426 -0.318658
v 0.361571 0.871426 -0.318658
v 0.361571 0.809953 -0.318658
v 0.358650 0.809953 -0.319694
v 0.358650 0.871426 -0.319694
v 0.358650 0.871426 -0.319694
v 0.358650 0.809953 -0.319694
v 0.307544 0.809953 -0.335253
v 0.307544 0.871426 -0.335253
v 0.307544 0.871426 -0.335253
v 0.307544 0.809953 -0.335253
v 0.255783 0.809953 -0.348472
v 0.255783 0.871426 -0.348472
v 0.255783 0.871426 -0.348472
v 0.255783 0.809953 -0.348472
v 0.203475 0.809953 -0.359326
v 0.203475 0.871426 -0.359326
v 0.203475 0.871426 -0.359326
v 0.203475 0.809953 -0.359326
v 0.150727 0.809953 -0.367791
v 0.150727 0.871426 -0.367791
v 0.150727 0.871426 -0.367791
v 0.150727 0.809953 -0.367791
v 0.097650 0.809953 -0.373849
v 0.097650 0.871426 -0.373849
v 0.097650 0.871426 -0.373849
v 0.097650 0.809953 -0.373849
v 0.044352 0.809953 -0.377490
v 0.044352 0.871426 -0.377490
v 0.044352 0.871426 -0.377490
v 0.044352 0.809953 -0.377490
v -0.009057 0.809953 -0.378704
v -0.009057 0.871426 -0.378704
v -0.009057 0.871426 -0.378704
v -0.009057 0.809953 -0.378704
v -0.062465 0.809953 -0.377490
v -0.062465 0.871426 -0.377490
v -0.062465 0.871426 -0.377490
v -0.062465 0.809953 -0.377490
v -0.115763 0.809953 -0.373849
v -0.115763 0.871426 -0.373849
v -0.115763 0.871426 -0.373849
v -0.115763 0.809953 -0.373849
v -0.168841 0.809953 -0.367791
v -0.168841 0.871426 -0.367791
v -0.168841 0.871426 -0.367791
v -0.168841 0.809953 -0.367791
v -0.221588 0.809953 -0.359326
v -0.221588 0.871426 -0.359326
v -0.221588 0.871426 -0.359326
v -0.221588 0.809953 -0.359326
v -0.273896 0.809953 -0.348472
v -0.273896 0.871426 -0.348472
v -0.273896 0.871426 -0.348472
v -0.273896 0.809953 -0.348472
v -0.325657 0.809953 -0.335253
v -0.325657 0.871426 -0.335253
v -0.325657 0.871426 -0.335253
v -0.325657 0.809953 -0.335253
v -0.376764 0.809953 -0.319694
v -0.376764 0.871426 -0.319694
v -0.376764 0.871426 -0.319694
v -0.376764 0.809953 -0.319694
v -0.379684 0.809953 -0.318658
v -0.379684 0.871426 -0.318658
v -0.379684 0.871426 -0.318658
v -0.379684 0.809953 -0.318658
v -0.385786 0.809953 -0.315605
v -0.385786 0.871426 -0.315605
v -0.385786 0.871426 -0.315605
v -0.385786 0.809953 -0.315605
v -0.388436 0.809953 -0.313327
v -0.388436 0.871426 -0.313327
v -0.388436 0.871426 -0.313327
v -0.388436 0.809953 -0.313327
v -0.390452 0.871426 -0.310473
v -0.390452 0.809953 -0.310473
v -0.390452 0.871426 -0.310473
v -0.390452 0.809953 -0.310473
v -0.391712 0.871426 -0.307214
v -0.391712 0.809953 -0.307214
v -0.391712 0.871426 -0.307214
v -0.391712 0.809953 -0.307214
v -0.392549 0.871426 -0.300443
v -0.392549 0.809953 -0.300443
v -0.392549 0.871426 -0.300443
v -0.392549 0.809953 -0.300443
v -0.392549 0.809953 -0.019709
v -0.392549 0.871426 0.260813
v -0.392549 0.809953 0.260813
v -0.392549 0.809953 -0.019709
v -0.392549 0.871426 0.260813
v -0.392549 0.809953 0.260813
v -0.391602 0.871426 0.268001
v -0.391602 0.809953 0.268001
v -0.391602 0.871426 0.268001
v -0.391602 0.809953 0.268001
v -0.390185 0.871426 0.271423
v -0.390185 0.809953 0.271423
v -0.390185 0.871426 0.271423
v -0.390185 0.809953 0.271423
v -0.387930 0.871426 0.274361
v -0.387930 0.809953 0.274361
v -0.387930 0.871426 0.274361
v -0.387930 0.809953 0.274361
v -0.384992 0.809953 0.276616
v -0.384992 0.871426 0.276616
v -0.384992 0.871426 0.276616
v -0.384992 0.809953 0.276616
v -0.381570 0.809953 0.278033
v -0.381570 0.871426 0.278033
v -0.381570 0.871426 0.278033
v -0.381570 0.809953 0.278033
v -0.374382 0.809953 0.278979
v -0.374382 0.871426 0.278979
v -0.374382 0.871426 0.278979
v -0.374382 0.809953 0.278979
v -0.296923 0.809953 0.278979
v -0.296923 0.871426 0.278979
v -0.296923 0.871426 0.278979
v -0.296923 0.809953 0.278979
v -0.296923 0.809953 0.278979
v -0.296923 0.871426 0.397421
v -0.296923 0.809953 0.397421
v -0.296923 0.871426 0.278979
v -0.296923 0.871426 0.278979
v -0.296923 0.809953 0.278979
v -0.296923 0.871426 0.397421
v -0.296923 0.809953 0.397421
v -0.295977 0.871426 0.404609
v -0.295977 0.809953 0.404609
v -0.295977 0.871426 0.404609
v -0.295977 0.809953 0.404609
v 0.260643 0.809953 0.415588
v 0.260643 0.871426 0.415588
v 0.260643 0.871426 0.415588
v 0.260643 0.809953 0.415588
v 0.267831 0.809953 0.414641
v 0.267831 0.871426 0.414641
v 0.267831 0.871426 0.414641
v 0.267831 0.809953 0.414641
v 0.271253 0.809953 0.413224
v 0.271253 0.871426 0.413224
v 0.271253 0.871426 0.413224
v 0.271253 0.809953 0.413224
v 0.274191 0.809953 0.410969
v 0.274191 0.871426 0.410969
v 0.274191 0.871426 0.410969
v 0.274191 0.809953 0.410969
v 0.276446 0.871426 0.408031
v 0.276446 0.809953 0.408031
v 0.276446 0.809953 0.408031
v 0.276446 0.871426 0.408031
v 0.277863 0.871426 0.404609
v 0.277863 0.809953 0.404609
v 0.277863 0.809953 0.404609
v 0.277863 0.871426 0.404609
v 0.278810 0.871426 0.397421
v 0.278810 0.809953 0.397421
v 0.278810 0.809953 0.397421
v 0.278810 0.871426 0.397421
v 0.278810 0.871426 0.278979
v 0.278810 0.809953 0.278979
v 0.278810 0.809953 0.278979
v 0.278810 0.871426 0.278979
v 0.278810 0.871426 0.278979
v 0.356268 0.809953 0.278979
v 0.278810 0.809953 0.278979
v 0.356268 0.871426 0.278979
v 0.356268 0.871426 0.278979
v 0.278810 0.871426 0.278979
v 0.356268 0.809953 0.278979
v 0.278810 0.809953 0.278979
v 0.363457 0.809953 0.278033
v 0.363457 0.871426 0.278033
v 0.363457 0.871426 0.278033
v 0.363457 0.809953 0.278033
v 0.366879 0.809953 0.276616
v 0.366879 0.871426 0.276616
v 0.366879 0.871426 0.276616
v 0.366879 0.809953 0.276616
v 0.369817 0.809953 0.274361
v 0.369817 0.871426 0.274361
v 0.369817 0.871426 0.274361
v 0.369817 0.809953 0.274361
v 0.372071 0.871426 0.271423
v 0.372071 0.809953 0.271423
v 0.372071 0.809953 0.271423
v 0.372071 0.871426 0.271423
v 0.373489 0.871426 0.268001
v 0.373489 0.809953 0.268001
v 0.373489 0.809953 0.268001
v 0.373489 0.871426 0.268001
vn 0.5000000016387101 0 -0.866025402838329
vn 0.25881900959356163 0 -0.9659258358036645
vn -0.25881900959356163 0 0.9659258358036645
vn -0.5000000016387101 0 0.866025402838329
vn 0.7071067811865476 0 -0.7071067811865476
vn -0.7071067811865476 0 0.7071067811865476
vn 0 1 0
vn 0 -1 0
vn 0.06540313151333016 0 -0.9978589230889555
vn -0.06540313151333016 0 0.9978589230889555
vn 0.866025402838329 0 -0.5000000016387101
vn -0.866025402838329 0 0.5000000016387101
vn -0.9981100329758331 0 0.06145211203027173
vn -0.9978589230889555 0 -0.06540313151333016
vn 0.9981100329758331 0 -0.06145211203027173
vn 0.9978589230889555 0 0.06540313151333016
vn -0.9699031826615018 0 0.243490895647229
vn 0.9699031826615018 0 -0.243490895647229
vn -0.881424411896863 0 0.47232510637512076
vn 0.881424411896863 0 -0.47232510637512076
vn -0.7398894604445857 0 0.6727284640350963
vn 0.7398894604445857 0 -0.6727284640350963
vn -0.5538179076567403 0 0.83263781151153
vn 0.5538179076567403 0 -0.83263781151153
vn -0.3916922037573995 0 0.92009630882624
vn 0.3916922037573995 0 -0.92009630882624
vn -0.31290230540673597 0 0.9497853164116351
vn 0.31290230540673597 0 -0.9497853164116351
vn -0.2694128897486444 0 0.9630247633562102
vn 0.2694128897486444 0 -0.9630247633562102
vn -0.22536679756398323 0 0.9742739894689555
vn 0.22536679756398323 0 -0.9742739894689555
vn -0.1808548013221318 0 0.9835098071899091
vn 0.1808548013221318 0 -0.9835098071899091
vn -0.13596919525057913 0 0.9907130653942694
vn 0.13596919525057913 0 -0.9907130653942694
vn -0.09080254148654379 0 0.9958689163035388
vn 0.09080254148654379 0 -0.9958689163035388
vn -0.04544822978823345 0 0.9989666953453032
vn 0.04544822978823345 0 -0.9989666953453032
vn 0 0 1
vn 0 0 -1
vn 0.04544822978823345 0 0.9989666953453032
vn -0.04544822978823345 0 -0.9989666953453032
vn 0.09080254148654379 0 0.9958689163035388
vn -0.09080254148654379 0 -0.9958689163035388
vn 0.13596919525057913 0 0.9907130653942694
vn -0.13596919525057913 0 -0.9907130653942694
vn 0.1808548013221318 0 0.9835098071899091
vn -0.1808548013221318 0 -0.9835098071899091
vn 0.22536679756398323 0 0.9742739894689555
vn -0.22536679756398323 0 -0.9742739894689555
vn 0.2694128897486444 0 0.9630247633562102
vn -0.2694128897486444 0 -0.9630247633562102
vn 0.31290230540673597 0 0.9497853164116351
vn -0.31290230540673597 0 -0.9497853164116351
vn 0.3916922037573995 0 0.92009630882624
vn -0.3916922037573995 0 -0.92009630882624
vn 0.5538179076567403 0 0.83263781151153
vn -0.5538179076567403 0 -0.83263781151153
vn 0.7398894604445857 0 0.6727284640350963
vn -0.7398894604445857 0 -0.6727284640350963
vn 0.881424411896863 0 0.47232510637512076
vn -0.881424411896863 0 -0.47232510637512076
vn 0.9699031826615018 0 0.243490895647229
vn -0.9699031826615018 0 -0.243490895647229
vn 0.9981100329758331 0 0.06145211203027173
vn -0.9981100329758331 0 -0.06145211203027173
vn 1 0 0
vn 0.9978589230889555 0 -0.06540313151333016
vn -1 0 0
vn -0.9978589230889555 0 0.06540313151333016
vn 0.9659258358036645 0 -0.25881900959356163
vn -0.9659258358036645 0 0.25881900959356163
vn -0.06540313151333016 0 -0.9978589230889555
vn 0.06540313151333016 0 0.9978589230889555
vn -0.25881900959356163 0 -0.9659258358036645
vn 0.25881900959356163 0 0.9659258358036645
vn -0.5000000016387101 0 -0.866025402838329
vn 0.5000000016387101 0 0.866025402838329
vn -0.7071067811865476 0 -0.7071067811865476
vn 0.7071067811865476 0 0.7071067811865476
vn -0.866025402838329 0 -0.5000000016387101
vn 0.866025402838329 0 0.5000000016387101
vn -0.9659258358036645 0 -0.25881900959356163
vn 0.9659258358036645 0 0.25881900959356163
usemtl material_0_0
f 1//1 2//2 3//1
f 2//2 1//1 4//2
f 5//3 6//4 7//3
f 8//4 7//3 6//4
f 9//5 3//1 10//5
f 3//1 9//5 1//1
f 6//4 11//6 8//4
f 12//6 8//4 11//6
f 13//7 14//7 15//7
f 16//7 17//7 18//7
f 17//7 16//7 19//7
f 17//7 19//7 20//7
f 20//7 19//7 21//7
f 20//7 21//7 22//7
f 22//7 21//7 23//7
f 22//7 23//7 24//7
f 24//7 23//7 25//7
f 24//7 25//7 26//7
f 26//7 25//7 27//7
f 26//7 27//7 28//7
f 26//7 28//7 29//7
f 29//7 28//7 30//7
f 30//7 28//7 14//7
f 30//7 14//7 31//7
f 31//7 14//7 13//7
f 31//7 13//7 32//7
f 31//7 32//7 33//7
f 31//7 33//7 34//7
f 31//7 34//7 35//7
f 31//7 35//7 36//7
f 31//7 36//7 37//7
f 31//7 37//7 38//7
f 38//7 37//7 39//7
f 39//7 37//7 40//7
f 40//7 37//7 41//7
f 41//7 37//7 42//7
f 42//7 37//7 43//7
f 43//7 37//7 44//7
f 44//7 37//7 45//7
f 45//7 37//7 46//7
f 46//7 37//7 47//7
f 47//7 37//7 48//7
f 48//7 37//7 49//7
f 48//7 49//7 50//7
f 48//7 50//7 51//7
f 51//7 50//7 52//7
f 51//7 52//7 53//7
f 51//7 53//7 54//7
f 51//7 54//7 55//7
f 48//7 51//7 56//7
f 48//7 56//7 57//7
f 57//7 56//7 58//7
f 57//7 58//7 59//7
f 59//7 58//7 60//7
f 60//7 58//7 61//7
f 60//7 61//7 62//7
f 60//7 62//7 63//7
f 63//7 62//7 64//7
f 63//7 64//7 65//7
f 65//7 64//7 66//7
f 65//7 66//7 67//7
f 67//7 66//7 68//7
f 67//7 68//7 69//7
f 70//8 71//8 72//8
f 71//8 73//8 72//8
f 72//8 73//8 74//8
f 73//8 75//8 74//8
f 74//8 75//8 76//8
f 75//8 77//8 76//8
f 76//8 77//8 78//8
f 77//8 79//8 78//8
f 79//8 80//8 78//8
f 78//8 80//8 81//8
f 81//8 80//8 82//8
f 80//8 83//8 82//8
f 82//8 83//8 84//8
f 83//8 85//8 84//8
f 86//8 87//8 85//8
f 87//8 88//8 85//8
f 88//8 89//8 85//8
f 89//8 90//8 85//8
f 85//8 90//8 84//8
f 90//8 91//8 84//8
f 91//8 92//8 84//8
f 84//8 92//8 93//8
f 93//8 92//8 94//8
f 94//8 92//8 95//8
f 95//8 92//8 96//8
f 96//8 92//8 97//8
f 97//8 92//8 98//8
f 98//8 92//8 99//8
f 99//8 92//8 100//8
f 100//8 92//8 101//8
f 101//8 92//8 102//8
f 102//8 92//8 103//8
f 92//8 104//8 103//8
f 104//8 105//8 103//8
f 105//8 106//8 103//8
f 106//8 107//8 103//8
f 107//8 108//8 103//8
f 108//8 109//8 103//8
f 109//8 110//8 103//8
f 103//8 110//8 111//8
f 110//8 112//8 111//8
f 111//8 112//8 113//8
f 113//8 112//8 114//8
f 112//8 115//8 114//8
f 115//8 116//8 114//8
f 114//8 116//8 117//8
f 116//8 118//8 117//8
f 117//8 118//8 119//8
f 118//8 120//8 119//8
f 119//8 120//8 121//8
f 120//8 122//8 121//8
f 121//8 122//8 123//8
f 122//8 124//8 123//8
f 125//8 123//8 124//8
f 126//8 110//8 109//8
f 4//2 127//9 2//2
f 127//9 4//2 128//9
f 129//10 5//3 130//10
f 7//3 130//10 5//3
f 131//11 9//5 10//5
f 9//5 131//11 132//11
f 133//12 134//12 11//6
f 12//6 11//6 134//12
f 135//13 136//14 137//14
f 136//14 135//13 138//13
f 139//15 140//15 141//16
f 142//16 141//16 140//15
f 143//17 138//13 135//13
f 138//13 143//17 144//17
f 145//18 146//18 139//15
f 140//15 139//15 146//18
f 147//19 144//17 143//17
f 144//17 147//19 148//19
f 149//20 150//20 145//18
f 146//18 145//18 150//20
f 151//21 148//19 147//19
f 148//19 151//21 152//21
f 153//22 154//22 149//20
f 150//20 149//20 154//22
f 151//21 155//23 152//21
f 155//23 151//21 156//23
f 157//24 154//22 158//24
f 153//22 158//24 154//22
f 156//23 159//25 155//23
f 159//25 156//23 160//25
f 161//26 157//24 162//26
f 158//24 162//26 157//24
f 160//25 163//27 159//25
f 163//27 160//25 164//27
f 165//28 161//26 166//28
f 162//26 166//28 161//26
f 164//27 167//29 163//27
f 167//29 164//27 168//29
f 169//30 165//28 170//30
f 166//28 170//30 165//28
f 168//29 171//31 167//29
f 171//31 168//29 172//31
f 173//32 169//30 174//32
f 170//30 174//32 169//30
f 172//31 175//33 171//31
f 175//33 172//31 176//33
f 177//34 173//32 178//34
f 174//32 178//34 173//32
f 176//33 179//35 175//33
f 179//35 176//33 180//35
f 181//36 177//34 182//36
f 178//34 182//36 177//34
f 180//35 183//37 179//35
f 183//37 180//35 184//37
f 185//38 181//36 186//38
f 182//36 186//38 181//36
f 184//37 187//39 183//37
f 187//39 184//37 188//39
f 189//40 185//38 190//40
f 186//38 190//40 185//38
f 188//39 191//41 187//39
f 191//41 188//39 192//41
f 193//42 189//40 194//42
f 190//40 194//42 189//40
f 192//41 195//43 191//41
f 195//43 192//41 196//43
f 197//44 193//42 198//44
f 194//42 198//44 193//42
f 196//43 199//45 195//43
f 199//45 196//43 200//45
f 201//46 197//44 202//46
f 198//44 202//46 197//44
f 200//45 203//47 199//45
f 203//47 200//45 204//47
f 205//48 201//46 206//48
f 202//46 206//48 201//46
f 204//47 207//49 203//47
f 207//49 204//47 208//49
f 209//50 205//48 210//50
f 206//48 210//50 205//48
f 208//49 211//51 207//49
f 211//51 208//49 212//51
f 213//52 209//50 214//52
f 210//50 214//52 209//50
f 212//51 215//53 211//51
f 215//53 212//51 216//53
f 217//54 213//52 218//54
f 214//52 218//54 213//52
f 216//53 219//55 215//53
f 219//55 216//53 220//55
f 221//56 217//54 222//56
f 218//54 222//56 217//54
f 220//55 223//57 219//55
f 223//57 220//55 224//57
f 225//58 221//56 226//58
f 222//56 226//58 221//56
f 224//57 227//59 223//57
f 227//59 224//57 228//59
f 229//60 225//58 230//60
f 226//58 230//60 225//58
f 228//59 231//61 227//59
f 231//61 228//59 232//61
f 233//62 229//60 234//62
f 230//60 234//62 229//60
f 231//61 235//63 236//63
f 235//63 231//61 232//61
f 233//62 234//62 237//64
f 238//64 237//64 234//62
f 236//63 239//65 240//65
f 239//65 236//63 235//63
f 237//64 238//64 241//66
f 242//66 241//66 238//64
f 240//65 243//67 244//67
f 243//67 240//65 239//65
f 241//66 242//66 245//68
f 246//68 245//68 242//66
f 247//69 248//70 249//70
f 248//70 247//69 243//67
f 243//67 247//69 244//67
f 246//68 250//71 245//68
f 245//68 250//71 251//72
f 252//72 251//72 250//71
f 249//70 253//73 254//73
f 253//73 249//70 248//70
f 251//72 252//72 255//74
f 256//74 255//74 252//72
f 254//73 257//11 258//11
f 257//11 254//73 253//73
f 255//74 256//74 259//12
f 260//12 259//12 256//74
f 258//11 261//5 262//5
f 261//5 258//11 257//11
f 259//12 260//12 263//6
f 264//6 263//6 260//12
f 261//5 265//1 262//5
f 265//1 261//5 266//1
f 267//4 263//6 268//4
f 264//6 268//4 263//6
f 266//1 269//2 265//1
f 269//2 266//1 270//2
f 271//3 267//4 272//3
f 268//4 272//3 267//4
f 270//2 273//9 269//2
f 273//9 270//2 274//9
f 275//10 271//3 276//10
f 272//3 276//10 271//3
f 274//9 277//42 273//9
f 277//42 274//9 278//42
f 279//41 275//10 280//41
f 276//10 280//41 275//10
f 281//69 282//70 283//70
f 282//70 281//69 284//69
f 285//71 286//71 287//72
f 288//72 287//72 286//71
f 283//70 289//73 290//73
f 289//73 283//70 282//70
f 287//72 288//72 291//74
f 292//74 291//74 288//72
f 290//73 132//11 131//11
f 132//11 290//73 289//73
f 291//74 292//74 133//12
f 134//12 133//12 292//74
f 128//9 293//75 127//9
f 293//75 128//9 294//75
f 295//76 129//10 296//76
f 130//10 296//76 129//10
f 294//75 297//77 293//75
f 297//77 294//75 298//77
f 299//78 295//76 300//78
f 296//76 300//78 295//76
f 298//77 301//79 297//77
f 301//79 298//77 302//79
f 303//80 299//78 304//80
f 300//78 304//80 299//78
f 302//79 305//81 301//79
f 305//81 302//79 306//81
f 307//82 303//80 308//82
f 304//80 308//82 303//80
f 309//83 305//81 306//81
f 305//81 309//83 310//83
f 311//84 312//84 308//82
f 307//82 308//82 312//84
f 313//85 310//83 309//83
f 310//83 313//85 314//85
f 315//86 316//86 311//84
f 312//84 311//84 316//86
f 317//14 314//85 313//85
f 314//85 317//14 318//14
f 319//16 320//16 315//86
f 316//86 315//86 320//16
f 321//71 318//14 317//14
f 318//14 321//71 322//71
f 323//69 324//69 319//16
f 320//16 319//16 324//69
f 325//42 326//75 327//42
f 326//75 325//42 328//75
f 329//76 330//41 331//76
f 332//41 331//76 330//41
f 328//75 333//77 326//75
f 333//77 328//75 334//77
f 335//78 329//76 336//78
f 331//76 336//78 329//76
f 334//77 337//79 333//77
f 337//79 334//77 338//79
f 339//80 335//78 340//80
f 336//78 340//80 335//78
f 338//79 341//81 337//79
f 341//81 338//79 342//81
f 343//82 339//80 344//82
f 340//80 344//82 339//80
f 345//83 341//81 342//81
f 341//81 345//83 346//83
f 347//84 348//84 344//82
f 343//82 344//82 348//84
f 349//85 346//83 345//83
f 346//83 349//85 350//85
f 351//86 352//86 347//84
f 348//84 347//84 352//86
f 137//14 350//85 349//85
f 350//85 137//14 136//14
f 141//16 142//16 351//86
f 352//86 351//86 142//16
