# SSTK version 0.8.0
# 52
mtllib original-52.mtl
o #ID296
v -0.127919 0.379350 0.510224
v -0.125872 0.374408 0.517054
v -0.127919 0.379350 0.517054
v -0.125872 0.374408 0.510224
v -0.122573 0.375292 0.469241
v -0.125872 0.374408 0.510224
v -0.125872 0.374408 0.469241
v -0.125872 0.374408 0.517054
v -0.119274 0.376176 0.517054
v -0.119274 0.376176 0.469241
v -0.119274 0.376176 0.517054
v -0.127919 0.379350 0.517054
v -0.125872 0.374408 0.517054
v -0.122004 0.382766 0.517054
v -0.122004 0.382766 0.517054
v -0.127919 0.379350 0.510224
v -0.127919 0.379350 0.517054
v -0.127919 0.379350 0.469241
v -0.124961 0.381058 0.469241
v -0.122004 0.382766 0.469241
v -0.119274 0.376176 0.469241
v -0.122004 0.382766 0.517054
v -0.119274 0.376176 0.517054
v -0.122004 0.382766 0.469241
vn -0.9238795391929066 -0.38268341623423263 0
vn 0.25881900959356163 -0.9659258358036645 0
vn 0 0 1
vn -0.5000000016387101 0.866025402838329 0
vn 0.9238795391929066 0.38268341623423263 0
usemtl material_0_0
f 1//1 2//1 3//1
f 2//1 1//1 4//1
f 5//2 6//2 7//2
f 6//2 5//2 8//2
f 8//2 5//2 9//2
f 9//2 5//2 10//2
f 11//3 12//3 13//3
f 12//3 11//3 14//3
f 15//4 16//4 17//4
f 16//4 15//4 18//4
f 18//4 15//4 19//4
f 19//4 15//4 20//4
f 21//5 22//5 23//5
f 22//5 21//5 24//5
