# SSTK version 0.8.0
# 48
mtllib original-48.mtl
o #ID274
v 0.056515 0.651875 0.469924
v 0.056515 0.635482 0.469924
v 0.089908 0.646884 0.476072
v 0.093399 0.635482 0.476072
v 0.079673 0.657510 0.476072
v 0.093399 0.635482 0.469241
v 0.089908 0.646884 0.476072
v 0.093399 0.635482 0.476072
v 0.089908 0.646884 0.469241
v 0.089908 0.624079 0.476072
v 0.063391 0.666634 0.476072
v 0.089908 0.646884 0.476072
v 0.079673 0.657510 0.469241
v 0.079673 0.657510 0.476072
v 0.089908 0.646884 0.469241
v 0.089908 0.624079 0.476072
v 0.093399 0.635482 0.469241
v 0.093399 0.635482 0.476072
v 0.089908 0.624079 0.469241
v 0.056515 0.619089 0.469924
v 0.042171 0.673636 0.476072
v 0.063391 0.666634 0.469241
v 0.063391 0.666634 0.476072
v 0.079673 0.613454 0.469241
v 0.089908 0.624079 0.476072
v 0.079673 0.613454 0.476072
v 0.089908 0.624079 0.469241
v 0.079673 0.613454 0.476072
v 0.042171 0.673636 0.469241
v 0.042171 0.673636 0.476072
v 0.017461 0.678037 0.476072
v 0.063391 0.604330 0.476072
v 0.063391 0.604330 0.469241
v 0.063391 0.604330 0.476072
v 0.017461 0.678037 0.469241
v 0.017461 0.678037 0.476072
v -0.009057 0.651875 0.469924
v 0.042171 0.597328 0.476072
v 0.042171 0.597328 0.469241
v 0.042171 0.597328 0.476072
v -0.009057 0.679538 0.469241
v -0.009057 0.679538 0.476072
v -0.009057 0.679538 0.476072
v 0.017461 0.592927 0.476072
v 0.017461 0.592927 0.469241
v -0.009057 0.619089 0.469924
v -0.035574 0.678037 0.469241
v -0.035574 0.678037 0.476072
v -0.035574 0.678037 0.476072
v 0.017461 0.592927 0.476072
v -0.009057 0.591426 0.476072
v -0.009057 0.591426 0.469241
v -0.060285 0.673636 0.469241
v -0.060285 0.673636 0.476072
v -0.074629 0.651875 0.469924
v -0.009057 0.591426 0.476072
v -0.035574 0.592927 0.476072
v -0.035574 0.592927 0.469241
v -0.081504 0.666634 0.469241
v -0.081504 0.666634 0.476072
v -0.060285 0.673636 0.476072
v -0.035574 0.592927 0.476072
v -0.060285 0.597328 0.476072
v -0.060285 0.597328 0.469241
v -0.097786 0.657510 0.469241
v -0.097786 0.657510 0.476072
v -0.081504 0.666634 0.476072
v -0.060285 0.597328 0.476072
v -0.081504 0.604330 0.476072
v -0.081504 0.604330 0.469241
v -0.108022 0.646884 0.476072
v -0.108022 0.646884 0.469241
v -0.097786 0.657510 0.476072
v -0.074629 0.619089 0.469924
v -0.081504 0.604330 0.476072
v -0.097786 0.613454 0.476072
v -0.097786 0.613454 0.469241
v -0.108022 0.646884 0.469241
v -0.111513 0.635482 0.476072
v -0.108022 0.646884 0.476072
v -0.111513 0.635482 0.469241
v -0.108022 0.646884 0.476072
v -0.097786 0.613454 0.476072
v -0.108022 0.624079 0.469241
v -0.108022 0.624079 0.476072
v -0.111513 0.635482 0.469241
v -0.108022 0.624079 0.476072
v -0.111513 0.635482 0.476072
v -0.108022 0.624079 0.469241
v -0.111513 0.635482 0.476072
v -0.108022 0.624079 0.476072
v -0.074629 0.635482 0.469924
vn -0.1341642037295442 -0.2028641056392887 0.9699722269636325
vn -0.17761860034224267 0 0.9840994018962023
vn -0.17818650366801814 -0.07903147162688479 0.9808178201904043
vn -0.16439900352157383 0 0.9863939211294409
vn -0.19731660043063068 -0.22899340049976347 0.9532199020803406
vn 0.9561876085029365 0.29275460260333197 0
vn -0.17818650366801814 0.07903147162688434 0.9808178201904043
vn -0.14271550257165772 -0.32316600582328037 0.9355191168575586
vn 0.7202034845773252 0.6937628851435328 0
vn 0.6110918162882462 0.7915597210984983 0
vn 0.9561876085029365 -0.29275460260333197 0
vn -0.12949740192769316 0.20574540306271763 0.9699996144393754
vn -0.06758694916726282 -0.3122442961528457 0.9475945883247096
vn 0.40295470894396274 0.9152199203141759 0
vn 0.6110918162882462 -0.7915597210984983 0
vn 0.7202034845773252 -0.6937628851435328 0
vn -0.19731660043063068 0.22899340049976302 0.9532199020803406
vn 0.2449646056002388 0.969532022164879 0
vn -0.011195880424532375 -0.23639170896364844 0.9715933368414819
vn 0.40295470894396274 -0.9152199203141759 0
vn -0.14271550257165772 0.3231660058232799 0.9355191168575588
vn 0.11614409695850147 0.9932323739899411 0
vn 0 -0.2228913009840007 0.9748433043036506
vn 0.2449646056002388 -0.969532022164879 0
vn -0.0328336988276027 0.2727966902592117 0.961511265667188
vn 0 1 0
vn 0 -0.21693048958336064 0.9761870531251291
vn 0.11614409695850147 -0.9932323739899411 0
vn 0 0.22634970094893694 0.9740461040835422
vn -0.11614409695850147 0.9932323739899411 0
vn 0.011195880424532375 -0.23639170896364844 0.9715933368414819
vn -0.02845732863029945 0.20122569031465853 0.9791314528727061
vn 0 -1 0
vn -0.2449646056002388 0.969532022164879 0
vn 0.13035019760812017 -0.20606569621876786 0.9698173822041954
vn 0 0.2169304895833602 0.9761870531251291
vn -0.11614409695850147 -0.9932323739899411 0
vn -0.40295470894396274 0.9152199203141759 0
vn 0.06758694916726282 -0.3122442961528457 0.9475945883247096
vn 0.02845732863029945 0.20122569031465853 0.9791314528727061
vn -0.2449646056002388 -0.969532022164879 0
vn -0.6110918162882462 0.7915597210984983 0
vn 0.14271550257165772 -0.32316600582328037 0.9355191168575586
vn 0.0328336988276027 0.2727966902592117 0.961511265667188
vn -0.40295470894396274 -0.9152199203141759 0
vn -0.7202034845773252 0.6937628851435328 0
vn 0.19731660043063068 -0.22899340049976347 0.9532199020803406
vn 0.12949740192769316 0.20574540306271763 0.9699996144393754
vn 0.14271550257165772 0.3231660058232799 0.9355191168575588
vn -0.6110918162882462 -0.7915597210984983 0
vn -0.9561876085029365 0.29275460260333197 0
vn 0.19375379738311374 -0.09350289873712717 0.9765841868100148
vn 0.19731660043063068 0.22899340049976302 0.9532199020803406
vn -0.7202034845773252 -0.6937628851435328 0
vn -0.9561876085029365 -0.29275460260333197 0
vn 0.1728761997373585 0.005536905991587858 0.9849279985036519
vn 0.17818650366801814 0.07903147162688434 0.9808178201904043
vn 0.17101029414810018 0.005191184822359636 0.9852555662849718
usemtl material_0_0
f 1//1 2//2 3//3
f 3//3 2//2 4//4
f 5//5 1//1 3//3
f 6//6 7//6 8//6
f 7//6 6//6 9//6
f 4//4 2//2 10//7
f 11//8 1//1 5//5
f 12//9 13//10 14//10
f 13//10 12//9 15//9
f 16//11 17//11 18//11
f 17//11 16//11 19//11
f 2//2 20//12 10//7
f 21//13 1//1 11//8
f 14//10 22//14 23//14
f 22//14 14//10 13//10
f 24//15 25//16 26//15
f 25//16 24//15 27//16
f 10//7 20//12 28//17
f 23//14 29//18 30//18
f 29//18 23//14 22//14
f 31//19 1//1 21//13
f 24//15 32//20 33//20
f 32//20 24//15 26//15
f 20//12 34//21 28//17
f 30//18 35//22 36//22
f 35//22 30//18 29//18
f 31//19 37//23 1//1
f 33//20 38//24 39//24
f 38//24 33//20 32//20
f 20//12 40//25 34//21
f 36//22 41//26 42//26
f 41//26 36//22 35//22
f 43//27 37//23 31//19
f 39//24 44//28 45//28
f 44//28 39//24 38//24
f 46//29 40//25 20//12
f 42//26 47//30 48//30
f 47//30 42//26 41//26
f 43//27 49//31 37//23
f 46//29 50//32 40//25
f 45//28 51//33 52//33
f 51//33 45//28 44//28
f 48//30 53//34 54//34
f 53//34 48//30 47//30
f 49//31 55//35 37//23
f 46//29 56//36 50//32
f 52//33 57//37 58//37
f 57//37 52//33 51//33
f 54//34 59//38 60//38
f 59//38 54//34 53//34
f 49//31 61//39 55//35
f 46//29 62//40 56//36
f 58//37 63//41 64//41
f 63//41 58//37 57//37
f 60//38 65//42 66//42
f 65//42 60//38 59//38
f 61//39 67//43 55//35
f 46//29 68//44 62//40
f 64//41 69//45 70//45
f 69//45 64//41 63//41
f 65//42 71//46 66//42
f 71//46 65//42 72//46
f 67//43 73//47 55//35
f 74//48 68//44 46//29
f 74//48 75//49 68//44
f 70//45 76//50 77//50
f 76//50 70//45 69//45
f 78//51 79//51 80//51
f 79//51 78//51 81//51
f 73//47 82//52 55//35
f 74//48 83//53 75//49
f 84//54 76//50 85//54
f 76//50 84//54 77//50
f 86//55 87//55 88//55
f 87//55 86//55 89//55
f 55//35 82//52 90//56
f 91//57 83//53 74//48
f 90//56 91//57 92//58
f 55//35 90//56 92//58
f 92//58 91//57 74//48
