# SSTK version 0.8.0
# 24
mtllib original-24.mtl
o #ID64
v -0.009052 0.357037 0.472680
v -0.009052 0.357037 0.472680
v -0.009052 0.357039 0.472680
v -0.009051 0.357037 0.472680
v -0.009051 0.357037 0.472680
v -0.009051 0.357039 0.472680
v -0.009052 0.357040 0.472680
v -0.009051 0.357040 0.472680
v -0.009051 0.357037 0.472680
v -0.009051 0.357039 0.472680
v -0.009051 0.357040 0.472680
v -0.009052 0.357039 0.472680
v -0.009052 0.357037 0.472680
v -0.009052 0.357040 0.472680
v -0.009051 0.357037 0.472680
v -0.009052 0.357037 0.472680
vt 0.04361941 0.005695893
vt 0.04501825 0.007094737
vt 0.04501825 0.02862584
vt 0.05750829 0.005695893
vt 0.05610945 0.007094737
vt 0.05610945 0.02862584
vt 0.04361941 0.03002469
vt 0.05750829 0.03002469
vn 0 0 1
vn 0 0 -1
usemtl material_0_0
f 1/1/1 2/2/1 3/3/1
f 2/2/1 1/1/1 4/4/1
f 2/2/1 4/4/1 5/5/1
f 5/5/1 4/4/1 6/6/1
f 7/7/1 3/3/1 8/8/1
f 3/3/1 7/7/1 1/1/1
f 8/8/1 3/3/1 6/6/1
f 8/8/1 6/6/1 4/4/1
f 9/4/2 10/6/2 11/8/2
f 10/6/2 12/3/2 11/8/2
f 13/1/2 14/7/2 12/3/2
f 11/8/2 12/3/2 14/7/2
f 10/6/2 9/4/2 15/5/2
f 15/5/2 9/4/2 16/2/2
f 9/4/2 13/1/2 16/2/2
f 12/3/2 16/2/2 13/1/2
