# SSTK version 0.8.0
# 90
mtllib original-90.mtl
o #ID391
v -0.229598 0.520707 0.478940
v -0.225662 0.520707 0.478940
v -0.227630 0.520448 0.478940
v -0.231432 0.521467 0.478940
v -0.223828 0.521467 0.478940
v -0.233006 0.522675 0.478940
v -0.222253 0.522675 0.478940
v -0.234215 0.524250 0.478940
v -0.221045 0.524250 0.478940
v -0.234974 0.526084 0.478940
v -0.220285 0.526084 0.478940
v -0.235233 0.528052 0.478940
v -0.220026 0.528052 0.478940
v -0.234974 0.530020 0.478940
v -0.220285 0.530020 0.478940
v -0.234215 0.531854 0.478940
v -0.221045 0.531854 0.478940
v -0.233006 0.533428 0.478940
v -0.222253 0.533428 0.478940
v -0.231432 0.534637 0.478940
v -0.223828 0.534637 0.478940
v -0.229598 0.535396 0.478940
v -0.225662 0.535396 0.478940
v -0.227630 0.535655 0.478940
v -0.227630 0.535655 0.478940
v -0.229598 0.535396 0.478940
v -0.225662 0.535396 0.478940
v -0.223828 0.534637 0.478940
v -0.231432 0.534637 0.478940
v -0.222253 0.533428 0.478940
v -0.233006 0.533428 0.478940
v -0.221045 0.531854 0.478940
v -0.234215 0.531854 0.478940
v -0.220285 0.530020 0.478940
v -0.234974 0.530020 0.478940
v -0.220026 0.528052 0.478940
v -0.235233 0.528052 0.478940
v -0.220285 0.526084 0.478940
v -0.234974 0.526084 0.478940
v -0.221045 0.524250 0.478940
v -0.234215 0.524250 0.478940
v -0.222253 0.522675 0.478940
v -0.233006 0.522675 0.478940
v -0.223828 0.521467 0.478940
v -0.231432 0.521467 0.478940
v -0.225662 0.520707 0.478940
v -0.229598 0.520707 0.478940
v -0.227630 0.520448 0.478940
v -0.230702 0.539519 0.478292
v -0.227630 0.539924 0.478292
v -0.227630 0.539924 0.478292
v -0.230702 0.539519 0.478292
v -0.224557 0.539519 0.478292
v -0.224557 0.539519 0.478292
v -0.221694 0.538333 0.478292
v -0.221694 0.538333 0.478292
v -0.219235 0.536447 0.478292
v -0.219235 0.536447 0.478292
v -0.217348 0.533988 0.478292
v -0.217348 0.533988 0.478292
v -0.216162 0.531124 0.478292
v -0.216162 0.531124 0.478292
v -0.215757 0.528052 0.478292
v -0.215757 0.528052 0.478292
v -0.216162 0.524979 0.478292
v -0.216162 0.524979 0.478292
v -0.217348 0.522116 0.478292
v -0.217348 0.522116 0.478292
v -0.219235 0.519657 0.478292
v -0.219235 0.519657 0.478292
v -0.221694 0.517770 0.478292
v -0.221694 0.517770 0.478292
v -0.224557 0.516584 0.478292
v -0.224557 0.516584 0.478292
v -0.227630 0.516179 0.478292
v -0.227630 0.516179 0.478292
v -0.230702 0.516584 0.478292
v -0.230702 0.516584 0.478292
v -0.233566 0.517770 0.478292
v -0.233566 0.517770 0.478292
v -0.236025 0.519657 0.478292
v -0.236025 0.519657 0.478292
v -0.237911 0.522116 0.478292
v -0.237911 0.522116 0.478292
v -0.239097 0.524979 0.478292
v -0.239097 0.524979 0.478292
v -0.239502 0.528052 0.478292
v -0.239502 0.528052 0.478292
v -0.239097 0.531124 0.478292
v -0.239097 0.531124 0.478292
v -0.237911 0.533988 0.478292
v -0.237911 0.533988 0.478292
v -0.236025 0.536447 0.478292
v -0.236025 0.536447 0.478292
v -0.233566 0.538333 0.478292
v -0.233566 0.538333 0.478292
v -0.227630 0.541712 0.476136
v -0.231165 0.541247 0.476136
v -0.227630 0.541712 0.476136
v -0.231165 0.541247 0.476136
v -0.224094 0.541247 0.476136
v -0.224094 0.541247 0.476136
v -0.220799 0.539882 0.476136
v -0.220799 0.539882 0.476136
v -0.217970 0.537711 0.476136
v -0.217970 0.537711 0.476136
v -0.215799 0.534882 0.476136
v -0.215799 0.534882 0.476136
v -0.214434 0.531587 0.476136
v -0.214434 0.531587 0.476136
v -0.213969 0.528052 0.476136
v -0.213969 0.528052 0.476136
v -0.214434 0.524516 0.476136
v -0.214434 0.524516 0.476136
v -0.215799 0.521221 0.476136
v -0.215799 0.521221 0.476136
v -0.217970 0.518392 0.476136
v -0.217970 0.518392 0.476136
v -0.220799 0.516221 0.476136
v -0.220799 0.516221 0.476136
v -0.224094 0.514856 0.476136
v -0.224094 0.514856 0.476136
v -0.227630 0.514391 0.476136
v -0.227630 0.514391 0.476136
v -0.231165 0.514856 0.476136
v -0.231165 0.514856 0.476136
v -0.234460 0.516221 0.476136
v -0.234460 0.516221 0.476136
v -0.237289 0.518392 0.476136
v -0.237289 0.518392 0.476136
v -0.239460 0.521221 0.476136
v -0.239460 0.521221 0.476136
v -0.240825 0.524516 0.476136
v -0.240825 0.524516 0.476136
v -0.241290 0.528052 0.476136
v -0.241290 0.528052 0.476136
v -0.240825 0.531587 0.476136
v -0.240825 0.531587 0.476136
v -0.239460 0.534882 0.476136
v -0.239460 0.534882 0.476136
v -0.237289 0.537711 0.476136
v -0.237289 0.537711 0.476136
v -0.234460 0.539882 0.476136
v -0.234460 0.539882 0.476136
v -0.227630 0.541712 0.469735
v -0.231165 0.541247 0.469735
v -0.227630 0.541712 0.469735
v -0.231165 0.541247 0.469735
v -0.224094 0.541247 0.469735
v -0.224094 0.541247 0.469735
v -0.220799 0.539882 0.469735
v -0.220799 0.539882 0.469735
v -0.217970 0.537711 0.469735
v -0.217970 0.537711 0.469735
v -0.215799 0.534882 0.469735
v -0.215799 0.534882 0.469735
v -0.214434 0.531587 0.469735
v -0.214434 0.531587 0.469735
v -0.213969 0.528052 0.469735
v -0.213969 0.528052 0.469735
v -0.214434 0.524516 0.469735
v -0.214434 0.524516 0.469735
v -0.215799 0.521221 0.469735
v -0.215799 0.521221 0.469735
v -0.217970 0.518392 0.469735
v -0.217970 0.518392 0.469735
v -0.220799 0.516221 0.469735
v -0.220799 0.516221 0.469735
v -0.224094 0.514856 0.469735
v -0.224094 0.514856 0.469735
v -0.227630 0.514391 0.469735
v -0.227630 0.514391 0.469735
v -0.231165 0.514856 0.469735
v -0.231165 0.514856 0.469735
v -0.234460 0.516221 0.469735
v -0.234460 0.516221 0.469735
v -0.237289 0.518392 0.469735
v -0.237289 0.518392 0.469735
v -0.239460 0.521221 0.469735
v -0.239460 0.521221 0.469735
v -0.240825 0.524516 0.469735
v -0.240825 0.524516 0.469735
v -0.241290 0.528052 0.469735
v -0.241290 0.528052 0.469735
v -0.240825 0.531587 0.469735
v -0.240825 0.531587 0.469735
v -0.239460 0.534882 0.469735
v -0.239460 0.534882 0.469735
v -0.237289 0.537711 0.469735
v -0.237289 0.537711 0.469735
v -0.234460 0.539882 0.469735
v -0.234460 0.539882 0.469735
vn 0.021096199332927976 0.07873208751045355 -0.9966725684847314
vn -0.021096199332927976 0.07873208751045355 -0.9966725684847314
vn 0 0.08150945740554398 -0.9966725682757871
vn 0.040754728711427594 0.07058925776812744 -0.9966725684874661
vn -0.040754728711427594 0.07058925776812744 -0.9966725684874661
vn 0.057635888178044756 0.05763588817804498 -0.9966725684937133
vn -0.057635888178044756 0.05763588817804498 -0.9966725684937133
vn 0.07058925776812722 0.040754728711427816 -0.9966725684874661
vn -0.07058925776812722 0.040754728711427816 -0.9966725684874661
vn 0.07873208751045332 0.0210961993329282 -0.9966725684847314
vn -0.07873208751045332 0.0210961993329282 -0.9966725684847314
vn 0.08150945740554377 0 -0.9966725682757873
vn -0.08150945740554377 0 -0.9966725682757873
vn 0.07873208751045332 -0.021096199332927754 -0.9966725684847314
vn -0.07873208751045332 -0.021096199332927754 -0.9966725684847314
vn 0.07058925776812722 -0.04075472871142737 -0.9966725684874661
vn -0.07058925776812722 -0.04075472871142737 -0.9966725684874661
vn 0.057635888178044756 -0.057635888178044534 -0.9966725684937133
vn -0.057635888178044756 -0.057635888178044534 -0.9966725684937133
vn 0.040754728711427594 -0.070589257768127 -0.9966725684874661
vn -0.040754728711427594 -0.070589257768127 -0.9966725684874661
vn 0.021096199332927976 -0.0787320875104531 -0.9966725684847314
vn -0.021096199332927976 -0.0787320875104531 -0.9966725684847314
vn 0 -0.08150945740554355 -0.9966725682757873
vn 0.13301790403127392 -0.49642971504492317 -0.8578250259974602
vn 0 -0.5139418981496522 -0.8578249969115684
vn -0.13301790403127392 -0.49642971504492317 -0.8578250259974602
vn -0.2569709071195461 -0.44508671233141667 -0.8578250237666002
vn -0.3634117993852018 -0.36341179938520163 -0.8578249985487834
vn -0.44508671233141683 -0.25697090711954595 -0.8578250237666002
vn -0.49642971504492334 -0.13301790403127373 -0.8578250259974601
vn -0.5139418981496524 0 -0.8578249969115683
vn -0.49642971504492334 0.13301790403127411 -0.8578250259974601
vn -0.44508671233141683 0.2569709071195463 -0.8578250237666
vn -0.3634117993852018 0.36341179938520196 -0.8578249985487831
vn -0.2569709071195461 0.445086712331417 -0.8578250237666
vn -0.13301790403127392 0.4964297150449235 -0.85782502599746
vn 0 0.5139418981496526 -0.8578249969115682
vn 0.13301790403127392 0.4964297150449235 -0.85782502599746
vn 0.2569709071195461 0.445086712331417 -0.8578250237666
vn 0.3634117993852018 0.36341179938520196 -0.8578249985487831
vn 0.44508671233141683 0.2569709071195463 -0.8578250237666
vn 0.49642971504492334 0.13301790403127411 -0.8578250259974601
vn 0.5139418981496524 0 -0.8578249969115683
vn 0.49642971504492334 -0.13301790403127373 -0.8578250259974601
vn 0.44508671233141683 -0.25697090711954595 -0.8578250237666002
vn 0.3634117993852018 -0.36341179938520163 -0.8578249985487834
vn 0.2569709071195461 -0.44508671233141667 -0.8578250237666002
vn 0 -0.9437493576033587 -0.330661685145479
vn 0.244260294363866 -0.9115918789656603 -0.3306616923702149
vn -0.244260294363866 -0.9115918789656603 -0.3306616923702149
vn -0.47187470009300897 -0.8173109001610961 -0.3306617000651753
vn -0.6673315704492208 -0.6673315704492206 -0.33066168535763807
vn -0.8173109001610962 -0.4718747000930089 -0.33066170006517526
vn -0.9115918789656604 -0.24426029436386593 -0.33066169237021475
vn -0.9437493576033588 0 -0.3306616851454788
vn -0.9115918789656604 0.2442602943638661 -0.33066169237021464
vn -0.8173109001610962 0.471874700093009 -0.33066170006517503
vn -0.6673315704492208 0.6673315704492209 -0.33066168535763774
vn -0.47187470009300897 0.8173109001610963 -0.330661700065175
vn -0.24426029436386595 0.9115918789656603 -0.33066169237021437
vn 0 0.9437493576033589 -0.33066168514547856
vn 0.24426029436386595 0.9115918789656603 -0.33066169237021437
vn 0.47187470009300897 0.8173109001610963 -0.330661700065175
vn 0.6673315704492208 0.6673315704492209 -0.33066168535763774
vn 0.8173109001610962 0.471874700093009 -0.33066170006517503
vn 0.9115918789656604 0.2442602943638661 -0.33066169237021464
vn 0.9437493576033588 0 -0.3306616851454788
vn 0.9115918789656604 -0.24426029436386593 -0.33066169237021475
vn 0.8173109001610962 -0.4718747000930089 -0.33066170006517526
vn 0.6673315704492208 -0.6673315704492206 -0.33066168535763807
vn 0.47187470009300897 -0.8173109001610961 -0.3306617000651753
vn 0 -1 0
vn 0.25881900959356163 -0.9659258358036645 0
vn -0.25881900959356163 -0.9659258358036645 0
vn -0.5000000016387101 -0.866025402838329 0
vn -0.7071067811865476 -0.7071067811865476 0
vn -0.866025402838329 -0.5000000016387101 0
vn -0.9659258358036645 -0.25881900959356163 0
vn -1 0 0
vn -0.9659258358036645 0.25881900959356163 0
vn -0.866025402838329 0.5000000016387101 0
vn -0.7071067811865476 0.7071067811865476 0
vn -0.5000000016387101 0.866025402838329 0
vn -0.25881900959356163 0.9659258358036645 0
vn 0 1 0
vn 0.25881900959356163 0.9659258358036645 0
vn 0.5000000016387101 0.866025402838329 0
vn 0.7071067811865476 0.7071067811865476 0
vn 0.866025402838329 0.5000000016387101 0
vn 0.9659258358036645 0.25881900959356163 0
vn 1 0 0
vn 0.9659258358036645 -0.25881900959356163 0
vn 0.866025402838329 -0.5000000016387101 0
vn 0.7071067811865476 -0.7071067811865476 0
vn 0.5000000016387101 -0.866025402838329 0
vn 0 0.08150945740554355 0.9966725682757873
vn -0.021096199332927976 0.0787320875104531 0.9966725684847314
vn 0.021096199332927976 0.0787320875104531 0.9966725684847314
vn 0.040754728711427594 0.070589257768127 0.9966725684874661
vn -0.040754728711427594 0.070589257768127 0.9966725684874661
vn 0.057635888178044756 0.057635888178044534 0.9966725684937133
vn -0.057635888178044756 0.057635888178044534 0.9966725684937133
vn 0.07058925776812722 0.04075472871142737 0.9966725684874661
vn -0.07058925776812722 0.04075472871142737 0.9966725684874661
vn 0.07873208751045332 0.021096199332927754 0.9966725684847314
vn -0.07873208751045332 0.021096199332927754 0.9966725684847314
vn 0.08150945740554377 0 0.9966725682757873
vn -0.08150945740554377 0 0.9966725682757873
vn 0.07873208751045332 -0.0210961993329282 0.9966725684847314
vn -0.07873208751045332 -0.0210961993329282 0.9966725684847314
vn 0.07058925776812722 -0.040754728711427816 0.9966725684874661
vn -0.07058925776812722 -0.040754728711427816 0.9966725684874661
vn 0.057635888178044756 -0.05763588817804498 0.9966725684937133
vn -0.057635888178044756 -0.05763588817804498 0.9966725684937133
vn 0.040754728711427594 -0.07058925776812744 0.9966725684874661
vn -0.040754728711427594 -0.07058925776812744 0.9966725684874661
vn 0.021096199332927976 -0.07873208751045355 0.9966725684847314
vn -0.021096199332927976 -0.07873208751045355 0.9966725684847314
vn 0 -0.08150945740554398 0.9966725682757871
vn 0 0.5139418981496522 0.8578249969115684
vn -0.13301790403127392 0.49642971504492317 0.8578250259974602
vn 0.13301790403127392 0.49642971504492317 0.8578250259974602
vn 0.2569709071195461 0.44508671233141667 0.8578250237666002
vn 0.3634117993852018 0.36341179938520163 0.8578249985487834
vn 0.44508671233141683 0.25697090711954595 0.8578250237666002
vn 0.49642971504492334 0.13301790403127373 0.8578250259974601
vn 0.5139418981496524 0 0.8578249969115683
vn 0.49642971504492334 -0.13301790403127411 0.8578250259974601
vn 0.44508671233141683 -0.2569709071195463 0.8578250237666
vn 0.3634117993852018 -0.36341179938520196 0.8578249985487831
vn 0.2569709071195461 -0.445086712331417 0.8578250237666
vn 0.13301790403127392 -0.4964297150449235 0.85782502599746
vn 0 -0.5139418981496526 0.8578249969115682
vn -0.13301790403127392 -0.4964297150449235 0.85782502599746
vn -0.2569709071195461 -0.445086712331417 0.8578250237666
vn -0.3634117993852018 -0.36341179938520196 0.8578249985487831
vn -0.44508671233141683 -0.2569709071195463 0.8578250237666
vn -0.49642971504492334 -0.13301790403127411 0.8578250259974601
vn -0.5139418981496524 0 0.8578249969115683
vn -0.49642971504492334 0.13301790403127373 0.8578250259974601
vn -0.44508671233141683 0.25697090711954595 0.8578250237666002
vn -0.3634117993852018 0.36341179938520163 0.8578249985487834
vn -0.2569709071195461 0.44508671233141667 0.8578250237666002
vn 0 0.9437493576033587 0.330661685145479
vn -0.244260294363866 0.9115918789656603 0.3306616923702149
vn 0.244260294363866 0.9115918789656603 0.3306616923702149
vn 0.47187470009300897 0.8173109001610961 0.3306617000651753
vn 0.6673315704492208 0.6673315704492206 0.33066168535763807
vn 0.8173109001610962 0.4718747000930089 0.33066170006517526
vn 0.9115918789656604 0.24426029436386593 0.33066169237021475
vn 0.9437493576033588 0 0.3306616851454788
vn 0.9115918789656604 -0.2442602943638661 0.33066169237021464
vn 0.8173109001610962 -0.471874700093009 0.33066170006517503
vn 0.6673315704492208 -0.6673315704492209 0.33066168535763774
vn 0.47187470009300897 -0.8173109001610963 0.330661700065175
vn 0.24426029436386595 -0.9115918789656603 0.33066169237021437
vn 0 -0.9437493576033589 0.33066168514547856
vn -0.24426029436386595 -0.9115918789656603 0.33066169237021437
vn -0.47187470009300897 -0.8173109001610963 0.330661700065175
vn -0.6673315704492208 -0.6673315704492209 0.33066168535763774
vn -0.8173109001610962 -0.471874700093009 0.33066170006517503
vn -0.9115918789656604 -0.2442602943638661 0.33066169237021464
vn -0.9437493576033588 0 0.3306616851454788
vn -0.9115918789656604 0.24426029436386593 0.33066169237021475
vn -0.8173109001610962 0.4718747000930089 0.33066170006517526
vn -0.6673315704492208 0.6673315704492206 0.33066168535763807
vn -0.47187470009300897 0.8173109001610961 0.3306617000651753
usemtl material_0_0
f 25//97 26//98 27//99
f 27//99 26//98 28//100
f 26//98 29//101 28//100
f 28//100 29//101 30//102
f 29//101 31//103 30//102
f 30//102 31//103 32//104
f 31//103 33//105 32//104
f 32//104 33//105 34//106
f 33//105 35//107 34//106
f 34//106 35//107 36//108
f 35//107 37//109 36//108
f 36//108 37//109 38//110
f 37//109 39//111 38//110
f 38//110 39//111 40//112
f 39//111 41//113 40//112
f 40//112 41//113 42//114
f 41//113 43//115 42//114
f 42//114 43//115 44//116
f 43//115 45//117 44//116
f 44//116 45//117 46//118
f 45//117 47//119 46//118
f 48//120 46//118 47//119
f 51//121 52//122 25//97
f 26//98 25//97 52//122
f 51//121 25//97 54//123
f 27//99 54//123 25//97
f 54//123 27//99 56//124
f 28//100 56//124 27//99
f 56//124 28//100 58//125
f 30//102 58//125 28//100
f 58//125 30//102 60//126
f 32//104 60//126 30//102
f 60//126 32//104 62//127
f 34//106 62//127 32//104
f 62//127 34//106 64//128
f 36//108 64//128 34//106
f 36//108 38//110 64//128
f 66//129 64//128 38//110
f 38//110 40//112 66//129
f 68//130 66//129 40//112
f 40//112 42//114 68//130
f 70//131 68//130 42//114
f 42//114 44//116 70//131
f 72//132 70//131 44//116
f 44//116 46//118 72//132
f 74//133 72//132 46//118
f 46//118 48//120 74//133
f 76//134 74//133 48//120
f 47//119 78//135 48//120
f 76//134 48//120 78//135
f 45//117 80//136 47//119
f 78//135 47//119 80//136
f 43//115 82//137 45//117
f 80//136 45//117 82//137
f 41//113 84//138 43//115
f 82//137 43//115 84//138
f 39//111 86//139 41//113
f 84//138 41//113 86//139
f 37//109 88//140 39//111
f 86//139 39//111 88//140
f 35//107 90//141 37//109
f 88//140 37//109 90//141
f 92//142 90//141 33//105
f 35//107 33//105 90//141
f 94//143 92//142 31//103
f 33//105 31//103 92//142
f 96//144 94//143 29//101
f 31//103 29//101 94//143
f 52//122 96//144 26//98
f 29//101 26//98 96//144
f 51//121 99//145 52//122
f 100//146 52//122 99//145
f 54//123 102//147 51//121
f 99//145 51//121 102//147
f 104//148 102//147 56//124
f 54//123 56//124 102//147
f 104//148 56//124 106//149
f 58//125 106//149 56//124
f 106//149 58//125 108//150
f 60//126 108//150 58//125
f 110//151 108//150 62//127
f 60//126 62//127 108//150
f 112//152 110//151 64//128
f 62//127 64//128 110//151
f 114//153 112//152 66//129
f 64//128 66//129 112//152
f 116//154 114//153 68//130
f 66//129 68//130 114//153
f 68//130 70//131 116//154
f 118//155 116//154 70//131
f 70//131 72//132 118//155
f 120//156 118//155 72//132
f 120//156 72//132 122//157
f 74//133 122//157 72//132
f 122//157 74//133 124//158
f 76//134 124//158 74//133
f 76//134 78//135 124//158
f 126//159 124//158 78//135
f 78//135 80//136 126//159
f 128//160 126//159 80//136
f 82//137 130//161 80//136
f 128//160 80//136 130//161
f 84//138 132//162 82//137
f 130//161 82//137 132//162
f 134//163 132//162 86//139
f 84//138 86//139 132//162
f 136//164 134//163 88//140
f 86//139 88//140 134//163
f 138//165 136//164 90//141
f 88//140 90//141 136//164
f 140//166 138//165 92//142
f 90//141 92//142 138//165
f 142//167 140//166 94//143
f 92//142 94//143 140//166
f 144//168 142//167 96//144
f 94//143 96//144 142//167
f 52//122 100//146 96//144
f 144//168 96//144 100//146
f 99//145 147//86 100//146
f 148//85 100//146 147//86
f 102//147 150//87 99//145
f 147//86 99//145 150//87
f 104//148 152//88 102//147
f 150//87 102//147 152//88
f 106//149 154//89 104//148
f 152//88 104//148 154//89
f 156//90 154//89 108//150
f 106//149 108//150 154//89
f 158//91 156//90 110//151
f 108//150 110//151 156//90
f 160//92 158//91 112//152
f 110//151 112//152 158//91
f 162//93 160//92 114//153
f 112//152 114//153 160//92
f 164//94 162//93 116//154
f 114//153 116//154 162//93
f 166//95 164//94 118//155
f 116//154 118//155 164//94
f 166//95 118//155 168//96
f 120//156 168//96 118//155
f 168//96 120//156 170//74
f 122//157 170//74 120//156
f 170//74 122//157 172//73
f 124//158 172//73 122//157
f 172//73 124//158 174//75
f 126//159 174//75 124//158
f 174//75 126//159 176//76
f 128//160 176//76 126//159
f 176//76 128//160 178//77
f 130//161 178//77 128//160
f 180//78 178//77 132//162
f 130//161 132//162 178//77
f 182//79 180//78 134//163
f 132//162 134//163 180//78
f 184//80 182//79 136//164
f 134//163 136//164 182//79
f 186//81 184//80 138//165
f 136//164 138//165 184//80
f 188//82 186//81 140//166
f 138//165 140//166 186//81
f 190//83 188//82 142//167
f 140//166 142//167 188//82
f 144//168 192//84 142//167
f 190//83 142//167 192//84
f 100//146 148//85 144//168
f 192//84 144//168 148//85
usemtl material_1_0
f 1//1 2//2 3//3
f 2//2 1//1 4//4
f 2//2 4//4 5//5
f 5//5 4//4 6//6
f 5//5 6//6 7//7
f 7//7 6//6 8//8
f 7//7 8//8 9//9
f 9//9 8//8 10//10
f 9//9 10//10 11//11
f 11//11 10//10 12//12
f 11//11 12//12 13//13
f 13//13 12//12 14//14
f 13//13 14//14 15//15
f 15//15 14//14 16//16
f 15//15 16//16 17//17
f 17//17 16//16 18//18
f 17//17 18//18 19//19
f 19//19 18//18 20//20
f 19//19 20//20 21//21
f 21//21 20//20 22//22
f 21//21 22//22 23//23
f 23//23 22//22 24//24
f 49//25 24//24 22//22
f 24//24 49//25 50//26
f 24//24 53//27 23//23
f 53//27 24//24 50//26
f 23//23 55//28 21//21
f 55//28 23//23 53//27
f 21//21 57//29 19//19
f 57//29 21//21 55//28
f 19//19 59//30 17//17
f 59//30 19//19 57//29
f 17//17 61//31 15//15
f 61//31 17//17 59//30
f 15//15 63//32 13//13
f 63//32 15//15 61//31
f 11//11 63//32 65//33
f 63//32 11//11 13//13
f 9//9 65//33 67//34
f 65//33 9//9 11//11
f 7//7 67//34 69//35
f 67//34 7//7 9//9
f 5//5 69//35 71//36
f 69//35 5//5 7//7
f 2//2 71//36 73//37
f 71//36 2//2 5//5
f 3//3 73//37 75//38
f 73//37 3//3 2//2
f 77//39 3//3 75//38
f 3//3 77//39 1//1
f 79//40 1//1 77//39
f 1//1 79//40 4//4
f 81//41 4//4 79//40
f 4//4 81//41 6//6
f 83//42 6//6 81//41
f 6//6 83//42 8//8
f 85//43 8//8 83//42
f 8//8 85//43 10//10
f 87//44 10//10 85//43
f 10//10 87//44 12//12
f 89//45 12//12 87//44
f 12//12 89//45 14//14
f 89//45 16//16 14//14
f 16//16 89//45 91//46
f 91//46 18//18 16//16
f 18//18 91//46 93//47
f 93//47 20//20 18//18
f 20//20 93//47 95//48
f 95//48 22//22 20//20
f 22//22 95//48 49//25
f 97//49 49//25 98//50
f 49//25 97//49 50//26
f 101//51 50//26 97//49
f 50//26 101//51 53//27
f 101//51 55//28 53//27
f 55//28 101//51 103//52
f 55//28 105//53 57//29
f 105//53 55//28 103//52
f 57//29 107//54 59//30
f 107//54 57//29 105//53
f 107//54 61//31 59//30
f 61//31 107//54 109//55
f 109//55 63//32 61//31
f 63//32 109//55 111//56
f 111//56 65//33 63//32
f 65//33 111//56 113//57
f 113//57 67//34 65//33
f 67//34 113//57 115//58
f 69//35 115//58 117//59
f 115//58 69//35 67//34
f 71//36 117//59 119//60
f 117//59 71//36 69//35
f 71//36 121//61 73//37
f 121//61 71//36 119//60
f 73//37 123//62 75//38
f 123//62 73//37 121//61
f 77//39 123//62 125//63
f 123//62 77//39 75//38
f 79//40 125//63 127//64
f 125//63 79//40 77//39
f 129//65 79//40 127//64
f 79//40 129//65 81//41
f 131//66 81//41 129//65
f 81//41 131//66 83//42
f 131//66 85//43 83//42
f 85//43 131//66 133//67
f 133//67 87//44 85//43
f 87//44 133//67 135//68
f 135//68 89//45 87//44
f 89//45 135//68 137//69
f 137//69 91//46 89//45
f 91//46 137//69 139//70
f 139//70 93//47 91//46
f 93//47 139//70 141//71
f 141//71 95//48 93//47
f 95//48 141//71 143//72
f 98//50 95//48 143//72
f 95//48 98//50 49//25
f 145//73 98//50 146//74
f 98//50 145//73 97//49
f 149//75 97//49 145//73
f 97//49 149//75 101//51
f 151//76 101//51 149//75
f 101//51 151//76 103//52
f 153//77 103//52 151//76
f 103//52 153//77 105//53
f 153//77 107//54 105//53
f 107//54 153//77 155//78
f 155//78 109//55 107//54
f 109//55 155//78 157//79
f 157//79 111//56 109//55
f 111//56 157//79 159//80
f 159//80 113//57 111//56
f 113//57 159//80 161//81
f 161//81 115//58 113//57
f 115//58 161//81 163//82
f 163//82 117//59 115//58
f 117//59 163//82 165//83
f 117//59 167//84 119//60
f 167//84 117//59 165//83
f 119//60 169//85 121//61
f 169//85 119//60 167//84
f 121//61 171//86 123//62
f 171//86 121//61 169//85
f 123//62 173//87 125//63
f 173//87 123//62 171//86
f 125//63 175//88 127//64
f 175//88 125//63 173//87
f 127//64 177//89 129//65
f 177//89 127//64 175//88
f 177//89 131//66 129//65
f 131//66 177//89 179//90
f 179//90 133//67 131//66
f 133//67 179//90 181//91
f 181//91 135//68 133//67
f 135//68 181//91 183//92
f 183//92 137//69 135//68
f 137//69 183//92 185//93
f 185//93 139//70 137//69
f 139//70 185//93 187//94
f 187//94 141//71 139//70
f 141//71 187//94 189//95
f 191//96 141//71 189//95
f 141//71 191//96 143//72
f 146//74 143//72 191//96
f 143//72 146//74 98//50
