# SSTK version 0.8.0
# 106
mtllib original-106.mtl
o #ID502
v 0.156845 0.084175 0.245963
v 0.100208 0.161035 0.269313
v 0.108254 0.084175 0.283248
v 0.145467 0.161035 0.234584
v 0.194131 0.084175 0.197371
v 0.180196 0.161035 0.189325
v 0.047503 0.161035 0.291144
v 0.051668 0.084175 0.306687
v 0.217570 0.084175 0.140785
v 0.202027 0.161035 0.136620
v -0.009057 0.161035 0.298590
v -0.009057 0.084175 0.314682
v 0.209473 0.161035 0.080060
v 0.225564 0.084175 0.080060
v -0.069781 0.084175 0.306687
v -0.065616 0.161035 0.291144
v 0.202027 0.161035 0.023501
v 0.217570 0.084175 0.019336
v -0.126367 0.084175 0.283248
v -0.118322 0.161035 0.269313
v 0.180196 0.161035 -0.029205
v 0.194131 0.084175 -0.037250
v -0.174959 0.084175 0.245963
v -0.163581 0.161035 0.234584
v 0.145467 0.161035 -0.074464
v 0.156845 0.084175 -0.085842
v -0.212245 0.084175 0.197371
v -0.198309 0.161035 0.189325
v 0.100208 0.161035 -0.109192
v 0.108254 0.084175 -0.123128
v -0.235683 0.084175 0.140785
v -0.220140 0.161035 0.136620
v 0.047503 0.161035 -0.131023
v 0.051668 0.084175 -0.146566
v -0.243678 0.084175 0.080060
v -0.227587 0.161035 0.080060
v -0.009057 0.161035 -0.138470
v -0.009057 0.084175 -0.154561
v -0.235683 0.084175 0.019336
v -0.220140 0.161035 0.023501
v -0.069781 0.084175 -0.146566
v -0.065616 0.161035 -0.131023
v -0.212245 0.084175 -0.037250
v -0.198309 0.161035 -0.029205
v -0.126367 0.084175 -0.123128
v -0.118322 0.161035 -0.109192
v -0.163581 0.161035 -0.074464
v -0.174959 0.084175 -0.085842
vn 0.6921015038741563 0.20491708221779117 0.692101508270628
vn 0.48938971313034196 0.2049170821011592 0.8476477441398333
vn 0.8476477693803082 0.20491708077395082 0.48938966996828814
vn 0.8476477693803088 0.20491708077395077 0.4893896699682868
vn 0.25332673140735146 0.2049170826543658 0.9454282396834205
vn 0.9454282391382682 0.20491708221779126 0.2533267337950346
vn -5.5555868601082454e-8 0.20491708210115916 0.9787793364508386
vn 0.9787793364508386 0.20491708210115936 5.5555868646583185e-8
vn -0.25332673379503456 0.20491708221779112 0.9454282391382682
vn 0.9454282396834205 0.2049170826543661 -0.2533267314073514
vn -0.48938966996828737 0.20491708077395077 0.8476477693803086
vn -0.4893896699682873 0.20491708077395077 0.8476477693803086
vn 0.8476477441398333 0.20491708210115947 -0.4893897131303419
vn -0.692101508270628 0.20491708221779117 0.6921015038741563
vn 0.692101508270628 0.20491708221779148 -0.6921015038741563
vn -0.8476477441398333 0.20491708210115925 0.489389713130342
vn 0.489389669968287 0.2049170807739511 -0.8476477693803088
vn 0.4893896699682877 0.20491708077395107 -0.8476477693803082
vn -0.9454282396834205 0.20491708265436598 0.2533267314073515
vn 0.25332673379503456 0.20491708221779154 -0.9454282391382682
vn -0.9787793364508386 0.20491708210115936 -5.5555868555581724e-8
vn 5.5555868601082454e-8 0.20491708210115955 -0.9787793364508386
vn -0.9454282391382682 0.2049170822177914 -0.2533267337950345
vn -0.25332673140735146 0.20491708265436623 -0.9454282396834205
vn -0.8476477693803085 0.20491708077395104 -0.4893896699682876
vn -0.8476477693803087 0.20491708077395104 -0.4893896699682871
vn -0.48938971313034196 0.20491708210115953 -0.8476477441398333
vn -0.6921015038741563 0.20491708221779148 -0.692101508270628
usemtl material_0_0
f 1//1 2//2 3//2
f 2//2 1//1 4//1
f 5//3 4//1 1//1
f 4//1 5//3 6//4
f 3//2 7//5 8//5
f 7//5 3//2 2//2
f 9//6 6//4 5//3
f 6//4 9//6 10//6
f 8//5 11//7 12//7
f 11//7 8//5 7//5
f 9//6 13//8 10//6
f 13//8 9//6 14//8
f 11//7 15//9 12//7
f 15//9 11//7 16//9
f 14//8 17//10 13//8
f 17//10 14//8 18//10
f 16//9 19//11 15//9
f 19//11 16//9 20//12
f 21//13 18//10 22//13
f 18//10 21//13 17//10
f 20//12 23//14 19//11
f 23//14 20//12 24//14
f 25//15 22//13 26//15
f 22//13 25//15 21//13
f 24//14 27//16 23//14
f 27//16 24//14 28//16
f 29//17 26//15 30//18
f 26//15 29//17 25//15
f 28//16 31//19 27//16
f 31//19 28//16 32//19
f 33//20 30//18 34//20
f 30//18 33//20 29//17
f 32//19 35//21 31//19
f 35//21 32//19 36//21
f 37//22 34//20 38//22
f 34//20 37//22 33//20
f 36//21 39//23 35//21
f 39//23 36//21 40//23
f 41//24 37//22 38//22
f 37//22 41//24 42//24
f 40//23 43//25 39//23
f 43//25 40//23 44//26
f 42//24 45//27 46//27
f 45//27 42//24 41//24
f 47//28 43//25 44//26
f 43//25 47//28 48//28
f 46//27 48//28 47//28
f 48//28 46//27 45//27
