# SSTK version 0.8.0
# 102
mtllib original-102.mtl
o #ID478
v -0.242764 -0.535473 0.214991
v -0.267636 -0.539790 0.149346
v -0.240892 -0.539790 0.213911
v -0.269724 -0.535473 0.149906
v -0.269724 -0.535473 0.149906
v -0.242764 -0.535473 0.214991
v -0.267636 -0.539790 0.149346
v -0.240892 -0.539790 0.213911
v -0.278919 -0.535473 0.080060
v -0.276757 -0.539790 0.080060
v -0.276757 -0.539790 0.080060
v -0.278919 -0.535473 0.080060
v -0.264314 -0.543498 0.148456
v -0.237914 -0.543498 0.212191
v -0.237914 -0.543498 0.212191
v -0.264314 -0.543498 0.148456
v -0.199878 -0.535473 0.270882
v -0.198350 -0.539790 0.269353
v -0.199878 -0.535473 0.270882
v -0.198350 -0.539790 0.269353
v -0.243403 -0.530840 0.215360
v -0.270436 -0.530840 0.150097
v -0.270436 -0.530840 0.150097
v -0.243403 -0.530840 0.215360
v -0.269724 -0.535473 0.010215
v -0.267636 -0.539790 0.010774
v -0.267636 -0.539790 0.010774
v -0.269724 -0.535473 0.010215
v -0.273319 -0.543498 0.080060
v -0.273319 -0.543498 0.080060
v -0.279656 -0.530840 0.080060
v -0.279656 -0.530840 0.080060
v -0.259985 -0.546342 0.147296
v -0.234033 -0.546342 0.209950
v -0.234033 -0.546342 0.209950
v -0.259985 -0.546342 0.147296
v -0.195918 -0.543498 0.266922
v -0.195918 -0.543498 0.266922
v -0.143988 -0.535473 0.313768
v -0.142907 -0.539790 0.311896
v -0.143988 -0.535473 0.313768
v -0.142907 -0.539790 0.311896
v -0.200400 -0.530840 0.271403
v -0.200400 -0.530840 0.271403
v -0.243403 -0.524872 0.215360
v -0.270436 -0.524872 0.150097
v -0.270436 -0.524872 0.150097
v -0.243403 -0.524872 0.215360
v -0.242764 -0.535473 -0.054871
v -0.240892 -0.539790 -0.053790
v -0.240892 -0.539790 -0.053790
v -0.242764 -0.535473 -0.054871
v -0.264314 -0.543498 0.011664
v -0.264314 -0.543498 0.011664
v -0.270436 -0.530840 0.010024
v -0.270436 -0.530840 0.010024
v -0.268837 -0.546342 0.080060
v -0.268837 -0.546342 0.080060
v -0.279656 -0.524872 0.080060
v -0.279656 -0.524872 0.080060
v -0.254944 -0.548131 0.145946
v -0.229513 -0.548131 0.207341
v -0.229513 -0.548131 0.207341
v -0.254944 -0.548131 0.145946
v -0.192749 -0.546342 0.263753
v -0.192749 -0.546342 0.263753
v -0.141188 -0.543498 0.308918
v -0.141188 -0.543498 0.308918
v -0.078902 -0.535473 0.340727
v -0.078343 -0.539790 0.338639
v -0.078902 -0.535473 0.340727
v -0.078343 -0.539790 0.338639
v -0.144357 -0.530840 0.314406
v -0.144357 -0.530840 0.314406
v -0.200400 -0.524872 0.271403
v -0.200400 -0.524872 0.271403
v -0.199878 -0.535473 -0.110761
v -0.198350 -0.539790 -0.109233
v -0.198350 -0.539790 -0.109233
v -0.199878 -0.535473 -0.110761
v -0.237914 -0.543498 -0.052071
v -0.237914 -0.543498 -0.052071
v -0.243403 -0.530840 -0.055239
v -0.243403 -0.530840 -0.055239
v -0.259985 -0.546342 0.012824
v -0.259985 -0.546342 0.012824
v -0.270436 -0.524872 0.010024
v -0.270436 -0.524872 0.010024
v -0.263618 -0.548131 0.080060
v -0.263618 -0.548131 0.080060
v -0.249535 -0.548741 0.144496
v -0.224663 -0.548741 0.204541
v -0.224663 -0.548741 0.204541
v -0.249535 -0.548741 0.144496
v -0.189059 -0.548131 0.260062
v -0.189059 -0.548131 0.260062
v -0.138947 -0.546342 0.305037
v -0.138947 -0.546342 0.305037
v -0.077453 -0.543498 0.335318
v -0.077453 -0.543498 0.335318
v -0.009057 -0.535473 0.349923
v -0.009057 -0.539790 0.347761
v -0.009057 -0.535473 0.349923
v -0.009057 -0.539790 0.347761
v -0.079093 -0.530840 0.341439
v -0.079093 -0.530840 0.341439
v -0.144357 -0.524872 0.314406
v -0.144357 -0.524872 0.314406
v -0.142907 -0.539790 -0.151775
v -0.143988 -0.535473 -0.153647
v -0.143988 -0.535473 -0.153647
v -0.142907 -0.539790 -0.151775
v -0.195918 -0.543498 -0.106801
v -0.195918 -0.543498 -0.106801
v -0.200400 -0.530840 -0.111283
v -0.200400 -0.530840 -0.111283
v -0.234033 -0.546342 -0.049830
v -0.234033 -0.546342 -0.049830
v -0.243403 -0.524872 -0.055239
v -0.243403 -0.524872 -0.055239
v -0.254944 -0.548131 0.014175
v -0.254944 -0.548131 0.014175
v -0.258018 -0.548741 0.080060
v -0.258018 -0.548741 0.080060
v -0.185099 -0.548741 -0.095982
v -0.249535 -0.548741 0.015625
v -0.224663 -0.548741 -0.044420
v -0.133537 -0.548741 -0.135546
v -0.073493 -0.548741 -0.160417
v -0.009057 -0.548741 -0.168901
v 0.055379 -0.548741 -0.160417
v -0.185099 -0.548741 0.256102
v -0.133537 -0.548741 0.295667
v 0.115424 -0.548741 -0.135546
v -0.073493 -0.548741 0.320538
v 0.166985 -0.548741 -0.095982
v 0.206550 -0.548741 -0.044420
v -0.009057 -0.548741 0.329021
v 0.231421 -0.548741 0.015625
v 0.055379 -0.548741 0.320538
v 0.239904 -0.548741 0.080060
v 0.115424 -0.548741 0.295667
v 0.231421 -0.548741 0.144496
v 0.166985 -0.548741 0.256102
v 0.206550 -0.548741 0.204541
v 0.206550 -0.548741 0.204541
v 0.231421 -0.548741 0.144496
v 0.166985 -0.548741 0.256102
v 0.115424 -0.548741 0.295667
v 0.239904 -0.548741 0.080060
v 0.055379 -0.548741 0.320538
v 0.231421 -0.548741 0.015625
v -0.009057 -0.548741 0.329021
v 0.206550 -0.548741 -0.044420
v -0.073493 -0.548741 0.320538
v 0.166985 -0.548741 -0.095982
v 0.115424 -0.548741 -0.135546
v -0.133537 -0.548741 0.295667
v 0.055379 -0.548741 -0.160417
v -0.185099 -0.548741 0.256102
v -0.009057 -0.548741 -0.168901
v -0.073493 -0.548741 -0.160417
v -0.133537 -0.548741 -0.135546
v -0.185099 -0.548741 -0.095982
v -0.249535 -0.548741 0.015625
v -0.224663 -0.548741 -0.044420
v -0.136337 -0.548131 0.300517
v -0.136337 -0.548131 0.300517
v -0.076293 -0.546342 0.330989
v -0.076293 -0.546342 0.330989
v -0.009057 -0.543498 0.344322
v -0.009057 -0.543498 0.344322
v 0.060789 -0.535473 0.340727
v 0.060229 -0.539790 0.338639
v 0.060789 -0.535473 0.340727
v 0.060229 -0.539790 0.338639
v -0.009057 -0.530840 0.350660
v -0.009057 -0.530840 0.350660
v -0.079093 -0.524872 0.341439
v -0.079093 -0.524872 0.341439
v -0.078343 -0.539790 -0.178519
v -0.078902 -0.535473 -0.180607
v -0.078902 -0.535473 -0.180607
v -0.078343 -0.539790 -0.178519
v -0.141188 -0.543498 -0.148797
v -0.141188 -0.543498 -0.148797
v -0.144357 -0.530840 -0.154286
v -0.144357 -0.530840 -0.154286
v -0.192749 -0.546342 -0.103632
v -0.192749 -0.546342 -0.103632
v -0.200400 -0.524872 -0.111283
v -0.200400 -0.524872 -0.111283
v -0.229513 -0.548131 -0.047220
v -0.229513 -0.548131 -0.047220
v 0.236831 -0.548131 0.014175
v 0.245505 -0.548131 0.080060
v 0.245505 -0.548131 0.080060
v 0.236831 -0.548131 0.014175
v 0.236831 -0.548131 0.145946
v 0.236831 -0.548131 0.145946
v 0.211400 -0.548131 0.207341
v 0.211400 -0.548131 0.207341
v 0.170945 -0.548131 0.260062
v 0.170945 -0.548131 0.260062
v 0.118224 -0.548131 0.300517
v 0.118224 -0.548131 0.300517
v 0.056829 -0.548131 0.325948
v 0.056829 -0.548131 0.325948
v -0.009057 -0.548131 0.334622
v -0.009057 -0.548131 0.334622
v -0.074942 -0.548131 0.325948
v -0.074942 -0.548131 0.325948
v -0.189059 -0.548131 -0.099942
v -0.189059 -0.548131 -0.099942
v -0.136337 -0.548131 -0.140396
v -0.136337 -0.548131 -0.140396
v -0.074942 -0.548131 -0.165827
v -0.074942 -0.548131 -0.165827
v -0.009057 -0.548131 -0.174501
v -0.009057 -0.548131 -0.174501
v 0.056829 -0.548131 -0.165827
v 0.056829 -0.548131 -0.165827
v 0.118224 -0.548131 -0.140396
v 0.118224 -0.548131 -0.140396
v 0.170945 -0.548131 -0.099942
v 0.170945 -0.548131 -0.099942
v 0.211400 -0.548131 -0.047220
v 0.211400 -0.548131 -0.047220
v -0.009057 -0.546342 0.339841
v -0.009057 -0.546342 0.339841
v 0.059339 -0.543498 0.335318
v 0.059339 -0.543498 0.335318
v 0.125874 -0.535473 0.313768
v 0.124794 -0.539790 0.311896
v 0.124794 -0.539790 0.311896
v 0.125874 -0.535473 0.313768
v 0.060980 -0.530840 0.341440
v 0.060980 -0.530840 0.341440
v -0.009057 -0.524872 0.350660
v -0.009057 -0.524872 0.350660
v -0.009057 -0.539790 -0.187640
v -0.009057 -0.535473 -0.189802
v -0.009057 -0.535473 -0.189802
v -0.009057 -0.539790 -0.187640
v -0.077453 -0.543498 -0.175197
v -0.077453 -0.543498 -0.175197
v -0.079093 -0.530840 -0.181319
v -0.079093 -0.530840 -0.181319
v -0.138947 -0.546342 -0.144916
v -0.138947 -0.546342 -0.144916
v -0.144357 -0.524872 -0.154286
v -0.144357 -0.524872 -0.154286
v 0.241872 -0.546342 0.012824
v 0.250723 -0.546342 0.080060
v 0.250723 -0.546342 0.080060
v 0.241872 -0.546342 0.012824
v 0.241872 -0.546342 0.147296
v 0.241872 -0.546342 0.147296
v 0.215920 -0.546342 0.209950
v 0.215920 -0.546342 0.209950
v 0.174636 -0.546342 0.263753
v 0.174636 -0.546342 0.263753
v 0.120833 -0.546342 0.305037
v 0.120833 -0.546342 0.305037
v 0.058179 -0.546342 0.330989
v 0.058179 -0.546342 0.330989
v -0.076293 -0.546342 -0.170868
v -0.076293 -0.546342 -0.170868
v -0.009057 -0.546342 -0.179720
v -0.009057 -0.546342 -0.179720
v 0.058179 -0.546342 -0.170868
v 0.058179 -0.546342 -0.170868
v 0.120833 -0.546342 -0.144916
v 0.120833 -0.546342 -0.144916
v 0.174636 -0.546342 -0.103632
v 0.174636 -0.546342 -0.103632
v 0.215920 -0.546342 -0.049830
v 0.215920 -0.546342 -0.049830
v 0.123074 -0.543498 0.308918
v 0.123074 -0.543498 0.308918
v 0.181765 -0.535473 0.270882
v 0.180236 -0.539790 0.269353
v 0.180236 -0.539790 0.269353
v 0.181765 -0.535473 0.270882
v 0.126243 -0.530840 0.314406
v 0.126243 -0.530840 0.314406
v 0.060980 -0.524872 0.341440
v 0.060980 -0.524872 0.341440
v 0.060229 -0.539790 -0.178519
v 0.060789 -0.535473 -0.180607
v 0.060789 -0.535473 -0.180607
v 0.060229 -0.539790 -0.178519
v -0.009057 -0.543498 -0.184201
v -0.009057 -0.543498 -0.184201
v -0.009057 -0.530840 -0.190539
v -0.009057 -0.530840 -0.190539
v -0.079093 -0.524872 -0.181319
v -0.079093 -0.524872 -0.181319
v 0.246200 -0.543498 0.011664
v 0.255205 -0.543498 0.080060
v 0.255205 -0.543498 0.080060
v 0.246200 -0.543498 0.011664
v 0.246200 -0.543498 0.148456
v 0.246200 -0.543498 0.148456
v 0.219801 -0.543498 0.212191
v 0.219801 -0.543498 0.212191
v 0.177805 -0.543498 0.266922
v 0.177805 -0.543498 0.266922
v 0.059339 -0.543498 -0.175197
v 0.059339 -0.543498 -0.175197
v 0.123074 -0.543498 -0.148797
v 0.123074 -0.543498 -0.148797
v 0.177805 -0.543498 -0.106801
v 0.177805 -0.543498 -0.106801
v 0.219801 -0.543498 -0.052070
v 0.219801 -0.543498 -0.052070
v 0.224651 -0.535473 0.214991
v 0.222779 -0.539790 0.213911
v 0.222779 -0.539790 0.213911
v 0.224651 -0.535473 0.214991
v 0.182286 -0.530840 0.271403
v 0.182286 -0.530840 0.271403
v 0.126243 -0.524872 0.314406
v 0.126243 -0.524872 0.314406
v 0.124793 -0.539790 -0.151775
v 0.125874 -0.535473 -0.153647
v 0.125874 -0.535473 -0.153647
v 0.124793 -0.539790 -0.151775
v 0.060980 -0.530840 -0.181319
v 0.060980 -0.530840 -0.181319
v -0.009057 -0.524872 -0.190539
v -0.009057 -0.524872 -0.190539
v 0.249522 -0.539790 0.010774
v 0.258644 -0.539790 0.080060
v 0.258644 -0.539790 0.080060
v 0.249522 -0.539790 0.010774
v 0.249522 -0.539790 0.149346
v 0.249522 -0.539790 0.149346
v 0.180236 -0.539790 -0.109233
v 0.180236 -0.539790 -0.109233
v 0.222779 -0.539790 -0.053790
v 0.222779 -0.539790 -0.053790
v 0.251610 -0.535473 0.149906
v 0.251610 -0.535473 0.149906
v 0.225289 -0.530840 0.215360
v 0.225289 -0.530840 0.215360
v 0.182286 -0.524872 0.271403
v 0.182286 -0.524872 0.271403
v 0.181765 -0.535473 -0.110761
v 0.181765 -0.535473 -0.110761
v 0.126243 -0.530840 -0.154286
v 0.126243 -0.530840 -0.154286
v 0.060980 -0.524872 -0.181319
v 0.060980 -0.524872 -0.181319
v 0.260805 -0.535473 0.080060
v 0.251610 -0.535473 0.010215
v 0.251610 -0.535473 0.010215
v 0.260805 -0.535473 0.080060
v 0.224651 -0.535473 -0.054871
v 0.224651 -0.535473 -0.054871
v 0.252322 -0.530840 0.150097
v 0.252322 -0.530840 0.150097
v 0.225289 -0.524872 0.215360
v 0.225289 -0.524872 0.215360
v 0.182286 -0.530840 -0.111282
v 0.182286 -0.530840 -0.111282
v 0.126243 -0.524872 -0.154286
v 0.126243 -0.524872 -0.154286
v 0.261543 -0.530840 0.080060
v 0.252322 -0.530840 0.010024
v 0.252322 -0.530840 0.010024
v 0.261543 -0.530840 0.080060
v 0.225289 -0.530840 -0.055239
v 0.225289 -0.530840 -0.055239
v 0.252322 -0.524872 0.150097
v 0.252322 -0.524872 0.150097
v 0.182286 -0.524872 -0.111282
v 0.182286 -0.524872 -0.111282
v 0.261543 -0.524872 0.080060
v 0.252322 -0.524872 0.010024
v 0.252322 -0.524872 0.010024
v 0.261543 -0.524872 0.080060
v 0.225289 -0.524872 -0.055239
v 0.225289 -0.524872 -0.055239
vn -0.8250896794716941 -0.30381363210562135 0.47636571851476406
vn -0.7963746788184052 -0.5659089622377103 0.21338795044687903
vn -0.714010013093345 -0.5659089433964711 0.41223387656320887
vn -0.9202679397861832 -0.30381364749535744 0.24658504941958873
vn 0.9202679397861832 0.30381364749535744 -0.24658504941958873
vn 0.8250896794716941 0.30381363210562135 -0.47636571851476406
vn 0.7963746788184052 0.5659089622377103 -0.21338795044687903
vn 0.714010013093345 0.5659089433964711 -0.41223387656320887
vn -0.9527314820802288 -0.3038136321056212 2.2404480263576884e-8
vn -0.8244677481769009 -0.565908943396471 -5.977752760337801e-9
vn 0.8244677481769009 0.565908943396471 5.977752760337801e-9
vn 0.9527314820802288 0.3038136321056212 -2.2404480263576884e-8
vn -0.6226592208371827 -0.7644995513668376 0.16684103412031576
vn -0.558260971552719 -0.7644995535084016 0.3223121473455024
vn 0.558260971552719 0.7644995535084016 -0.3223121473455024
vn 0.6226592208371827 0.7644995513668376 -0.16684103412031576
vn -0.6736829029850931 -0.30381363921143034 0.6736828770680494
vn -0.5829867588077456 -0.5659089392701787 0.5829867164086506
vn 0.6736829029850931 0.30381363921143034 -0.6736828770680494
vn 0.5829867588077456 0.5659089392701787 -0.5829867164086506
vn -0.8633566224657053 -0.078446396370722 0.4984591310639794
vn -0.9629491654831159 -0.07844639189538884 0.25802144929049164
vn 0.9629491654831159 0.07844639189538884 -0.25802144929049164
vn 0.8633566224657053 0.078446396370722 -0.4984591310639794
vn -0.920267945681177 -0.3038136392114302 -0.2465850376256711
vn -0.796374700594231 -0.5659089392701786 -0.21338793008872423
vn 0.796374700594231 0.5659089392701786 0.21338793008872423
vn 0.920267945681177 0.3038136392114302 0.2465850376256711
vn -0.6446242569787878 -0.7644995535084015 -2.4212699945963153e-8
vn 0.6446242569787878 0.7644995535084015 2.4212699945963153e-8
vn -0.9969183331128215 -0.07844639637072189 3.7210353214396914e-8
vn 0.9969183331128215 0.07844639637072189 -3.7210353214396914e-8
vn -0.4248109168288266 -0.8980973946446767 0.11382774123866049
vn -0.38087510054049134 -0.8980973757810833 0.21989829786381265
vn 0.38087510054049134 0.8980973757810833 -0.21989829786381265
vn 0.4248109168288266 0.8980973946446767 -0.11382774123866049
vn -0.45581820495517034 -0.7644995400472944 0.45581818447591765
vn 0.45581820495517034 0.7644995400472944 -0.45581818447591765
vn -0.4763657399583849 -0.30381364868188754 0.8250896609875189
vn -0.4122338742142842 -0.5659089469665268 0.7140100116199479
vn 0.4763657399583849 0.30381364868188754 -0.8250896609875189
vn 0.4122338742142842 0.5659089469665268 -0.7140100116199479
vn -0.7049276826885692 -0.07844639806070704 0.7049277443898947
vn 0.7049276826885692 0.07844639806070704 -0.7049277443898947
vn -0.866025405676658 0 0.4999999967225799
vn -0.9659258267788108 0 0.2588190432747773
vn 0.9659258267788108 0 -0.2588190432747773
vn 0.866025405676658 0 -0.4999999967225799
vn -0.8250896609875155 -0.30381364868188726 -0.47636573995839127
vn -0.7140100116199495 -0.5659089469665267 -0.4122338742142822
vn 0.7140100116199495 0.5659089469665267 0.4122338742142822
vn 0.8250896609875155 0.30381364868188726 0.47636573995839127
vn -0.6226592366051587 -0.7644995400472943 -0.16684102714187715
vn 0.6226592366051587 0.7644995400472943 0.16684102714187715
vn -0.9629491522576777 -0.07844639806070682 -0.25802149677404956
vn 0.9629491522576777 0.07844639806070682 0.25802149677404956
vn -0.4397966616689243 -0.8980973757810833 3.640684270419528e-8
vn 0.4397966616689243 0.8980973757810833 -3.640684270419528e-8
vn -1 0 0
vn 1 0 0
vn -0.21802663865092214 -0.9741927331256314 0.058420061312812306
vn -0.19547728698377065 -0.9741927435179978 0.11285888866341343
vn 0.19547728698377065 0.9741927435179978 -0.11285888866341343
vn 0.21802663865092214 0.9741927331256314 -0.058420061312812306
vn -0.3109831874087898 -0.8980973680898262 0.31098323842161796
vn 0.3109831874087898 0.8980973680898262 -0.31098323842161796
vn -0.3223121179077187 -0.7644995731347191 0.5582609616717554
vn 0.3223121179077187 0.7644995731347191 -0.5582609616717554
vn -0.246585037625671 -0.3038136392114304 0.9202679456811766
vn -0.21338793008872411 -0.5659089392701788 0.7963747005942309
vn 0.246585037625671 0.3038136392114304 -0.9202679456811766
vn 0.21338793008872411 0.5659089392701788 -0.7963747005942309
vn -0.4984591680909061 -0.07844639889118313 0.8633566008591856
vn 0.4984591680909061 0.07844639889118313 -0.8633566008591856
vn -0.7071067565301862 0 0.7071068058429081
vn 0.7071067565301862 0 -0.7071068058429081
vn -0.6736828770680495 -0.30381363921143 -0.6736829029850933
vn -0.5829867164086509 -0.5659089392701786 -0.5829867588077459
vn 0.5829867164086509 0.5659089392701786 0.5829867588077459
vn 0.6736828770680495 0.30381363921143 0.6736829029850933
vn -0.5582609616717569 -0.7644995731347188 -0.32231211790771663
vn 0.5582609616717569 0.7644995731347188 0.32231211790771663
vn -0.8633566008591882 -0.07844639889118282 -0.49845916809090174
vn 0.8633566008591882 0.07844639889118282 0.49845916809090174
vn -0.4248109592259037 -0.8980973680898261 -0.11382779252755061
vn 0.4248109592259037 0.8980973680898261 0.11382779252755061
vn -0.9659258162847283 0 -0.258819082439223
vn 0.9659258162847283 0 0.258819082439223
vn -0.2257177407225133 -0.9741927435179978 -2.198772563629965e-8
vn 0.2257177407225133 0.9741927435179978 2.198772563629965e-8
vn -0.05668253289066771 -0.9982767221279716 0.015188038798048337
vn -0.05082017135660974 -0.9982767218963585 0.029341041275751243
vn 0.05082017135660974 0.9982767218963585 -0.029341041275751243
vn 0.05668253289066771 0.9982767221279716 -0.015188038798048337
vn -0.15960655725401934 -0.974192739322367 0.15960655855290506
vn 0.15960655725401934 0.974192739322367 -0.15960655855290506
vn -0.21989832016743235 -0.8980973869341831 0.38087506136466026
vn 0.21989832016743235 0.8980973869341831 -0.38087506136466026
vn -0.16684102714187699 -0.7644995400472944 0.6226592366051584
vn 0.16684102714187699 0.7644995400472944 -0.6226592366051584
vn 2.2404480331037067e-8 -0.3038136321056215 0.952731482080229
vn -5.977752634680772e-9 -0.5659089433964711 0.8244677481769007
vn -2.2404480331037067e-8 0.3038136321056215 -0.952731482080229
vn 5.977752634680772e-9 0.5659089433964711 -0.8244677481769007
vn -0.25802149677404956 -0.07844639806070709 0.9629491522576777
vn 0.25802149677404956 0.07844639806070709 -0.9629491522576777
vn -0.5000000016387098 0 0.8660254028383292
vn 0.5000000016387098 0 -0.8660254028383292
vn -0.412233876563209 -0.5659089433964709 -0.7140100130933451
vn -0.47636571851476406 -0.303813632105621 -0.825089679471694
vn 0.47636571851476406 0.303813632105621 0.825089679471694
vn 0.412233876563209 0.5659089433964709 0.7140100130933451
vn -0.4558181844759178 -0.7644995400472941 -0.4558182049551705
vn 0.4558181844759178 0.7644995400472941 0.4558182049551705
vn -0.7049277443898947 -0.07844639806070672 -0.7049276826885692
vn 0.7049277443898947 0.07844639806070672 0.7049276826885692
vn -0.3808750613646603 -0.898097386934183 -0.21989832016743288
vn 0.3808750613646603 0.898097386934183 0.21989832016743288
vn -0.866025402838329 0 -0.5000000016387098
vn 0.866025402838329 0 0.5000000016387098
vn -0.21802661224792175 -0.974192739322367 -0.05842005651552332
vn 0.21802661224792175 0.974192739322367 0.05842005651552332
vn -0.05868208005737804 -0.9982767218963585 -1.6620626303756565e-9
vn 0.05868208005737804 0.9982767218963585 1.6620626303756565e-9
vn -0.0414944952615035 -0.9982767218545767 -0.04149449922909195
vn -0.056682538022980795 -0.9982767218545767 -0.015188037613640983
vn -0.05082016970255902 -0.9982767220537334 -0.02934103878625217
vn -0.029341041275751465 -0.9982767218963585 -0.050820171356609954
vn -0.01518803879804856 -0.9982767221279716 -0.05668253289066793
vn 1.6620624087136962e-9 -0.9982767218963585 -0.05868208005737826
vn 0.01518803761364076 -0.9982767218545767 -0.05668253802298101
vn -0.04149449922909173 -0.9982767218545767 0.04149449526150328
vn -0.029341038786252098 -0.9982767220537334 0.05082016970255871
vn 0.02934103878625253 -0.9982767220537334 -0.050820169702558905
vn -0.01518803761364076 -0.9982767218545767 0.05668253802298057
vn 0.04149449922909173 -0.9982767218545767 -0.04149449526150372
vn 0.05082017135660974 -0.9982767218963585 -0.02934104127575169
vn -1.6620624087136962e-9 -0.9982767218963585 0.05868208005737782
vn 0.05668253289066771 -0.9982767221279716 -0.015188038798048782
vn 0.01518803879804856 -0.9982767221279716 0.05668253289066749
vn 0.05868208005737804 -0.9982767218963585 1.662062187051736e-9
vn 0.029341041275751465 -0.9982767218963585 0.05082017135660952
vn 0.056682538022980795 -0.9982767218545767 0.015188037613640537
vn 0.0414944952615035 -0.9982767218545767 0.04149449922909151
vn 0.05082016970255894 -0.9982767220537334 0.029341038786251866
vn -0.05082016970255894 0.9982767220537334 -0.029341038786251866
vn -0.056682538022980795 0.9982767218545767 -0.015188037613640537
vn -0.0414944952615035 0.9982767218545767 -0.04149449922909151
vn -0.029341041275751465 0.9982767218963585 -0.05082017135660952
vn -0.05868208005737804 0.9982767218963585 -1.662062187051736e-9
vn -0.01518803879804856 0.9982767221279716 -0.05668253289066749
vn -0.05668253289066771 0.9982767221279716 0.015188038798048782
vn 1.6620624087136962e-9 0.9982767218963585 -0.05868208005737782
vn -0.05082017135660974 0.9982767218963585 0.02934104127575169
vn 0.01518803761364076 0.9982767218545767 -0.05668253802298057
vn -0.04149449922909173 0.9982767218545767 0.04149449526150372
vn -0.02934103878625253 0.9982767220537334 0.050820169702558905
vn 0.029341038786252098 0.9982767220537334 -0.05082016970255871
vn -0.01518803761364076 0.9982767218545767 0.05668253802298101
vn 0.04149449922909173 0.9982767218545767 -0.04149449526150328
vn -1.6620624087136962e-9 0.9982767218963585 0.05868208005737826
vn 0.01518803879804856 0.9982767221279716 0.05668253289066793
vn 0.029341041275751465 0.9982767218963585 0.050820171356609954
vn 0.0414944952615035 0.9982767218545767 0.04149449922909195
vn 0.056682538022980795 0.9982767218545767 0.015188037613640983
vn 0.05082016970255902 0.9982767220537334 0.02934103878625217
vn -0.11285885301041229 -0.9741927517296853 0.19547726664376625
vn 0.11285885301041229 0.9741927517296853 -0.19547726664376625
vn -0.1138277925275504 -0.8980973680898262 0.42481095922590345
vn 0.1138277925275504 0.8980973680898262 -0.42481095922590345
vn -2.421269977621015e-8 -0.7644995535084016 0.6446242569787876
vn 2.421269977621015e-8 0.7644995535084016 -0.6446242569787876
vn 0.24658504941958878 -0.3038136474953576 0.920267939786183
vn 0.21338795044687914 -0.5659089622377105 0.7963746788184051
vn -0.24658504941958878 0.3038136474953576 -0.920267939786183
vn -0.21338795044687914 0.5659089622377105 -0.7963746788184051
vn 3.7210353231815504e-8 -0.0784463963707221 0.9969183331128213
vn -3.7210353231815504e-8 0.0784463963707221 -0.9969183331128213
vn -0.258819082439223 0 0.9659258162847283
vn 0.258819082439223 0 -0.9659258162847283
vn -0.21338795044687914 -0.56590896223771 -0.7963746788184053
vn -0.24658504941958873 -0.30381364749535705 -0.920267939786183
vn 0.24658504941958873 0.30381364749535705 0.920267939786183
vn 0.21338795044687914 0.56590896223771 0.7963746788184053
vn -0.32231214734550256 -0.7644995535084014 -0.5582609715527193
vn 0.32231214734550256 0.7644995535084014 0.5582609715527193
vn -0.4984591310639794 -0.07844639637072169 -0.8633566224657053
vn 0.4984591310639794 0.07844639637072169 0.8633566224657053
vn -0.3109832384216182 -0.898097368089826 -0.31098318740879
vn 0.3109832384216182 0.898097368089826 0.31098318740879
vn -0.7071068058429081 0 -0.7071067565301862
vn 0.7071068058429081 0 0.7071067565301862
vn -0.19547726664376597 -0.9741927517296851 -0.11285885301041326
vn 0.19547726664376597 0.9741927517296851 0.11285885301041326
vn 0.21802663865092214 -0.9741927331256314 -0.05842006131281273
vn 0.2257177407225133 -0.9741927435179978 2.1987725203671166e-8
vn -0.2257177407225133 0.9741927435179978 -2.1987725203671166e-8
vn -0.21802663865092214 0.9741927331256314 0.05842006131281273
vn 0.21802661224792175 -0.974192739322367 0.05842005651552289
vn -0.21802661224792175 0.974192739322367 -0.05842005651552289
vn 0.1954772666437663 -0.9741927517296851 0.11285885301041226
vn -0.1954772666437663 0.9741927517296851 -0.11285885301041226
vn 0.1596065585529053 -0.974192739322367 0.15960655725401915
vn -0.1596065585529053 0.974192739322367 -0.15960655725401915
vn 0.11285888866341365 -0.9741927435179978 0.19547728698377043
vn -0.11285888866341365 0.9741927435179978 -0.19547728698377043
vn 0.058420061312812514 -0.9741927331256314 0.21802663865092192
vn -0.058420061312812514 0.9741927331256314 -0.21802663865092192
vn -2.1987725419985415e-8 -0.974192743517998 0.22571774072251316
vn 2.1987725419985415e-8 0.974192743517998 -0.22571774072251316
vn -0.05842005651552311 -0.974192739322367 0.21802661224792153
vn 0.05842005651552311 0.974192739322367 -0.21802661224792153
vn -0.1596065585529053 -0.974192739322367 -0.15960655725401957
vn 0.1596065585529053 0.974192739322367 0.15960655725401957
vn -0.11285888866341365 -0.9741927435179978 -0.19547728698377084
vn 0.11285888866341365 0.9741927435179978 0.19547728698377084
vn -0.0584200613128125 -0.9741927331256311 -0.2180266386509223
vn 0.0584200613128125 0.9741927331256311 0.2180266386509223
vn 2.1987725419985408e-8 -0.9741927435179978 -0.22571774072251352
vn -2.1987725419985408e-8 0.9741927435179978 0.22571774072251352
vn 0.05842005651552311 -0.974192739322367 -0.21802661224792197
vn -0.05842005651552311 0.974192739322367 0.21802661224792197
vn 0.11285885301041192 -0.9741927517296851 -0.19547726664376683
vn -0.11285885301041192 0.9741927517296851 0.19547726664376683
vn 0.15960655725401934 -0.974192739322367 -0.1596065585529055
vn -0.15960655725401934 0.974192739322367 0.1596065585529055
vn 0.19547728698377065 -0.9741927435179978 -0.11285888866341386
vn -0.19547728698377065 0.9741927435179978 0.11285888866341386
vn 3.640684290361296e-8 -0.8980973757810834 0.43979666166892406
vn -3.640684290361296e-8 0.8980973757810834 -0.43979666166892406
vn 0.16684103412031595 -0.7644995513668379 0.6226592208371827
vn -0.16684103412031595 0.7644995513668379 -0.6226592208371827
vn 0.47636571851476406 -0.30381363210562135 0.8250896794716938
vn 0.412233876563209 -0.5659089433964711 0.7140100130933449
vn -0.412233876563209 0.5659089433964711 -0.7140100130933449
vn -0.47636571851476406 0.30381363210562135 -0.8250896794716938
vn 0.2580214492904917 -0.078446391895389 0.9629491654831159
vn -0.2580214492904917 0.078446391895389 -0.9629491654831159
vn 0 0 1
vn 0 0 -1
vn 5.977752634680773e-9 -0.5659089433964708 -0.824467748176901
vn -2.2404480331037063e-8 -0.30381363210562096 -0.952731482080229
vn 2.2404480331037063e-8 0.30381363210562096 0.952731482080229
vn -5.977752634680773e-9 0.5659089433964708 0.824467748176901
vn -0.16684103412031592 -0.7644995513668374 -0.622659220837183
vn 0.16684103412031592 0.7644995513668374 0.622659220837183
vn -0.2580214492904917 -0.07844639189538856 -0.9629491654831159
vn 0.2580214492904917 0.07844639189538856 0.9629491654831159
vn -0.21989829786381285 -0.8980973757810832 -0.38087510054049156
vn 0.21989829786381285 0.8980973757810832 0.38087510054049156
vn -0.4999999967225799 0 -0.866025405676658
vn 0.4999999967225799 0 0.866025405676658
vn 0.4248109168288266 -0.8980973946446767 -0.11382774123866089
vn 0.4397966616689243 -0.8980973757810833 -3.640684310303064e-8
vn -0.4397966616689243 0.8980973757810833 3.640684310303064e-8
vn -0.4248109168288266 0.8980973946446767 0.11382774123866089
vn 0.4248109592259037 -0.8980973680898261 0.11382779252755021
vn -0.4248109592259037 0.8980973680898261 -0.11382779252755021
vn 0.38087506136466037 -0.898097386934183 0.21989832016743235
vn -0.38087506136466037 0.898097386934183 -0.21989832016743235
vn 0.3109832384216182 -0.8980973680898262 0.31098318740878955
vn -0.3109832384216182 0.8980973680898262 -0.31098318740878955
vn 0.21989829786381285 -0.8980973757810834 0.3808751005404911
vn -0.21989829786381285 0.8980973757810834 -0.3808751005404911
vn 0.11382774123866068 -0.8980973946446769 0.42481091682882643
vn -0.11382774123866068 0.8980973946446769 -0.42481091682882643
vn -0.11382774123866068 -0.8980973946446766 -0.4248109168288268
vn 0.11382774123866068 0.8980973946446766 0.4248109168288268
vn -3.640684290361296e-8 -0.8980973757810832 -0.4397966616689245
vn 3.640684290361296e-8 0.8980973757810832 0.4397966616689245
vn 0.1138277925275504 -0.898097368089826 -0.4248109592259039
vn -0.1138277925275504 0.898097368089826 0.4248109592259039
vn 0.21989832016743313 -0.8980973869341828 -0.38087506136466026
vn -0.21989832016743313 0.8980973869341828 0.38087506136466026
vn 0.3109831874087898 -0.898097368089826 -0.3109832384216184
vn -0.3109831874087898 0.898097368089826 0.3109832384216184
vn 0.38087510054049134 -0.8980973757810833 -0.21989829786381304
vn -0.38087510054049134 0.8980973757810833 0.21989829786381304
vn 0.32231214734550256 -0.7644995535084016 0.5582609715527188
vn -0.32231214734550256 0.7644995535084016 -0.5582609715527188
vn 0.6736828770680495 -0.30381363921143034 0.6736829029850929
vn 0.5829867164086507 -0.5659089392701787 0.5829867588077455
vn -0.5829867164086507 0.5659089392701787 -0.5829867588077455
vn -0.6736828770680495 0.30381363921143034 -0.6736829029850929
vn 0.4984591310639794 -0.07844639637072208 0.8633566224657053
vn -0.4984591310639794 0.07844639637072208 -0.8633566224657053
vn 0.2588190432747773 0 0.9659258267788108
vn -0.2588190432747773 0 -0.9659258267788108
vn 0.21338793008872411 -0.5659089392701784 -0.7963747005942311
vn 0.246585037625671 -0.30381363921142995 -0.9202679456811769
vn -0.246585037625671 0.30381363921142995 0.9202679456811769
vn -0.21338793008872411 0.5659089392701784 0.7963747005942311
vn 2.4212699776210143e-8 -0.7644995535084013 -0.6446242569787879
vn -2.4212699776210143e-8 0.7644995535084013 0.6446242569787879
vn -3.721035323181551e-8 -0.07844639637072166 -0.9969183331128215
vn 3.721035323181551e-8 0.07844639637072166 0.9969183331128215
vn 0.6226592208371827 -0.7644995513668376 -0.1668410341203161
vn 0.6446242569787878 -0.7644995535084015 2.4212699606457147e-8
vn -0.6446242569787878 0.7644995535084015 -2.4212699606457147e-8
vn -0.6226592208371827 0.7644995513668376 0.1668410341203161
vn 0.6226592366051587 -0.7644995400472943 0.16684102714187682
vn -0.6226592366051587 0.7644995400472943 -0.16684102714187682
vn 0.5582609616717559 -0.7644995731347191 0.322312117907718
vn -0.5582609616717559 0.7644995731347191 -0.322312117907718
vn 0.4558181844759178 -0.7644995400472944 0.45581820495517017
vn -0.4558181844759178 0.7644995400472944 -0.45581820495517017
vn 0.16684102714187699 -0.7644995400472941 -0.6226592366051589
vn -0.16684102714187699 0.7644995400472941 0.6226592366051589
vn 0.32231211790771447 -0.7644995731347188 -0.5582609616717582
vn -0.32231211790771447 0.7644995731347188 0.5582609616717582
vn 0.45581820495517034 -0.7644995400472941 -0.455818184475918
vn -0.45581820495517034 0.7644995400472941 0.455818184475918
vn 0.558260971552719 -0.7644995535084014 -0.32231214734550273
vn -0.558260971552719 0.7644995535084014 0.32231214734550273
vn 0.825089660987516 -0.3038136486818875 0.4763657399583901
vn 0.7140100116199509 -0.5659089469665268 0.4122338742142792
vn -0.7140100116199509 0.5659089469665268 -0.4122338742142792
vn -0.825089660987516 0.3038136486818875 -0.4763657399583901
vn 0.7049277443898947 -0.07844639806070704 0.7049276826885692
vn -0.7049277443898947 0.07844639806070704 -0.7049276826885692
vn 0.41223387421429153 -0.5659089469665266 -0.7140100116199439
vn 0.4763657399583809 -0.3038136486818872 -0.8250896609875215
vn -0.4763657399583809 0.3038136486818872 0.8250896609875215
vn -0.41223387421429153 0.5659089469665266 0.7140100116199439
vn 0.25802149677404956 -0.07844639806070666 -0.9629491522576777
vn -0.25802149677404956 0.07844639806070666 0.9629491522576777
vn 0.7963746788184052 -0.5659089622377103 -0.21338795044687925
vn 0.8244677481769009 -0.565908943396471 5.977752509023745e-9
vn -0.8244677481769009 0.565908943396471 -5.977752509023745e-9
vn -0.7963746788184052 0.5659089622377103 0.21338795044687925
vn 0.7963747005942311 -0.5659089392701787 0.21338793008872406
vn -0.7963747005942311 0.5659089392701787 -0.21338793008872406
vn 0.5829867588077456 -0.5659089392701785 -0.5829867164086509
vn -0.5829867588077456 0.5659089392701785 0.5829867164086509
vn 0.714010013093345 -0.5659089433964709 -0.4122338765632091
vn -0.714010013093345 0.5659089433964709 0.4122338765632091
vn 0.9202679456811768 -0.30381363921143023 0.24658503762567094
vn -0.9202679456811768 0.30381363921143023 -0.24658503762567094
vn 0.8633566008591855 -0.07844639889118306 0.4984591680909064
vn -0.8633566008591855 0.07844639889118306 -0.4984591680909064
vn 0.6736829029850931 -0.30381363921143 -0.6736828770680496
vn -0.6736829029850931 0.30381363921143 0.6736828770680496
vn 0.49845916809090607 -0.07844639889118275 -0.8633566008591856
vn -0.49845916809090607 0.07844639889118275 0.8633566008591856
vn 0.9527314820802288 -0.3038136321056212 -2.240448039849724e-8
vn 0.9202679397861832 -0.30381364749535733 -0.24658504941958884
vn -0.9202679397861832 0.30381364749535733 0.24658504941958884
vn -0.9527314820802288 0.3038136321056212 2.240448039849724e-8
vn 0.8250896794716941 -0.3038136321056211 -0.47636571851476417
vn -0.8250896794716941 0.3038136321056211 0.47636571851476417
vn 0.9629491522576777 -0.07844639806070694 0.2580214967740495
vn -0.9629491522576777 0.07844639806070694 -0.2580214967740495
vn 0.8660254028383291 0 0.5000000016387101
vn -0.8660254028383291 0 -0.5000000016387101
vn 0.7049276826885692 -0.07844639806070672 -0.7049277443898947
vn -0.7049276826885692 0.07844639806070672 0.7049277443898947
vn 0.9969183331128215 -0.07844639637072189 -3.7210353249234115e-8
vn 0.9629491654831159 -0.07844639189538873 -0.2580214492904917
vn -0.9629491654831159 0.07844639189538873 0.2580214492904917
vn -0.9969183331128215 0.07844639637072189 3.7210353249234115e-8
vn 0.8633566224657053 -0.07844639637072177 -0.4984591310639794
vn -0.8633566224657053 0.07844639637072177 0.4984591310639794
usemtl material_0_0
f 1//1 2//2 3//3
f 2//2 1//1 4//4
f 5//5 6//6 7//7
f 8//8 7//7 6//6
f 9//9 2//2 4//4
f 2//2 9//9 10//10
f 11//11 12//12 7//7
f 5//5 7//7 12//12
f 13//13 3//3 2//2
f 3//3 13//13 14//14
f 15//15 16//16 8//8
f 7//7 8//8 16//16
f 17//17 3//3 18//18
f 3//3 17//17 1//1
f 6//6 19//19 8//8
f 20//20 8//8 19//19
f 21//21 4//4 1//1
f 4//4 21//21 22//22
f 23//23 24//24 5//5
f 6//6 5//5 24//24
f 25//25 10//10 9//9
f 10//10 25//25 26//26
f 27//27 28//28 11//11
f 12//12 11//11 28//28
f 29//29 2//2 10//10
f 2//2 29//29 13//13
f 16//16 30//30 7//7
f 11//11 7//7 30//30
f 31//31 4//4 22//22
f 4//4 31//31 9//9
f 12//12 32//32 5//5
f 23//23 5//5 32//32
f 33//33 14//14 13//13
f 14//14 33//33 34//34
f 35//35 36//36 15//15
f 16//16 15//15 36//36
f 18//18 14//14 37//37
f 14//14 18//18 3//3
f 8//8 20//20 15//15
f 38//38 15//15 20//20
f 39//39 18//18 40//40
f 18//18 39//39 17//17
f 19//19 41//41 20//20
f 42//42 20//20 41//41
f 43//43 1//1 17//17
f 1//1 43//43 21//21
f 24//24 44//44 6//6
f 19//19 6//6 44//44
f 45//45 22//22 21//21
f 22//22 45//45 46//46
f 47//47 48//48 23//23
f 24//24 23//23 48//48
f 49//49 26//26 25//25
f 26//26 49//49 50//50
f 51//51 52//52 27//27
f 28//28 27//27 52//52
f 26//26 29//29 10//10
f 29//29 26//26 53//53
f 54//54 27//27 30//30
f 11//11 30//30 27//27
f 55//55 9//9 31//31
f 9//9 55//55 25//25
f 28//28 56//56 12//12
f 32//32 12//12 56//56
f 57//57 13//13 29//29
f 13//13 57//57 33//33
f 36//36 58//58 16//16
f 30//30 16//16 58//58
f 59//59 22//22 46//46
f 22//22 59//59 31//31
f 32//32 60//60 23//23
f 47//47 23//23 60//60
f 61//61 34//34 33//33
f 34//34 61//61 62//62
f 63//63 64//64 35//35
f 36//36 35//35 64//64
f 34//34 37//37 14//14
f 37//37 34//34 65//65
f 66//66 35//35 38//38
f 15//15 38//38 35//35
f 40//40 37//37 67//67
f 37//37 40//40 18//18
f 20//20 42//42 38//38
f 68//68 38//38 42//42
f 69//69 40//40 70//70
f 40//40 69//69 39//39
f 41//41 71//71 42//42
f 72//72 42//42 71//71
f 73//73 17//17 39//39
f 17//17 73//73 43//43
f 44//44 74//74 19//19
f 41//41 19//19 74//74
f 75//75 21//21 43//43
f 21//21 75//75 45//45
f 48//48 76//76 24//24
f 44//44 24//24 76//76
f 77//77 50//50 49//49
f 50//50 77//77 78//78
f 79//79 80//80 51//51
f 52//52 51//51 80//80
f 50//50 53//53 26//26
f 53//53 50//50 81//81
f 82//82 51//51 54//54
f 27//27 54//54 51//51
f 83//83 25//25 55//55
f 25//25 83//83 49//49
f 52//52 84//84 28//28
f 56//56 28//28 84//84
f 85//85 29//29 53//53
f 29//29 85//85 57//57
f 58//58 86//86 30//30
f 54//54 30//30 86//86
f 87//87 31//31 59//59
f 31//31 87//87 55//55
f 56//56 88//88 32//32
f 60//60 32//32 88//88
f 89//89 33//33 57//57
f 33//33 89//89 61//61
f 64//64 90//90 36//36
f 58//58 36//36 90//90
f 91//91 62//62 61//61
f 62//62 91//91 92//92
f 93//93 94//94 63//63
f 64//64 63//63 94//94
f 62//62 65//65 34//34
f 65//65 62//62 95//95
f 96//96 63//63 66//66
f 35//35 66//66 63//63
f 65//65 67//67 37//37
f 67//67 65//65 97//97
f 98//98 66//66 68//68
f 38//38 68//68 66//66
f 70//70 67//67 99//99
f 67//67 70//70 40//40
f 42//42 72//72 68//68
f 100//100 68//68 72//72
f 101//101 70//70 102//102
f 70//70 101//101 69//69
f 71//71 103//103 72//72
f 104//104 72//72 103//103
f 105//105 39//39 69//69
f 39//39 105//105 73//73
f 74//74 106//106 41//41
f 71//71 41//41 106//106
f 107//107 43//43 73//73
f 43//43 107//107 75//75
f 76//76 108//108 44//44
f 74//74 44//44 108//108
f 77//77 109//109 78//78
f 109//109 77//77 110//110
f 111//111 80//80 112//112
f 79//79 112//112 80//80
f 78//78 81//81 50//50
f 81//81 78//78 113//113
f 114//114 79//79 82//82
f 51//51 82//82 79//79
f 115//115 49//49 83//83
f 49//49 115//115 77//77
f 80//80 116//116 52//52
f 84//84 52//52 116//116
f 117//117 53//53 81//81
f 53//53 117//117 85//85
f 86//86 118//118 54//54
f 82//82 54//54 118//118
f 119//119 55//55 87//87
f 55//55 119//119 83//83
f 84//84 120//120 56//56
f 88//88 56//56 120//120
f 121//121 57//57 85//85
f 57//57 121//121 89//89
f 90//90 122//122 58//58
f 86//86 58//58 122//122
f 123//123 61//61 89//89
f 61//61 123//123 91//91
f 94//94 124//124 64//64
f 90//90 64//64 124//124
f 125//125 126//126 127//127
f 126//126 125//125 123//123
f 123//123 125//125 128//128
f 123//123 128//128 91//91
f 91//91 128//128 129//129
f 91//91 129//129 92//92
f 92//92 129//129 130//130
f 92//92 130//130 131//131
f 92//92 131//131 132//132
f 132//132 131//131 133//133
f 133//133 131//131 134//134
f 133//133 134//134 135//135
f 135//135 134//134 136//136
f 135//135 136//136 137//137
f 135//135 137//137 138//138
f 138//138 137//137 139//139
f 138//138 139//139 140//140
f 140//140 139//139 141//141
f 140//140 141//141 142//142
f 142//142 141//141 143//143
f 142//142 143//143 144//144
f 144//144 143//143 145//145
f 146//146 147//147 148//148
f 148//148 147//147 149//149
f 147//147 150//150 149//149
f 149//149 150//150 151//151
f 150//150 152//152 151//151
f 151//151 152//152 153//153
f 152//152 154//154 153//153
f 153//153 154//154 155//155
f 154//154 156//156 155//155
f 156//156 157//157 155//155
f 155//155 157//157 158//158
f 157//157 159//159 158//158
f 158//158 159//159 160//160
f 160//160 159//159 93//93
f 159//159 161//161 93//93
f 161//161 162//162 93//93
f 93//93 162//162 94//94
f 162//162 163//163 94//94
f 94//94 163//163 124//124
f 163//163 164//164 124//124
f 124//124 164//164 165//165
f 166//166 165//165 164//164
f 92//92 95//95 62//62
f 95//95 92//92 132//132
f 160//160 93//93 96//96
f 63//63 96//96 93//93
f 95//95 97//97 65//65
f 97//97 95//95 167//167
f 168//168 96//96 98//98
f 66//66 98//98 96//96
f 97//97 99//99 67//67
f 99//99 97//97 169//169
f 170//170 98//98 100//100
f 68//68 100//100 98//98
f 102//102 99//99 171//171
f 99//99 102//102 70//70
f 72//72 104//104 100//100
f 172//172 100//100 104//104
f 173//173 102//102 174//174
f 102//102 173//173 101//101
f 103//103 175//175 104//104
f 176//176 104//104 175//175
f 177//177 69//69 101//101
f 69//69 177//177 105//105
f 106//106 178//178 71//71
f 103//103 71//71 178//178
f 179//179 73//73 105//105
f 73//73 179//179 107//107
f 108//108 180//180 74//74
f 106//106 74//74 180//180
f 110//110 181//181 109//109
f 181//181 110//110 182//182
f 183//183 111//111 184//184
f 112//112 184//184 111//111
f 78//78 185//185 113//113
f 185//185 78//78 109//109
f 112//112 79//79 186//186
f 114//114 186//186 79//79
f 115//115 110//110 77//77
f 110//110 115//115 187//187
f 188//188 116//116 111//111
f 80//80 111//111 116//116
f 113//113 117//117 81//81
f 117//117 113//113 189//189
f 190//190 114//114 118//118
f 82//82 118//118 114//114
f 191//191 83//83 119//119
f 83//83 191//191 115//115
f 116//116 192//192 84//84
f 120//120 84//84 192//192
f 193//193 85//85 117//117
f 85//85 193//193 121//121
f 122//122 194//194 86//86
f 118//118 86//86 194//194
f 126//126 89//89 121//121
f 89//89 126//126 123//123
f 124//124 165//165 90//90
f 122//122 90//90 165//165
f 195//195 141//141 139//139
f 141//141 195//195 196//196
f 197//197 198//198 150//150
f 152//152 150//150 198//198
f 196//196 143//143 141//141
f 143//143 196//196 199//199
f 200//200 197//197 147//147
f 150//150 147//147 197//197
f 199//199 145//145 143//143
f 145//145 199//199 201//201
f 202//202 200//200 146//146
f 147//147 146//146 200//200
f 145//145 203//203 144//144
f 203//203 145//145 201//201
f 202//202 146//146 204//204
f 148//148 204//204 146//146
f 144//144 205//205 142//142
f 205//205 144//144 203//203
f 204//204 148//148 206//206
f 149//149 206//206 148//148
f 142//142 207//207 140//140
f 207//207 142//142 205//205
f 206//206 149//149 208//208
f 151//151 208//208 149//149
f 140//140 209//209 138//138
f 209//209 140//140 207//207
f 208//208 151//151 210//210
f 153//153 210//210 151//151
f 138//138 211//211 135//135
f 211//211 138//138 209//209
f 210//210 153//153 212//212
f 155//155 212//212 153//153
f 135//135 167//167 133//133
f 167//167 135//135 211//211
f 212//212 155//155 168//168
f 158//158 168//168 155//155
f 132//132 167//167 95//95
f 167//167 132//132 133//133
f 158//158 160//160 168//168
f 96//96 168//168 160//160
f 127//127 121//121 193//193
f 121//121 127//127 126//126
f 165//165 166//166 122//122
f 194//194 122//122 166//166
f 213//213 127//127 193//193
f 127//127 213//213 125//125
f 164//164 214//214 166//166
f 194//194 166//166 214//214
f 215//215 125//125 213//213
f 125//125 215//215 128//128
f 163//163 216//216 164//164
f 214//214 164//164 216//216
f 217//217 128//128 215//215
f 128//128 217//217 129//129
f 162//162 218//218 163//163
f 216//216 163//163 218//218
f 219//219 129//129 217//217
f 129//129 219//219 130//130
f 161//161 220//220 162//162
f 218//218 162//162 220//220
f 221//221 130//130 219//219
f 130//130 221//221 131//131
f 159//159 222//222 161//161
f 220//220 161//161 222//222
f 223//223 131//131 221//221
f 131//131 223//223 134//134
f 157//157 224//224 159//159
f 222//222 159//159 224//224
f 225//225 134//134 223//223
f 134//134 225//225 136//136
f 156//156 226//226 157//157
f 224//224 157//157 226//226
f 225//225 137//137 136//136
f 137//137 225//225 227//227
f 228//228 226//226 154//154
f 156//156 154//154 226//226
f 227//227 139//139 137//137
f 139//139 227//227 195//195
f 198//198 228//228 152//152
f 154//154 152//152 228//228
f 211//211 97//97 167//167
f 97//97 211//211 169//169
f 170//170 212//212 98//98
f 168//168 98//98 212//212
f 229//229 99//99 169//169
f 99//99 229//229 171//171
f 172//172 230//230 100//100
f 170//170 100//100 230//230
f 231//231 102//102 171//171
f 102//102 231//231 174//174
f 176//176 232//232 104//104
f 172//172 104//104 232//232
f 174//174 233//233 173//173
f 233//233 174//174 234//234
f 235//235 176//176 236//236
f 175//175 236//236 176//176
f 237//237 101//101 173//173
f 101//101 237//237 177//177
f 178//178 238//238 103//103
f 175//175 103//103 238//238
f 239//239 105//105 177//177
f 105//105 239//239 179//179
f 180//180 240//240 106//106
f 178//178 106//106 240//240
f 182//182 241//241 181//181
f 241//241 182//182 242//242
f 243//243 183//183 244//244
f 184//184 244//244 183//183
f 181//181 185//185 109//109
f 185//185 181//181 245//245
f 246//246 184//184 186//186
f 112//112 186//186 184//184
f 187//187 182//182 110//110
f 182//182 187//187 247//247
f 248//248 188//188 183//183
f 111//111 183//183 188//188
f 185//185 189//189 113//113
f 189//189 185//185 249//249
f 250//250 186//186 190//190
f 114//114 190//190 186//186
f 251//251 115//115 191//191
f 115//115 251//251 187//187
f 188//188 252//252 116//116
f 192//192 116//116 252//252
f 189//189 193//193 117//117
f 193//193 189//189 213//213
f 214//214 190//190 194//194
f 118//118 194//194 190//190
f 253//253 196//196 195//195
f 196//196 253//253 254//254
f 255//255 256//256 197//197
f 198//198 197//197 256//256
f 254//254 199//199 196//196
f 199//199 254//254 257//257
f 258//258 255//255 200//200
f 197//197 200//200 255//255
f 257//257 201//201 199//199
f 201//201 257//257 259//259
f 260//260 258//258 202//202
f 200//200 202//202 258//258
f 201//201 261//261 203//203
f 261//261 201//201 259//259
f 260//260 202//202 262//262
f 204//204 262//262 202//202
f 203//203 263//263 205//205
f 263//263 203//203 261//261
f 262//262 204//204 264//264
f 206//206 264//264 204//204
f 205//205 265//265 207//207
f 265//265 205//205 263//263
f 264//264 206//206 266//266
f 208//208 266//266 206//206
f 207//207 229//229 209//209
f 229//229 207//207 265//265
f 266//266 208//208 230//230
f 210//210 230//230 208//208
f 209//209 169//169 211//211
f 169//169 209//209 229//229
f 230//230 210//210 170//170
f 212//212 170//170 210//210
f 249//249 213//213 189//189
f 213//213 249//249 215//215
f 216//216 250//250 214//214
f 190//190 214//214 250//250
f 267//267 215//215 249//249
f 215//215 267//267 217//217
f 218//218 268//268 216//216
f 250//250 216//216 268//268
f 269//269 217//217 267//267
f 217//217 269//269 219//219
f 220//220 270//270 218//218
f 268//268 218//218 270//270
f 271//271 219//219 269//269
f 219//219 271//271 221//221
f 222//222 272//272 220//220
f 270//270 220//220 272//272
f 273//273 221//221 271//271
f 221//221 273//273 223//223
f 224//224 274//274 222//222
f 272//272 222//222 274//274
f 275//275 223//223 273//273
f 223//223 275//275 225//225
f 226//226 276//276 224//224
f 274//274 224//224 276//276
f 275//275 227//227 225//225
f 227//227 275//275 277//277
f 278//278 276//276 228//228
f 226//226 228//228 276//276
f 277//277 195//195 227//227
f 195//195 277//277 253//253
f 256//256 278//278 198//198
f 228//228 198//198 278//278
f 265//265 171//171 229//229
f 171//171 265//265 231//231
f 232//232 266//266 172//172
f 230//230 172//172 266//266
f 279//279 174//174 231//231
f 174//174 279//279 234//234
f 235//235 280//280 176//176
f 232//232 176//176 280//280
f 234//234 281//281 233//233
f 281//281 234//234 282//282
f 283//283 235//235 284//284
f 236//236 284//284 235//235
f 173//173 285//285 237//237
f 285//285 173//173 233//233
f 236//236 175//175 286//286
f 238//238 286//286 175//175
f 287//287 177//177 237//237
f 177//177 287//287 239//239
f 240//240 288//288 178//178
f 238//238 178//178 288//288
f 242//242 289//289 241//241
f 289//289 242//242 290//290
f 291//291 243//243 292//292
f 244//244 292//292 243//243
f 241//241 245//245 181//181
f 245//245 241//241 293//293
f 294//294 244//244 246//246
f 184//184 246//246 244//244
f 247//247 242//242 182//182
f 242//242 247//247 295//295
f 296//296 248//248 243//243
f 183//183 243//243 248//248
f 245//245 249//249 185//185
f 249//249 245//245 267//267
f 268//268 246//246 250//250
f 186//186 250//250 246//246
f 297//288 187//187 251//251
f 187//187 297//288 247//247
f 248//248 298//287 188//188
f 252//252 188//188 298//287
f 299//297 254//254 253//253
f 254//254 299//297 300//298
f 301//299 302//300 255//255
f 256//256 255//255 302//300
f 300//298 257//257 254//254
f 257//257 300//298 303//301
f 304//302 301//299 258//258
f 255//255 258//258 301//299
f 303//301 259//259 257//257
f 259//259 303//301 305//303
f 306//304 304//302 260//260
f 258//258 260//260 304//302
f 259//259 307//305 261//261
f 307//305 259//259 305//303
f 306//304 260//260 308//306
f 262//262 308//306 260//260
f 261//261 279//279 263//263
f 279//279 261//261 307//305
f 308//306 262//262 280//280
f 264//264 280//280 262//262
f 263//263 231//231 265//265
f 231//231 263//263 279//279
f 280//280 264//264 232//232
f 266//266 232//232 264//264
f 293//293 267//267 245//245
f 267//267 293//293 269//269
f 270//270 294//294 268//268
f 246//246 268//268 294//294
f 309//307 269//269 293//293
f 269//269 309//307 271//271
f 272//272 310//308 270//270
f 294//294 270//270 310//308
f 311//309 271//271 309//307
f 271//271 311//309 273//273
f 274//274 312//310 272//272
f 310//308 272//272 312//310
f 313//311 273//273 311//309
f 273//273 313//311 275//275
f 276//276 314//312 274//274
f 312//310 274//274 314//312
f 313//311 277//277 275//275
f 277//277 313//311 315//313
f 316//314 314//312 278//278
f 276//276 278//278 314//312
f 315//313 253//253 277//277
f 253//253 315//313 299//297
f 302//300 316//314 256//256
f 278//278 256//256 316//314
f 279//279 282//282 234//234
f 282//282 279//279 307//305
f 308//306 280//280 283//283
f 235//235 283//283 280//280
f 282//282 317//315 281//281
f 317//315 282//282 318//316
f 319//317 283//283 320//318
f 284//284 320//318 283//283
f 233//233 321//319 285//285
f 321//319 233//233 281//281
f 284//284 236//236 322//320
f 286//286 322//320 236//236
f 285//285 287//287 237//237
f 287//287 285//285 323//252
f 324//251 286//286 288//288
f 238//238 288//288 286//286
f 290//290 325//321 289//289
f 325//321 290//290 326//322
f 327//323 291//291 328//324
f 292//292 328//324 291//291
f 241//241 309//307 293//293
f 309//307 241//241 289//289
f 292//292 244//244 310//308
f 294//294 310//308 244//244
f 295//295 290//290 242//242
f 290//290 295//295 329//325
f 330//326 296//296 291//291
f 243//243 291//291 296//296
f 297//288 295//295 247//247
f 295//295 297//288 331//240
f 332//239 298//287 296//296
f 248//248 296//296 298//287
f 333//327 300//298 299//297
f 300//298 333//327 334//328
f 335//329 336//330 301//299
f 302//300 301//299 336//330
f 300//298 337//331 303//301
f 337//331 300//298 334//328
f 335//329 301//299 338//332
f 304//302 338//332 301//299
f 303//301 318//316 305//303
f 318//316 303//301 337//331
f 338//332 304//302 319//317
f 306//304 319//317 304//302
f 307//305 318//316 282//282
f 318//316 307//305 305//303
f 306//304 308//306 319//317
f 283//283 319//317 308//306
f 289//289 311//309 309//307
f 311//309 289//289 325//321
f 328//324 292//292 312//310
f 310//308 312//310 292//292
f 325//321 313//311 311//309
f 313//311 325//321 339//333
f 340//334 328//324 314//312
f 312//310 314//312 328//324
f 339//333 315//313 313//311
f 315//313 339//333 341//335
f 342//336 340//334 316//314
f 314//312 316//314 340//334
f 341//335 299//297 315//313
f 299//297 341//335 333//327
f 336//330 342//336 302//300
f 316//314 302//300 342//336
f 318//316 343//337 317//315
f 343//337 318//316 337//331
f 338//332 319//317 344//338
f 320//318 344//338 319//317
f 281//281 345//339 321//319
f 345//339 281//281 317//315
f 320//318 284//284 346//340
f 322//320 346//340 284//284
f 321//319 323//252 285//285
f 323//252 321//319 347//192
f 348//191 322//320 324//251
f 286//286 324//251 322//320
f 326//322 339//333 325//321
f 339//333 326//322 349//341
f 350//342 327//323 340//334
f 328//324 340//334 327//323
f 329//325 326//322 290//290
f 326//322 329//325 351//343
f 352//344 330//326 327//323
f 291//291 327//323 330//326
f 331//240 329//325 295//295
f 329//325 331//240 353//180
f 354//179 332//239 330//326
f 296//296 330//326 332//239
f 333//327 355//345 334//328
f 355//345 333//327 356//346
f 357//347 336//330 358//348
f 335//329 358//348 336//330
f 334//328 343//337 337//331
f 343//337 334//328 355//345
f 358//348 335//329 344//338
f 338//332 344//338 335//329
f 349//341 341//335 339//333
f 341//335 349//341 359//349
f 360//350 350//342 342//336
f 340//334 342//336 350//342
f 359//349 333//327 341//335
f 333//327 359//349 356//346
f 357//347 360//350 336//330
f 342//336 336//330 360//350
f 317//315 361//351 345//339
f 361//351 317//315 343//337
f 344//338 320//318 362//352
f 346//340 362//352 320//318
f 345//339 347//192 321//319
f 347//192 345//339 363//353
f 364//354 346//340 348//191
f 322//320 348//191 346//340
f 351//343 349//341 326//322
f 349//341 351//343 365//355
f 366//356 352//344 350//342
f 327//323 350//342 352//344
f 353//180 351//343 329//325
f 351//343 353//180 367//108
f 368//107 354//179 352//344
f 330//326 352//344 354//179
f 356//346 369//357 355//345
f 369//357 356//346 370//358
f 371//359 357//347 372//360
f 358//348 372//360 357//347
f 355//345 361//351 343//337
f 361//351 355//345 369//357
f 372//360 358//348 362//352
f 344//338 362//352 358//348
f 365//355 359//349 349//341
f 359//349 365//355 373//361
f 374//362 366//356 360//350
f 350//342 360//350 366//356
f 373//361 356//346 359//349
f 356//346 373//361 370//358
f 371//359 374//362 357//347
f 360//350 357//347 374//362
f 361//351 363//353 345//339
f 363//353 361//351 375//88
f 376//87 362//352 364//354
f 346//340 364//354 362//352
f 367//108 365//355 351//343
f 365//355 367//108 377//76
f 378//75 368//107 366//356
f 352//344 366//356 368//107
f 370//358 379//60 369//357
f 379//60 370//358 380//47
f 381//46 371//359 382//59
f 372//360 382//59 371//359
f 369//357 375//88 361//351
f 375//88 369//357 379//60
f 382//59 372//360 376//87
f 362//352 376//87 372//360
f 377//76 373//361 365//355
f 373//361 377//76 383//48
f 384//45 378//75 374//362
f 366//356 374//362 378//75
f 383//48 370//358 373//361
f 370//358 383//48 380//47
f 381//46 384//45 371//359
f 374//362 371//359 384//45
