# SSTK version 0.8.0
# 9
mtllib original-9.mtl
o #ID241
v -0.340555 0.236199 -0.083370
v -0.350577 0.236199 0.332633
v -0.350577 0.236199 -0.019709
v -0.350577 0.236199 0.400937
v -0.348249 0.236199 0.418616
v -0.341426 0.236199 0.435089
v -0.330571 0.236199 0.449235
v -0.318774 0.236199 -0.144023
v -0.316425 0.236199 0.460090
v -0.286006 0.236199 -0.199516
v -0.299951 0.236199 0.466914
v -0.282273 0.236199 0.469241
v -0.243415 0.236199 -0.247881
v 0.264159 0.236199 0.469241
v -0.192511 0.236199 -0.287402
v -0.135099 0.236199 -0.316678
v -0.073216 0.236199 -0.334669
v -0.009057 0.236199 -0.340737
v 0.055102 0.236199 -0.334669
v 0.116985 0.236199 -0.316678
v 0.174397 0.236199 -0.287402
v 0.225302 0.236199 -0.247881
v 0.267893 0.236199 -0.199516
v 0.281838 0.236199 0.466914
v 0.300660 0.236199 -0.144023
v 0.298311 0.236199 0.460090
v 0.312458 0.236199 0.449235
v 0.322441 0.236199 -0.083370
v 0.323312 0.236199 0.435089
v 0.332463 0.236199 -0.019709
v 0.330136 0.236199 0.418616
v 0.332463 0.236199 0.400937
v 0.332463 0.236199 0.332633
v 0.332463 0.236199 0.332633
v 0.332463 0.236199 -0.019709
v 0.332463 0.236199 0.400937
v 0.330136 0.236199 0.418616
v 0.323312 0.236199 0.435089
v 0.322441 0.236199 -0.083370
v 0.312458 0.236199 0.449235
v 0.300660 0.236199 -0.144023
v 0.298311 0.236199 0.460090
v 0.281838 0.236199 0.466914
v 0.267893 0.236199 -0.199516
v 0.264159 0.236199 0.469241
v 0.225302 0.236199 -0.247881
v 0.174397 0.236199 -0.287402
v 0.116985 0.236199 -0.316678
v 0.055102 0.236199 -0.334669
v -0.009057 0.236199 -0.340737
v -0.073216 0.236199 -0.334669
v -0.135099 0.236199 -0.316678
v -0.192511 0.236199 -0.287402
v -0.243415 0.236199 -0.247881
v -0.282273 0.236199 0.469241
v -0.286006 0.236199 -0.199516
v -0.299951 0.236199 0.466914
v -0.316425 0.236199 0.460090
v -0.318774 0.236199 -0.144023
v -0.330571 0.236199 0.449235
v -0.340555 0.236199 -0.083370
v -0.341426 0.236199 0.435089
v -0.348249 0.236199 0.418616
v -0.350577 0.236199 0.400937
v -0.350577 0.236199 0.332633
v -0.350577 0.236199 -0.019709
v 0.322441 0.236199 -0.083370
v 0.332463 -0.542467 -0.019709
v 0.332463 0.236199 -0.019709
v 0.322441 -0.542467 -0.083370
v 0.322441 -0.542467 -0.083370
v 0.322441 0.236199 -0.083370
v 0.332463 -0.542467 -0.019709
v 0.332463 0.236199 -0.019709
v 0.332463 -0.542467 0.332633
v 0.332463 0.236199 0.332633
v 0.332463 -0.542467 0.332633
v 0.332463 0.236199 0.332633
v -0.350577 -0.542467 -0.019709
v -0.350577 0.236199 0.332633
v -0.350577 -0.542467 0.332633
v -0.350577 0.236199 -0.019709
v -0.350577 0.236199 -0.019709
v -0.350577 -0.542467 -0.019709
v -0.350577 0.236199 0.332633
v -0.350577 -0.542467 0.332633
v -0.340555 -0.542467 -0.083370
v -0.340555 0.236199 -0.083370
v -0.340555 0.236199 -0.083370
v -0.340555 -0.542467 -0.083370
v -0.318774 -0.542467 -0.144023
v -0.318774 0.236199 -0.144023
v -0.318774 0.236199 -0.144023
v -0.318774 -0.542467 -0.144023
v -0.286006 -0.542467 -0.199516
v -0.286006 0.236199 -0.199516
v -0.286006 0.236199 -0.199516
v -0.286006 -0.542467 -0.199516
v -0.243415 -0.542467 -0.247881
v -0.243415 0.236199 -0.247881
v -0.243415 0.236199 -0.247881
v -0.243415 -0.542467 -0.247881
v -0.192511 0.236199 -0.287402
v -0.192511 -0.542467 -0.287402
v -0.192511 0.236199 -0.287402
v -0.192511 -0.542467 -0.287402
v -0.135099 0.236199 -0.316678
v -0.135099 -0.542467 -0.316678
v -0.135099 0.236199 -0.316678
v -0.135099 -0.542467 -0.316678
v -0.073216 0.236199 -0.334669
v -0.073216 -0.542467 -0.334669
v -0.073216 0.236199 -0.334669
v -0.073216 -0.542467 -0.334669
v -0.009057 0.236199 -0.340737
v -0.009057 -0.542467 -0.340737
v -0.009057 0.236199 -0.340737
v -0.009057 -0.542467 -0.340737
v 0.055102 0.236199 -0.334669
v 0.055102 -0.542467 -0.334669
v 0.055102 0.236199 -0.334669
v 0.055102 -0.542467 -0.334669
v 0.116985 0.236199 -0.316678
v 0.116985 -0.542467 -0.316678
v 0.116985 0.236199 -0.316678
v 0.116985 -0.542467 -0.316678
v 0.174397 0.236199 -0.287402
v 0.174397 -0.542467 -0.287402
v 0.174397 0.236199 -0.287402
v 0.174397 -0.542467 -0.287402
v 0.225302 0.236199 -0.247881
v 0.225302 -0.542467 -0.247881
v 0.225302 0.236199 -0.247881
v 0.225302 -0.542467 -0.247881
v 0.267893 -0.542467 -0.199516
v 0.267893 0.236199 -0.199516
v 0.267893 -0.542467 -0.199516
v 0.267893 0.236199 -0.199516
v 0.300660 -0.542467 -0.144023
v 0.300660 0.236199 -0.144023
v 0.300660 -0.542467 -0.144023
v 0.300660 0.236199 -0.144023
vn 0 -1 0
vn 0 1 0
vn -0.968799494294793 0 0.2478457985404497
vn -0.9969538521637129 0 0.07799369625767147
vn 0.968799494294793 0 -0.2478457985404497
vn 0.9969538521637129 0 -0.07799369625767147
vn -1 0 0
vn 1 0 0
vn 0.9969538521637129 0 0.07799369625767147
vn -0.9969538521637129 0 -0.07799369625767147
vn 0.968799494294793 0 0.2478457985404497
vn -0.968799494294793 0 -0.2478457985404497
vn 0.9051448341067948 0 0.4251033160183333
vn -0.9051448341067948 0 -0.4251033160183333
vn 0.8093826867431817 0 0.5872815903809588
vn -0.8093826867431817 0 -0.5872815903809588
vn 0.6849099885937522 0 0.7286276878656932
vn -0.6849099885937522 0 -0.7286276878656932
vn 0.5361420747677472 0 0.8441277602731327
vn -0.5361420747677472 0 -0.8441277602731327
vn 0.36835600550930936 0 0.9296848139048126
vn -0.36835600550930936 0 -0.9296848139048126
vn 0.18750360288228948 0 0.9822639150992777
vn -0.18750360288228948 0 -0.9822639150992777
vn 0 0 1
vn 0 0 -1
vn -0.18750360288228948 0 0.9822639150992777
vn 0.18750360288228948 0 -0.9822639150992777
vn -0.36835600550930936 0 0.9296848139048126
vn 0.36835600550930936 0 -0.9296848139048126
vn -0.5361420747677472 0 0.8441277602731327
vn 0.5361420747677472 0 -0.8441277602731327
vn -0.6849099885937522 0 0.7286276878656932
vn 0.6849099885937522 0 -0.7286276878656932
vn -0.8093826867431817 0 0.5872815903809588
vn 0.8093826867431817 0 -0.5872815903809588
vn -0.9051448341067948 0 0.4251033160183333
vn 0.9051448341067948 0 -0.4251033160183333
usemtl material_0_0
f 1//1 2//1 3//1
f 2//1 1//1 4//1
f 4//1 1//1 5//1
f 5//1 1//1 6//1
f 6//1 1//1 7//1
f 7//1 1//1 8//1
f 7//1 8//1 9//1
f 9//1 8//1 10//1
f 9//1 10//1 11//1
f 11//1 10//1 12//1
f 12//1 10//1 13//1
f 12//1 13//1 14//1
f 14//1 13//1 15//1
f 14//1 15//1 16//1
f 14//1 16//1 17//1
f 14//1 17//1 18//1
f 14//1 18//1 19//1
f 14//1 19//1 20//1
f 14//1 20//1 21//1
f 14//1 21//1 22//1
f 14//1 22//1 23//1
f 14//1 23//1 24//1
f 24//1 23//1 25//1
f 24//1 25//1 26//1
f 26//1 25//1 27//1
f 27//1 25//1 28//1
f 27//1 28//1 29//1
f 29//1 28//1 30//1
f 29//1 30//1 31//1
f 31//1 30//1 32//1
f 32//1 30//1 33//1
f 34//2 35//2 36//2
f 36//2 35//2 37//2
f 37//2 35//2 38//2
f 35//2 39//2 38//2
f 38//2 39//2 40//2
f 39//2 41//2 40//2
f 40//2 41//2 42//2
f 42//2 41//2 43//2
f 41//2 44//2 43//2
f 43//2 44//2 45//2
f 44//2 46//2 45//2
f 46//2 47//2 45//2
f 47//2 48//2 45//2
f 48//2 49//2 45//2
f 49//2 50//2 45//2
f 50//2 51//2 45//2
f 51//2 52//2 45//2
f 52//2 53//2 45//2
f 53//2 54//2 45//2
f 45//2 54//2 55//2
f 54//2 56//2 55//2
f 55//2 56//2 57//2
f 57//2 56//2 58//2
f 56//2 59//2 58//2
f 58//2 59//2 60//2
f 59//2 61//2 60//2
f 60//2 61//2 62//2
f 62//2 61//2 63//2
f 63//2 61//2 64//2
f 64//2 61//2 65//2
f 66//2 65//2 61//2
f 67//3 68//4 69//4
f 68//4 67//3 70//3
f 71//5 72//5 73//6
f 74//6 73//6 72//5
f 69//4 75//7 76//7
f 75//7 69//4 68//4
f 73//6 74//6 77//8
f 78//8 77//8 74//6
f 79//9 80//8 81//8
f 80//8 79//9 82//9
f 83//10 84//10 85//7
f 86//7 85//7 84//10
f 87//11 82//9 79//9
f 82//9 87//11 88//11
f 89//12 90//12 83//10
f 84//10 83//10 90//12
f 91//13 88//11 87//11
f 88//11 91//13 92//13
f 93//14 94//14 89//12
f 90//12 89//12 94//14
f 95//15 92//13 91//13
f 92//13 95//15 96//15
f 97//16 98//16 93//14
f 94//14 93//14 98//16
f 99//17 96//15 95//15
f 96//15 99//17 100//17
f 101//18 102//18 97//16
f 98//16 97//16 102//18
f 103//19 99//17 104//19
f 99//17 103//19 100//17
f 101//18 105//20 102//18
f 106//20 102//18 105//20
f 107//21 104//19 108//21
f 104//19 107//21 103//19
f 105//20 109//22 106//20
f 110//22 106//20 109//22
f 111//23 108//21 112//23
f 108//21 111//23 107//21
f 109//22 113//24 110//22
f 114//24 110//22 113//24
f 115//25 112//23 116//25
f 112//23 115//25 111//23
f 113//24 117//26 114//24
f 118//26 114//24 117//26
f 119//27 116//25 120//27
f 116//25 119//27 115//25
f 117//26 121//28 118//26
f 122//28 118//26 121//28
f 123//29 120//27 124//29
f 120//27 123//29 119//27
f 121//28 125//30 122//28
f 126//30 122//28 125//30
f 127//31 124//29 128//31
f 124//29 127//31 123//29
f 125//30 129//32 126//30
f 130//32 126//30 129//32
f 131//33 128//31 132//33
f 128//31 131//33 127//31
f 129//32 133//34 130//32
f 134//34 130//32 133//34
f 131//33 135//35 136//35
f 135//35 131//33 132//33
f 134//34 133//34 137//36
f 138//36 137//36 133//34
f 136//35 139//37 140//37
f 139//37 136//35 135//35
f 137//36 138//36 141//38
f 142//38 141//38 138//36
f 140//37 70//3 67//3
f 70//3 140//37 139//37
f 141//38 142//38 71//5
f 72//5 71//5 142//38
