# SSTK version 0.8.0
# 103
mtllib original-103.mtl
o #ID484
v -0.322818 -0.522474 0.080060
v -0.316456 -0.519629 0.162428
v -0.327300 -0.519629 0.080060
v -0.312127 -0.522474 0.161268
v -0.312127 -0.522474 0.161268
v -0.322818 -0.522474 0.080060
v -0.316456 -0.519629 0.162428
v -0.327300 -0.519629 0.080060
v -0.312127 -0.522474 -0.001147
v -0.316456 -0.519629 -0.002307
v -0.312127 -0.522474 -0.001147
v -0.316456 -0.519629 -0.002307
v -0.317599 -0.524263 0.080060
v -0.307086 -0.524263 0.159917
v -0.307086 -0.524263 0.159917
v -0.317599 -0.524263 0.080060
v -0.284663 -0.519629 0.239182
v -0.280782 -0.522474 0.236941
v -0.280782 -0.522474 0.236941
v -0.284663 -0.519629 0.239182
v -0.319777 -0.515922 0.163318
v -0.330738 -0.515922 0.080060
v -0.319777 -0.515922 0.163318
v -0.330738 -0.515922 0.080060
v -0.280782 -0.522474 -0.076820
v -0.284663 -0.519629 -0.079061
v -0.280782 -0.522474 -0.076820
v -0.284663 -0.519629 -0.079061
v -0.307086 -0.524263 0.000204
v -0.307086 -0.524263 0.000204
v -0.319777 -0.515922 -0.003197
v -0.319777 -0.515922 -0.003197
v -0.311999 -0.524872 0.080060
v -0.301676 -0.524872 0.158467
v -0.301676 -0.524872 0.158467
v -0.311999 -0.524872 0.080060
v -0.276262 -0.524263 0.234332
v -0.276262 -0.524263 0.234332
v -0.234088 -0.519629 0.305092
v -0.230919 -0.522474 0.301923
v -0.230919 -0.522474 0.301923
v -0.234088 -0.519629 0.305092
v -0.287641 -0.515922 0.240901
v -0.287641 -0.515922 0.240901
v -0.332900 -0.511605 0.080060
v -0.321865 -0.511605 0.163877
v -0.332900 -0.511605 0.080060
v -0.321865 -0.511605 0.163877
v -0.234088 -0.519629 -0.144971
v -0.230920 -0.522474 -0.141802
v -0.230920 -0.522474 -0.141802
v -0.234088 -0.519629 -0.144971
v -0.276262 -0.524263 -0.074211
v -0.276262 -0.524263 -0.074211
v -0.287641 -0.515922 -0.080780
v -0.287641 -0.515922 -0.080780
v -0.301676 -0.524872 0.001653
v -0.301676 -0.524872 0.001653
v -0.321865 -0.511605 -0.003756
v -0.321865 -0.511605 -0.003756
v -0.160528 -0.524872 -0.182295
v -0.243403 -0.524872 -0.055239
v -0.223269 -0.524872 -0.134152
v -0.200400 -0.524872 -0.111283
v -0.087464 -0.524872 -0.212559
v -0.144357 -0.524872 -0.154286
v -0.079093 -0.524872 -0.181319
v -0.009057 -0.524872 -0.222882
v -0.009057 -0.524872 -0.190539
v 0.069350 -0.524872 -0.212559
v 0.060980 -0.524872 -0.181319
v 0.142414 -0.524872 -0.182295
v 0.126243 -0.524872 -0.154286
v 0.182286 -0.524872 -0.111282
v 0.205156 -0.524872 -0.134152
v 0.225289 -0.524872 -0.055239
v 0.253299 -0.524872 -0.071411
v 0.252322 -0.524872 0.010024
v 0.283563 -0.524872 0.001653
v 0.261543 -0.524872 0.080060
v 0.293885 -0.524872 0.080060
v 0.252322 -0.524872 0.150097
v 0.225289 -0.524872 0.215360
v 0.283563 -0.524872 0.158467
v -0.271412 -0.524872 -0.071411
v -0.270436 -0.524872 0.010024
v -0.279656 -0.524872 0.080060
v -0.270436 -0.524872 0.150097
v -0.271412 -0.524872 0.231531
v -0.243403 -0.524872 0.215360
v -0.223269 -0.524872 0.294273
v -0.200400 -0.524872 0.271403
v -0.160528 -0.524872 0.342416
v -0.144357 -0.524872 0.314406
v -0.079093 -0.524872 0.341439
v -0.087464 -0.524872 0.372680
v -0.009057 -0.524872 0.350660
v -0.009057 -0.524872 0.383002
v 0.060980 -0.524872 0.341440
v 0.069350 -0.524872 0.372680
v 0.126243 -0.524872 0.314406
v 0.142414 -0.524872 0.342416
v 0.182286 -0.524872 0.271403
v 0.205155 -0.524872 0.294273
v 0.253299 -0.524872 0.231531
v 0.253299 -0.524872 0.231531
v 0.283563 -0.524872 0.158467
v 0.205155 -0.524872 0.294273
v 0.225289 -0.524872 0.215360
v 0.142414 -0.524872 0.342416
v 0.182286 -0.524872 0.271403
v 0.126243 -0.524872 0.314406
v 0.069350 -0.524872 0.372680
v 0.060980 -0.524872 0.341440
v -0.009057 -0.524872 0.383002
v -0.009057 -0.524872 0.350660
v -0.087464 -0.524872 0.372680
v -0.079093 -0.524872 0.341439
v -0.160528 -0.524872 0.342416
v -0.144357 -0.524872 0.314406
v -0.200400 -0.524872 0.271403
v -0.223269 -0.524872 0.294273
v -0.243403 -0.524872 0.215360
v -0.271412 -0.524872 0.231531
v -0.270436 -0.524872 0.150097
v -0.279656 -0.524872 0.080060
v -0.270436 -0.524872 0.010024
v -0.243403 -0.524872 -0.055239
v -0.223269 -0.524872 -0.134152
v -0.271412 -0.524872 -0.071411
v 0.293885 -0.524872 0.080060
v 0.252322 -0.524872 0.150097
v 0.261543 -0.524872 0.080060
v 0.283563 -0.524872 0.001653
v 0.252322 -0.524872 0.010024
v 0.253299 -0.524872 -0.071411
v 0.225289 -0.524872 -0.055239
v 0.205156 -0.524872 -0.134152
v 0.182286 -0.524872 -0.111282
v 0.142414 -0.524872 -0.182295
v 0.126243 -0.524872 -0.154286
v 0.060980 -0.524872 -0.181319
v 0.069350 -0.524872 -0.212559
v -0.009057 -0.524872 -0.190539
v -0.009057 -0.524872 -0.222882
v -0.079093 -0.524872 -0.181319
v -0.087464 -0.524872 -0.212559
v -0.144357 -0.524872 -0.154286
v -0.200400 -0.524872 -0.111283
v -0.160528 -0.524872 -0.182295
v -0.227229 -0.524263 0.298233
v -0.227229 -0.524263 0.298233
v -0.168178 -0.519629 0.355667
v -0.165937 -0.522474 0.351786
v -0.165937 -0.522474 0.351786
v -0.168178 -0.519629 0.355667
v -0.236520 -0.515922 0.307524
v -0.236520 -0.515922 0.307524
v -0.289513 -0.511605 0.241982
v -0.289513 -0.511605 0.241982
v -0.333637 -0.506971 0.080060
v -0.322578 -0.506971 0.164068
v -0.333637 -0.506971 0.080060
v -0.322578 -0.506971 0.164068
v -0.168178 -0.519629 -0.195546
v -0.165937 -0.522474 -0.191665
v -0.165937 -0.522474 -0.191665
v -0.168178 -0.519629 -0.195546
v -0.227229 -0.524263 -0.138112
v -0.227229 -0.524263 -0.138112
v -0.236520 -0.515922 -0.147403
v -0.236520 -0.515922 -0.147403
v -0.289513 -0.511605 -0.081861
v -0.289513 -0.511605 -0.081861
v -0.322578 -0.506971 -0.003947
v -0.322578 -0.506971 -0.003947
v 0.145214 -0.524263 0.347266
v 0.209116 -0.524263 0.298233
v 0.209116 -0.524263 0.298233
v 0.145214 -0.524263 0.347266
v 0.070800 -0.524263 0.378089
v 0.070800 -0.524263 0.378089
v -0.009057 -0.524263 0.388603
v -0.009057 -0.524263 0.388603
v -0.088913 -0.524263 0.378089
v -0.088913 -0.524263 0.378089
v -0.163328 -0.524263 0.347266
v -0.163328 -0.524263 0.347266
v -0.163328 -0.524263 -0.187145
v -0.163328 -0.524263 -0.187145
v -0.088913 -0.524263 -0.217969
v -0.088913 -0.524263 -0.217969
v -0.009057 -0.524263 -0.228482
v -0.009057 -0.524263 -0.228482
v 0.070800 -0.524263 -0.217969
v 0.070800 -0.524263 -0.217969
v 0.145214 -0.524263 -0.187145
v 0.145214 -0.524263 -0.187145
v 0.209116 -0.524263 -0.138112
v 0.209116 -0.524263 -0.138112
v 0.258149 -0.524263 -0.074211
v 0.258149 -0.524263 -0.074211
v 0.288972 -0.524263 0.000204
v 0.288972 -0.524263 0.000204
v 0.299486 -0.524263 0.080060
v 0.299486 -0.524263 0.080060
v 0.288972 -0.524263 0.159917
v 0.288972 -0.524263 0.159917
v 0.258149 -0.524263 0.234332
v 0.258149 -0.524263 0.234332
v -0.091424 -0.519629 0.387459
v -0.090264 -0.522474 0.383130
v -0.090264 -0.522474 0.383130
v -0.091424 -0.519629 0.387459
v -0.169898 -0.515922 0.358645
v -0.169898 -0.515922 0.358645
v -0.238049 -0.511605 0.309052
v -0.238049 -0.511605 0.309052
v -0.290152 -0.506971 0.242351
v -0.290152 -0.506971 0.242351
v -0.333637 -0.469336 0.080060
v -0.322578 -0.469336 0.164068
v -0.333637 -0.469336 0.080060
v -0.322578 -0.469336 0.164068
v -0.091424 -0.519629 -0.227339
v -0.090264 -0.522474 -0.223010
v -0.090264 -0.522474 -0.223010
v -0.091424 -0.519629 -0.227339
v -0.169898 -0.515922 -0.198524
v -0.169898 -0.515922 -0.198524
v -0.238049 -0.511605 -0.148931
v -0.238049 -0.511605 -0.148931
v -0.290152 -0.506971 -0.082230
v -0.290152 -0.506971 -0.082230
v -0.322578 -0.469336 -0.003947
v -0.322578 -0.469336 -0.003947
v 0.147824 -0.522474 0.351786
v 0.212806 -0.522474 0.301923
v 0.212806 -0.522474 0.301923
v 0.147824 -0.522474 0.351786
v 0.072151 -0.522474 0.383131
v 0.072151 -0.522474 0.383131
v -0.009057 -0.522474 0.393822
v -0.009057 -0.522474 0.393822
v -0.009057 -0.522474 -0.233701
v -0.009057 -0.522474 -0.233701
v 0.072151 -0.522474 -0.223010
v 0.072151 -0.522474 -0.223010
v 0.147824 -0.522474 -0.191665
v 0.147824 -0.522474 -0.191665
v 0.212806 -0.522474 -0.141802
v 0.212806 -0.522474 -0.141802
v 0.262669 -0.522474 -0.076820
v 0.262669 -0.522474 -0.076820
v 0.294013 -0.522474 -0.001147
v 0.294013 -0.522474 -0.001147
v 0.304705 -0.522474 0.080060
v 0.304705 -0.522474 0.080060
v 0.294013 -0.522474 0.161268
v 0.294013 -0.522474 0.161268
v 0.262668 -0.522474 0.236941
v 0.262668 -0.522474 0.236941
v -0.009057 -0.519629 0.398303
v -0.009057 -0.519629 0.398303
v -0.092314 -0.515922 0.390781
v -0.092314 -0.515922 0.390781
v -0.170978 -0.511605 0.360517
v -0.170978 -0.511605 0.360517
v -0.238570 -0.506971 0.309573
v -0.238570 -0.506971 0.309573
v -0.290152 -0.469336 0.242351
v -0.290152 -0.469336 0.242351
v -0.009057 -0.519629 -0.238183
v -0.009057 -0.519629 -0.238183
v -0.092314 -0.515922 -0.230660
v -0.092314 -0.515922 -0.230660
v -0.170978 -0.511605 -0.200396
v -0.170978 -0.511605 -0.200396
v -0.238570 -0.506971 -0.149453
v -0.238570 -0.506971 -0.149453
v -0.290152 -0.469336 -0.082230
v -0.290152 -0.469336 -0.082230
v 0.150065 -0.519629 0.355667
v 0.215975 -0.519629 0.305092
v 0.215975 -0.519629 0.305092
v 0.150065 -0.519629 0.355667
v 0.073310 -0.519629 0.387459
v 0.073310 -0.519629 0.387459
v 0.073311 -0.519629 -0.227339
v 0.073311 -0.519629 -0.227339
v 0.150065 -0.519629 -0.195546
v 0.150065 -0.519629 -0.195546
v 0.215975 -0.519629 -0.144971
v 0.215975 -0.519629 -0.144971
v 0.266550 -0.519629 -0.079061
v 0.266550 -0.519629 -0.079061
v 0.298342 -0.519629 -0.002307
v 0.298342 -0.519629 -0.002307
v 0.309186 -0.519629 0.080060
v 0.309186 -0.519629 0.080060
v 0.298342 -0.519629 0.162428
v 0.298342 -0.519629 0.162428
v 0.266550 -0.519629 0.239182
v 0.266550 -0.519629 0.239182
v -0.009057 -0.515922 0.401742
v -0.009057 -0.515922 0.401742
v -0.092874 -0.511605 0.392869
v -0.092874 -0.511605 0.392869
v -0.171347 -0.506971 0.361155
v -0.171347 -0.506971 0.361155
v -0.238570 -0.469336 0.309573
v -0.238570 -0.469336 0.309573
v -0.009057 -0.515922 -0.241621
v -0.009057 -0.515922 -0.241621
v -0.092874 -0.511605 -0.232748
v -0.092874 -0.511605 -0.232748
v -0.171347 -0.506971 -0.201035
v -0.171347 -0.506971 -0.201035
v -0.238570 -0.469336 -0.149453
v -0.238570 -0.469336 -0.149453
v 0.218406 -0.515922 0.307524
v 0.151784 -0.515922 0.358645
v 0.218406 -0.515922 0.307524
v 0.151784 -0.515922 0.358645
v 0.074201 -0.515922 0.390781
v 0.074201 -0.515922 0.390781
v 0.074201 -0.515922 -0.230660
v 0.074201 -0.515922 -0.230660
v 0.151784 -0.515922 -0.198524
v 0.151784 -0.515922 -0.198524
v 0.218406 -0.515922 -0.147403
v 0.218406 -0.515922 -0.147403
v 0.269528 -0.515922 -0.080780
v 0.269528 -0.515922 -0.080780
v 0.301664 -0.515922 -0.003197
v 0.301664 -0.515922 -0.003197
v 0.312625 -0.515922 0.080060
v 0.312625 -0.515922 0.080060
v 0.301664 -0.515922 0.163318
v 0.301664 -0.515922 0.163318
v 0.269528 -0.515922 0.240901
v 0.269528 -0.515922 0.240901
v -0.009057 -0.511605 0.403904
v -0.009057 -0.511605 0.403904
v -0.093064 -0.506971 0.393581
v -0.093064 -0.506971 0.393581
v -0.171347 -0.469336 0.361155
v -0.171347 -0.469336 0.361155
v -0.009057 -0.511605 -0.243783
v -0.009057 -0.511605 -0.243783
v -0.093064 -0.506971 -0.233461
v -0.093064 -0.506971 -0.233461
v -0.171347 -0.469336 -0.201035
v -0.171347 -0.469336 -0.201035
v 0.219935 -0.511605 0.309052
v 0.152865 -0.511605 0.360517
v 0.219935 -0.511605 0.309052
v 0.152865 -0.511605 0.360517
v 0.074760 -0.511605 0.392869
v 0.074760 -0.511605 0.392869
v 0.074760 -0.511605 -0.232748
v 0.074760 -0.511605 -0.232748
v 0.152865 -0.511605 -0.200396
v 0.152865 -0.511605 -0.200396
v 0.219935 -0.511605 -0.148931
v 0.219935 -0.511605 -0.148931
v 0.271400 -0.511605 -0.081861
v 0.271400 -0.511605 -0.081861
v 0.303752 -0.511605 -0.003756
v 0.303752 -0.511605 -0.003756
v 0.314787 -0.511605 0.080060
v 0.314787 -0.511605 0.080060
v 0.303752 -0.511605 0.163877
v 0.303752 -0.511605 0.163877
v 0.271400 -0.511605 0.241982
v 0.271400 -0.511605 0.241982
v -0.009057 -0.506971 0.404641
v -0.009057 -0.506971 0.404641
v -0.093064 -0.469336 0.393581
v -0.093064 -0.469336 0.393581
v -0.009057 -0.506971 -0.244520
v -0.009057 -0.506971 -0.244520
v -0.093064 -0.469336 -0.233461
v -0.093064 -0.469336 -0.233461
v 0.220456 -0.506971 0.309574
v 0.153234 -0.506971 0.361155
v 0.220456 -0.506971 0.309574
v 0.153234 -0.506971 0.361155
v 0.074951 -0.506971 0.393581
v 0.074951 -0.506971 0.393581
v 0.074951 -0.506971 -0.233460
v 0.074951 -0.506971 -0.233460
v 0.153234 -0.506971 -0.201035
v 0.153234 -0.506971 -0.201035
v 0.220456 -0.506971 -0.149453
v 0.220456 -0.506971 -0.149453
v 0.272038 -0.506971 -0.082230
v 0.272038 -0.506971 -0.082230
v 0.304464 -0.506971 -0.003947
v 0.304464 -0.506971 -0.003947
v 0.315524 -0.506971 0.080060
v 0.315524 -0.506971 0.080060
v 0.304464 -0.506971 0.164068
v 0.304464 -0.506971 0.164068
v 0.272038 -0.506971 0.242351
v 0.272038 -0.506971 0.242351
v -0.009057 -0.469336 0.404641
v -0.009057 -0.469336 0.404641
v -0.009057 -0.469336 -0.244520
v -0.009057 -0.469336 -0.244520
v 0.153234 -0.469336 0.361155
v 0.220456 -0.469336 0.309574
v 0.220456 -0.469336 0.309574
v 0.153234 -0.469336 0.361155
v 0.074951 -0.469336 0.393581
v 0.074951 -0.469336 0.393581
v 0.074951 -0.469336 -0.233460
v 0.074951 -0.469336 -0.233460
v 0.153234 -0.469336 -0.201035
v 0.153234 -0.469336 -0.201035
v 0.220456 -0.469336 -0.149453
v 0.220456 -0.469336 -0.149453
v 0.272038 -0.469336 -0.082230
v 0.272038 -0.469336 -0.082230
v 0.304464 -0.469336 -0.003947
v 0.304464 -0.469336 -0.003947
v 0.315524 -0.469336 0.080060
v 0.315524 -0.469336 0.080060
v 0.304464 -0.469336 0.164068
v 0.304464 -0.469336 0.164068
v 0.272038 -0.469336 0.242351
v 0.272038 -0.469336 0.242351
vn -0.4397966616689243 -0.8980973757810833 3.640684270419528e-8
vn -0.6226592208371827 -0.7644995513668376 0.16684103412031576
vn -0.6446242569787878 -0.7644995535084015 -2.4212699945963153e-8
vn -0.4248109168288266 -0.8980973946446767 0.11382774123866049
vn 0.4248109168288266 0.8980973946446767 -0.11382774123866049
vn 0.4397966616689243 0.8980973757810833 -3.640684270419528e-8
vn 0.6226592208371827 0.7644995513668376 -0.16684103412031576
vn 0.6446242569787878 0.7644995535084015 2.4212699945963153e-8
vn -0.4248109592259037 -0.8980973680898261 -0.11382779252755061
vn -0.6226592366051587 -0.7644995400472943 -0.16684102714187715
vn 0.4248109592259037 0.8980973680898261 0.11382779252755061
vn 0.6226592366051587 0.7644995400472943 0.16684102714187715
vn -0.2257177407225133 -0.9741927435179978 -2.198772563629965e-8
vn -0.21802663865092214 -0.9741927331256314 0.058420061312812306
vn 0.21802663865092214 0.9741927331256314 -0.058420061312812306
vn 0.2257177407225133 0.9741927435179978 2.198772563629965e-8
vn -0.558260971552719 -0.7644995535084016 0.3223121473455024
vn -0.38087510054049134 -0.8980973757810833 0.21989829786381265
vn 0.38087510054049134 0.8980973757810833 -0.21989829786381265
vn 0.558260971552719 0.7644995535084016 -0.3223121473455024
vn -0.7963746788184052 -0.5659089622377103 0.21338795044687903
vn -0.8244677481769009 -0.565908943396471 -5.977752760337801e-9
vn 0.7963746788184052 0.5659089622377103 -0.21338795044687903
vn 0.8244677481769009 0.565908943396471 5.977752760337801e-9
vn -0.38087506136466187 -0.898097386934183 -0.2198983201674301
vn -0.5582609616717544 -0.7644995731347188 -0.3223121179077209
vn 0.38087506136466187 0.898097386934183 0.2198983201674301
vn 0.5582609616717544 0.7644995731347188 0.3223121179077209
vn -0.21802661224792175 -0.974192739322367 -0.05842005651552332
vn 0.21802661224792175 0.974192739322367 0.05842005651552332
vn -0.796374700594231 -0.5659089392701786 -0.21338793008872423
vn 0.796374700594231 0.5659089392701786 0.21338793008872423
vn -0.05868208005737804 -0.9982767218963585 -1.6620626303756565e-9
vn -0.05668253289066771 -0.9982767221279716 0.015188038798048337
vn 0.05668253289066771 0.9982767221279716 -0.015188038798048337
vn 0.05868208005737804 0.9982767218963585 1.6620626303756565e-9
vn -0.19547728698377065 -0.9741927435179978 0.11285888866341343
vn 0.19547728698377065 0.9741927435179978 -0.11285888866341343
vn -0.45581820495517034 -0.7644995400472944 0.45581818447591765
vn -0.3109831874087898 -0.8980973680898262 0.31098323842161796
vn 0.3109831874087898 0.8980973680898262 -0.31098323842161796
vn 0.45581820495517034 0.7644995400472944 -0.45581818447591765
vn -0.714010013093345 -0.5659089433964711 0.41223387656320887
vn 0.714010013093345 0.5659089433964711 -0.41223387656320887
vn -0.9527314820802288 -0.3038136321056212 2.2404480263576884e-8
vn -0.9202679397861832 -0.30381364749535744 0.24658504941958873
vn 0.9527314820802288 0.3038136321056212 -2.2404480263576884e-8
vn 0.9202679397861832 0.30381364749535744 -0.24658504941958873
vn -0.4558181844759178 -0.7644995400472941 -0.4558182049551705
vn -0.3109832384216182 -0.898097368089826 -0.31098318740879
vn 0.3109832384216182 0.898097368089826 0.31098318740879
vn 0.4558181844759178 0.7644995400472941 0.4558182049551705
vn -0.19547726664376666 -0.9741927517296851 -0.11285885301041206
vn 0.19547726664376666 0.9741927517296851 0.11285885301041206
vn -0.7140100116199479 -0.5659089469665267 -0.41223387421428487
vn 0.7140100116199479 0.5659089469665267 0.41223387421428487
vn -0.056682538022980795 -0.9982767218545767 -0.015188037613640983
vn 0.056682538022980795 0.9982767218545767 0.015188037613640983
vn -0.920267945681177 -0.3038136392114302 -0.2465850376256711
vn 0.920267945681177 0.3038136392114302 0.2465850376256711
vn -0.029341041275751465 -0.9982767218963585 -0.050820171356609954
vn 0 -1 0
vn -0.0414944952615035 -0.9982767218545767 -0.04149449922909195
vn -0.01518803879804856 -0.9982767221279716 -0.05668253289066793
vn 1.6620624087136962e-9 -0.9982767218963585 -0.05868208005737826
vn 0.01518803761364076 -0.9982767218545767 -0.05668253802298101
vn 0.029341038786252466 -0.9982767220537334 -0.05082016970255895
vn 0.04149449922909173 -0.9982767218545767 -0.04149449526150372
vn 0.05082017135660974 -0.9982767218963585 -0.02934104127575169
vn 0.05668253289066771 -0.9982767221279716 -0.015188038798048782
vn 0.05868208005737804 -0.9982767218963585 1.662062187051736e-9
vn 0.056682538022980795 -0.9982767218545767 0.015188037613640537
vn -0.05082016970255926 -0.9982767220537334 -0.029341038786251765
vn -0.05082017135660974 -0.9982767218963585 0.029341041275751243
vn -0.04149449922909173 -0.9982767218545767 0.04149449526150328
vn -0.029341038786251786 -0.9982767220537334 0.0508201697025589
vn -0.01518803761364076 -0.9982767218545767 0.05668253802298057
vn -1.6620624087136962e-9 -0.9982767218963585 0.05868208005737782
vn 0.01518803879804856 -0.9982767221279716 0.05668253289066749
vn 0.029341041275751465 -0.9982767218963585 0.05082017135660952
vn 0.0414944952615035 -0.9982767218545767 0.04149449922909151
vn 0.050820169702558954 -0.9982767220537334 0.029341038786251845
vn -0.050820169702558954 0.9982767220537334 -0.029341038786251845
vn -0.056682538022980795 0.9982767218545767 -0.015188037613640537
vn -0.0414944952615035 0.9982767218545767 -0.04149449922909151
vn 0 1 0
vn -0.029341041275751465 0.9982767218963585 -0.05082017135660952
vn -0.01518803879804856 0.9982767221279716 -0.05668253289066749
vn 1.6620624087136962e-9 0.9982767218963585 -0.05868208005737782
vn 0.01518803761364076 0.9982767218545767 -0.05668253802298057
vn 0.029341038786251786 0.9982767220537334 -0.0508201697025589
vn 0.04149449922909173 0.9982767218545767 -0.04149449526150328
vn 0.05082017135660974 0.9982767218963585 -0.029341041275751243
vn 0.0414944952615035 0.9982767218545767 0.04149449922909195
vn 0.05082016970255926 0.9982767220537334 0.029341038786251765
vn -0.05868208005737804 0.9982767218963585 -1.662062187051736e-9
vn -0.05668253289066771 0.9982767221279716 0.015188038798048782
vn -0.05082017135660974 0.9982767218963585 0.02934104127575169
vn -0.04149449922909173 0.9982767218545767 0.04149449526150372
vn -0.029341038786252466 0.9982767220537334 0.05082016970255895
vn -0.01518803761364076 0.9982767218545767 0.05668253802298101
vn -1.6620624087136962e-9 0.9982767218963585 0.05868208005737826
vn 0.01518803879804856 0.9982767221279716 0.05668253289066793
vn 0.029341041275751465 0.9982767218963585 0.050820171356609954
vn -0.15960655725401934 -0.974192739322367 0.15960655855290506
vn 0.15960655725401934 0.974192739322367 -0.15960655855290506
vn -0.3223121179077192 -0.7644995731347191 0.5582609616717551
vn -0.21989832016743235 -0.8980973869341831 0.38087506136466026
vn 0.21989832016743235 0.8980973869341831 -0.38087506136466026
vn 0.3223121179077192 0.7644995731347191 -0.5582609616717551
vn -0.5829867588077456 -0.5659089392701787 0.5829867164086506
vn 0.5829867588077456 0.5659089392701787 -0.5829867164086506
vn -0.8250896794716941 -0.30381363210562135 0.47636571851476406
vn 0.8250896794716941 0.30381363210562135 -0.47636571851476406
vn -0.9969183331128215 -0.07844639637072189 3.7210353214396914e-8
vn -0.9629491654831159 -0.07844639189538884 0.25802144929049164
vn 0.9969183331128215 0.07844639637072189 -3.7210353214396914e-8
vn 0.9629491654831159 0.07844639189538884 -0.25802144929049164
vn -0.32231214734550256 -0.7644995535084014 -0.5582609715527193
vn -0.21989829786381285 -0.8980973757810832 -0.38087510054049156
vn 0.21989829786381285 0.8980973757810832 0.38087510054049156
vn 0.32231214734550256 0.7644995535084014 0.5582609715527193
vn -0.1596065585529053 -0.974192739322367 -0.15960655725401957
vn 0.1596065585529053 0.974192739322367 0.15960655725401957
vn -0.5829867164086509 -0.5659089392701786 -0.5829867588077459
vn 0.5829867164086509 0.5659089392701786 0.5829867588077459
vn -0.8250896609875158 -0.30381364868188726 -0.47636573995839065
vn 0.8250896609875158 0.30381364868188726 0.47636573995839065
vn -0.9629491522576777 -0.07844639806070682 -0.25802149677404956
vn 0.9629491522576777 0.07844639806070682 0.25802149677404956
vn 0.11285888866341365 -0.9741927435179978 0.19547728698377043
vn 0.1596065585529053 -0.974192739322367 0.15960655725401915
vn -0.1596065585529053 0.974192739322367 -0.15960655725401915
vn -0.11285888866341365 0.9741927435179978 -0.19547728698377043
vn 0.058420061312812514 -0.9741927331256314 0.21802663865092192
vn -0.058420061312812514 0.9741927331256314 -0.21802663865092192
vn -2.1987725419985415e-8 -0.974192743517998 0.22571774072251316
vn 2.1987725419985415e-8 0.974192743517998 -0.22571774072251316
vn -0.05842005651552311 -0.974192739322367 0.21802661224792153
vn 0.05842005651552311 0.974192739322367 -0.21802661224792153
vn -0.11285885301041278 -0.9741927517296851 0.1954772666437659
vn 0.11285885301041278 0.9741927517296851 -0.1954772666437659
vn -0.11285888866341365 -0.9741927435179978 -0.19547728698377084
vn 0.11285888866341365 0.9741927435179978 0.19547728698377084
vn -0.0584200613128125 -0.9741927331256311 -0.2180266386509223
vn 0.0584200613128125 0.9741927331256311 0.2180266386509223
vn 2.1987725419985408e-8 -0.9741927435179978 -0.22571774072251352
vn -2.1987725419985408e-8 0.9741927435179978 0.22571774072251352
vn 0.05842005651552311 -0.974192739322367 -0.21802661224792197
vn -0.05842005651552311 0.974192739322367 0.21802661224792197
vn 0.11285885301041183 -0.9741927517296851 -0.19547726664376688
vn -0.11285885301041183 0.9741927517296851 0.19547726664376688
vn 0.15960655725401934 -0.974192739322367 -0.1596065585529055
vn -0.15960655725401934 0.974192739322367 0.1596065585529055
vn 0.19547728698377065 -0.9741927435179978 -0.11285888866341386
vn -0.19547728698377065 0.9741927435179978 0.11285888866341386
vn 0.21802663865092214 -0.9741927331256314 -0.05842006131281273
vn -0.21802663865092214 0.9741927331256314 0.05842006131281273
vn 0.2257177407225133 -0.9741927435179978 2.1987725203671166e-8
vn -0.2257177407225133 0.9741927435179978 -2.1987725203671166e-8
vn 0.21802661224792175 -0.974192739322367 0.05842005651552289
vn -0.21802661224792175 0.974192739322367 -0.05842005651552289
vn 0.1954772666437658 -0.9741927517296851 0.1128588530104131
vn -0.1954772666437658 0.9741927517296851 -0.1128588530104131
vn -0.16684102714187699 -0.7644995400472944 0.6226592366051584
vn -0.1138277925275504 -0.8980973680898262 0.42481095922590345
vn 0.1138277925275504 0.8980973680898262 -0.42481095922590345
vn 0.16684102714187699 0.7644995400472944 -0.6226592366051584
vn -0.4122338742142823 -0.5659089469665268 0.714010011619949
vn 0.4122338742142823 0.5659089469665268 -0.714010011619949
vn -0.6736829029850931 -0.30381363921143034 0.6736828770680494
vn 0.6736829029850931 0.30381363921143034 -0.6736828770680494
vn -0.8633566224657053 -0.078446396370722 0.4984591310639794
vn 0.8633566224657053 0.078446396370722 -0.4984591310639794
vn -1 0 0
vn -0.9659258267788108 0 0.2588190432747773
vn 1 0 0
vn 0.9659258267788108 0 -0.2588190432747773
vn -0.16684103412031592 -0.7644995513668374 -0.622659220837183
vn -0.11382774123866068 -0.8980973946446766 -0.4248109168288268
vn 0.11382774123866068 0.8980973946446766 0.4248109168288268
vn 0.16684103412031592 0.7644995513668374 0.622659220837183
vn -0.412233876563209 -0.5659089433964709 -0.7140100130933451
vn 0.412233876563209 0.5659089433964709 0.7140100130933451
vn -0.6736828770680495 -0.30381363921143 -0.6736829029850933
vn 0.6736828770680495 0.30381363921143 0.6736829029850933
vn -0.8633566008591882 -0.07844639889118282 -0.4984591680909017
vn 0.8633566008591882 0.07844639889118282 0.4984591680909017
vn -0.9659258162847283 0 -0.258819082439223
vn 0.9659258162847283 0 0.258819082439223
vn 0.21989829786381285 -0.8980973757810834 0.3808751005404911
vn 0.3109832384216182 -0.8980973680898262 0.31098318740878955
vn -0.3109832384216182 0.8980973680898262 -0.31098318740878955
vn -0.21989829786381285 0.8980973757810834 -0.3808751005404911
vn 0.11382774123866068 -0.8980973946446769 0.42481091682882643
vn -0.11382774123866068 0.8980973946446769 -0.42481091682882643
vn 3.640684290361296e-8 -0.8980973757810834 0.43979666166892406
vn -3.640684290361296e-8 0.8980973757810834 -0.43979666166892406
vn -3.640684290361296e-8 -0.8980973757810832 -0.4397966616689245
vn 3.640684290361296e-8 0.8980973757810832 0.4397966616689245
vn 0.1138277925275504 -0.898097368089826 -0.4248109592259039
vn -0.1138277925275504 0.898097368089826 0.4248109592259039
vn 0.21989832016743666 -0.8980973869341828 -0.38087506136465826
vn -0.21989832016743666 0.8980973869341828 0.38087506136465826
vn 0.3109831874087898 -0.898097368089826 -0.3109832384216184
vn -0.3109831874087898 0.898097368089826 0.3109832384216184
vn 0.38087510054049134 -0.8980973757810833 -0.21989829786381304
vn -0.38087510054049134 0.8980973757810833 0.21989829786381304
vn 0.4248109168288266 -0.8980973946446767 -0.11382774123866089
vn -0.4248109168288266 0.8980973946446767 0.11382774123866089
vn 0.4397966616689243 -0.8980973757810833 -3.640684310303064e-8
vn -0.4397966616689243 0.8980973757810833 3.640684310303064e-8
vn 0.4248109592259037 -0.8980973680898261 0.11382779252755021
vn -0.4248109592259037 0.8980973680898261 -0.11382779252755021
vn 0.3808750613646605 -0.898097386934183 0.21989832016743216
vn -0.3808750613646605 0.898097386934183 -0.21989832016743216
vn -2.421269977621015e-8 -0.7644995535084016 0.6446242569787876
vn 2.421269977621015e-8 0.7644995535084016 -0.6446242569787876
vn -0.21338793008872411 -0.5659089392701788 0.7963747005942309
vn 0.21338793008872411 0.5659089392701788 -0.7963747005942309
vn -0.47636573995838616 -0.30381364868188754 0.8250896609875182
vn 0.47636573995838616 0.30381364868188754 -0.8250896609875182
vn -0.7049276826885692 -0.07844639806070704 0.7049277443898947
vn 0.7049276826885692 0.07844639806070704 -0.7049277443898947
vn -0.866025405676658 0 0.4999999967225799
vn 0.866025405676658 0 -0.4999999967225799
vn 2.4212699776210143e-8 -0.7644995535084013 -0.6446242569787879
vn -2.4212699776210143e-8 0.7644995535084013 0.6446242569787879
vn -0.21338795044687914 -0.56590896223771 -0.7963746788184053
vn 0.21338795044687914 0.56590896223771 0.7963746788184053
vn -0.47636571851476406 -0.303813632105621 -0.825089679471694
vn 0.47636571851476406 0.303813632105621 0.825089679471694
vn -0.7049277443898947 -0.07844639806070672 -0.7049276826885692
vn 0.7049277443898947 0.07844639806070672 0.7049276826885692
vn -0.8660254028383294 0 -0.5000000016387094
vn 0.8660254028383294 0 0.5000000016387094
vn 0.32231214734550256 -0.7644995535084016 0.5582609715527188
vn 0.4558181844759178 -0.7644995400472944 0.45581820495517017
vn -0.4558181844759178 0.7644995400472944 -0.45581820495517017
vn -0.32231214734550256 0.7644995535084016 -0.5582609715527188
vn 0.16684103412031595 -0.7644995513668379 0.6226592208371827
vn -0.16684103412031595 0.7644995513668379 -0.6226592208371827
vn 0.16684102714187699 -0.7644995400472941 -0.6226592366051589
vn -0.16684102714187699 0.7644995400472941 0.6226592366051589
vn 0.32231211790771225 -0.7644995731347188 -0.5582609616717595
vn -0.32231211790771225 0.7644995731347188 0.5582609616717595
vn 0.45581820495517034 -0.7644995400472941 -0.455818184475918
vn -0.45581820495517034 0.7644995400472941 0.455818184475918
vn 0.558260971552719 -0.7644995535084014 -0.32231214734550273
vn -0.558260971552719 0.7644995535084014 0.32231214734550273
vn 0.6226592208371827 -0.7644995513668376 -0.1668410341203161
vn -0.6226592208371827 0.7644995513668376 0.1668410341203161
vn 0.6446242569787878 -0.7644995535084015 2.4212699606457147e-8
vn -0.6446242569787878 0.7644995535084015 -2.4212699606457147e-8
vn 0.6226592366051587 -0.7644995400472943 0.16684102714187682
vn -0.6226592366051587 0.7644995400472943 -0.16684102714187682
vn 0.558260961671757 -0.7644995731347191 0.32231211790771613
vn -0.558260961671757 0.7644995731347191 -0.32231211790771613
vn -5.977752634680772e-9 -0.5659089433964711 0.8244677481769007
vn 5.977752634680772e-9 0.5659089433964711 -0.8244677481769007
vn -0.246585037625671 -0.3038136392114304 0.9202679456811766
vn 0.246585037625671 0.3038136392114304 -0.9202679456811766
vn -0.4984591680909064 -0.07844639889118313 0.8633566008591855
vn 0.4984591680909064 0.07844639889118313 -0.8633566008591855
vn -0.7071067565301862 0 0.7071068058429081
vn 0.7071067565301862 0 -0.7071068058429081
vn 5.977752634680773e-9 -0.5659089433964708 -0.824467748176901
vn -5.977752634680773e-9 0.5659089433964708 0.824467748176901
vn -0.24658504941958873 -0.30381364749535705 -0.920267939786183
vn 0.24658504941958873 0.30381364749535705 0.920267939786183
vn -0.4984591310639794 -0.07844639637072169 -0.8633566224657053
vn 0.4984591310639794 0.07844639637072169 0.8633566224657053
vn -0.7071068058429081 0 -0.7071067565301862
vn 0.7071068058429081 0 0.7071067565301862
vn 0.5829867164086507 -0.5659089392701787 0.5829867588077455
vn 0.412233876563209 -0.5659089433964711 0.7140100130933449
vn -0.5829867164086507 0.5659089392701787 -0.5829867588077455
vn -0.412233876563209 0.5659089433964711 -0.7140100130933449
vn 0.21338795044687914 -0.5659089622377105 0.7963746788184051
vn -0.21338795044687914 0.5659089622377105 -0.7963746788184051
vn 0.21338793008872411 -0.5659089392701784 -0.7963747005942311
vn -0.21338793008872411 0.5659089392701784 0.7963747005942311
vn 0.4122338742142812 -0.5659089469665266 -0.7140100116199498
vn -0.4122338742142812 0.5659089469665266 0.7140100116199498
vn 0.5829867588077456 -0.5659089392701785 -0.5829867164086509
vn -0.5829867588077456 0.5659089392701785 0.5829867164086509
vn 0.714010013093345 -0.5659089433964709 -0.4122338765632091
vn -0.714010013093345 0.5659089433964709 0.4122338765632091
vn 0.7963746788184052 -0.5659089622377103 -0.21338795044687925
vn -0.7963746788184052 0.5659089622377103 0.21338795044687925
vn 0.8244677481769009 -0.565908943396471 5.977752509023745e-9
vn -0.8244677481769009 0.565908943396471 -5.977752509023745e-9
vn 0.7963747005942311 -0.5659089392701787 0.21338793008872406
vn -0.7963747005942311 0.5659089392701787 -0.21338793008872406
vn 0.7140100116199488 -0.5659089469665268 0.41223387421428276
vn -0.7140100116199488 0.5659089469665268 -0.41223387421428276
vn 2.2404480331037067e-8 -0.3038136321056215 0.952731482080229
vn -2.2404480331037067e-8 0.3038136321056215 -0.952731482080229
vn -0.25802149677404956 -0.07844639806070709 0.9629491522576777
vn 0.25802149677404956 0.07844639806070709 -0.9629491522576777
vn -0.5000000016387097 0 0.8660254028383293
vn 0.5000000016387097 0 -0.8660254028383293
vn -2.2404480331037063e-8 -0.30381363210562096 -0.952731482080229
vn 2.2404480331037063e-8 0.30381363210562096 0.952731482080229
vn -0.2580214492904917 -0.07844639189538856 -0.9629491654831159
vn 0.2580214492904917 0.07844639189538856 0.9629491654831159
vn -0.4999999967225799 0 -0.866025405676658
vn 0.4999999967225799 0 0.866025405676658
vn 0.6736828770680495 -0.30381363921143034 0.6736829029850929
vn 0.47636571851476406 -0.30381363210562135 0.8250896794716938
vn -0.6736828770680495 0.30381363921143034 -0.6736829029850929
vn -0.47636571851476406 0.30381363210562135 -0.8250896794716938
vn 0.24658504941958878 -0.3038136474953576 0.920267939786183
vn -0.24658504941958878 0.3038136474953576 -0.920267939786183
vn 0.246585037625671 -0.30381363921142995 -0.9202679456811769
vn -0.246585037625671 0.30381363921142995 0.9202679456811769
vn 0.47636573995839426 -0.3038136486818872 -0.8250896609875138
vn -0.47636573995839426 0.3038136486818872 0.8250896609875138
vn 0.6736829029850931 -0.30381363921143 -0.6736828770680496
vn -0.6736829029850931 0.30381363921143 0.6736828770680496
vn 0.8250896794716941 -0.3038136321056211 -0.47636571851476417
vn -0.8250896794716941 0.3038136321056211 0.47636571851476417
vn 0.9202679397861832 -0.30381364749535733 -0.24658504941958884
vn -0.9202679397861832 0.30381364749535733 0.24658504941958884
vn 0.9527314820802288 -0.3038136321056212 -2.240448039849724e-8
vn -0.9527314820802288 0.3038136321056212 2.240448039849724e-8
vn 0.9202679456811768 -0.30381363921143023 0.24658503762567094
vn -0.9202679456811768 0.30381363921143023 -0.24658503762567094
vn 0.8250896609875167 -0.3038136486818875 0.47636573995838893
vn -0.8250896609875167 0.3038136486818875 -0.47636573995838893
vn 3.7210353231815504e-8 -0.0784463963707221 0.9969183331128213
vn -3.7210353231815504e-8 0.0784463963707221 -0.9969183331128213
vn -0.258819082439223 0 0.9659258162847283
vn 0.258819082439223 0 -0.9659258162847283
vn -3.721035323181551e-8 -0.07844639637072166 -0.9969183331128215
vn 3.721035323181551e-8 0.07844639637072166 0.9969183331128215
vn -0.2588190432747773 0 -0.9659258267788108
vn 0.2588190432747773 0 0.9659258267788108
vn 0.7049277443898947 -0.07844639806070704 0.7049276826885692
vn 0.4984591310639794 -0.07844639637072208 0.8633566224657053
vn -0.7049277443898947 0.07844639806070704 -0.7049276826885692
vn -0.4984591310639794 0.07844639637072208 -0.8633566224657053
vn 0.2580214492904917 -0.078446391895389 0.9629491654831159
vn -0.2580214492904917 0.078446391895389 -0.9629491654831159
vn 0.25802149677404956 -0.07844639806070666 -0.9629491522576777
vn -0.25802149677404956 0.07844639806070666 0.9629491522576777
vn 0.4984591680909022 -0.07844639889118275 -0.8633566008591879
vn -0.4984591680909022 0.07844639889118275 0.8633566008591879
vn 0.7049276826885692 -0.07844639806070672 -0.7049277443898947
vn -0.7049276826885692 0.07844639806070672 0.7049277443898947
vn 0.8633566224657053 -0.07844639637072177 -0.4984591310639794
vn -0.8633566224657053 0.07844639637072177 0.4984591310639794
vn 0.9629491654831159 -0.07844639189538873 -0.2580214492904917
vn -0.9629491654831159 0.07844639189538873 0.2580214492904917
vn 0.9969183331128215 -0.07844639637072189 -3.7210353249234115e-8
vn -0.9969183331128215 0.07844639637072189 3.7210353249234115e-8
vn 0.9629491522576777 -0.07844639806070694 0.2580214967740495
vn -0.9629491522576777 0.07844639806070694 -0.2580214967740495
vn 0.8633566008591861 -0.07844639889118306 0.4984591680909053
vn -0.8633566008591861 0.07844639889118306 -0.4984591680909053
vn 0 0 1
vn 0 0 -1
vn 0.5000000016387106 0 -0.8660254028383286
vn -0.5000000016387106 0 0.8660254028383286
usemtl material_0_0
f 1//1 2//2 3//3
f 2//2 1//1 4//4
f 5//5 6//6 7//7
f 8//8 7//7 6//6
f 9//9 3//3 10//10
f 3//3 9//9 1//1
f 6//6 11//11 8//8
f 12//12 8//8 11//11
f 13//13 4//4 1//1
f 4//4 13//13 14//14
f 15//15 16//16 5//5
f 6//6 5//5 16//16
f 4//4 17//17 2//2
f 17//17 4//4 18//18
f 19//19 5//5 20//20
f 7//7 20//20 5//5
f 3//3 21//21 22//22
f 21//21 3//3 2//2
f 7//7 8//8 23//23
f 24//24 23//23 8//8
f 25//25 10//10 26//26
f 10//10 25//25 9//9
f 11//11 27//27 12//12
f 28//28 12//12 27//27
f 29//29 1//1 9//9
f 1//1 29//29 13//13
f 16//16 30//30 6//6
f 11//11 6//6 30//30
f 31//31 3//3 22//22
f 3//3 31//31 10//10
f 12//12 32//32 8//8
f 24//24 8//8 32//32
f 33//33 14//14 13//13
f 14//14 33//33 34//34
f 35//35 36//36 15//15
f 16//16 15//15 36//36
f 14//14 18//18 4//4
f 18//18 14//14 37//37
f 38//38 15//15 19//19
f 5//5 19//19 15//15
f 18//18 39//39 17//17
f 39//39 18//18 40//40
f 41//41 19//19 42//42
f 20//20 42//42 19//19
f 2//2 43//43 21//21
f 43//43 2//2 17//17
f 20//20 7//7 44//44
f 23//23 44//44 7//7
f 45//45 21//21 46//46
f 21//21 45//45 22//22
f 24//24 47//47 23//23
f 48//48 23//23 47//47
f 49//49 25//25 26//26
f 25//25 49//49 50//50
f 51//51 52//52 27//27
f 28//28 27//27 52//52
f 53//53 9//9 25//25
f 9//9 53//53 29//29
f 30//30 54//54 11//11
f 27//27 11//11 54//54
f 55//55 10//10 31//31
f 10//10 55//55 26//26
f 28//28 56//56 12//12
f 32//32 12//12 56//56
f 57//57 13//13 29//29
f 13//13 57//57 33//33
f 36//36 58//58 16//16
f 30//30 16//16 58//58
f 59//59 22//22 45//45
f 22//22 59//59 31//31
f 32//32 60//60 24//24
f 47//47 24//24 60//60
f 61//61 62//62 63//63
f 62//62 61//61 64//62
f 64//62 61//61 65//64
f 64//62 65//64 66//62
f 66//62 65//64 67//62
f 67//62 65//64 68//65
f 67//62 68//65 69//62
f 69//62 68//65 70//66
f 69//62 70//66 71//62
f 71//62 70//66 72//67
f 71//62 72//67 73//62
f 73//62 72//67 74//62
f 74//62 72//67 75//68
f 74//62 75//68 76//62
f 76//62 75//68 77//69
f 76//62 77//69 78//62
f 78//62 77//69 79//70
f 78//62 79//70 80//62
f 80//62 79//70 81//71
f 80//62 81//71 82//62
f 82//62 81//71 83//62
f 83//62 81//71 84//72
f 63//63 57//57 85//73
f 57//57 63//63 33//33
f 33//33 63//63 62//62
f 33//33 62//62 86//62
f 33//33 86//62 34//34
f 34//34 86//62 87//62
f 34//34 87//62 88//62
f 34//34 88//62 89//74
f 89//74 88//62 90//62
f 89//74 90//62 91//75
f 91//75 90//62 92//62
f 91//75 92//62 93//76
f 93//76 92//62 94//62
f 93//76 94//62 95//62
f 93//76 95//62 96//77
f 96//77 95//62 97//62
f 96//77 97//62 98//78
f 98//78 97//62 99//62
f 98//78 99//62 100//79
f 100//79 99//62 101//62
f 100//79 101//62 102//80
f 102//80 101//62 103//62
f 102//80 103//62 83//62
f 102//80 83//62 104//81
f 104//81 83//62 84//72
f 104//81 84//72 105//82
f 106//83 107//84 108//85
f 107//84 109//86 108//85
f 108//85 109//86 110//87
f 109//86 111//86 110//87
f 111//86 112//86 110//87
f 110//87 112//86 113//88
f 112//86 114//86 113//88
f 113//88 114//86 115//89
f 114//86 116//86 115//89
f 115//89 116//86 117//90
f 116//86 118//86 117//90
f 117//90 118//86 119//91
f 118//86 120//86 119//91
f 120//86 121//86 119//91
f 119//91 121//86 122//92
f 121//86 123//86 122//92
f 122//92 123//86 124//93
f 123//86 125//86 124//93
f 124//93 125//86 35//35
f 125//86 126//86 35//35
f 126//86 127//86 35//35
f 35//35 127//86 36//36
f 127//86 128//86 36//36
f 128//86 129//94 36//36
f 36//36 129//94 58//58
f 130//95 58//58 129//94
f 107//84 131//96 109//86
f 109//86 131//96 132//86
f 132//86 131//96 133//86
f 131//96 134//97 133//86
f 133//86 134//97 135//86
f 134//97 136//98 135//86
f 135//86 136//98 137//86
f 136//98 138//99 137//86
f 137//86 138//99 139//86
f 138//99 140//100 139//86
f 139//86 140//100 141//86
f 141//86 140//100 142//86
f 140//100 143//101 142//86
f 142//86 143//101 144//86
f 143//101 145//102 144//86
f 144//86 145//102 146//86
f 145//102 147//103 146//86
f 146//86 147//103 148//86
f 148//86 147//103 149//86
f 147//103 150//104 149//86
f 149//86 150//104 128//86
f 129//94 128//86 150//104
f 34//34 37//37 14//14
f 37//37 34//34 89//74
f 124//93 35//35 38//38
f 15//15 38//38 35//35
f 37//37 40//40 18//18
f 40//40 37//37 151//105
f 152//106 38//38 41//41
f 19//19 41//41 38//38
f 40//40 153//107 39//39
f 153//107 40//40 154//108
f 155//109 41//41 156//110
f 42//42 156//110 41//41
f 157//111 17//17 39//39
f 17//17 157//111 43//43
f 44//44 158//112 20//20
f 42//42 20//20 158//112
f 159//113 21//21 43//43
f 21//21 159//113 46//46
f 48//48 160//114 23//23
f 44//44 23//23 160//114
f 161//115 46//46 162//116
f 46//46 161//115 45//45
f 47//47 163//117 48//48
f 164//118 48//48 163//117
f 165//119 50//50 49//49
f 50//50 165//119 166//120
f 167//121 168//122 51//51
f 52//52 51//51 168//122
f 50//50 53//53 25//25
f 53//53 50//50 169//123
f 170//124 51//51 54//54
f 27//27 54//54 51//51
f 55//55 49//49 26//26
f 49//49 55//55 171//125
f 172//126 56//56 52//52
f 28//28 52//52 56//56
f 85//73 29//29 53//53
f 29//29 85//73 57//57
f 58//58 130//95 30//30
f 54//54 30//30 130//95
f 173//127 31//31 59//59
f 31//31 173//127 55//55
f 56//56 174//128 32//32
f 60//60 32//32 174//128
f 175//129 45//45 161//115
f 45//45 175//129 59//59
f 60//60 176//130 47//47
f 163//117 47//47 176//130
f 104//81 177//131 102//80
f 177//131 104//81 178//132
f 179//133 108//85 180//134
f 110//87 180//134 108//85
f 102//80 181//135 100//79
f 181//135 102//80 177//131
f 180//134 110//87 182//136
f 113//88 182//136 110//87
f 100//79 183//137 98//78
f 183//137 100//79 181//135
f 182//136 113//88 184//138
f 115//89 184//138 113//88
f 98//78 185//139 96//77
f 185//139 98//78 183//137
f 184//138 115//89 186//140
f 117//90 186//140 115//89
f 93//76 185//139 187//141
f 185//139 93//76 96//77
f 117//90 119//91 186//140
f 188//142 186//140 119//91
f 91//75 187//141 151//105
f 187//141 91//75 93//76
f 119//91 122//92 188//142
f 152//106 188//142 122//92
f 89//74 151//105 37//37
f 151//105 89//74 91//75
f 122//92 124//93 152//106
f 38//38 152//106 124//93
f 169//123 85//73 53//53
f 85//73 169//123 63//63
f 129//94 170//124 130//95
f 54//54 130//95 170//124
f 189//143 63//63 169//123
f 63//63 189//143 61//61
f 150//104 190//144 129//94
f 170//124 129//94 190//144
f 191//145 61//61 189//143
f 61//61 191//145 65//64
f 147//103 192//146 150//104
f 190//144 150//104 192//146
f 193//147 65//64 191//145
f 65//64 193//147 68//65
f 145//102 194//148 147//103
f 192//146 147//103 194//148
f 195//149 68//65 193//147
f 68//65 195//149 70//66
f 143//101 196//150 145//102
f 194//148 145//102 196//150
f 197//151 70//66 195//149
f 70//66 197//151 72//67
f 140//100 198//152 143//101
f 196//150 143//101 198//152
f 199//153 72//67 197//151
f 72//67 199//153 75//68
f 138//99 200//154 140//100
f 198//152 140//100 200//154
f 199//153 77//69 75//68
f 77//69 199//153 201//155
f 202//156 200//154 136//98
f 138//99 136//98 200//154
f 201//155 79//70 77//69
f 79//70 201//155 203//157
f 204//158 202//156 134//97
f 136//98 134//97 202//156
f 203//157 81//71 79//70
f 81//71 203//157 205//159
f 206//160 204//158 131//96
f 134//97 131//96 204//158
f 205//159 84//72 81//71
f 84//72 205//159 207//161
f 208//162 206//160 107//84
f 131//96 107//84 206//160
f 207//161 105//82 84//72
f 105//82 207//161 209//163
f 210//164 208//162 106//83
f 107//84 106//83 208//162
f 105//82 178//132 104//81
f 178//132 105//82 209//163
f 210//164 106//83 179//133
f 108//85 179//133 106//83
f 151//105 154//108 40//40
f 154//108 151//105 187//141
f 188//142 152//106 155//109
f 41//41 155//109 152//106
f 154//108 211//165 153//107
f 211//165 154//108 212//166
f 213//167 155//109 214//168
f 156//110 214//168 155//109
f 215//169 39//39 153//107
f 39//39 215//169 157//111
f 158//112 216//170 42//42
f 156//110 42//42 216//170
f 217//171 43//43 157//111
f 43//43 217//171 159//113
f 160//114 218//172 44//44
f 158//112 44//44 218//172
f 219//173 46//46 159//113
f 46//46 219//173 162//116
f 164//118 220//174 48//48
f 160//114 48//48 220//174
f 221//175 162//116 222//176
f 162//116 221//175 161//115
f 163//117 223//177 164//118
f 224//178 164//118 223//177
f 225//179 166//120 165//119
f 166//120 225//179 226//180
f 227//181 228//182 167//121
f 168//122 167//121 228//182
f 166//120 169//123 50//50
f 169//123 166//120 189//143
f 190//144 167//121 170//124
f 51//51 170//124 167//121
f 171//125 165//119 49//49
f 165//119 171//125 229//183
f 230//184 172//126 168//122
f 52//52 168//122 172//126
f 173//127 171//125 55//55
f 171//125 173//127 231//185
f 232//186 174//128 172//126
f 56//56 172//126 174//128
f 233//187 59//59 175//129
f 59//59 233//187 173//127
f 174//128 234//188 60//60
f 176//130 60//60 234//188
f 235//189 161//115 221//175
f 161//115 235//189 175//129
f 176//130 236//190 163//117
f 223//177 163//117 236//190
f 178//132 237//191 177//131
f 237//191 178//132 238//192
f 239//193 179//133 240//194
f 180//134 240//194 179//133
f 177//131 241//195 181//135
f 241//195 177//131 237//191
f 240//194 180//134 242//196
f 182//136 242//196 180//134
f 181//135 243//197 183//137
f 243//197 181//135 241//195
f 242//196 182//136 244//198
f 184//138 244//198 182//136
f 183//137 212//166 185//139
f 212//166 183//137 243//197
f 244//198 184//138 213//167
f 186//140 213//167 184//138
f 185//139 154//108 187//141
f 154//108 185//139 212//166
f 213//167 186//140 155//109
f 188//142 155//109 186//140
f 226//180 189//143 166//120
f 189//143 226//180 191//145
f 192//146 227//181 190//144
f 167//121 190//144 227//181
f 245//199 191//145 226//180
f 191//145 245//199 193//147
f 194//148 246//200 192//146
f 227//181 192//146 246//200
f 247//201 193//147 245//199
f 193//147 247//201 195//149
f 196//150 248//202 194//148
f 246//200 194//148 248//202
f 249//203 195//149 247//201
f 195//149 249//203 197//151
f 198//152 250//204 196//150
f 248//202 196//150 250//204
f 251//205 197//151 249//203
f 197//151 251//205 199//153
f 200//154 252//206 198//152
f 250//204 198//152 252//206
f 251//205 201//155 199//153
f 201//155 251//205 253//207
f 254//208 252//206 202//156
f 200//154 202//156 252//206
f 253//207 203//157 201//155
f 203//157 253//207 255//209
f 256//210 254//208 204//158
f 202//156 204//158 254//208
f 255//209 205//159 203//157
f 205//159 255//209 257//211
f 258//212 256//210 206//160
f 204//158 206//160 256//210
f 257//211 207//161 205//159
f 207//161 257//211 259//213
f 260//214 258//212 208//162
f 206//160 208//162 258//212
f 259//213 209//163 207//161
f 209//163 259//213 261//215
f 262//216 260//214 210//164
f 208//162 210//164 260//214
f 209//163 238//192 178//132
f 238//192 209//163 261//215
f 262//216 210//164 239//193
f 179//133 239//193 210//164
f 243//197 211//165 212//166
f 211//165 243//197 263//217
f 264//218 244//198 214//168
f 213//167 214//168 244//198
f 265//219 153//107 211//165
f 153//107 265//219 215//169
f 216//170 266//220 156//110
f 214//168 156//110 266//220
f 267//221 157//111 215//169
f 157//111 267//221 217//171
f 218//172 268//222 158//112
f 216//170 158//112 268//222
f 269//223 159//113 217//171
f 159//113 269//223 219//173
f 220//174 270//224 160//114
f 218//172 160//114 270//224
f 271//225 162//116 219//173
f 162//116 271//225 222//176
f 224//178 272//226 164//118
f 220//174 164//118 272//226
f 273//227 226//180 225//179
f 226//180 273//227 245//199
f 246//200 274//228 227//181
f 228//182 227//181 274//228
f 275//229 165//119 229//183
f 165//119 275//229 225//179
f 228//182 276//230 168//122
f 230//184 168//122 276//230
f 231//185 229//183 171//125
f 229//183 231//185 277//231
f 278//232 232//186 230//184
f 172//126 230//184 232//186
f 279//233 173//127 233//187
f 173//127 279//233 231//185
f 232//186 280//234 174//128
f 234//188 174//128 280//234
f 281//235 175//129 235//189
f 175//129 281//235 233//187
f 234//188 282//236 176//130
f 236//190 176//130 282//236
f 238//192 283//237 237//191
f 283//237 238//192 284//238
f 285//239 239//193 286//240
f 240//194 286//240 239//193
f 237//191 287//241 241//195
f 287//241 237//191 283//237
f 286//240 240//194 288//242
f 242//196 288//242 240//194
f 241//195 263//217 243//197
f 263//217 241//195 287//241
f 288//242 242//196 264//218
f 244//198 264//218 242//196
f 289//243 245//199 273//227
f 245//199 289//243 247//201
f 248//202 290//244 246//200
f 274//228 246//200 290//244
f 291//245 247//201 289//243
f 247//201 291//245 249//203
f 250//204 292//246 248//202
f 290//244 248//202 292//246
f 293//247 249//203 291//245
f 249//203 293//247 251//205
f 252//206 294//248 250//204
f 292//246 250//204 294//248
f 293//247 253//207 251//205
f 253//207 293//247 295//249
f 296//250 294//248 254//208
f 252//206 254//208 294//248
f 295//249 255//209 253//207
f 255//209 295//249 297//251
f 298//252 296//250 256//210
f 254//208 256//210 296//250
f 297//251 257//211 255//209
f 257//211 297//251 299//253
f 300//254 298//252 258//212
f 256//210 258//212 298//252
f 299//253 259//213 257//211
f 259//213 299//253 301//255
f 302//256 300//254 260//214
f 258//212 260//214 300//254
f 301//255 261//215 259//213
f 261//215 301//255 303//257
f 304//258 302//256 262//216
f 260//214 262//216 302//256
f 261//215 284//238 238//192
f 284//238 261//215 303//257
f 304//258 262//216 285//239
f 239//193 285//239 262//216
f 305//259 211//165 263//217
f 211//165 305//259 265//219
f 266//220 306//260 214//168
f 264//218 214//168 306//260
f 307//261 215//169 265//219
f 215//169 307//261 267//221
f 268//222 308//262 216//170
f 266//220 216//170 308//262
f 309//263 217//171 267//221
f 217//171 309//263 269//223
f 270//224 310//264 218//172
f 268//222 218//172 310//264
f 311//265 219//173 269//223
f 219//173 311//265 271//225
f 272//226 312//266 220//174
f 270//224 220//174 312//266
f 313//267 225//179 275//229
f 225//179 313//267 273//227
f 274//228 314//268 228//182
f 276//230 228//182 314//268
f 277//231 275//229 229//183
f 275//229 277//231 315//269
f 316//270 278//232 276//230
f 230//184 276//230 278//232
f 279//233 277//231 231//185
f 277//231 279//233 317//271
f 318//272 280//234 278//232
f 232//186 278//232 280//234
f 319//273 233//187 281//235
f 233//187 319//273 279//233
f 280//234 320//274 234//188
f 282//236 234//188 320//274
f 283//237 321//275 322//276
f 321//275 283//237 284//238
f 285//239 286//240 323//277
f 324//278 323//277 286//240
f 283//237 325//279 287//241
f 325//279 283//237 322//276
f 324//278 286//240 326//280
f 288//242 326//280 286//240
f 287//241 305//259 263//217
f 305//259 287//241 325//279
f 326//280 288//242 306//260
f 264//218 306//260 288//242
f 313//267 289//243 273//227
f 289//243 313//267 327//281
f 328//282 314//268 290//244
f 274//228 290//244 314//268
f 327//281 291//245 289//243
f 291//245 327//281 329//283
f 330//284 328//282 292//246
f 290//244 292//246 328//282
f 329//283 293//247 291//245
f 293//247 329//283 331//285
f 332//286 330//284 294//248
f 292//246 294//248 330//284
f 331//285 295//249 293//247
f 295//249 331//285 333//287
f 334//288 332//286 296//250
f 294//248 296//250 332//286
f 333//287 297//251 295//249
f 297//251 333//287 335//289
f 336//290 334//288 298//252
f 296//250 298//252 334//288
f 335//289 299//253 297//251
f 299//253 335//289 337//291
f 338//292 336//290 300//254
f 298//252 300//254 336//290
f 299//253 339//293 301//255
f 339//293 299//253 337//291
f 338//292 300//254 340//294
f 302//256 340//294 300//254
f 303//257 339//293 341//295
f 339//293 303//257 301//255
f 302//256 304//258 340//294
f 342//296 340//294 304//258
f 284//238 341//295 321//275
f 341//295 284//238 303//257
f 304//258 285//239 342//296
f 323//277 342//296 285//239
f 343//297 265//219 305//259
f 265//219 343//297 307//261
f 308//262 344//298 266//220
f 306//260 266//220 344//298
f 345//299 267//221 307//261
f 267//221 345//299 309//263
f 310//264 346//300 268//222
f 308//262 268//222 346//300
f 347//301 269//223 309//263
f 269//223 347//301 311//265
f 312//266 348//302 270//224
f 310//264 270//224 348//302
f 315//269 313//267 275//229
f 313//267 315//269 349//303
f 350//304 316//270 314//268
f 276//230 314//268 316//270
f 317//271 315//269 277//231
f 315//269 317//271 351//305
f 352//306 318//272 316//270
f 278//232 316//270 318//272
f 353//307 279//233 319//273
f 279//233 353//307 317//271
f 318//272 354//308 280//234
f 320//274 280//234 354//308
f 322//276 355//309 356//310
f 355//309 322//276 321//275
f 323//277 324//278 357//311
f 358//312 357//311 324//278
f 325//279 356//310 359//313
f 356//310 325//279 322//276
f 324//278 326//280 358//312
f 360//314 358//312 326//280
f 359//313 305//259 325//279
f 305//259 359//313 343//297
f 344//298 360//314 306//260
f 326//280 306//260 360//314
f 349//303 327//281 313//267
f 327//281 349//303 361//315
f 362//316 350//304 328//282
f 314//268 328//282 350//304
f 361//315 329//283 327//281
f 329//283 361//315 363//317
f 364//318 362//316 330//284
f 328//282 330//284 362//316
f 363//317 331//285 329//283
f 331//285 363//317 365//319
f 366//320 364//318 332//286
f 330//284 332//286 364//318
f 365//319 333//287 331//285
f 333//287 365//319 367//321
f 368//322 366//320 334//288
f 332//286 334//288 366//320
f 367//321 335//289 333//287
f 335//289 367//321 369//323
f 370//324 368//322 336//290
f 334//288 336//290 368//322
f 335//289 371//325 337//291
f 371//325 335//289 369//323
f 370//324 336//290 372//326
f 338//292 372//326 336//290
f 337//291 373//327 339//293
f 373//327 337//291 371//325
f 372//326 338//292 374//328
f 340//294 374//328 338//292
f 341//295 373//327 375//329
f 373//327 341//295 339//293
f 340//294 342//296 374//328
f 376//330 374//328 342//296
f 321//275 375//329 355//309
f 375//329 321//275 341//295
f 342//296 323//277 376//330
f 357//311 376//330 323//277
f 377//331 307//261 343//297
f 307//261 377//331 345//299
f 346//300 378//332 308//262
f 344//298 308//262 378//332
f 379//333 309//263 345//299
f 309//263 379//333 347//301
f 348//302 380//334 310//264
f 346//300 310//264 380//334
f 351//305 349//303 315//269
f 349//303 351//305 381//335
f 382//336 352//306 350//304
f 316//270 350//304 352//306
f 353//307 351//305 317//271
f 351//305 353//307 383//337
f 384//338 354//308 352//306
f 318//272 352//306 354//308
f 356//310 385//339 386//340
f 385//339 356//310 355//309
f 357//311 358//312 387//341
f 388//342 387//341 358//312
f 359//313 386//340 389//343
f 386//340 359//313 356//310
f 358//312 360//314 388//342
f 390//344 388//342 360//314
f 389//343 343//297 359//313
f 343//297 389//343 377//331
f 378//332 390//344 344//298
f 360//314 344//298 390//344
f 381//335 361//315 349//303
f 361//315 381//335 391//345
f 392//346 382//336 362//316
f 350//304 362//316 382//336
f 391//345 363//317 361//315
f 363//317 391//345 393//347
f 394//348 392//346 364//318
f 362//316 364//318 392//346
f 393//347 365//319 363//317
f 365//319 393//347 395//349
f 396//350 394//348 366//320
f 364//318 366//320 394//348
f 395//349 367//321 365//319
f 367//321 395//349 397//351
f 398//352 396//350 368//322
f 366//320 368//322 396//350
f 397//351 369//323 367//321
f 369//323 397//351 399//353
f 400//354 398//352 370//324
f 368//322 370//324 398//352
f 369//323 401//355 371//325
f 401//355 369//323 399//353
f 400//354 370//324 402//356
f 372//326 402//356 370//324
f 371//325 403//357 373//327
f 403//357 371//325 401//355
f 402//356 372//326 404//358
f 374//328 404//358 372//326
f 373//327 405//359 375//329
f 405//359 373//327 403//357
f 404//358 374//328 406//360
f 376//330 406//360 374//328
f 355//309 405//359 385//339
f 405//359 355//309 375//329
f 376//330 357//311 406//360
f 387//341 406//360 357//311
f 407//361 345//299 377//331
f 345//299 407//361 379//333
f 380//334 408//362 346//300
f 378//332 346//300 408//362
f 383//337 381//335 351//305
f 381//335 383//337 409//362
f 410//361 384//338 382//336
f 352//306 382//336 384//338
f 385//339 411//308 386//340
f 411//308 385//339 412//274
f 413//273 387//341 414//307
f 388//342 414//307 387//341
f 386//340 415//338 389//343
f 415//338 386//340 411//308
f 414//307 388//342 416//337
f 390//344 416//337 388//342
f 415//338 377//331 389//343
f 377//331 415//338 407//361
f 408//362 416//337 378//332
f 390//344 378//332 416//337
f 409//362 391//345 381//335
f 391//345 409//362 417//334
f 418//333 410//361 392//346
f 382//336 392//346 410//361
f 417//334 393//347 391//345
f 393//347 417//334 419//363
f 420//364 418//333 394//348
f 392//346 394//348 418//333
f 419//363 395//349 393//347
f 395//349 419//363 421//266
f 422//265 420//364 396//350
f 394//348 396//350 420//364
f 421//266 397//351 395//349
f 397//351 421//266 423//226
f 424//225 422//265 398//352
f 396//350 398//352 422//265
f 423//226 399//353 397//351
f 399//353 423//226 425//178
f 426//176 424//225 400//354
f 398//352 400//354 424//225
f 399//353 427//177 401//355
f 427//177 399//353 425//178
f 426//176 400//354 428//175
f 402//356 428//175 400//354
f 401//355 429//190 403//357
f 429//190 401//355 427//177
f 428//175 402//356 430//189
f 404//358 430//189 402//356
f 403//357 431//236 405//359
f 431//236 403//357 429//190
f 430//189 404//358 432//235
f 406//360 432//235 404//358
f 405//359 412//274 385//339
f 412//274 405//359 431//236
f 432//235 406//360 413//273
f 387//341 413//273 406//360
