# SSTK version 0.8.0
# 21
mtllib original-21.mtl
o #ID33
v -0.009014 0.357080 0.472656
v -0.009014 0.357077 0.472680
v -0.009014 0.357077 0.472656
v -0.009014 0.357080 0.472680
v -0.009014 0.357080 0.472680
v -0.009014 0.357080 0.472656
v -0.009014 0.357077 0.472680
v -0.009014 0.357077 0.472656
v -0.009014 0.357077 0.472680
v -0.009050 0.357077 0.472656
v -0.009014 0.357077 0.472656
v -0.009050 0.357077 0.472680
v -0.009050 0.357077 0.472680
v -0.009014 0.357077 0.472680
v -0.009050 0.357077 0.472656
v -0.009014 0.357077 0.472656
v -0.009014 0.357080 0.472656
v -0.009050 0.357077 0.472656
v -0.009057 0.357080 0.472656
v -0.009014 0.357077 0.472656
v -0.009014 0.357037 0.472656
v -0.009014 0.357040 0.472656
v -0.009014 0.357040 0.472656
v -0.009050 0.357077 0.472656
v -0.009014 0.357037 0.472656
v -0.009057 0.357080 0.472656
v -0.009014 0.357077 0.472656
v -0.009014 0.357080 0.472656
v -0.009057 0.357080 0.472680
v -0.009014 0.357080 0.472656
v -0.009057 0.357080 0.472656
v -0.009014 0.357080 0.472680
v -0.009014 0.357080 0.472680
v -0.009057 0.357080 0.472680
v -0.009014 0.357080 0.472656
v -0.009057 0.357080 0.472656
v -0.009050 0.357077 0.472656
v -0.009014 0.357040 0.472680
v -0.009014 0.357040 0.472656
v -0.009050 0.357077 0.472680
v -0.009050 0.357077 0.472680
v -0.009050 0.357077 0.472656
v -0.009014 0.357040 0.472680
v -0.009014 0.357040 0.472656
v -0.009014 0.357037 0.472656
v -0.009057 0.357077 0.472656
v -0.009057 0.357080 0.472656
v -0.009038 0.357058 0.472656
v -0.009035 0.357055 0.472656
v -0.009020 0.357040 0.472656
v -0.009057 0.357040 0.472656
v -0.009057 0.357037 0.472656
v -0.009038 0.357040 0.472656
v -0.009035 0.357040 0.472656
v -0.009020 0.357040 0.472656
v -0.009035 0.357040 0.472656
v -0.009014 0.357037 0.472656
v -0.009035 0.357055 0.472656
v -0.009038 0.357058 0.472656
v -0.009038 0.357040 0.472656
v -0.009057 0.357040 0.472656
v -0.009057 0.357037 0.472656
v -0.009057 0.357077 0.472656
v -0.009057 0.357080 0.472656
v -0.009014 0.357037 0.472656
v -0.009014 0.357040 0.472680
v -0.009014 0.357037 0.472680
v -0.009014 0.357040 0.472656
v -0.009014 0.357040 0.472656
v -0.009014 0.357037 0.472656
v -0.009014 0.357040 0.472680
v -0.009014 0.357037 0.472680
v -0.009057 0.357077 0.472680
v -0.009057 0.357080 0.472656
v -0.009057 0.357077 0.472656
v -0.009057 0.357080 0.472680
v -0.009057 0.357080 0.472680
v -0.009057 0.357077 0.472680
v -0.009057 0.357080 0.472656
v -0.009057 0.357077 0.472656
v -0.009057 0.357040 0.472680
v -0.009038 0.357040 0.472656
v -0.009057 0.357040 0.472656
v -0.009038 0.357040 0.472680
v -0.009038 0.357040 0.472680
v -0.009057 0.357040 0.472680
v -0.009038 0.357040 0.472656
v -0.009057 0.357040 0.472656
v -0.009038 0.357040 0.472680
v -0.009038 0.357058 0.472656
v -0.009038 0.357040 0.472656
v -0.009038 0.357058 0.472680
v -0.009038 0.357058 0.472680
v -0.009038 0.357040 0.472680
v -0.009038 0.357058 0.472656
v -0.009038 0.357040 0.472656
v -0.009038 0.357058 0.472680
v -0.009057 0.357077 0.472656
v -0.009038 0.357058 0.472656
v -0.009057 0.357077 0.472680
v -0.009057 0.357077 0.472680
v -0.009038 0.357058 0.472680
v -0.009057 0.357077 0.472656
v -0.009038 0.357058 0.472656
v -0.009014 0.357037 0.472680
v -0.009057 0.357037 0.472656
v -0.009014 0.357037 0.472656
v -0.009057 0.357037 0.472680
v -0.009057 0.357037 0.472680
v -0.009014 0.357037 0.472680
v -0.009057 0.357037 0.472656
v -0.009014 0.357037 0.472656
v -0.009057 0.357040 0.472680
v -0.009057 0.357037 0.472656
v -0.009057 0.357037 0.472680
v -0.009057 0.357040 0.472656
v -0.009057 0.357040 0.472656
v -0.009057 0.357040 0.472680
v -0.009057 0.357037 0.472656
v -0.009057 0.357037 0.472680
vt 0.4375 0.2430556
vt 0.4375 3.495296e-15
vt 0.4052284 0.2430556
vt 0.4052284 2.866035e-14
vt 0.06454319 0.2430556
vt 0.06454319 3.966035e-14
vt 0.4375 2.68311e-14
vt -0.4375 0.0322716
vt -0.06454319 0.4052284
vt -0.4375 -3.22157e-28
vt 1.881392e-28 0.4375
vt -0.4375 0.4052284
vt -0.4375 0.4375
vt -0.4375 0.2430556
vt -1.266841e-14 0.2430556
vt -0.4375 -1.190795e-13
vt 1.608371e-16 -1.190795e-13
vt 0.2409008 0.2430556
vt 0.2409008 3.870623e-14
vt -0.2865398 0.2430556
vt -0.2865398 3.860754e-14
vt -0.3729568 0.0322716
vt -0.21875 0.0322716
vt -0.4375 -6.865384e-27
vt -0.21875 0.1864784
vt -0.1864784 0.21875
vt -0.1864784 0.0322716
vt -1.282924e-14 0.0322716
vt 0 0
vt -1.273056e-14 0.4052284
vt 1.648863e-27 0.4375
vt 0.0322716 1.706723e-14
vt -6.290247e-14 -8.295202e-15
vt 0.0322716 0.2430556
vt -8.816621e-14 0.2430556
vt -0.4052284 0.2430556
vt -0.4375 -1.273056e-14
vt -0.4052284 1.253318e-14
vt -0.1864784 0.2430556
vt -3.78945e-14 0.2430556
vt -0.1864784 2.376057e-14
vt -1.282813e-14 2.376057e-14
vt -0.21875 0.2430556
vt -0.0322716 0.2430556
vt -0.21875 1.042765e-14
vt -0.0322716 2.315821e-14
vt -0.02281946 0.2430556
vt -0.2865398 1.478409e-15
vt -0.02281946 1.379723e-15
vt 1.263187e-14 0.2430556
vt 0.4375 -1.97373e-16
vt -0.0322716 2.516506e-14
vt 3.94746e-16 0.2430556
vn 1 0 0
vn 0 -1 0
vn 0 0 -1
vn 0 1 0
vn 0.7071067811865475 0.7071067811865475 0
vn -1 0 0
vn -0.7071067811865475 -0.7071067811865475 0
vn 0 0 1
usemtl material_0_0
f 1//1 2//1 3//1
f 2//1 1//1 4//1
f 9//2 10//2 11//2
f 10//2 9//2 12//2
f 17//3 18//3 19//3
f 18//3 17//3 20//3
f 18//3 21//3 19//3
f 21//3 18//3 22//3
f 29//4 30//4 31//4
f 30//4 29//4 32//4
f 37//5 38//5 39//5
f 38//5 37//5 40//5
f 45//3 46//3 47//3
f 46//3 45//3 48//3
f 48//3 45//3 49//3
f 49//3 45//3 50//3
f 51//3 45//3 52//3
f 45//3 51//3 53//3
f 45//3 53//3 54//3
f 54//3 53//3 48//3
f 54//3 48//3 49//3
f 45//3 54//3 50//3
f 65//1 66//1 67//1
f 66//1 65//1 68//1
f 73//6 74//6 75//6
f 74//6 73//6 76//6
f 81//4 82//4 83//4
f 82//4 81//4 84//4
f 89//6 90//6 91//6
f 90//6 89//6 92//6
f 97//7 98//7 99//7
f 98//7 97//7 100//7
f 105//2 106//2 107//2
f 106//2 105//2 108//2
f 113//6 114//6 115//6
f 114//6 113//6 116//6
usemtl material_1_0
f 5/1/6 6/2/6 7/3/6
f 8/4/6 7/3/6 6/2/6
f 13/5/4 14/1/4 15/6/4
f 16/7/4 15/6/4 14/1/4
f 23/8/8 24/9/8 25/10/8
f 26/11/8 25/10/8 24/9/8
f 27/12/8 28/13/8 24/9/8
f 26/11/8 24/9/8 28/13/8
f 33/14/2 34/15/2 35/16/2
f 36/17/2 35/16/2 34/15/2
f 41/18/7 42/19/7 43/20/7
f 44/21/7 43/20/7 42/19/7
f 55/22/8 56/23/8 57/24/8
f 58/25/8 59/26/8 56/23/8
f 59/26/8 60/27/8 56/23/8
f 56/23/8 60/27/8 57/24/8
f 60/27/8 61/28/8 57/24/8
f 62/29/8 57/24/8 61/28/8
f 55/22/8 57/24/8 58/25/8
f 58/25/8 57/24/8 59/26/8
f 59/26/8 57/24/8 63/30/8
f 64/31/8 63/30/8 57/24/8
f 69/32/6 70/33/6 71/34/6
f 72/35/6 71/34/6 70/33/6
f 77/14/1 78/36/1 79/37/1
f 80/38/1 79/37/1 78/36/1
f 85/39/2 86/40/2 87/41/2
f 88/42/2 87/41/2 86/40/2
f 93/43/1 94/44/1 95/45/1
f 96/46/1 95/45/1 94/44/1
f 101/20/5 102/47/5 103/48/5
f 104/49/5 103/48/5 102/47/5
f 109/50/4 110/1/4 111/29/4
f 112/51/4 111/29/4 110/1/4
f 117/52/1 118/44/1 119/29/1
f 120/53/1 119/29/1 118/44/1
