# SSTK version 0.8.0
# 29
mtllib original-29.mtl
o #ID104
v -0.009056 0.357038 0.472680
v -0.009056 0.357038 0.472680
v -0.009056 0.357038 0.472680
v -0.009056 0.357039 0.472680
v -0.009056 0.357038 0.472680
v -0.009056 0.357039 0.472680
v -0.009056 0.357038 0.472680
v -0.009056 0.357038 0.472680
v -0.009056 0.357039 0.472680
v -0.009056 0.357038 0.472680
v -0.009056 0.357039 0.472680
v -0.009056 0.357038 0.472680
v -0.009056 0.357039 0.472680
v -0.009055 0.357038 0.472680
v -0.009055 0.357039 0.472680
v -0.009055 0.357038 0.472680
v -0.009055 0.357039 0.472680
v -0.009055 0.357038 0.472680
v -0.009055 0.357039 0.472680
v -0.009055 0.357038 0.472680
v -0.009055 0.357039 0.472680
v -0.009055 0.357038 0.472680
v -0.009055 0.357038 0.472680
v -0.009055 0.357038 0.472680
v -0.009055 0.357038 0.472680
v -0.009055 0.357038 0.472680
v -0.009055 0.357038 0.472680
v -0.009055 0.357039 0.472680
v -0.009055 0.357038 0.472680
v -0.009055 0.357039 0.472680
v -0.009055 0.357038 0.472680
v -0.009055 0.357039 0.472680
v -0.009055 0.357038 0.472680
v -0.009055 0.357039 0.472680
v -0.009055 0.357038 0.472680
v -0.009056 0.357039 0.472680
v -0.009056 0.357038 0.472680
v -0.009056 0.357039 0.472680
v -0.009056 0.357038 0.472680
v -0.009056 0.357039 0.472680
v -0.009056 0.357038 0.472680
v -0.009056 0.357039 0.472680
v -0.009056 0.357038 0.472680
v -0.009056 0.357038 0.472680
v -0.009056 0.357039 0.472680
v -0.009056 0.357038 0.472680
v -0.009056 0.357038 0.472680
v -0.009056 0.357038 0.472680
vt 0.004565927 0.01433844
vt 0.004565927 0.01793315
vt 0.004329301 0.0161358
vt 0.00525968 0.01960802
vt 0.00525968 0.01266358
vt 0.006363282 0.02104626
vt 0.006363282 0.01122533
vt 0.007801523 0.01012173
vt 0.007801523 0.02214986
vt 0.009476391 0.00942798
vt 0.009476391 0.02284362
vt 0.01127375 0.009191354
vt 0.01127375 0.02308024
vt 0.0130711 0.00942798
vt 0.0130711 0.02284362
vt 0.01474597 0.01012173
vt 0.01474597 0.02214986
vt 0.01618421 0.01122533
vt 0.01618421 0.02104626
vt 0.01728781 0.01266358
vt 0.01728781 0.01960802
vt 0.01798156 0.01433844
vt 0.01798156 0.01793315
vt 0.01821819 0.0161358
vn 0 0 1
vn 0 0 -1
usemtl material_0_0
f 1/1/1 2/2/1 3/3/1
f 2/2/1 1/1/1 4/4/1
f 4/4/1 1/1/1 5/5/1
f 4/4/1 5/5/1 6/6/1
f 6/6/1 5/5/1 7/7/1
f 6/6/1 7/7/1 8/8/1
f 6/6/1 8/8/1 9/9/1
f 9/9/1 8/8/1 10/10/1
f 9/9/1 10/10/1 11/11/1
f 11/11/1 10/10/1 12/12/1
f 11/11/1 12/12/1 13/13/1
f 13/13/1 12/12/1 14/14/1
f 13/13/1 14/14/1 15/15/1
f 15/15/1 14/14/1 16/16/1
f 15/15/1 16/16/1 17/17/1
f 17/17/1 16/16/1 18/18/1
f 17/17/1 18/18/1 19/19/1
f 19/19/1 18/18/1 20/20/1
f 19/19/1 20/20/1 21/21/1
f 21/21/1 20/20/1 22/22/1
f 21/21/1 22/22/1 23/23/1
f 23/23/1 22/22/1 24/24/1
f 25/24/2 26/22/2 27/23/2
f 27/23/2 26/22/2 28/21/2
f 26/22/2 29/20/2 28/21/2
f 28/21/2 29/20/2 30/19/2
f 29/20/2 31/18/2 30/19/2
f 30/19/2 31/18/2 32/17/2
f 31/18/2 33/16/2 32/17/2
f 32/17/2 33/16/2 34/15/2
f 33/16/2 35/14/2 34/15/2
f 34/15/2 35/14/2 36/13/2
f 35/14/2 37/12/2 36/13/2
f 36/13/2 37/12/2 38/11/2
f 37/12/2 39/10/2 38/11/2
f 38/11/2 39/10/2 40/9/2
f 39/10/2 41/8/2 40/9/2
f 40/9/2 41/8/2 42/6/2
f 41/8/2 43/7/2 42/6/2
f 43/7/2 44/5/2 42/6/2
f 42/6/2 44/5/2 45/4/2
f 44/5/2 46/1/2 45/4/2
f 45/4/2 46/1/2 47/2/2
f 48/3/2 47/2/2 46/1/2
