# SSTK version 0.8.0
# 23
mtllib original-23.mtl
o #ID56
v -0.009050 0.357077 0.472680
v -0.009014 0.357080 0.472680
v -0.009057 0.357080 0.472680
v -0.009014 0.357077 0.472680
v -0.009014 0.357037 0.472680
v -0.009014 0.357040 0.472680
v -0.009014 0.357040 0.472680
v -0.009014 0.357037 0.472680
v -0.009050 0.357077 0.472680
v -0.009057 0.357080 0.472680
v -0.009014 0.357077 0.472680
v -0.009014 0.357080 0.472680
v -0.009055 0.357037 0.472680
v -0.009055 0.357038 0.472680
v -0.009055 0.357037 0.472680
v -0.009053 0.357038 0.472680
v -0.009053 0.357037 0.472680
v -0.009053 0.357038 0.472680
v -0.009054 0.357039 0.472680
v -0.009054 0.357038 0.472680
v -0.009053 0.357039 0.472680
v -0.009053 0.357039 0.472680
v -0.009049 0.357037 0.472680
v -0.009049 0.357040 0.472680
v -0.009050 0.357037 0.472680
v -0.009057 0.357037 0.472680
v -0.009056 0.357038 0.472680
v -0.009057 0.357040 0.472680
v -0.009056 0.357038 0.472680
v -0.009056 0.357038 0.472680
v -0.009056 0.357038 0.472680
v -0.009056 0.357038 0.472680
v -0.009014 0.357037 0.472680
v -0.009056 0.357038 0.472680
v -0.009056 0.357038 0.472680
v -0.009055 0.357038 0.472680
v -0.009055 0.357038 0.472680
v -0.009055 0.357038 0.472680
v -0.009055 0.357038 0.472680
v -0.009055 0.357038 0.472680
v -0.009055 0.357038 0.472680
v -0.009053 0.357037 0.472680
v -0.009052 0.357037 0.472680
v -0.009052 0.357040 0.472680
v -0.009051 0.357037 0.472680
v -0.009050 0.357037 0.472680
v -0.009051 0.357040 0.472680
v -0.009050 0.357040 0.472680
v -0.009050 0.357037 0.472680
v -0.009050 0.357037 0.472680
v -0.009050 0.357040 0.472680
v -0.009048 0.357037 0.472680
v -0.009038 0.357040 0.472680
v -0.009035 0.357040 0.472680
v -0.009038 0.357058 0.472680
v -0.009020 0.357040 0.472680
v -0.009057 0.357080 0.472680
v -0.009057 0.357077 0.472680
v -0.009035 0.357055 0.472680
v -0.009055 0.357040 0.472680
v -0.009056 0.357039 0.472680
v -0.009056 0.357039 0.472680
v -0.009056 0.357039 0.472680
v -0.009056 0.357038 0.472680
v -0.009056 0.357039 0.472680
v -0.009056 0.357039 0.472680
v -0.009055 0.357039 0.472680
v -0.009055 0.357039 0.472680
v -0.009055 0.357039 0.472680
v -0.009055 0.357039 0.472680
v -0.009055 0.357038 0.472680
v -0.009053 0.357040 0.472680
v -0.009048 0.357040 0.472680
v -0.009048 0.357037 0.472680
v -0.009048 0.357040 0.472680
v -0.009038 0.357040 0.472680
v -0.009049 0.357040 0.472680
v -0.009050 0.357037 0.472680
v -0.009050 0.357040 0.472680
v -0.009050 0.357037 0.472680
v -0.009050 0.357040 0.472680
v -0.009051 0.357040 0.472680
v -0.009052 0.357040 0.472680
v -0.009053 0.357038 0.472680
v -0.009053 0.357039 0.472680
v -0.009053 0.357040 0.472680
v -0.009055 0.357040 0.472680
v -0.009055 0.357037 0.472680
v -0.009055 0.357038 0.472680
v -0.009055 0.357038 0.472680
v -0.009055 0.357038 0.472680
v -0.009055 0.357039 0.472680
v -0.009055 0.357039 0.472680
v -0.009055 0.357039 0.472680
v -0.009055 0.357039 0.472680
v -0.009056 0.357039 0.472680
v -0.009056 0.357039 0.472680
v -0.009056 0.357039 0.472680
v -0.009056 0.357038 0.472680
v -0.009057 0.357040 0.472680
v -0.009056 0.357038 0.472680
v -0.009056 0.357039 0.472680
v -0.009056 0.357039 0.472680
v -0.009020 0.357040 0.472680
v -0.009035 0.357055 0.472680
v -0.009014 0.357037 0.472680
v -0.009035 0.357040 0.472680
v -0.009038 0.357058 0.472680
v -0.009057 0.357080 0.472680
v -0.009057 0.357077 0.472680
v -0.009050 0.357037 0.472680
v -0.009050 0.357037 0.472680
v -0.009051 0.357037 0.472680
v -0.009052 0.357037 0.472680
v -0.009053 0.357037 0.472680
v -0.009055 0.357038 0.472680
v -0.009055 0.357038 0.472680
v -0.009055 0.357038 0.472680
v -0.009055 0.357038 0.472680
v -0.009055 0.357038 0.472680
v -0.009056 0.357038 0.472680
v -0.009056 0.357038 0.472680
v -0.009056 0.357038 0.472680
v -0.009057 0.357037 0.472680
v -0.009056 0.357038 0.472680
v -0.009056 0.357038 0.472680
v -0.009056 0.357038 0.472680
v -0.009049 0.357037 0.472680
v -0.009053 0.357039 0.472680
v -0.009054 0.357039 0.472680
v -0.009054 0.357038 0.472680
v -0.009053 0.357037 0.472680
v -0.009055 0.357037 0.472680
v -0.009053 0.357038 0.472680
vt 0.06454319 0.4052284
vt 0.4375 0.4375
vt 1.472122e-14 0.4375
vt 0.4375 0.4052284
vt 0.4375 -2.441373e-14
vt 0.4375 0.0322716
vt 0.02278607 0.007094737
vt 0.02278607 0.0161358
vt 0.02278607 0.005695893
vt 0.03493841 0.0161358
vt 0.03493841 0.007094737
vt 0.03667496 0.01753464
vt 0.02452263 0.02862584
vt 0.02452263 0.01753464
vt 0.03493841 0.02862584
vt 0.03667496 0.02862584
vt 0.08354952 0.007094737
vt 0.08354952 0.03002469
vt 0.07139718 0.007094737
vt 2.920347e-14 -2.12176e-15
vt 0.004565927 0.01433844
vt 5.446721e-14 0.0322716
vt 0.00525968 0.01266358
vt 0.006363282 0.01122533
vt 0.007801523 0.01012173
vt 0.009476391 0.00942798
vt 0.4375 -2.699076e-14
vt 0.004329301 0.0161358
vt 0.01127375 0.009191354
vt 0.0130711 0.00942798
vt 0.01474597 0.01012173
vt 0.01618421 0.01122533
vt 0.01728781 0.01266358
vt 0.01798156 0.01433844
vt 0.01821819 0.0161358
vt 0.03667496 0.005695893
vt 0.04361941 0.005695893
vt 0.04361941 0.03002469
vt 0.05750829 0.005695893
vt 0.06445274 0.005695893
vt 0.05750829 0.03002469
vt 0.06445274 0.03002469
vt 0.0661893 0.005695893
vt 0.07139718 0.005695893
vt 0.0661893 0.03002469
vt 0.08528607 0.005695893
vt 0.1864784 0.0322716
vt 0.21875 0.0322716
vt 0.1864784 0.21875
vt 0.3729568 0.0322716
vt 2.940084e-14 0.4375
vt 2.940084e-14 0.4052284
vt 0.21875 0.1864784
vt 0.02278607 0.03002469
vt 0.007801523 0.02214986
vt 0.006363282 0.02104626
vt 0.00525968 0.01960802
vt 0.004565927 0.01793315
vt 0.009476391 0.02284362
vt 0.01127375 0.02308024
vt 0.0130711 0.02284362
vt 0.01474597 0.02214986
vt 0.01618421 0.02104626
vt 0.01728781 0.01960802
vt 0.01798156 0.01793315
vt 0.03667496 0.03002469
vt 0.08528607 0.03002469
vn 0 0 1
vn 0 0 -1
usemtl material_0_0
f 1/1/1 2/2/1 3/3/1
f 2/2/1 1/1/1 4/4/1
f 5/5/1 1/1/1 3/3/1
f 1/1/1 5/5/1 6/6/1
f 7/6/2 8/5/2 9/1/2
f 10/3/2 9/1/2 8/5/2
f 11/4/2 9/1/2 12/2/2
f 10/3/2 12/2/2 9/1/2
f 13/7/1 14/8/1 15/9/1
f 14/8/1 13/7/1 16/10/1
f 16/10/1 13/7/1 17/11/1
f 18/12/1 19/13/1 20/14/1
f 19/13/1 18/12/1 21/15/1
f 21/15/1 18/12/1 22/16/1
f 23/17/1 24/18/1 25/19/1
f 26/20/1 27/21/1 28/22/1
f 27/21/1 26/20/1 29/23/1
f 29/23/1 26/20/1 30/24/1
f 30/24/1 26/20/1 31/25/1
f 31/25/1 26/20/1 32/26/1
f 32/26/1 26/20/1 15/9/1
f 15/9/1 26/20/1 33/27/1
f 28/22/1 27/21/1 34/28/1
f 32/26/1 15/9/1 35/29/1
f 35/29/1 15/9/1 36/30/1
f 36/30/1 15/9/1 37/31/1
f 37/31/1 15/9/1 38/32/1
f 38/32/1 15/9/1 39/33/1
f 39/33/1 15/9/1 40/34/1
f 40/34/1 15/9/1 41/35/1
f 15/9/1 33/27/1 42/36/1
f 42/36/1 33/27/1 43/37/1
f 42/36/1 43/37/1 18/12/1
f 18/12/1 43/37/1 44/38/1
f 43/37/1 33/27/1 45/39/1
f 45/39/1 33/27/1 46/40/1
f 45/39/1 46/40/1 47/41/1
f 47/41/1 46/40/1 48/42/1
f 46/40/1 33/27/1 49/43/1
f 49/43/1 33/27/1 50/44/1
f 49/43/1 50/44/1 51/45/1
f 50/44/1 33/27/1 52/46/1
f 52/46/1 33/27/1 53/47/1
f 53/47/1 33/27/1 54/48/1
f 53/47/1 54/48/1 55/49/1
f 54/48/1 33/27/1 56/50/1
f 55/49/1 57/51/1 58/52/1
f 57/51/1 55/49/1 33/27/1
f 33/27/1 55/49/1 59/53/1
f 59/53/1 55/49/1 54/48/1
f 33/27/1 59/53/1 56/50/1
f 28/22/1 60/54/1 53/47/1
f 60/54/1 28/22/1 61/55/1
f 61/55/1 28/22/1 62/56/1
f 62/56/1 28/22/1 63/57/1
f 63/57/1 28/22/1 64/58/1
f 64/58/1 28/22/1 34/28/1
f 60/54/1 61/55/1 65/59/1
f 60/54/1 65/59/1 66/60/1
f 60/54/1 66/60/1 67/61/1
f 60/54/1 67/61/1 68/62/1
f 60/54/1 68/62/1 69/63/1
f 60/54/1 69/63/1 70/64/1
f 60/54/1 70/64/1 71/65/1
f 60/54/1 71/65/1 41/35/1
f 60/54/1 41/35/1 14/8/1
f 14/8/1 41/35/1 15/9/1
f 53/47/1 60/54/1 72/66/1
f 53/47/1 72/66/1 44/38/1
f 44/38/1 72/66/1 22/16/1
f 44/38/1 22/16/1 18/12/1
f 53/47/1 44/38/1 47/41/1
f 53/47/1 47/41/1 48/42/1
f 53/47/1 48/42/1 51/45/1
f 53/47/1 51/45/1 24/18/1
f 24/18/1 51/45/1 25/19/1
f 25/19/1 51/45/1 50/44/1
f 53/47/1 24/18/1 73/67/1
f 53/47/1 73/67/1 52/46/1
f 74/46/2 75/67/2 76/47/2
f 75/67/2 77/18/2 76/47/2
f 78/44/2 79/45/2 80/19/2
f 80/19/2 79/45/2 77/18/2
f 77/18/2 79/45/2 76/47/2
f 79/45/2 81/42/2 76/47/2
f 81/42/2 82/41/2 76/47/2
f 82/41/2 83/38/2 76/47/2
f 84/12/2 85/16/2 83/38/2
f 85/16/2 86/66/2 83/38/2
f 83/38/2 86/66/2 76/47/2
f 86/66/2 87/54/2 76/47/2
f 88/9/2 89/35/2 90/8/2
f 90/8/2 89/35/2 87/54/2
f 89/35/2 91/65/2 87/54/2
f 91/65/2 92/64/2 87/54/2
f 92/64/2 93/63/2 87/54/2
f 93/63/2 94/62/2 87/54/2
f 94/62/2 95/61/2 87/54/2
f 95/61/2 96/60/2 87/54/2
f 96/60/2 97/59/2 87/54/2
f 97/59/2 98/55/2 87/54/2
f 99/28/2 100/22/2 101/58/2
f 101/58/2 100/22/2 102/57/2
f 102/57/2 100/22/2 103/56/2
f 103/56/2 100/22/2 98/55/2
f 98/55/2 100/22/2 87/54/2
f 76/47/2 87/54/2 100/22/2
f 104/50/2 105/53/2 106/27/2
f 107/48/2 108/49/2 105/53/2
f 105/53/2 108/49/2 106/27/2
f 106/27/2 108/49/2 109/51/2
f 110/52/2 109/51/2 108/49/2
f 104/50/2 106/27/2 107/48/2
f 108/49/2 107/48/2 76/47/2
f 107/48/2 106/27/2 76/47/2
f 76/47/2 106/27/2 74/46/2
f 74/46/2 106/27/2 78/44/2
f 79/45/2 78/44/2 111/43/2
f 78/44/2 106/27/2 111/43/2
f 111/43/2 106/27/2 112/40/2
f 81/42/2 112/40/2 82/41/2
f 82/41/2 112/40/2 113/39/2
f 112/40/2 106/27/2 113/39/2
f 113/39/2 106/27/2 114/37/2
f 83/38/2 114/37/2 84/12/2
f 84/12/2 114/37/2 115/36/2
f 114/37/2 106/27/2 115/36/2
f 115/36/2 106/27/2 88/9/2
f 89/35/2 88/9/2 116/34/2
f 116/34/2 88/9/2 117/33/2
f 117/33/2 88/9/2 118/32/2
f 118/32/2 88/9/2 119/31/2
f 119/31/2 88/9/2 120/30/2
f 120/30/2 88/9/2 121/29/2
f 121/29/2 88/9/2 122/26/2
f 99/28/2 123/21/2 100/22/2
f 106/27/2 124/20/2 88/9/2
f 88/9/2 124/20/2 122/26/2
f 122/26/2 124/20/2 125/25/2
f 125/25/2 124/20/2 126/24/2
f 126/24/2 124/20/2 127/23/2
f 127/23/2 124/20/2 123/21/2
f 100/22/2 123/21/2 124/20/2
f 80/19/2 77/18/2 128/17/2
f 85/16/2 84/12/2 129/15/2
f 129/15/2 84/12/2 130/13/2
f 131/14/2 130/13/2 84/12/2
f 132/11/2 133/7/2 134/10/2
f 134/10/2 133/7/2 90/8/2
f 88/9/2 90/8/2 133/7/2
