# SSTK version 0.8.0
# 85
mtllib original-85.mtl
o #ID397
v -0.070530 0.461596 0.469241
v -0.057665 0.462391 0.469241
v -0.061433 0.459499 0.469241
v -0.066995 0.462061 0.469241
v -0.063700 0.463426 0.469241
v -0.054773 0.466159 0.469241
v -0.060871 0.465597 0.469241
v -0.058700 0.468426 0.469241
v -0.052955 0.470547 0.469241
v -0.057335 0.471721 0.469241
v -0.052335 0.475256 0.469241
v -0.056870 0.475256 0.469241
v -0.075240 0.457681 0.469241
v -0.065821 0.457681 0.469241
v -0.070530 0.457061 0.469241
v -0.079628 0.459499 0.469241
v -0.083396 0.462391 0.469241
v -0.074066 0.462061 0.469241
v -0.077361 0.463426 0.469241
v -0.086288 0.466159 0.469241
v -0.080190 0.465597 0.469241
v -0.082361 0.468426 0.469241
v -0.088105 0.470547 0.469241
v -0.083726 0.471721 0.469241
v -0.088725 0.475256 0.469241
v -0.084191 0.475256 0.469241
v -0.083726 0.478792 0.469241
v -0.088105 0.479966 0.469241
v -0.082361 0.482087 0.469241
v -0.086288 0.484354 0.469241
v -0.080190 0.484916 0.469241
v -0.083396 0.488122 0.469241
v -0.077361 0.487087 0.469241
v -0.074066 0.488452 0.469241
v -0.079628 0.491014 0.469241
v -0.070530 0.488917 0.469241
v -0.057335 0.478792 0.469241
v -0.052955 0.479966 0.469241
v -0.058700 0.482087 0.469241
v -0.054773 0.484354 0.469241
v -0.060871 0.484916 0.469241
v -0.057665 0.488122 0.469241
v -0.063700 0.487087 0.469241
v -0.066995 0.488452 0.469241
v -0.061433 0.491014 0.469241
v -0.075240 0.492831 0.469241
v -0.065821 0.492831 0.469241
v -0.070530 0.493451 0.469241
v -0.075240 0.492831 0.469735
v -0.079628 0.491014 0.469241
v -0.079628 0.491014 0.469735
v -0.075240 0.492831 0.469241
v -0.070530 0.493451 0.469241
v -0.075240 0.492831 0.469735
v -0.075240 0.492831 0.469241
v -0.070530 0.493451 0.469735
v -0.070530 0.493451 0.469735
v -0.070530 0.493451 0.469241
v -0.065821 0.492831 0.469241
v -0.065821 0.492831 0.469735
v -0.065821 0.492831 0.469735
v -0.065821 0.492831 0.469241
v -0.061433 0.491014 0.469241
v -0.061433 0.491014 0.469735
v -0.061433 0.491014 0.469735
v -0.061433 0.491014 0.469241
v -0.057665 0.488122 0.469241
v -0.057665 0.488122 0.469735
v -0.057665 0.488122 0.469735
v -0.057665 0.488122 0.469241
v -0.054773 0.484354 0.469735
v -0.054773 0.484354 0.469241
v -0.054773 0.484354 0.469241
v -0.054773 0.484354 0.469735
v -0.052955 0.479966 0.469241
v -0.052955 0.479966 0.469735
v -0.052955 0.479966 0.469241
v -0.052955 0.479966 0.469735
v -0.052335 0.475256 0.469735
v -0.052335 0.475256 0.469241
v -0.052335 0.475256 0.469241
v -0.052335 0.475256 0.469735
v -0.052335 0.475256 0.469241
v -0.052955 0.470547 0.469735
v -0.052335 0.475256 0.469735
v -0.052955 0.470547 0.469241
v -0.052955 0.470547 0.469241
v -0.052335 0.475256 0.469241
v -0.052955 0.470547 0.469735
v -0.052335 0.475256 0.469735
v -0.054773 0.466159 0.469735
v -0.054773 0.466159 0.469241
v -0.054773 0.466159 0.469241
v -0.054773 0.466159 0.469735
v -0.057665 0.462391 0.469735
v -0.057665 0.462391 0.469241
v -0.057665 0.462391 0.469241
v -0.057665 0.462391 0.469735
v -0.061433 0.459499 0.469241
v -0.061433 0.459499 0.469735
v -0.061433 0.459499 0.469241
v -0.061433 0.459499 0.469735
v -0.065821 0.457681 0.469241
v -0.065821 0.457681 0.469735
v -0.065821 0.457681 0.469241
v -0.065821 0.457681 0.469735
v -0.070530 0.457061 0.469241
v -0.070530 0.457061 0.469735
v -0.070530 0.457061 0.469241
v -0.070530 0.457061 0.469735
v -0.075240 0.457681 0.469241
v -0.075240 0.457681 0.469735
v -0.075240 0.457681 0.469241
v -0.075240 0.457681 0.469735
v -0.079628 0.459499 0.469241
v -0.079628 0.459499 0.469735
v -0.079628 0.459499 0.469241
v -0.079628 0.459499 0.469735
v -0.083396 0.462391 0.469241
v -0.083396 0.462391 0.469735
v -0.083396 0.462391 0.469241
v -0.083396 0.462391 0.469735
v -0.086288 0.466159 0.469735
v -0.086288 0.466159 0.469241
v -0.086288 0.466159 0.469241
v -0.086288 0.466159 0.469735
v -0.088105 0.470547 0.469735
v -0.088105 0.470547 0.469241
v -0.088105 0.470547 0.469241
v -0.088105 0.470547 0.469735
v -0.088725 0.475256 0.469735
v -0.088725 0.475256 0.469241
v -0.088725 0.475256 0.469241
v -0.088725 0.475256 0.469735
v -0.088105 0.479966 0.469735
v -0.088105 0.479966 0.469241
v -0.088105 0.479966 0.469241
v -0.088105 0.479966 0.469735
v -0.086288 0.484354 0.469735
v -0.086288 0.484354 0.469241
v -0.086288 0.484354 0.469241
v -0.086288 0.484354 0.469735
v -0.083396 0.488122 0.469241
v -0.083396 0.488122 0.469735
v -0.083396 0.488122 0.469241
v -0.083396 0.488122 0.469735
v -0.079628 0.491014 0.469241
v -0.079628 0.491014 0.469735
v -0.070530 0.461596 0.469735
v -0.057665 0.462391 0.469735
v -0.061433 0.459499 0.469735
v -0.066995 0.462061 0.469735
v -0.063700 0.463426 0.469735
v -0.054773 0.466159 0.469735
v -0.060871 0.465597 0.469735
v -0.058700 0.468426 0.469735
v -0.052955 0.470547 0.469735
v -0.057335 0.471721 0.469735
v -0.052335 0.475256 0.469735
v -0.056870 0.475256 0.469735
v -0.075240 0.457681 0.469735
v -0.065821 0.457681 0.469735
v -0.070530 0.457061 0.469735
v -0.079628 0.459499 0.469735
v -0.083396 0.462391 0.469735
v -0.074066 0.462061 0.469735
v -0.077361 0.463426 0.469735
v -0.086288 0.466159 0.469735
v -0.080190 0.465597 0.469735
v -0.082361 0.468426 0.469735
v -0.088105 0.470547 0.469735
v -0.083726 0.471721 0.469735
v -0.088725 0.475256 0.469735
v -0.084191 0.475256 0.469735
v -0.083726 0.478792 0.469735
v -0.088105 0.479966 0.469735
v -0.082361 0.482087 0.469735
v -0.086288 0.484354 0.469735
v -0.080190 0.484916 0.469735
v -0.083396 0.488122 0.469735
v -0.077361 0.487087 0.469735
v -0.074066 0.488452 0.469735
v -0.079628 0.491014 0.469735
v -0.070530 0.488917 0.469735
v -0.057335 0.478792 0.469735
v -0.052955 0.479966 0.469735
v -0.058700 0.482087 0.469735
v -0.054773 0.484354 0.469735
v -0.060871 0.484916 0.469735
v -0.057665 0.488122 0.469735
v -0.063700 0.487087 0.469735
v -0.066995 0.488452 0.469735
v -0.061433 0.491014 0.469735
v -0.075240 0.492831 0.469735
v -0.065821 0.492831 0.469735
v -0.070530 0.493451 0.469735
v -0.070530 0.493451 0.469735
v -0.075240 0.492831 0.469735
v -0.065821 0.492831 0.469735
v -0.061433 0.491014 0.469735
v -0.079628 0.491014 0.469735
v -0.070530 0.488917 0.469735
v -0.066995 0.488452 0.469735
v -0.057665 0.488122 0.469735
v -0.063700 0.487087 0.469735
v -0.060871 0.484916 0.469735
v -0.054773 0.484354 0.469735
v -0.058700 0.482087 0.469735
v -0.052955 0.479966 0.469735
v -0.057335 0.478792 0.469735
v -0.052335 0.475256 0.469735
v -0.056870 0.475256 0.469735
v -0.074066 0.488452 0.469735
v -0.083396 0.488122 0.469735
v -0.077361 0.487087 0.469735
v -0.080190 0.484916 0.469735
v -0.086288 0.484354 0.469735
v -0.082361 0.482087 0.469735
v -0.088105 0.479966 0.469735
v -0.083726 0.478792 0.469735
v -0.088725 0.475256 0.469735
v -0.084191 0.475256 0.469735
v -0.083726 0.471721 0.469735
v -0.088105 0.470547 0.469735
v -0.082361 0.468426 0.469735
v -0.086288 0.466159 0.469735
v -0.080190 0.465597 0.469735
v -0.077361 0.463426 0.469735
v -0.083396 0.462391 0.469735
v -0.074066 0.462061 0.469735
v -0.070530 0.461596 0.469735
v -0.061433 0.459499 0.469735
v -0.079628 0.459499 0.469735
v -0.065821 0.457681 0.469735
v -0.075240 0.457681 0.469735
v -0.070530 0.457061 0.469735
v -0.057335 0.471721 0.469735
v -0.052955 0.470547 0.469735
v -0.058700 0.468426 0.469735
v -0.054773 0.466159 0.469735
v -0.060871 0.465597 0.469735
v -0.063700 0.463426 0.469735
v -0.057665 0.462391 0.469735
v -0.066995 0.462061 0.469735
v -0.052335 0.475256 0.469735
v -0.056870 0.475256 0.469241
v -0.056870 0.475256 0.469735
v -0.052335 0.475256 0.469241
vn 0 0 -1
vn -0.19481419313692205 0.9808401654461394 0
vn -0.555804330533084 0.8313131456681474 0
vn 0 1 0
vn 0.25881900959356163 0.9659258358036645 0
vn 0.5000000016387101 0.866025402838329 0
vn 0.7071067811865476 0.7071067811865476 0
vn 0.866025402838329 0.5000000016387101 0
vn 0.9659258358036645 0.25881900959356163 0
vn 0.9914448610250887 0.1305261948688555 0
vn 0.9659258358036645 -0.25881900959356163 0
vn 0.9914448610250887 -0.1305261948688555 0
vn 0.866025402838329 -0.5000000016387101 0
vn 0.7071067811865476 -0.7071067811865476 0
vn 0.5000000016387101 -0.866025402838329 0
vn 0.25881900959356163 -0.9659258358036645 0
vn 0 -1 0
vn -0.25881900959356163 -0.9659258358036645 0
vn -0.5000000016387101 -0.866025402838329 0
vn -0.7071067811865476 -0.7071067811865476 0
vn -0.866025402838329 -0.5000000016387101 0
vn -0.9659258358036645 -0.25881900959356163 0
vn -1 0 0
vn -0.9659258358036645 0.25881900959356163 0
vn -0.866025402838329 0.5000000016387101 0
vn -0.7071067811865476 0.7071067811865476 0
vn 0 0 1
vn 0.19481419313692205 -0.9808401654461394 0
vn -0.9914448610250887 -0.1305261948688555 0
vn -0.9914448610250887 0.1305261948688555 0
vn -0.5000000016387101 0.866025402838329 0
vn -0.25881900959356163 0.9659258358036645 0
vn 1 0 0
vn 0.555804330533084 -0.8313131456681474 0
usemtl material_0_0
f 1//1 2//1 3//1
f 2//1 1//1 4//1
f 2//1 4//1 5//1
f 2//1 5//1 6//1
f 6//1 5//1 7//1
f 6//1 7//1 8//1
f 6//1 8//1 9//1
f 9//1 8//1 10//1
f 9//1 10//1 11//1
f 11//1 10//1 12//1
f 13//1 14//1 15//1
f 14//1 13//1 16//1
f 14//1 16//1 3//1
f 3//1 16//1 17//1
f 3//1 17//1 1//1
f 1//1 17//1 18//1
f 18//1 17//1 19//1
f 19//1 17//1 20//1
f 19//1 20//1 21//1
f 21//1 20//1 22//1
f 22//1 20//1 23//1
f 22//1 23//1 24//1
f 24//1 23//1 25//1
f 24//1 25//1 26//1
f 26//1 25//1 27//1
f 27//1 25//1 28//1
f 27//1 28//1 29//1
f 29//1 28//1 30//1
f 29//1 30//1 31//1
f 31//1 30//1 32//1
f 31//1 32//1 33//1
f 33//1 32//1 34//1
f 34//1 32//1 35//1
f 34//1 35//1 36//1
f 37//1 11//1 12//1
f 11//1 37//1 38//1
f 38//1 37//1 39//1
f 38//1 39//1 40//1
f 40//1 39//1 41//1
f 40//1 41//1 42//1
f 42//1 41//1 43//1
f 42//1 43//1 44//1
f 42//1 44//1 45//1
f 45//1 44//1 36//1
f 45//1 36//1 35//1
f 45//1 35//1 46//1
f 45//1 46//1 47//1
f 47//1 46//1 48//1
f 49//2 50//3 51//3
f 50//3 49//2 52//2
f 57//4 58//4 49//2
f 52//2 49//2 58//4
f 61//5 62//5 57//4
f 58//4 57//4 62//5
f 65//6 66//6 61//5
f 62//5 61//5 66//6
f 69//7 70//7 65//6
f 66//6 65//6 70//7
f 73//8 70//7 74//8
f 69//7 74//8 70//7
f 73//8 74//8 77//9
f 78//9 77//9 74//8
f 81//10 77//9 82//10
f 78//9 82//10 77//9
f 87//11 88//12 89//11
f 90//12 89//11 88//12
f 93//13 87//11 94//13
f 89//11 94//13 87//11
f 97//14 93//13 98//14
f 94//13 98//14 93//13
f 97//14 98//14 101//15
f 102//15 101//15 98//14
f 101//15 102//15 105//16
f 106//16 105//16 102//15
f 105//16 106//16 109//17
f 110//17 109//17 106//16
f 109//17 110//17 113//18
f 114//18 113//18 110//17
f 113//18 114//18 117//19
f 118//19 117//19 114//18
f 117//19 118//19 121//20
f 122//20 121//20 118//19
f 125//21 121//20 126//21
f 122//20 126//21 121//20
f 129//22 125//21 130//22
f 126//21 130//22 125//21
f 133//23 129//22 134//23
f 130//22 134//23 129//22
f 137//24 133//23 138//24
f 134//23 138//24 133//23
f 141//25 137//24 142//25
f 138//24 142//25 137//24
f 141//25 142//25 145//26
f 146//26 145//26 142//25
f 51//3 50//3 146//26
f 145//26 146//26 50//3
f 197//27 198//27 199//27
f 199//27 198//27 200//27
f 198//27 201//27 200//27
f 201//27 202//27 200//27
f 202//27 203//27 200//27
f 200//27 203//27 204//27
f 203//27 205//27 204//27
f 205//27 206//27 204//27
f 204//27 206//27 207//27
f 206//27 208//27 207//27
f 207//27 208//27 209//27
f 208//27 210//27 209//27
f 209//27 210//27 211//27
f 212//27 211//27 210//27
f 202//27 201//27 213//27
f 201//27 214//27 213//27
f 213//27 214//27 215//27
f 215//27 214//27 216//27
f 214//27 217//27 216//27
f 216//27 217//27 218//27
f 217//27 219//27 218//27
f 218//27 219//27 220//27
f 219//27 221//27 220//27
f 220//27 221//27 222//27
f 222//27 221//27 223//27
f 221//27 224//27 223//27
f 223//27 224//27 225//27
f 224//27 226//27 225//27
f 225//27 226//27 227//27
f 227//27 226//27 228//27
f 226//27 229//27 228//27
f 228//27 229//27 230//27
f 230//27 229//27 231//27
f 231//27 229//27 232//27
f 229//27 233//27 232//27
f 232//27 233//27 234//27
f 233//27 235//27 234//27
f 236//27 234//27 235//27
f 212//27 237//27 211//27
f 211//27 237//27 238//27
f 237//27 239//27 238//27
f 238//27 239//27 240//27
f 239//27 241//27 240//27
f 241//27 242//27 240//27
f 240//27 242//27 243//27
f 242//27 244//27 243//27
f 244//27 231//27 243//27
f 232//27 243//27 231//27
f 245//4 246//4 247//4
f 246//4 245//4 248//4
usemtl material_1_0
f 53//17 54//28 55//28
f 54//28 53//17 56//17
f 59//18 56//17 53//17
f 56//17 59//18 60//18
f 63//19 60//18 59//18
f 60//18 63//19 64//19
f 67//20 64//19 63//19
f 64//19 67//20 68//20
f 67//20 71//21 68//20
f 71//21 67//20 72//21
f 71//21 75//22 76//22
f 75//22 71//21 72//21
f 75//22 79//29 76//22
f 79//29 75//22 80//29
f 83//30 84//24 85//30
f 84//24 83//30 86//24
f 86//24 91//25 84//24
f 91//25 86//24 92//25
f 92//25 95//26 91//25
f 95//26 92//25 96//26
f 95//26 99//31 100//31
f 99//31 95//26 96//26
f 100//31 103//32 104//32
f 103//32 100//31 99//31
f 104//32 107//4 108//4
f 107//4 104//32 103//32
f 108//4 111//5 112//5
f 111//5 108//4 107//4
f 112//5 115//6 116//6
f 115//6 112//5 111//5
f 116//6 119//7 120//7
f 119//7 116//6 115//6
f 119//7 123//8 120//7
f 123//8 119//7 124//8
f 124//8 127//9 123//8
f 127//9 124//8 128//9
f 128//9 131//33 127//9
f 131//33 128//9 132//33
f 132//33 135//11 131//33
f 135//11 132//33 136//11
f 136//11 139//13 135//11
f 139//13 136//11 140//13
f 139//13 143//14 144//14
f 143//14 139//13 140//13
f 147//34 144//14 143//14
f 144//14 147//34 148//34
f 149//1 150//1 151//1
f 150//1 149//1 152//1
f 150//1 152//1 153//1
f 150//1 153//1 154//1
f 154//1 153//1 155//1
f 154//1 155//1 156//1
f 154//1 156//1 157//1
f 157//1 156//1 158//1
f 157//1 158//1 159//1
f 159//1 158//1 160//1
f 161//1 162//1 163//1
f 162//1 161//1 164//1
f 162//1 164//1 151//1
f 151//1 164//1 165//1
f 151//1 165//1 149//1
f 149//1 165//1 166//1
f 166//1 165//1 167//1
f 167//1 165//1 168//1
f 167//1 168//1 169//1
f 169//1 168//1 170//1
f 170//1 168//1 171//1
f 170//1 171//1 172//1
f 172//1 171//1 173//1
f 172//1 173//1 174//1
f 174//1 173//1 175//1
f 175//1 173//1 176//1
f 175//1 176//1 177//1
f 177//1 176//1 178//1
f 177//1 178//1 179//1
f 179//1 178//1 180//1
f 179//1 180//1 181//1
f 181//1 180//1 182//1
f 182//1 180//1 183//1
f 182//1 183//1 184//1
f 185//1 159//1 160//1
f 159//1 185//1 186//1
f 186//1 185//1 187//1
f 186//1 187//1 188//1
f 188//1 187//1 189//1
f 188//1 189//1 190//1
f 190//1 189//1 191//1
f 190//1 191//1 192//1
f 190//1 192//1 193//1
f 193//1 192//1 184//1
f 193//1 184//1 183//1
f 193//1 183//1 194//1
f 193//1 194//1 195//1
f 195//1 194//1 196//1
