# SSTK version 0.8.0
# 104
mtllib original-104.mtl
o #ID490
v -0.235683 0.084175 0.019336
v -0.174959 0.084175 -0.085842
v -0.212245 0.084175 -0.037250
v -0.126367 0.084175 -0.123128
v -0.243678 0.084175 0.080060
v -0.235683 0.084175 0.140785
v -0.069781 0.084175 -0.146566
v -0.009057 0.084175 -0.154561
v -0.212245 0.084175 0.197371
v -0.174959 0.084175 0.245963
v 0.051668 0.084175 -0.146566
v -0.126367 0.084175 0.283248
v 0.108254 0.084175 -0.123128
v -0.069781 0.084175 0.306687
v 0.156845 0.084175 -0.085842
v -0.009057 0.084175 0.314682
v 0.194131 0.084175 -0.037250
v 0.051668 0.084175 0.306687
v 0.217570 0.084175 0.019336
v 0.108254 0.084175 0.283248
v 0.225564 0.084175 0.080060
v 0.156845 0.084175 0.245963
v 0.217570 0.084175 0.140785
v 0.194131 0.084175 0.197371
vn 0 1 0
usemtl material_0_0
f 1//1 2//1 3//1
f 2//1 1//1 4//1
f 4//1 1//1 5//1
f 4//1 5//1 6//1
f 4//1 6//1 7//1
f 7//1 6//1 8//1
f 8//1 6//1 9//1
f 8//1 9//1 10//1
f 8//1 10//1 11//1
f 11//1 10//1 12//1
f 11//1 12//1 13//1
f 13//1 12//1 14//1
f 13//1 14//1 15//1
f 15//1 14//1 16//1
f 15//1 16//1 17//1
f 17//1 16//1 18//1
f 17//1 18//1 19//1
f 19//1 18//1 20//1
f 19//1 20//1 21//1
f 21//1 20//1 22//1
f 21//1 22//1 23//1
f 23//1 22//1 24//1
