# SSTK version 0.8.0
# 75
mtllib original-75.mtl
o #ID340
v 0.107758 0.374408 0.517054
v 0.100230 0.369105 0.517054
v 0.107060 0.369105 0.517054
v 0.101161 0.376176 0.517054
v 0.101161 0.376176 0.469241
v 0.100230 0.369105 0.517054
v 0.101161 0.376176 0.517054
v 0.100230 0.369105 0.469241
v 0.103645 0.369105 0.469241
v 0.100230 0.369105 0.517054
v 0.100230 0.369105 0.469241
v 0.107060 0.369105 0.517054
v 0.107060 0.369105 0.469241
v 0.107060 0.369105 0.510224
v 0.107758 0.374408 0.517054
v 0.107758 0.374408 0.510224
v 0.107758 0.374408 0.517054
v 0.101161 0.376176 0.469241
v 0.101161 0.376176 0.517054
v 0.104459 0.375292 0.469241
v 0.107758 0.374408 0.469241
v 0.107758 0.374408 0.510224
vn 0 0 1
vn -0.9914448610250887 0.1305261948688555 0
vn 0 -1 0
vn 0.659345810272054 -0.7518398117130328 0
vn 0.42190651792116746 -0.9066393385109845 0
vn 0.9914448610250887 -0.1305261948688555 0
vn 0.25881900959356163 0.9659258358036645 0
usemtl material_0_0
f 1//1 2//1 3//1
f 2//1 1//1 4//1
f 5//2 6//2 7//2
f 6//2 5//2 8//2
f 9//3 10//3 11//3
f 10//3 9//3 12//4
f 12//4 9//3 13//3
f 12//4 13//3 14//5
f 14//5 15//6 12//4
f 15//6 14//5 16//6
f 17//7 18//7 19//7
f 18//7 17//7 20//7
f 20//7 17//7 21//7
f 21//7 17//7 22//7
