# SSTK version 0.8.0
# 18
mtllib original-18.mtl
o #ID182
v -0.009057 0.327969 0.475491
v -0.012097 0.328370 0.475491
v -0.009057 0.327757 0.475491
v -0.009057 0.327757 0.475491
v -0.012097 0.328370 0.475491
v -0.009057 0.327969 0.475491
vt 0.02762777 0.01546724
vt 0.02453632 0.01609033
vt 0.02762777 0.01568333
vn 0 0 1
vn -0.11106919915318844 -0.37867659711290147 0.9188403929945955
vn 0.26536478779394984 -0.26717248771080054 0.92639105738856
vn -0.26536478779394984 0.26717248771080054 -0.92639105738856
vn 0.11106919915318844 0.37867659711290147 -0.9188403929945955
vn 0 0 -1
usemtl material_0_0
f 1//1 2//2 3//3
usemtl material_1_0
f 4/1/4 5/2/5 6/3/6
