# SSTK version 0.8.0
# 13
mtllib original-13.mtl
o #ID140
v -0.009057 0.317041 0.469822
v -0.028696 0.328379 0.475491
v -0.028696 0.328379 0.469822
v -0.009057 0.317041 0.475491
v -0.009057 0.317041 0.475491
v -0.009057 0.317041 0.469822
v -0.028696 0.328379 0.475491
v -0.028696 0.328379 0.469822
v 0.010582 0.328379 0.475491
v 0.010582 0.328379 0.469822
v 0.010582 0.328379 0.475491
v 0.010582 0.328379 0.469822
v -0.028696 0.328379 0.475491
v -0.026079 0.335157 0.475491
v -0.026679 0.339718 0.475491
v -0.024318 0.330907 0.475491
v -0.021518 0.327257 0.475491
v -0.009057 0.317041 0.475491
v -0.017868 0.324456 0.475491
v -0.013618 0.322696 0.475491
v -0.009057 0.322095 0.475491
v -0.004496 0.322696 0.475491
v 0.010582 0.328379 0.475491
v -0.000246 0.324456 0.475491
v 0.003404 0.327257 0.475491
v 0.006205 0.330907 0.475491
v 0.007965 0.335157 0.475491
v 0.008566 0.339718 0.475491
v -0.028696 0.351056 0.475491
v -0.021518 0.352179 0.475491
v -0.009057 0.362395 0.475491
v -0.024318 0.348529 0.475491
v -0.026079 0.344279 0.475491
v -0.017868 0.354979 0.475491
v -0.013618 0.356740 0.475491
v -0.009057 0.357340 0.475491
v -0.004496 0.356740 0.475491
v 0.010582 0.351056 0.475491
v -0.000246 0.354979 0.475491
v 0.003404 0.352179 0.475491
v 0.006205 0.348529 0.475491
v 0.007965 0.344279 0.475491
v 0.010582 0.339718 0.475491
v 0.010582 0.339718 0.475491
v 0.010582 0.328379 0.475491
v 0.010582 0.351056 0.475491
v 0.008566 0.339718 0.475491
v 0.007965 0.344279 0.475491
v 0.006205 0.348529 0.475491
v 0.003404 0.352179 0.475491
v -0.000246 0.354979 0.475491
v -0.004496 0.356740 0.475491
v -0.009057 0.362395 0.475491
v -0.009057 0.357340 0.475491
v -0.013618 0.356740 0.475491
v -0.017868 0.354979 0.475491
v -0.021518 0.352179 0.475491
v -0.026679 0.339718 0.475491
v -0.028696 0.328379 0.475491
v -0.026079 0.344279 0.475491
v -0.028696 0.351056 0.475491
v -0.024318 0.348529 0.475491
v 0.007965 0.335157 0.475491
v 0.006205 0.330907 0.475491
v 0.003404 0.327257 0.475491
v -0.000246 0.324456 0.475491
v -0.004496 0.322696 0.475491
v -0.009057 0.317041 0.475491
v -0.009057 0.322095 0.475491
v -0.013618 0.322696 0.475491
v -0.017868 0.324456 0.475491
v -0.021518 0.327257 0.475491
v -0.024318 0.330907 0.475491
v -0.026079 0.335157 0.475491
v -0.028696 0.351056 0.475491
v -0.028696 0.351056 0.469822
v -0.028696 0.351056 0.469822
v -0.028696 0.351056 0.475491
v 0.010582 0.351056 0.469822
v 0.010582 0.339718 0.475491
v 0.010582 0.351056 0.475491
v 0.010582 0.351056 0.475491
v 0.010582 0.351056 0.469822
v 0.010582 0.339718 0.475491
v -0.009057 0.362395 0.475491
v -0.009057 0.362395 0.469822
v -0.009057 0.362395 0.475491
v -0.009057 0.362395 0.469822
vt 0.02164025 0.006354167
vt 0.02164025 0.0005902778
vt -0.001415311 0.006354167
vt -0.001415311 0.0005902778
vt 0.02621246 0.006354167
vt 0.04926802 0.006354167
vt 0.02621246 0.0005902778
vt 0.04926802 0.0005902778
vt 0.04759447 0.02762777
vt 0.04759447 0.0161
vt 0.04759447 0.03915555
vt 0.04554444 0.02762777
vt 0.04493395 0.03226495
vt 0.04314406 0.03658611
vt 0.04029677 0.04029677
vt 0.03658611 0.04314406
vt 0.03226495 0.04493395
vt 0.02762777 0.05068333
vt 0.02762777 0.04554444
vt 0.0229906 0.04493395
vt 0.01866944 0.04314406
vt 0.01495878 0.04029677
vt 0.009711108 0.02762777
vt 0.007661077 0.0161
vt 0.0103216 0.03226495
vt 0.007661077 0.03915555
vt 0.01211149 0.03658611
vt 0.04493395 0.0229906
vt 0.04314406 0.01866944
vt 0.04029677 0.01495878
vt 0.03658611 0.01211149
vt 0.03226495 0.0103216
vt 0.02762777 0.004572219
vt 0.02762777 0.009711108
vt 0.0229906 0.0103216
vt 0.01866944 0.01211149
vt 0.01495878 0.01495878
vt 0.01211149 0.01866944
vt 0.0103216 0.0229906
vt -0.03915555 0.0005902778
vt -0.03915555 0.006354167
vt -0.0161 0.0005902778
vt -0.0161 0.006354167
vt 0.03915555 0.006354167
vt 0.03915555 0.0005902778
vt 0.02762777 0.006354167
vt 0.0161 0.006354167
vt 0.0161 0.0005902778
vt -0.02164025 0.006354167
vt 0.001415311 0.006354167
vt -0.02164025 0.0005902778
vt 0.001415311 0.0005902778
vt -0.04926802 0.006354167
vt -0.02621246 0.006354167
vt -0.04926802 0.0005902778
vt -0.02621246 0.0005902778
vn 0 -1 0
vn -0.866025402838329 -0.5000000016387101 0
vn 0.866025402838329 -0.5000000016387101 0
vn 0 0 1
vn -0.866025402838329 0.5000000016387101 0
vn 0.866025402838329 0.5000000016387101 0
vn 1 0 0
vn 0 1 0
vn 0 0 -1
vn -1 0 0
usemtl material_0_0
f 5/1/8 6/2/8 7/3/6
f 8/4/6 7/3/6 6/2/8
f 5/5/8 11/6/5 6/7/8
f 12/8/5 6/7/8 11/6/5
f 44/9/9 45/10/9 46/11/9
f 45/10/9 47/12/9 46/11/9
f 47/12/9 48/13/9 46/11/9
f 48/13/9 49/14/9 46/11/9
f 49/14/9 50/15/9 46/11/9
f 50/15/9 51/16/9 46/11/9
f 51/16/9 52/17/9 46/11/9
f 46/11/9 52/17/9 53/18/9
f 52/17/9 54/19/9 53/18/9
f 54/19/9 55/20/9 53/18/9
f 55/20/9 56/21/9 53/18/9
f 56/21/9 57/22/9 53/18/9
f 58/23/9 59/24/9 60/25/9
f 59/24/9 61/26/9 60/25/9
f 60/25/9 61/26/9 62/27/9
f 62/27/9 61/26/9 57/22/9
f 53/18/9 57/22/9 61/26/9
f 47/12/9 45/10/9 63/28/9
f 63/28/9 45/10/9 64/29/9
f 64/29/9 45/10/9 65/30/9
f 65/30/9 45/10/9 66/31/9
f 66/31/9 45/10/9 67/32/9
f 45/10/9 68/33/9 67/32/9
f 67/32/9 68/33/9 69/34/9
f 69/34/9 68/33/9 70/35/9
f 70/35/9 68/33/9 71/36/9
f 71/36/9 68/33/9 72/37/9
f 68/33/9 59/24/9 72/37/9
f 72/37/9 59/24/9 73/38/9
f 73/38/9 59/24/9 74/39/9
f 58/23/9 74/39/9 59/24/9
f 77/40/3 78/41/3 8/42/6
f 7/43/6 8/42/6 78/41/3
f 82/44/2 83/45/2 84/46/10
f 84/46/10 83/45/2 11/47/5
f 12/48/5 11/47/5 83/45/2
f 82/49/2 87/50/1 83/51/2
f 88/52/1 83/51/2 87/50/1
f 87/53/1 78/54/3 88/55/1
f 77/56/3 88/55/1 78/54/3
usemtl material_1_0
f 1//1 2//2 3//2
f 2//2 1//1 4//1
f 9//3 1//1 10//3
f 1//1 9//3 4//1
f 13//4 14//4 15//4
f 14//4 13//4 16//4
f 16//4 13//4 17//4
f 17//4 13//4 18//4
f 17//4 18//4 19//4
f 19//4 18//4 20//4
f 20//4 18//4 21//4
f 21//4 18//4 22//4
f 22//4 18//4 23//4
f 22//4 23//4 24//4
f 24//4 23//4 25//4
f 25//4 23//4 26//4
f 26//4 23//4 27//4
f 27//4 23//4 28//4
f 29//4 30//4 31//4
f 30//4 29//4 32//4
f 32//4 29//4 33//4
f 33//4 29//4 13//4
f 33//4 13//4 15//4
f 31//4 30//4 34//4
f 31//4 34//4 35//4
f 31//4 35//4 36//4
f 31//4 36//4 37//4
f 31//4 37//4 38//4
f 38//4 37//4 39//4
f 38//4 39//4 40//4
f 38//4 40//4 41//4
f 38//4 41//4 42//4
f 38//4 42//4 28//4
f 38//4 28//4 23//4
f 38//4 23//4 43//4
f 75//5 3//2 2//2
f 3//2 75//5 76//5
f 79//6 9//3 10//3
f 9//3 79//6 80//7
f 80//7 79//6 81//6
f 85//8 79//6 86//8
f 79//6 85//8 81//6
f 75//5 86//8 76//5
f 86//8 75//5 85//8
