# SSTK version 0.8.0
# 5
mtllib original-5.mtl
o #ID24
v 0.424904 0.809953 0.301926
v 0.412955 0.816840 0.317499
v 0.412955 0.809953 0.317499
v 0.424904 0.816840 0.301926
v 0.424904 0.816840 0.301926
v 0.424904 0.809953 0.301926
v 0.412955 0.816840 0.317499
v 0.412955 0.809953 0.317499
v 0.397382 0.809953 0.329449
v 0.397382 0.816840 0.329449
v 0.397382 0.816840 0.329449
v 0.397382 0.809953 0.329449
v 0.432416 0.809953 0.283791
v 0.432416 0.816840 0.283791
v 0.432416 0.816840 0.283791
v 0.432416 0.809953 0.283791
v -0.354904 0.816840 0.420399
v -0.357407 0.816840 0.339464
v -0.357407 0.816840 0.401385
v -0.347392 0.816840 0.438534
v -0.349340 0.816840 0.400856
v -0.347044 0.816840 0.418293
v -0.335443 0.816840 0.454107
v -0.340345 0.816840 0.434465
v -0.329689 0.816840 0.448353
v -0.319870 0.816840 0.466057
v -0.315801 0.816840 0.459010
v -0.301734 0.816840 0.473568
v -0.299628 0.816840 0.465708
v -0.282720 0.816840 0.476072
v -0.282192 0.816840 0.468004
v 0.264607 0.816840 0.476072
v 0.264078 0.816840 0.468004
v 0.281515 0.816840 0.465708
v 0.283621 0.816840 0.473568
v 0.297687 0.816840 0.459010
v 0.301756 0.816840 0.466057
v 0.311575 0.816840 0.448353
v 0.317329 0.816840 0.454107
v 0.322232 0.816840 0.434465
v 0.329279 0.816840 0.438534
v 0.328930 0.816840 0.418293
v 0.331226 0.816840 0.400856
v 0.336790 0.816840 0.420399
v 0.331226 0.816840 0.331396
v 0.339294 0.816840 0.339464
v 0.359704 0.816840 0.331396
v 0.339294 0.816840 0.401385
v 0.360233 0.816840 0.339464
v 0.377140 0.816840 0.329100
v 0.379246 0.816840 0.336960
v 0.393313 0.816840 0.322401
v 0.397382 0.816840 0.329449
v 0.407201 0.816840 0.311745
v 0.412955 0.816840 0.317499
v 0.417857 0.816840 0.297857
v 0.424904 0.816840 0.301926
v 0.424556 0.816840 0.281685
v 0.426852 0.816840 0.264248
v 0.432416 0.816840 0.283791
v 0.426852 0.816840 -0.303670
v -0.450530 0.816840 0.283791
v -0.453033 0.816840 -0.019709
v -0.453033 0.816840 0.264777
v -0.450822 0.816840 -0.322054
v -0.444965 0.816840 -0.303670
v -0.444170 0.816840 -0.339259
v -0.444965 0.816840 -0.019709
v -0.444965 0.816840 0.264248
v -0.442938 0.816840 -0.320074
v -0.433528 0.816840 -0.354327
v -0.437004 0.816840 -0.335419
v -0.427513 0.816840 -0.348858
v -0.419538 0.816840 -0.366349
v -0.415036 0.816840 -0.359581
v -0.403420 0.816840 -0.374415
v -0.400254 0.816840 -0.366978
v -0.395694 0.816840 -0.377156
v -0.393169 0.816840 -0.369492
v -0.341957 0.816840 -0.393515
v -0.339783 0.816840 -0.385744
v -0.287531 0.816840 -0.407416
v -0.285713 0.816840 -0.399553
v -0.232530 0.816840 -0.418828
v -0.231070 0.816840 -0.410891
v -0.177067 0.816840 -0.427728
v -0.175970 0.816840 -0.419734
v -0.121257 0.816840 -0.434099
v -0.120524 0.816840 -0.426063
v -0.065215 0.816840 -0.437927
v -0.064848 0.816840 -0.429866
v -0.009057 0.816840 -0.439204
v -0.009057 0.816840 -0.431134
v 0.046735 0.816840 -0.429866
v 0.047101 0.816840 -0.437927
v 0.102411 0.816840 -0.426063
v 0.103143 0.816840 -0.434099
v 0.157856 0.816840 -0.419734
v 0.158953 0.816840 -0.427728
v 0.212957 0.816840 -0.410891
v 0.214416 0.816840 -0.418828
v 0.267599 0.816840 -0.399553
v 0.269418 0.816840 -0.407416
v 0.321669 0.816840 -0.385744
v 0.323843 0.816840 -0.393515
v 0.375056 0.816840 -0.369492
v 0.377581 0.816840 -0.377156
v 0.382141 0.816840 -0.366978
v 0.385307 0.816840 -0.374415
v 0.396922 0.816840 -0.359581
v 0.401424 0.816840 -0.366349
v 0.409400 0.816840 -0.348858
v 0.415414 0.816840 -0.354327
v 0.418891 0.816840 -0.335419
v 0.426056 0.816840 -0.339259
v 0.424824 0.816840 -0.320074
v 0.432708 0.816840 -0.322054
v 0.434919 0.816840 0.264777
v 0.434919 0.816840 -0.304167
v -0.443018 0.816840 0.301926
v -0.442670 0.816840 0.281685
v -0.431068 0.816840 0.317499
v -0.435971 0.816840 0.297857
v -0.425314 0.816840 0.311745
v -0.415495 0.816840 0.329449
v -0.411427 0.816840 0.322401
v -0.397360 0.816840 0.336960
v -0.395254 0.816840 0.329100
v -0.378346 0.816840 0.339464
v -0.377817 0.816840 0.331396
v -0.349340 0.816840 0.331396
v -0.453033 0.816840 -0.304167
v -0.453033 0.816840 -0.019709
v -0.453033 0.816840 -0.304167
v -0.450822 0.816840 -0.322054
v -0.349340 0.816840 0.400856
v -0.354904 0.816840 0.420399
v -0.349340 0.816840 0.331396
v -0.357407 0.816840 0.339464
v -0.377817 0.816840 0.331396
v -0.378346 0.816840 0.339464
v -0.395254 0.816840 0.329100
v -0.397360 0.816840 0.336960
v -0.411427 0.816840 0.322401
v -0.415495 0.816840 0.329449
v -0.425314 0.816840 0.311745
v -0.431068 0.816840 0.317499
v -0.435971 0.816840 0.297857
v -0.442670 0.816840 0.281685
v -0.443018 0.816840 0.301926
v -0.444965 0.816840 0.264248
v -0.450530 0.816840 0.283791
v 0.434919 0.816840 -0.304167
v 0.434919 0.816840 0.264777
v 0.432708 0.816840 -0.322054
v 0.432416 0.816840 0.283791
v 0.426852 0.816840 -0.303670
v 0.426056 0.816840 -0.339259
v 0.424824 0.816840 -0.320074
v 0.418891 0.816840 -0.335419
v 0.415414 0.816840 -0.354327
v 0.409400 0.816840 -0.348858
v 0.401424 0.816840 -0.366349
v 0.396922 0.816840 -0.359581
v 0.385307 0.816840 -0.374415
v 0.382141 0.816840 -0.366978
v 0.377581 0.816840 -0.377156
v 0.375056 0.816840 -0.369492
v 0.323843 0.816840 -0.393515
v 0.321669 0.816840 -0.385744
v 0.269418 0.816840 -0.407416
v 0.267599 0.816840 -0.399553
v 0.214416 0.816840 -0.418828
v 0.212957 0.816840 -0.410891
v 0.158953 0.816840 -0.427728
v 0.157856 0.816840 -0.419734
v 0.103143 0.816840 -0.434099
v 0.102411 0.816840 -0.426063
v 0.047101 0.816840 -0.437927
v 0.046735 0.816840 -0.429866
v -0.009057 0.816840 -0.439204
v -0.009057 0.816840 -0.431134
v -0.064848 0.816840 -0.429866
v -0.065215 0.816840 -0.437927
v -0.120524 0.816840 -0.426063
v -0.121257 0.816840 -0.434099
v -0.175970 0.816840 -0.419734
v -0.177067 0.816840 -0.427728
v -0.231070 0.816840 -0.410891
v -0.232530 0.816840 -0.418828
v -0.285713 0.816840 -0.399553
v -0.287531 0.816840 -0.407416
v -0.339783 0.816840 -0.385744
v -0.341957 0.816840 -0.393515
v -0.393169 0.816840 -0.369492
v -0.395694 0.816840 -0.377156
v -0.400254 0.816840 -0.366978
v -0.403420 0.816840 -0.374415
v -0.415036 0.816840 -0.359581
v -0.419538 0.816840 -0.366349
v -0.427513 0.816840 -0.348858
v -0.433528 0.816840 -0.354327
v -0.437004 0.816840 -0.335419
v -0.442938 0.816840 -0.320074
v -0.444170 0.816840 -0.339259
v -0.444965 0.816840 -0.303670
v -0.444965 0.816840 -0.019709
v -0.453033 0.816840 0.264777
v 0.426852 0.816840 0.264248
v 0.424904 0.816840 0.301926
v 0.424556 0.816840 0.281685
v 0.417857 0.816840 0.297857
v 0.412955 0.816840 0.317499
v 0.407201 0.816840 0.311745
v 0.397382 0.816840 0.329449
v 0.393313 0.816840 0.322401
v 0.379246 0.816840 0.336960
v 0.377140 0.816840 0.329100
v 0.360233 0.816840 0.339464
v 0.359704 0.816840 0.331396
v 0.339294 0.816840 0.339464
v 0.339294 0.816840 0.401385
v 0.336790 0.816840 0.420399
v 0.331226 0.816840 0.331396
v 0.331226 0.816840 0.400856
v 0.329279 0.816840 0.438534
v 0.328930 0.816840 0.418293
v 0.322232 0.816840 0.434465
v 0.317329 0.816840 0.454107
v 0.311575 0.816840 0.448353
v 0.301756 0.816840 0.466057
v 0.297687 0.816840 0.459010
v 0.283621 0.816840 0.473568
v 0.281515 0.816840 0.465708
v 0.264607 0.816840 0.476072
v 0.264078 0.816840 0.468004
v -0.282192 0.816840 0.468004
v -0.282720 0.816840 0.476072
v -0.299628 0.816840 0.465708
v -0.301734 0.816840 0.473568
v -0.315801 0.816840 0.459010
v -0.319870 0.816840 0.466057
v -0.329689 0.816840 0.448353
v -0.335443 0.816840 0.454107
v -0.340345 0.816840 0.434465
v -0.347044 0.816840 0.418293
v -0.347392 0.816840 0.438534
v -0.357407 0.816840 0.401385
v 0.379246 0.809953 0.336960
v 0.379246 0.816840 0.336960
v 0.379246 0.816840 0.336960
v 0.379246 0.809953 0.336960
v 0.434919 0.809953 0.264777
v 0.434919 0.816840 0.264777
v 0.434919 0.816840 0.264777
v 0.434919 0.809953 0.264777
v 0.339294 0.809953 0.401385
v 0.336790 0.816840 0.420399
v 0.336790 0.809953 0.420399
v 0.339294 0.816840 0.401385
v 0.339294 0.816840 0.401385
v 0.339294 0.809953 0.401385
v 0.336790 0.816840 0.420399
v 0.336790 0.809953 0.420399
v 0.339294 0.809953 0.339464
v 0.339294 0.816840 0.339464
v 0.339294 0.816840 0.339464
v 0.339294 0.809953 0.339464
v 0.360233 0.816840 0.339464
v 0.339294 0.809953 0.339464
v 0.360233 0.809953 0.339464
v 0.339294 0.816840 0.339464
v 0.339294 0.816840 0.339464
v 0.360233 0.816840 0.339464
v 0.339294 0.809953 0.339464
v 0.360233 0.809953 0.339464
v 0.434919 0.809953 -0.304167
v 0.434919 0.816840 -0.304167
v 0.434919 0.816840 -0.304167
v 0.434919 0.809953 -0.304167
v 0.432708 0.809953 -0.322054
v 0.432708 0.816840 -0.322054
v 0.432708 0.816840 -0.322054
v 0.432708 0.809953 -0.322054
v 0.426056 0.809953 -0.339259
v 0.426056 0.816840 -0.339259
v 0.426056 0.816840 -0.339259
v 0.426056 0.809953 -0.339259
v 0.415414 0.809953 -0.354327
v 0.415414 0.816840 -0.354327
v 0.415414 0.816840 -0.354327
v 0.415414 0.809953 -0.354327
v 0.401424 0.816840 -0.366349
v 0.401424 0.809953 -0.366349
v 0.401424 0.816840 -0.366349
v 0.401424 0.809953 -0.366349
v 0.385307 0.816840 -0.374415
v 0.385307 0.809953 -0.374415
v 0.385307 0.816840 -0.374415
v 0.385307 0.809953 -0.374415
v 0.377581 0.816840 -0.377156
v 0.377581 0.809953 -0.377156
v 0.377581 0.816840 -0.377156
v 0.377581 0.809953 -0.377156
v 0.323843 0.816840 -0.393515
v 0.323843 0.809953 -0.393515
v 0.323843 0.816840 -0.393515
v 0.323843 0.809953 -0.393515
v 0.269418 0.816840 -0.407416
v 0.269418 0.809953 -0.407416
v 0.269418 0.816840 -0.407416
v 0.269418 0.809953 -0.407416
v 0.214416 0.816840 -0.418828
v 0.214416 0.809953 -0.418828
v 0.214416 0.816840 -0.418828
v 0.214416 0.809953 -0.418828
v 0.158953 0.816840 -0.427728
v 0.158953 0.809953 -0.427728
v 0.158953 0.816840 -0.427728
v 0.158953 0.809953 -0.427728
v 0.103143 0.816840 -0.434099
v 0.103143 0.809953 -0.434099
v 0.103143 0.816840 -0.434099
v 0.103143 0.809953 -0.434099
v 0.047101 0.816840 -0.437927
v 0.047101 0.809953 -0.437927
v 0.047101 0.816840 -0.437927
v 0.047101 0.809953 -0.437927
v -0.009057 0.816840 -0.439204
v -0.009057 0.809953 -0.439204
v -0.009057 0.816840 -0.439204
v -0.009057 0.809953 -0.439204
v -0.065215 0.816840 -0.437927
v -0.065215 0.809953 -0.437927
v -0.065215 0.816840 -0.437927
v -0.065215 0.809953 -0.437927
v -0.121257 0.816840 -0.434099
v -0.121257 0.809953 -0.434099
v -0.121257 0.816840 -0.434099
v -0.121257 0.809953 -0.434099
v -0.177067 0.816840 -0.427728
v -0.177067 0.809953 -0.427728
v -0.177067 0.816840 -0.427728
v -0.177067 0.809953 -0.427728
v -0.232530 0.816840 -0.418828
v -0.232530 0.809953 -0.418828
v -0.232530 0.816840 -0.418828
v -0.232530 0.809953 -0.418828
v -0.287531 0.816840 -0.407416
v -0.287531 0.809953 -0.407416
v -0.287531 0.816840 -0.407416
v -0.287531 0.809953 -0.407416
v -0.341957 0.816840 -0.393515
v -0.341957 0.809953 -0.393515
v -0.341957 0.816840 -0.393515
v -0.341957 0.809953 -0.393515
v -0.395694 0.816840 -0.377156
v -0.395694 0.809953 -0.377156
v -0.395694 0.816840 -0.377156
v -0.395694 0.809953 -0.377156
v -0.403420 0.816840 -0.374415
v -0.403420 0.809953 -0.374415
v -0.403420 0.816840 -0.374415
v -0.403420 0.809953 -0.374415
v -0.419538 0.816840 -0.366349
v -0.419538 0.809953 -0.366349
v -0.419538 0.816840 -0.366349
v -0.419538 0.809953 -0.366349
v -0.433528 0.816840 -0.354327
v -0.433528 0.809953 -0.354327
v -0.433528 0.816840 -0.354327
v -0.433528 0.809953 -0.354327
v -0.444170 0.809953 -0.339259
v -0.444170 0.816840 -0.339259
v -0.444170 0.809953 -0.339259
v -0.444170 0.816840 -0.339259
v -0.450822 0.809953 -0.322054
v -0.450822 0.816840 -0.322054
v -0.450822 0.809953 -0.322054
v -0.450822 0.816840 -0.322054
v -0.453033 0.809953 -0.304167
v -0.453033 0.816840 -0.304167
v -0.453033 0.809953 -0.304167
v -0.453033 0.816840 -0.304167
v -0.453033 0.816840 -0.019709
v -0.453033 0.809953 0.264777
v -0.453033 0.816840 0.264777
v -0.453033 0.809953 -0.019709
v -0.453033 0.809953 -0.019709
v -0.453033 0.816840 -0.019709
v -0.453033 0.809953 0.264777
v -0.453033 0.816840 0.264777
v -0.450530 0.809953 0.283791
v -0.450530 0.816840 0.283791
v -0.450530 0.809953 0.283791
v -0.450530 0.816840 0.283791
v -0.443018 0.809953 0.301926
v -0.443018 0.816840 0.301926
v -0.443018 0.809953 0.301926
v -0.443018 0.816840 0.301926
v -0.431068 0.809953 0.317499
v -0.431068 0.816840 0.317499
v -0.431068 0.809953 0.317499
v -0.431068 0.816840 0.317499
v -0.415495 0.816840 0.329449
v -0.415495 0.809953 0.329449
v -0.415495 0.816840 0.329449
v -0.415495 0.809953 0.329449
v -0.397360 0.816840 0.336960
v -0.397360 0.809953 0.336960
v -0.397360 0.816840 0.336960
v -0.397360 0.809953 0.336960
v -0.378346 0.816840 0.339464
v -0.378346 0.809953 0.339464
v -0.378346 0.816840 0.339464
v -0.378346 0.809953 0.339464
v -0.357407 0.816840 0.339464
v -0.357407 0.809953 0.339464
v -0.357407 0.816840 0.339464
v -0.357407 0.809953 0.339464
v -0.357407 0.816840 0.339464
v -0.357407 0.809953 0.401385
v -0.357407 0.816840 0.401385
v -0.357407 0.809953 0.339464
v -0.357407 0.809953 0.339464
v -0.357407 0.816840 0.339464
v -0.357407 0.809953 0.401385
v -0.357407 0.816840 0.401385
v -0.354904 0.809953 0.420399
v -0.354904 0.816840 0.420399
v -0.354904 0.809953 0.420399
v -0.354904 0.816840 0.420399
v -0.347392 0.809953 0.438534
v -0.347392 0.816840 0.438534
v -0.347392 0.809953 0.438534
v -0.347392 0.816840 0.438534
v -0.335443 0.809953 0.454107
v -0.335443 0.816840 0.454107
v -0.335443 0.809953 0.454107
v -0.335443 0.816840 0.454107
v -0.319870 0.816840 0.466057
v -0.319870 0.809953 0.466057
v -0.319870 0.816840 0.466057
v -0.319870 0.809953 0.466057
v -0.301734 0.816840 0.473568
v -0.301734 0.809953 0.473568
v -0.301734 0.816840 0.473568
v -0.301734 0.809953 0.473568
v -0.282720 0.816840 0.476072
v -0.282720 0.809953 0.476072
v -0.282720 0.816840 0.476072
v -0.282720 0.809953 0.476072
v 0.264607 0.816840 0.476072
v 0.264607 0.809953 0.476072
v 0.264607 0.816840 0.476072
v 0.264607 0.809953 0.476072
v 0.283621 0.816840 0.473568
v 0.283621 0.809953 0.473568
v 0.283621 0.816840 0.473568
v 0.283621 0.809953 0.473568
v 0.301756 0.816840 0.466057
v 0.301756 0.809953 0.466057
v 0.301756 0.816840 0.466057
v 0.301756 0.809953 0.466057
v 0.317329 0.816840 0.454107
v 0.317329 0.809953 0.454107
v 0.317329 0.816840 0.454107
v 0.317329 0.809953 0.454107
v 0.329279 0.809953 0.438534
v 0.329279 0.816840 0.438534
v 0.329279 0.816840 0.438534
v 0.329279 0.809953 0.438534
vn 0.866025402838329 0 0.5000000016387101
vn 0.7071067811865476 0 0.7071067811865476
vn -0.866025402838329 0 -0.5000000016387101
vn -0.7071067811865476 0 -0.7071067811865476
vn 0.5000000016387101 0 0.866025402838329
vn -0.5000000016387101 0 -0.866025402838329
vn 0.9659258358036645 0 0.25881900959356163
vn -0.9659258358036645 0 -0.25881900959356163
vn 0 1 0
vn 0 -1 0
vn 0.25881900959356163 0 0.9659258358036645
vn -0.25881900959356163 0 -0.9659258358036645
vn 0.9978589230889555 0 0.06540313151333016
vn -0.9978589230889555 0 -0.06540313151333016
vn 1 0 0
vn -1 0 0
vn 0.06540313151333016 0 0.9978589230889555
vn 0 0 1
vn 0 0 -1
vn -0.06540313151333016 0 -0.9978589230889555
vn 0.9981100329758331 0 -0.06145211203027173
vn -0.9981100329758331 0 0.06145211203027173
vn 0.9699031826615018 0 -0.243490895647229
vn -0.9699031826615018 0 0.243490895647229
vn 0.881424411896863 0 -0.47232510637512076
vn -0.881424411896863 0 0.47232510637512076
vn 0.7398894604445857 0 -0.6727284640350963
vn -0.7398894604445857 0 0.6727284640350963
vn 0.5538179076567403 0 -0.83263781151153
vn -0.5538179076567403 0 0.83263781151153
vn 0.3916922037573995 0 -0.92009630882624
vn -0.3916922037573995 0 0.92009630882624
vn 0.31290230540673597 0 -0.9497853164116351
vn -0.31290230540673597 0 0.9497853164116351
vn 0.2694128897486444 0 -0.9630247633562102
vn -0.2694128897486444 0 0.9630247633562102
vn 0.22536679756398323 0 -0.9742739894689555
vn -0.22536679756398323 0 0.9742739894689555
vn 0.1808548013221318 0 -0.9835098071899091
vn -0.1808548013221318 0 0.9835098071899091
vn 0.13596919525057913 0 -0.9907130653942694
vn -0.13596919525057913 0 0.9907130653942694
vn 0.09080254148654379 0 -0.9958689163035388
vn -0.09080254148654379 0 0.9958689163035388
vn 0.04544822978823345 0 -0.9989666953453032
vn -0.04544822978823345 0 0.9989666953453032
vn -0.04544822978823345 0 -0.9989666953453032
vn 0.04544822978823345 0 0.9989666953453032
vn -0.09080254148654379 0 -0.9958689163035388
vn 0.09080254148654379 0 0.9958689163035388
vn -0.13596919525057913 0 -0.9907130653942694
vn 0.13596919525057913 0 0.9907130653942694
vn -0.1808548013221318 0 -0.9835098071899091
vn 0.1808548013221318 0 0.9835098071899091
vn -0.22536679756398323 0 -0.9742739894689555
vn 0.22536679756398323 0 0.9742739894689555
vn -0.2694128897486444 0 -0.9630247633562102
vn 0.2694128897486444 0 0.9630247633562102
vn -0.31290230540673597 0 -0.9497853164116351
vn 0.31290230540673597 0 0.9497853164116351
vn -0.3916922037573995 0 -0.92009630882624
vn 0.3916922037573995 0 0.92009630882624
vn -0.5538179076567403 0 -0.83263781151153
vn 0.5538179076567403 0 0.83263781151153
vn -0.7398894604445857 0 -0.6727284640350963
vn 0.7398894604445857 0 0.6727284640350963
vn -0.881424411896863 0 -0.47232510637512076
vn 0.881424411896863 0 0.47232510637512076
vn -0.9699031826615018 0 -0.243490895647229
vn 0.9699031826615018 0 0.243490895647229
vn -0.9981100329758331 0 -0.06145211203027173
vn 0.9981100329758331 0 0.06145211203027173
vn -0.9978589230889555 0 0.06540313151333016
vn 0.9978589230889555 0 -0.06540313151333016
vn -0.9659258358036645 0 0.25881900959356163
vn 0.9659258358036645 0 -0.25881900959356163
vn -0.866025402838329 0 0.5000000016387101
vn 0.866025402838329 0 -0.5000000016387101
vn -0.7071067811865476 0 0.7071067811865476
vn 0.7071067811865476 0 -0.7071067811865476
vn -0.5000000016387101 0 0.866025402838329
vn 0.5000000016387101 0 -0.866025402838329
vn -0.25881900959356163 0 0.9659258358036645
vn 0.25881900959356163 0 -0.9659258358036645
vn -0.06540313151333016 0 0.9978589230889555
vn 0.06540313151333016 0 -0.9978589230889555
usemtl material_0_0
f 1//1 2//2 3//2
f 2//2 1//1 4//1
f 5//3 6//3 7//4
f 8//4 7//4 6//3
f 2//2 9//5 3//2
f 9//5 2//2 10//5
f 11//6 7//4 12//6
f 8//4 12//6 7//4
f 13//7 4//1 1//1
f 4//1 13//7 14//7
f 15//8 16//8 5//3
f 6//3 5//3 16//8
f 17//9 18//9 19//9
f 20//9 21//9 17//9
f 21//9 20//9 22//9
f 22//9 20//9 23//9
f 22//9 23//9 24//9
f 24//9 23//9 25//9
f 25//9 23//9 26//9
f 25//9 26//9 27//9
f 27//9 26//9 28//9
f 27//9 28//9 29//9
f 29//9 28//9 30//9
f 29//9 30//9 31//9
f 31//9 30//9 32//9
f 31//9 32//9 33//9
f 33//9 32//9 34//9
f 34//9 32//9 35//9
f 34//9 35//9 36//9
f 36//9 35//9 37//9
f 36//9 37//9 38//9
f 38//9 37//9 39//9
f 38//9 39//9 40//9
f 40//9 39//9 41//9
f 40//9 41//9 42//9
f 42//9 41//9 43//9
f 43//9 41//9 44//9
f 43//9 44//9 45//9
f 45//9 44//9 46//9
f 45//9 46//9 47//9
f 46//9 44//9 48//9
f 47//9 46//9 49//9
f 47//9 49//9 50//9
f 50//9 49//9 51//9
f 50//9 51//9 52//9
f 52//9 51//9 53//9
f 52//9 53//9 54//9
f 54//9 53//9 55//9
f 54//9 55//9 56//9
f 56//9 55//9 57//9
f 56//9 57//9 58//9
f 58//9 57//9 59//9
f 59//9 57//9 60//9
f 59//9 60//9 61//9
f 62//9 63//9 64//9
f 63//9 62//9 65//9
f 65//9 62//9 66//9
f 65//9 66//9 67//9
f 66//9 62//9 68//9
f 68//9 62//9 69//9
f 67//9 66//9 70//9
f 67//9 70//9 71//9
f 71//9 70//9 72//9
f 71//9 72//9 73//9
f 71//9 73//9 74//9
f 74//9 73//9 75//9
f 74//9 75//9 76//9
f 76//9 75//9 77//9
f 76//9 77//9 78//9
f 78//9 77//9 79//9
f 78//9 79//9 80//9
f 80//9 79//9 81//9
f 80//9 81//9 82//9
f 82//9 81//9 83//9
f 82//9 83//9 84//9
f 84//9 83//9 85//9
f 84//9 85//9 86//9
f 86//9 85//9 87//9
f 86//9 87//9 88//9
f 88//9 87//9 89//9
f 88//9 89//9 90//9
f 90//9 89//9 91//9
f 90//9 91//9 92//9
f 92//9 91//9 93//9
f 92//9 93//9 94//9
f 92//9 94//9 95//9
f 95//9 94//9 96//9
f 95//9 96//9 97//9
f 97//9 96//9 98//9
f 97//9 98//9 99//9
f 99//9 98//9 100//9
f 99//9 100//9 101//9
f 101//9 100//9 102//9
f 101//9 102//9 103//9
f 103//9 102//9 104//9
f 103//9 104//9 105//9
f 105//9 104//9 106//9
f 105//9 106//9 107//9
f 107//9 106//9 108//9
f 107//9 108//9 109//9
f 109//9 108//9 110//9
f 109//9 110//9 111//9
f 111//9 110//9 112//9
f 111//9 112//9 113//9
f 113//9 112//9 114//9
f 113//9 114//9 115//9
f 115//9 114//9 116//9
f 115//9 116//9 61//9
f 115//9 61//9 117//9
f 117//9 61//9 60//9
f 117//9 60//9 118//9
f 117//9 118//9 119//9
f 120//9 69//9 62//9
f 69//9 120//9 121//9
f 121//9 120//9 122//9
f 121//9 122//9 123//9
f 123//9 122//9 124//9
f 124//9 122//9 125//9
f 124//9 125//9 126//9
f 126//9 125//9 127//9
f 126//9 127//9 128//9
f 128//9 127//9 129//9
f 128//9 129//9 130//9
f 130//9 129//9 18//9
f 130//9 18//9 131//9
f 131//9 18//9 17//9
f 131//9 17//9 21//9
f 65//9 132//9 63//9
f 133//10 134//10 135//10
f 136//10 137//10 138//10
f 137//10 139//10 138//10
f 138//10 139//10 140//10
f 139//10 141//10 140//10
f 140//10 141//10 142//10
f 141//10 143//10 142//10
f 142//10 143//10 144//10
f 143//10 145//10 144//10
f 144//10 145//10 146//10
f 145//10 147//10 146//10
f 146//10 147//10 148//10
f 148//10 147//10 149//10
f 147//10 150//10 149//10
f 149//10 150//10 151//10
f 152//10 151//10 150//10
f 153//10 154//10 155//10
f 154//10 156//10 155//10
f 156//10 157//10 155//10
f 155//10 157//10 158//10
f 157//10 159//10 158//10
f 159//10 160//10 158//10
f 158//10 160//10 161//10
f 160//10 162//10 161//10
f 161//10 162//10 163//10
f 162//10 164//10 163//10
f 163//10 164//10 165//10
f 164//10 166//10 165//10
f 165//10 166//10 167//10
f 166//10 168//10 167//10
f 167//10 168//10 169//10
f 168//10 170//10 169//10
f 169//10 170//10 171//10
f 170//10 172//10 171//10
f 171//10 172//10 173//10
f 172//10 174//10 173//10
f 173//10 174//10 175//10
f 174//10 176//10 175//10
f 175//10 176//10 177//10
f 176//10 178//10 177//10
f 177//10 178//10 179//10
f 178//10 180//10 179//10
f 179//10 180//10 181//10
f 180//10 182//10 181//10
f 182//10 183//10 181//10
f 181//10 183//10 184//10
f 183//10 185//10 184//10
f 184//10 185//10 186//10
f 185//10 187//10 186//10
f 186//10 187//10 188//10
f 187//10 189//10 188//10
f 188//10 189//10 190//10
f 189//10 191//10 190//10
f 190//10 191//10 192//10
f 191//10 193//10 192//10
f 192//10 193//10 194//10
f 193//10 195//10 194//10
f 194//10 195//10 196//10
f 195//10 197//10 196//10
f 196//10 197//10 198//10
f 197//10 199//10 198//10
f 198//10 199//10 200//10
f 199//10 201//10 200//10
f 200//10 201//10 202//10
f 201//10 203//10 202//10
f 203//10 204//10 202//10
f 202//10 204//10 205//10
f 204//10 206//10 205//10
f 151//10 152//10 207//10
f 207//10 152//10 206//10
f 205//10 206//10 135//10
f 206//10 152//10 135//10
f 135//10 152//10 133//10
f 208//10 133//10 152//10
f 157//10 156//10 209//10
f 156//10 210//10 209//10
f 209//10 210//10 211//10
f 211//10 210//10 212//10
f 210//10 213//10 212//10
f 212//10 213//10 214//10
f 213//10 215//10 214//10
f 214//10 215//10 216//10
f 215//10 217//10 216//10
f 216//10 217//10 218//10
f 217//10 219//10 218//10
f 218//10 219//10 220//10
f 219//10 221//10 220//10
f 222//10 223//10 221//10
f 220//10 221//10 224//10
f 221//10 223//10 224//10
f 224//10 223//10 225//10
f 223//10 226//10 225//10
f 225//10 226//10 227//10
f 227//10 226//10 228//10
f 226//10 229//10 228//10
f 228//10 229//10 230//10
f 229//10 231//10 230//10
f 230//10 231//10 232//10
f 231//10 233//10 232//10
f 232//10 233//10 234//10
f 233//10 235//10 234//10
f 234//10 235//10 236//10
f 236//10 235//10 237//10
f 235//10 238//10 237//10
f 237//10 238//10 239//10
f 238//10 240//10 239//10
f 239//10 240//10 241//10
f 240//10 242//10 241//10
f 241//10 242//10 243//10
f 242//10 244//10 243//10
f 243//10 244//10 245//10
f 245//10 244//10 246//10
f 244//10 247//10 246//10
f 246//10 247//10 136//10
f 137//10 136//10 247//10
f 248//10 139//10 137//10
f 10//5 249//11 9//5
f 249//11 10//5 250//11
f 251//12 11//6 252//12
f 12//6 252//12 11//6
f 253//13 14//7 13//7
f 14//7 253//13 254//13
f 255//14 256//14 15//8
f 16//8 15//8 256//14
f 257//13 258//7 259//7
f 258//7 257//13 260//13
f 261//14 262//14 263//8
f 264//8 263//8 262//14
f 265//15 260//13 257//13
f 260//13 265//15 266//15
f 267//16 268//16 261//14
f 262//14 261//14 268//16
f 269//17 270//18 271//17
f 270//18 269//17 272//18
f 273//19 274//20 275//19
f 276//20 275//19 274//20
f 250//11 271//17 249//11
f 271//17 250//11 269//17
f 274//20 251//12 276//20
f 252//12 276//20 251//12
f 277//21 254//13 253//13
f 254//13 277//21 278//21
f 279//22 280//22 255//14
f 256//14 255//14 280//22
f 281//23 278//21 277//21
f 278//21 281//23 282//23
f 283//24 284//24 279//22
f 280//22 279//22 284//24
f 285//25 282//23 281//23
f 282//23 285//25 286//25
f 287//26 288//26 283//24
f 284//24 283//24 288//26
f 289//27 286//25 285//25
f 286//25 289//27 290//27
f 291//28 292//28 287//26
f 288//26 287//26 292//28
f 293//29 289//27 294//29
f 289//27 293//29 290//27
f 291//28 295//30 292//28
f 296//30 292//28 295//30
f 297//31 294//29 298//31
f 294//29 297//31 293//29
f 295//30 299//32 296//30
f 300//32 296//30 299//32
f 301//33 298//31 302//33
f 298//31 301//33 297//31
f 299//32 303//34 300//32
f 304//34 300//32 303//34
f 305//35 302//33 306//35
f 302//33 305//35 301//33
f 303//34 307//36 304//34
f 308//36 304//34 307//36
f 309//37 306//35 310//37
f 306//35 309//37 305//35
f 307//36 311//38 308//36
f 312//38 308//36 311//38
f 313//39 310//37 314//39
f 310//37 313//39 309//37
f 311//38 315//40 312//38
f 316//40 312//38 315//40
f 317//41 314//39 318//41
f 314//39 317//41 313//39
f 315//40 319//42 316//40
f 320//42 316//40 319//42
f 321//43 318//41 322//43
f 318//41 321//43 317//41
f 319//42 323//44 320//42
f 324//44 320//42 323//44
f 325//45 322//43 326//45
f 322//43 325//45 321//43
f 323//44 327//46 324//44
f 328//46 324//44 327//46
f 329//19 326//45 330//19
f 326//45 329//19 325//45
f 327//46 331//18 328//46
f 332//18 328//46 331//18
f 333//47 330//19 334//47
f 330//19 333//47 329//19
f 331//18 335//48 332//18
f 336//48 332//18 335//48
f 337//49 334//47 338//49
f 334//47 337//49 333//47
f 335//48 339//50 336//48
f 340//50 336//48 339//50
f 341//51 338//49 342//51
f 338//49 341//51 337//49
f 339//50 343//52 340//50
f 344//52 340//50 343//52
f 345//53 342//51 346//53
f 342//51 345//53 341//51
f 343//52 347//54 344//52
f 348//54 344//52 347//54
f 349//55 346//53 350//55
f 346//53 349//55 345//53
f 347//54 351//56 348//54
f 352//56 348//54 351//56
f 353//57 350//55 354//57
f 350//55 353//57 349//55
f 351//56 355//58 352//56
f 356//58 352//56 355//58
f 357//59 354//57 358//59
f 354//57 357//59 353//57
f 355//58 359//60 356//58
f 360//60 356//58 359//60
f 361//61 358//59 362//61
f 358//59 361//61 357//59
f 359//60 363//62 360//60
f 364//62 360//60 363//62
f 365//63 362//61 366//63
f 362//61 365//63 361//61
f 363//62 367//64 364//62
f 368//64 364//62 367//64
f 369//65 366//63 370//65
f 366//63 369//65 365//63
f 367//64 371//66 368//64
f 372//66 368//64 371//66
f 369//65 373//67 374//67
f 373//67 369//65 370//65
f 372//66 371//66 375//68
f 376//68 375//68 371//66
f 374//67 377//69 378//69
f 377//69 374//67 373//67
f 375//68 376//68 379//70
f 380//70 379//70 376//68
f 378//69 381//71 382//71
f 381//71 378//69 377//69
f 379//70 380//70 383//72
f 384//72 383//72 380//70
f 385//16 386//73 387//73
f 386//73 385//16 388//16
f 388//16 385//16 382//71
f 388//16 382//71 381//71
f 383//72 384//72 389//15
f 384//72 390//15 389//15
f 389//15 390//15 391//74
f 392//74 391//74 390//15
f 387//73 393//75 394//75
f 393//75 387//73 386//73
f 391//74 392//74 395//76
f 396//76 395//76 392//74
f 394//75 397//77 398//77
f 397//77 394//75 393//75
f 395//76 396//76 399//78
f 400//78 399//78 396//76
f 398//77 401//79 402//79
f 401//79 398//77 397//77
f 399//78 400//78 403//80
f 404//80 403//80 400//78
f 405//81 401//79 406//81
f 401//79 405//81 402//79
f 404//80 407//82 403//80
f 408//82 403//80 407//82
f 409//83 406//81 410//83
f 406//81 409//83 405//81
f 407//82 411//84 408//82
f 412//84 408//82 411//84
f 413//85 410//83 414//85
f 410//83 413//85 409//83
f 411//84 415//86 412//84
f 416//86 412//84 415//86
f 417//18 414//85 418//18
f 414//85 417//18 413//85
f 415//86 419//19 416//86
f 420//19 416//86 419//19
f 421//16 422//73 423//73
f 422//73 421//16 424//16
f 425//15 426//15 427//74
f 428//74 427//74 426//15
f 423//73 429//75 430//75
f 429//75 423//73 422//73
f 427//74 428//74 431//76
f 432//76 431//76 428//74
f 430//75 433//77 434//77
f 433//77 430//75 429//75
f 431//76 432//76 435//78
f 436//78 435//78 432//76
f 434//77 437//79 438//79
f 437//79 434//77 433//77
f 435//78 436//78 439//80
f 440//80 439//80 436//78
f 441//81 437//79 442//81
f 437//79 441//81 438//79
f 440//80 443//82 439//80
f 444//82 439//80 443//82
f 445//83 442//81 446//83
f 442//81 445//83 441//81
f 443//82 447//84 444//82
f 448//84 444//82 447//84
f 449//85 446//83 450//85
f 446//83 449//85 445//83
f 447//84 451//86 448//84
f 452//86 448//84 451//86
f 453//17 450//85 454//17
f 450//85 453//17 449//85
f 451//86 455//20 452//86
f 456//20 452//86 455//20
f 457//11 454//17 458//11
f 454//17 457//11 453//17
f 455//20 459//12 456//20
f 460//12 456//20 459//12
f 461//5 458//11 462//5
f 458//11 461//5 457//11
f 459//12 463//6 460//12
f 464//6 460//12 463//6
f 465//2 462//5 466//2
f 462//5 465//2 461//5
f 463//6 467//4 464//6
f 468//4 464//6 467//4
f 469//1 465//2 466//2
f 465//2 469//1 470//1
f 471//3 472//3 467//4
f 468//4 467//4 472//3
f 259//7 470//1 469//1
f 470//1 259//7 258//7
f 263//8 264//8 471//3
f 472//3 471//3 264//8
