# SSTK version 0.8.0
# 101
mtllib original-101.mtl
o #ID470
v 0.213345 -0.257631 0.302463
v 0.141931 -0.171092 0.341578
v 0.148205 -0.257631 0.352446
v 0.204472 -0.171092 0.293589
v 0.204472 -0.171092 0.293589
v 0.213345 -0.257631 0.302463
v 0.141931 -0.171092 0.341578
v 0.148205 -0.257631 0.352446
v 0.069100 -0.171092 0.371746
v 0.072348 -0.257631 0.383867
v 0.069100 -0.171092 0.371746
v 0.072348 -0.257631 0.383867
v 0.218678 -0.344566 0.307795
v 0.151976 -0.344566 0.358977
v 0.218678 -0.344566 0.307795
v 0.151976 -0.344566 0.358977
v 0.263329 -0.257631 0.237322
v 0.252461 -0.171092 0.231048
v 0.252461 -0.171092 0.231048
v 0.263329 -0.257631 0.237322
v 0.133166 -0.085148 0.326398
v 0.192077 -0.085148 0.281194
v 0.192077 -0.085148 0.281194
v 0.133166 -0.085148 0.326398
v -0.009057 -0.257631 0.394584
v -0.009057 -0.171092 0.382035
v -0.009057 -0.171092 0.382035
v -0.009057 -0.257631 0.394584
v 0.074300 -0.344566 0.391151
v 0.074300 -0.344566 0.391151
v 0.064563 -0.085148 0.354814
v 0.064563 -0.085148 0.354814
v 0.220456 -0.431700 0.309574
v 0.153234 -0.431700 0.361155
v 0.220456 -0.431700 0.309574
v 0.153234 -0.431700 0.361155
v 0.269860 -0.344566 0.241093
v 0.269860 -0.344566 0.241093
v 0.294750 -0.257631 0.161465
v 0.282629 -0.171092 0.158217
v 0.282629 -0.171092 0.158217
v 0.294750 -0.257631 0.161465
v 0.237281 -0.085148 0.222283
v 0.237281 -0.085148 0.222283
v 0.121932 0.000006 0.306940
v 0.176190 0.000006 0.265307
v 0.176190 0.000006 0.265307
v 0.121932 0.000006 0.306940
v -0.090462 -0.257631 0.383867
v -0.087214 -0.171092 0.371746
v -0.087214 -0.171092 0.371746
v -0.090462 -0.257631 0.383867
v -0.009057 -0.344566 0.402125
v -0.009057 -0.344566 0.402125
v -0.009057 -0.085148 0.364507
v -0.009057 -0.085148 0.364507
v 0.074951 -0.431700 0.393581
v 0.074951 -0.431700 0.393581
v 0.058748 0.000006 0.333112
v 0.058748 0.000006 0.333112
v 0.153234 -0.443687 0.361155
v 0.220456 -0.443687 0.309574
v 0.220456 -0.443687 0.309574
v 0.153234 -0.443687 0.361155
v 0.272038 -0.431700 0.242351
v 0.272038 -0.431700 0.242351
v 0.302034 -0.344566 0.163417
v 0.302034 -0.344566 0.163417
v 0.292918 -0.171092 0.080060
v 0.305467 -0.257631 0.080060
v 0.305467 -0.257631 0.080060
v 0.292918 -0.171092 0.080060
v 0.265697 -0.085148 0.153680
v 0.265697 -0.085148 0.153680
v 0.217823 0.000006 0.211049
v 0.217823 0.000006 0.211049
v 0.108254 0.084175 0.283248
v 0.156845 0.084175 0.245963
v 0.156845 0.084175 0.245963
v 0.108254 0.084175 0.283248
v -0.166319 -0.257631 0.352446
v -0.160044 -0.171092 0.341578
v -0.160044 -0.171092 0.341578
v -0.166319 -0.257631 0.352446
v -0.092413 -0.344566 0.391151
v -0.092413 -0.344566 0.391151
v -0.082677 -0.085148 0.354814
v -0.082677 -0.085148 0.354814
v -0.009057 -0.431700 0.404641
v -0.009057 -0.431700 0.404641
v -0.009057 0.000006 0.342038
v -0.009057 0.000006 0.342038
v 0.074951 -0.443687 0.393581
v 0.074951 -0.443687 0.393581
v 0.051668 0.084175 0.306687
v 0.051668 0.084175 0.306687
v 0.272038 -0.443687 0.242351
v 0.272038 -0.443687 0.242351
v 0.304464 -0.431700 0.164068
v 0.304464 -0.431700 0.164068
v 0.313008 -0.344566 0.080060
v 0.313008 -0.344566 0.080060
v 0.282629 -0.171092 0.001903
v 0.294750 -0.257631 -0.001345
v 0.294750 -0.257631 -0.001345
v 0.282629 -0.171092 0.001903
v 0.275390 -0.085148 0.080060
v 0.275390 -0.085148 0.080060
v 0.243994 0.000006 0.147865
v 0.243994 0.000006 0.147865
v 0.194131 0.084175 0.197371
v 0.194131 0.084175 0.197371
v -0.231459 -0.257631 0.302462
v -0.222585 -0.171092 0.293589
v -0.222585 -0.171092 0.293589
v -0.231459 -0.257631 0.302462
v -0.170089 -0.344566 0.358977
v -0.170089 -0.344566 0.358977
v -0.151280 -0.085148 0.326398
v -0.151280 -0.085148 0.326398
v -0.093064 -0.431700 0.393581
v -0.093064 -0.431700 0.393581
v -0.076862 0.000006 0.333112
v -0.076862 0.000006 0.333112
v -0.009057 -0.443687 0.404641
v -0.009057 -0.443687 0.404641
v -0.009057 0.084175 0.314682
v -0.009057 0.084175 0.314682
v 0.304464 -0.443687 0.164068
v 0.304464 -0.443687 0.164068
v 0.315524 -0.431700 0.080060
v 0.315524 -0.431700 0.080060
v 0.302034 -0.344566 -0.003296
v 0.302034 -0.344566 -0.003296
v 0.252461 -0.171092 -0.070927
v 0.263329 -0.257631 -0.077202
v 0.252461 -0.171092 -0.070927
v 0.263329 -0.257631 -0.077202
v 0.265697 -0.085148 0.006440
v 0.265697 -0.085148 0.006440
v 0.252921 0.000006 0.080060
v 0.252921 0.000006 0.080060
v 0.217570 0.084175 0.140785
v 0.217570 0.084175 0.140785
v -0.281443 -0.257631 0.237322
v -0.270575 -0.171092 0.231048
v -0.270575 -0.171092 0.231048
v -0.281443 -0.257631 0.237322
v -0.236791 -0.344566 0.307795
v -0.236791 -0.344566 0.307795
v -0.210191 -0.085148 0.281194
v -0.210191 -0.085148 0.281194
v -0.171347 -0.431700 0.361155
v -0.171347 -0.431700 0.361155
v -0.140046 0.000006 0.306940
v -0.140046 0.000006 0.306940
v -0.093064 -0.443687 0.393581
v -0.093064 -0.443687 0.393581
v -0.069781 0.084175 0.306687
v -0.069781 0.084175 0.306687
v 0.315524 -0.443687 0.080060
v 0.315524 -0.443687 0.080060
v 0.304464 -0.431700 -0.003947
v 0.304464 -0.431700 -0.003947
v 0.269860 -0.344566 -0.080972
v 0.269860 -0.344566 -0.080972
v 0.204472 -0.171092 -0.133468
v 0.213345 -0.257631 -0.142342
v 0.204472 -0.171092 -0.133468
v 0.213345 -0.257631 -0.142342
v 0.237281 -0.085148 -0.062163
v 0.237281 -0.085148 -0.062163
v 0.243995 0.000006 0.012255
v 0.243995 0.000006 0.012255
v 0.225564 0.084175 0.080060
v 0.225564 0.084175 0.080060
v -0.312864 -0.257631 0.161465
v -0.300742 -0.171092 0.158217
v -0.300742 -0.171092 0.158217
v -0.312864 -0.257631 0.161465
v -0.287973 -0.344566 0.241093
v -0.287973 -0.344566 0.241093
v -0.255394 -0.085148 0.222283
v -0.255394 -0.085148 0.222283
v -0.238570 -0.431700 0.309573
v -0.238570 -0.431700 0.309573
v -0.194303 0.000006 0.265307
v -0.194303 0.000006 0.265307
v -0.171347 -0.443687 0.361155
v -0.171347 -0.443687 0.361155
v -0.126367 0.084175 0.283248
v -0.126367 0.084175 0.283248
v 0.304464 -0.443687 -0.003947
v 0.304464 -0.443687 -0.003947
v 0.272038 -0.431700 -0.082230
v 0.272038 -0.431700 -0.082230
v 0.218678 -0.344566 -0.147674
v 0.218678 -0.344566 -0.147674
v 0.141931 -0.171092 -0.181458
v 0.148205 -0.257631 -0.192326
v 0.141931 -0.171092 -0.181458
v 0.148205 -0.257631 -0.192326
v 0.192077 -0.085148 -0.121074
v 0.192077 -0.085148 -0.121074
v 0.217823 0.000006 -0.050929
v 0.217823 0.000006 -0.050929
v 0.217570 0.084175 0.019336
v 0.217570 0.084175 0.019336
v -0.323581 -0.257631 0.080060
v -0.311032 -0.171092 0.080060
v -0.311032 -0.171092 0.080060
v -0.323581 -0.257631 0.080060
v -0.320148 -0.344566 0.163417
v -0.320148 -0.344566 0.163417
v -0.283811 -0.085148 0.153680
v -0.283811 -0.085148 0.153680
v -0.290152 -0.431700 0.242351
v -0.290152 -0.431700 0.242351
v -0.235936 0.000006 0.211049
v -0.235936 0.000006 0.211049
v -0.238570 -0.443687 0.309573
v -0.238570 -0.443687 0.309573
v -0.174959 0.084175 0.245963
v -0.174959 0.084175 0.245963
v 0.272038 -0.443687 -0.082230
v 0.272038 -0.443687 -0.082230
v 0.220456 -0.431700 -0.149453
v 0.220456 -0.431700 -0.149453
v 0.151976 -0.344566 -0.198856
v 0.151976 -0.344566 -0.198856
v 0.069100 -0.171092 -0.211625
v 0.072348 -0.257631 -0.223747
v 0.069100 -0.171092 -0.211625
v 0.072348 -0.257631 -0.223747
v 0.133166 -0.085148 -0.166277
v 0.133166 -0.085148 -0.166277
v 0.176190 0.000006 -0.105186
v 0.176190 0.000006 -0.105186
v 0.194131 0.084175 -0.037250
v 0.194131 0.084175 -0.037250
v -0.312864 -0.257631 -0.001345
v -0.300742 -0.171092 0.001903
v -0.300742 -0.171092 0.001903
v -0.312864 -0.257631 -0.001345
v -0.331122 -0.344566 0.080060
v -0.331122 -0.344566 0.080060
v -0.293503 -0.085148 0.080060
v -0.293503 -0.085148 0.080060
v -0.322578 -0.431700 0.164068
v -0.322578 -0.431700 0.164068
v -0.262108 0.000006 0.147865
v -0.262108 0.000006 0.147865
v -0.290152 -0.443687 0.242351
v -0.290152 -0.443687 0.242351
v -0.212245 0.084175 0.197371
v -0.212245 0.084175 0.197371
v 0.220456 -0.443687 -0.149453
v 0.220456 -0.443687 -0.149453
v 0.153234 -0.431700 -0.201035
v 0.153234 -0.431700 -0.201035
v 0.074300 -0.344566 -0.231031
v 0.074300 -0.344566 -0.231031
v -0.009057 -0.171092 -0.221915
v -0.009057 -0.257631 -0.234464
v -0.009057 -0.171092 -0.221915
v -0.009057 -0.257631 -0.234464
v 0.064563 -0.085148 -0.194694
v 0.064563 -0.085148 -0.194694
v 0.121932 0.000006 -0.146819
v 0.121932 0.000006 -0.146819
v 0.156845 0.084175 -0.085842
v 0.156845 0.084175 -0.085842
v -0.281443 -0.257631 -0.077202
v -0.270575 -0.171092 -0.070927
v -0.270575 -0.171092 -0.070927
v -0.281443 -0.257631 -0.077202
v -0.320148 -0.344566 -0.003296
v -0.320148 -0.344566 -0.003296
v -0.283811 -0.085148 0.006440
v -0.283811 -0.085148 0.006440
v -0.333637 -0.431700 0.080060
v -0.333637 -0.431700 0.080060
v -0.271035 0.000006 0.080060
v -0.271035 0.000006 0.080060
v -0.322578 -0.443687 0.164068
v -0.322578 -0.443687 0.164068
v -0.235683 0.084175 0.140785
v -0.235683 0.084175 0.140785
v 0.153234 -0.443687 -0.201035
v 0.153234 -0.443687 -0.201035
v 0.074951 -0.431700 -0.233460
v 0.074951 -0.431700 -0.233460
v -0.009057 -0.344566 -0.242005
v -0.009057 -0.344566 -0.242005
v -0.087214 -0.171092 -0.211625
v -0.090462 -0.257631 -0.223747
v -0.087214 -0.171092 -0.211625
v -0.090462 -0.257631 -0.223747
v -0.009057 -0.085148 -0.204386
v -0.009057 -0.085148 -0.204386
v 0.058748 0.000006 -0.172991
v 0.058748 0.000006 -0.172991
v 0.108254 0.084175 -0.123128
v 0.108254 0.084175 -0.123128
v -0.231459 -0.257631 -0.142342
v -0.222585 -0.171092 -0.133468
v -0.222585 -0.171092 -0.133468
v -0.231459 -0.257631 -0.142342
v -0.287973 -0.344566 -0.080972
v -0.287973 -0.344566 -0.080972
v -0.255394 -0.085148 -0.062163
v -0.255394 -0.085148 -0.062163
v -0.322578 -0.431700 -0.003947
v -0.322578 -0.431700 -0.003947
v -0.262108 0.000006 0.012255
v -0.262108 0.000006 0.012255
v -0.333637 -0.443687 0.080060
v -0.333637 -0.443687 0.080060
v -0.243678 0.084175 0.080060
v -0.243678 0.084175 0.080060
v 0.074951 -0.443687 -0.233460
v 0.074951 -0.443687 -0.233460
v -0.009057 -0.431700 -0.244520
v -0.009057 -0.431700 -0.244520
v -0.092413 -0.344566 -0.231031
v -0.092413 -0.344566 -0.231031
v -0.166319 -0.257631 -0.192326
v -0.160044 -0.171092 -0.181458
v -0.166319 -0.257631 -0.192326
v -0.160044 -0.171092 -0.181458
v -0.082677 -0.085148 -0.194694
v -0.082677 -0.085148 -0.194694
v -0.009057 0.000006 -0.181918
v -0.009057 0.000006 -0.181918
v 0.051668 0.084175 -0.146566
v 0.051668 0.084175 -0.146566
v -0.236791 -0.344566 -0.147674
v -0.236791 -0.344566 -0.147674
v -0.210191 -0.085148 -0.121074
v -0.210191 -0.085148 -0.121074
v -0.290152 -0.431700 -0.082230
v -0.290152 -0.431700 -0.082230
v -0.235936 0.000006 -0.050929
v -0.235936 0.000006 -0.050929
v -0.322578 -0.443687 -0.003947
v -0.322578 -0.443687 -0.003947
v -0.235683 0.084175 0.019336
v -0.235683 0.084175 0.019336
v -0.009057 -0.443687 -0.244520
v -0.009057 -0.443687 -0.244520
v -0.093064 -0.431700 -0.233461
v -0.093064 -0.431700 -0.233461
v -0.170089 -0.344566 -0.198856
v -0.170089 -0.344566 -0.198856
v -0.151280 -0.085148 -0.166277
v -0.151280 -0.085148 -0.166277
v -0.076862 0.000006 -0.172991
v -0.076862 0.000006 -0.172991
v -0.009057 0.084175 -0.154561
v -0.009057 0.084175 -0.154561
v -0.238570 -0.431700 -0.149453
v -0.238570 -0.431700 -0.149453
v -0.194303 0.000006 -0.105186
v -0.194303 0.000006 -0.105186
v -0.290152 -0.443687 -0.082230
v -0.290152 -0.443687 -0.082230
v -0.212245 0.084175 -0.037250
v -0.212245 0.084175 -0.037250
v -0.093064 -0.443687 -0.233461
v -0.093064 -0.443687 -0.233461
v -0.171347 -0.431700 -0.201035
v -0.171347 -0.431700 -0.201035
v -0.140046 0.000006 -0.146819
v -0.140046 0.000006 -0.146819
v -0.069781 0.084175 -0.146566
v -0.069781 0.084175 -0.146566
v -0.238570 -0.443687 -0.149453
v -0.238570 -0.443687 -0.149453
v -0.174959 0.084175 -0.085842
v -0.174959 0.084175 -0.085842
v -0.171347 -0.443687 -0.201035
v -0.171347 -0.443687 -0.201035
v -0.126367 0.084175 -0.123128
v -0.126367 0.084175 -0.123128
vn 0.70243342617133 0.11478070745471115 0.7024333925671549
vn 0.4926003601073982 0.17140487172533078 0.8532087992812102
vn 0.496695442490961 0.11478071838203305 0.8603017052734541
vn 0.6966420745097361 0.1714048603200025 0.6966420844891956
vn -0.6966420745097361 -0.1714048603200025 -0.6966420844891956
vn -0.70243342617133 -0.11478070745471115 -0.7024333925671549
vn -0.4926003601073982 -0.17140487172533078 -0.8532087992812102
vn -0.496695442490961 -0.11478071838203305 -0.8603017052734541
vn 0.25498869657294315 0.1714048618386974 0.9516307781687647
vn 0.25710847015015936 0.1147807184974428 0.9595418809193558
vn -0.25498869657294315 -0.1714048618386974 -0.9516307781687647
vn -0.25710847015015936 -0.1147807184974428 -0.9595418809193558
vn 0.7059350635298686 0.05754506172371292 0.7059350196372852
vn 0.49917143227085836 0.05754505723705641 0.8645903351253956
vn -0.7059350635298686 -0.05754506172371292 -0.7059350196372852
vn -0.49917143227085836 -0.05754505723705641 -0.8645903351253956
vn 0.8603017143226168 0.11478071101856523 0.4966954285189661
vn 0.8532088127163374 0.17140486306836056 0.49260033984934914
vn -0.8532088127163374 -0.17140486306836056 -0.49260033984934914
vn -0.8603017143226168 -0.11478071101856523 -0.4966954285189661
vn 0.48693240161391627 0.22712867710214749 0.8433916055405889
vn 0.6886263776420868 0.22712869109924616 0.6886263643624757
vn -0.6886263776420868 -0.22712869109924616 -0.6886263643624757
vn -0.48693240161391627 -0.22712867710214749 -0.8433916055405889
vn -2.226382462205172e-8 0.11478071838203299 0.9933908529313644
vn -2.9854195814833324e-8 0.17140487172533075 0.985200674963645
vn 2.9854195814833324e-8 -0.17140487172533075 -0.985200674963645
vn 2.226382462205172e-8 -0.11478071838203299 -0.9933908529313644
vn 0.2583901568653762 0.05754505844740209 0.9643252008961353
vn -0.2583901568653762 -0.05754505844740209 -0.9643252008961353
vn 0.2520547439825192 0.2271286867957447 0.9406811179514274
vn -0.2520547439825192 -0.2271286867957447 -0.9406811179514274
vn 0.7070333241680677 0.014415327755937483 0.7070332925976973
vn 0.4999480024579419 0.01441532815183467 0.8659354439867838
vn -0.7070333241680677 -0.014415327755937483 -0.7070332925976973
vn -0.4999480024579419 -0.01441532815183467 -0.8659354439867838
vn 0.8645903208294355 0.05754506054411642 0.49917145665094637
vn -0.8645903208294355 -0.05754506054411642 -0.49917145665094637
vn 0.9595418745422969 0.11478070745471122 0.2571084988794626
vn 0.9516307788028678 0.17140486032000257 0.2549886952273138
vn -0.9516307788028678 -0.17140486032000257 -0.2549886952273138
vn -0.9595418745422969 -0.11478070745471122 -0.2571084988794626
vn 0.8433916158675088 0.22712868813433854 0.48693237858122246
vn -0.8433916158675088 -0.22712868813433854 -0.48693237858122246
vn 0.47975366414154563 0.2816835874945244 0.8309577475894763
vn 0.678474168538032 0.28168361568474765 0.6784741286750686
vn -0.678474168538032 -0.28168361568474765 -0.6784741286750686
vn -0.47975366414154563 -0.2816835874945244 -0.8309577475894763
vn -0.2571084988794626 0.1147807074547111 0.9595418745422971
vn -0.25498869522731377 0.1714048603200024 0.9516307788028678
vn 0.25498869522731377 -0.1714048603200024 -0.9516307788028678
vn 0.2571084988794626 -0.1147807074547111 -0.9595418745422971
vn 2.2594503659434537e-8 0.05754505723705637 0.998342910220523
vn -2.2594503659434537e-8 -0.05754505723705637 -0.998342910220523
vn -3.0638655322802635e-8 0.2271286771021474 0.9738647565436523
vn 3.0638655322802635e-8 -0.2271286771021474 -0.9738647565436523
vn 0.2587921503645943 0.0144153271513821 0.9658254610708852
vn -0.2587921503645943 -0.0144153271513821 -0.9658254610708852
vn 0.2483387735144786 0.28168360163932715 0.9268129272603082
vn -0.2483387735144786 -0.28168360163932715 -0.9268129272603082
vn 0.4999999967225799 0 0.866025405676658
vn 0.7071068058429081 0 0.7071067565301862
vn -0.7071068058429081 0 -0.7071067565301862
vn -0.4999999967225799 0 -0.866025405676658
vn 0.8659354173914109 0.014415328359859184 0.49994804851648406
vn -0.8659354173914109 -0.014415328359859184 -0.49994804851648406
vn 0.964325191214028 0.057545061723713015 0.25839019226983473
vn -0.964325191214028 -0.057545061723713015 -0.25839019226983473
vn 0.985200674963645 0.17140487172533095 2.985419585289285e-8
vn 0.9933908529313644 0.11478071838203321 2.226382464753816e-8
vn -0.9933908529313644 -0.11478071838203321 -2.226382464753816e-8
vn -0.985200674963645 -0.17140487172533095 -2.985419585289285e-8
vn 0.9406811131207805 0.22712869109924624 0.2520547581328158
vn -0.9406811131207805 -0.22712869109924624 -0.2520547581328158
vn 0.830957734654675 0.28168360905783457 0.4797536738845506
vn -0.830957734654675 -0.28168360905783457 -0.4797536738845506
vn 0.47551432064037574 0.30910297200507303 0.8236148878957648
vn 0.672478787107993 0.30910297296677386 0.6724787230781839
vn -0.672478787107993 -0.30910297296677386 -0.6724787230781839
vn -0.47551432064037574 -0.30910297200507303 -0.8236148878957648
vn -0.496695428518965 0.11478071101856516 0.8603017143226175
vn -0.49260033984934937 0.1714048630683605 0.8532088127163373
vn 0.49260033984934937 -0.1714048630683605 -0.8532088127163373
vn 0.496695428518965 -0.11478071101856516 -0.8603017143226175
vn -0.25839019226983473 0.05754506172371286 0.964325191214028
vn 0.25839019226983473 -0.05754506172371286 -0.964325191214028
vn -0.2520547581328158 0.22712869109924613 0.9406811131207807
vn 0.2520547581328158 -0.22712869109924613 -0.9406811131207807
vn 4.7509483888354004e-8 0.01441532815183464 0.9998960937588828
vn -4.7509483888354004e-8 -0.01441532815183464 -0.9998960937588828
vn 9.458295330711761e-9 0.2816835874945243 0.9595073509547566
vn -9.458295330711761e-9 -0.2816835874945243 -0.9595073509547566
vn 0.2588190432747773 0 0.9659258267788108
vn -0.2588190432747773 0 -0.9659258267788108
vn 0.24614430467942036 0.3091029902245696 0.918623058010256
vn -0.24614430467942036 -0.3091029902245696 -0.918623058010256
vn 0.8660254028383303 0 0.5000000016387078
vn -0.8660254028383303 0 -0.5000000016387078
vn 0.9658254538156127 0.014415327755937584 0.2587921774079631
vn -0.9658254538156127 -0.014415327755937584 -0.2587921774079631
vn 0.998342910220523 0.05754505723705659 -2.259450364665697e-8
vn -0.998342910220523 -0.05754505723705659 2.259450364665697e-8
vn 0.9516307781687647 0.1714048618386977 -0.2549886965729431
vn 0.9595418809193558 0.11478071849744308 -0.25710847015015936
vn -0.9595418809193558 -0.11478071849744308 0.25710847015015936
vn -0.9516307781687647 -0.1714048618386977 0.2549886965729431
vn 0.9738647565436523 0.22712867710214762 3.0638655373235334e-8
vn -0.9738647565436523 -0.22712867710214762 -3.0638655373235334e-8
vn 0.9268129145723144 0.28168361568474776 0.24833880493539284
vn -0.9268129145723144 -0.28168361568474776 -0.24833880493539284
vn 0.8236149083513079 0.3091029629089654 0.47551429112316423
vn -0.8236149083513079 -0.3091029629089654 -0.47551429112316423
vn -0.7024333925671549 0.11478070745471115 0.70243342617133
vn -0.6966420844891956 0.1714048603200025 0.6966420745097361
vn 0.6966420844891956 -0.1714048603200025 -0.6966420745097361
vn 0.7024333925671549 -0.11478070745471115 -0.70243342617133
vn -0.49917145665094576 0.05754506054411634 0.8645903208294359
vn 0.49917145665094576 -0.05754506054411634 -0.8645903208294359
vn -0.4869323785812216 0.22712868813433845 0.8433916158675091
vn 0.4869323785812216 -0.22712868813433845 -0.8433916158675091
vn -0.2587921774079631 0.014415327755937426 0.9658254538156127
vn 0.2587921774079631 -0.014415327755937426 -0.9658254538156127
vn -0.2483388049353928 0.2816836156847476 0.9268129145723145
vn 0.2483388049353928 -0.2816836156847476 -0.9268129145723145
vn 0 0 1
vn 0 0 -1
vn -4.118909139207521e-8 0.309102972005073 0.9510285761729926
vn 4.118909139207521e-8 -0.309102972005073 -0.9510285761729926
vn 0.9659258162847283 0 0.258819082439223
vn -0.9659258162847283 0 -0.258819082439223
vn 0.9998960937588828 0.014415328151834862 -4.750948388515316e-8
vn -0.9998960937588828 -0.014415328151834862 4.750948388515316e-8
vn 0.9643252008961353 0.05754505844740236 -0.2583901568653762
vn -0.9643252008961353 -0.05754505844740236 0.2583901568653762
vn 0.8532087992812102 0.1714048717253311 -0.4926003601073981
vn 0.8603017052734541 0.11478071838203335 -0.496695442490961
vn -0.8532087992812102 -0.1714048717253311 0.4926003601073981
vn -0.8603017052734541 -0.11478071838203335 0.496695442490961
vn 0.9406811179514274 0.22712868679574497 -0.25205474398251915
vn -0.9406811179514274 -0.22712868679574497 0.25205474398251915
vn 0.9595073509547566 0.2816835874945246 -9.458295268165444e-9
vn -0.9595073509547566 -0.2816835874945246 9.458295268165444e-9
vn 0.918623050312706 0.3091029729667739 0.2461443550790499
vn -0.918623050312706 -0.3091029729667739 -0.2461443550790499
vn -0.8603017052734541 0.11478071838203312 0.496695442490961
vn -0.8532087992812102 0.17140487172533084 0.49260036010739827
vn 0.8532087992812102 -0.17140487172533084 -0.49260036010739827
vn 0.8603017052734541 -0.11478071838203312 -0.496695442490961
vn -0.7059350196372852 0.05754506172371292 0.7059350635298686
vn 0.7059350196372852 -0.05754506172371292 -0.7059350635298686
vn -0.6886263643624757 0.22712869109924616 0.6886263776420868
vn 0.6886263643624757 -0.22712869109924616 -0.6886263776420868
vn -0.49994804851648117 0.014415328359859099 0.8659354173914123
vn 0.49994804851648117 -0.014415328359859099 -0.8659354173914123
vn -0.4797536738845503 0.28168360905783446 0.830957734654675
vn 0.4797536738845503 -0.28168360905783446 -0.830957734654675
vn -0.258819082439223 0 0.9659258162847283
vn 0.258819082439223 0 -0.9659258162847283
vn -0.24614435507904983 0.30910297296677375 0.9186230503127061
vn 0.24614435507904983 -0.30910297296677375 -0.9186230503127061
vn 1 0 0
vn -1 0 0
vn 0.9658254610708852 0.014415327151382372 -0.2587921503645943
vn -0.9658254610708852 -0.014415327151382372 0.2587921503645943
vn 0.8645903351253956 0.05754505723705672 -0.49917143227085836
vn -0.8645903351253956 -0.05754505723705672 0.49917143227085836
vn 0.6966420844891956 0.17140486032000277 -0.6966420745097361
vn 0.7024333925671549 0.11478070745471147 -0.70243342617133
vn -0.6966420844891956 -0.17140486032000277 0.6966420745097361
vn -0.7024333925671549 -0.11478070745471147 0.70243342617133
vn 0.8433916055405889 0.2271286771021478 -0.4869324016139162
vn -0.8433916055405889 -0.2271286771021478 0.4869324016139162
vn 0.9268129272603082 0.28168360163932754 -0.2483387735144786
vn -0.9268129272603082 -0.28168360163932754 0.2483387735144786
vn 0.9510285761729925 0.3091029720050732 4.1189091460709854e-8
vn -0.9510285761729925 -0.3091029720050732 -4.1189091460709854e-8
vn -0.9595418809193558 0.11478071849744295 0.2571084701501594
vn -0.9516307781687645 0.17140486183869752 0.2549886965729431
vn 0.9516307781687645 -0.17140486183869752 -0.2549886965729431
vn 0.9595418809193558 -0.11478071849744295 -0.2571084701501594
vn -0.8645903351253956 0.057545057237056496 0.49917143227085836
vn 0.8645903351253956 -0.057545057237056496 -0.49917143227085836
vn -0.8433916055405889 0.22712867710214754 0.4869324016139164
vn 0.8433916055405889 -0.22712867710214754 -0.4869324016139164
vn -0.7070332925976973 0.014415327755937483 0.7070333241680677
vn 0.7070332925976973 -0.014415327755937483 -0.7070333241680677
vn -0.6784741286750685 0.28168361568474765 0.6784741685380321
vn 0.6784741286750685 -0.28168361568474765 -0.6784741685380321
vn -0.500000001638711 0 0.8660254028383284
vn 0.500000001638711 0 -0.8660254028383284
vn -0.475514291123163 0.30910296290896533 0.8236149083513087
vn 0.475514291123163 -0.30910296290896533 -0.8236149083513087
vn 0.9659258267788108 0 -0.2588190432747773
vn -0.9659258267788108 0 0.2588190432747773
vn 0.8659354439867838 0.014415328151834973 -0.4999480024579419
vn -0.8659354439867838 -0.014415328151834973 0.4999480024579419
vn 0.7059350196372852 0.05754506172371322 -0.7059350635298686
vn -0.7059350196372852 -0.05754506172371322 0.7059350635298686
vn 0.4926003398493487 0.17140486306836086 -0.8532088127163376
vn 0.4966954285189659 0.11478071101856555 -0.8603017143226169
vn -0.4926003398493487 -0.17140486306836086 0.8532088127163376
vn -0.4966954285189659 -0.11478071101856555 0.8603017143226169
vn 0.6886263643624757 0.22712869109924644 -0.6886263776420868
vn -0.6886263643624757 -0.22712869109924644 0.6886263776420868
vn 0.8309577475894762 0.28168358749452466 -0.4797536641415456
vn -0.8309577475894762 -0.28168358749452466 0.4797536641415456
vn 0.9186230580102559 0.3091029902245699 -0.2461443046794203
vn -0.9186230580102559 -0.3091029902245699 0.2461443046794203
vn -0.9933908529313644 0.11478071838203321 -2.226382459656528e-8
vn -0.985200674963645 0.17140487172533095 -2.98541957767738e-8
vn 0.985200674963645 -0.17140487172533095 2.98541957767738e-8
vn 0.9933908529313644 -0.11478071838203321 2.226382459656528e-8
vn -0.9643252008961353 0.05754505844740224 0.2583901568653762
vn 0.9643252008961353 -0.05754505844740224 -0.2583901568653762
vn -0.9406811179514274 0.22712868679574486 0.25205474398251926
vn 0.9406811179514274 -0.22712868679574486 -0.25205474398251926
vn -0.8659354439867838 0.014415328151834751 0.4999480024579419
vn 0.8659354439867838 -0.014415328151834751 -0.4999480024579419
vn -0.8309577475894762 0.28168358749452443 0.4797536641415457
vn 0.8309577475894762 -0.28168358749452443 -0.4797536641415457
vn -0.7071067565301862 0 0.7071068058429081
vn 0.7071067565301862 0 -0.7071068058429081
vn -0.6724787230781838 0.30910297296677386 0.6724787871079931
vn 0.6724787230781838 -0.30910297296677386 -0.6724787871079931
vn 0.866025405676658 0 -0.4999999967225799
vn -0.866025405676658 0 0.4999999967225799
vn 0.7070332925976973 0.014415327755937797 -0.7070333241680677
vn -0.7070332925976973 -0.014415327755937797 0.7070333241680677
vn 0.4991714566509453 0.05754506054411672 -0.8645903208294361
vn -0.4991714566509453 -0.05754506054411672 0.8645903208294361
vn 0.25498869522731377 0.17140486032000282 -0.9516307788028678
vn 0.2571084988794625 0.1147807074547115 -0.9595418745422969
vn -0.25498869522731377 -0.17140486032000282 0.9516307788028678
vn -0.2571084988794625 -0.1147807074547115 0.9595418745422969
vn 0.4869323785812219 0.22712868813433879 -0.843391615867509
vn -0.4869323785812219 -0.22712868813433879 0.843391615867509
vn 0.6784741286750685 0.281683615684748 -0.6784741685380319
vn -0.6784741286750685 -0.281683615684748 0.6784741685380319
vn 0.8236148878957646 0.3091029720050733 -0.4755143206403757
vn -0.8236148878957646 -0.3091029720050733 0.4755143206403757
vn -0.9595418745422971 0.11478070745471138 -0.2571084988794626
vn -0.9516307788028678 0.17140486032000268 -0.25498869522731377
vn 0.9516307788028678 -0.17140486032000268 0.25498869522731377
vn 0.9595418745422971 -0.11478070745471138 0.2571084988794626
vn -0.998342910220523 0.05754505723705659 2.2594503672212105e-8
vn 0.998342910220523 -0.05754505723705659 -2.2594503672212105e-8
vn -0.9738647565436523 0.22712867710214762 -3.0638655272369936e-8
vn 0.9738647565436523 -0.22712867710214762 3.0638655272369936e-8
vn -0.9658254610708852 0.014415327151382258 0.2587921503645943
vn 0.9658254610708852 -0.014415327151382258 -0.2587921503645943
vn -0.926812927260308 0.2816836016393273 0.24833877351447867
vn 0.926812927260308 -0.2816836016393273 -0.24833877351447867
vn -0.8236148878957646 0.3091029720050731 0.4755143206403758
vn 0.8236148878957646 -0.3091029720050731 -0.4755143206403758
vn 0.4999480485164838 0.014415328359859488 -0.865935417391411
vn -0.4999480485164838 -0.014415328359859488 0.865935417391411
vn 0.25839019226983473 0.057545061723713285 -0.964325191214028
vn -0.25839019226983473 -0.057545061723713285 0.964325191214028
vn 2.9854195814833324e-8 0.17140487172533117 -0.985200674963645
vn 2.226382462205172e-8 0.11478071838203344 -0.9933908529313644
vn -2.9854195814833324e-8 -0.17140487172533117 0.985200674963645
vn -2.226382462205172e-8 -0.11478071838203344 0.9933908529313644
vn 0.25205475813281575 0.2271286910992465 -0.9406811131207805
vn -0.25205475813281575 -0.2271286910992465 0.9406811131207805
vn 0.47975367388454965 0.28168360905783485 -0.8309577346546755
vn -0.47975367388454965 -0.28168360905783485 0.8309577346546755
vn 0.6724787230781838 0.3091029729667742 -0.6724787871079929
vn -0.6724787230781838 -0.3091029729667742 0.6724787871079929
vn -0.8603017143226174 0.11478071101856546 -0.4966954285189652
vn -0.8532088127163372 0.1714048630683608 -0.49260033984934953
vn 0.8532088127163372 -0.1714048630683608 0.49260033984934953
vn 0.8603017143226174 -0.11478071101856546 0.4966954285189652
vn -0.964325191214028 0.05754506172371313 -0.25839019226983473
vn 0.964325191214028 -0.05754506172371313 0.25839019226983473
vn -0.9406811131207805 0.22712869109924635 -0.2520547581328157
vn 0.9406811131207805 -0.22712869109924635 0.2520547581328157
vn -0.9998960937588828 0.014415328151834862 4.7509483891554856e-8
vn 0.9998960937588828 -0.014415328151834862 -4.7509483891554856e-8
vn -0.9595073509547566 0.2816835874945246 9.458295393258084e-9
vn 0.9595073509547566 -0.2816835874945246 -9.458295393258084e-9
vn -0.9186230580102559 0.3091029902245698 0.24614430467942042
vn 0.9186230580102559 -0.3091029902245698 -0.24614430467942042
vn 0.5000000016387066 0 -0.8660254028383311
vn -0.5000000016387066 0 0.8660254028383311
vn 0.2587921774079631 0.014415327755937854 -0.9658254538156127
vn -0.2587921774079631 -0.014415327755937854 0.9658254538156127
vn -2.2594503659434537e-8 0.057545057237056815 -0.998342910220523
vn 2.2594503659434537e-8 -0.057545057237056815 0.998342910220523
vn -0.2549886965729431 0.1714048618386978 -0.9516307781687645
vn -0.25710847015015936 0.11478071849744324 -0.9595418809193558
vn 0.2549886965729431 -0.1714048618386978 0.9516307781687645
vn 0.25710847015015936 -0.11478071849744324 0.9595418809193558
vn 3.0638655322802635e-8 0.22712867710214782 -0.9738647565436523
vn -3.0638655322802635e-8 -0.22712867710214782 0.9738647565436523
vn 0.2483388049353928 0.28168361568474803 -0.9268129145723143
vn -0.2483388049353928 -0.28168361568474803 0.9268129145723143
vn 0.4755142911231629 0.3091029629089657 -0.8236149083513088
vn -0.4755142911231629 -0.3091029629089657 0.8236149083513088
vn -0.70243342617133 0.11478070745471147 -0.7024333925671549
vn -0.6966420745097361 0.17140486032000277 -0.6966420844891956
vn 0.6966420745097361 -0.17140486032000277 0.6966420844891956
vn 0.70243342617133 -0.11478070745471147 0.7024333925671549
vn -0.8645903208294359 0.05754506054411664 -0.49917145665094576
vn 0.8645903208294359 -0.05754506054411664 0.49917145665094576
vn -0.843391615867509 0.22712868813433873 -0.48693237858122174
vn 0.843391615867509 -0.22712868813433873 0.48693237858122174
vn -0.9658254538156127 0.014415327755937696 -0.2587921774079631
vn 0.9658254538156127 -0.014415327755937696 0.2587921774079631
vn -0.9268129145723144 0.28168361568474787 -0.24833880493539273
vn 0.9268129145723144 -0.28168361568474787 0.24833880493539273
vn -0.9510285761729925 0.3091029720050732 -4.118909132344057e-8
vn 0.9510285761729925 -0.3091029720050732 4.118909132344057e-8
vn -4.7509483888354004e-8 0.014415328151835084 -0.9998960937588828
vn 4.7509483888354004e-8 -0.014415328151835084 0.9998960937588828
vn -0.2583901568653762 0.057545058447402514 -0.9643252008961353
vn 0.2583901568653762 -0.057545058447402514 0.9643252008961353
vn -0.49669544249096087 0.1147807183820334 -0.860301705273454
vn -0.4926003601073982 0.17140487172533114 -0.8532087992812102
vn 0.49669544249096087 -0.1147807183820334 0.860301705273454
vn 0.4926003601073982 -0.17140487172533114 0.8532087992812102
vn -0.2520547439825192 0.2271286867957451 -0.9406811179514274
vn 0.2520547439825192 -0.2271286867957451 0.9406811179514274
vn -9.458295330711763e-9 0.2816835874945248 -0.9595073509547565
vn 9.458295330711763e-9 -0.2816835874945248 0.9595073509547565
vn 0.24614435507904986 0.30910297296677425 -0.9186230503127061
vn -0.24614435507904986 -0.30910297296677425 0.9186230503127061
vn -0.7059350635298686 0.05754506172371322 -0.7059350196372852
vn 0.7059350635298686 -0.05754506172371322 0.7059350196372852
vn -0.6886263776420868 0.22712869109924644 -0.6886263643624757
vn 0.6886263776420868 -0.22712869109924644 0.6886263643624757
vn -0.8659354173914118 0.014415328359859406 -0.49994804851648234
vn 0.8659354173914118 -0.014415328359859406 0.49994804851648234
vn -0.8309577346546752 0.2816836090578348 -0.4797536738845503
vn 0.8309577346546752 -0.2816836090578348 0.4797536738845503
vn -0.9186230503127062 0.3091029729667741 -0.2461443550790498
vn 0.9186230503127062 -0.3091029729667741 0.2461443550790498
vn -0.2587921503645943 0.01441532715138253 -0.9658254610708852
vn 0.2587921503645943 -0.01441532715138253 0.9658254610708852
vn -0.49917143227085836 0.057545057237056794 -0.8645903351253956
vn 0.49917143227085836 -0.057545057237056794 0.8645903351253956
vn -0.4869324016139162 0.2271286771021478 -0.8433916055405887
vn 0.4869324016139162 -0.2271286771021478 0.8433916055405887
vn -0.24833877351447867 0.2816836016393277 -0.9268129272603081
vn 0.24833877351447867 -0.2816836016393277 0.9268129272603081
vn 4.118909139207521e-8 0.3091029720050734 -0.9510285761729924
vn -4.118909139207521e-8 -0.3091029720050734 0.9510285761729924
vn -0.7070333241680677 0.014415327755937797 -0.7070332925976973
vn 0.7070333241680677 -0.014415327755937797 0.7070332925976973
vn -0.678474168538032 0.281683615684748 -0.6784741286750684
vn 0.678474168538032 -0.281683615684748 0.6784741286750684
vn -0.8660254028383286 0 -0.5000000016387106
vn 0.8660254028383286 0 0.5000000016387106
vn -0.8236149083513078 0.30910296290896566 -0.4755142911231646
vn 0.8236149083513078 -0.30910296290896566 0.4755142911231646
vn -0.4999480024579419 0.014415328151835055 -0.8659354439867838
vn 0.4999480024579419 -0.014415328151835055 0.8659354439867838
vn -0.47975366414154563 0.2816835874945247 -0.830957747589476
vn 0.47975366414154563 -0.2816835874945247 0.830957747589476
vn -0.24614430467942036 0.30910299022457005 -0.9186230580102558
vn 0.24614430467942036 -0.30910299022457005 0.9186230580102558
vn -0.672478787107993 0.3091029729667742 -0.6724787230781837
vn 0.672478787107993 -0.3091029729667742 0.6724787230781837
vn -0.47551432064037574 0.30910297200507336 -0.8236148878957645
vn 0.47551432064037574 -0.30910297200507336 0.8236148878957645
usemtl material_0_0
f 1//1 2//2 3//3
f 2//2 1//1 4//4
f 5//5 6//6 7//7
f 8//8 7//7 6//6
f 3//3 9//9 10//10
f 9//9 3//3 2//2
f 7//7 8//8 11//11
f 12//12 11//11 8//8
f 13//13 3//3 14//14
f 3//3 13//13 1//1
f 6//6 15//15 8//8
f 16//16 8//8 15//15
f 17//17 4//4 1//1
f 4//4 17//17 18//18
f 19//19 20//20 5//5
f 6//6 5//5 20//20
f 4//4 21//21 2//2
f 21//21 4//4 22//22
f 23//23 5//5 24//24
f 7//7 24//24 5//5
f 9//9 25//25 10//10
f 25//25 9//9 26//26
f 27//27 11//11 28//28
f 12//12 28//28 11//11
f 14//14 10//10 29//29
f 10//10 14//14 3//3
f 8//8 16//16 12//12
f 30//30 12//12 16//16
f 2//2 31//31 9//9
f 31//31 2//2 21//21
f 24//24 7//7 32//32
f 11//11 32//32 7//7
f 33//33 14//14 34//34
f 14//14 33//33 13//13
f 15//15 35//35 16//16
f 36//36 16//16 35//35
f 37//37 1//1 13//13
f 1//1 37//37 17//17
f 20//20 38//38 6//6
f 15//15 6//6 38//38
f 39//39 18//18 17//17
f 18//18 39//39 40//40
f 41//41 42//42 19//19
f 20//20 19//19 42//42
f 18//18 22//22 4//4
f 22//22 18//18 43//43
f 44//44 19//19 23//23
f 5//5 23//23 19//19
f 22//22 45//45 21//21
f 45//45 22//22 46//46
f 47//47 23//23 48//48
f 24//24 48//48 23//23
f 26//26 49//49 25//25
f 49//49 26//26 50//50
f 51//51 27//27 52//52
f 28//28 52//52 27//27
f 10//10 53//53 29//29
f 53//53 10//10 25//25
f 28//28 12//12 54//54
f 30//30 54//54 12//12
f 31//31 26//26 9//9
f 26//26 31//31 55//55
f 56//56 32//32 27//27
f 11//11 27//27 32//32
f 34//34 29//29 57//57
f 29//29 34//34 14//14
f 16//16 36//36 30//30
f 58//58 30//30 36//36
f 21//21 59//59 31//31
f 59//59 21//21 45//45
f 48//48 24//24 60//60
f 32//32 60//60 24//24
f 61//61 33//33 34//34
f 33//33 61//61 62//62
f 63//63 64//64 35//35
f 36//36 35//35 64//64
f 65//65 13//13 33//33
f 13//13 65//65 37//37
f 38//38 66//66 15//15
f 35//35 15//15 66//66
f 37//37 39//39 17//17
f 39//39 37//37 67//67
f 68//68 38//38 42//42
f 20//20 42//42 38//38
f 39//39 69//69 40//40
f 69//69 39//39 70//70
f 71//71 42//42 72//72
f 41//41 72//72 42//42
f 18//18 73//73 43//43
f 73//73 18//18 40//40
f 41//41 19//19 74//74
f 44//44 74//74 19//19
f 43//43 46//46 22//22
f 46//46 43//43 75//75
f 76//76 44//44 47//47
f 23//23 47//47 44//44
f 46//46 77//77 45//45
f 77//77 46//46 78//78
f 79//79 47//47 80//80
f 48//48 80//80 47//47
f 50//50 81//81 49//49
f 81//81 50//50 82//82
f 83//83 51//51 84//84
f 52//52 84//84 51//51
f 25//25 85//85 53//53
f 85//85 25//25 49//49
f 52//52 28//28 86//86
f 54//54 86//86 28//28
f 55//55 50//50 26//26
f 50//50 55//55 87//87
f 88//88 56//56 51//51
f 27//27 51//51 56//56
f 29//29 89//89 57//57
f 89//89 29//29 53//53
f 54//54 30//30 90//90
f 58//58 90//90 30//30
f 59//59 55//55 31//31
f 55//55 59//59 91//91
f 92//92 60//60 56//56
f 32//32 56//56 60//60
f 93//93 34//34 57//57
f 34//34 93//93 61//61
f 64//64 94//94 36//36
f 58//58 36//36 94//94
f 45//45 95//95 59//59
f 95//95 45//45 77//77
f 80//80 48//48 96//96
f 60//60 96//96 48//48
f 62//62 65//65 33//33
f 65//65 62//62 97//97
f 98//98 63//63 66//66
f 35//35 66//66 63//63
f 99//99 37//37 65//65
f 37//37 99//99 67//67
f 68//68 100//100 38//38
f 66//66 38//38 100//100
f 67//67 70//70 39//39
f 70//70 67//67 101//101
f 102//102 68//68 71//71
f 42//42 71//71 68//68
f 70//70 103//103 69//69
f 103//103 70//70 104//104
f 105//105 71//71 106//106
f 72//72 106//106 71//71
f 40//40 107//107 73//73
f 107//107 40//40 69//69
f 72//72 41//41 108//108
f 74//74 108//108 41//41
f 73//73 75//75 43//43
f 75//75 73//73 109//109
f 110//110 74//74 76//76
f 44//44 76//76 74//74
f 75//75 78//78 46//46
f 78//78 75//75 111//111
f 112//112 76//76 79//79
f 47//47 79//79 76//76
f 82//82 113//113 81//81
f 113//113 82//82 114//114
f 115//115 83//83 116//116
f 84//84 116//116 83//83
f 49//49 117//117 85//85
f 117//117 49//49 81//81
f 84//84 52//52 118//118
f 86//86 118//118 52//52
f 87//87 82//82 50//50
f 82//82 87//87 119//119
f 120//120 88//88 83//83
f 51//51 83//83 88//88
f 53//53 121//121 89//89
f 121//121 53//53 85//85
f 86//86 54//54 122//122
f 90//90 122//122 54//54
f 91//91 87//87 55//55
f 87//87 91//91 123//123
f 124//124 92//92 88//88
f 56//56 88//88 92//92
f 57//57 125//125 93//93
f 125//125 57//57 89//89
f 90//90 58//58 126//126
f 94//94 126//126 58//58
f 95//95 91//91 59//59
f 91//91 95//95 127//127
f 128//128 96//96 92//92
f 60//60 92//92 96//96
f 97//97 99//99 65//65
f 99//99 97//97 129//129
f 130//130 98//98 100//100
f 66//66 100//100 98//98
f 99//99 101//101 67//67
f 101//101 99//99 131//131
f 132//132 100//100 102//102
f 68//68 102//102 100//100
f 101//101 104//104 70//70
f 104//104 101//101 133//133
f 134//134 102//102 105//105
f 71//71 105//105 102//102
f 135//135 104//104 136//136
f 104//104 135//135 103//103
f 106//106 137//137 105//105
f 138//138 105//105 137//137
f 69//69 139//139 107//107
f 139//139 69//69 103//103
f 106//106 72//72 140//140
f 108//108 140//140 72//72
f 73//73 141//141 109//109
f 141//141 73//73 107//107
f 108//108 74//74 142//142
f 110//110 142//142 74//74
f 75//75 143//143 111//111
f 143//143 75//75 109//109
f 110//110 76//76 144//144
f 112//112 144//144 76//76
f 114//114 145//145 113//113
f 145//145 114//114 146//146
f 147//147 115//115 148//148
f 116//116 148//148 115//115
f 81//81 149//149 117//117
f 149//149 81//81 113//113
f 116//116 84//84 150//150
f 118//118 150//150 84//84
f 119//119 114//114 82//82
f 114//114 119//119 151//151
f 152//152 120//120 115//115
f 83//83 115//115 120//120
f 85//85 153//153 121//121
f 153//153 85//85 117//117
f 118//118 86//86 154//154
f 122//122 154//154 86//86
f 123//123 119//119 87//87
f 119//119 123//123 155//155
f 156//156 124//124 120//120
f 88//88 120//120 124//124
f 89//89 157//157 125//125
f 157//157 89//89 121//121
f 122//122 90//90 158//158
f 126//126 158//158 90//90
f 127//127 123//123 91//91
f 123//123 127//127 159//159
f 160//160 128//128 124//124
f 92//92 124//124 128//128
f 129//129 131//131 99//99
f 131//131 129//129 161//161
f 162//162 130//130 132//132
f 100//100 132//132 130//130
f 131//131 133//133 101//101
f 133//133 131//131 163//163
f 164//164 132//132 134//134
f 102//102 134//134 132//132
f 136//136 133//133 165//165
f 133//133 136//136 104//104
f 105//105 138//138 134//134
f 166//166 134//134 138//138
f 167//167 136//136 168//168
f 136//136 167//167 135//135
f 137//137 169//169 138//138
f 170//170 138//138 169//169
f 171//171 103//103 135//135
f 103//103 171//171 139//139
f 140//140 172//172 106//106
f 137//137 106//106 172//172
f 107//107 173//173 141//141
f 173//173 107//107 139//139
f 140//140 108//108 174//174
f 142//142 174//174 108//108
f 109//109 175//175 143//143
f 175//175 109//109 141//141
f 142//142 110//110 176//176
f 144//144 176//176 110//110
f 146//146 177//177 145//145
f 177//177 146//146 178//178
f 179//179 147//147 180//180
f 148//148 180//180 147//147
f 113//113 181//181 149//149
f 181//181 113//113 145//145
f 148//148 116//116 182//182
f 150//150 182//182 116//116
f 151//151 146//146 114//114
f 146//146 151//151 183//183
f 184//184 152//152 147//147
f 115//115 147//147 152//152
f 117//117 185//185 153//153
f 185//185 117//117 149//149
f 150//150 118//118 186//186
f 154//154 186//186 118//118
f 155//155 151//151 119//119
f 151//151 155//155 187//187
f 188//188 156//156 152//152
f 120//120 152//152 156//156
f 121//121 189//189 157//157
f 189//189 121//121 153//153
f 154//154 122//122 190//190
f 158//158 190//190 122//122
f 159//159 155//155 123//123
f 155//155 159//159 191//191
f 192//192 160//160 156//156
f 124//124 156//156 160//160
f 161//161 163//163 131//131
f 163//163 161//161 193//193
f 194//194 162//162 164//164
f 132//132 164//164 162//162
f 165//165 163//163 195//195
f 163//163 165//165 133//133
f 134//134 166//166 164//164
f 196//196 164//164 166//166
f 168//168 165//165 197//197
f 165//165 168//168 136//136
f 138//138 170//170 166//166
f 198//198 166//166 170//170
f 199//199 168//168 200//200
f 168//168 199//199 167//167
f 169//169 201//201 170//170
f 202//202 170//170 201//201
f 203//203 135//135 167//167
f 135//135 203//203 171//171
f 172//172 204//204 137//137
f 169//169 137//137 204//204
f 205//205 139//139 171//171
f 139//139 205//205 173//173
f 174//174 206//206 140//140
f 172//172 140//140 206//206
f 141//141 207//207 175//175
f 207//207 141//141 173//173
f 174//174 142//142 208//208
f 176//176 208//208 142//142
f 178//178 209//209 177//177
f 209//209 178//178 210//210
f 211//211 179//179 212//212
f 180//180 212//212 179//179
f 145//145 213//213 181//181
f 213//213 145//145 177//177
f 180//180 148//148 214//214
f 182//182 214//214 148//148
f 183//183 178//178 146//146
f 178//178 183//183 215//215
f 216//216 184//184 179//179
f 147//147 179//179 184//184
f 149//149 217//217 185//185
f 217//217 149//149 181//181
f 182//182 150//150 218//218
f 186//186 218//218 150//150
f 187//187 183//183 151//151
f 183//183 187//187 219//219
f 220//220 188//188 184//184
f 152//152 184//184 188//188
f 153//153 221//221 189//189
f 221//221 153//153 185//185
f 186//186 154//154 222//222
f 190//190 222//222 154//154
f 191//191 187//187 155//155
f 187//187 191//191 223//223
f 224//224 192//192 188//188
f 156//156 188//188 192//192
f 195//195 193//193 225//225
f 193//193 195//195 163//163
f 164//164 196//196 194//194
f 226//226 194//194 196//196
f 197//197 195//195 227//227
f 195//195 197//197 165//165
f 166//166 198//198 196//196
f 228//228 196//196 198//198
f 200//200 197//197 229//229
f 197//197 200//200 168//168
f 170//170 202//202 198//198
f 230//230 198//198 202//202
f 231//231 200//200 232//232
f 200//200 231//231 199//199
f 201//201 233//233 202//202
f 234//234 202//202 233//233
f 235//235 167//167 199//199
f 167//167 235//235 203//203
f 204//204 236//236 169//169
f 201//201 169//169 236//236
f 237//237 171//171 203//203
f 171//171 237//237 205//205
f 206//206 238//238 172//172
f 204//204 172//172 238//238
f 239//239 173//173 205//205
f 173//173 239//239 207//207
f 208//208 240//240 174//174
f 206//206 174//174 240//240
f 210//210 241//241 209//209
f 241//241 210//210 242//242
f 243//243 211//211 244//244
f 212//212 244//244 211//211
f 177//177 245//245 213//213
f 245//245 177//177 209//209
f 212//212 180//180 246//246
f 214//214 246//246 180//180
f 215//215 210//210 178//178
f 210//210 215//215 247//247
f 248//248 216//216 211//211
f 179//179 211//211 216//216
f 181//181 249//249 217//217
f 249//249 181//181 213//213
f 214//214 182//182 250//250
f 218//218 250//250 182//182
f 219//219 215//215 183//183
f 215//215 219//219 251//251
f 252//252 220//220 216//216
f 184//184 216//216 220//220
f 185//185 253//226 221//221
f 253//226 185//185 217//217
f 218//218 186//186 254//225
f 222//222 254//225 186//186
f 223//223 219//219 187//187
f 219//219 223//223 255//253
f 256//254 224//224 220//220
f 188//188 220//220 224//224
f 227//227 225//225 257//222
f 225//225 227//227 195//195
f 196//196 228//228 226//226
f 258//221 226//226 228//228
f 229//229 227//227 259//255
f 227//227 229//229 197//197
f 198//198 230//230 228//228
f 260//256 228//228 230//230
f 232//232 229//229 261//257
f 229//229 232//232 200//200
f 202//202 234//234 230//230
f 262//258 230//230 234//234
f 263//259 232//232 264//260
f 232//232 263//259 231//231
f 233//233 265//261 234//234
f 266//262 234//234 265//261
f 267//263 199//199 231//231
f 199//199 267//263 235//235
f 236//236 268//264 201//201
f 233//233 201//201 268//264
f 269//265 203//203 235//235
f 203//203 269//265 237//237
f 238//238 270//266 204//204
f 236//236 204//204 270//266
f 271//267 205//205 237//237
f 205//205 271//267 239//239
f 240//240 272//268 206//206
f 238//238 206//206 272//268
f 242//242 273//269 241//241
f 273//269 242//242 274//270
f 275//271 243//243 276//272
f 244//244 276//272 243//243
f 209//209 277//273 245//245
f 277//273 209//209 241//241
f 244//244 212//212 278//274
f 246//246 278//274 212//212
f 247//247 242//242 210//210
f 242//242 247//247 279//275
f 280//276 248//248 243//243
f 211//211 243//243 248//248
f 213//213 281//277 249//249
f 281//277 213//213 245//245
f 246//246 214//214 282//278
f 250//250 282//278 214//214
f 251//251 247//247 215//215
f 247//247 251//251 283//279
f 284//280 252//252 248//248
f 216//216 248//248 252//252
f 217//217 285//194 253//226
f 285//194 217//217 249//249
f 250//250 218//218 286//193
f 254//225 286//193 218//218
f 255//253 251//251 219//219
f 251//251 255//253 287//281
f 288//282 256//254 252//252
f 220//220 252//252 256//254
f 259//255 257//222 289//283
f 257//222 259//255 227//227
f 228//228 260//256 258//221
f 290//284 258//221 260//256
f 261//257 259//255 291//285
f 259//255 261//257 229//229
f 230//230 262//258 260//256
f 292//286 260//256 262//258
f 264//260 261//257 293//287
f 261//257 264//260 232//232
f 234//234 266//262 262//258
f 294//288 262//258 266//262
f 295//289 264//260 296//290
f 264//260 295//289 263//259
f 265//261 297//291 266//262
f 298//292 266//262 297//291
f 299//293 231//231 263//259
f 231//231 299//293 267//263
f 268//264 300//294 233//233
f 265//261 233//233 300//294
f 301//295 235//235 267//263
f 235//235 301//295 269//265
f 270//266 302//296 236//236
f 268//264 236//236 302//296
f 303//297 237//237 269//265
f 237//237 303//297 271//267
f 272//268 304//298 238//238
f 270//266 238//238 304//298
f 274//270 305//299 273//269
f 305//299 274//270 306//300
f 307//301 275//271 308//302
f 276//272 308//302 275//271
f 241//241 309//303 277//273
f 309//303 241//241 273//269
f 276//272 244//244 310//304
f 278//274 310//304 244//244
f 279//275 274//270 242//242
f 274//270 279//275 311//305
f 312//306 280//276 275//271
f 243//243 275//271 280//276
f 245//245 313//307 281//277
f 313//307 245//245 277//273
f 278//274 246//246 314//308
f 282//278 314//308 246//246
f 283//279 279//275 247//247
f 279//275 283//279 315//309
f 316//310 284//280 280//276
f 248//248 280//276 284//280
f 281//277 285//194 249//249
f 285//194 281//277 317//162
f 318//161 282//278 286//193
f 250//250 286//193 282//278
f 287//281 283//279 251//251
f 283//279 287//281 319//311
f 320//312 288//282 284//280
f 252//252 284//280 288//282
f 291//285 289//283 321//158
f 289//283 291//285 259//255
f 260//256 292//286 290//284
f 322//157 290//284 292//286
f 293//287 291//285 323//313
f 291//285 293//287 261//257
f 262//258 294//288 292//286
f 324//314 292//286 294//288
f 296//290 293//287 325//315
f 293//287 296//290 264//260
f 266//262 298//292 294//288
f 326//316 294//288 298//292
f 295//289 327//317 328//318
f 327//317 295//289 296//290
f 298//292 297//291 329//319
f 330//320 329//319 297//291
f 331//321 263//259 295//289
f 263//259 331//321 299//293
f 300//294 332//322 265//261
f 297//291 265//261 332//322
f 333//323 267//263 299//293
f 267//263 333//323 301//295
f 302//296 334//324 268//264
f 300//294 268//264 334//324
f 335//325 269//265 301//295
f 269//265 335//325 303//297
f 304//298 336//326 270//266
f 302//296 270//266 336//326
f 328//318 305//299 306//300
f 305//299 328//318 327//317
f 329//319 330//320 308//302
f 307//301 308//302 330//320
f 305//299 309//303 273//269
f 309//303 305//299 337//327
f 338//328 308//302 310//304
f 276//272 310//304 308//302
f 339//329 274//270 311//305
f 274//270 339//329 306//300
f 307//301 340//330 275//271
f 312//306 275//271 340//330
f 277//273 341//331 313//307
f 341//331 277//273 309//303
f 310//304 278//274 342//332
f 314//308 342//332 278//274
f 315//309 311//305 279//275
f 311//305 315//309 343//333
f 344//334 316//310 312//306
f 280//276 312//306 316//310
f 313//307 317//162 281//277
f 317//162 313//307 345//130
f 346//129 314//308 318//161
f 282//278 318//161 314//308
f 319//311 315//309 283//279
f 315//309 319//311 347//335
f 348//336 320//312 316//310
f 284//280 316//310 320//312
f 323//313 321//158 349//126
f 321//158 323//313 291//285
f 292//286 324//314 322//157
f 350//125 322//157 324//314
f 325//315 323//313 351//337
f 323//313 325//315 293//287
f 294//288 326//316 324//314
f 352//338 324//314 326//316
f 296//290 353//339 327//317
f 353//339 296//290 325//315
f 326//316 298//292 354//340
f 329//319 354//340 298//292
f 331//321 328//318 355//341
f 328//318 331//321 295//289
f 297//291 332//322 330//320
f 356//342 330//320 332//322
f 357//343 299//293 331//321
f 299//293 357//343 333//323
f 334//324 358//344 300//294
f 332//322 300//294 358//344
f 359//345 301//295 333//323
f 301//295 359//345 335//325
f 336//326 360//346 302//296
f 334//324 302//296 360//346
f 327//317 337//327 305//299
f 337//327 327//317 353//339
f 354//340 329//319 338//328
f 308//302 338//328 329//319
f 355//341 306//300 339//329
f 306//300 355//341 328//318
f 330//320 356//342 307//301
f 340//330 307//301 356//342
f 309//303 361//347 341//331
f 361//347 309//303 337//327
f 338//328 310//304 362//348
f 342//332 362//348 310//304
f 363//349 311//305 343//333
f 311//305 363//349 339//329
f 340//330 364//350 312//306
f 344//334 312//306 364//350
f 341//331 345//130 313//307
f 345//130 341//331 365//351
f 366//352 342//332 346//129
f 314//308 346//129 342//332
f 347//335 343//333 315//309
f 343//333 347//335 367//353
f 368//354 348//336 344//334
f 316//310 344//334 348//336
f 351//337 349//126 369//94
f 349//126 351//337 323//313
f 324//314 352//338 350//125
f 370//93 350//125 352//338
f 325//315 371//355 353//339
f 371//355 325//315 351//337
f 352//338 326//316 372//356
f 354//340 372//356 326//316
f 357//343 355//341 373//357
f 355//341 357//343 331//321
f 332//322 358//344 356//342
f 374//358 356//342 358//344
f 375//359 333//323 357//343
f 333//323 375//359 359//345
f 360//346 376//360 334//324
f 358//344 334//324 376//360
f 353//339 361//347 337//327
f 361//347 353//339 371//355
f 372//356 354//340 362//348
f 338//328 362//348 354//340
f 373//357 339//329 363//349
f 339//329 373//357 355//341
f 356//342 374//358 340//330
f 364//350 340//330 374//358
f 361//347 365//351 341//331
f 365//351 361//347 377//63
f 378//62 362//348 366//352
f 342//332 366//352 362//348
f 367//353 363//349 343//333
f 363//349 367//353 379//361
f 380//362 368//354 364//350
f 344//334 364//350 368//354
f 351//337 381//64 371//355
f 381//64 351//337 369//94
f 370//93 352//338 382//61
f 372//356 382//61 352//338
f 375//359 373//357 383//363
f 373//357 375//359 357//343
f 358//344 376//360 374//358
f 384//364 374//358 376//360
f 371//355 377//63 361//347
f 377//63 371//355 381//64
f 382//61 372//356 378//62
f 362//348 378//62 372//356
f 383//363 363//349 379//361
f 363//349 383//363 373//357
f 374//358 384//364 364//350
f 380//362 364//350 384//364
