# SSTK version 0.8.0
# 99
mtllib original-99.mtl
o #ID450
v -0.318876 -0.431700 0.448667
v -0.335952 -0.443687 0.478244
v -0.335952 -0.431700 0.478244
v -0.335952 -0.469336 0.478244
v -0.335952 -0.488154 0.478244
v -0.252231 -0.488154 0.333235
v -0.252231 -0.431700 0.333235
v -0.238570 -0.431700 0.309574
v -0.238570 -0.488154 0.309574
v -0.238570 -0.443687 0.309574
v -0.238570 -0.469336 0.309574
v -0.238570 -0.469336 0.309574
v -0.238570 -0.443687 0.309574
v -0.238570 -0.488154 0.309574
v -0.238570 -0.431700 0.309574
v -0.252231 -0.488154 0.333235
v -0.252231 -0.431700 0.333235
v -0.318876 -0.431700 0.448667
v -0.335952 -0.488154 0.478244
v -0.335952 -0.469336 0.478244
v -0.335952 -0.443687 0.478244
v -0.335952 -0.431700 0.478244
v -0.171347 -0.488154 0.361155
v -0.252231 -0.488154 0.333235
v -0.238570 -0.488154 0.309574
v -0.185008 -0.488154 0.384817
v -0.093065 -0.488154 0.393581
v -0.106725 -0.488154 0.417242
v -0.106725 -0.488154 0.417242
v -0.093065 -0.488154 0.393581
v -0.185008 -0.488154 0.384817
v -0.171347 -0.488154 0.361155
v -0.252231 -0.488154 0.333235
v -0.238570 -0.488154 0.309574
v -0.252231 -0.488154 0.333235
v -0.270388 -0.488154 0.532699
v -0.335952 -0.488154 0.478244
v -0.185008 -0.488154 0.384817
v -0.106725 -0.488154 0.417242
v -0.190446 -0.488154 0.562251
v -0.190446 -0.488154 0.562251
v -0.106725 -0.488154 0.417242
v -0.270388 -0.488154 0.532699
v -0.185008 -0.488154 0.384817
v -0.252231 -0.488154 0.333235
v -0.335952 -0.488154 0.478244
v -0.333809 -0.344566 0.475834
v -0.316733 -0.344566 0.446257
v -0.316733 -0.344566 0.446257
v -0.333809 -0.344566 0.475834
v -0.250452 -0.344566 0.331456
v -0.236791 -0.344566 0.307795
v -0.236791 -0.344566 0.307795
v -0.250452 -0.344566 0.331456
v -0.238570 -0.469336 0.309574
v -0.171347 -0.488154 0.361155
v -0.238570 -0.488154 0.309574
v -0.171347 -0.443687 0.361155
v -0.238570 -0.443687 0.309574
v -0.238570 -0.431700 0.309574
v -0.171347 -0.431700 0.361155
v -0.171347 -0.431700 0.361155
v -0.238570 -0.431700 0.309574
v -0.171347 -0.443687 0.361155
v -0.238570 -0.443687 0.309574
v -0.238570 -0.469336 0.309574
v -0.171347 -0.488154 0.361155
v -0.238570 -0.488154 0.309574
v -0.093065 -0.488154 0.393581
v -0.093065 -0.469336 0.393581
v -0.093065 -0.443687 0.393581
v -0.093065 -0.431700 0.393581
v -0.093065 -0.431700 0.393581
v -0.093065 -0.443687 0.393581
v -0.093065 -0.469336 0.393581
v -0.093065 -0.488154 0.393581
v -0.190446 -0.443687 0.562251
v -0.173370 -0.431700 0.532675
v -0.190446 -0.431700 0.562251
v -0.190446 -0.469336 0.562251
v -0.190446 -0.488154 0.562251
v -0.106725 -0.488154 0.417242
v -0.106725 -0.431700 0.417242
v -0.093065 -0.431700 0.393581
v -0.093065 -0.469336 0.393581
v -0.093065 -0.488154 0.393581
v -0.093065 -0.443687 0.393581
v -0.093065 -0.443687 0.393581
v -0.093065 -0.469336 0.393581
v -0.093065 -0.431700 0.393581
v -0.093065 -0.488154 0.393581
v -0.106725 -0.488154 0.417242
v -0.106725 -0.431700 0.417242
v -0.173370 -0.431700 0.532675
v -0.190446 -0.488154 0.562251
v -0.190446 -0.469336 0.562251
v -0.190446 -0.443687 0.562251
v -0.190446 -0.431700 0.562251
v -0.327384 -0.257631 0.468609
v -0.310308 -0.257631 0.439033
v -0.310308 -0.257631 0.439033
v -0.327384 -0.257631 0.468609
v -0.245120 -0.257631 0.326124
v -0.231459 -0.257631 0.302462
v -0.231459 -0.257631 0.302462
v -0.245120 -0.257631 0.326124
v -0.236791 -0.344566 0.307795
v -0.170089 -0.344566 0.358977
v -0.170089 -0.344566 0.358977
v -0.236791 -0.344566 0.307795
v -0.092413 -0.344566 0.391151
v -0.092413 -0.344566 0.391151
v -0.106074 -0.344566 0.414813
v -0.092413 -0.344566 0.391151
v -0.092413 -0.344566 0.391151
v -0.106074 -0.344566 0.414813
v -0.189431 -0.344566 0.559190
v -0.172355 -0.344566 0.529614
v -0.172355 -0.344566 0.529614
v -0.189431 -0.344566 0.559190
v -0.316692 -0.171092 0.456586
v -0.299616 -0.171092 0.427010
v -0.299616 -0.171092 0.427010
v -0.316692 -0.171092 0.456586
v -0.236246 -0.171092 0.317250
v -0.222585 -0.171092 0.293589
v -0.222585 -0.171092 0.293589
v -0.236246 -0.171092 0.317250
v -0.231459 -0.257631 0.302462
v -0.166319 -0.257631 0.352446
v -0.166319 -0.257631 0.352446
v -0.231459 -0.257631 0.302462
v -0.090462 -0.257631 0.383867
v -0.090462 -0.257631 0.383867
v -0.104122 -0.257631 0.407528
v -0.090462 -0.257631 0.383867
v -0.090462 -0.257631 0.383867
v -0.104122 -0.257631 0.407528
v -0.186386 -0.257631 0.550014
v -0.169310 -0.257631 0.520437
v -0.169310 -0.257631 0.520437
v -0.186386 -0.257631 0.550014
v -0.301758 -0.085148 0.439793
v -0.284682 -0.085148 0.410216
v -0.284682 -0.085148 0.410216
v -0.301758 -0.085148 0.439793
v -0.223852 -0.085148 0.304855
v -0.210191 -0.085148 0.281194
v -0.210191 -0.085148 0.281194
v -0.223852 -0.085148 0.304855
v -0.222585 -0.171092 0.293589
v -0.160044 -0.171092 0.341578
v -0.160044 -0.171092 0.341578
v -0.222585 -0.171092 0.293589
v -0.087214 -0.171092 0.371746
v -0.087214 -0.171092 0.371746
v -0.100874 -0.171092 0.395407
v -0.087214 -0.171092 0.371746
v -0.087214 -0.171092 0.371746
v -0.100874 -0.171092 0.395407
v -0.181320 -0.171092 0.534743
v -0.164244 -0.171092 0.505167
v -0.164244 -0.171092 0.505167
v -0.181320 -0.171092 0.534743
v -0.282615 0.000006 0.418267
v -0.265539 0.000006 0.388690
v -0.265539 0.000006 0.388690
v -0.282615 0.000006 0.418267
v -0.207964 0.000006 0.288968
v -0.194303 0.000006 0.265307
v -0.194303 0.000006 0.265307
v -0.207964 0.000006 0.288968
v -0.210191 -0.085148 0.281194
v -0.151280 -0.085148 0.326398
v -0.151280 -0.085148 0.326398
v -0.210191 -0.085148 0.281194
v -0.082677 -0.085148 0.354814
v -0.082677 -0.085148 0.354814
v -0.096338 -0.085148 0.378476
v -0.082677 -0.085148 0.354814
v -0.082677 -0.085148 0.354814
v -0.096338 -0.085148 0.378476
v -0.174244 -0.085148 0.513413
v -0.157168 -0.085148 0.483836
v -0.157168 -0.085148 0.483836
v -0.174244 -0.085148 0.513413
v -0.259307 0.084175 0.392057
v -0.242231 0.084175 0.362481
v -0.242231 0.084175 0.362481
v -0.259307 0.084175 0.392057
v -0.188620 0.084175 0.269624
v -0.174959 0.084175 0.245963
v -0.174959 0.084175 0.245963
v -0.188620 0.084175 0.269624
v -0.194303 0.000006 0.265307
v -0.140046 0.000006 0.306940
v -0.140046 0.000006 0.306940
v -0.194303 0.000006 0.265307
v -0.076862 0.000006 0.333112
v -0.076862 0.000006 0.333112
v -0.090523 0.000006 0.356773
v -0.076862 0.000006 0.333112
v -0.076862 0.000006 0.333112
v -0.090523 0.000006 0.356773
v -0.165173 0.000006 0.486071
v -0.148097 0.000006 0.456495
v -0.148097 0.000006 0.456495
v -0.165173 0.000006 0.486071
v -0.237419 0.161035 0.362477
v -0.163581 0.161035 0.234584
v -0.163581 0.161035 0.234584
v -0.237419 0.161035 0.362477
v -0.174959 0.084175 0.245963
v -0.126367 0.084175 0.283248
v -0.126367 0.084175 0.283248
v -0.174959 0.084175 0.245963
v -0.069781 0.084175 0.306687
v -0.069781 0.084175 0.306687
v -0.083442 0.084175 0.330348
v -0.069781 0.084175 0.306687
v -0.069781 0.084175 0.306687
v -0.083442 0.084175 0.330348
v -0.154129 0.084175 0.452782
v -0.137053 0.084175 0.423205
v -0.137053 0.084175 0.423205
v -0.154129 0.084175 0.452782
v -0.139455 0.161035 0.419036
v -0.065617 0.161035 0.291144
v -0.065617 0.161035 0.291144
v -0.139455 0.161035 0.419036
vn -0.8660226340915567 0.002528662999113048 -0.4999984031020087
vn -0.866025402838329 0 -0.5000000016387101
vn -0.8660194992437562 0.0036923869255565153 -0.4999965931967794
vn -0.8660227802669537 0.002461007922325562 -0.499998487496414
vn -0.8660192522272581 0.003768842979680929 -0.49999645058173703
vn 0.866025402838329 0 0.5000000016387101
vn 0.8660192522272581 -0.003768842979680929 0.49999645058173703
vn 0.8660227802669537 -0.002461007922325562 0.499998487496414
vn 0.8660226340915567 -0.002528662999113048 0.4999984031020087
vn 0.8660194992437562 -0.0036923869255565153 0.4999965931967794
vn 0 -1 0
vn 0 1 0
vn -0.8659330229369818 0.01460585037396426 -0.4999466660775667
vn -0.8659240874180502 0.015295890118595274 -0.49994150715328367
vn 0.8659240874180502 -0.015295890118595274 0.49994150715328367
vn 0.8659330229369818 -0.01460585037396426 0.4999466660775667
vn -0.8659319754431486 0.01468842023591133 -0.4999460613067173
vn -0.8659250933673134 0.015219769533043775 -0.49994208793836387
vn 0.8659250933673134 -0.015219769533043775 0.49994208793836387
vn 0.8659319754431486 -0.01468842023591133 0.4999460613067173
vn 0.6087614326294898 0 -0.7933533375129211
vn 0.5000000016387101 0 -0.866025402838329
vn 0.6086993026409769 -0.014289960286958852 -0.793272308857044
vn 0.49994806356701416 -0.014413240296653224 -0.865935443459698
vn -0.49994806356701416 0.014413240296653224 0.865935443459698
vn -0.6086993026409769 0.014289960286958852 0.793272308857044
vn -0.5000000016387101 0 0.866025402838329
vn -0.6087614326294898 0 0.7933533375129211
vn 0.3826834316449802 0 -0.9238795328095659
vn 0.3826443237644557 -0.014289960286958824 -0.9237852123333863
vn -0.3826443237644557 0.014289960286958824 0.9237852123333863
vn -0.3826834316449802 0 0.9238795328095659
vn 0.8660226340915567 0.002528662999112826 0.4999984031020087
vn 0.8660194992437562 0.0036923869255562933 0.4999965931967794
vn 0.8660227802669537 0.00246100792232534 0.499998487496414
vn 0.8660192522272581 0.003768842979680707 0.49999645058173703
vn -0.8660192522272581 -0.003768842979680707 -0.49999645058173703
vn -0.8660227802669537 -0.00246100792232534 -0.499998487496414
vn -0.8660226340915567 -0.002528662999112826 -0.4999984031020087
vn -0.8660194992437562 -0.0036923869255562933 -0.4999965931967794
vn -0.8656543851711842 0.0292684994853423 -0.4997857944877743
vn -0.8656184685440433 0.03065214029056292 -0.4997650580133356
vn 0.8656184685440433 -0.03065214029056292 0.4997650580133356
vn 0.8656543851711842 -0.0292684994853423 0.4997857944877743
vn -0.8656502071451022 0.02943279876489331 -0.4997833823032803
vn -0.865622486143292 0.030500488431512176 -0.49976737757535294
vn 0.865622486143292 -0.030500488431512176 0.49976737757535294
vn 0.8656502071451022 -0.02943279876489331 0.4997833823032803
vn 0.6077704977378214 -0.05703385183797188 -0.7920619684242167
vn 0.4991720528522247 -0.05752436995162592 -0.864591353480339
vn -0.4991720528522247 0.05752436995162592 0.864591353480339
vn -0.6077704977378214 0.05703385183797188 0.7920619684242167
vn 0.3820605406486431 -0.05703385183797185 -0.9223756734778897
vn -0.3820605406486431 0.05703385183797185 0.9223756734778897
vn 0.8659319754431486 0.014688420235911107 0.4999460613067173
vn 0.8659250933673134 0.015219769533043553 0.49994208793836387
vn -0.8659250933673134 -0.015219769533043553 -0.49994208793836387
vn -0.8659319754431486 -0.014688420235911107 -0.4999460613067173
vn 0.8659330229369819 0.014605850373964039 0.49994666607756644
vn 0.8659240874180504 0.015295890118595052 0.4999415071532834
vn -0.8659240874180504 -0.015295890118595052 -0.4999415071532834
vn -0.8659330229369819 -0.014605850373964039 -0.49994666607756644
vn -0.8651849492352228 0.04404546108001718 -0.4995147655225957
vn -0.8651034698147845 0.04613003185484601 -0.4994677233570667
vn 0.8651034698147845 -0.04613003185484601 0.4994677233570667
vn 0.8651849492352228 -0.04404546108001718 0.4995147655225957
vn -0.8651755917345874 0.04428986085943397 -0.49950936296706044
vn -0.8651124868568172 0.04590400780115414 -0.49947292934873344
vn 0.8651124868568172 -0.04590400780115414 0.49947292934873344
vn 0.8651755917345874 -0.04428986085943397 0.49950936296706044
vn 0.6048087343242 -0.1137712966743434 -0.7882020597145112
vn 0.49669777400860127 -0.11474010479402487 -0.860305776829818
vn -0.49669777400860127 0.11474010479402487 0.860305776829818
vn -0.6048087343242 0.1137712966743434 0.7882020597145112
vn 0.38019864333954934 -0.11377129667434334 -0.9178807567738876
vn -0.38019864333954934 0.11377129667434334 0.9178807567738876
vn 0.8656502071451022 0.02943279876489309 0.4997833823032803
vn 0.865622486143292 0.030500488431511954 0.49976737757535294
vn -0.865622486143292 -0.030500488431511954 -0.49976737757535294
vn -0.8656502071451022 -0.02943279876489309 -0.4997833823032803
vn 0.8656543851711845 0.02926849948534208 0.4997857944877737
vn 0.8656184685440437 0.030652140290562697 0.49976505801333493
vn -0.8656184685440437 -0.030652140290562697 -0.49976505801333493
vn -0.8656543851711845 -0.02926849948534208 -0.4997857944877737
vn -0.8645169920887225 0.05899569201063698 -0.4991291202825715
vn -0.8643704306218251 0.061792739963928 -0.4990445029798357
vn 0.8643704306218251 -0.061792739963928 0.4990445029798357
vn 0.8645169920887225 -0.05899569201063698 0.4991291202825715
vn -0.8645004558773305 0.0593179023560777 -0.4991195730964303
vn -0.8643864109188735 0.06149396703498662 -0.49905372920867774
vn 0.8643864109188735 -0.06149396703498662 0.49905372920867774
vn 0.8645004558773305 -0.0593179023560777 0.4991195730964303
vn 0.5999084800965557 -0.16992240311941595 -0.7818159581553469
vn 0.4926054860390175 -0.1713456940207304 -0.8532177261782702
vn -0.4926054860390175 0.1713456940207304 0.8532177261782702
vn -0.5999084800965557 0.16992240311941595 0.7818159581553469
vn 0.3771182442438436 -0.16992240311941592 -0.9104439613598211
vn -0.3771182442438436 0.16992240311941592 0.9104439613598211
vn 0.8651755917345874 0.04428986085943375 0.49950936296706044
vn 0.8651124868568172 0.04590400780115392 0.49947292934873344
vn -0.8651124868568172 -0.04590400780115392 -0.49947292934873344
vn -0.8651755917345874 -0.04428986085943375 -0.49950936296706044
vn 0.8651849492352234 0.04404546108001696 0.4995147655225947
vn 0.865103469814785 0.046130031854845786 0.4994677233570656
vn -0.865103469814785 -0.046130031854845786 -0.4994677233570656
vn -0.8651849492352234 -0.04404546108001696 -0.4995147655225947
vn -0.8636393636103895 0.07418039267396732 -0.4986224212421434
vn -0.8634067974124446 0.07770628934794663 -0.49848814908456873
vn 0.8634067974124446 -0.07770628934794663 0.49848814908456873
vn 0.8636393636103895 -0.07418039267396732 0.4986224212421434
vn -0.8636137080290901 0.07457758085510367 -0.4986076089853082
vn -0.8634316774071907 0.07733681159616959 -0.4985025135562946
vn 0.8634316774071907 -0.07733681159616959 0.4985025135562946
vn 0.8636137080290901 -0.07457758085510367 0.4986076089853082
vn 0.5931225260586329 -0.22520969011887157 -0.772972356917366
vn 0.4869411674321482 -0.22705330664004936 -0.8434068386037883
vn -0.4869411674321482 0.22705330664004936 0.8434068386037883
vn -0.5931225260586329 0.22520969011887157 0.772972356917366
vn 0.3728524378907997 -0.22520969011887157 -0.9001453521712198
vn -0.3728524378907997 0.22520969011887157 0.9001453521712198
vn 0.8645004558773305 0.05931790235607748 0.4991195730964303
vn 0.8643864109188735 0.0614939670349864 0.49905372920867774
vn -0.8643864109188735 -0.0614939670349864 -0.49905372920867774
vn -0.8645004558773305 -0.05931790235607748 -0.4991195730964303
vn 0.8645169920887232 0.05899569201063676 0.49912912028257017
vn 0.864370430621826 0.06179273996392778 0.4990445029798343
vn -0.864370430621826 -0.06179273996392778 -0.4990445029798343
vn -0.8645169920887232 -0.05899569201063676 -0.49912912028257017
vn -0.8637166552621549 0.07297065887758064 -0.49866704559829095
vn -0.8643458455075171 0.06224958068437274 -0.4990303087574094
vn 0.8643458455075171 -0.06224958068437274 0.4990303087574094
vn 0.8637166552621549 -0.07297065887758064 0.49866704559829095
vn -0.8641817000664394 0.06521745817942144 -0.4989355393424025
vn -0.8641074982963706 0.06651545942138175 -0.49889269893029176
vn 0.8641074982963706 -0.06651545942138175 0.49889269893029176
vn 0.8641817000664394 -0.06521745817942144 0.4989355393424025
vn 0.5845219488838294 -0.27937399249533607 -0.7617639159150726
vn 0.47976678266918243 -0.28159428798204544 -0.8309804397355851
vn -0.47976678266918243 0.28159428798204544 0.8309804397355851
vn -0.5845219488838294 0.27937399249533607 0.7617639159150726
vn 0.36744593178399965 -0.27937399249533607 -0.8870928133699452
vn -0.36744593178399965 0.27937399249533607 0.8870928133699452
vn 0.8636137080290901 0.07457758085510345 0.4986076089853082
vn 0.8634316774071905 0.07733681159616934 0.49850251355629455
vn -0.8634316774071905 -0.07733681159616934 -0.49850251355629455
vn -0.8636137080290901 -0.07457758085510345 -0.4986076089853082
vn 0.8636393636103904 0.0741803926739671 0.4986224212421418
vn 0.8634067974124455 0.0777062893479464 0.49848814908456707
vn -0.8634067974124455 -0.0777062893479464 -0.49848814908456707
vn -0.8636393636103904 -0.0741803926739671 -0.4986224212421418
vn -0.8647568024935518 0.054106942342186236 -0.4992675748849584
vn 0.8647568024935518 -0.054106942342186236 0.4992675748849584
vn 0.5794212994938231 -0.30670828428889174 -0.7551165380532024
vn 0.47551428681735525 -0.30910298940464187 -0.823614900893431
vn -0.47551428681735525 0.30910298940464187 0.823614900893431
vn -0.5794212994938231 0.30670828428889174 0.7551165380532024
vn 0.3642394583527736 -0.3067082842888917 -0.8793518325036017
vn -0.3642394583527736 0.3067082842888917 0.8793518325036017
vn 0.8641817000664395 0.06521745817942122 0.4989355393424024
vn 0.8641074982963705 0.06651545942138151 0.4988926989302916
vn -0.8641074982963705 -0.06651545942138151 -0.4988926989302916
vn -0.8641817000664395 -0.06521745817942122 -0.4989355393424024
vn 0.8637166552621554 0.0729706588775804 0.49866704559828967
vn 0.8643458455075175 0.062249580684372516 0.49903030875740884
vn -0.8643458455075175 -0.062249580684372516 -0.49903030875740884
vn -0.8637166552621554 -0.0729706588775804 -0.49866704559828967
vn 0.8647568024935518 0.054106942342186014 0.49926757488495827
vn -0.8647568024935518 -0.054106942342186014 -0.49926757488495827
usemtl material_0_0
f 1//1 2//2 3//3
f 2//2 1//1 4//2
f 4//2 1//1 5//2
f 5//2 1//1 6//2
f 6//2 1//1 7//4
f 6//2 7//4 8//5
f 6//2 8//5 9//2
f 9//2 8//5 10//2
f 9//2 10//2 11//2
f 12//6 13//6 14//6
f 13//6 15//7 14//6
f 14//6 15//7 16//6
f 15//7 17//8 16//6
f 17//8 18//9 16//6
f 16//6 18//9 19//6
f 19//6 18//9 20//6
f 20//6 18//9 21//6
f 22//10 21//6 18//9
f 23//11 24//11 25//11
f 24//11 23//11 26//11
f 26//11 23//11 27//11
f 26//11 27//11 28//11
f 29//12 30//12 31//12
f 30//12 32//12 31//12
f 31//12 32//12 33//12
f 34//12 33//12 32//12
f 35//11 36//11 37//11
f 36//11 35//11 38//11
f 36//11 38//11 39//11
f 36//11 39//11 40//11
f 41//12 42//12 43//12
f 42//12 44//12 43//12
f 44//12 45//12 43//12
f 46//12 43//12 45//12
f 47//13 1//1 3//3
f 1//1 47//13 48//14
f 49//15 50//16 18//9
f 22//10 18//9 50//16
f 51//17 8//5 7//4
f 8//5 51//17 52//18
f 53//19 54//20 15//7
f 17//8 15//7 54//20
f 55//21 56//22 57//21
f 56//22 55//21 58//22
f 58//22 55//21 59//21
f 58//22 59//21 60//23
f 58//22 60//23 61//24
f 62//25 63//26 64//27
f 63//26 65//28 64//27
f 65//28 66//28 64//27
f 64//27 66//28 67//27
f 68//28 67//27 66//28
f 58//22 69//29 56//22
f 69//29 58//22 70//29
f 70//29 58//22 71//29
f 71//29 58//22 61//24
f 71//29 61//24 72//30
f 73//31 62//25 74//32
f 62//25 64//27 74//32
f 74//32 64//27 75//32
f 75//32 64//27 76//32
f 67//27 76//32 64//27
f 77//6 78//33 79//34
f 78//33 77//6 80//6
f 78//33 80//6 81//6
f 78//33 81//6 82//6
f 78//33 82//6 83//35
f 83//35 82//6 84//36
f 84//36 82//6 85//6
f 85//6 82//6 86//6
f 84//36 85//6 87//6
f 88//2 89//2 90//37
f 91//2 92//2 89//2
f 89//2 92//2 90//37
f 90//37 92//2 93//38
f 93//38 92//2 94//39
f 92//2 95//2 94//39
f 95//2 96//2 94//39
f 96//2 97//2 94//39
f 98//40 94//39 97//2
f 99//41 48//14 47//13
f 48//14 99//41 100//42
f 101//43 102//44 49//15
f 50//16 49//15 102//44
f 103//45 52//18 51//17
f 52//18 103//45 104//46
f 105//47 106//48 53//19
f 54//20 53//19 106//48
f 107//49 61//24 60//23
f 61//24 107//49 108//50
f 109//51 110//52 62//25
f 63//26 62//25 110//52
f 108//50 72//30 61//24
f 72//30 108//50 111//53
f 112//54 109//51 73//31
f 62//25 73//31 109//51
f 84//36 113//55 83//35
f 113//55 84//36 114//56
f 115//57 90//37 116//58
f 93//38 116//58 90//37
f 78//33 117//59 79//34
f 117//59 78//33 118//60
f 119//61 94//39 120//62
f 98//40 120//62 94//39
f 121//63 100//42 99//41
f 100//42 121//63 122//64
f 123//65 124//66 101//43
f 102//44 101//43 124//66
f 125//67 104//46 103//45
f 104//46 125//67 126//68
f 127//69 128//70 105//47
f 106//48 105//47 128//70
f 129//71 108//50 107//49
f 108//50 129//71 130//72
f 131//73 132//74 109//51
f 110//52 109//51 132//74
f 108//50 133//75 111//53
f 133//75 108//50 130//72
f 131//73 109//51 134//76
f 112//54 134//76 109//51
f 114//56 135//77 113//55
f 135//77 114//56 136//78
f 137//79 115//57 138//80
f 116//58 138//80 115//57
f 118//60 139//81 117//59
f 139//81 118//60 140//82
f 141//83 119//61 142//84
f 120//62 142//84 119//61
f 143//85 122//64 121//63
f 122//64 143//85 144//86
f 145//87 146//88 123//65
f 124//66 123//65 146//88
f 147//89 126//68 125//67
f 126//68 147//89 148//90
f 149//91 150//92 127//69
f 128//70 127//69 150//92
f 151//93 130//72 129//71
f 130//72 151//93 152//94
f 153//95 154//96 131//73
f 132//74 131//73 154//96
f 130//72 155//97 133//75
f 155//97 130//72 152//94
f 153//95 131//73 156//98
f 134//76 156//98 131//73
f 136//78 157//99 135//77
f 157//99 136//78 158//100
f 159//101 137//79 160//102
f 138//80 160//102 137//79
f 140//82 161//103 139//81
f 161//103 140//82 162//104
f 163//105 141//83 164//106
f 142//84 164//106 141//83
f 165//107 144//86 143//85
f 144//86 165//107 166//108
f 167//109 168//110 145//87
f 146//88 145//87 168//110
f 169//111 148//90 147//89
f 148//90 169//111 170//112
f 171//113 172//114 149//91
f 150//92 149//91 172//114
f 173//115 152//94 151//93
f 152//94 173//115 174//116
f 175//117 176//118 153//95
f 154//96 153//95 176//118
f 152//94 177//119 155//97
f 177//119 152//94 174//116
f 175//117 153//95 178//120
f 156//98 178//120 153//95
f 158//100 179//121 157//99
f 179//121 158//100 180//122
f 181//123 159//101 182//124
f 160//102 182//124 159//101
f 162//104 183//125 161//103
f 183//125 162//104 184//126
f 185//127 163//105 186//128
f 164//106 186//128 163//105
f 187//129 166//108 165//107
f 166//108 187//129 188//130
f 189//131 190//132 167//109
f 168//110 167//109 190//132
f 191//133 170//112 169//111
f 170//112 191//133 192//134
f 193//135 194//136 171//113
f 172//114 171//113 194//136
f 195//137 174//116 173//115
f 174//116 195//137 196//138
f 197//139 198//140 175//117
f 176//118 175//117 198//140
f 174//116 199//141 177//119
f 199//141 174//116 196//138
f 197//139 175//117 200//142
f 178//120 200//142 175//117
f 180//122 201//143 179//121
f 201//143 180//122 202//144
f 203//145 181//123 204//146
f 182//124 204//146 181//123
f 184//126 205//147 183//125
f 205//147 184//126 206//148
f 207//149 185//127 208//150
f 186//128 208//150 185//127
f 209//151 188//130 187//129
f 188//130 209//151 191//133
f 191//133 209//151 210//151
f 191//133 210//151 192//134
f 193//135 211//152 194//136
f 211//152 212//152 194//136
f 194//136 212//152 189//131
f 190//132 189//131 212//152
f 213//153 196//138 195//137
f 196//138 213//153 214//154
f 215//155 216//156 197//139
f 198//140 197//139 216//156
f 196//138 217//157 199//141
f 217//157 196//138 214//154
f 215//155 197//139 218//158
f 200//142 218//158 197//139
f 202//144 219//159 201//143
f 219//159 202//144 220//160
f 221//161 203//145 222//162
f 204//146 222//162 203//145
f 206//148 223//163 205//147
f 223//163 206//148 224//164
f 225//165 207//149 226//166
f 208//150 226//166 207//149
f 224//164 227//167 223//163
f 227//167 224//164 219//159
f 227//167 219//159 228//167
f 228//167 219//159 220//160
f 221//161 222//162 229//168
f 229//168 222//162 230//168
f 222//162 225//165 230//168
f 226//166 230//168 225//165
