# SSTK version 0.8.0
# 15
mtllib original-15.mtl
o #ID158
v -0.009057 0.351466 0.477958
v -0.006016 0.351066 0.475491
v -0.009057 0.351466 0.475491
v -0.006016 0.351066 0.477958
v -0.006016 0.351066 0.477958
v -0.009057 0.351466 0.477958
v -0.006016 0.351066 0.475491
v -0.009057 0.351466 0.475491
v -0.012097 0.351066 0.477958
v -0.012097 0.351066 0.475491
v -0.012097 0.351066 0.477958
v -0.012097 0.351066 0.475491
v -0.003183 0.349892 0.477958
v -0.003183 0.349892 0.475491
v -0.003183 0.349892 0.477958
v -0.003183 0.349892 0.475491
v -0.014931 0.349892 0.477958
v -0.014931 0.349892 0.475491
v -0.014931 0.349892 0.477958
v -0.014931 0.349892 0.475491
v -0.000749 0.348025 0.475491
v -0.000749 0.348025 0.477958
v -0.000749 0.348025 0.477958
v -0.000749 0.348025 0.475491
v -0.017364 0.348025 0.475491
v -0.017364 0.348025 0.477958
v -0.017364 0.348025 0.477958
v -0.017364 0.348025 0.475491
v 0.001118 0.345592 0.477958
v 0.001118 0.345592 0.475491
v 0.001118 0.345592 0.477958
v 0.001118 0.345592 0.475491
v -0.019231 0.345592 0.475491
v -0.019231 0.345592 0.477958
v -0.019231 0.345592 0.475491
v -0.019231 0.345592 0.477958
v 0.002291 0.342758 0.477958
v 0.002291 0.342758 0.475491
v 0.002291 0.342758 0.477958
v 0.002291 0.342758 0.475491
v -0.020405 0.342758 0.475491
v -0.020405 0.342758 0.477958
v -0.020405 0.342758 0.475491
v -0.020405 0.342758 0.477958
v 0.002692 0.339718 0.477958
v 0.002692 0.339718 0.475491
v 0.002692 0.339718 0.477958
v 0.002692 0.339718 0.475491
v -0.020805 0.339718 0.475491
v -0.020805 0.339718 0.477958
v -0.020805 0.339718 0.475491
v -0.020805 0.339718 0.477958
v 0.002291 0.336677 0.477958
v 0.002291 0.336677 0.475491
v 0.002291 0.336677 0.477958
v 0.002291 0.336677 0.475491
v -0.020405 0.336677 0.475491
v -0.020405 0.336677 0.477958
v -0.020405 0.336677 0.475491
v -0.020405 0.336677 0.477958
v 0.001118 0.333844 0.477958
v 0.001118 0.333844 0.475491
v 0.001118 0.333844 0.477958
v 0.001118 0.333844 0.475491
v -0.019231 0.333844 0.475491
v -0.019231 0.333844 0.477958
v -0.019231 0.333844 0.475491
v -0.019231 0.333844 0.477958
v -0.000749 0.331410 0.477958
v -0.000749 0.331410 0.475491
v -0.000749 0.331410 0.477958
v -0.000749 0.331410 0.475491
v -0.017364 0.331410 0.475491
v -0.017364 0.331410 0.477958
v -0.017364 0.331410 0.475491
v -0.017364 0.331410 0.477958
v -0.003183 0.329543 0.477958
v -0.003183 0.329543 0.475491
v -0.003183 0.329543 0.477958
v -0.003183 0.329543 0.475491
v -0.014931 0.329543 0.477958
v -0.014931 0.329543 0.475491
v -0.014931 0.329543 0.477958
v -0.014931 0.329543 0.475491
v -0.006016 0.328370 0.475491
v -0.006016 0.328370 0.477958
v -0.006016 0.328370 0.477958
v -0.006016 0.328370 0.475491
v -0.012097 0.328370 0.477958
v -0.012097 0.328370 0.475491
v -0.012097 0.328370 0.477958
v -0.012097 0.328370 0.475491
v -0.009057 0.327969 0.475491
v -0.009057 0.327969 0.477958
v -0.009057 0.327969 0.477958
v -0.009057 0.327969 0.475491
vt -0.0222262 0.0088625
vt -0.02534433 0.006354167
vt -0.0222262 0.006354167
vt -0.02534433 0.0088625
vt -0.0294385 0.0088625
vt -0.03255663 0.006354167
vt -0.0294385 0.006354167
vt -0.03255663 0.0088625
vt -0.01339298 0.006354167
vt -0.01651111 0.0088625
vt -0.01651111 0.006354167
vt -0.01339298 0.0088625
vt -0.03453836 0.0088625
vt -0.03765649 0.006354167
vt -0.03453836 0.006354167
vt -0.03765649 0.0088625
vt -0.003540801 0.0088625
vt -0.006658927 0.006354167
vt -0.003540801 0.006354167
vt -0.006658927 0.0088625
vt -0.03717825 0.006354167
vt -0.04029637 0.0088625
vt -0.04029637 0.006354167
vt -0.03717825 0.0088625
vt 0.006658927 0.006354167
vt 0.003540801 0.0088625
vt 0.003540801 0.006354167
vt 0.006658927 0.0088625
vt 0.01651111 0.006354167
vt 0.01339298 0.0088625
vt 0.01339298 0.006354167
vt 0.01651111 0.0088625
vt 0.02534433 0.006354167
vt 0.0222262 0.0088625
vt 0.0222262 0.006354167
vt 0.02534433 0.0088625
vt 0.03255663 0.006354167
vt 0.0294385 0.0088625
vt 0.0294385 0.006354167
vt 0.03255663 0.0088625
vt 0.03765649 0.006354167
vt 0.03453836 0.0088625
vt 0.03453836 0.006354167
vt 0.03765649 0.0088625
vt 0.04029637 0.006354167
vt 0.03717825 0.0088625
vt 0.03717825 0.006354167
vt 0.04029637 0.0088625
vn 0 1 0
vn 0.25881900959356163 0.9659258358036645 0
vn -0.25881900959356163 0.9659258358036645 0
vn 0.5000000016387101 0.866025402838329 0
vn -0.5000000016387101 0.866025402838329 0
vn 0.7071067811865476 0.7071067811865476 0
vn -0.7071067811865476 0.7071067811865476 0
vn 0.866025402838329 0.5000000016387101 0
vn -0.866025402838329 0.5000000016387101 0
vn 0.9659258358036645 0.25881900959356163 0
vn -0.9659258358036645 0.25881900959356163 0
vn 1 0 0
vn -1 0 0
vn 0.9659258358036645 -0.25881900959356163 0
vn -0.9659258358036645 -0.25881900959356163 0
vn 0.866025402838329 -0.5000000016387101 0
vn -0.866025402838329 -0.5000000016387101 0
vn 0.7071067811865476 -0.7071067811865476 0
vn -0.7071067811865476 -0.7071067811865476 0
vn 0.5000000016387101 -0.866025402838329 0
vn -0.5000000016387101 -0.866025402838329 0
vn 0.25881900959356163 -0.9659258358036645 0
vn -0.25881900959356163 -0.9659258358036645 0
vn 0 -1 0
usemtl material_0_0
f 1/1/1 2/2/2 3/3/1
f 2/2/2 1/1/1 4/4/2
f 9/5/3 3/6/1 10/7/3
f 3/6/1 9/5/3 1/8/1
f 2/9/2 13/10/4 14/11/4
f 13/10/4 2/9/2 4/12/2
f 17/13/5 10/14/3 18/15/5
f 10/14/3 17/13/5 9/16/3
f 13/17/4 21/18/6 14/19/4
f 21/18/6 13/17/4 22/20/6
f 25/21/7 17/22/5 18/23/5
f 17/22/5 25/21/7 26/24/7
f 21/25/6 29/26/8 30/27/8
f 29/26/8 21/25/6 22/28/6
f 26/22/7 33/21/9 34/24/9
f 33/21/9 26/22/7 25/23/7
f 30/29/8 37/30/10 38/31/10
f 37/30/10 30/29/8 29/32/8
f 34/16/9 41/15/11 42/13/11
f 41/15/11 34/16/9 33/14/9
f 38/33/10 45/34/12 46/35/12
f 45/34/12 38/33/10 37/36/10
f 42/8/11 49/7/13 50/5/13
f 49/7/13 42/8/11 41/6/11
f 46/37/12 53/38/14 54/39/14
f 53/38/14 46/37/12 45/40/12
f 50/4/13 57/3/15 58/1/15
f 57/3/15 50/4/13 49/2/13
f 54/41/14 61/42/16 62/43/16
f 61/42/16 54/41/14 53/44/14
f 58/10/15 65/9/17 66/12/17
f 65/9/17 58/10/15 57/11/15
f 62/45/16 69/46/18 70/47/18
f 69/46/18 62/45/16 61/48/16
f 66/20/17 73/19/19 74/17/19
f 73/19/19 66/20/17 65/18/17
f 70/45/18 77/46/20 78/47/20
f 77/46/20 70/45/18 69/48/18
f 81/28/21 73/27/19 82/25/21
f 73/27/19 81/28/21 74/26/19
f 77/44/20 85/43/22 78/41/20
f 85/43/22 77/44/20 86/42/22
f 89/32/23 82/31/21 90/29/23
f 82/31/21 89/32/23 81/30/21
f 86/40/22 93/39/24 85/37/22
f 93/39/24 86/40/22 94/38/24
f 93/33/24 89/34/23 90/35/23
f 89/34/23 93/33/24 94/36/24
usemtl material_1_0
f 5//23 6//24 7//23
f 8//24 7//23 6//24
f 6//24 11//22 8//24
f 12//22 8//24 11//22
f 5//23 7//23 15//21
f 16//21 15//21 7//23
f 11//22 19//20 12//22
f 20//20 12//22 19//20
f 23//19 15//21 24//19
f 16//21 24//19 15//21
f 27//18 28//18 19//20
f 20//20 19//20 28//18
f 23//19 24//19 31//17
f 32//17 31//17 24//19
f 28//18 27//18 35//16
f 36//16 35//16 27//18
f 31//17 32//17 39//15
f 40//15 39//15 32//17
f 35//16 36//16 43//14
f 44//14 43//14 36//16
f 39//15 40//15 47//13
f 48//13 47//13 40//15
f 43//14 44//14 51//12
f 52//12 51//12 44//14
f 47//13 48//13 55//11
f 56//11 55//11 48//13
f 51//12 52//12 59//10
f 60//10 59//10 52//12
f 55//11 56//11 63//9
f 64//9 63//9 56//11
f 59//10 60//10 67//8
f 68//8 67//8 60//10
f 63//9 64//9 71//7
f 72//7 71//7 64//9
f 67//8 68//8 75//6
f 76//6 75//6 68//8
f 71//7 72//7 79//5
f 80//5 79//5 72//7
f 76//6 83//4 75//6
f 84//4 75//6 83//4
f 87//3 79//5 88//3
f 80//5 88//3 79//5
f 83//4 91//2 84//4
f 92//2 84//4 91//2
f 95//1 87//3 96//1
f 88//3 96//1 87//3
f 95//1 96//1 91//2
f 92//2 91//2 96//1
