# SSTK version 0.8.0
# 11
mtllib original-11.mtl
o #ID122
v -0.015887 0.351548 0.469241
v -0.015654 0.341486 0.469241
v -0.015887 0.339718 0.469241
v -0.012592 0.352913 0.469241
v -0.014972 0.343133 0.469241
v -0.013887 0.344548 0.469241
v -0.012472 0.345633 0.469241
v -0.009057 0.353379 0.469241
v -0.010825 0.346315 0.469241
v -0.009057 0.346548 0.469241
v -0.005521 0.352913 0.469241
v -0.007289 0.346315 0.469241
v -0.005642 0.345633 0.469241
v -0.004227 0.344548 0.469241
v -0.002226 0.351548 0.469241
v -0.003141 0.343133 0.469241
v -0.002459 0.341486 0.469241
v -0.002226 0.339718 0.469241
v 0.000603 0.349377 0.469241
v -0.002226 0.327887 0.469241
v 0.000603 0.330058 0.469241
v 0.002774 0.346548 0.469241
v 0.002774 0.332887 0.469241
v 0.004139 0.343253 0.469241
v 0.004139 0.336182 0.469241
v 0.004604 0.339718 0.469241
v -0.022252 0.343253 0.469241
v -0.022252 0.336182 0.469241
v -0.022718 0.339718 0.469241
v -0.020887 0.346548 0.469241
v -0.020887 0.332887 0.469241
v -0.018716 0.349377 0.469241
v -0.018716 0.330058 0.469241
v -0.015887 0.327887 0.469241
v -0.015654 0.337950 0.469241
v -0.012592 0.326522 0.469241
v -0.014972 0.336303 0.469241
v -0.013887 0.334888 0.469241
v -0.012472 0.333802 0.469241
v -0.009057 0.326057 0.469241
v -0.010825 0.333120 0.469241
v -0.009057 0.332887 0.469241
v -0.007289 0.333120 0.469241
v -0.005521 0.326522 0.469241
v -0.005642 0.333802 0.469241
v -0.004227 0.334888 0.469241
v -0.003141 0.336303 0.469241
v -0.002459 0.337950 0.469241
v -0.002226 0.339718 0.469241
v -0.002459 0.337950 0.469241
v -0.002226 0.327887 0.469241
v -0.003141 0.336303 0.469241
v -0.004227 0.334888 0.469241
v -0.005521 0.326522 0.469241
v -0.005642 0.333802 0.469241
v -0.007289 0.333120 0.469241
v -0.009057 0.326057 0.469241
v -0.009057 0.332887 0.469241
v -0.010825 0.333120 0.469241
v -0.012472 0.333802 0.469241
v -0.012592 0.326522 0.469241
v -0.013887 0.334888 0.469241
v -0.014972 0.336303 0.469241
v -0.015654 0.337950 0.469241
v -0.015887 0.327887 0.469241
v -0.015887 0.339718 0.469241
v -0.015887 0.351548 0.469241
v -0.018716 0.330058 0.469241
v -0.018716 0.349377 0.469241
v -0.020887 0.332887 0.469241
v -0.020887 0.346548 0.469241
v -0.022252 0.336182 0.469241
v -0.022252 0.343253 0.469241
v -0.022718 0.339718 0.469241
v 0.004604 0.339718 0.469241
v 0.004139 0.343253 0.469241
v 0.004139 0.336182 0.469241
v 0.002774 0.332887 0.469241
v 0.002774 0.346548 0.469241
v 0.000603 0.330058 0.469241
v 0.000603 0.349377 0.469241
v -0.002226 0.351548 0.469241
v -0.002459 0.341486 0.469241
v -0.003141 0.343133 0.469241
v -0.004227 0.344548 0.469241
v -0.005521 0.352913 0.469241
v -0.005642 0.345633 0.469241
v -0.007289 0.346315 0.469241
v -0.009057 0.346548 0.469241
v -0.009057 0.353379 0.469241
v -0.010825 0.346315 0.469241
v -0.012472 0.345633 0.469241
v -0.012592 0.352913 0.469241
v -0.013887 0.344548 0.469241
v -0.014972 0.343133 0.469241
v -0.015654 0.341486 0.469241
v -0.003183 0.329543 0.475491
v 0.000603 0.330058 0.469241
v -0.002226 0.327887 0.469241
v -0.000749 0.331410 0.475491
v -0.000749 0.331410 0.475491
v -0.003183 0.329543 0.475491
v 0.000603 0.330058 0.469241
v -0.002226 0.327887 0.469241
v -0.006016 0.328370 0.475491
v -0.005521 0.326522 0.469241
v -0.006016 0.328370 0.475491
v -0.005521 0.326522 0.469241
v -0.009057 0.327969 0.475491
v -0.009057 0.326057 0.469241
v -0.009057 0.327969 0.475491
v -0.009057 0.326057 0.469241
v -0.012097 0.328370 0.475491
v -0.012592 0.326522 0.469241
v -0.012592 0.326522 0.469241
v -0.012097 0.328370 0.475491
v -0.014931 0.329543 0.475491
v -0.015887 0.327887 0.469241
v -0.014931 0.329543 0.475491
v -0.015887 0.327887 0.469241
v -0.017364 0.331410 0.475491
v -0.018716 0.330058 0.469241
v -0.017364 0.331410 0.475491
v -0.018716 0.330058 0.469241
v -0.020887 0.332887 0.469241
v -0.019231 0.333844 0.475491
v -0.019231 0.333844 0.475491
v -0.020887 0.332887 0.469241
v -0.022252 0.336182 0.469241
v -0.020405 0.336677 0.475491
v -0.020405 0.336677 0.475491
v -0.022252 0.336182 0.469241
v -0.022718 0.339718 0.469241
v -0.020805 0.339718 0.475491
v -0.020805 0.339718 0.475491
v -0.022718 0.339718 0.469241
v -0.020405 0.342758 0.475491
v -0.022252 0.343253 0.469241
v -0.022252 0.343253 0.469241
v -0.020405 0.342758 0.475491
v -0.019231 0.345592 0.475491
v -0.020887 0.346548 0.469241
v -0.020887 0.346548 0.469241
v -0.019231 0.345592 0.475491
v -0.017364 0.348025 0.475491
v -0.018716 0.349377 0.469241
v -0.018716 0.349377 0.469241
v -0.017364 0.348025 0.475491
v -0.014931 0.349892 0.475491
v -0.015887 0.351548 0.469241
v -0.014931 0.349892 0.475491
v -0.015887 0.351548 0.469241
v -0.012097 0.351066 0.475491
v -0.012592 0.352913 0.469241
v -0.012097 0.351066 0.475491
v -0.012592 0.352913 0.469241
v -0.009057 0.353379 0.469241
v -0.009057 0.353379 0.469241
v -0.009057 0.351679 0.475491
v -0.005521 0.352913 0.469241
v -0.005521 0.352913 0.469241
v -0.009057 0.351679 0.475491
v -0.003183 0.349892 0.475491
v -0.002226 0.351548 0.469241
v -0.006016 0.351066 0.475491
v -0.006016 0.351066 0.475491
v -0.003183 0.349892 0.475491
v -0.002226 0.351548 0.469241
v -0.000749 0.348025 0.475491
v 0.000603 0.349377 0.469241
v -0.000749 0.348025 0.475491
v 0.000603 0.349377 0.469241
v 0.002774 0.346548 0.469241
v 0.001118 0.345592 0.475491
v 0.002774 0.346548 0.469241
v 0.001118 0.345592 0.475491
v 0.004139 0.343253 0.469241
v 0.002291 0.342758 0.475491
v 0.004139 0.343253 0.469241
v 0.002291 0.342758 0.475491
v 0.004604 0.339718 0.469241
v 0.002692 0.339718 0.475491
v 0.004604 0.339718 0.469241
v 0.002692 0.339718 0.475491
v 0.002291 0.336677 0.475491
v 0.004139 0.336182 0.469241
v 0.002291 0.336677 0.475491
v 0.004139 0.336182 0.469241
v 0.001118 0.333844 0.475491
v 0.002774 0.332887 0.469241
v 0.001118 0.333844 0.475491
v 0.002774 0.332887 0.469241
v -0.009057 0.327757 0.475491
v -0.009057 0.327757 0.475491
v -0.009057 0.351466 0.475491
v -0.009057 0.351466 0.475491
vt -0.02068333 0.0396559
vt -0.02091996 0.02942513
vt -0.02068333 0.02762777
vt -0.02403307 0.04104341
vt -0.02161371 0.0311
vt -0.02271731 0.03253824
vt -0.02415555 0.03364184
vt -0.02762777 0.04151666
vt -0.02583042 0.03433559
vt -0.02762777 0.03457222
vt -0.03122248 0.04104341
vt -0.02942513 0.03433559
vt -0.0311 0.03364184
vt -0.03253824 0.03253824
vt -0.03457222 0.0396559
vt -0.03364184 0.0311
vt -0.03433559 0.02942513
vt -0.03457222 0.02762777
vt -0.0374487 0.0374487
vt -0.03457222 0.01559964
vt -0.0374487 0.01780685
vt -0.0396559 0.03457222
vt -0.0396559 0.02068333
vt -0.04104341 0.03122248
vt -0.04104341 0.02403307
vt -0.04151666 0.02762777
vt -0.01421214 0.03122248
vt -0.01421214 0.02403307
vt -0.01373889 0.02762777
vt -0.01559964 0.03457222
vt -0.01559964 0.02068333
vt -0.01780685 0.0374487
vt -0.01780685 0.01780685
vt -0.02068333 0.01559964
vt -0.02091996 0.02583042
vt -0.02403307 0.01421214
vt -0.02161371 0.02415555
vt -0.02271731 0.02271731
vt -0.02415555 0.02161371
vt -0.02762777 0.01373889
vt -0.02583042 0.02091996
vt -0.02762777 0.02068333
vt -0.02942513 0.02091996
vt -0.03122248 0.01421214
vt -0.0311 0.02161371
vt -0.03253824 0.02271731
vt -0.03364184 0.02415555
vt -0.03433559 0.02583042
vt -0.04029637 0.004122993
vt -0.03717825 0.004122993
vt -0.04055017 -0.002517179
vt -0.03692445 -0.002517179
vt -0.03765649 0.006983329
vt -0.03453836 0.006983329
vt -0.03791029 0.0003431575
vt -0.03428456 0.0003431575
vt -0.03255663 0.009547837
vt -0.0294385 0.009547837
vt -0.03281043 0.002907665
vt -0.0291847 0.002907665
vt -0.0219724 0.005001577
vt -0.02559813 0.005001577
vt -0.0222262 0.01164175
vt -0.01651111 0.01312237
vt -0.01339298 0.01312237
vt -0.01676491 0.006482196
vt -0.01313918 0.006482196
vt -0.006658927 0.01388879
vt -0.003540801 0.01388879
vt -0.006912727 0.007248621
vt -0.003287 0.007248621
vt 0.006658927 0.01388879
vt 0.006912727 0.007248621
vt 0.003540801 0.01388879
vt 0.003287 0.007248621
vt 0.01651111 0.01312237
vt 0.01676491 0.006482196
vt 0.01339298 0.01312237
vt 0.01313918 0.006482196
vt 0.02534433 0.01164175
vt 0.02559813 0.005001577
vt 0.0222262 0.01164175
vt 0.0219724 0.005001577
vt 0.03281043 0.002907665
vt 0.0291847 0.002907665
vt 0.03255663 0.009547837
vt 0.0294385 0.009547837
vt 0.03791029 0.0003431575
vt 0.03428456 0.0003431575
vt 0.03765649 0.006983329
vt 0.03453836 0.006983329
vt 0.04055017 -0.002517179
vt 0.03692445 -0.002517179
vt 0.04029637 0.004122993
vt 0.03717825 0.004122993
vt 0.03717825 0.001161755
vt 0.04029637 0.001161755
vt 0.03692445 -0.005478417
vt 0.04055017 -0.005478417
vt 0.03453836 -0.001698582
vt 0.03765649 -0.001698582
vt 0.03428456 -0.008338754
vt 0.03791029 -0.008338754
vt 0.03281043 -0.01090326
vt 0.0291847 -0.01090326
vt 0.0294385 -0.004263089
vt 0.02559813 -0.01165634
vt 0.0219724 -0.01165634
vt 0.022198 -0.005075177
vt 0.01339298 -0.00783762
vt 0.01651111 -0.00783762
vt 0.01313918 -0.01447779
vt 0.01676491 -0.01447779
vt 0.003540801 -0.008604045
vt 0.006658927 -0.008604045
vt 0.003287 -0.01524422
vt 0.006912727 -0.01524422
vt -0.006912727 -0.01524422
vt -0.006658927 -0.008604045
vt -0.003287 -0.01524422
vt -0.003540801 -0.008604045
vt -0.01676491 -0.01447779
vt -0.01651111 -0.00783762
vt -0.01313918 -0.01447779
vt -0.01339298 -0.00783762
vt -0.02559813 -0.01299717
vt -0.02534433 -0.006357001
vt -0.0219724 -0.01299717
vt -0.0222262 -0.006357001
vt -0.03255663 -0.004263089
vt -0.0294385 -0.004263089
vt -0.03281043 -0.01090326
vt -0.0291847 -0.01090326
vt -0.03765649 -0.001698582
vt -0.03453836 -0.001698582
vt -0.03791029 -0.008338754
vt -0.03428456 -0.008338754
vt -0.04029637 0.001161755
vt -0.03717825 0.001161755
vt -0.04055017 -0.005478417
vt -0.03692445 -0.005478417
vt -0.01546724 0.006354167
vt -0.01373889 -3.432557e-15
vt -0.01568333 0.006354167
vt -0.02087353 0.01145244
vt -0.02436863 0.004876272
vt -0.02402715 0.01145244
vt 0.03528597 -0.00907911
vt 0.03179086 -0.002502939
vt 0.03494448 -0.002502939
vt -0.03978831 -0.008073192
vt -0.03957222 -0.008073192
vt -0.04104341 -0.0153737
vt 0.02534433 -0.006357001
vt 0.02559813 -0.01299717
vt 0.0222262 -0.006357001
vn 0 0 -1
vn 0.6761565705569791 -0.6761565705569791 0.29261678725809587
vn 0.47811489419646447 -0.8281192899479816 0.292616796448109
vn 0.24749048705984886 -0.9236470517066996 0.29261678470040015
vn 0.6785794873493037 -0.7023765869056566 0.2149348959929881
vn 0.0006394654785140768 -0.9575142678276859 0.2883851903103074
vn -0.24749048705984886 -0.9236470517066996 0.29261678470040015
vn -0.11106919915318844 -0.37867659711290147 0.9188403929945955
vn -0.47811489419646447 -0.8281192899479816 0.292616796448109
vn -0.6761565705569791 -0.6761565705569791 0.29261678725809587
vn -0.8281192899479816 -0.47811489419646447 0.292616796448109
vn -0.9236470517066996 -0.24749048705984886 0.29261678470040015
vn -0.9562297894574328 0 0.2926167967738589
vn -0.9236470517066996 0.24749048705984886 0.29261678470040015
vn -0.8281192899479816 0.47811489419646447 0.292616796448109
vn -0.6761565705569791 0.6761565705569791 0.29261678725809587
vn -0.47811489419646447 0.8281192899479816 0.292616796448109
vn -0.11106919915318844 0.37867659711290147 0.9188403929945955
vn -0.24749048705984886 0.9236470517066996 0.29261678470040015
vn -0.008941644052601215 0.9618868056585143 0.27330170160775835
vn 0.25555410554794045 0.9236658200522818 0.28554080619893535
vn 0.1879520990490498 0.29987709848276134 0.9352794952679206
vn 0.24749048705984886 0.9236470517066996 0.29261678470040015
vn 0.47811489419646447 0.8281192899479816 0.292616796448109
vn 0.6761565705569791 0.6761565705569791 0.29261678725809587
vn 0.8281192899479816 0.47811489419646447 0.292616796448109
vn 0.9236470517066996 0.24749048705984886 0.29261678470040015
vn 0.9562297894574328 0 0.2926167967738589
vn 0.9236470517066996 -0.24749048705984886 0.29261678470040015
vn 0.8281192899479816 -0.47811489419646447 0.292616796448109
vn 0.26536478779394984 -0.26717248771080054 0.92639105738856
vn 0.6782564890235481 0.5320118913902734 0.506884091796925
vn 0 0 1
vn -0.47811489419646447 0.8281192899479816 -0.292616796448109
vn -0.6761565705569791 0.6761565705569791 -0.29261678725809587
vn -0.24749048705984886 0.9236470517066996 -0.29261678470040015
vn -0.6785794873493037 0.7023765869056566 -0.2149348959929881
vn -0.0006394654785140768 0.9575142678276859 -0.2883851903103074
vn 0.11106919915318844 0.37867659711290147 -0.9188403929945955
vn 0.24749048705984886 0.9236470517066996 -0.29261678470040015
vn 0.47811489419646447 0.8281192899479816 -0.292616796448109
vn 0.6761565705569791 0.6761565705569791 -0.29261678725809587
vn 0.8281192899479816 0.47811489419646447 -0.292616796448109
vn 0.9236470517066996 0.24749048705984886 -0.29261678470040015
vn 0.9562297894574328 0 -0.2926167967738589
vn 0.9236470517066996 -0.24749048705984886 -0.29261678470040015
vn 0.8281192899479816 -0.47811489419646447 -0.292616796448109
vn 0.6761565705569791 -0.6761565705569791 -0.29261678725809587
vn 0.47811489419646447 -0.8281192899479816 -0.292616796448109
vn 0.11106919915318844 -0.37867659711290147 -0.9188403929945955
vn 0.24749048705984886 -0.9236470517066996 -0.29261678470040015
vn 0.008941644052601215 -0.9618868056585143 -0.27330170160775835
vn -0.1879520990490498 -0.29987709848276134 -0.9352794952679206
vn -0.25555410554794045 -0.9236658200522818 -0.28554080619893535
vn -0.47811489419646447 -0.8281192899479816 -0.292616796448109
vn -0.24749048705984886 -0.9236470517066996 -0.29261678470040015
vn -0.6761565705569791 -0.6761565705569791 -0.29261678725809587
vn -0.8281192899479816 -0.47811489419646447 -0.292616796448109
vn -0.9236470517066996 -0.24749048705984886 -0.29261678470040015
vn -0.9562297894574328 0 -0.2926167967738589
vn -0.9236470517066996 0.24749048705984886 -0.29261678470040015
vn -0.8281192899479816 0.47811489419646447 -0.292616796448109
vn -0.26536478779394984 0.26717248771080054 -0.92639105738856
vn -0.6782564890235481 -0.5320118913902734 -0.506884091796925
usemtl material_0_0
f 49//33 50//33 51//33
f 50//33 52//33 51//33
f 52//33 53//33 51//33
f 51//33 53//33 54//33
f 53//33 55//33 54//33
f 55//33 56//33 54//33
f 54//33 56//33 57//33
f 56//33 58//33 57//33
f 58//33 59//33 57//33
f 59//33 60//33 57//33
f 57//33 60//33 61//33
f 60//33 62//33 61//33
f 62//33 63//33 61//33
f 63//33 64//33 61//33
f 61//33 64//33 65//33
f 64//33 66//33 65//33
f 66//33 67//33 65//33
f 65//33 67//33 68//33
f 67//33 69//33 68//33
f 68//33 69//33 70//33
f 69//33 71//33 70//33
f 70//33 71//33 72//33
f 71//33 73//33 72//33
f 74//33 72//33 73//33
f 75//33 76//33 77//33
f 77//33 76//33 78//33
f 76//33 79//33 78//33
f 78//33 79//33 80//33
f 79//33 81//33 80//33
f 80//33 81//33 51//33
f 51//33 81//33 49//33
f 81//33 82//33 49//33
f 49//33 82//33 83//33
f 83//33 82//33 84//33
f 84//33 82//33 85//33
f 82//33 86//33 85//33
f 85//33 86//33 87//33
f 87//33 86//33 88//33
f 88//33 86//33 89//33
f 86//33 90//33 89//33
f 89//33 90//33 91//33
f 91//33 90//33 92//33
f 90//33 93//33 92//33
f 92//33 93//33 94//33
f 94//33 93//33 95//33
f 95//33 93//33 96//33
f 93//33 67//33 96//33
f 66//33 96//33 67//33
f 97//34 98//35 99//34
f 98//35 97//34 100//35
f 105//36 99//34 106//36
f 99//34 105//36 97//34
f 109//37 106//36 110//38
f 106//36 109//37 105//36
f 113//39 110//38 114//40
f 117//41 114//40 118//41
f 114//40 117//41 113//39
f 121//42 118//41 122//42
f 118//41 121//42 117//41
f 125//43 121//42 122//42
f 121//42 125//43 126//43
f 129//44 126//43 125//43
f 126//43 129//44 130//44
f 133//45 130//44 129//44
f 130//44 133//45 134//45
f 133//45 137//46 134//45
f 137//46 133//45 138//46
f 138//46 141//47 137//46
f 141//47 138//46 142//47
f 142//47 145//48 141//47
f 145//48 142//47 146//48
f 149//49 146//48 150//49
f 146//48 149//49 145//48
f 153//50 150//49 154//51
f 150//49 153//50 149//49
f 153//50 154//51 157//52
f 159//53 157//52 160//54
f 163//55 160//54 164//55
f 160//54 163//55 165//56
f 169//57 164//55 170//57
f 164//55 169//57 163//55
f 169//57 173//58 174//58
f 173//58 169//57 170//57
f 174//58 177//59 178//59
f 177//59 174//58 173//58
f 178//59 181//60 182//60
f 181//60 178//59 177//59
f 185//61 181//60 186//61
f 181//60 185//61 182//60
f 189//62 186//61 190//62
f 186//61 189//62 185//61
f 100//35 190//62 98//35
f 190//62 100//35 189//62
f 109//37 110//38 193//63
f 193//63 110//38 113//39
f 159//53 153//50 157//52
f 160//54 195//64 159//53
f 195//64 160//54 165//56
usemtl material_1_0
f 1/1/1 2/2/1 3/3/1
f 2/2/1 1/1/1 4/4/1
f 2/2/1 4/4/1 5/5/1
f 5/5/1 4/4/1 6/6/1
f 6/6/1 4/4/1 7/7/1
f 7/7/1 4/4/1 8/8/1
f 7/7/1 8/8/1 9/9/1
f 9/9/1 8/8/1 10/10/1
f 10/10/1 8/8/1 11/11/1
f 10/10/1 11/11/1 12/12/1
f 12/12/1 11/11/1 13/13/1
f 13/13/1 11/11/1 14/14/1
f 14/14/1 11/11/1 15/15/1
f 14/14/1 15/15/1 16/16/1
f 16/16/1 15/15/1 17/17/1
f 17/17/1 15/15/1 18/18/1
f 18/18/1 15/15/1 19/19/1
f 18/18/1 19/19/1 20/20/1
f 20/20/1 19/19/1 21/21/1
f 21/21/1 19/19/1 22/22/1
f 21/21/1 22/22/1 23/23/1
f 23/23/1 22/22/1 24/24/1
f 23/23/1 24/24/1 25/25/1
f 25/25/1 24/24/1 26/26/1
f 27/27/1 28/28/1 29/29/1
f 28/28/1 27/27/1 30/30/1
f 28/28/1 30/30/1 31/31/1
f 31/31/1 30/30/1 32/32/1
f 31/31/1 32/32/1 33/33/1
f 33/33/1 32/32/1 1/1/1
f 33/33/1 1/1/1 34/34/1
f 34/34/1 1/1/1 3/3/1
f 34/34/1 3/3/1 35/35/1
f 34/34/1 35/35/1 36/36/1
f 36/36/1 35/35/1 37/37/1
f 36/36/1 37/37/1 38/38/1
f 36/36/1 38/38/1 39/39/1
f 36/36/1 39/39/1 40/40/1
f 40/40/1 39/39/1 41/41/1
f 40/40/1 41/41/1 42/42/1
f 40/40/1 42/42/1 43/43/1
f 40/40/1 43/43/1 44/44/1
f 44/44/1 43/43/1 45/45/1
f 44/44/1 45/45/1 46/46/1
f 44/44/1 46/46/1 20/20/1
f 20/20/1 46/46/1 47/47/1
f 20/20/1 47/47/1 48/48/1
f 20/20/1 48/48/1 18/18/1
f 101/49/2 102/50/3 103/51/2
f 104/52/3 103/51/2 102/50/3
f 102/53/3 107/54/4 104/55/3
f 108/56/4 104/55/3 107/54/4
f 107/57/4 111/58/5 108/59/4
f 112/60/6 108/59/4 111/58/5
f 115/61/7 112/62/6 116/63/8
f 116/64/8 119/65/9 115/66/7
f 120/67/9 115/66/7 119/65/9
f 119/68/9 123/69/10 120/70/9
f 124/71/10 120/70/9 123/69/10
f 127/72/11 128/73/11 123/74/10
f 124/75/10 123/74/10 128/73/11
f 131/76/12 132/77/12 127/78/11
f 128/79/11 127/78/11 132/77/12
f 135/80/13 136/81/13 131/82/12
f 132/83/12 131/82/12 136/81/13
f 139/84/14 136/85/13 140/86/14
f 135/87/13 140/86/14 136/85/13
f 143/88/15 139/89/14 144/90/15
f 140/91/14 144/90/15 139/89/14
f 147/92/16 143/93/15 148/94/16
f 144/95/15 148/94/16 143/93/15
f 148/96/16 151/97/17 147/98/16
f 152/99/17 147/98/16 151/97/17
f 151/100/17 155/101/18 152/102/17
f 156/103/19 152/102/17 155/101/18
f 158/104/20 156/105/19 155/106/18
f 161/107/21 158/108/20 162/109/22
f 166/110/23 167/111/24 161/112/21
f 168/113/24 161/112/21 167/111/24
f 167/114/24 171/115/25 168/116/24
f 172/117/25 168/116/24 171/115/25
f 172/118/25 171/119/25 175/120/26
f 176/121/26 175/120/26 171/119/25
f 175/122/26 176/123/26 179/124/27
f 180/125/27 179/124/27 176/123/26
f 179/126/27 180/127/27 183/128/28
f 184/129/28 183/128/28 180/127/27
f 184/130/28 187/131/29 183/132/28
f 188/133/29 183/132/28 187/131/29
f 187/134/29 191/135/30 188/136/29
f 192/137/30 188/136/29 191/135/30
f 191/138/30 101/139/2 192/140/30
f 103/141/2 192/140/30 101/139/2
f 194/142/31 112/143/6 111/144/5
f 116/145/8 112/146/6 194/147/31
f 158/148/20 155/149/18 162/150/22
f 162/151/22 196/152/32 161/153/21
f 166/154/23 161/155/21 196/156/32
