# SSTK version 0.8.0
# 17
mtllib original-17.mtl
o #ID174
v -0.009057 0.351466 0.475491
v -0.009057 0.351679 0.475491
v -0.012097 0.351066 0.475491
v -0.012097 0.351066 0.475491
v -0.009057 0.351679 0.475491
v -0.009057 0.351466 0.475491
vt 0.02453632 0.03916522
vt 0.02762777 0.03978831
vt 0.02762777 0.03957222
vn 0 0 1
vn 0.1879520990490498 0.29987709848276134 0.9352794952679206
vn -0.11106919915318844 0.37867659711290147 0.9188403929945955
vn 0.11106919915318844 -0.37867659711290147 -0.9188403929945955
vn -0.1879520990490498 -0.29987709848276134 -0.9352794952679206
vn 0 0 -1
usemtl material_0_0
f 1//1 2//2 3//3
usemtl material_1_0
f 4/1/4 5/2/5 6/3/6
