# SSTK version 0.8.0
# 65
mtllib original-65.mtl
o #ID376
v -0.140361 0.349312 0.510224
v -0.150968 0.349312 0.510224
v -0.145665 0.348614 0.510224
v -0.135419 0.351359 0.510224
v -0.155910 0.351359 0.510224
v -0.131175 0.354615 0.510224
v -0.160154 0.354615 0.510224
v -0.127919 0.358859 0.510224
v -0.163411 0.358859 0.510224
v -0.125872 0.363801 0.510224
v -0.165458 0.363801 0.510224
v -0.125174 0.369105 0.510224
v -0.166156 0.369105 0.510224
v -0.125872 0.374408 0.510224
v -0.165458 0.374408 0.510224
v -0.127919 0.379350 0.510224
v -0.163411 0.379350 0.510224
v -0.131175 0.383594 0.510224
v -0.160154 0.383594 0.510224
v -0.135419 0.386851 0.510224
v -0.155910 0.386851 0.510224
v -0.140361 0.388898 0.510224
v -0.150968 0.388898 0.510224
v -0.145665 0.389596 0.510224
vn 0 0 1
usemtl material_0_0
f 1//1 2//1 3//1
f 2//1 1//1 4//1
f 2//1 4//1 5//1
f 5//1 4//1 6//1
f 5//1 6//1 7//1
f 7//1 6//1 8//1
f 7//1 8//1 9//1
f 9//1 8//1 10//1
f 9//1 10//1 11//1
f 11//1 10//1 12//1
f 11//1 12//1 13//1
f 13//1 12//1 14//1
f 13//1 14//1 15//1
f 15//1 14//1 16//1
f 15//1 16//1 17//1
f 17//1 16//1 18//1
f 17//1 18//1 19//1
f 19//1 18//1 20//1
f 19//1 20//1 21//1
f 21//1 20//1 22//1
f 21//1 22//1 23//1
f 23//1 22//1 24//1
