# SSTK version 0.8.0
# 8
mtllib original-8.mtl
o #ID235
v 0.375443 0.809953 -0.370667
v 0.382626 -0.542467 -0.368118
v 0.375443 -0.542467 -0.370667
v 0.382626 0.809953 -0.368118
v 0.382626 0.809953 -0.368118
v 0.375443 0.809953 -0.370667
v 0.382626 -0.542467 -0.368118
v 0.375443 -0.542467 -0.370667
v 0.322002 0.809953 -0.386936
v 0.322002 -0.542467 -0.386936
v 0.322002 0.809953 -0.386936
v 0.322002 -0.542467 -0.386936
v 0.267878 0.809953 -0.400759
v 0.267878 -0.542467 -0.400759
v 0.267878 0.809953 -0.400759
v 0.267878 -0.542467 -0.400759
v 0.213181 0.809953 -0.412108
v 0.213181 -0.542467 -0.412108
v 0.213181 0.809953 -0.412108
v 0.213181 -0.542467 -0.412108
v 0.158025 0.809953 -0.420960
v 0.158025 -0.542467 -0.420960
v 0.158025 0.809953 -0.420960
v 0.158025 -0.542467 -0.420960
v 0.102523 0.809953 -0.427295
v 0.102523 -0.542467 -0.427295
v 0.102523 0.809953 -0.427295
v 0.102523 -0.542467 -0.427295
v 0.046791 0.809953 -0.431102
v 0.046791 -0.542467 -0.431102
v 0.046791 0.809953 -0.431102
v 0.046791 -0.542467 -0.431102
v -0.009057 0.809953 -0.432372
v -0.009057 -0.542467 -0.432372
v -0.009057 0.809953 -0.432372
v -0.009057 -0.542467 -0.432372
v -0.064904 0.809953 -0.431102
v -0.064904 -0.542467 -0.431102
v -0.064904 0.809953 -0.431102
v -0.064904 -0.542467 -0.431102
v -0.120636 0.809953 -0.427295
v -0.120636 -0.542467 -0.427295
v -0.120636 0.809953 -0.427295
v -0.120636 -0.542467 -0.427295
v -0.176138 0.809953 -0.420960
v -0.176138 -0.542467 -0.420960
v -0.176138 0.809953 -0.420960
v -0.176138 -0.542467 -0.420960
v -0.231294 0.809953 -0.412108
v -0.231294 -0.542467 -0.412108
v -0.231294 0.809953 -0.412108
v -0.231294 -0.542467 -0.412108
v -0.285991 0.809953 -0.400759
v -0.285991 -0.542467 -0.400759
v -0.285991 0.809953 -0.400759
v -0.285991 -0.542467 -0.400759
v -0.340116 0.809953 -0.386936
v -0.340116 -0.542467 -0.386936
v -0.340116 0.809953 -0.386936
v -0.340116 -0.542467 -0.386936
v -0.393557 0.809953 -0.370667
v -0.393557 -0.542467 -0.370667
v -0.393557 0.809953 -0.370667
v -0.393557 -0.542467 -0.370667
v -0.400740 0.809953 -0.368118
v -0.400740 -0.542467 -0.368118
v -0.400740 0.809953 -0.368118
v -0.400740 -0.542467 -0.368118
vn 0.31290230540673597 0 -0.9497853164116351
vn 0.33441008583617815 0 -0.9424276600838071
vn -0.33441008583617815 0 0.9424276600838071
vn -0.31290230540673597 0 0.9497853164116351
vn 0.2694128897486444 0 -0.9630247633562102
vn -0.2694128897486444 0 0.9630247633562102
vn 0.22536679756398323 0 -0.9742739894689555
vn -0.22536679756398323 0 0.9742739894689555
vn 0.1808548013221318 0 -0.9835098071899091
vn -0.1808548013221318 0 0.9835098071899091
vn 0.13596919525057913 0 -0.9907130653942694
vn -0.13596919525057913 0 0.9907130653942694
vn 0.09080254148654379 0 -0.9958689163035388
vn -0.09080254148654379 0 0.9958689163035388
vn 0.04544822978823345 0 -0.9989666953453032
vn -0.04544822978823345 0 0.9989666953453032
vn 0 0 -1
vn 0 0 1
vn -0.04544822978823345 0 -0.9989666953453032
vn 0.04544822978823345 0 0.9989666953453032
vn -0.09080254148654379 0 -0.9958689163035388
vn 0.09080254148654379 0 0.9958689163035388
vn -0.13596919525057913 0 -0.9907130653942694
vn 0.13596919525057913 0 0.9907130653942694
vn -0.1808548013221318 0 -0.9835098071899091
vn 0.1808548013221318 0 0.9835098071899091
vn -0.22536679756398323 0 -0.9742739894689555
vn 0.22536679756398323 0 0.9742739894689555
vn -0.2694128897486444 0 -0.9630247633562102
vn 0.2694128897486444 0 0.9630247633562102
vn -0.31290230540673597 0 -0.9497853164116351
vn 0.31290230540673597 0 0.9497853164116351
vn -0.33441008583617815 0 -0.9424276600838071
vn 0.33441008583617815 0 0.9424276600838071
usemtl material_0_0
f 1//1 2//2 3//1
f 2//2 1//1 4//2
f 5//3 6//4 7//3
f 8//4 7//3 6//4
f 9//5 3//1 10//5
f 3//1 9//5 1//1
f 6//4 11//6 8//4
f 12//6 8//4 11//6
f 13//7 10//5 14//7
f 10//5 13//7 9//5
f 11//6 15//8 12//6
f 16//8 12//6 15//8
f 17//9 14//7 18//9
f 14//7 17//9 13//7
f 15//8 19//10 16//8
f 20//10 16//8 19//10
f 21//11 18//9 22//11
f 18//9 21//11 17//9
f 19//10 23//12 20//10
f 24//12 20//10 23//12
f 25//13 22//11 26//13
f 22//11 25//13 21//11
f 23//12 27//14 24//12
f 28//14 24//12 27//14
f 29//15 26//13 30//15
f 26//13 29//15 25//13
f 27//14 31//16 28//14
f 32//16 28//14 31//16
f 33//17 30//15 34//17
f 30//15 33//17 29//15
f 31//16 35//18 32//16
f 36//18 32//16 35//18
f 37//19 34//17 38//19
f 34//17 37//19 33//17
f 35//18 39//20 36//18
f 40//20 36//18 39//20
f 41//21 38//19 42//21
f 38//19 41//21 37//19
f 39//20 43//22 40//20
f 44//22 40//20 43//22
f 45//23 42//21 46//23
f 42//21 45//23 41//21
f 43//22 47//24 44//22
f 48//24 44//22 47//24
f 49//25 46//23 50//25
f 46//23 49//25 45//23
f 47//24 51//26 48//24
f 52//26 48//24 51//26
f 53//27 50//25 54//27
f 50//25 53//27 49//25
f 51//26 55//28 52//26
f 56//28 52//26 55//28
f 57//29 54//27 58//29
f 54//27 57//29 53//27
f 55//28 59//30 56//28
f 60//30 56//28 59//30
f 61//31 58//29 62//31
f 58//29 61//31 57//29
f 59//30 63//32 60//30
f 64//32 60//30 63//32
f 65//33 62//31 66//33
f 62//31 65//33 61//31
f 63//32 67//34 64//32
f 68//34 64//32 67//34
