# SSTK version 0.8.0
# 28
mtllib original-28.mtl
o #ID96
v -0.009052 0.357037 0.472680
v -0.009051 0.357039 0.472680
v -0.009052 0.357039 0.472680
v -0.009051 0.357037 0.472680
v -0.009051 0.357037 0.472680
v -0.009052 0.357037 0.472680
v -0.009051 0.357039 0.472680
v -0.009052 0.357039 0.472680
vt 0.04501825 0.007094737
vt 0.05610945 0.02862584
vt 0.04501825 0.02862584
vt 0.05610945 0.007094737
vn 0 0 1
vn 0 0 -1
usemtl material_0_0
f 1/1/1 2/2/1 3/3/1
f 2/2/1 1/1/1 4/4/1
f 5/4/2 6/1/2 7/2/2
f 8/3/2 7/2/2 6/1/2
