# SSTK version 0.8.0
# 54
mtllib original-54.mtl
o #ID308
v -0.164984 0.388424 0.469241
v -0.169326 0.382766 0.517054
v -0.164984 0.388424 0.517054
v -0.169326 0.382766 0.469241
v -0.166368 0.381058 0.469241
v -0.169326 0.382766 0.517054
v -0.169326 0.382766 0.469241
v -0.163411 0.379350 0.517054
v -0.163411 0.379350 0.469241
v -0.163411 0.379350 0.510224
v -0.160154 0.383594 0.517054
v -0.169326 0.382766 0.517054
v -0.163411 0.379350 0.517054
v -0.164984 0.388424 0.517054
v -0.160154 0.383594 0.510224
v -0.164984 0.388424 0.517054
v -0.160154 0.383594 0.517054
v -0.164984 0.388424 0.469241
v -0.160154 0.383594 0.469241
v -0.162569 0.386009 0.469241
v -0.160154 0.383594 0.517054
v -0.160154 0.383594 0.510224
vn -0.7933533393698233 0.608761430209528 0
vn -0.5000000016387101 -0.866025402838329 0
vn 0.19509029708825978 -0.9807852853616915 0
vn -0.0879378963887244 -0.9961259590928881 0
vn 0 0 1
vn 0.7071067811865476 0.7071067811865476 0
vn 0.7933533393698233 -0.608761430209528 0
usemtl material_0_0
f 1//1 2//1 3//1
f 2//1 1//1 4//1
f 5//2 6//2 7//2
f 6//2 5//2 8//3
f 8//3 5//2 9//2
f 8//3 9//2 10//4
f 11//5 12//5 13//5
f 12//5 11//5 14//5
f 15//6 16//6 17//6
f 16//6 15//6 18//6
f 18//6 15//6 19//6
f 18//6 19//6 20//6
f 10//4 21//7 8//3
f 21//7 10//4 22//7
