# SSTK version 0.8.0
# 62
mtllib original-62.mtl
o #ID358
v -0.124961 0.381058 0.469241
v -0.128760 0.386009 0.510224
v -0.124961 0.381058 0.510224
v -0.128760 0.386009 0.469241
v -0.139477 0.346013 0.510224
v -0.151852 0.346013 0.510224
v -0.145665 0.345198 0.510224
v -0.133712 0.348401 0.510224
v -0.157618 0.348401 0.510224
v -0.145665 0.348614 0.510224
v -0.140361 0.349312 0.510224
v -0.128760 0.352200 0.510224
v -0.135419 0.351359 0.510224
v -0.131175 0.354615 0.510224
v -0.124961 0.357152 0.510224
v -0.127919 0.358859 0.510224
v -0.122573 0.362917 0.510224
v -0.125872 0.363801 0.510224
v -0.121758 0.369105 0.510224
v -0.125174 0.369105 0.510224
v -0.122573 0.375292 0.510224
v -0.125872 0.374408 0.510224
v -0.127919 0.379350 0.510224
v -0.124961 0.381058 0.510224
v -0.131175 0.383594 0.510224
v -0.128760 0.386009 0.510224
v -0.135419 0.386851 0.510224
v -0.133712 0.389808 0.510224
v -0.140361 0.388898 0.510224
v -0.145665 0.389596 0.510224
v -0.150968 0.349312 0.510224
v -0.162569 0.352200 0.510224
v -0.155910 0.351359 0.510224
v -0.160154 0.354615 0.510224
v -0.166368 0.357152 0.510224
v -0.163411 0.358859 0.510224
v -0.168757 0.362917 0.510224
v -0.165458 0.363801 0.510224
v -0.169571 0.369105 0.510224
v -0.166156 0.369105 0.510224
v -0.165458 0.374408 0.510224
v -0.168757 0.375292 0.510224
v -0.163411 0.379350 0.510224
v -0.166368 0.381058 0.510224
v -0.160154 0.383594 0.510224
v -0.162569 0.386009 0.510224
v -0.155910 0.386851 0.510224
v -0.157618 0.389808 0.510224
v -0.150968 0.388898 0.510224
v -0.139477 0.392197 0.510224
v -0.151852 0.392197 0.510224
v -0.145665 0.393011 0.510224
v -0.122573 0.375292 0.469241
v -0.122573 0.375292 0.510224
v -0.133712 0.389808 0.469241
v -0.133712 0.389808 0.510224
v -0.139477 0.392197 0.469241
v -0.139477 0.392197 0.510224
v -0.145665 0.393011 0.469241
v -0.145665 0.393011 0.510224
v -0.151852 0.392197 0.469241
v -0.151852 0.392197 0.510224
v -0.157618 0.389808 0.469241
v -0.157618 0.389808 0.510224
v -0.162569 0.386009 0.469241
v -0.162569 0.386009 0.510224
v -0.166368 0.381058 0.510224
v -0.166368 0.381058 0.469241
v -0.168757 0.375292 0.510224
v -0.168757 0.375292 0.469241
v -0.169571 0.369105 0.510224
v -0.169571 0.369105 0.469241
v -0.168757 0.362917 0.510224
v -0.168757 0.362917 0.469241
v -0.166368 0.357152 0.510224
v -0.166368 0.357152 0.469241
v -0.162569 0.352200 0.510224
v -0.162569 0.352200 0.469241
v -0.157618 0.348401 0.469241
v -0.157618 0.348401 0.510224
v -0.151852 0.346013 0.469241
v -0.151852 0.346013 0.510224
v -0.145665 0.345198 0.469241
v -0.145665 0.345198 0.510224
v -0.139477 0.346013 0.469241
v -0.139477 0.346013 0.510224
v -0.133712 0.348401 0.469241
v -0.133712 0.348401 0.510224
v -0.128760 0.352200 0.469241
v -0.128760 0.352200 0.510224
v -0.124961 0.357152 0.510224
v -0.124961 0.357152 0.469241
v -0.122573 0.362917 0.510224
v -0.122573 0.362917 0.469241
v -0.121758 0.369105 0.510224
v -0.121758 0.369105 0.469241
vn 0.866025402838329 0.5000000016387101 0
vn 0.7071067811865476 0.7071067811865476 0
vn 0 0 1
vn 0.9659258358036645 0.25881900959356163 0
vn 0.5000000016387101 0.866025402838329 0
vn 0.25881900959356163 0.9659258358036645 0
vn 0 1 0
vn -0.25881900959356163 0.9659258358036645 0
vn -0.5000000016387101 0.866025402838329 0
vn -0.7071067811865476 0.7071067811865476 0
vn -0.866025402838329 0.5000000016387101 0
vn -0.9659258358036645 0.25881900959356163 0
vn -1 0 0
vn -0.9659258358036645 -0.25881900959356163 0
vn -0.866025402838329 -0.5000000016387101 0
vn -0.7071067811865476 -0.7071067811865476 0
vn -0.5000000016387101 -0.866025402838329 0
vn -0.25881900959356163 -0.9659258358036645 0
vn 0 -1 0
vn 0.25881900959356163 -0.9659258358036645 0
vn 0.5000000016387101 -0.866025402838329 0
vn 0.7071067811865476 -0.7071067811865476 0
vn 0.866025402838329 -0.5000000016387101 0
vn 0.9659258358036645 -0.25881900959356163 0
vn 1 0 0
usemtl material_0_0
f 1//1 2//2 3//1
f 2//2 1//1 4//2
f 5//3 6//3 7//3
f 6//3 5//3 8//3
f 6//3 8//3 9//3
f 9//3 8//3 10//3
f 10//3 8//3 11//3
f 11//3 8//3 12//3
f 11//3 12//3 13//3
f 13//3 12//3 14//3
f 14//3 12//3 15//3
f 14//3 15//3 16//3
f 16//3 15//3 17//3
f 16//3 17//3 18//3
f 18//3 17//3 19//3
f 18//3 19//3 20//3
f 20//3 19//3 21//3
f 20//3 21//3 22//3
f 22//3 21//3 23//3
f 23//3 21//3 24//3
f 23//3 24//3 25//3
f 25//3 24//3 26//3
f 25//3 26//3 27//3
f 27//3 26//3 28//3
f 27//3 28//3 29//3
f 29//3 28//3 30//3
f 9//3 31//3 32//3
f 31//3 9//3 10//3
f 32//3 31//3 33//3
f 32//3 33//3 34//3
f 32//3 34//3 35//3
f 35//3 34//3 36//3
f 35//3 36//3 37//3
f 37//3 36//3 38//3
f 37//3 38//3 39//3
f 39//3 38//3 40//3
f 39//3 40//3 41//3
f 39//3 41//3 42//3
f 42//3 41//3 43//3
f 42//3 43//3 44//3
f 44//3 43//3 45//3
f 44//3 45//3 46//3
f 46//3 45//3 47//3
f 46//3 47//3 48//3
f 48//3 47//3 49//3
f 48//3 49//3 30//3
f 48//3 30//3 28//3
f 48//3 28//3 50//3
f 48//3 50//3 51//3
f 51//3 50//3 52//3
f 53//4 3//1 54//4
f 3//1 53//4 1//1
f 2//2 55//5 56//5
f 55//5 2//2 4//2
f 56//5 57//6 58//6
f 57//6 56//5 55//5
f 58//6 59//7 60//7
f 59//7 58//6 57//6
f 60//7 61//8 62//8
f 61//8 60//7 59//7
f 62//8 63//9 64//9
f 63//9 62//8 61//8
f 64//9 65//10 66//10
f 65//10 64//9 63//9
f 65//10 67//11 66//10
f 67//11 65//10 68//11
f 68//11 69//12 67//11
f 69//12 68//11 70//12
f 70//12 71//13 69//12
f 71//13 70//12 72//13
f 72//13 73//14 71//13
f 73//14 72//13 74//14
f 74//14 75//15 73//14
f 75//15 74//14 76//15
f 76//15 77//16 75//15
f 77//16 76//15 78//16
f 79//17 77//16 78//16
f 77//16 79//17 80//17
f 81//18 80//17 79//17
f 80//17 81//18 82//18
f 83//19 82//18 81//18
f 82//18 83//19 84//19
f 85//20 84//19 83//19
f 84//19 85//20 86//20
f 87//21 86//20 85//20
f 86//20 87//21 88//21
f 89//22 88//21 87//21
f 88//21 89//22 90//22
f 89//22 91//23 90//22
f 91//23 89//22 92//23
f 92//23 93//24 91//23
f 93//24 92//23 94//24
f 94//24 95//25 93//24
f 95//25 94//24 96//25
f 96//25 54//4 95//25
f 54//4 96//25 53//4
