# SSTK version 0.8.0
# 81
mtllib original-81.mtl
o #ID376
v 0.132855 0.349312 0.510224
v 0.122248 0.349312 0.510224
v 0.127551 0.348614 0.510224
v 0.137797 0.351359 0.510224
v 0.117306 0.351359 0.510224
v 0.142041 0.354615 0.510224
v 0.113062 0.354615 0.510224
v 0.145297 0.358859 0.510224
v 0.109805 0.358859 0.510224
v 0.147344 0.363801 0.510224
v 0.107758 0.363801 0.510224
v 0.148042 0.369105 0.510224
v 0.107060 0.369105 0.510224
v 0.147344 0.374408 0.510224
v 0.107758 0.374408 0.510224
v 0.145297 0.379350 0.510224
v 0.109805 0.379350 0.510224
v 0.142041 0.383594 0.510224
v 0.113062 0.383594 0.510224
v 0.137797 0.386851 0.510224
v 0.117306 0.386851 0.510224
v 0.132855 0.388898 0.510224
v 0.122248 0.388898 0.510224
v 0.127551 0.389596 0.510224
vn 0 0 1
usemtl material_0_0
f 1//1 2//1 3//1
f 2//1 1//1 4//1
f 2//1 4//1 5//1
f 5//1 4//1 6//1
f 5//1 6//1 7//1
f 7//1 6//1 8//1
f 7//1 8//1 9//1
f 9//1 8//1 10//1
f 9//1 10//1 11//1
f 11//1 10//1 12//1
f 11//1 12//1 13//1
f 13//1 12//1 14//1
f 13//1 14//1 15//1
f 15//1 14//1 16//1
f 15//1 16//1 17//1
f 17//1 16//1 18//1
f 17//1 18//1 19//1
f 19//1 18//1 20//1
f 19//1 20//1 21//1
f 21//1 20//1 22//1
f 21//1 22//1 23//1
f 23//1 22//1 24//1
