# SSTK version 0.8.0
# 69
mtllib original-69.mtl
o #ID302
v 0.132855 0.349312 0.510224
v 0.134623 0.342714 0.517054
v 0.132855 0.349312 0.517054
v 0.134623 0.342714 0.469241
v 0.132855 0.349312 0.469241
v 0.133739 0.346013 0.469241
v 0.141212 0.345444 0.517054
v 0.132855 0.349312 0.517054
v 0.134623 0.342714 0.517054
v 0.137797 0.351359 0.517054
v 0.137797 0.351359 0.517054
v 0.132855 0.349312 0.510224
v 0.132855 0.349312 0.517054
v 0.137797 0.351359 0.510224
v 0.141212 0.345444 0.469241
v 0.134623 0.342714 0.517054
v 0.134623 0.342714 0.469241
v 0.141212 0.345444 0.517054
v 0.141212 0.345444 0.469241
v 0.141212 0.345444 0.517054
v 0.137797 0.351359 0.469241
v 0.139504 0.348401 0.469241
vn -0.9659258358036645 -0.25881900959356163 0
vn 0 0 1
vn 0.3214395053927488 0.9469301158865235 0
vn -0.38268341623423263 0.9238795391929066 0
vn 0.574219428223368 0.8187014402398645 0
vn 0.38268341623423263 -0.9238795391929066 0
vn 0.866025402838329 0.5000000016387101 0
usemtl material_0_0
f 1//1 2//1 3//1
f 2//1 1//1 4//1
f 4//1 1//1 5//1
f 4//1 5//1 6//1
f 7//2 8//2 9//2
f 8//2 7//2 10//2
f 11//3 12//4 13//4
f 12//4 11//3 14//5
f 15//6 16//6 17//6
f 16//6 15//6 18//6
f 19//7 11//3 20//7
f 11//3 19//7 14//5
f 14//5 19//7 21//7
f 21//7 19//7 22//7
