# SSTK version 0.8.0
# 58
mtllib original-58.mtl
o #ID332
v -0.151852 0.346013 0.469241
v -0.145665 0.348614 0.469241
v -0.145665 0.345198 0.469241
v -0.150968 0.349312 0.469241
v -0.152736 0.342714 0.469241
v -0.145665 0.345198 0.469241
v -0.145665 0.341783 0.469241
v -0.151852 0.346013 0.469241
v -0.151852 0.346013 0.469241
v -0.139477 0.346013 0.469241
v -0.145665 0.345198 0.469241
v -0.157618 0.348401 0.469241
v -0.133712 0.348401 0.469241
v -0.145665 0.348614 0.469241
v -0.150968 0.349312 0.469241
v -0.162569 0.352200 0.469241
v -0.155910 0.351359 0.469241
v -0.160154 0.354615 0.469241
v -0.166368 0.357152 0.469241
v -0.163411 0.358859 0.469241
v -0.168757 0.362917 0.469241
v -0.165458 0.363801 0.469241
v -0.169571 0.369105 0.469241
v -0.166156 0.369105 0.469241
v -0.168757 0.375292 0.469241
v -0.165458 0.374408 0.469241
v -0.163411 0.379350 0.469241
v -0.166368 0.381058 0.469241
v -0.160154 0.383594 0.469241
v -0.162569 0.386009 0.469241
v -0.155910 0.386851 0.469241
v -0.157618 0.389808 0.469241
v -0.150968 0.388898 0.469241
v -0.145665 0.389596 0.469241
v -0.140361 0.349312 0.469241
v -0.128760 0.352200 0.469241
v -0.135419 0.351359 0.469241
v -0.131175 0.354615 0.469241
v -0.124961 0.357152 0.469241
v -0.127919 0.358859 0.469241
v -0.122573 0.362917 0.469241
v -0.125872 0.363801 0.469241
v -0.121758 0.369105 0.469241
v -0.125174 0.369105 0.469241
v -0.125872 0.374408 0.469241
v -0.122573 0.375292 0.469241
v -0.127919 0.379350 0.469241
v -0.124961 0.381058 0.469241
v -0.131175 0.383594 0.469241
v -0.128760 0.386009 0.469241
v -0.135419 0.386851 0.469241
v -0.133712 0.389808 0.469241
v -0.140361 0.388898 0.469241
v -0.151852 0.392197 0.469241
v -0.139477 0.392197 0.469241
v -0.145665 0.393011 0.469241
v -0.145665 0.348614 0.510224
v -0.150968 0.349312 0.469241
v -0.150968 0.349312 0.510224
v -0.145665 0.348614 0.469241
v -0.124961 0.381058 0.469241
v -0.119274 0.376176 0.469241
v -0.122573 0.375292 0.469241
v -0.122004 0.382766 0.469241
v -0.127919 0.379350 0.469241
v -0.122573 0.375292 0.469241
v -0.125872 0.374408 0.469241
v -0.124961 0.381058 0.469241
v -0.122573 0.362917 0.469241
v -0.118343 0.369105 0.469241
v -0.119274 0.362033 0.469241
v -0.121758 0.369105 0.469241
v -0.125872 0.363801 0.469241
v -0.121758 0.369105 0.469241
v -0.122573 0.362917 0.469241
v -0.125174 0.369105 0.469241
v -0.128760 0.352200 0.469241
v -0.122004 0.355444 0.469241
v -0.126346 0.349786 0.469241
v -0.124961 0.357152 0.469241
v -0.131175 0.354615 0.469241
v -0.124961 0.357152 0.469241
v -0.128760 0.352200 0.469241
v -0.127919 0.358859 0.469241
v -0.139477 0.346013 0.469241
v -0.132004 0.345444 0.469241
v -0.138593 0.342714 0.469241
v -0.133712 0.348401 0.469241
v -0.140361 0.349312 0.469241
v -0.133712 0.348401 0.469241
v -0.139477 0.346013 0.469241
v -0.135419 0.351359 0.469241
v -0.162569 0.352200 0.469241
v -0.155910 0.351359 0.469241
v -0.157618 0.348401 0.469241
v -0.160154 0.354615 0.469241
v -0.164984 0.349786 0.469241
v -0.157618 0.348401 0.469241
v -0.159326 0.345444 0.469241
v -0.162569 0.352200 0.469241
v -0.168757 0.362917 0.469241
v -0.163411 0.358859 0.469241
v -0.166368 0.357152 0.469241
v -0.165458 0.363801 0.469241
v -0.172055 0.362033 0.469241
v -0.166368 0.357152 0.469241
v -0.169326 0.355444 0.469241
v -0.168757 0.362917 0.469241
v -0.172055 0.376176 0.469241
v -0.169571 0.369105 0.469241
v -0.172986 0.369105 0.469241
v -0.168757 0.375292 0.469241
v -0.168757 0.375292 0.469241
v -0.166156 0.369105 0.469241
v -0.169571 0.369105 0.469241
v -0.165458 0.374408 0.469241
v -0.166368 0.381058 0.469241
v -0.160154 0.383594 0.469241
v -0.163411 0.379350 0.469241
v -0.162569 0.386009 0.469241
v -0.169326 0.382766 0.469241
v -0.162569 0.386009 0.469241
v -0.166368 0.381058 0.469241
v -0.164984 0.388424 0.469241
v -0.159326 0.392766 0.469241
v -0.151852 0.392197 0.469241
v -0.157618 0.389808 0.469241
v -0.152736 0.395495 0.469241
v -0.157618 0.389808 0.469241
v -0.150968 0.388898 0.469241
v -0.155910 0.386851 0.469241
v -0.151852 0.392197 0.469241
v -0.145665 0.393011 0.469241
v -0.138593 0.395495 0.469241
v -0.139477 0.392197 0.469241
v -0.145665 0.396426 0.469241
v -0.145665 0.389596 0.469241
v -0.139477 0.392197 0.469241
v -0.140361 0.388898 0.469241
v -0.145665 0.393011 0.469241
v -0.135419 0.386851 0.469241
v -0.128760 0.386009 0.469241
v -0.131175 0.383594 0.469241
v -0.133712 0.389808 0.469241
v -0.133712 0.389808 0.469241
v -0.126346 0.388424 0.469241
v -0.128760 0.386009 0.469241
v -0.132004 0.392766 0.469241
v -0.140361 0.349312 0.469241
v -0.145665 0.348614 0.510224
v -0.145665 0.348614 0.469241
v -0.140361 0.349312 0.510224
v -0.150968 0.349312 0.510224
v -0.155910 0.351359 0.469241
v -0.155910 0.351359 0.510224
v -0.150968 0.349312 0.469241
v -0.163411 0.379350 0.469241
v -0.165458 0.374408 0.510224
v -0.163411 0.379350 0.510224
v -0.165458 0.374408 0.469241
v -0.160154 0.383594 0.469241
v -0.163411 0.379350 0.510224
v -0.160154 0.383594 0.510224
v -0.163411 0.379350 0.469241
v -0.155910 0.386851 0.510224
v -0.160154 0.383594 0.469241
v -0.160154 0.383594 0.510224
v -0.155910 0.386851 0.469241
v -0.150968 0.388898 0.469241
v -0.155910 0.386851 0.510224
v -0.155910 0.386851 0.469241
v -0.150968 0.388898 0.510224
v -0.145665 0.389596 0.469241
v -0.150968 0.388898 0.510224
v -0.150968 0.388898 0.469241
v -0.145665 0.389596 0.510224
v -0.140361 0.388898 0.469241
v -0.145665 0.389596 0.510224
v -0.145665 0.389596 0.469241
v -0.140361 0.388898 0.510224
v -0.135419 0.386851 0.469241
v -0.140361 0.388898 0.510224
v -0.140361 0.388898 0.469241
v -0.135419 0.386851 0.510224
v -0.131175 0.383594 0.469241
v -0.135419 0.386851 0.510224
v -0.135419 0.386851 0.469241
v -0.131175 0.383594 0.510224
v -0.131175 0.383594 0.469241
v -0.127919 0.379350 0.510224
v -0.131175 0.383594 0.510224
v -0.127919 0.379350 0.469241
v -0.125872 0.374408 0.469241
v -0.127919 0.379350 0.510224
v -0.125872 0.374408 0.510224
v -0.127919 0.379350 0.469241
v -0.125872 0.374408 0.469241
v -0.125174 0.369105 0.510224
v -0.125872 0.374408 0.510224
v -0.125174 0.369105 0.469241
v -0.125174 0.369105 0.469241
v -0.125872 0.363801 0.510224
v -0.125174 0.369105 0.510224
v -0.125872 0.363801 0.469241
v -0.125872 0.363801 0.469241
v -0.127919 0.358859 0.510224
v -0.125872 0.363801 0.510224
v -0.127919 0.358859 0.469241
v -0.127919 0.358859 0.469241
v -0.131175 0.354615 0.510224
v -0.127919 0.358859 0.510224
v -0.131175 0.354615 0.469241
v -0.131175 0.354615 0.510224
v -0.135419 0.351359 0.469241
v -0.135419 0.351359 0.510224
v -0.131175 0.354615 0.469241
v -0.135419 0.351359 0.510224
v -0.140361 0.349312 0.469241
v -0.140361 0.349312 0.510224
v -0.135419 0.351359 0.469241
v -0.155910 0.351359 0.510224
v -0.160154 0.354615 0.469241
v -0.160154 0.354615 0.510224
v -0.155910 0.351359 0.469241
v -0.160154 0.354615 0.469241
v -0.163411 0.358859 0.510224
v -0.160154 0.354615 0.510224
v -0.163411 0.358859 0.469241
v -0.165458 0.363801 0.469241
v -0.163411 0.358859 0.510224
v -0.165458 0.363801 0.510224
v -0.163411 0.358859 0.469241
v -0.166156 0.369105 0.469241
v -0.165458 0.363801 0.510224
v -0.166156 0.369105 0.510224
v -0.165458 0.363801 0.469241
v -0.165458 0.374408 0.469241
v -0.166156 0.369105 0.510224
v -0.165458 0.374408 0.510224
v -0.166156 0.369105 0.469241
vn 0 0 -1
vn 0.1305261948688555 0.9914448610250887 0
vn 0.1305261948688555 -0.9914448610250887 0
vn 0.38268341623423263 0.9238795391929066 0
vn -0.9238795391929066 0.38268341623423263 0
vn -0.7933533393698233 0.608761430209528 0
vn -0.608761430209528 0.7933533393698233 0
vn 0.38268341623423263 -0.9238795391929066 0
vn -0.1305261948688555 -0.9914448610250887 0
vn -0.38268341623423263 -0.9238795391929066 0
vn -0.608761430209528 -0.7933533393698233 0
vn -0.7933533393698233 -0.608761430209528 0
vn 0.9238795391929066 0.38268341623423263 0
vn -0.9914448610250887 -0.1305261948688555 0
vn -0.9914448610250887 0.1305261948688555 0
vn -0.38268341623423263 0.9238795391929066 0
vn 0.608761430209528 0.7933533393698233 0
vn 0.7933533393698233 0.608761430209528 0
vn -0.9238795391929066 -0.38268341623423263 0
usemtl material_0_0
f 1//1 2//1 3//1
f 2//1 1//1 4//1
f 5//1 6//1 7//1
f 6//1 5//1 8//1
f 9//1 10//1 11//1
f 10//1 9//1 12//1
f 10//1 12//1 13//1
f 13//1 12//1 14//1
f 14//1 12//1 15//1
f 15//1 12//1 16//1
f 15//1 16//1 17//1
f 17//1 16//1 18//1
f 18//1 16//1 19//1
f 18//1 19//1 20//1
f 20//1 19//1 21//1
f 20//1 21//1 22//1
f 22//1 21//1 23//1
f 22//1 23//1 24//1
f 24//1 23//1 25//1
f 24//1 25//1 26//1
f 26//1 25//1 27//1
f 27//1 25//1 28//1
f 27//1 28//1 29//1
f 29//1 28//1 30//1
f 29//1 30//1 31//1
f 31//1 30//1 32//1
f 31//1 32//1 33//1
f 33//1 32//1 34//1
f 13//1 35//1 36//1
f 35//1 13//1 14//1
f 36//1 35//1 37//1
f 36//1 37//1 38//1
f 36//1 38//1 39//1
f 39//1 38//1 40//1
f 39//1 40//1 41//1
f 41//1 40//1 42//1
f 41//1 42//1 43//1
f 43//1 42//1 44//1
f 43//1 44//1 45//1
f 43//1 45//1 46//1
f 46//1 45//1 47//1
f 46//1 47//1 48//1
f 48//1 47//1 49//1
f 48//1 49//1 50//1
f 50//1 49//1 51//1
f 50//1 51//1 52//1
f 52//1 51//1 53//1
f 52//1 53//1 34//1
f 52//1 34//1 32//1
f 52//1 32//1 54//1
f 52//1 54//1 55//1
f 55//1 54//1 56//1
f 57//2 58//2 59//2
f 58//2 57//2 60//2
f 15//1 35//1 14//1
f 35//1 15//1 17//1
f 35//1 17//1 37//1
f 37//1 17//1 18//1
f 37//1 18//1 38//1
f 38//1 18//1 20//1
f 38//1 20//1 40//1
f 40//1 20//1 22//1
f 40//1 22//1 42//1
f 42//1 22//1 24//1
f 42//1 24//1 44//1
f 44//1 24//1 26//1
f 44//1 26//1 45//1
f 45//1 26//1 27//1
f 45//1 27//1 47//1
f 47//1 27//1 29//1
f 47//1 29//1 49//1
f 49//1 29//1 31//1
f 49//1 31//1 51//1
f 51//1 31//1 33//1
f 51//1 33//1 53//1
f 53//1 33//1 34//1
f 61//1 62//1 63//1
f 62//1 61//1 64//1
f 65//1 66//1 67//1
f 66//1 65//1 68//1
f 69//1 70//1 71//1
f 70//1 69//1 72//1
f 73//1 74//1 75//1
f 74//1 73//1 76//1
f 77//1 78//1 79//1
f 78//1 77//1 80//1
f 81//1 82//1 83//1
f 82//1 81//1 84//1
f 85//1 86//1 87//1
f 86//1 85//1 88//1
f 89//1 90//1 91//1
f 90//1 89//1 92//1
f 93//1 94//1 95//1
f 94//1 93//1 96//1
f 97//1 98//1 99//1
f 98//1 97//1 100//1
f 101//1 102//1 103//1
f 102//1 101//1 104//1
f 105//1 106//1 107//1
f 106//1 105//1 108//1
f 109//1 110//1 111//1
f 110//1 109//1 112//1
f 113//1 114//1 115//1
f 114//1 113//1 116//1
f 117//1 118//1 119//1
f 118//1 117//1 120//1
f 121//1 122//1 123//1
f 122//1 121//1 124//1
f 125//1 126//1 127//1
f 126//1 125//1 128//1
f 129//1 130//1 131//1
f 130//1 129//1 132//1
f 133//1 134//1 135//1
f 134//1 133//1 136//1
f 137//1 138//1 139//1
f 138//1 137//1 140//1
f 141//1 142//1 143//1
f 142//1 141//1 144//1
f 145//1 146//1 147//1
f 146//1 145//1 148//1
f 149//3 150//3 151//3
f 150//3 149//3 152//3
f 153//4 154//4 155//4
f 154//4 153//4 156//4
f 157//5 158//5 159//5
f 158//5 157//5 160//5
f 161//6 162//6 163//6
f 162//6 161//6 164//6
f 165//7 166//7 167//7
f 166//7 165//7 168//7
f 169//8 170//8 171//8
f 170//8 169//8 172//8
f 173//3 174//3 175//3
f 174//3 173//3 176//3
f 177//9 178//9 179//9
f 178//9 177//9 180//9
f 181//10 182//10 183//10
f 182//10 181//10 184//10
f 185//11 186//11 187//11
f 186//11 185//11 188//11
f 189//12 190//12 191//12
f 190//12 189//12 192//12
f 193//13 194//13 195//13
f 194//13 193//13 196//13
f 197//14 198//14 199//14
f 198//14 197//14 200//14
f 201//15 202//15 203//15
f 202//15 201//15 204//15
f 205//5 206//5 207//5
f 206//5 205//5 208//5
f 209//6 210//6 211//6
f 210//6 209//6 212//6
f 213//7 214//7 215//7
f 214//7 213//7 216//7
f 217//16 218//16 219//16
f 218//16 217//16 220//16
f 221//17 222//17 223//17
f 222//17 221//17 224//17
f 225//18 226//18 227//18
f 226//18 225//18 228//18
f 229//19 230//19 231//19
f 230//19 229//19 232//19
f 233//14 234//14 235//14
f 234//14 233//14 236//14
f 237//15 238//15 239//15
f 238//15 237//15 240//15
