# SSTK version 0.8.0
# 42
mtllib original-42.mtl
o group_4/ID248#ID248
v 0.426033 -0.679075 -0.320378
v 0.428089 -0.542467 -0.303747
v 0.428089 -0.679075 -0.303747
v 0.426033 -0.542467 -0.320378
v 0.426033 -0.542467 -0.320378
v 0.426033 -0.679075 -0.320378
v 0.428089 -0.542467 -0.303747
v 0.428089 -0.679075 -0.303747
v 0.359785 -0.542467 0.332633
v 0.332463 -0.542467 -0.019709
v 0.332463 -0.542467 0.332633
v -0.443875 -0.542467 0.282008
v -0.446202 -0.542467 -0.303747
v -0.446202 -0.542467 0.264329
v -0.444147 -0.542467 -0.320378
v -0.438103 -0.542467 -0.336008
v -0.437051 -0.542467 0.298481
v -0.428436 -0.542467 -0.349697
v -0.426197 -0.542467 0.312627
v -0.415726 -0.542467 -0.360619
v -0.412050 -0.542467 0.323482
v -0.400740 -0.542467 -0.368118
v -0.395577 -0.542467 0.330306
v -0.393557 -0.542467 -0.370667
v -0.377898 -0.542467 0.332633
v -0.340116 -0.542467 -0.386936
v -0.350577 -0.542467 -0.019709
v -0.350577 -0.542467 0.332633
v -0.340555 -0.542467 -0.083370
v -0.318774 -0.542467 -0.144023
v -0.285991 -0.542467 -0.400759
v -0.286006 -0.542467 -0.199516
v -0.243415 -0.542467 -0.247881
v -0.231294 -0.542467 -0.412108
v -0.192511 -0.542467 -0.287402
v -0.176138 -0.542467 -0.420960
v -0.135099 -0.542467 -0.316678
v -0.120636 -0.542467 -0.427295
v -0.073216 -0.542467 -0.334669
v -0.064904 -0.542467 -0.431102
v -0.009057 -0.542467 -0.340737
v -0.009057 -0.542467 -0.432372
v 0.046791 -0.542467 -0.431102
v 0.055102 -0.542467 -0.334669
v 0.102523 -0.542467 -0.427295
v 0.116985 -0.542467 -0.316678
v 0.158025 -0.542467 -0.420960
v 0.174397 -0.542467 -0.287402
v 0.213181 -0.542467 -0.412108
v 0.225302 -0.542467 -0.247881
v 0.267878 -0.542467 -0.400759
v 0.267893 -0.542467 -0.199516
v 0.322002 -0.542467 -0.386936
v 0.300660 -0.542467 -0.144023
v 0.322441 -0.542467 -0.083370
v 0.375443 -0.542467 -0.370667
v 0.377463 -0.542467 0.330306
v 0.382626 -0.542467 -0.368118
v 0.393937 -0.542467 0.323482
v 0.397613 -0.542467 -0.360619
v 0.408083 -0.542467 0.312627
v 0.410322 -0.542467 -0.349697
v 0.418938 -0.542467 0.298481
v 0.419990 -0.542467 -0.336008
v 0.425762 -0.542467 0.282008
v 0.426033 -0.542467 -0.320378
v 0.428089 -0.542467 0.264329
v 0.428089 -0.542467 -0.303747
v 0.428089 -0.542467 -0.303747
v 0.428089 -0.542467 0.264329
v 0.426033 -0.542467 -0.320378
v 0.425762 -0.542467 0.282008
v 0.419990 -0.542467 -0.336008
v 0.418938 -0.542467 0.298481
v 0.410322 -0.542467 -0.349697
v 0.408083 -0.542467 0.312627
v 0.397613 -0.542467 -0.360619
v 0.393937 -0.542467 0.323482
v 0.382626 -0.542467 -0.368118
v 0.377463 -0.542467 0.330306
v 0.375443 -0.542467 -0.370667
v 0.359785 -0.542467 0.332633
v 0.332463 -0.542467 -0.019709
v 0.322441 -0.542467 -0.083370
v 0.322002 -0.542467 -0.386936
v 0.300660 -0.542467 -0.144023
v 0.267893 -0.542467 -0.199516
v 0.267878 -0.542467 -0.400759
v 0.225302 -0.542467 -0.247881
v 0.213181 -0.542467 -0.412108
v 0.174397 -0.542467 -0.287402
v 0.158025 -0.542467 -0.420960
v 0.116985 -0.542467 -0.316678
v 0.102523 -0.542467 -0.427295
v 0.055102 -0.542467 -0.334669
v 0.046791 -0.542467 -0.431102
v -0.009057 -0.542467 -0.340737
v -0.009057 -0.542467 -0.432372
v -0.064904 -0.542467 -0.431102
v -0.073216 -0.542467 -0.334669
v -0.120636 -0.542467 -0.427295
v -0.135099 -0.542467 -0.316678
v -0.176138 -0.542467 -0.420960
v -0.192511 -0.542467 -0.287402
v -0.231294 -0.542467 -0.412108
v -0.243415 -0.542467 -0.247881
v -0.285991 -0.542467 -0.400759
v -0.286006 -0.542467 -0.199516
v -0.318774 -0.542467 -0.144023
v -0.340116 -0.542467 -0.386936
v -0.340555 -0.542467 -0.083370
v -0.350577 -0.542467 -0.019709
v -0.350577 -0.542467 0.332633
v -0.377898 -0.542467 0.332633
v -0.393557 -0.542467 -0.370667
v -0.395577 -0.542467 0.330306
v -0.400740 -0.542467 -0.368118
v -0.412050 -0.542467 0.323482
v -0.415726 -0.542467 -0.360619
v -0.426197 -0.542467 0.312627
v -0.428436 -0.542467 -0.349697
v -0.437051 -0.542467 0.298481
v -0.438103 -0.542467 -0.336008
v -0.443875 -0.542467 0.282008
v -0.444147 -0.542467 -0.320378
v -0.446202 -0.542467 -0.303747
v -0.446202 -0.542467 0.264329
v 0.332463 -0.542467 0.332633
v 0.428089 -0.542467 0.264329
v 0.428089 -0.679075 0.264329
v 0.428089 -0.542467 0.264329
v 0.428089 -0.679075 0.264329
v -0.446202 -0.679075 -0.303747
v -0.442167 -0.679075 0.302634
v -0.446202 -0.679075 0.264329
v -0.444147 -0.679075 -0.320378
v -0.438103 -0.679075 -0.336008
v -0.435114 -0.679075 0.340501
v -0.428436 -0.679075 -0.349697
v -0.425089 -0.679075 0.377690
v -0.415726 -0.679075 -0.360619
v -0.412155 -0.679075 0.413971
v -0.400740 -0.679075 -0.368118
v -0.396392 -0.679075 0.449115
v -0.393557 -0.679075 -0.370667
v -0.389560 -0.679075 0.461596
v -0.340116 -0.679075 -0.386936
v -0.384561 -0.679075 0.468782
v -0.378150 -0.679075 0.474742
v -0.370620 -0.679075 0.479205
v -0.362314 -0.679075 0.481967
v -0.353610 -0.679075 0.482902
v 0.335497 -0.679075 0.482902
v -0.285991 -0.679075 -0.400759
v -0.231294 -0.679075 -0.412108
v -0.176138 -0.679075 -0.420960
v -0.120636 -0.679075 -0.427295
v -0.064904 -0.679075 -0.431102
v -0.009057 -0.679075 -0.432372
v 0.046791 -0.679075 -0.431102
v 0.102523 -0.679075 -0.427295
v 0.158025 -0.679075 -0.420960
v 0.213181 -0.679075 -0.412108
v 0.267878 -0.679075 -0.400759
v 0.322002 -0.679075 -0.386936
v 0.375443 -0.679075 -0.370667
v 0.344200 -0.679075 0.481967
v 0.352506 -0.679075 0.479205
v 0.360037 -0.679075 0.474742
v 0.366448 -0.679075 0.468782
v 0.371446 -0.679075 0.461596
v 0.378278 -0.679075 0.449115
v 0.382626 -0.679075 -0.368118
v 0.394041 -0.679075 0.413971
v 0.397613 -0.679075 -0.360619
v 0.406976 -0.679075 0.377690
v 0.410322 -0.679075 -0.349697
v 0.417001 -0.679075 0.340501
v 0.419990 -0.679075 -0.336008
v 0.424053 -0.679075 0.302634
v 0.426033 -0.679075 -0.320378
v 0.428089 -0.679075 0.264329
v 0.428089 -0.679075 -0.303747
v 0.428089 -0.679075 -0.303747
v 0.426033 -0.679075 -0.320378
v 0.428089 -0.679075 0.264329
v 0.424053 -0.679075 0.302634
v 0.419990 -0.679075 -0.336008
v 0.417001 -0.679075 0.340501
v 0.410322 -0.679075 -0.349697
v 0.406976 -0.679075 0.377690
v 0.397613 -0.679075 -0.360619
v 0.394041 -0.679075 0.413971
v 0.382626 -0.679075 -0.368118
v 0.378278 -0.679075 0.449115
v 0.375443 -0.679075 -0.370667
v 0.371446 -0.679075 0.461596
v 0.366448 -0.679075 0.468782
v 0.360037 -0.679075 0.474742
v 0.352506 -0.679075 0.479205
v 0.344200 -0.679075 0.481967
v 0.335497 -0.679075 0.482902
v 0.322002 -0.679075 -0.386936
v 0.267878 -0.679075 -0.400759
v 0.213181 -0.679075 -0.412108
v 0.158025 -0.679075 -0.420960
v 0.102523 -0.679075 -0.427295
v 0.046791 -0.679075 -0.431102
v -0.009057 -0.679075 -0.432372
v -0.064904 -0.679075 -0.431102
v -0.120636 -0.679075 -0.427295
v -0.176138 -0.679075 -0.420960
v -0.231294 -0.679075 -0.412108
v -0.285991 -0.679075 -0.400759
v -0.340116 -0.679075 -0.386936
v -0.353610 -0.679075 0.482902
v -0.362314 -0.679075 0.481967
v -0.370620 -0.679075 0.479205
v -0.378150 -0.679075 0.474742
v -0.384561 -0.679075 0.468782
v -0.389560 -0.679075 0.461596
v -0.393557 -0.679075 -0.370667
v -0.396392 -0.679075 0.449115
v -0.400740 -0.679075 -0.368118
v -0.412155 -0.679075 0.413971
v -0.415726 -0.679075 -0.360619
v -0.425089 -0.679075 0.377690
v -0.428436 -0.679075 -0.349697
v -0.435114 -0.679075 0.340501
v -0.438103 -0.679075 -0.336008
v -0.442167 -0.679075 0.302634
v -0.444147 -0.679075 -0.320378
v -0.446202 -0.679075 -0.303747
v -0.446202 -0.679075 0.264329
v 0.419990 -0.679075 -0.336008
v 0.419990 -0.542467 -0.336008
v 0.419990 -0.542467 -0.336008
v 0.419990 -0.679075 -0.336008
v -0.446202 -0.542467 -0.303747
v -0.446202 -0.679075 0.264329
v -0.446202 -0.542467 0.264329
v -0.446202 -0.679075 -0.303747
v -0.446202 -0.679075 -0.303747
v -0.446202 -0.542467 -0.303747
v -0.446202 -0.679075 0.264329
v -0.446202 -0.542467 0.264329
v -0.442167 -0.542467 0.302634
v -0.443875 -0.542467 0.282008
v -0.446202 -0.542467 0.264329
v -0.437051 -0.542467 0.298481
v -0.435114 -0.542467 0.340501
v -0.426197 -0.542467 0.312627
v -0.425089 -0.542467 0.377690
v -0.412050 -0.542467 0.323482
v -0.412155 -0.542467 0.413971
v -0.396392 -0.542467 0.449115
v -0.395577 -0.542467 0.330306
v -0.389560 -0.542467 0.461596
v -0.377898 -0.542467 0.332633
v -0.384561 -0.542467 0.468782
v -0.378150 -0.542467 0.474742
v -0.370620 -0.542467 0.479205
v -0.350577 -0.542467 0.332633
v -0.362314 -0.542467 0.481967
v -0.353610 -0.542467 0.482902
v 0.335497 -0.542467 0.482902
v -0.350577 -0.542467 -0.019709
v -0.340555 -0.542467 -0.083370
v -0.318774 -0.542467 -0.144023
v -0.286006 -0.542467 -0.199516
v -0.243415 -0.542467 -0.247881
v -0.192511 -0.542467 -0.287402
v -0.135099 -0.542467 -0.316678
v -0.073216 -0.542467 -0.334669
v -0.009057 -0.542467 -0.340737
v 0.055102 -0.542467 -0.334669
v 0.116985 -0.542467 -0.316678
v 0.174397 -0.542467 -0.287402
v 0.225302 -0.542467 -0.247881
v 0.267893 -0.542467 -0.199516
v 0.300660 -0.542467 -0.144023
v 0.322441 -0.542467 -0.083370
v 0.332463 -0.542467 0.332633
v 0.359785 -0.542467 0.332633
v 0.344200 -0.542467 0.481967
v 0.352506 -0.542467 0.479205
v 0.360037 -0.542467 0.474742
v 0.377463 -0.542467 0.330306
v 0.366448 -0.542467 0.468782
v 0.371446 -0.542467 0.461596
v 0.378278 -0.542467 0.449115
v 0.393937 -0.542467 0.323482
v 0.394041 -0.542467 0.413971
v 0.408083 -0.542467 0.312627
v 0.406976 -0.542467 0.377690
v 0.417001 -0.542467 0.340501
v 0.418938 -0.542467 0.298481
v 0.424053 -0.542467 0.302634
v 0.425762 -0.542467 0.282008
v 0.428089 -0.542467 0.264329
v 0.332463 -0.542467 -0.019709
v 0.332463 -0.542467 0.332633
v 0.322441 -0.542467 -0.083370
v 0.332463 -0.542467 -0.019709
v 0.428089 -0.542467 0.264329
v 0.424053 -0.542467 0.302634
v 0.425762 -0.542467 0.282008
v 0.418938 -0.542467 0.298481
v 0.417001 -0.542467 0.340501
v 0.408083 -0.542467 0.312627
v 0.406976 -0.542467 0.377690
v 0.394041 -0.542467 0.413971
v 0.393937 -0.542467 0.323482
v 0.378278 -0.542467 0.449115
v 0.377463 -0.542467 0.330306
v 0.371446 -0.542467 0.461596
v 0.366448 -0.542467 0.468782
v 0.360037 -0.542467 0.474742
v 0.359785 -0.542467 0.332633
v 0.352506 -0.542467 0.479205
v 0.344200 -0.542467 0.481967
v 0.335497 -0.542467 0.482902
v 0.300660 -0.542467 -0.144023
v 0.267893 -0.542467 -0.199516
v 0.225302 -0.542467 -0.247881
v 0.174397 -0.542467 -0.287402
v 0.116985 -0.542467 -0.316678
v 0.055102 -0.542467 -0.334669
v -0.009057 -0.542467 -0.340737
v -0.073216 -0.542467 -0.334669
v -0.135099 -0.542467 -0.316678
v -0.192511 -0.542467 -0.287402
v -0.243415 -0.542467 -0.247881
v -0.286006 -0.542467 -0.199516
v -0.318774 -0.542467 -0.144023
v -0.340555 -0.542467 -0.083370
v -0.350577 -0.542467 -0.019709
v -0.350577 -0.542467 0.332633
v -0.353610 -0.542467 0.482902
v -0.362314 -0.542467 0.481967
v -0.370620 -0.542467 0.479205
v -0.377898 -0.542467 0.332633
v -0.378150 -0.542467 0.474742
v -0.384561 -0.542467 0.468782
v -0.389560 -0.542467 0.461596
v -0.395577 -0.542467 0.330306
v -0.396392 -0.542467 0.449115
v -0.412050 -0.542467 0.323482
v -0.412155 -0.542467 0.413971
v -0.425089 -0.542467 0.377690
v -0.426197 -0.542467 0.312627
v -0.435114 -0.542467 0.340501
v -0.437051 -0.542467 0.298481
v -0.442167 -0.542467 0.302634
v -0.443875 -0.542467 0.282008
v -0.446202 -0.542467 0.264329
v 0.410322 -0.679075 -0.349697
v 0.410322 -0.542467 -0.349697
v 0.410322 -0.542467 -0.349697
v 0.410322 -0.679075 -0.349697
v 0.397613 -0.542467 -0.360619
v 0.397613 -0.679075 -0.360619
v 0.397613 -0.542467 -0.360619
v 0.397613 -0.679075 -0.360619
v 0.382626 -0.542467 -0.368118
v 0.382626 -0.679075 -0.368118
v 0.382626 -0.542467 -0.368118
v 0.382626 -0.679075 -0.368118
v 0.375443 -0.542467 -0.370667
v 0.375443 -0.679075 -0.370667
v 0.375443 -0.542467 -0.370667
v 0.375443 -0.679075 -0.370667
v 0.322002 -0.542467 -0.386936
v 0.322002 -0.679075 -0.386936
v 0.322002 -0.542467 -0.386936
v 0.322002 -0.679075 -0.386936
v 0.267878 -0.542467 -0.400759
v 0.267878 -0.679075 -0.400759
v 0.267878 -0.542467 -0.400759
v 0.267878 -0.679075 -0.400759
v 0.213181 -0.542467 -0.412108
v 0.213181 -0.679075 -0.412108
v 0.213181 -0.542467 -0.412108
v 0.213181 -0.679075 -0.412108
v 0.158025 -0.542467 -0.420960
v 0.158025 -0.679075 -0.420960
v 0.158025 -0.542467 -0.420960
v 0.158025 -0.679075 -0.420960
v 0.102523 -0.542467 -0.427295
v 0.102523 -0.679075 -0.427295
v 0.102523 -0.542467 -0.427295
v 0.102523 -0.679075 -0.427295
v 0.046791 -0.542467 -0.431102
v 0.046791 -0.679075 -0.431102
v 0.046791 -0.542467 -0.431102
v 0.046791 -0.679075 -0.431102
v -0.009057 -0.542467 -0.432372
v -0.009057 -0.679075 -0.432372
v -0.009057 -0.542467 -0.432372
v -0.009057 -0.679075 -0.432372
v -0.064904 -0.542467 -0.431102
v -0.064904 -0.679075 -0.431102
v -0.064904 -0.542467 -0.431102
v -0.064904 -0.679075 -0.431102
v -0.120636 -0.542467 -0.427295
v -0.120636 -0.679075 -0.427295
v -0.120636 -0.542467 -0.427295
v -0.120636 -0.679075 -0.427295
v -0.176138 -0.542467 -0.420960
v -0.176138 -0.679075 -0.420960
v -0.176138 -0.542467 -0.420960
v -0.176138 -0.679075 -0.420960
v -0.231294 -0.542467 -0.412108
v -0.231294 -0.679075 -0.412108
v -0.231294 -0.542467 -0.412108
v -0.231294 -0.679075 -0.412108
v -0.285991 -0.542467 -0.400759
v -0.285991 -0.679075 -0.400759
v -0.285991 -0.542467 -0.400759
v -0.285991 -0.679075 -0.400759
v -0.340116 -0.542467 -0.386936
v -0.340116 -0.679075 -0.386936
v -0.340116 -0.542467 -0.386936
v -0.340116 -0.679075 -0.386936
v -0.393557 -0.542467 -0.370667
v -0.393557 -0.679075 -0.370667
v -0.393557 -0.542467 -0.370667
v -0.393557 -0.679075 -0.370667
v -0.400740 -0.542467 -0.368118
v -0.400740 -0.679075 -0.368118
v -0.400740 -0.542467 -0.368118
v -0.400740 -0.679075 -0.368118
v -0.415726 -0.542467 -0.360619
v -0.415726 -0.679075 -0.360619
v -0.415726 -0.542467 -0.360619
v -0.415726 -0.679075 -0.360619
v -0.428436 -0.542467 -0.349697
v -0.428436 -0.679075 -0.349697
v -0.428436 -0.542467 -0.349697
v -0.428436 -0.679075 -0.349697
v -0.438103 -0.679075 -0.336008
v -0.438103 -0.542467 -0.336008
v -0.438103 -0.679075 -0.336008
v -0.438103 -0.542467 -0.336008
v -0.444147 -0.679075 -0.320378
v -0.444147 -0.542467 -0.320378
v -0.444147 -0.679075 -0.320378
v -0.444147 -0.542467 -0.320378
v 0.424053 -0.542467 0.302634
v 0.424053 -0.679075 0.302634
v 0.424053 -0.542467 0.302634
v 0.424053 -0.679075 0.302634
v 0.378278 -0.679075 0.449115
v 0.371446 -0.542467 0.461596
v 0.371446 -0.679075 0.461596
v 0.378278 -0.542467 0.449115
v 0.378278 -0.542467 0.449115
v 0.378278 -0.679075 0.449115
v 0.371446 -0.542467 0.461596
v 0.371446 -0.679075 0.461596
v 0.366448 -0.679075 0.468782
v 0.366448 -0.542467 0.468782
v 0.366448 -0.679075 0.468782
v 0.366448 -0.542467 0.468782
v 0.360037 -0.679075 0.474742
v 0.360037 -0.542467 0.474742
v 0.360037 -0.542467 0.474742
v 0.360037 -0.679075 0.474742
v 0.352506 -0.679075 0.479205
v 0.352506 -0.542467 0.479205
v 0.352506 -0.542467 0.479205
v 0.352506 -0.679075 0.479205
v 0.344200 -0.679075 0.481967
v 0.344200 -0.542467 0.481967
v 0.344200 -0.542467 0.481967
v 0.344200 -0.679075 0.481967
v 0.335497 -0.679075 0.482902
v 0.335497 -0.542467 0.482902
v 0.335497 -0.542467 0.482902
v 0.335497 -0.679075 0.482902
v -0.353610 -0.679075 0.482902
v -0.353610 -0.542467 0.482902
v -0.353610 -0.542467 0.482902
v -0.353610 -0.679075 0.482902
v -0.362314 -0.679075 0.481967
v -0.362314 -0.542467 0.481967
v -0.362314 -0.542467 0.481967
v -0.362314 -0.679075 0.481967
v -0.370620 -0.679075 0.479205
v -0.370620 -0.542467 0.479205
v -0.370620 -0.542467 0.479205
v -0.370620 -0.679075 0.479205
v -0.378150 -0.679075 0.474742
v -0.378150 -0.542467 0.474742
v -0.378150 -0.542467 0.474742
v -0.378150 -0.679075 0.474742
v -0.384561 -0.679075 0.468782
v -0.384561 -0.542467 0.468782
v -0.384561 -0.542467 0.468782
v -0.384561 -0.679075 0.468782
v -0.389560 -0.542467 0.461596
v -0.389560 -0.679075 0.461596
v -0.389560 -0.679075 0.461596
v -0.389560 -0.542467 0.461596
v -0.396392 -0.542467 0.449115
v -0.396392 -0.679075 0.449115
v -0.396392 -0.679075 0.449115
v -0.396392 -0.542467 0.449115
v -0.412155 -0.542467 0.413971
v -0.412155 -0.679075 0.413971
v -0.412155 -0.679075 0.413971
v -0.412155 -0.542467 0.413971
v -0.425089 -0.542467 0.377690
v -0.425089 -0.679075 0.377690
v -0.425089 -0.679075 0.377690
v -0.425089 -0.542467 0.377690
v -0.435114 -0.542467 0.340501
v -0.435114 -0.679075 0.340501
v -0.435114 -0.679075 0.340501
v -0.435114 -0.542467 0.340501
v -0.442167 -0.542467 0.302634
v -0.442167 -0.679075 0.302634
v -0.442167 -0.679075 0.302634
v -0.442167 -0.542467 0.302634
v 0.417001 -0.542467 0.340501
v 0.417001 -0.679075 0.340501
v 0.417001 -0.542467 0.340501
v 0.417001 -0.679075 0.340501
v 0.406976 -0.542467 0.377690
v 0.406976 -0.679075 0.377690
v 0.406976 -0.542467 0.377690
v 0.406976 -0.679075 0.377690
v 0.394041 -0.542467 0.413971
v 0.394041 -0.679075 0.413971
v 0.394041 -0.542467 0.413971
v 0.394041 -0.679075 0.413971
vn 0.9699031826615018 0 -0.243490895647229
vn 0.9981100329758331 0 -0.06145211203027173
vn -0.9699031826615018 0 0.243490895647229
vn -0.9981100329758331 0 0.06145211203027173
vn 0 1 0
vn 0 -1 0
vn 0.9986229674245927 0 0.05246111828870119
vn -0.9986229674245927 0 -0.05246111828870119
vn 0.881424411896863 0 -0.47232510637512076
vn -0.881424411896863 0 0.47232510637512076
vn -0.9981100329758331 0 -0.06145211203027173
vn -0.9986229674245927 0 0.05246111828870119
vn 0.9981100329758331 0 0.06145211203027173
vn 0.9986229674245927 0 -0.05246111828870119
vn 0.7398894604445857 0 -0.6727284640350963
vn -0.7398894604445857 0 0.6727284640350963
vn 0.5538179076567403 0 -0.83263781151153
vn -0.5538179076567403 0 0.83263781151153
vn 0.3916922037573995 0 -0.92009630882624
vn -0.3916922037573995 0 0.92009630882624
vn 0.31290230540673597 0 -0.9497853164116351
vn -0.31290230540673597 0 0.9497853164116351
vn 0.2694128897486444 0 -0.9630247633562102
vn -0.2694128897486444 0 0.9630247633562102
vn 0.22536679756398323 0 -0.9742739894689555
vn -0.22536679756398323 0 0.9742739894689555
vn 0.1808548013221318 0 -0.9835098071899091
vn -0.1808548013221318 0 0.9835098071899091
vn 0.13596919525057913 0 -0.9907130653942694
vn -0.13596919525057913 0 0.9907130653942694
vn 0.09080254148654379 0 -0.9958689163035388
vn -0.09080254148654379 0 0.9958689163035388
vn 0.04544822978823345 0 -0.9989666953453032
vn -0.04544822978823345 0 0.9989666953453032
vn 0 0 -1
vn 0 0 1
vn -0.04544822978823345 0 -0.9989666953453032
vn 0.04544822978823345 0 0.9989666953453032
vn -0.09080254148654379 0 -0.9958689163035388
vn 0.09080254148654379 0 0.9958689163035388
vn -0.13596919525057913 0 -0.9907130653942694
vn 0.13596919525057913 0 0.9907130653942694
vn -0.1808548013221318 0 -0.9835098071899091
vn 0.1808548013221318 0 0.9835098071899091
vn -0.22536679756398323 0 -0.9742739894689555
vn 0.22536679756398323 0 0.9742739894689555
vn -0.2694128897486444 0 -0.9630247633562102
vn 0.2694128897486444 0 0.9630247633562102
vn -0.31290230540673597 0 -0.9497853164116351
vn 0.31290230540673597 0 0.9497853164116351
vn -0.3916922037573995 0 -0.92009630882624
vn 0.3916922037573995 0 0.92009630882624
vn -0.5538179076567403 0 -0.83263781151153
vn 0.5538179076567403 0 0.83263781151153
vn -0.7398894604445857 0 -0.6727284640350963
vn 0.7398894604445857 0 0.6727284640350963
vn -0.881424411896863 0 -0.47232510637512076
vn 0.881424411896863 0 0.47232510637512076
vn -0.9699031826615018 0 -0.243490895647229
vn 0.9699031826615018 0 0.243490895647229
vn 0.9895703512685279 0 0.14405040746308972
vn -0.9895703512685279 0 -0.14405040746308972
vn 0.895511787745781 0 0.4450377939100851
vn 0.8502695368224111 0 0.5263475227944011
vn -0.895511787745781 0 -0.4450377939100851
vn -0.8502695368224111 0 -0.5263475227944011
vn 0.7552252025253976 0 0.6554654021918107
vn -0.7552252025253976 0 -0.6554654021918107
vn 0.5987970183682066 0 0.8009008245677773
vn -0.5987970183682066 0 -0.8009008245677773
vn 0.4150509798027399 0 0.9097981557272941
vn -0.4150509798027399 0 -0.9097981557272941
vn 0.21236979411476586 0 0.977189372919933
vn -0.21236979411476586 0 -0.977189372919933
vn 0.05347433130590765 0 0.9985692243862646
vn -0.05347433130590765 0 -0.9985692243862646
vn -0.05347433130590765 0 0.9985692243862646
vn 0.05347433130590765 0 -0.9985692243862646
vn -0.21236979411476586 0 0.977189372919933
vn 0.21236979411476586 0 -0.977189372919933
vn -0.4150509798027399 0 0.9097981557272941
vn 0.4150509798027399 0 -0.9097981557272941
vn -0.5987970183682066 0 0.8009008245677773
vn 0.5987970183682066 0 -0.8009008245677773
vn -0.7552252025253976 0 0.6554654021918107
vn 0.7552252025253976 0 -0.6554654021918107
vn -0.8502695368224111 0 0.5263475227944011
vn 0.8502695368224111 0 -0.5263475227944011
vn -0.895511787745781 0 0.4450377939100851
vn 0.895511787745781 0 -0.4450377939100851
vn -0.9279020804396342 0 0.3728239921407939
vn 0.9279020804396342 0 -0.3728239921407939
vn -0.9544799780350298 0 0.29827499313594685
vn 0.9544799780350298 0 -0.29827499313594685
vn -0.9750790776050812 0 0.22185759490453344
vn 0.9750790776050812 0 -0.22185759490453344
vn -0.9895703512685279 0 0.14405040746308972
vn 0.9895703512685279 0 -0.14405040746308972
vn 0.9750790776050812 0 0.22185759490453344
vn -0.9750790776050812 0 -0.22185759490453344
vn 0.9544799780350298 0 0.29827499313594685
vn -0.9544799780350298 0 -0.29827499313594685
vn 0.9279020804396342 0 0.3728239921407939
vn -0.9279020804396342 0 -0.3728239921407939
usemtl material_0_0
f 1//1 2//2 3//2
f 2//2 1//1 4//1
f 5//3 6//3 7//4
f 8//4 7//4 6//3
f 9//5 10//5 11//5
f 12//5 13//5 14//5
f 13//5 12//5 15//5
f 15//5 12//5 16//5
f 16//5 12//5 17//5
f 16//5 17//5 18//5
f 18//5 17//5 19//5
f 18//5 19//5 20//5
f 20//5 19//5 21//5
f 20//5 21//5 22//5
f 22//5 21//5 23//5
f 22//5 23//5 24//5
f 24//5 23//5 25//5
f 24//5 25//5 26//5
f 26//5 25//5 27//5
f 27//5 25//5 28//5
f 26//5 27//5 29//5
f 26//5 29//5 30//5
f 26//5 30//5 31//5
f 31//5 30//5 32//5
f 31//5 32//5 33//5
f 31//5 33//5 34//5
f 34//5 33//5 35//5
f 34//5 35//5 36//5
f 36//5 35//5 37//5
f 36//5 37//5 38//5
f 38//5 37//5 39//5
f 38//5 39//5 40//5
f 40//5 39//5 41//5
f 40//5 41//5 42//5
f 42//5 41//5 43//5
f 43//5 41//5 44//5
f 43//5 44//5 45//5
f 45//5 44//5 46//5
f 45//5 46//5 47//5
f 47//5 46//5 48//5
f 47//5 48//5 49//5
f 49//5 48//5 50//5
f 49//5 50//5 51//5
f 51//5 50//5 52//5
f 51//5 52//5 53//5
f 53//5 52//5 54//5
f 53//5 54//5 55//5
f 53//5 55//5 56//5
f 56//5 55//5 10//5
f 56//5 10//5 9//5
f 56//5 9//5 57//5
f 56//5 57//5 58//5
f 58//5 57//5 59//5
f 58//5 59//5 60//5
f 60//5 59//5 61//5
f 60//5 61//5 62//5
f 62//5 61//5 63//5
f 62//5 63//5 64//5
f 64//5 63//5 65//5
f 64//5 65//5 66//5
f 66//5 65//5 67//5
f 66//5 67//5 68//5
f 69//6 70//6 71//6
f 70//6 72//6 71//6
f 71//6 72//6 73//6
f 72//6 74//6 73//6
f 73//6 74//6 75//6
f 74//6 76//6 75//6
f 75//6 76//6 77//6
f 76//6 78//6 77//6
f 77//6 78//6 79//6
f 78//6 80//6 79//6
f 79//6 80//6 81//6
f 80//6 82//6 81//6
f 82//6 83//6 81//6
f 83//6 84//6 81//6
f 81//6 84//6 85//6
f 84//6 86//6 85//6
f 86//6 87//6 85//6
f 85//6 87//6 88//6
f 87//6 89//6 88//6
f 88//6 89//6 90//6
f 89//6 91//6 90//6
f 90//6 91//6 92//6
f 91//6 93//6 92//6
f 92//6 93//6 94//6
f 93//6 95//6 94//6
f 94//6 95//6 96//6
f 95//6 97//6 96//6
f 96//6 97//6 98//6
f 98//6 97//6 99//6
f 97//6 100//6 99//6
f 99//6 100//6 101//6
f 100//6 102//6 101//6
f 101//6 102//6 103//6
f 102//6 104//6 103//6
f 103//6 104//6 105//6
f 104//6 106//6 105//6
f 105//6 106//6 107//6
f 106//6 108//6 107//6
f 108//6 109//6 107//6
f 107//6 109//6 110//6
f 109//6 111//6 110//6
f 111//6 112//6 110//6
f 113//6 114//6 112//6
f 112//6 114//6 110//6
f 110//6 114//6 115//6
f 114//6 116//6 115//6
f 115//6 116//6 117//6
f 116//6 118//6 117//6
f 117//6 118//6 119//6
f 118//6 120//6 119//6
f 119//6 120//6 121//6
f 120//6 122//6 121//6
f 121//6 122//6 123//6
f 122//6 124//6 123//6
f 123//6 124//6 125//6
f 125//6 124//6 126//6
f 127//6 126//6 124//6
f 128//6 83//6 82//6
f 3//2 129//7 130//7
f 129//7 3//2 2//2
f 7//4 8//4 131//8
f 132//8 131//8 8//4
f 133//6 134//6 135//6
f 134//6 133//6 136//6
f 134//6 136//6 137//6
f 134//6 137//6 138//6
f 138//6 137//6 139//6
f 138//6 139//6 140//6
f 140//6 139//6 141//6
f 140//6 141//6 142//6
f 142//6 141//6 143//6
f 142//6 143//6 144//6
f 144//6 143//6 145//6
f 144//6 145//6 146//6
f 146//6 145//6 147//6
f 146//6 147//6 148//6
f 148//6 147//6 149//6
f 149//6 147//6 150//6
f 150//6 147//6 151//6
f 151//6 147//6 152//6
f 152//6 147//6 153//6
f 153//6 147//6 154//6
f 153//6 154//6 155//6
f 153//6 155//6 156//6
f 153//6 156//6 157//6
f 153//6 157//6 158//6
f 153//6 158//6 159//6
f 153//6 159//6 160//6
f 153//6 160//6 161//6
f 153//6 161//6 162//6
f 153//6 162//6 163//6
f 153//6 163//6 164//6
f 153//6 164//6 165//6
f 153//6 165//6 166//6
f 153//6 166//6 167//6
f 167//6 166//6 168//6
f 168//6 166//6 169//6
f 169//6 166//6 170//6
f 170//6 166//6 171//6
f 171//6 166//6 172//6
f 172//6 166//6 173//6
f 172//6 173//6 174//6
f 174//6 173//6 175//6
f 174//6 175//6 176//6
f 176//6 175//6 177//6
f 176//6 177//6 178//6
f 178//6 177//6 179//6
f 178//6 179//6 180//6
f 180//6 179//6 181//6
f 180//6 181//6 182//6
f 182//6 181//6 183//6
f 184//5 185//5 186//5
f 186//5 185//5 187//5
f 185//5 188//5 187//5
f 187//5 188//5 189//5
f 188//5 190//5 189//5
f 189//5 190//5 191//5
f 190//5 192//5 191//5
f 191//5 192//5 193//5
f 192//5 194//5 193//5
f 193//5 194//5 195//5
f 194//5 196//5 195//5
f 195//5 196//5 197//5
f 197//5 196//5 198//5
f 198//5 196//5 199//5
f 199//5 196//5 200//5
f 200//5 196//5 201//5
f 201//5 196//5 202//5
f 196//5 203//5 202//5
f 203//5 204//5 202//5
f 204//5 205//5 202//5
f 205//5 206//5 202//5
f 206//5 207//5 202//5
f 207//5 208//5 202//5
f 208//5 209//5 202//5
f 209//5 210//5 202//5
f 210//5 211//5 202//5
f 211//5 212//5 202//5
f 212//5 213//5 202//5
f 213//5 214//5 202//5
f 214//5 215//5 202//5
f 202//5 215//5 216//5
f 216//5 215//5 217//5
f 217//5 215//5 218//5
f 218//5 215//5 219//5
f 219//5 215//5 220//5
f 220//5 215//5 221//5
f 215//5 222//5 221//5
f 221//5 222//5 223//5
f 222//5 224//5 223//5
f 223//5 224//5 225//5
f 224//5 226//5 225//5
f 225//5 226//5 227//5
f 226//5 228//5 227//5
f 227//5 228//5 229//5
f 228//5 230//5 229//5
f 229//5 230//5 231//5
f 230//5 232//5 231//5
f 232//5 233//5 231//5
f 234//5 231//5 233//5
f 235//9 4//1 1//1
f 4//1 235//9 236//9
f 237//10 238//10 5//3
f 6//3 5//3 238//10
f 239//11 240//12 241//12
f 240//12 239//11 242//11
f 243//13 244//13 245//14
f 246//14 245//14 244//13
f 247//5 248//5 249//5
f 248//5 247//5 250//5
f 250//5 247//5 251//5
f 250//5 251//5 252//5
f 252//5 251//5 253//5
f 252//5 253//5 254//5
f 254//5 253//5 255//5
f 254//5 255//5 256//5
f 254//5 256//5 257//5
f 257//5 256//5 258//5
f 257//5 258//5 259//5
f 259//5 258//5 260//5
f 259//5 260//5 261//5
f 259//5 261//5 262//5
f 259//5 262//5 263//5
f 263//5 262//5 264//5
f 263//5 264//5 265//5
f 263//5 265//5 266//5
f 263//5 266//5 267//5
f 267//5 266//5 268//5
f 268//5 266//5 269//5
f 269//5 266//5 270//5
f 270//5 266//5 271//5
f 271//5 266//5 272//5
f 272//5 266//5 273//5
f 273//5 266//5 274//5
f 274//5 266//5 275//5
f 275//5 266//5 276//5
f 276//5 266//5 277//5
f 277//5 266//5 278//5
f 278//5 266//5 279//5
f 279//5 266//5 280//5
f 280//5 266//5 281//5
f 281//5 266//5 282//5
f 282//5 266//5 283//5
f 283//5 266//5 284//5
f 284//5 266//5 285//5
f 284//5 285//5 286//5
f 284//5 286//5 287//5
f 284//5 287//5 288//5
f 288//5 287//5 289//5
f 288//5 289//5 290//5
f 288//5 290//5 291//5
f 288//5 291//5 292//5
f 292//5 291//5 293//5
f 292//5 293//5 294//5
f 294//5 293//5 295//5
f 294//5 295//5 296//5
f 294//5 296//5 297//5
f 297//5 296//5 298//5
f 297//5 298//5 299//5
f 299//5 298//5 300//5
f 301//5 282//5 283//5
f 302//6 303//6 304//6
f 305//6 306//6 307//6
f 307//6 306//6 308//6
f 306//6 309//6 308//6
f 308//6 309//6 310//6
f 309//6 311//6 310//6
f 311//6 312//6 310//6
f 310//6 312//6 313//6
f 312//6 314//6 313//6
f 313//6 314//6 315//6
f 314//6 316//6 315//6
f 316//6 317//6 315//6
f 317//6 318//6 315//6
f 315//6 318//6 319//6
f 318//6 320//6 319//6
f 320//6 321//6 319//6
f 321//6 322//6 319//6
f 319//6 322//6 302//6
f 302//6 322//6 303//6
f 303//6 322//6 323//6
f 323//6 322//6 324//6
f 324//6 322//6 325//6
f 325//6 322//6 326//6
f 326//6 322//6 327//6
f 327//6 322//6 328//6
f 328//6 322//6 329//6
f 329//6 322//6 330//6
f 330//6 322//6 331//6
f 331//6 322//6 332//6
f 332//6 322//6 333//6
f 333//6 322//6 334//6
f 334//6 322//6 335//6
f 335//6 322//6 336//6
f 336//6 322//6 337//6
f 337//6 322//6 338//6
f 322//6 339//6 338//6
f 339//6 340//6 338//6
f 340//6 341//6 338//6
f 338//6 341//6 342//6
f 341//6 343//6 342//6
f 343//6 344//6 342//6
f 344//6 345//6 342//6
f 342//6 345//6 346//6
f 345//6 347//6 346//6
f 346//6 347//6 348//6
f 347//6 349//6 348//6
f 349//6 350//6 348//6
f 348//6 350//6 351//6
f 350//6 352//6 351//6
f 351//6 352//6 353//6
f 352//6 354//6 353//6
f 353//6 354//6 355//6
f 356//6 355//6 354//6
f 357//15 236//9 235//9
f 236//9 357//15 358//15
f 359//16 360//16 237//10
f 238//10 237//10 360//16
f 361//17 357//15 362//17
f 357//15 361//17 358//15
f 359//16 363//18 360//16
f 364//18 360//16 363//18
f 365//19 362//17 366//19
f 362//17 365//19 361//17
f 363//18 367//20 364//18
f 368//20 364//18 367//20
f 369//21 366//19 370//21
f 366//19 369//21 365//19
f 367//20 371//22 368//20
f 372//22 368//20 371//22
f 373//23 370//21 374//23
f 370//21 373//23 369//21
f 371//22 375//24 372//22
f 376//24 372//22 375//24
f 377//25 374//23 378//25
f 374//23 377//25 373//23
f 375//24 379//26 376//24
f 380//26 376//24 379//26
f 381//27 378//25 382//27
f 378//25 381//27 377//25
f 379//26 383//28 380//26
f 384//28 380//26 383//28
f 385//29 382//27 386//29
f 382//27 385//29 381//27
f 383//28 387//30 384//28
f 388//30 384//28 387//30
f 389//31 386//29 390//31
f 386//29 389//31 385//29
f 387//30 391//32 388//30
f 392//32 388//30 391//32
f 393//33 390//31 394//33
f 390//31 393//33 389//31
f 391//32 395//34 392//32
f 396//34 392//32 395//34
f 397//35 394//33 398//35
f 394//33 397//35 393//33
f 395//34 399//36 396//34
f 400//36 396//34 399//36
f 401//37 398//35 402//37
f 398//35 401//37 397//35
f 399//36 403//38 400//36
f 404//38 400//36 403//38
f 405//39 402//37 406//39
f 402//37 405//39 401//37
f 403//38 407//40 404//38
f 408//40 404//38 407//40
f 409//41 406//39 410//41
f 406//39 409//41 405//39
f 407//40 411//42 408//40
f 412//42 408//40 411//42
f 413//43 410//41 414//43
f 410//41 413//43 409//41
f 411//42 415//44 412//42
f 416//44 412//42 415//44
f 417//45 414//43 418//45
f 414//43 417//45 413//43
f 415//44 419//46 416//44
f 420//46 416//44 419//46
f 421//47 418//45 422//47
f 418//45 421//47 417//45
f 419//46 423//48 420//46
f 424//48 420//46 423//48
f 425//49 422//47 426//49
f 422//47 425//49 421//47
f 423//48 427//50 424//48
f 428//50 424//48 427//50
f 429//51 426//49 430//51
f 426//49 429//51 425//49
f 427//50 431//52 428//50
f 432//52 428//50 431//52
f 433//53 430//51 434//53
f 430//51 433//53 429//51
f 431//52 435//54 432//52
f 436//54 432//52 435//54
f 437//55 434//53 438//55
f 434//53 437//55 433//53
f 435//54 439//56 436//54
f 440//56 436//54 439//56
f 437//55 441//57 442//57
f 441//57 437//55 438//55
f 440//56 439//56 443//58
f 444//58 443//58 439//56
f 442//57 445//59 446//59
f 445//59 442//57 441//57
f 443//58 444//58 447//60
f 448//60 447//60 444//58
f 446//59 242//11 239//11
f 242//11 446//59 445//59
f 447//60 448//60 243//13
f 244//13 243//13 448//60
f 130//7 449//61 450//61
f 449//61 130//7 129//7
f 131//8 132//8 451//62
f 452//62 451//62 132//8
f 453//63 454//64 455//64
f 454//64 453//63 456//63
f 457//65 458//65 459//66
f 460//66 459//66 458//65
f 461//67 454//64 462//67
f 454//64 461//67 455//64
f 460//66 463//68 459//66
f 464//68 459//66 463//68
f 462//67 465//69 461//67
f 465//69 462//67 466//69
f 467//70 464//68 468//70
f 463//68 468//70 464//68
f 466//69 469//71 465//69
f 469//71 466//69 470//71
f 471//72 467//70 472//72
f 468//70 472//72 467//70
f 470//71 473//73 469//71
f 473//73 470//71 474//73
f 475//74 471//72 476//74
f 472//72 476//74 471//72
f 474//73 477//75 473//73
f 477//75 474//73 478//75
f 479//76 475//74 480//76
f 476//74 480//76 475//74
f 478//75 481//77 477//75
f 481//77 478//75 482//77
f 483//78 479//76 484//78
f 480//76 484//78 479//76
f 482//77 485//79 481//77
f 485//79 482//77 486//79
f 487//80 483//78 488//80
f 484//78 488//80 483//78
f 486//79 489//81 485//79
f 489//81 486//79 490//81
f 491//82 487//80 492//82
f 488//80 492//82 487//80
f 490//81 493//83 489//81
f 493//83 490//81 494//83
f 495//84 491//82 496//84
f 492//82 496//84 491//82
f 494//83 497//85 493//83
f 497//85 494//83 498//85
f 499//86 495//84 500//86
f 496//84 500//86 495//84
f 501//87 497//85 498//85
f 497//85 501//87 502//87
f 503//88 504//88 500//86
f 499//86 500//86 504//88
f 505//89 502//87 501//87
f 502//87 505//89 506//89
f 507//90 508//90 503//88
f 504//88 503//88 508//90
f 509//91 506//89 505//89
f 506//89 509//91 510//91
f 511//92 512//92 507//90
f 508//90 507//90 512//92
f 513//93 510//91 509//91
f 510//91 513//93 514//93
f 515//94 516//94 511//92
f 512//92 511//92 516//94
f 517//95 514//93 513//93
f 514//93 517//95 518//95
f 519//96 520//96 515//94
f 516//94 515//94 520//96
f 521//97 518//95 517//95
f 518//95 521//97 522//97
f 523//98 524//98 519//96
f 520//96 519//96 524//98
f 241//12 522//97 521//97
f 522//97 241//12 240//12
f 245//14 246//14 523//98
f 524//98 523//98 246//14
f 450//61 525//99 526//99
f 525//99 450//61 449//61
f 451//62 452//62 527//100
f 528//100 527//100 452//62
f 526//99 529//101 530//101
f 529//101 526//99 525//99
f 527//100 528//100 531//102
f 532//102 531//102 528//100
f 530//101 533//103 534//103
f 533//103 530//101 529//101
f 531//102 532//102 535//104
f 536//104 535//104 532//102
f 534//103 456//63 453//63
f 456//63 534//103 533//103
f 535//104 536//104 457//65
f 458//65 457//65 536//104
