# SSTK version 0.8.0
# 61
mtllib original-61.mtl
o #ID352
v -0.140361 0.388898 0.510224
v -0.138593 0.395495 0.517054
v -0.140361 0.388898 0.517054
v -0.138593 0.395495 0.469241
v -0.140361 0.388898 0.469241
v -0.139477 0.392197 0.469241
v -0.138593 0.395495 0.517054
v -0.145665 0.389596 0.517054
v -0.140361 0.388898 0.517054
v -0.145665 0.396426 0.517054
v -0.140361 0.388898 0.510224
v -0.145665 0.389596 0.517054
v -0.145665 0.389596 0.510224
v -0.140361 0.388898 0.517054
v -0.138593 0.395495 0.517054
v -0.145665 0.396426 0.469241
v -0.145665 0.396426 0.517054
v -0.138593 0.395495 0.469241
v -0.145665 0.396426 0.469241
v -0.145665 0.396426 0.517054
v -0.145665 0.389596 0.469241
v -0.145665 0.393011 0.469241
vn 0.9659258358036645 -0.25881900959356163 0
vn 0 0 1
vn -0.1305261948688555 -0.9914448610250887 0
vn -0.7518398117130328 -0.659345810272054 0
vn -0.9066393385109845 -0.42190651792116746 0
vn 0.1305261948688555 0.9914448610250887 0
vn -1 0 0
usemtl material_0_0
f 1//1 2//1 3//1
f 2//1 1//1 4//1
f 4//1 1//1 5//1
f 4//1 5//1 6//1
f 7//2 8//2 9//2
f 8//2 7//2 10//2
f 11//3 12//4 13//5
f 12//4 11//3 14//3
f 15//6 16//6 17//6
f 16//6 15//6 18//6
f 19//7 12//4 20//7
f 12//4 19//7 13//5
f 13//5 19//7 21//7
f 21//7 19//7 22//7
