# SSTK version 0.8.0
# 19
mtllib original-19.mtl
o #ID190
v -0.009057 0.322095 0.475491
v -0.009057 0.327969 0.475491
v -0.009057 0.327757 0.475491
v -0.004496 0.322696 0.475491
v -0.006016 0.328370 0.475491
v -0.003183 0.329543 0.475491
v -0.000246 0.324456 0.475491
v -0.000749 0.331410 0.475491
v 0.001118 0.333844 0.475491
v 0.003404 0.327257 0.475491
v 0.002291 0.336677 0.475491
v 0.002692 0.339718 0.475491
v -0.009057 0.351466 0.475491
v -0.009057 0.357340 0.475491
v -0.009057 0.351679 0.475491
v -0.006016 0.351066 0.475491
v -0.004496 0.356740 0.475491
v -0.003183 0.349892 0.475491
v -0.000246 0.354979 0.475491
v -0.000749 0.348025 0.475491
v 0.001118 0.345592 0.475491
v 0.003404 0.352179 0.475491
v 0.002291 0.342758 0.475491
v 0.006205 0.330907 0.475491
v 0.006205 0.348529 0.475491
v 0.007965 0.335157 0.475491
v 0.007965 0.344279 0.475491
v 0.008566 0.339718 0.475491
v 0.008566 0.339718 0.475491
v 0.007965 0.335157 0.475491
v 0.007965 0.344279 0.475491
v 0.006205 0.348529 0.475491
v 0.006205 0.330907 0.475491
v 0.003404 0.352179 0.475491
v 0.003404 0.327257 0.475491
v 0.002692 0.339718 0.475491
v 0.002291 0.342758 0.475491
v 0.001118 0.345592 0.475491
v -0.000246 0.354979 0.475491
v -0.000749 0.348025 0.475491
v -0.003183 0.349892 0.475491
v -0.004496 0.356740 0.475491
v -0.006016 0.351066 0.475491
v -0.009057 0.357340 0.475491
v -0.009057 0.351466 0.475491
v -0.009057 0.351679 0.475491
v 0.002291 0.336677 0.475491
v 0.001118 0.333844 0.475491
v -0.000246 0.324456 0.475491
v -0.000749 0.331410 0.475491
v -0.003183 0.329543 0.475491
v -0.004496 0.322696 0.475491
v -0.006016 0.328370 0.475491
v -0.009057 0.327969 0.475491
v -0.009057 0.322095 0.475491
v -0.009057 0.327757 0.475491
vt 0.02762777 0.009711108
vt 0.02762777 0.01568333
vt 0.02762777 0.01546724
vt 0.03226495 0.0103216
vt 0.03071922 0.01609033
vt 0.0336 0.01728358
vt 0.03658611 0.01211149
vt 0.03607377 0.01918178
vt 0.03797197 0.02165555
vt 0.04029677 0.01495878
vt 0.03916522 0.02453632
vt 0.03957222 0.02762777
vt 0.02762777 0.03957222
vt 0.02762777 0.04554444
vt 0.02762777 0.03978831
vt 0.03071922 0.03916522
vt 0.03226495 0.04493395
vt 0.0336 0.03797197
vt 0.03658611 0.04314406
vt 0.03607377 0.03607377
vt 0.03797197 0.0336
vt 0.04029677 0.04029677
vt 0.03916522 0.03071922
vt 0.04314406 0.01866944
vt 0.04314406 0.03658611
vt 0.04493395 0.0229906
vt 0.04493395 0.03226495
vt 0.04554444 0.02762777
vn 0 0 1
vn 0 0 -1
usemtl material_0_0
f 1/1/1 2/2/1 3/3/1
f 2/2/1 1/1/1 4/4/1
f 2/2/1 4/4/1 5/5/1
f 5/5/1 4/4/1 6/6/1
f 6/6/1 4/4/1 7/7/1
f 6/6/1 7/7/1 8/8/1
f 8/8/1 7/7/1 9/9/1
f 9/9/1 7/7/1 10/10/1
f 9/9/1 10/10/1 11/11/1
f 11/11/1 10/10/1 12/12/1
f 13/13/1 14/14/1 15/15/1
f 14/14/1 13/13/1 16/16/1
f 14/14/1 16/16/1 17/17/1
f 17/17/1 16/16/1 18/18/1
f 17/17/1 18/18/1 19/19/1
f 19/19/1 18/18/1 20/20/1
f 19/19/1 20/20/1 21/21/1
f 19/19/1 21/21/1 22/22/1
f 22/22/1 21/21/1 23/23/1
f 22/22/1 23/23/1 12/12/1
f 22/22/1 12/12/1 10/10/1
f 22/22/1 10/10/1 24/24/1
f 22/22/1 24/24/1 25/25/1
f 25/25/1 24/24/1 26/26/1
f 25/25/1 26/26/1 27/27/1
f 27/27/1 26/26/1 28/28/1
f 29/28/2 30/26/2 31/27/2
f 31/27/2 30/26/2 32/25/2
f 30/26/2 33/24/2 32/25/2
f 32/25/2 33/24/2 34/22/2
f 33/24/2 35/10/2 34/22/2
f 35/10/2 36/12/2 34/22/2
f 36/12/2 37/23/2 34/22/2
f 37/23/2 38/21/2 34/22/2
f 34/22/2 38/21/2 39/19/2
f 38/21/2 40/20/2 39/19/2
f 40/20/2 41/18/2 39/19/2
f 39/19/2 41/18/2 42/17/2
f 41/18/2 43/16/2 42/17/2
f 42/17/2 43/16/2 44/14/2
f 43/16/2 45/13/2 44/14/2
f 46/15/2 44/14/2 45/13/2
f 36/12/2 35/10/2 47/11/2
f 47/11/2 35/10/2 48/9/2
f 35/10/2 49/7/2 48/9/2
f 48/9/2 49/7/2 50/8/2
f 50/8/2 49/7/2 51/6/2
f 49/7/2 52/4/2 51/6/2
f 51/6/2 52/4/2 53/5/2
f 53/5/2 52/4/2 54/2/2
f 52/4/2 55/1/2 54/2/2
f 56/3/2 54/2/2 55/1/2
