# SSTK version 0.8.0
# 16
mtllib original-16.mtl
o #ID166
v -0.028696 0.328379 0.469822
v -0.012592 0.326522 0.469241
v -0.009057 0.326057 0.469241
v -0.009057 0.326057 0.469241
v -0.012592 0.326522 0.469241
v -0.028696 0.328379 0.469822
v 0.010582 0.328379 0.469822
v 0.010582 0.328379 0.469822
v -0.015887 0.327887 0.469241
v -0.015887 0.327887 0.469241
v 0.010582 0.328379 0.469822
v -0.009057 0.326057 0.469241
v -0.005521 0.326522 0.469241
v -0.005521 0.326522 0.469241
v -0.009057 0.326057 0.469241
v 0.010582 0.328379 0.469822
v -0.009057 0.317041 0.469822
v -0.009057 0.317041 0.469822
v -0.018716 0.330058 0.469241
v -0.018716 0.330058 0.469241
v -0.002226 0.327887 0.469241
v -0.002226 0.327887 0.469241
v -0.020887 0.332887 0.469241
v -0.020887 0.332887 0.469241
v 0.000603 0.330058 0.469241
v 0.000603 0.330058 0.469241
v -0.028696 0.351056 0.469822
v -0.028696 0.351056 0.469822
v 0.002774 0.332887 0.469241
v 0.002774 0.332887 0.469241
v -0.022252 0.336182 0.469241
v -0.022252 0.336182 0.469241
v 0.010582 0.351056 0.469822
v 0.010582 0.351056 0.469822
v -0.022718 0.339718 0.469241
v -0.022718 0.339718 0.469241
v 0.004139 0.336182 0.469241
v 0.004139 0.336182 0.469241
v -0.022252 0.343253 0.469241
v -0.022252 0.343253 0.469241
v 0.004604 0.339718 0.469241
v 0.004604 0.339718 0.469241
v -0.020887 0.346548 0.469241
v -0.020887 0.346548 0.469241
v 0.004139 0.343253 0.469241
v 0.004139 0.343253 0.469241
v -0.018716 0.349377 0.469241
v -0.018716 0.349377 0.469241
v 0.002774 0.346548 0.469241
v 0.002774 0.346548 0.469241
v -0.015887 0.351548 0.469241
v -0.015887 0.351548 0.469241
v 0.000603 0.349377 0.469241
v 0.000603 0.349377 0.469241
v -0.012592 0.352913 0.469241
v -0.012592 0.352913 0.469241
v -0.002226 0.351548 0.469241
v -0.002226 0.351548 0.469241
v -0.009057 0.353379 0.469241
v -0.009057 0.353379 0.469241
v -0.005521 0.352913 0.469241
v -0.005521 0.352913 0.469241
v -0.009057 0.362395 0.469822
v -0.009057 0.362395 0.469822
vt 0.005494065 -0.006414452
vt 0.0219724 -0.007061595
vt 0.02559813 -0.007061595
vt -0.04759447 0.01576245
vt -0.02762777 0.01332868
vt -0.007661077 0.01576245
vt 0.01676491 -0.02213946
vt 0.0009167107 -0.01757996
vt 0.01313918 -0.02213946
vt 0.04928876 -0.003458113
vt 0.0291847 -0.004105256
vt 0.03281043 -0.004105256
vt -0.04759447 0.0161
vt -0.02762777 0.004572219
vt -0.007661077 0.0161
vt 0.006912727 -0.02489089
vt -0.003723115 -0.0173373
vt 0.003287 -0.02489089
vt 0.05013276 0.003387476
vt 0.03428456 -0.001172029
vt 0.03791029 -0.001172029
vt -0.003287 -0.02491475
vt -0.008109218 -0.01580735
vt -0.006912727 -0.02491475
vt 0.04756029 0.01619728
vt 0.03692445 0.00864369
vt 0.04055017 0.00864369
vt -0.02068333 -0.0155567
vt -0.0161 -0.007596217
vt -0.03915555 -0.007596217
vt 0.04174666 0.02793765
vt 0.03692445 0.01883026
vt 0.04055017 0.01883026
vt -0.03324325 -0.008504899
vt -0.01676491 -0.009152042
vt -0.01313918 -0.009152042
vt 0.0161 0.04750721
vt 0.02068333 0.03954673
vt 0.03915555 0.04750721
vt -0.0219724 -0.01708252
vt -0.0378206 -0.01252301
vt -0.02559813 -0.01708252
vt 0.05438863 0.01242041
vt 0.03428456 0.01177327
vt 0.03791029 0.01177327
vt -0.03281043 -0.009984572
vt -0.0291847 -0.009984572
vt -0.03982054 -0.002430985
vt 0.0450329 0.04179879
vt 0.0291847 0.03723929
vt 0.03281043 0.03723929
vt -0.03791029 -0.001179491
vt -0.03428456 -0.001179491
vt -0.03910678 0.007927903
vt 0.03260825 0.05218432
vt 0.0219724 0.04463073
vt 0.02559813 0.04463073
vt -0.04055017 0.008651974
vt -0.03692445 0.008651974
vt -0.03572796 0.01775937
vt 0.0179614 0.05887004
vt 0.01313918 0.04976264
vt 0.01676491 0.04976264
vt -0.04055017 0.01881223
vt -0.03692445 0.01881223
vt -0.02991433 0.02636581
vt 0.00209051 0.06150437
vt 0.003287 0.05239698
vt 0.006912727 0.05239698
vt -0.03791029 0.0284804
vt -0.03428456 0.0284804
vt -0.02206209 0.03303991
vt -0.01392284 0.0599004
vt -0.006912727 0.05234681
vt -0.003287 0.05234681
vt -0.01270636 0.01604117
vt -0.03281043 0.01539403
vt -0.0291847 0.01539403
vt -0.02898738 0.05400734
vt -0.01676491 0.04944784
vt -0.01313918 0.04944784
vt -0.04468469 0.02207965
vt -0.02621246 0.03004013
vt -0.04926802 0.03004013
vt -0.04207647 0.01899751
vt -0.02559813 0.01835037
vt -0.0219724 0.01835037
vt -0.02164025 0.05759184
vt -0.003168023 0.04963136
vt 0.001415311 0.05759184
vn 0.02712834969236324 0.37739389572033577 -0.9256553895030251
vn -0.1176662979724903 -0.8716846849799883 -0.4757314918026636
vn 0.0011339259628027436 0.2515498917481734 -0.967843668250918
vn -0.0011339259628027436 -0.2515498917481734 0.967843668250918
vn 0.1176662979724903 0.8716846849799883 0.4757314918026636
vn -0.02712834969236324 -0.37739389572033577 0.9256553895030251
vn 0 0.26425910613534337 -0.9644517223918204
vn 0 -0.26425910613534337 0.9644517223918204
vn -0.049197090056975215 -0.10917630012643718 -0.9928042011497675
vn 0.049197090056975215 0.10917630012643718 0.9928042011497675
vn 0.06541053731206217 -0.02508996896896924 -0.9975429590076226
vn 0.11905680020693202 -0.9043259015718044 -0.40990260071244966
vn 0.11766629797249027 -0.8716846849799883 -0.4757314918026636
vn -0.11766629797249027 0.8716846849799883 0.4757314918026636
vn -0.11905680020693202 0.9043259015718044 0.40990260071244966
vn -0.06541053731206217 0.02508996896896924 0.9975429590076226
vn 0 0 -1
vn 0 0 1
vn -0.048800240312919775 -0.054820160351521034 -0.9973030063949647
vn 0.048800240312919775 0.054820160351521034 0.9973030063949647
vn 0.04919709005697517 -0.10917630012643718 -0.9928042011497675
vn -0.04919709005697517 0.10917630012643718 0.9928042011497675
vn -0.07044112719889749 -0.023033979084050183 -0.9972499603441979
vn 0.07044112719889749 0.023033979084050183 0.9972499603441979
vn 0.04880024031291973 -0.054820160351521034 -0.9973030063949647
vn -0.04880024031291973 0.054820160351521034 0.9973030063949647
vn -0.06254012873204957 0.03610755926794848 -0.9973890797787442
vn 0.06254012873204957 -0.03610755926794848 0.9973890797787442
vn 0.07044112719889743 -0.023033979084050183 -0.9972499603441979
vn -0.07044112719889743 0.023033979084050183 0.9972499603441979
vn -0.8137342275424709 -0.33394031130288127 -0.4757315161020896
vn 0.8137342275424709 0.33394031130288127 0.4757315161020896
vn 0.06254012873204952 0.03610755926794848 -0.9973890797787442
vn -0.06254012873204952 -0.03610755926794848 0.9973890797787442
vn -0.11914800004304744 -0.011982230004329103 -0.9928042003586939
vn 0.11914800004304744 0.011982230004329103 0.9928042003586939
vn 0.8137342275424709 -0.33394031130288127 -0.4757315161020896
vn -0.8137342275424709 0.33394031130288127 0.4757315161020896
vn -0.07187577046446839 0.014852170095976194 -0.9973030064446708
vn 0.07187577046446839 -0.014852170095976194 0.9973030064446708
vn 0.11914800004304739 -0.011982230004329103 -0.9928042003586939
vn -0.11914800004304739 0.011982230004329103 0.9928042003586939
vn -0.05565152201338038 0.03213042116242569 -0.9979331361035764
vn 0.05565152201338038 -0.03213042116242569 0.9979331361035764
vn 0.07187577046446833 0.014852170095976194 -0.9973030064446708
vn -0.07187577046446833 -0.014852170095976194 0.9973030064446708
vn -0.048800240312919775 0.054820160351521034 -0.9973030063949647
vn 0.048800240312919775 -0.054820160351521034 0.9973030063949647
vn 0.05565152201338034 0.03213042116242569 -0.9979331361035764
vn -0.05565152201338034 -0.03213042116242569 0.9979331361035764
vn -0.049197090056975215 0.10917630012643718 -0.9928042011497675
vn 0.049197090056975215 -0.10917630012643718 0.9928042011497675
vn 0.04880024031291973 0.054820160351521034 -0.9973030063949647
vn -0.04880024031291973 -0.054820160351521034 0.9973030063949647
vn -0.1176662979724903 0.8716846849799883 -0.4757314918026636
vn 0.1176662979724903 -0.8716846849799883 0.4757314918026636
vn 0.04919709005697517 0.10917630012643718 -0.9928042011497675
vn -0.04919709005697517 -0.10917630012643718 0.9928042011497675
vn 0 0.0807972962565139 -0.9967305538196555
vn 0 -0.0807972962565139 0.9967305538196555
vn 0.11766629797249027 0.8716846849799883 -0.4757314918026636
vn -0.11766629797249027 -0.8716846849799883 0.4757314918026636
vn 0 0.0642608522838843 -0.9979331354673763
vn 0 -0.0642608522838843 0.9979331354673763
usemtl material_0_0
f 1/1/1 2/2/2 3/3/3
f 4/3/4 5/2/5 6/1/6
f 7/4/7 3/5/3 1/6/1
f 6/6/6 4/5/4 8/4/8
f 2/7/2 1/8/1 9/9/9
f 10/9/10 6/8/6 5/7/5
f 11/10/11 12/11/12 13/12/13
f 14/12/14 15/11/15 16/10/16
f 7/13/7 17/14/17 1/15/1
f 6/15/6 18/14/18 8/13/8
f 9/16/9 1/17/1 19/18/19
f 20/18/20 6/17/6 10/16/10
f 11/19/11 13/20/13 21/21/21
f 22/21/22 14/20/14 16/19/16
f 19/22/19 1/23/1 23/24/23
f 24/24/24 6/23/6 20/22/20
f 11/25/11 21/26/21 25/27/25
f 26/27/26 22/26/22 16/25/16
f 23/28/23 1/29/1 27/30/27
f 28/30/28 6/29/6 24/28/24
f 11/31/11 25/32/25 29/33/29
f 30/33/30 26/32/26 16/31/16
f 27/34/27 31/35/31 23/36/23
f 24/36/24 32/35/32 28/34/28
f 11/37/11 29/38/29 33/39/33
f 34/39/34 30/38/30 16/37/16
f 31/40/31 27/41/27 35/42/35
f 36/42/36 28/41/28 32/40/32
f 33/43/33 29/44/29 37/45/37
f 38/45/38 30/44/30 34/43/34
f 39/46/39 35/47/35 27/48/27
f 28/48/28 36/47/36 40/46/40
f 33/49/33 37/50/37 41/51/41
f 42/51/42 38/50/38 34/49/34
f 43/52/43 39/53/39 27/54/27
f 28/54/28 40/53/40 44/52/44
f 33/55/33 41/56/41 45/57/45
f 46/57/46 42/56/42 34/55/34
f 47/58/47 43/59/43 27/60/27
f 28/60/28 44/59/44 48/58/48
f 33/61/33 45/62/45 49/63/49
f 50/63/50 46/62/46 34/61/34
f 51/64/51 47/65/47 27/66/27
f 28/66/28 48/65/48 52/64/52
f 33/67/33 49/68/49 53/69/53
f 54/69/54 50/68/50 34/67/34
f 55/70/55 51/71/51 27/72/27
f 28/72/28 52/71/52 56/70/56
f 33/73/33 53/74/53 57/75/57
f 58/75/58 54/74/54 34/73/34
f 27/76/27 59/77/59 55/78/55
f 56/78/56 60/77/60 28/76/28
f 33/79/33 57/80/57 61/81/61
f 62/81/62 58/80/58 34/79/34
f 59/82/59 27/83/27 63/84/63
f 64/84/64 28/83/28 60/82/60
f 33/85/33 61/86/61 59/87/59
f 60/87/60 62/86/62 34/85/34
f 33/88/33 59/89/59 63/90/63
f 64/90/64 60/89/60 34/88/34
