# SSTK version 0.8.0
# 10
mtllib original-10.mtl
o mesh4/mesh4-geometry/material_1#mesh4-geometry
v 0.571834 0.026696 0.056106
v 0.572373 0.002401 0.050585
v 0.571834 0.027599 0.054755
v 0.457376 0.027599 0.054755
v 0.571834 0.026696 0.056106
v 0.571834 0.027599 0.054755
v 0.571834 0.025625 0.057327
v 0.572373 0.002401 0.050585
v 0.571834 0.026696 0.056106
v 0.457376 0.026696 0.056106
v 0.571834 0.025625 0.057327
v 0.571834 0.026696 0.056106
v 0.571834 0.027599 0.054755
v 0.572373 0.002401 0.050585
v 0.571834 0.028317 0.053297
v 0.571834 0.026696 0.056106
v 0.457376 0.027599 0.054755
v 0.457376 0.026696 0.056106
v 0.571834 0.027599 0.054755
v 0.457376 0.028317 0.053297
v 0.457376 0.027599 0.054755
v 0.571931 0.024405 0.058399
v 0.572373 0.002401 0.050585
v 0.571834 0.025625 0.057327
v 0.571834 0.025625 0.057327
v 0.457376 0.026696 0.056106
v 0.457376 0.025625 0.057327
v 0.571834 0.028317 0.053297
v 0.572373 0.002401 0.050585
v 0.571834 0.028840 0.051759
v 0.457376 0.028317 0.053297
v 0.571834 0.027599 0.054755
v 0.571834 0.028317 0.053297
v 0.457376 0.002390 0.050585
v 0.457376 0.026696 0.056106
v 0.457376 0.027599 0.054755
v 0.457376 0.002390 0.050585
v 0.457376 0.027599 0.054755
v 0.457376 0.028317 0.053297
v 0.571958 0.023054 0.059301
v 0.572373 0.002401 0.050585
v 0.571931 0.024405 0.058399
v 0.457376 0.002390 0.050585
v 0.457376 0.025625 0.057327
v 0.457376 0.026696 0.056106
v 0.457376 0.024403 0.058399
v 0.571834 0.025625 0.057327
v 0.457376 0.025625 0.057327
v 0.571834 0.028840 0.051759
v 0.572373 0.002401 0.050585
v 0.571834 0.029157 0.050165
v 0.457376 0.028840 0.051759
v 0.571834 0.028317 0.053297
v 0.571834 0.028840 0.051759
v 0.571834 0.028317 0.053297
v 0.457376 0.028840 0.051759
v 0.457376 0.028317 0.053297
v 0.457376 0.002390 0.050585
v 0.457376 0.028317 0.053297
v 0.457376 0.028840 0.051759
v 0.571988 0.021598 0.060020
v 0.572373 0.002401 0.050585
v 0.571958 0.023054 0.059301
v 0.457376 0.002390 0.050585
v 0.457376 0.024403 0.058399
v 0.457376 0.025625 0.057327
v 0.571834 0.025625 0.057327
v 0.457376 0.024403 0.058399
v 0.571834 0.024403 0.058399
v 0.571834 0.029157 0.050165
v 0.572373 0.002401 0.050585
v 0.572406 0.000739 0.040139
v 0.457376 0.029157 0.050165
v 0.571834 0.028840 0.051759
v 0.571834 0.029157 0.050165
v 0.571834 0.028840 0.051759
v 0.457376 0.029157 0.050165
v 0.457376 0.028840 0.051759
v 0.457376 0.002390 0.050585
v 0.457376 0.028840 0.051759
v 0.457376 0.029157 0.050165
v 0.572018 0.020060 0.060542
v 0.572373 0.002401 0.050585
v 0.571988 0.021598 0.060020
v 0.457376 0.002390 0.050585
v 0.457376 0.023052 0.059301
v 0.457376 0.024403 0.058399
v 0.457376 0.023052 0.059301
v 0.571834 0.024403 0.058399
v 0.457376 0.024403 0.058399
v 0.571834 0.029157 0.050165
v 0.572406 0.000739 0.040139
v 0.571834 0.027297 0.041586
v 0.571834 0.029157 0.050165
v 0.457376 0.027297 0.041586
v 0.457376 0.029157 0.050165
v 0.457376 0.002390 0.050585
v 0.457376 0.029157 0.050165
v 0.457376 0.000728 0.040139
v 0.572050 0.018467 0.060859
v 0.572373 0.002401 0.050585
v 0.572018 0.020060 0.060542
v 0.457376 0.002390 0.050585
v 0.457376 0.021595 0.060020
v 0.457376 0.023052 0.059301
v 0.571834 0.024403 0.058399
v 0.457376 0.023052 0.059301
v 0.571834 0.023052 0.059301
v 0.571834 0.027297 0.041586
v 0.572406 0.000739 0.040139
v 0.571834 0.025772 0.032941
v 0.457376 0.027297 0.041586
v 0.571834 0.029157 0.050165
v 0.571834 0.027297 0.041586
v 0.457376 0.000728 0.040139
v 0.457376 0.029157 0.050165
v 0.457376 0.027297 0.041586
v 0.571834 0.000728 0.040139
v 0.457376 0.002390 0.050585
v 0.457376 0.000728 0.040139
v 0.572083 0.016846 0.060966
v 0.572373 0.002401 0.050585
v 0.572050 0.018467 0.060859
v 0.457376 0.002390 0.050585
v 0.457376 0.020056 0.060542
v 0.457376 0.021595 0.060020
v 0.457376 0.021595 0.060020
v 0.571834 0.023052 0.059301
v 0.457376 0.023052 0.059301
v 0.571834 0.025772 0.032941
v 0.572406 0.000739 0.040139
v 0.572432 -0.000556 0.029642
v 0.457376 0.025772 0.032941
v 0.571834 0.027297 0.041586
v 0.571834 0.025772 0.032941
v 0.571834 0.027297 0.041586
v 0.457376 0.025772 0.032941
v 0.457376 0.027297 0.041586
v 0.457376 0.000728 0.040139
v 0.457376 0.027297 0.041586
v 0.457376 0.025772 0.032941
v 0.457376 0.002390 0.050585
v 0.571834 0.000728 0.040139
v 0.571834 0.002390 0.050585
v 0.457376 0.000728 0.040139
v 0.571834 -0.000568 0.029642
v 0.571834 0.000728 0.040139
v 0.572373 0.002401 0.050585
v 0.572083 0.016846 0.060966
v 0.572332 0.004429 0.060966
v 0.457376 0.002390 0.050585
v 0.457376 0.018462 0.060859
v 0.457376 0.020056 0.060542
v 0.457376 0.020056 0.060542
v 0.571834 0.021595 0.060020
v 0.457376 0.021595 0.060020
v 0.571834 0.023052 0.059301
v 0.457376 0.021595 0.060020
v 0.571834 0.021595 0.060020
v 0.571834 0.025772 0.032941
v 0.572432 -0.000556 0.029642
v 0.571928 0.024585 0.024244
v 0.571834 0.025772 0.032941
v 0.457376 0.024583 0.024244
v 0.457376 0.025772 0.032941
v 0.457376 0.000728 0.040139
v 0.457376 0.025772 0.032941
v 0.457376 -0.000568 0.029642
v 0.571834 0.002390 0.050585
v 0.457376 0.004419 0.060966
v 0.457376 0.002390 0.050585
v 0.571834 -0.000568 0.029642
v 0.457376 0.000728 0.040139
v 0.457376 -0.000568 0.029642
v 0.457376 0.004419 0.060966
v 0.457376 0.018462 0.060859
v 0.457376 0.002390 0.050585
v 0.457376 0.018462 0.060859
v 0.571834 0.020056 0.060542
v 0.457376 0.020056 0.060542
v 0.571834 0.021595 0.060020
v 0.457376 0.020056 0.060542
v 0.571834 0.020056 0.060542
v 0.571928 0.024585 0.024244
v 0.572432 -0.000556 0.029642
v 0.572451 -0.001482 0.019105
v 0.457376 0.024583 0.024244
v 0.571834 0.025772 0.032941
v 0.571834 0.024583 0.024244
v 0.457376 -0.000568 0.029642
v 0.457376 0.025772 0.032941
v 0.457376 0.024583 0.024244
v 0.457376 0.004419 0.060966
v 0.571834 0.002390 0.050585
v 0.571834 0.004419 0.060966
v 0.457376 -0.000568 0.029642
v 0.571834 -0.001494 0.019105
v 0.571834 -0.000568 0.029642
v 0.457376 0.018462 0.060859
v 0.457376 0.004419 0.060966
v 0.457376 0.016841 0.060966
v 0.571834 0.020056 0.060542
v 0.457376 0.018462 0.060859
v 0.571834 0.018462 0.060859
v 0.571928 0.024585 0.024244
v 0.572451 -0.001482 0.019105
v 0.571945 0.023735 0.015507
v 0.571834 0.024583 0.024244
v 0.457376 0.023733 0.015507
v 0.457376 0.024583 0.024244
v 0.457376 -0.000568 0.029642
v 0.457376 0.024583 0.024244
v 0.457376 -0.001494 0.019105
v 0.571834 0.016841 0.060966
v 0.457376 0.004419 0.060966
v 0.571834 0.004419 0.060966
v 0.571834 -0.001494 0.019105
v 0.457376 -0.000568 0.029642
v 0.457376 -0.001494 0.019105
v 0.457376 0.004419 0.060966
v 0.571834 0.016841 0.060966
v 0.457376 0.016841 0.060966
v 0.457376 0.016841 0.060966
v 0.571834 0.018462 0.060859
v 0.457376 0.018462 0.060859
v 0.571945 0.023735 0.015507
v 0.572451 -0.001482 0.019105
v 0.572462 -0.002038 0.008543
v 0.457376 0.023733 0.015507
v 0.571834 0.024583 0.024244
v 0.571834 0.023733 0.015507
v 0.457376 -0.001494 0.019105
v 0.457376 0.024583 0.024244
v 0.457376 0.023733 0.015507
v 0.457376 -0.001494 0.019105
v 0.571834 -0.002051 0.008543
v 0.571834 -0.001494 0.019105
v 0.571834 0.018462 0.060859
v 0.457376 0.016841 0.060966
v 0.571834 0.016841 0.060966
v 0.571945 0.023735 0.015507
v 0.572462 -0.002038 0.008543
v 0.571955 0.023225 0.006744
v 0.571834 0.023733 0.015507
v 0.457376 0.023222 0.006744
v 0.457376 0.023733 0.015507
v 0.457376 -0.001494 0.019105
v 0.457376 0.023733 0.015507
v 0.457376 -0.002051 0.008543
v 0.571834 -0.002051 0.008543
v 0.457376 -0.001494 0.019105
v 0.457376 -0.002051 0.008543
v 0.571955 0.023225 0.006744
v 0.572462 -0.002038 0.008543
v 0.572466 -0.002224 -0.002033
v 0.457376 0.023222 0.006744
v 0.571834 0.023733 0.015507
v 0.571834 0.023222 0.006744
v 0.457376 -0.002051 0.008543
v 0.457376 0.023733 0.015507
v 0.457376 0.023222 0.006744
v 0.457376 -0.002051 0.008543
v 0.571834 -0.002236 -0.002033
v 0.571834 -0.002051 0.008543
v 0.571955 0.023225 0.006744
v 0.572466 -0.002224 -0.002033
v 0.571958 0.023054 -0.002033
v 0.571834 0.023222 0.006744
v 0.457376 0.023052 -0.002033
v 0.457376 0.023222 0.006744
v 0.457376 -0.002051 0.008543
v 0.457376 0.023222 0.006744
v 0.457376 -0.002236 -0.002033
v 0.571834 -0.002236 -0.002033
v 0.457376 -0.002051 0.008543
v 0.457376 -0.002236 -0.002033
v 0.571958 0.023054 -0.002033
v 0.572466 -0.002224 -0.002033
v 0.572462 -0.002038 -0.012608
v 0.457376 0.023052 -0.002033
v 0.571834 0.023222 0.006744
v 0.571834 0.023052 -0.002033
v 0.457376 -0.002236 -0.002033
v 0.457376 0.023222 0.006744
v 0.457376 0.023052 -0.002033
v 0.457376 -0.002236 -0.002033
v 0.571834 -0.002051 -0.012608
v 0.571834 -0.002236 -0.002033
v 0.571958 0.023054 -0.002033
v 0.572462 -0.002038 -0.012608
v 0.571955 0.023225 -0.010809
v 0.571834 0.023052 -0.002033
v 0.457376 0.023222 -0.010809
v 0.457376 0.023052 -0.002033
v 0.457376 -0.002236 -0.002033
v 0.457376 0.023052 -0.002033
v 0.457376 0.023222 -0.010809
v 0.571834 -0.002051 -0.012608
v 0.457376 -0.002236 -0.002033
v 0.457376 -0.002051 -0.012608
v 0.571955 0.023225 -0.010809
v 0.572462 -0.002038 -0.012608
v 0.571945 0.023735 -0.019573
v 0.457376 0.023222 -0.010809
v 0.571834 0.023052 -0.002033
v 0.571834 0.023222 -0.010809
v 0.457376 -0.002236 -0.002033
v 0.457376 0.023222 -0.010809
v 0.457376 -0.002051 -0.012608
v 0.457376 -0.002051 -0.012608
v 0.571834 -0.001494 -0.023171
v 0.571834 -0.002051 -0.012608
v 0.571945 0.023735 -0.019573
v 0.572462 -0.002038 -0.012608
v 0.572451 -0.001482 -0.023171
v 0.571834 0.023222 -0.010809
v 0.457376 0.023733 -0.019573
v 0.457376 0.023222 -0.010809
v 0.457376 -0.002051 -0.012608
v 0.457376 0.023222 -0.010809
v 0.457376 0.023733 -0.019573
v 0.571834 -0.001494 -0.023171
v 0.457376 -0.002051 -0.012608
v 0.457376 -0.001494 -0.023171
v 0.571945 0.023735 -0.019573
v 0.572451 -0.001482 -0.023171
v 0.571928 0.024585 -0.028310
v 0.457376 0.023733 -0.019573
v 0.571834 0.023222 -0.010809
v 0.571834 0.023733 -0.019573
v 0.457376 -0.002051 -0.012608
v 0.457376 0.023733 -0.019573
v 0.457376 -0.001494 -0.023171
v 0.457376 -0.001494 -0.023171
v 0.571834 -0.000568 -0.033707
v 0.571834 -0.001494 -0.023171
v 0.571928 0.024585 -0.028310
v 0.572451 -0.001482 -0.023171
v 0.572432 -0.000556 -0.033707
v 0.571834 0.023733 -0.019573
v 0.457376 0.024583 -0.028310
v 0.457376 0.023733 -0.019573
v 0.457376 -0.001494 -0.023171
v 0.457376 0.023733 -0.019573
v 0.457376 0.024583 -0.028310
v 0.571834 -0.000568 -0.033707
v 0.457376 -0.001494 -0.023171
v 0.457376 -0.000568 -0.033707
v 0.571928 0.024585 -0.028310
v 0.572432 -0.000556 -0.033707
v 0.571834 0.025772 -0.037007
v 0.457376 0.024583 -0.028310
v 0.571834 0.023733 -0.019573
v 0.571834 0.024583 -0.028310
v 0.457376 -0.001494 -0.023171
v 0.457376 0.024583 -0.028310
v 0.457376 -0.000568 -0.033707
v 0.457376 -0.000568 -0.033707
v 0.571834 0.000728 -0.044205
v 0.571834 -0.000568 -0.033707
v 0.571834 0.025772 -0.037007
v 0.572432 -0.000556 -0.033707
v 0.572406 0.000739 -0.044205
v 0.571834 0.024583 -0.028310
v 0.457376 0.025772 -0.037007
v 0.457376 0.024583 -0.028310
v 0.457376 -0.000568 -0.033707
v 0.457376 0.024583 -0.028310
v 0.457376 0.025772 -0.037007
v 0.571834 0.000728 -0.044205
v 0.457376 -0.000568 -0.033707
v 0.457376 0.000728 -0.044205
v 0.571834 0.025772 -0.037007
v 0.572406 0.000739 -0.044205
v 0.571834 0.027297 -0.045652
v 0.457376 0.025772 -0.037007
v 0.571834 0.024583 -0.028310
v 0.571834 0.025772 -0.037007
v 0.457376 -0.000568 -0.033707
v 0.457376 0.025772 -0.037007
v 0.457376 0.000728 -0.044205
v 0.457376 0.000728 -0.044205
v 0.571834 0.002390 -0.054650
v 0.571834 0.000728 -0.044205
v 0.571834 0.027297 -0.045652
v 0.572406 0.000739 -0.044205
v 0.572373 0.002401 -0.054650
v 0.457376 0.027297 -0.045652
v 0.571834 0.025772 -0.037007
v 0.571834 0.027297 -0.045652
v 0.571834 0.025772 -0.037007
v 0.457376 0.027297 -0.045652
v 0.457376 0.025772 -0.037007
v 0.457376 0.000728 -0.044205
v 0.457376 0.025772 -0.037007
v 0.457376 0.027297 -0.045652
v 0.571834 0.002390 -0.054650
v 0.457376 0.000728 -0.044205
v 0.457376 0.002390 -0.054650
v 0.571834 0.027297 -0.045652
v 0.572373 0.002401 -0.054650
v 0.571834 0.029157 -0.054231
v 0.571834 0.027297 -0.045652
v 0.457376 0.029157 -0.054231
v 0.457376 0.027297 -0.045652
v 0.457376 0.000728 -0.044205
v 0.457376 0.027297 -0.045652
v 0.457376 0.002390 -0.054650
v 0.457376 0.002390 -0.054650
v 0.571834 0.004419 -0.065031
v 0.571834 0.002390 -0.054650
v 0.571834 0.029157 -0.054231
v 0.572373 0.002401 -0.054650
v 0.571834 0.028840 -0.055824
v 0.457376 0.029157 -0.054231
v 0.571834 0.027297 -0.045652
v 0.571834 0.029157 -0.054231
v 0.457376 0.002390 -0.054650
v 0.457376 0.027297 -0.045652
v 0.457376 0.029157 -0.054231
v 0.571834 0.004419 -0.065031
v 0.457376 0.002390 -0.054650
v 0.457376 0.004419 -0.065031
v 0.571834 0.028840 -0.055824
v 0.572373 0.002401 -0.054650
v 0.572332 0.004429 -0.065031
v 0.457376 0.028840 -0.055824
v 0.571834 0.029157 -0.054231
v 0.571834 0.028840 -0.055824
v 0.571834 0.029157 -0.054231
v 0.457376 0.028840 -0.055824
v 0.457376 0.029157 -0.054231
v 0.457376 0.002390 -0.054650
v 0.457376 0.029157 -0.054231
v 0.457376 0.028840 -0.055824
v 0.457376 0.002390 -0.054650
v 0.457376 0.028840 -0.055824
v 0.457376 0.004419 -0.065031
v 0.457376 0.016841 -0.065031
v 0.571834 0.004419 -0.065031
v 0.457376 0.004419 -0.065031
v 0.572050 0.018467 -0.064925
v 0.572332 0.004429 -0.065031
v 0.572083 0.016846 -0.065031
v 0.571834 0.028840 -0.055824
v 0.572332 0.004429 -0.065031
v 0.571834 0.028317 -0.057363
v 0.571834 0.028840 -0.055824
v 0.457376 0.028317 -0.057363
v 0.457376 0.028840 -0.055824
v 0.457376 0.004419 -0.065031
v 0.457376 0.028840 -0.055824
v 0.457376 0.028317 -0.057363
v 0.571834 0.004419 -0.065031
v 0.457376 0.016841 -0.065031
v 0.571834 0.016841 -0.065031
v 0.457376 0.004419 -0.065031
v 0.457376 0.018462 -0.064925
v 0.457376 0.016841 -0.065031
v 0.572018 0.020060 -0.064608
v 0.572332 0.004429 -0.065031
v 0.572050 0.018467 -0.064925
v 0.571834 0.028317 -0.057363
v 0.572332 0.004429 -0.065031
v 0.571834 0.027599 -0.058820
v 0.457376 0.028317 -0.057363
v 0.571834 0.028840 -0.055824
v 0.571834 0.028317 -0.057363
v 0.457376 0.004419 -0.065031
v 0.457376 0.028317 -0.057363
v 0.457376 0.027599 -0.058820
v 0.457376 0.018462 -0.064925
v 0.571834 0.016841 -0.065031
v 0.457376 0.016841 -0.065031
v 0.457376 0.004419 -0.065031
v 0.457376 0.020056 -0.064608
v 0.457376 0.018462 -0.064925
v 0.571988 0.021598 -0.064086
v 0.572332 0.004429 -0.065031
v 0.572018 0.020060 -0.064608
v 0.571834 0.027599 -0.058820
v 0.572332 0.004429 -0.065031
v 0.571834 0.026696 -0.060171
v 0.457376 0.027599 -0.058820
v 0.571834 0.028317 -0.057363
v 0.571834 0.027599 -0.058820
v 0.571834 0.028317 -0.057363
v 0.457376 0.027599 -0.058820
v 0.457376 0.028317 -0.057363
v 0.457376 0.004419 -0.065031
v 0.457376 0.027599 -0.058820
v 0.457376 0.026696 -0.060171
v 0.571834 0.016841 -0.065031
v 0.457376 0.018462 -0.064925
v 0.571834 0.018462 -0.064925
v 0.457376 0.004419 -0.065031
v 0.457376 0.021595 -0.064086
v 0.457376 0.020056 -0.064608
v 0.457376 0.020056 -0.064608
v 0.571834 0.018462 -0.064925
v 0.457376 0.018462 -0.064925
v 0.571958 0.023054 -0.063367
v 0.572332 0.004429 -0.065031
v 0.571988 0.021598 -0.064086
v 0.571834 0.026696 -0.060171
v 0.572332 0.004429 -0.065031
v 0.571834 0.025625 -0.061393
v 0.457376 0.026696 -0.060171
v 0.571834 0.027599 -0.058820
v 0.571834 0.026696 -0.060171
v 0.571834 0.027599 -0.058820
v 0.457376 0.026696 -0.060171
v 0.457376 0.027599 -0.058820
v 0.457376 0.004419 -0.065031
v 0.457376 0.026696 -0.060171
v 0.457376 0.025625 -0.061393
v 0.457376 0.004419 -0.065031
v 0.457376 0.023052 -0.063367
v 0.457376 0.021595 -0.064086
v 0.457376 0.021595 -0.064086
v 0.571834 0.020056 -0.064608
v 0.457376 0.020056 -0.064608
v 0.571834 0.018462 -0.064925
v 0.457376 0.020056 -0.064608
v 0.571834 0.020056 -0.064608
v 0.571931 0.024405 -0.062464
v 0.572332 0.004429 -0.065031
v 0.571958 0.023054 -0.063367
v 0.571834 0.025625 -0.061393
v 0.572332 0.004429 -0.065031
v 0.571931 0.024405 -0.062464
v 0.457376 0.025625 -0.061393
v 0.571834 0.026696 -0.060171
v 0.571834 0.025625 -0.061393
v 0.571834 0.026696 -0.060171
v 0.457376 0.025625 -0.061393
v 0.457376 0.026696 -0.060171
v 0.457376 0.004419 -0.065031
v 0.457376 0.025625 -0.061393
v 0.457376 0.024403 -0.062464
v 0.457376 0.004419 -0.065031
v 0.457376 0.024403 -0.062464
v 0.457376 0.023052 -0.063367
v 0.457376 0.023052 -0.063367
v 0.571834 0.021595 -0.064086
v 0.457376 0.021595 -0.064086
v 0.571834 0.020056 -0.064608
v 0.457376 0.021595 -0.064086
v 0.571834 0.021595 -0.064086
v 0.571834 0.024403 -0.062464
v 0.457376 0.025625 -0.061393
v 0.571834 0.025625 -0.061393
v 0.457376 0.025625 -0.061393
v 0.571834 0.024403 -0.062464
v 0.457376 0.024403 -0.062464
v 0.457376 0.024403 -0.062464
v 0.571834 0.023052 -0.063367
v 0.457376 0.023052 -0.063367
v 0.571834 0.021595 -0.064086
v 0.457376 0.023052 -0.063367
v 0.571834 0.023052 -0.063367
v 0.571834 0.023052 -0.063367
v 0.457376 0.024403 -0.062464
v 0.571834 0.024403 -0.062464
v 0.571834 0.027599 0.054755
v 0.572373 0.002401 0.050585
v 0.571834 0.026696 0.056106
v 0.571834 0.027599 0.054755
v 0.571834 0.026696 0.056106
v 0.457376 0.027599 0.054755
v 0.571834 0.026696 0.056106
v 0.572373 0.002401 0.050585
v 0.571834 0.025625 0.057327
v 0.571834 0.026696 0.056106
v 0.571834 0.025625 0.057327
v 0.457376 0.026696 0.056106
v 0.571834 0.028317 0.053297
v 0.572373 0.002401 0.050585
v 0.571834 0.027599 0.054755
v 0.457376 0.026696 0.056106
v 0.457376 0.027599 0.054755
v 0.571834 0.026696 0.056106
v 0.457376 0.027599 0.054755
v 0.457376 0.028317 0.053297
v 0.571834 0.027599 0.054755
v 0.571834 0.025625 0.057327
v 0.572373 0.002401 0.050585
v 0.571931 0.024405 0.058399
v 0.457376 0.025625 0.057327
v 0.457376 0.026696 0.056106
v 0.571834 0.025625 0.057327
v 0.571834 0.028840 0.051759
v 0.572373 0.002401 0.050585
v 0.571834 0.028317 0.053297
v 0.571834 0.028317 0.053297
v 0.571834 0.027599 0.054755
v 0.457376 0.028317 0.053297
v 0.457376 0.027599 0.054755
v 0.457376 0.026696 0.056106
v 0.457376 0.002390 0.050585
v 0.457376 0.028317 0.053297
v 0.457376 0.027599 0.054755
v 0.457376 0.002390 0.050585
v 0.571931 0.024405 0.058399
v 0.572373 0.002401 0.050585
v 0.571958 0.023054 0.059301
v 0.457376 0.026696 0.056106
v 0.457376 0.025625 0.057327
v 0.457376 0.002390 0.050585
v 0.457376 0.025625 0.057327
v 0.571834 0.025625 0.057327
v 0.457376 0.024403 0.058399
v 0.571834 0.029157 0.050165
v 0.572373 0.002401 0.050585
v 0.571834 0.028840 0.051759
v 0.571834 0.028840 0.051759
v 0.571834 0.028317 0.053297
v 0.457376 0.028840 0.051759
v 0.457376 0.028317 0.053297
v 0.457376 0.028840 0.051759
v 0.571834 0.028317 0.053297
v 0.457376 0.028840 0.051759
v 0.457376 0.028317 0.053297
v 0.457376 0.002390 0.050585
v 0.571958 0.023054 0.059301
v 0.572373 0.002401 0.050585
v 0.571988 0.021598 0.060020
v 0.457376 0.025625 0.057327
v 0.457376 0.024403 0.058399
v 0.457376 0.002390 0.050585
v 0.571834 0.024403 0.058399
v 0.457376 0.024403 0.058399
v 0.571834 0.025625 0.057327
v 0.572406 0.000739 0.040139
v 0.572373 0.002401 0.050585
v 0.571834 0.029157 0.050165
v 0.571834 0.029157 0.050165
v 0.571834 0.028840 0.051759
v 0.457376 0.029157 0.050165
v 0.457376 0.028840 0.051759
v 0.457376 0.029157 0.050165
v 0.571834 0.028840 0.051759
v 0.457376 0.029157 0.050165
v 0.457376 0.028840 0.051759
v 0.457376 0.002390 0.050585
v 0.571988 0.021598 0.060020
v 0.572373 0.002401 0.050585
v 0.572018 0.020060 0.060542
v 0.457376 0.024403 0.058399
v 0.457376 0.023052 0.059301
v 0.457376 0.002390 0.050585
v 0.457376 0.024403 0.058399
v 0.571834 0.024403 0.058399
v 0.457376 0.023052 0.059301
v 0.571834 0.027297 0.041586
v 0.572406 0.000739 0.040139
v 0.571834 0.029157 0.050165
v 0.457376 0.029157 0.050165
v 0.457376 0.027297 0.041586
v 0.571834 0.029157 0.050165
v 0.457376 0.000728 0.040139
v 0.457376 0.029157 0.050165
v 0.457376 0.002390 0.050585
v 0.572018 0.020060 0.060542
v 0.572373 0.002401 0.050585
v 0.572050 0.018467 0.060859
v 0.457376 0.023052 0.059301
v 0.457376 0.021595 0.060020
v 0.457376 0.002390 0.050585
v 0.571834 0.023052 0.059301
v 0.457376 0.023052 0.059301
v 0.571834 0.024403 0.058399
v 0.571834 0.025772 0.032941
v 0.572406 0.000739 0.040139
v 0.571834 0.027297 0.041586
v 0.571834 0.027297 0.041586
v 0.571834 0.029157 0.050165
v 0.457376 0.027297 0.041586
v 0.457376 0.027297 0.041586
v 0.457376 0.029157 0.050165
v 0.457376 0.000728 0.040139
v 0.457376 0.000728 0.040139
v 0.457376 0.002390 0.050585
v 0.571834 0.000728 0.040139
v 0.572050 0.018467 0.060859
v 0.572373 0.002401 0.050585
v 0.572083 0.016846 0.060966
v 0.457376 0.021595 0.060020
v 0.457376 0.020056 0.060542
v 0.457376 0.002390 0.050585
v 0.457376 0.023052 0.059301
v 0.571834 0.023052 0.059301
v 0.457376 0.021595 0.060020
v 0.572432 -0.000556 0.029642
v 0.572406 0.000739 0.040139
v 0.571834 0.025772 0.032941
v 0.571834 0.025772 0.032941
v 0.571834 0.027297 0.041586
v 0.457376 0.025772 0.032941
v 0.457376 0.027297 0.041586
v 0.457376 0.025772 0.032941
v 0.571834 0.027297 0.041586
v 0.457376 0.025772 0.032941
v 0.457376 0.027297 0.041586
v 0.457376 0.000728 0.040139
v 0.571834 0.002390 0.050585
v 0.571834 0.000728 0.040139
v 0.457376 0.002390 0.050585
v 0.571834 0.000728 0.040139
v 0.571834 -0.000568 0.029642
v 0.457376 0.000728 0.040139
v 0.572332 0.004429 0.060966
v 0.572083 0.016846 0.060966
v 0.572373 0.002401 0.050585
v 0.457376 0.020056 0.060542
v 0.457376 0.018462 0.060859
v 0.457376 0.002390 0.050585
v 0.457376 0.021595 0.060020
v 0.571834 0.021595 0.060020
v 0.457376 0.020056 0.060542
v 0.571834 0.021595 0.060020
v 0.457376 0.021595 0.060020
v 0.571834 0.023052 0.059301
v 0.571928 0.024585 0.024244
v 0.572432 -0.000556 0.029642
v 0.571834 0.025772 0.032941
v 0.457376 0.025772 0.032941
v 0.457376 0.024583 0.024244
v 0.571834 0.025772 0.032941
v 0.457376 -0.000568 0.029642
v 0.457376 0.025772 0.032941
v 0.457376 0.000728 0.040139
v 0.457376 0.002390 0.050585
v 0.457376 0.004419 0.060966
v 0.571834 0.002390 0.050585
v 0.457376 -0.000568 0.029642
v 0.457376 0.000728 0.040139
v 0.571834 -0.000568 0.029642
v 0.457376 0.002390 0.050585
v 0.457376 0.018462 0.060859
v 0.457376 0.004419 0.060966
v 0.457376 0.020056 0.060542
v 0.571834 0.020056 0.060542
v 0.457376 0.018462 0.060859
v 0.571834 0.020056 0.060542
v 0.457376 0.020056 0.060542
v 0.571834 0.021595 0.060020
v 0.572451 -0.001482 0.019105
v 0.572432 -0.000556 0.029642
v 0.571928 0.024585 0.024244
v 0.571834 0.024583 0.024244
v 0.571834 0.025772 0.032941
v 0.457376 0.024583 0.024244
v 0.457376 0.024583 0.024244
v 0.457376 0.025772 0.032941
v 0.457376 -0.000568 0.029642
v 0.571834 0.004419 0.060966
v 0.571834 0.002390 0.050585
v 0.457376 0.004419 0.060966
v 0.571834 -0.000568 0.029642
v 0.571834 -0.001494 0.019105
v 0.457376 -0.000568 0.029642
v 0.457376 0.016841 0.060966
v 0.457376 0.004419 0.060966
v 0.457376 0.018462 0.060859
v 0.571834 0.018462 0.060859
v 0.457376 0.018462 0.060859
v 0.571834 0.020056 0.060542
v 0.571945 0.023735 0.015507
v 0.572451 -0.001482 0.019105
v 0.571928 0.024585 0.024244
v 0.457376 0.024583 0.024244
v 0.457376 0.023733 0.015507
v 0.571834 0.024583 0.024244
v 0.457376 -0.001494 0.019105
v 0.457376 0.024583 0.024244
v 0.457376 -0.000568 0.029642
v 0.571834 0.004419 0.060966
v 0.457376 0.004419 0.060966
v 0.571834 0.016841 0.060966
v 0.457376 -0.001494 0.019105
v 0.457376 -0.000568 0.029642
v 0.571834 -0.001494 0.019105
v 0.457376 0.016841 0.060966
v 0.571834 0.016841 0.060966
v 0.457376 0.004419 0.060966
v 0.457376 0.018462 0.060859
v 0.571834 0.018462 0.060859
v 0.457376 0.016841 0.060966
v 0.572462 -0.002038 0.008543
v 0.572451 -0.001482 0.019105
v 0.571945 0.023735 0.015507
v 0.571834 0.023733 0.015507
v 0.571834 0.024583 0.024244
v 0.457376 0.023733 0.015507
v 0.457376 0.023733 0.015507
v 0.457376 0.024583 0.024244
v 0.457376 -0.001494 0.019105
v 0.571834 -0.001494 0.019105
v 0.571834 -0.002051 0.008543
v 0.457376 -0.001494 0.019105
v 0.571834 0.016841 0.060966
v 0.457376 0.016841 0.060966
v 0.571834 0.018462 0.060859
v 0.571955 0.023225 0.006744
v 0.572462 -0.002038 0.008543
v 0.571945 0.023735 0.015507
v 0.457376 0.023733 0.015507
v 0.457376 0.023222 0.006744
v 0.571834 0.023733 0.015507
v 0.457376 -0.002051 0.008543
v 0.457376 0.023733 0.015507
v 0.457376 -0.001494 0.019105
v 0.457376 -0.002051 0.008543
v 0.457376 -0.001494 0.019105
v 0.571834 -0.002051 0.008543
v 0.572466 -0.002224 -0.002033
v 0.572462 -0.002038 0.008543
v 0.571955 0.023225 0.006744
v 0.571834 0.023222 0.006744
v 0.571834 0.023733 0.015507
v 0.457376 0.023222 0.006744
v 0.457376 0.023222 0.006744
v 0.457376 0.023733 0.015507
v 0.457376 -0.002051 0.008543
v 0.571834 -0.002051 0.008543
v 0.571834 -0.002236 -0.002033
v 0.457376 -0.002051 0.008543
v 0.571958 0.023054 -0.002033
v 0.572466 -0.002224 -0.002033
v 0.571955 0.023225 0.006744
v 0.457376 0.023222 0.006744
v 0.457376 0.023052 -0.002033
v 0.571834 0.023222 0.006744
v 0.457376 -0.002236 -0.002033
v 0.457376 0.023222 0.006744
v 0.457376 -0.002051 0.008543
v 0.457376 -0.002236 -0.002033
v 0.457376 -0.002051 0.008543
v 0.571834 -0.002236 -0.002033
v 0.572462 -0.002038 -0.012608
v 0.572466 -0.002224 -0.002033
v 0.571958 0.023054 -0.002033
v 0.571834 0.023052 -0.002033
v 0.571834 0.023222 0.006744
v 0.457376 0.023052 -0.002033
v 0.457376 0.023052 -0.002033
v 0.457376 0.023222 0.006744
v 0.457376 -0.002236 -0.002033
v 0.571834 -0.002236 -0.002033
v 0.571834 -0.002051 -0.012608
v 0.457376 -0.002236 -0.002033
v 0.571955 0.023225 -0.010809
v 0.572462 -0.002038 -0.012608
v 0.571958 0.023054 -0.002033
v 0.457376 0.023052 -0.002033
v 0.457376 0.023222 -0.010809
v 0.571834 0.023052 -0.002033
v 0.457376 0.023222 -0.010809
v 0.457376 0.023052 -0.002033
v 0.457376 -0.002236 -0.002033
v 0.457376 -0.002051 -0.012608
v 0.457376 -0.002236 -0.002033
v 0.571834 -0.002051 -0.012608
v 0.571945 0.023735 -0.019573
v 0.572462 -0.002038 -0.012608
v 0.571955 0.023225 -0.010809
v 0.571834 0.023222 -0.010809
v 0.571834 0.023052 -0.002033
v 0.457376 0.023222 -0.010809
v 0.457376 -0.002051 -0.012608
v 0.457376 0.023222 -0.010809
v 0.457376 -0.002236 -0.002033
v 0.571834 -0.002051 -0.012608
v 0.571834 -0.001494 -0.023171
v 0.457376 -0.002051 -0.012608
v 0.572451 -0.001482 -0.023171
v 0.572462 -0.002038 -0.012608
v 0.571945 0.023735 -0.019573
v 0.457376 0.023222 -0.010809
v 0.457376 0.023733 -0.019573
v 0.571834 0.023222 -0.010809
v 0.457376 0.023733 -0.019573
v 0.457376 0.023222 -0.010809
v 0.457376 -0.002051 -0.012608
v 0.457376 -0.001494 -0.023171
v 0.457376 -0.002051 -0.012608
v 0.571834 -0.001494 -0.023171
v 0.571928 0.024585 -0.028310
v 0.572451 -0.001482 -0.023171
v 0.571945 0.023735 -0.019573
v 0.571834 0.023733 -0.019573
v 0.571834 0.023222 -0.010809
v 0.457376 0.023733 -0.019573
v 0.457376 -0.001494 -0.023171
v 0.457376 0.023733 -0.019573
v 0.457376 -0.002051 -0.012608
v 0.571834 -0.001494 -0.023171
v 0.571834 -0.000568 -0.033707
v 0.457376 -0.001494 -0.023171
v 0.572432 -0.000556 -0.033707
v 0.572451 -0.001482 -0.023171
v 0.571928 0.024585 -0.028310
v 0.457376 0.023733 -0.019573
v 0.457376 0.024583 -0.028310
v 0.571834 0.023733 -0.019573
v 0.457376 0.024583 -0.028310
v 0.457376 0.023733 -0.019573
v 0.457376 -0.001494 -0.023171
v 0.457376 -0.000568 -0.033707
v 0.457376 -0.001494 -0.023171
v 0.571834 -0.000568 -0.033707
v 0.571834 0.025772 -0.037007
v 0.572432 -0.000556 -0.033707
v 0.571928 0.024585 -0.028310
v 0.571834 0.024583 -0.028310
v 0.571834 0.023733 -0.019573
v 0.457376 0.024583 -0.028310
v 0.457376 -0.000568 -0.033707
v 0.457376 0.024583 -0.028310
v 0.457376 -0.001494 -0.023171
v 0.571834 -0.000568 -0.033707
v 0.571834 0.000728 -0.044205
v 0.457376 -0.000568 -0.033707
v 0.572406 0.000739 -0.044205
v 0.572432 -0.000556 -0.033707
v 0.571834 0.025772 -0.037007
v 0.457376 0.024583 -0.028310
v 0.457376 0.025772 -0.037007
v 0.571834 0.024583 -0.028310
v 0.457376 0.025772 -0.037007
v 0.457376 0.024583 -0.028310
v 0.457376 -0.000568 -0.033707
v 0.457376 0.000728 -0.044205
v 0.457376 -0.000568 -0.033707
v 0.571834 0.000728 -0.044205
v 0.571834 0.027297 -0.045652
v 0.572406 0.000739 -0.044205
v 0.571834 0.025772 -0.037007
v 0.571834 0.025772 -0.037007
v 0.571834 0.024583 -0.028310
v 0.457376 0.025772 -0.037007
v 0.457376 0.000728 -0.044205
v 0.457376 0.025772 -0.037007
v 0.457376 -0.000568 -0.033707
v 0.571834 0.000728 -0.044205
v 0.571834 0.002390 -0.054650
v 0.457376 0.000728 -0.044205
v 0.572373 0.002401 -0.054650
v 0.572406 0.000739 -0.044205
v 0.571834 0.027297 -0.045652
v 0.571834 0.027297 -0.045652
v 0.571834 0.025772 -0.037007
v 0.457376 0.027297 -0.045652
v 0.457376 0.025772 -0.037007
v 0.457376 0.027297 -0.045652
v 0.571834 0.025772 -0.037007
v 0.457376 0.027297 -0.045652
v 0.457376 0.025772 -0.037007
v 0.457376 0.000728 -0.044205
v 0.457376 0.002390 -0.054650
v 0.457376 0.000728 -0.044205
v 0.571834 0.002390 -0.054650
v 0.571834 0.029157 -0.054231
v 0.572373 0.002401 -0.054650
v 0.571834 0.027297 -0.045652
v 0.457376 0.027297 -0.045652
v 0.457376 0.029157 -0.054231
v 0.571834 0.027297 -0.045652
v 0.457376 0.002390 -0.054650
v 0.457376 0.027297 -0.045652
v 0.457376 0.000728 -0.044205
v 0.571834 0.002390 -0.054650
v 0.571834 0.004419 -0.065031
v 0.457376 0.002390 -0.054650
v 0.571834 0.028840 -0.055824
v 0.572373 0.002401 -0.054650
v 0.571834 0.029157 -0.054231
v 0.571834 0.029157 -0.054231
v 0.571834 0.027297 -0.045652
v 0.457376 0.029157 -0.054231
v 0.457376 0.029157 -0.054231
v 0.457376 0.027297 -0.045652
v 0.457376 0.002390 -0.054650
v 0.457376 0.004419 -0.065031
v 0.457376 0.002390 -0.054650
v 0.571834 0.004419 -0.065031
v 0.572332 0.004429 -0.065031
v 0.572373 0.002401 -0.054650
v 0.571834 0.028840 -0.055824
v 0.571834 0.028840 -0.055824
v 0.571834 0.029157 -0.054231
v 0.457376 0.028840 -0.055824
v 0.457376 0.029157 -0.054231
v 0.457376 0.028840 -0.055824
v 0.571834 0.029157 -0.054231
v 0.457376 0.028840 -0.055824
v 0.457376 0.029157 -0.054231
v 0.457376 0.002390 -0.054650
v 0.457376 0.004419 -0.065031
v 0.457376 0.028840 -0.055824
v 0.457376 0.002390 -0.054650
v 0.457376 0.004419 -0.065031
v 0.571834 0.004419 -0.065031
v 0.457376 0.016841 -0.065031
v 0.572083 0.016846 -0.065031
v 0.572332 0.004429 -0.065031
v 0.572050 0.018467 -0.064925
v 0.571834 0.028317 -0.057363
v 0.572332 0.004429 -0.065031
v 0.571834 0.028840 -0.055824
v 0.457376 0.028840 -0.055824
v 0.457376 0.028317 -0.057363
v 0.571834 0.028840 -0.055824
v 0.457376 0.028317 -0.057363
v 0.457376 0.028840 -0.055824
v 0.457376 0.004419 -0.065031
v 0.571834 0.016841 -0.065031
v 0.457376 0.016841 -0.065031
v 0.571834 0.004419 -0.065031
v 0.457376 0.016841 -0.065031
v 0.457376 0.018462 -0.064925
v 0.457376 0.004419 -0.065031
v 0.572050 0.018467 -0.064925
v 0.572332 0.004429 -0.065031
v 0.572018 0.020060 -0.064608
v 0.571834 0.027599 -0.058820
v 0.572332 0.004429 -0.065031
v 0.571834 0.028317 -0.057363
v 0.571834 0.028317 -0.057363
v 0.571834 0.028840 -0.055824
v 0.457376 0.028317 -0.057363
v 0.457376 0.027599 -0.058820
v 0.457376 0.028317 -0.057363
v 0.457376 0.004419 -0.065031
v 0.457376 0.016841 -0.065031
v 0.571834 0.016841 -0.065031
v 0.457376 0.018462 -0.064925
v 0.457376 0.018462 -0.064925
v 0.457376 0.020056 -0.064608
v 0.457376 0.004419 -0.065031
v 0.572018 0.020060 -0.064608
v 0.572332 0.004429 -0.065031
v 0.571988 0.021598 -0.064086
v 0.571834 0.026696 -0.060171
v 0.572332 0.004429 -0.065031
v 0.571834 0.027599 -0.058820
v 0.571834 0.027599 -0.058820
v 0.571834 0.028317 -0.057363
v 0.457376 0.027599 -0.058820
v 0.457376 0.028317 -0.057363
v 0.457376 0.027599 -0.058820
v 0.571834 0.028317 -0.057363
v 0.457376 0.026696 -0.060171
v 0.457376 0.027599 -0.058820
v 0.457376 0.004419 -0.065031
v 0.571834 0.018462 -0.064925
v 0.457376 0.018462 -0.064925
v 0.571834 0.016841 -0.065031
v 0.457376 0.020056 -0.064608
v 0.457376 0.021595 -0.064086
v 0.457376 0.004419 -0.065031
v 0.457376 0.018462 -0.064925
v 0.571834 0.018462 -0.064925
v 0.457376 0.020056 -0.064608
v 0.571988 0.021598 -0.064086
v 0.572332 0.004429 -0.065031
v 0.571958 0.023054 -0.063367
v 0.571834 0.025625 -0.061393
v 0.572332 0.004429 -0.065031
v 0.571834 0.026696 -0.060171
v 0.571834 0.026696 -0.060171
v 0.571834 0.027599 -0.058820
v 0.457376 0.026696 -0.060171
v 0.457376 0.027599 -0.058820
v 0.457376 0.026696 -0.060171
v 0.571834 0.027599 -0.058820
v 0.457376 0.025625 -0.061393
v 0.457376 0.026696 -0.060171
v 0.457376 0.004419 -0.065031
v 0.457376 0.021595 -0.064086
v 0.457376 0.023052 -0.063367
v 0.457376 0.004419 -0.065031
v 0.457376 0.020056 -0.064608
v 0.571834 0.020056 -0.064608
v 0.457376 0.021595 -0.064086
v 0.571834 0.020056 -0.064608
v 0.457376 0.020056 -0.064608
v 0.571834 0.018462 -0.064925
v 0.571958 0.023054 -0.063367
v 0.572332 0.004429 -0.065031
v 0.571931 0.024405 -0.062464
v 0.571931 0.024405 -0.062464
v 0.572332 0.004429 -0.065031
v 0.571834 0.025625 -0.061393
v 0.571834 0.025625 -0.061393
v 0.571834 0.026696 -0.060171
v 0.457376 0.025625 -0.061393
v 0.457376 0.026696 -0.060171
v 0.457376 0.025625 -0.061393
v 0.571834 0.026696 -0.060171
v 0.457376 0.024403 -0.062464
v 0.457376 0.025625 -0.061393
v 0.457376 0.004419 -0.065031
v 0.457376 0.023052 -0.063367
v 0.457376 0.024403 -0.062464
v 0.457376 0.004419 -0.065031
v 0.457376 0.021595 -0.064086
v 0.571834 0.021595 -0.064086
v 0.457376 0.023052 -0.063367
v 0.571834 0.021595 -0.064086
v 0.457376 0.021595 -0.064086
v 0.571834 0.020056 -0.064608
v 0.571834 0.025625 -0.061393
v 0.457376 0.025625 -0.061393
v 0.571834 0.024403 -0.062464
v 0.457376 0.024403 -0.062464
v 0.571834 0.024403 -0.062464
v 0.457376 0.025625 -0.061393
v 0.457376 0.023052 -0.063367
v 0.571834 0.023052 -0.063367
v 0.457376 0.024403 -0.062464
v 0.571834 0.023052 -0.063367
v 0.457376 0.023052 -0.063367
v 0.571834 0.021595 -0.064086
v 0.571834 0.024403 -0.062464
v 0.457376 0.024403 -0.062464
v 0.571834 0.023052 -0.063367
vn 0.9997809435946882 0.02092999820628594 0
vn 0 0.8660252955903432 0.5000001873976235
vn 0 0.7933534231507682 0.6087613210240594
vn 0 0.7071067811865475 0.7071067811865477
vn 0 0.9238797479109916 0.382682912343787
vn -1 0 0
vn 0 0.608761321024059 0.7933534231507684
vn 0 0.9659258451755841 0.258818974617074
vn 0 0.9807853326041258 0.19509005958432127
vn 0 0.5000001873976231 0.8660252955903435
vn 0 0.9773065498022601 -0.2118299027842913
vn 0 0.9812327779328431 -0.19282695742607053
vn 0 -0.990169601407456 0.13987194303576225
vn 0 -0.9846543269331176 0.17451606359269423
vn 0 0.38268291234378654 0.9238797479109918
vn 0 0.9879754130459523 -0.1546110708089178
vn 0 -0.9944664090334028 0.10505503940415513
vn 0 0.25881897461707354 0.9659258451755843
vn 0 0.9932301609142083 -0.11616302101071527
vn 0 -0.9814416647733758 0.19176094140065295
vn 0 0.13052599081182464 0.9914448878896857
vn 0 -0.9975394050765983 0.07010802606996179
vn 0 0.9969893180272913 -0.07753902075391693
vn 0 0 1
vn 0 0.06540299498978322 0.9978589320371724
vn 0 -0.9993846482224118 0.03507598747528503
vn 0 0.9992470353274542 -0.038798999849136304
vn 0 -1 0
vn 0 1 0
vn 0 -0.9993846482224118 -0.035075987475285474
vn 0 0.9992470353274542 0.03879899984913675
vn 0 -0.9975394050765983 -0.07010802606996223
vn 0 0.9969893180272913 0.07753902075391737
vn 0 -0.9944664090334028 -0.10505503940415557
vn 0 0.9932301609142083 0.11616302101071571
vn 0 -0.990169601407456 -0.1398719430357627
vn 0 0.9879754130459523 0.15461107080891826
vn 0 -0.9846543269331174 -0.17451606359269464
vn 0 0.9812327779328431 0.19282695742607098
vn 0 0.9773065498022601 0.21182990278429176
vn 0 -0.9814416647733758 -0.1917609414006534
vn 0 0.9659258451755843 -0.25881897461707354
vn 0 0.980785332604126 -0.19509005958432085
vn 0 0 -1
vn 0 0.9238797479109918 -0.38268291234378654
vn 0 0.1305259908118251 -0.9914448878896857
vn 0 0.06540299498978366 -0.9978589320371724
vn 0 0.8660252955903435 -0.5000001873976231
vn 0 0.258818974617074 -0.9659258451755841
vn 0 0.7933534231507684 -0.608761321024059
vn 0 0.382682912343787 -0.9238797479109916
vn 0 0.7071067811865477 -0.7071067811865475
vn 0 0.5000001873976235 -0.8660252955903432
vn 0 0.6087613210240594 -0.7933534231507682
vn -0.9997809435946882 -0.02092999820628594 0
vn 0 -0.8660252955903432 -0.5000001873976235
vn 0 -0.7933534231507682 -0.6087613210240594
vn 0 -0.7071067811865475 -0.7071067811865477
vn 0 -0.9238797479109916 -0.382682912343787
vn 1 0 0
vn 0 -0.608761321024059 -0.7933534231507684
vn 0 -0.9659258451755841 -0.258818974617074
vn 0 -0.9807853326041258 -0.19509005958432127
vn 0 -0.5000001873976231 -0.8660252955903435
vn 0 -0.9773065498022601 0.2118299027842913
vn 0 -0.9812327779328431 0.19282695742607053
vn 0 0.990169601407456 -0.13987194303576225
vn 0 0.9846543269331176 -0.17451606359269423
vn 0 -0.38268291234378654 -0.9238797479109918
vn 0 -0.9879754130459523 0.1546110708089178
vn 0 0.9944664090334028 -0.10505503940415513
vn 0 -0.25881897461707354 -0.9659258451755843
vn 0 -0.9932301609142083 0.11616302101071527
vn 0 0.9814416647733758 -0.19176094140065295
vn 0 -0.13052599081182464 -0.9914448878896857
vn 0 0.9975394050765983 -0.07010802606996179
vn 0 -0.9969893180272913 0.07753902075391693
vn 0 -0.06540299498978322 -0.9978589320371724
vn 0 0.9993846482224118 -0.03507598747528503
vn 0 -0.9992470353274542 0.038798999849136304
vn 0 0.9993846482224118 0.035075987475285474
vn 0 -0.9992470353274542 -0.03879899984913675
vn 0 0.9975394050765983 0.07010802606996223
vn 0 -0.9969893180272913 -0.07753902075391737
vn 0 0.9944664090334028 0.10505503940415557
vn 0 -0.9932301609142083 -0.11616302101071571
vn 0 0.990169601407456 0.1398719430357627
vn 0 -0.9879754130459523 -0.15461107080891826
vn 0 0.9846543269331174 0.17451606359269464
vn 0 -0.9812327779328431 -0.19282695742607098
vn 0 -0.9773065498022601 -0.21182990278429176
vn 0 0.9814416647733758 0.1917609414006534
vn 0 -0.9659258451755843 0.25881897461707354
vn 0 -0.980785332604126 0.19509005958432085
vn 0 -0.9238797479109918 0.38268291234378654
vn 0 -0.06540299498978366 0.9978589320371724
vn 0 -0.1305259908118251 0.9914448878896857
vn 0 -0.8660252955903435 0.5000001873976231
vn 0 -0.258818974617074 0.9659258451755841
vn 0 -0.7933534231507684 0.608761321024059
vn 0 -0.382682912343787 0.9238797479109916
vn 0 -0.7071067811865477 0.7071067811865475
vn 0 -0.5000001873976235 0.8660252955903432
vn 0 -0.6087613210240594 0.7933534231507682
usemtl material_0_0
f 1//1 2//1 3//1
f 4//2 5//3 6//2
f 7//1 8//1 9//1
f 10//3 11//4 12//3
f 13//1 14//1 15//1
f 16//3 17//2 18//3
f 19//2 20//5 21//2
f 22//1 23//1 24//1
f 25//4 26//3 27//4
f 28//1 29//1 30//1
f 31//5 32//2 33//5
f 34//6 35//6 36//6
f 37//6 38//6 39//6
f 40//1 41//1 42//1
f 43//6 44//6 45//6
f 46//7 47//4 48//4
f 49//1 50//1 51//1
f 52//8 53//5 54//8
f 55//5 56//8 57//5
f 58//6 59//6 60//6
f 61//1 62//1 63//1
f 64//6 65//6 66//6
f 67//4 68//7 69//7
f 70//1 71//1 72//1
f 73//9 74//8 75//9
f 76//8 77//9 78//8
f 79//6 80//6 81//6
f 82//1 83//1 84//1
f 85//6 86//6 87//6
f 88//10 89//7 90//7
f 91//1 92//1 93//1
f 94//11 95//12 96//11
f 97//6 98//6 99//6
f 100//1 101//1 102//1
f 103//6 104//6 105//6
f 106//7 107//10 108//10
f 109//1 110//1 111//1
f 112//12 113//11 114//12
f 115//6 116//6 117//6
f 118//13 119//14 120//13
f 121//1 122//1 123//1
f 124//6 125//6 126//6
f 127//15 128//10 129//10
f 130//1 131//1 132//1
f 133//16 134//12 135//16
f 136//12 137//16 138//12
f 139//6 140//6 141//6
f 142//14 143//13 144//14
f 145//13 146//17 147//13
f 148//1 149//1 150//1
f 151//6 152//6 153//6
f 154//18 155//15 156//15
f 157//10 158//15 159//15
f 160//1 161//1 162//1
f 163//16 164//19 165//16
f 166//6 167//6 168//6
f 169//14 170//20 171//14
f 172//17 173//13 174//17
f 175//6 176//6 177//6
f 178//21 179//18 180//18
f 181//15 182//18 183//18
f 184//1 185//1 186//1
f 187//19 188//16 189//19
f 190//6 191//6 192//6
f 193//20 194//14 195//20
f 196//17 197//22 198//17
f 199//6 200//6 201//6
f 202//18 203//21 204//21
f 205//1 206//1 207//1
f 208//19 209//23 210//19
f 211//6 212//6 213//6
f 214//24 215//24 216//24
f 217//22 218//17 219//22
f 220//24 221//24 222//24
f 223//25 224//21 225//21
f 226//1 227//1 228//1
f 229//23 230//19 231//23
f 232//6 233//6 234//6
f 235//22 236//26 237//22
f 238//21 239//25 240//25
f 241//1 242//1 243//1
f 244//23 245//27 246//23
f 247//6 248//6 249//6
f 250//26 251//22 252//26
f 253//1 254//1 255//1
f 256//27 257//23 258//27
f 259//6 260//6 261//6
f 262//26 263//28 264//26
f 265//1 266//1 267//1
f 268//27 269//29 270//27
f 271//6 272//6 273//6
f 274//28 275//26 276//28
f 277//1 278//1 279//1
f 280//29 281//27 282//29
f 283//6 284//6 285//6
f 286//28 287//30 288//28
f 289//1 290//1 291//1
f 292//29 293//31 294//29
f 295//6 296//6 297//6
f 298//30 299//28 300//30
f 301//1 302//1 303//1
f 304//31 305//29 306//31
f 307//6 308//6 309//6
f 310//30 311//32 312//30
f 313//1 314//1 315//1
f 316//31 317//33 318//31
f 319//6 320//6 321//6
f 322//32 323//30 324//32
f 325//1 326//1 327//1
f 328//33 329//31 330//33
f 331//6 332//6 333//6
f 334//32 335//34 336//32
f 337//1 338//1 339//1
f 340//33 341//35 342//33
f 343//6 344//6 345//6
f 346//34 347//32 348//34
f 349//1 350//1 351//1
f 352//35 353//33 354//35
f 355//6 356//6 357//6
f 358//34 359//36 360//34
f 361//1 362//1 363//1
f 364//35 365//37 366//35
f 367//6 368//6 369//6
f 370//36 371//34 372//36
f 373//1 374//1 375//1
f 376//37 377//35 378//37
f 379//6 380//6 381//6
f 382//36 383//38 384//36
f 385//1 386//1 387//1
f 388//39 389//37 390//39
f 391//37 392//39 393//37
f 394//6 395//6 396//6
f 397//38 398//36 399//38
f 400//1 401//1 402//1
f 403//39 404//40 405//39
f 406//6 407//6 408//6
f 409//38 410//41 411//38
f 412//1 413//1 414//1
f 415//40 416//39 417//40
f 418//6 419//6 420//6
f 421//41 422//38 423//41
f 424//1 425//1 426//1
f 427//42 428//43 429//42
f 430//43 431//42 432//43
f 433//6 434//6 435//6
f 436//6 437//6 438//6
f 439//44 440//44 441//44
f 442//1 443//1 444//1
f 445//1 446//1 447//1
f 448//42 449//45 450//42
f 451//6 452//6 453//6
f 454//44 455//44 456//44
f 457//6 458//6 459//6
f 460//1 461//1 462//1
f 463//1 464//1 465//1
f 466//45 467//42 468//45
f 469//6 470//6 471//6
f 472//46 473//47 474//47
f 475//6 476//6 477//6
f 478//1 479//1 480//1
f 481//1 482//1 483//1
f 484//48 485//45 486//48
f 487//45 488//48 489//45
f 490//6 491//6 492//6
f 493//47 494//46 495//46
f 496//6 497//6 498//6
f 499//49 500//46 501//46
f 502//1 503//1 504//1
f 505//1 506//1 507//1
f 508//50 509//48 510//50
f 511//48 512//50 513//48
f 514//6 515//6 516//6
f 517//6 518//6 519//6
f 520//51 521//49 522//49
f 523//46 524//49 525//49
f 526//1 527//1 528//1
f 529//1 530//1 531//1
f 532//52 533//50 534//52
f 535//50 536//52 537//50
f 538//6 539//6 540//6
f 541//6 542//6 543//6
f 544//53 545//51 546//51
f 547//49 548//51 549//51
f 550//54 551//52 552//52
f 553//52 554//54 555//54
f 556//54 557//53 558//53
f 559//51 560//53 561//53
f 562//53 563//54 564//54
usemtl material_1_0
f 565//55 566//55 567//55
f 568//56 569//57 570//56
f 571//55 572//55 573//55
f 574//57 575//58 576//57
f 577//55 578//55 579//55
f 580//57 581//56 582//57
f 583//56 584//59 585//56
f 586//55 587//55 588//55
f 589//58 590//57 591//58
f 592//55 593//55 594//55
f 595//59 596//56 597//59
f 598//60 599//60 600//60
f 601//60 602//60 603//60
f 604//55 605//55 606//55
f 607//60 608//60 609//60
f 610//58 611//58 612//61
f 613//55 614//55 615//55
f 616//62 617//59 618//62
f 619//59 620//62 621//59
f 622//60 623//60 624//60
f 625//55 626//55 627//55
f 628//60 629//60 630//60
f 631//61 632//61 633//58
f 634//55 635//55 636//55
f 637//63 638//62 639//63
f 640//62 641//63 642//62
f 643//60 644//60 645//60
f 646//55 647//55 648//55
f 649//60 650//60 651//60
f 652//61 653//61 654//64
f 655//55 656//55 657//55
f 658//65 659//66 660//65
f 661//60 662//60 663//60
f 664//55 665//55 666//55
f 667//60 668//60 669//60
f 670//64 671//64 672//61
f 673//55 674//55 675//55
f 676//66 677//65 678//66
f 679//60 680//60 681//60
f 682//67 683//68 684//67
f 685//55 686//55 687//55
f 688//60 689//60 690//60
f 691//64 692//64 693//69
f 694//55 695//55 696//55
f 697//70 698//66 699//70
f 700//66 701//70 702//66
f 703//60 704//60 705//60
f 706//68 707//67 708//68
f 709//67 710//71 711//67
f 712//55 713//55 714//55
f 715//60 716//60 717//60
f 718//69 719//69 720//72
f 721//69 722//69 723//64
f 724//55 725//55 726//55
f 727//70 728//73 729//70
f 730//60 731//60 732//60
f 733//68 734//74 735//68
f 736//71 737//67 738//71
f 739//60 740//60 741//60
f 742//72 743//72 744//75
f 745//72 746//72 747//69
f 748//55 749//55 750//55
f 751//73 752//70 753//73
f 754//60 755//60 756//60
f 757//74 758//68 759//74
f 760//71 761//76 762//71
f 763//60 764//60 765//60
f 766//75 767//75 768//72
f 769//55 770//55 771//55
f 772//73 773//77 774//73
f 775//60 776//60 777//60
f 778//44 779//44 780//44
f 781//76 782//71 783//76
f 784//44 785//44 786//44
f 787//75 788//75 789//78
f 790//55 791//55 792//55
f 793//77 794//73 795//77
f 796//60 797//60 798//60
f 799//76 800//79 801//76
f 802//78 803//78 804//75
f 805//55 806//55 807//55
f 808//77 809//80 810//77
f 811//60 812//60 813//60
f 814//79 815//76 816//79
f 817//55 818//55 819//55
f 820//80 821//77 822//80
f 823//60 824//60 825//60
f 826//79 827//29 828//79
f 829//55 830//55 831//55
f 832//80 833//28 834//80
f 835//60 836//60 837//60
f 838//29 839//79 840//29
f 841//55 842//55 843//55
f 844//28 845//80 846//28
f 847//60 848//60 849//60
f 850//29 851//81 852//29
f 853//55 854//55 855//55
f 856//28 857//82 858//28
f 859//60 860//60 861//60
f 862//81 863//29 864//81
f 865//55 866//55 867//55
f 868//82 869//28 870//82
f 871//60 872//60 873//60
f 874//81 875//83 876//81
f 877//55 878//55 879//55
f 880//82 881//84 882//82
f 883//60 884//60 885//60
f 886//83 887//81 888//83
f 889//55 890//55 891//55
f 892//84 893//82 894//84
f 895//60 896//60 897//60
f 898//83 899//85 900//83
f 901//55 902//55 903//55
f 904//84 905//86 906//84
f 907//60 908//60 909//60
f 910//85 911//83 912//85
f 913//55 914//55 915//55
f 916//86 917//84 918//86
f 919//60 920//60 921//60
f 922//85 923//87 924//85
f 925//55 926//55 927//55
f 928//86 929//88 930//86
f 931//60 932//60 933//60
f 934//87 935//85 936//87
f 937//55 938//55 939//55
f 940//88 941//86 942//88
f 943//60 944//60 945//60
f 946//87 947//89 948//87
f 949//55 950//55 951//55
f 952//90 953//88 954//90
f 955//88 956//90 957//88
f 958//60 959//60 960//60
f 961//89 962//87 963//89
f 964//55 965//55 966//55
f 967//90 968//91 969//90
f 970//60 971//60 972//60
f 973//89 974//92 975//89
f 976//55 977//55 978//55
f 979//91 980//90 981//91
f 982//60 983//60 984//60
f 985//92 986//89 987//92
f 988//55 989//55 990//55
f 991//93 992//94 993//93
f 994//94 995//93 996//94
f 997//60 998//60 999//60
f 1000//60 1001//60 1002//60
f 1003//24 1004//24 1005//24
f 1006//55 1007//55 1008//55
f 1009//55 1010//55 1011//55
f 1012//93 1013//95 1014//93
f 1015//60 1016//60 1017//60
f 1018//24 1019//24 1020//24
f 1021//60 1022//60 1023//60
f 1024//55 1025//55 1026//55
f 1027//55 1028//55 1029//55
f 1030//95 1031//93 1032//95
f 1033//60 1034//60 1035//60
f 1036//96 1037//96 1038//97
f 1039//60 1040//60 1041//60
f 1042//55 1043//55 1044//55
f 1045//55 1046//55 1047//55
f 1048//98 1049//95 1050//98
f 1051//95 1052//98 1053//95
f 1054//60 1055//60 1056//60
f 1057//97 1058//97 1059//96
f 1060//60 1061//60 1062//60
f 1063//97 1064//97 1065//99
f 1066//55 1067//55 1068//55
f 1069//55 1070//55 1071//55
f 1072//100 1073//98 1074//100
f 1075//98 1076//100 1077//98
f 1078//60 1079//60 1080//60
f 1081//60 1082//60 1083//60
f 1084//99 1085//99 1086//101
f 1087//99 1088//99 1089//97
f 1090//55 1091//55 1092//55
f 1093//55 1094//55 1095//55
f 1096//102 1097//100 1098//102
f 1099//100 1100//102 1101//100
f 1102//60 1103//60 1104//60
f 1105//60 1106//60 1107//60
f 1108//101 1109//101 1110//103
f 1111//101 1112//101 1113//99
f 1114//102 1115//102 1116//104
f 1117//104 1118//104 1119//102
f 1120//103 1121//103 1122//104
f 1123//103 1124//103 1125//101
f 1126//104 1127//104 1128//103
