# SSTK version 0.8.0
# 5
mtllib original-5.mtl
o Component_5_1/Component_5/mesh7/mesh7-geometry#mesh7-geometry
v -0.003079 0.028271 0.146863
v -0.046284 0.028271 0.194195
v -0.003079 0.028271 0.211622
v -0.101792 0.028271 0.194195
v -0.046284 0.028271 0.234284
v 0.012340 0.028271 0.146863
v 0.012340 0.028271 0.106774
v -0.101792 0.028271 0.234284
v -0.003079 0.028271 0.280530
v 0.040062 0.028271 0.194195
v -0.003079 0.028271 0.106774
v -0.151100 0.028271 0.378146
v 0.040062 0.028271 0.234284
v 0.095570 0.028271 0.194195
v -0.003079 0.028271 0.045099
v 0.144942 0.028271 0.045099
v -0.151100 0.028271 0.045099
v 0.012340 0.028271 0.280530
v 0.095570 0.028271 0.234284
v -0.151100 -0.033404 0.045099
v -0.003079 0.028271 0.323703
v 0.144942 0.028271 0.378146
v 0.144942 -0.033404 0.045099
v -0.151100 -0.033404 0.378146
v -0.003079 0.028271 0.378146
v 0.012340 0.028271 0.323703
v 0.144942 -0.033404 0.378146
v -0.101792 -0.033404 0.194195
v -0.147400 -0.029704 0.378146
v -0.147400 0.024572 0.378146
v 0.141242 0.024572 0.378146
v 0.095570 -0.033404 0.194195
v -0.101792 -0.033404 0.234284
v 0.141242 -0.005800 0.378146
v 0.095570 -0.033404 0.234284
v 0.040062 -0.033404 0.194195
v 0.141242 -0.029704 0.378146
v -0.147400 -0.005800 0.378146
v -0.147400 0.024572 0.128361
v 0.141242 -0.005800 0.128361
v 0.040062 -0.033404 0.234284
v -0.046284 -0.033404 0.194195
v -0.046284 -0.033404 0.234284
v -0.096194 0.024572 0.128361
v 0.085061 -0.005800 0.378146
v 0.141242 0.024572 0.128361
v -0.106133 -0.005800 0.378146
v -0.147400 -0.005800 0.128361
v -0.074608 0.024572 0.128361
v -0.106133 -0.005800 0.128361
v 0.069642 -0.005800 0.378146
v 0.054904 0.024572 0.128361
v 0.085061 -0.005800 0.128361
v -0.090715 -0.005800 0.378146
v 0.033317 0.024572 0.128361
v -0.074608 0.018404 0.128361
v -0.096194 0.018404 0.128361
v 0.017218 -0.005800 0.378146
v 0.069642 -0.005800 0.128361
v -0.038290 -0.005800 0.378146
v -0.090715 -0.005800 0.128361
v -0.038290 -0.005800 0.128361
v 0.001799 -0.005800 0.378146
v 0.054904 0.018404 0.128361
v -0.022871 -0.005800 0.378146
v -0.022871 -0.005800 0.128361
v 0.017218 -0.005800 0.128361
v 0.033317 0.018404 0.128361
v 0.001799 -0.005800 0.128361
vn 0 1 0
vn -1 0 0
vn 1 0 0
vn 0 -1 0
vn 0 0 1
vn 0 0 -1
usemtl material_0_0
f 1//1 2//1 3//1
f 2//1 1//1 4//1
f 3//1 2//1 5//1
f 3//1 6//1 1//1
f 7//1 4//1 1//1
f 3//1 5//1 9//1
f 6//1 3//1 10//1
f 6//1 7//1 1//1
f 11//1 4//1 7//1
f 4//1 12//1 8//1
f 8//1 12//1 5//1
f 5//1 12//1 9//1
f 13//1 3//1 9//1
f 10//1 3//1 13//1
f 14//1 6//1 10//1
f 14//1 7//1 6//1
f 15//1 4//1 11//1
f 16//1 11//1 7//1
f 4//1 17//1 12//1
f 9//1 12//1 18//1
f 13//1 9//1 19//1
f 16//1 7//1 14//1
f 17//1 4//1 15//1
f 11//1 16//1 15//1
f 20//2 12//2 17//2
f 18//1 12//1 21//1
f 18//1 19//1 9//1
f 16//1 14//1 22//1
f 12//2 20//2 24//2
f 21//1 12//1 25//1
f 26//1 18//1 21//1
f 22//1 19//1 18//1
f 22//1 14//1 19//1
f 27//3 16//3 22//3
f 16//3 27//3 23//3
f 20//4 28//4 24//4
f 24//5 29//5 12//5
f 12//5 30//5 25//5
f 25//1 26//1 21//1
f 22//1 18//1 26//1
f 22//5 31//5 27//5
f 23//4 32//4 20//4
f 32//4 23//4 27//4
f 28//4 20//4 32//4
f 24//4 28//4 33//4
f 29//5 24//5 27//5
f 30//5 12//5 29//5
f 25//5 30//5 31//5
f 22//1 26//1 25//1
f 25//5 31//5 22//5
f 34//5 27//5 31//5
f 32//4 27//4 35//4
f 28//4 32//4 36//4
f 24//4 33//4 27//4
f 29//5 27//5 37//5
f 30//5 29//5 38//5
f 39//4 31//4 30//4
f 37//5 27//5 34//5
f 31//2 40//2 34//2
f 35//4 27//4 41//4
f 28//4 36//4 42//4
f 43//4 27//4 33//4
f 38//3 39//3 30//3
f 44//4 31//4 39//4
f 40//2 31//2 46//2
f 41//4 27//4 43//4
f 41//4 42//4 36//4
f 39//3 38//3 48//3
f 49//4 31//4 44//4
f 31//4 52//4 46//4
f 42//4 41//4 43//4
f 55//4 31//4 49//4
f 44//5 56//5 49//5
f 53//1 51//1 45//1
f 45//4 51//4 53//4
f 52//4 31//4 55//4
f 61//1 47//1 54//1
f 54//4 47//4 61//4
f 47//1 61//1 50//1
f 50//4 61//4 47//4
f 56//5 44//5 57//5
f 51//1 53//1 59//1
f 59//4 53//4 51//4
f 55//5 64//5 52//5
f 67//1 63//1 58//1
f 58//4 63//4 67//4
f 64//5 55//5 68//5
f 66//1 60//1 65//1
f 65//4 60//4 66//4
f 60//1 66//1 62//1
f 62//4 66//4 60//4
f 63//1 67//1 69//1
f 69//4 67//4 63//4
usemtl material_1_0
f 3//4 2//4 1//4
f 4//4 1//4 2//4
f 5//4 2//4 3//4
f 1//4 6//4 3//4
f 1//4 4//4 7//4
f 8//1 2//1 4//1
f 4//4 2//4 8//4
f 2//1 8//1 5//1
f 5//4 8//4 2//4
f 9//4 5//4 3//4
f 10//4 3//4 6//4
f 1//4 7//4 6//4
f 7//4 4//4 11//4
f 8//4 12//4 4//4
f 5//4 12//4 8//4
f 9//4 12//4 5//4
f 9//4 3//4 13//4
f 13//4 3//4 10//4
f 10//4 6//4 14//4
f 6//4 7//4 14//4
f 11//4 4//4 15//4
f 7//4 11//4 16//4
f 12//4 17//4 4//4
f 18//4 12//4 9//4
f 19//4 9//4 13//4
f 13//1 14//1 10//1
f 10//4 14//4 13//4
f 14//4 7//4 16//4
f 15//4 4//4 17//4
f 15//4 16//4 11//4
f 21//4 12//4 18//4
f 9//4 19//4 18//4
f 14//1 13//1 19//1
f 19//4 13//4 14//4
f 22//4 14//4 16//4
f 15//6 20//6 17//6
f 17//5 20//5 15//5
f 23//6 15//6 16//6
f 16//5 15//5 23//5
f 25//4 12//4 21//4
f 21//4 18//4 26//4
f 18//4 19//4 22//4
f 19//4 14//4 22//4
f 20//6 15//6 23//6
f 23//5 15//5 20//5
f 24//1 28//1 20//1
f 12//6 29//6 24//6
f 25//6 30//6 12//6
f 21//4 26//4 25//4
f 26//4 18//4 22//4
f 27//6 31//6 22//6
f 20//1 32//1 23//1
f 27//1 23//1 32//1
f 32//1 20//1 28//1
f 33//1 28//1 24//1
f 27//6 24//6 29//6
f 29//6 12//6 30//6
f 31//6 30//6 25//6
f 25//4 26//4 22//4
f 22//6 31//6 25//6
f 31//6 27//6 34//6
f 35//1 27//1 32//1
f 36//1 32//1 28//1
f 27//1 33//1 24//1
f 37//6 27//6 29//6
f 38//6 29//6 30//6
f 30//1 31//1 39//1
f 34//6 27//6 37//6
f 34//3 40//3 31//3
f 41//1 27//1 35//1
f 42//1 36//1 28//1
f 33//1 27//1 43//1
f 37//5 38//5 29//5
f 29//6 38//6 37//6
f 30//2 39//2 38//2
f 39//1 31//1 44//1
f 45//5 37//5 34//5
f 34//6 37//6 45//6
f 46//3 31//3 40//3
f 40//1 45//1 34//1
f 43//1 27//1 41//1
f 36//1 42//1 41//1
f 38//5 37//5 47//5
f 47//6 37//6 38//6
f 48//2 38//2 39//2
f 44//1 31//1 49//1
f 39//5 50//5 44//5
f 44//6 50//6 39//6
f 51//5 37//5 45//5
f 45//6 37//6 51//6
f 46//1 52//1 31//1
f 46//5 53//5 40//5
f 40//6 53//6 46//6
f 45//1 40//1 53//1
f 43//1 41//1 42//1
f 47//5 37//5 54//5
f 54//6 37//6 47//6
f 50//1 38//1 47//1
f 47//4 38//4 50//4
f 38//1 50//1 48//1
f 48//4 50//4 38//4
f 50//5 39//5 48//5
f 48//6 39//6 50//6
f 49//1 31//1 55//1
f 49//6 56//6 44//6
f 44//5 50//5 57//5
f 57//6 50//6 44//6
f 58//5 37//5 51//5
f 51//6 37//6 58//6
f 55//1 31//1 52//1
f 52//5 59//5 46//5
f 46//6 59//6 52//6
f 46//5 59//5 53//5
f 53//6 59//6 46//6
f 54//5 37//5 60//5
f 60//6 37//6 54//6
f 49//5 62//5 55//5
f 55//6 62//6 49//6
f 57//6 44//6 56//6
f 56//5 62//5 49//5
f 49//6 62//6 56//6
f 61//5 57//5 50//5
f 50//6 57//6 61//6
f 63//5 37//5 58//5
f 58//6 37//6 63//6
f 59//1 58//1 51//1
f 52//6 64//6 55//6
f 64//5 59//5 52//5
f 52//6 59//6 64//6
f 60//5 37//5 65//5
f 65//6 37//6 60//6
f 62//1 54//1 60//1
f 54//1 62//1 61//1
f 55//5 62//5 66//5
f 66//6 62//6 55//6
f 57//5 61//5 56//5
f 56//6 61//6 57//6
f 56//5 61//5 62//5
f 62//6 61//6 56//6
f 65//5 37//5 63//5
f 63//6 37//6 65//6
f 58//1 59//1 67//1
f 68//6 55//6 64//6
f 68//5 59//5 64//5
f 64//6 59//6 68//6
f 55//5 66//5 69//5
f 69//6 66//6 55//6
f 69//1 65//1 63//1
f 59//5 68//5 67//5
f 67//6 68//6 59//6
f 55//5 67//5 68//5
f 68//6 67//6 55//6
f 65//1 69//1 66//1
f 55//5 69//5 67//5
f 67//6 69//6 55//6
usemtl material_2_0
f 17//3 12//3 20//3
f 24//3 20//3 12//3
f 22//2 16//2 27//2
f 23//2 27//2 16//2
f 34//4 45//4 40//4
f 53//4 40//4 45//4
f 51//4 58//4 59//4
f 60//4 54//4 62//4
f 61//4 62//4 54//4
f 67//4 59//4 58//4
f 63//4 65//4 69//4
f 66//4 69//4 65//4
