# SSTK version 0.8.0
# 3
mtllib original-3.mtl
o Group3/mesh1/mesh1-geometry#mesh1-geometry
v 0.218621 0.063698 -0.944793
v 0.219592 -0.067964 -0.942825
v 0.218621 -0.068831 -0.944793
v 0.220638 -0.066792 -0.940703
v 0.218420 -0.069011 0.045099
v 0.215932 0.065447 -0.948818
v 0.220762 -0.066617 -0.940452
v 0.219592 -0.067964 0.045099
v 0.218420 -0.069011 -0.945095
v 0.218420 0.063878 -0.945095
v 0.220762 0.061484 -0.940452
v 0.220638 -0.066792 0.045099
v 0.217137 -0.069918 0.045099
v 0.218420 0.063878 0.045099
v 0.217137 -0.069918 -0.947014
v 0.217137 0.064785 -0.947014
v 0.220638 0.061660 -0.940703
v 0.221545 -0.065509 -0.938145
v 0.221545 -0.065509 0.045099
v 0.219592 0.062832 0.045099
v 0.215932 -0.070579 -0.948818
v 0.215760 0.065541 0.045099
v 0.217137 0.064785 0.045099
v 0.219592 0.062832 -0.942825
v 0.220638 0.061660 0.045099
v 0.222301 -0.064132 -0.935917
v 0.215760 -0.070674 0.045099
v 0.212740 0.066574 -0.952457
v 0.215760 0.065541 -0.949014
v 0.221545 0.060377 0.045099
v 0.222318 -0.064092 -0.935868
v 0.222301 -0.064132 0.045099
v 0.215760 -0.070674 -0.949014
v 0.214306 0.066137 0.045099
v 0.221545 0.060377 -0.938145
v 0.222318 0.058960 -0.935868
v 0.214306 -0.071270 0.045099
v 0.214306 -0.071270 -0.950672
v 0.214306 0.066137 -0.950672
v 0.222301 0.059000 0.045099
v 0.222301 0.059000 -0.935917
v 0.222897 -0.062678 -0.932956
v 0.222897 -0.062678 0.045099
v 0.212794 -0.071697 -0.952396
v 0.212794 0.066565 -0.952396
v 0.212794 0.066565 0.045099
v 0.223262 -0.061388 -0.931121
v 0.212794 -0.071697 0.045099
v 0.212740 -0.071706 -0.952457
v 0.211244 0.066819 0.045099
v 0.222897 0.057546 0.045099
v 0.223262 0.056255 -0.931121
v 0.223325 -0.061167 0.045099
v 0.211244 -0.071951 0.045099
v 0.211244 -0.071951 -0.953770
v 0.211244 0.066819 -0.953770
v 0.222897 0.057546 -0.932956
v 0.223325 -0.061167 -0.930166
v -0.217401 0.066819 0.045099
v 0.223579 -0.059616 -0.926291
v 0.223325 0.056034 0.045099
v -0.217401 -0.071951 0.045099
v 0.209101 -0.071951 -0.955649
v -0.217401 0.066819 -0.953770
v 0.223325 0.056034 -0.930166
v 0.223579 0.054484 -0.926291
v 0.223579 -0.059616 0.045099
v 0.223579 0.054484 0.045099
v -0.217401 -0.071951 -0.953770
v 0.209101 0.066819 -0.955649
v -0.218898 0.066574 -0.952457
v -0.218898 -0.071706 -0.952457
v -0.218952 0.066565 0.045099
v 0.205076 -0.071951 -0.958338
v -0.215258 -0.071951 -0.955649
v -0.215258 0.066819 -0.955649
v -0.218952 0.066565 -0.952396
v -0.218952 -0.071697 -0.952396
v -0.218952 -0.071697 0.045099
v 0.205076 0.066819 -0.958338
v -0.211234 -0.071951 -0.958338
v -0.220463 0.066137 -0.950672
v -0.220463 0.066137 0.045099
v 0.200735 -0.071951 -0.960479
v -0.206892 -0.071951 -0.960479
v -0.211234 0.066819 -0.958338
v -0.221917 0.065541 -0.949014
v -0.220463 -0.071270 -0.950672
v -0.220463 -0.071270 0.045099
v 0.200735 0.066819 -0.960479
v -0.206892 0.066819 -0.960479
v -0.222089 0.065447 -0.948818
v -0.221917 -0.070674 -0.949014
v -0.221917 0.065541 0.045099
v 0.196151 -0.071951 -0.962035
v -0.202309 0.066819 -0.962035
v -0.222089 -0.070579 -0.948818
v -0.221917 -0.070674 0.045099
v 0.196151 0.066819 -0.962035
v -0.202309 -0.071951 -0.962035
v -0.223294 -0.069918 -0.947014
v -0.223294 0.064785 -0.947014
v -0.223294 -0.069918 0.045099
v 0.191404 -0.071951 -0.962979
v -0.197561 0.066819 -0.962979
v 0.191404 0.066819 -0.962979
v -0.224577 -0.069011 -0.945095
v -0.224577 0.063878 -0.945095
v -0.223294 0.064785 0.045099
v -0.197561 -0.071951 -0.962979
v -0.224779 -0.068831 -0.944793
v -0.224779 0.063698 -0.944793
v -0.224577 -0.069011 0.045099
v 0.186573 -0.071951 -0.963296
v -0.192731 -0.071951 -0.963296
v -0.192731 0.066819 -0.963296
v 0.186573 0.066819 -0.963296
v -0.224577 0.063878 0.045099
v -0.225749 -0.067964 -0.942825
v -0.225749 0.062832 -0.942825
v -0.225749 -0.067964 0.045099
v -0.226796 -0.066792 -0.940703
v -0.226796 0.061660 -0.940703
v -0.225749 0.062832 0.045099
v -0.226919 -0.066617 -0.940452
v -0.226919 0.061484 -0.940452
v -0.226796 0.061660 0.045099
v -0.226796 -0.066792 0.045099
v -0.227703 -0.065509 0.045099
v -0.227703 -0.065509 -0.938145
v -0.227703 0.060377 0.045099
v -0.228459 -0.064132 0.045099
v -0.228459 -0.064132 -0.935917
v -0.227703 0.060377 -0.938145
v -0.228475 -0.064092 -0.935868
v -0.228459 0.059000 -0.935917
v -0.228459 0.059000 0.045099
v -0.229055 -0.062678 0.045099
v -0.228475 0.058960 -0.935868
v -0.229055 -0.062678 -0.932956
v -0.229055 0.057546 0.045099
v -0.229482 -0.061167 0.045099
v -0.229420 -0.061388 -0.931121
v -0.229420 0.056255 -0.931121
v -0.229055 0.057546 -0.932956
v -0.229482 0.056034 0.045099
v -0.229482 -0.061167 -0.930166
v -0.229736 0.054484 0.045099
v -0.229482 0.056034 -0.930166
v -0.229736 -0.059616 -0.926291
v -0.229736 0.025188 0.045099
v -0.229736 0.054484 -0.926291
v -0.229736 -0.059616 0.045099
v -0.229736 -0.030320 0.045099
vn 0.8660253028382762 0 -0.5000001748438417
vn 0.8419476059816627 -0.5148887590400979 -0.16128792451976892
vn 0.8811664272221907 -0.4454592159751623 -0.15846707683072078
vn -0.8660253028382762 0 0.5000001748438417
vn -0.8419476059816627 0.5148887590400979 0.16128792451976892
vn -0.8811664272221907 0.4454592159751623 0.15846707683072078
vn 0.6226458283577387 -0.7825037842903414 0
vn 0.6659438684294828 -0.7460018526124286 0
vn -0.6659438684294828 0.7460018526124286 0
vn -0.6226458283577387 0.7825037842903414 0
vn 0.7933534213778813 0 -0.6087613233345314
vn -0.7933534213778813 0 0.6087613233345314
vn 0.94092223032744 -0.20420304998666652 -0.27012306612316334
vn -0.94092223032744 0.20420304998666652 0.27012306612316334
vn 0.7071067811865476 -0.7071067811865476 0
vn -0.7071067811865476 0.7071067811865476 0
vn 0.8314698396094833 0 -0.5555698928305779
vn -0.8314698396094833 0 0.5555698928305779
vn 0.94092223032744 0.20420304998666652 -0.27012306612316334
vn -0.94092223032744 -0.20420304998666652 0.27012306612316334
vn 0.7825037842903414 -0.6226458283577387 0
vn -0.7825037842903414 0.6226458283577387 0
vn 0.5302028796837251 -0.8478708075969388 0
vn -0.5302028796837251 0.8478708075969388 0
vn 0 0 1
vn 0 0 -1
vn 0.6226458283577387 0.7825037842903414 0
vn 0.6659438684294828 0.7460018526124286 0
vn -0.6226458283577387 -0.7825037842903414 0
vn -0.6659438684294828 -0.7460018526124286 0
vn 0.8811664272221907 0.4454592159751623 -0.15846707683072078
vn -0.8811664272221907 -0.4454592159751623 0.15846707683072078
vn 0.9222752461160993 -0.36986209870048825 -0.11229602996704183
vn -0.9222752461160993 0.36986209870048825 0.11229602996704183
vn 0.8478708075969388 -0.5302028796837251 0
vn -0.8478708075969388 0.5302028796837251 0
vn 0.48135607837416233 0.8765251427153969 0
vn 0.4309640470920904 0.9023690986032302 0
vn 0.5302028796837251 0.8478708075969388 0
vn -0.5302028796837251 -0.8478708075969388 0
vn -0.4309640470920904 -0.9023690986032302 0
vn -0.48135607837416233 -0.8765251427153969 0
vn 0.8419476059816627 0.5148887590400979 -0.16128792451976892
vn -0.8419476059816627 -0.5148887590400979 0.16128792451976892
vn 0.7825037842903414 0.6226458283577387 0
vn -0.7825037842903414 -0.6226458283577387 0
vn 0.9484385046296444 -0.29692315798201663 -0.11091005901120986
vn -0.9484385046296444 0.29692315798201663 0.11091005901120986
vn 0.4309640470920904 -0.9023690986032302 0
vn -0.4309640470920904 0.9023690986032302 0
vn 0.7071067811865476 0.7071067811865476 0
vn -0.7071067811865476 -0.7071067811865476 0
vn 0.48135607837416233 -0.8765251427153969 0
vn -0.48135607837416233 0.8765251427153969 0
vn 0.7071067811865476 0 -0.7071067811865476
vn -0.7071067811865476 0 0.7071067811865476
vn 0.8478708075969388 0.5302028796837251 0
vn -0.8478708075969388 -0.5302028796837251 0
vn 0.9756947205932699 -0.1296779628645161 -0.176644949414723
vn -0.9756947205932699 0.1296779628645161 0.176644949414723
vn 0.9023690986032302 -0.4309640470920904 0
vn -0.9023690986032302 0.4309640470920904 0
vn 0.7518397995159294 0 -0.6593458241801846
vn -0.7518397995159294 0 0.6593458241801846
vn 0.3262011333508875 0.9453003864384044 0
vn -0.3262011333508875 -0.9453003864384044 0
vn 0.9222752461160993 0.36986209870048825 -0.11229602996704183
vn -0.9222752461160993 -0.36986209870048825 0.11229602996704183
vn 0.9756947205932699 0.1296779628645161 -0.176644949414723
vn -0.9756947205932699 -0.1296779628645161 0.176644949414723
vn 0.3262011333508875 -0.9453003864384044 0
vn -0.3262011333508875 0.9453003864384044 0
vn 0.9023690986032302 0.4309640470920904 0
vn -0.9023690986032302 -0.4309640470920904 0
vn 0.9484385046296444 0.29692315798201663 -0.11091005901120986
vn -0.9484385046296444 -0.29692315798201663 0.11091005901120986
vn 0.9730348260281999 -0.2209599604939093 -0.06618098816730365
vn -0.9730348260281999 0.2209599604939093 0.06618098816730365
vn 0.9453003864384044 -0.3262011333508875 0
vn -0.9453003864384044 0.3262011333508875 0
vn 0.21725709287253878 0.97611441726704 0
vn -0.21725709287253878 -0.97611441726704 0
vn 0.9918944674675738 -0.09179504326186663 -0.08785804140640643
vn -0.9918944674675738 0.09179504326186663 0.08785804140640643
vn 0.21725709287253878 -0.97611441726704 0
vn -0.21725709287253878 0.97611441726704 0
vn 0.16165099831034294 0.9868479896849713 0
vn 0.08109296275814651 0.9967065422636224 0
vn -0.08109296275814651 -0.9967065422636224 0
vn -0.16165099831034294 -0.9868479896849713 0
vn 0.9453003864384044 0.3262011333508875 0
vn -0.9453003864384044 -0.3262011333508875 0
vn 0.9918944674675738 0.09179504326186663 -0.08785804140640643
vn -0.9918944674675738 -0.09179504326186663 0.08785804140640643
vn 0.97611441726704 -0.21725709287253878 0
vn -0.97611441726704 0.21725709287253878 0
vn 0.08109296275814651 -0.9967065422636224 0
vn 0.16165099831034294 -0.9868479896849713 0
vn -0.16165099831034294 0.9868479896849713 0
vn -0.08109296275814651 0.9967065422636224 0
vn 0.6593458241801846 0 -0.7518397995159294
vn -0.6593458241801846 0 0.7518397995159294
vn 0.9730348260281999 0.2209599604939093 -0.06618098816730365
vn -0.9730348260281999 -0.2209599604939093 0.06618098816730365
vn 0.9890993724350533 -0.14560405482568833 -0.021952008265799773
vn -0.9890993724350533 0.14560405482568833 0.021952008265799773
vn 0.998297620121373 -0.054067979425704946 -0.021874991675987564
vn -0.998297620121373 0.054067979425704946 0.021874991675987564
vn 0.6087613233345314 0 -0.7933534213778813
vn -0.6087613233345314 0 0.7933534213778813
vn 0.9890993724350533 0.14560405482568833 -0.021952008265799773
vn -0.9890993724350533 -0.14560405482568833 0.021952008265799773
vn 0.998297620121373 0.054067979425704946 -0.021874991675987564
vn -0.998297620121373 -0.054067979425704946 0.021874991675987564
vn 0.9967065422636224 -0.08109296275814651 0
vn -0.9967065422636224 0.08109296275814651 0
vn 0.97611441726704 0.21725709287253878 0
vn -0.97611441726704 -0.21725709287253878 0
vn 0 -1 0
vn 0 1 0
vn 0.9967065422636224 0.08109296275814651 0
vn -0.9967065422636224 -0.08109296275814651 0
vn 0.5000001748438417 0 -0.8660253028382762
vn -0.5000001748438417 0 0.8660253028382762
vn -0.6593458241801846 0 -0.7518397995159294
vn -0.7071067811865476 0 -0.7071067811865476
vn 0.7071067811865476 0 0.7071067811865476
vn 0.6593458241801846 0 0.7518397995159294
vn -0.6087613233345314 0 -0.7933534213778813
vn 0.6087613233345314 0 0.7933534213778813
vn -0.7518397995159294 0 -0.6593458241801846
vn 0.7518397995159294 0 0.6593458241801846
vn 0.38268289803626016 0 -0.9238797538373538
vn -0.38268289803626016 0 0.9238797538373538
vn -0.5000001748438417 0 -0.8660253028382762
vn 0.5000001748438417 0 0.8660253028382762
vn -0.38268289803626016 0 -0.9238797538373538
vn 0.38268289803626016 0 0.9238797538373538
vn -0.7933534213778813 0 -0.6087613233345314
vn 0.7933534213778813 0 0.6087613233345314
vn 0.2588189595935754 0 -0.965925849201117
vn -0.2588189595935754 0 0.965925849201117
vn -0.2588189595935754 0 -0.965925849201117
vn 0.2588189595935754 0 0.965925849201117
vn -0.8314698396094833 0 -0.5555698928305779
vn 0.8314698396094833 0 0.5555698928305779
vn 0.1305259853353411 0 -0.9914448886106773
vn -0.1305259853353411 0 0.9914448886106773
vn -0.1305259853353411 0 -0.9914448886106773
vn 0.1305259853353411 0 0.9914448886106773
vn -0.8660253028382762 0 -0.5000001748438417
vn 0.8660253028382762 0 0.5000001748438417
vn 0.03271898659853486 0 -0.9994645906263837
vn -0.03271898659853486 0 0.9994645906263837
vn -0.03271898659853486 0 -0.9994645906263837
vn 0.03271898659853486 0 0.9994645906263837
vn -0.8419476059816627 -0.5148887590400979 -0.16128792451976892
vn 0.8419476059816627 0.5148887590400979 0.16128792451976892
vn -0.8419476059816627 0.5148887590400979 -0.16128792451976892
vn 0.8419476059816627 -0.5148887590400979 0.16128792451976892
vn -0.8811664272221907 -0.4454592159751623 -0.15846707683072078
vn 0.8811664272221907 0.4454592159751623 0.15846707683072078
vn -0.8811664272221907 0.4454592159751623 -0.15846707683072078
vn 0.8811664272221907 -0.4454592159751623 0.15846707683072078
vn -0.94092223032744 -0.20420304998666652 -0.27012306612316334
vn 0.94092223032744 0.20420304998666652 0.27012306612316334
vn -0.94092223032744 0.20420304998666652 -0.27012306612316334
vn 0.94092223032744 -0.20420304998666652 0.27012306612316334
vn -0.9222752461160993 -0.36986209870048825 -0.11229602996704183
vn 0.9222752461160993 0.36986209870048825 0.11229602996704183
vn -0.9484385046296444 -0.29692315798201663 -0.11091005901120986
vn 0.9484385046296444 0.29692315798201663 0.11091005901120986
vn -0.9222752461160993 0.36986209870048825 -0.11229602996704183
vn 0.9222752461160993 -0.36986209870048825 0.11229602996704183
vn -0.9756947205932699 -0.1296779628645161 -0.176644949414723
vn 0.9756947205932699 0.1296779628645161 0.176644949414723
vn -0.9484385046296444 0.29692315798201663 -0.11091005901120986
vn 0.9484385046296444 -0.29692315798201663 0.11091005901120986
vn -0.9756947205932699 0.1296779628645161 -0.176644949414723
vn 0.9756947205932699 -0.1296779628645161 0.176644949414723
vn -0.9730348260281999 -0.2209599604939093 -0.06618098816730365
vn 0.9730348260281999 0.2209599604939093 0.06618098816730365
vn -0.9918944674675738 -0.09179504326186663 -0.08785804140640643
vn 0.9918944674675738 0.09179504326186663 0.08785804140640643
vn -0.9918944674675738 0.09179504326186663 -0.08785804140640643
vn 0.9918944674675738 -0.09179504326186663 0.08785804140640643
vn -0.9730348260281999 0.2209599604939093 -0.06618098816730365
vn 0.9730348260281999 -0.2209599604939093 0.06618098816730365
vn -0.9890993724350533 -0.14560405482568833 -0.021952008265799773
vn 0.9890993724350533 0.14560405482568833 0.021952008265799773
vn -0.9890993724350533 0.14560405482568833 -0.021952008265799773
vn 0.9890993724350533 -0.14560405482568833 0.021952008265799773
vn -0.998297620121373 -0.054067979425704946 -0.021874991675987564
vn 0.998297620121373 0.054067979425704946 0.021874991675987564
vn -0.998297620121373 0.054067979425704946 -0.021874991675987564
vn 0.998297620121373 -0.054067979425704946 0.021874991675987564
vn -1 0 0
vn 1 0 0
usemtl material_0_0
f 1//1 2//2 3//1
f 2//2 1//1 4//3
f 3//4 2//5 1//4
f 4//6 1//4 2//5
f 5//7 3//8 2//2
f 2//5 3//9 5//10
f 3//1 6//11 1//1
f 1//4 6//12 3//4
f 4//3 1//1 7//13
f 7//14 1//4 4//6
f 4//3 8//15 2//2
f 2//5 8//16 4//6
f 3//8 5//7 9//7
f 9//10 5//10 3//9
f 5//7 2//2 8//15
f 8//16 2//5 5//10
f 9//17 6//11 3//1
f 3//4 6//12 9//18
f 1//1 6//11 10//17
f 10//18 6//12 1//4
f 7//13 1//1 11//19
f 11//20 1//4 7//14
f 7//13 12//21 4//3
f 4//6 12//22 7//14
f 8//15 4//3 12//21
f 12//22 4//6 8//16
f 13//23 9//7 5//7
f 5//10 9//10 13//24
f 14//25 5//25 8//25
f 8//26 5//26 14//26
f 15//17 6//11 9//17
f 9//18 6//12 15//18
f 10//17 6//11 16//17
f 16//18 6//12 10//18
f 14//27 1//28 10//27
f 10//29 1//30 14//29
f 11//19 1//1 17//31
f 17//32 1//4 11//20
f 11//19 18//33 7//13
f 7//14 18//34 11//20
f 12//21 7//13 19//35
f 19//36 7//14 12//22
f 20//25 8//25 12//25
f 12//26 8//26 20//26
f 9//7 13//23 15//23
f 15//24 13//24 9//10
f 14//25 13//25 5//25
f 5//26 13//26 14//26
f 14//25 8//25 20//25
f 20//26 8//26 14//26
f 6//11 15//17 21//11
f 21//12 15//18 6//12
f 6//37 22//38 16//39
f 16//40 22//41 6//42
f 23//39 10//27 16//39
f 16//40 10//29 23//40
f 1//28 14//27 24//43
f 24//44 14//29 1//30
f 10//27 23//39 14//27
f 14//29 23//40 10//29
f 17//31 1//1 24//43
f 24//44 1//4 17//32
f 25//45 11//19 17//31
f 17//32 11//20 25//46
f 18//33 11//19 26//47
f 26//48 11//20 18//34
f 19//35 7//13 18//33
f 18//34 7//14 19//36
f 25//25 12//25 19//25
f 19//26 12//26 25//26
f 20//25 12//25 25//25
f 25//26 12//26 20//26
f 27//49 15//23 13//23
f 13//24 15//24 27//50
f 23//25 13//25 14//25
f 14//26 13//26 23//26
f 24//43 14//27 20//51
f 20//52 14//29 24//44
f 27//49 21//53 15//23
f 15//24 21//54 27//50
f 21//11 28//55 6//11
f 6//12 28//56 21//12
f 22//38 6//37 29//38
f 29//41 6//42 22//41
f 16//39 22//38 23//39
f 23//40 22//41 16//40
f 24//43 25//45 17//31
f 17//32 25//46 24//44
f 30//57 11//19 25//45
f 25//46 11//20 30//58
f 26//47 11//19 31//59
f 31//60 11//20 26//48
f 32//61 18//33 26//47
f 26//48 18//34 32//62
f 18//33 32//61 19//35
f 19//36 32//62 18//34
f 25//25 19//25 30//25
f 30//26 19//26 25//26
f 25//45 24//43 20//51
f 20//52 24//44 25//46
f 22//25 27//25 13//25
f 13//26 27//26 22//26
f 22//25 13//25 23//25
f 23//26 13//26 22//26
f 21//53 27//49 33//49
f 33//50 27//50 21//54
f 33//63 28//55 21//11
f 21//12 28//56 33//64
f 6//11 28//55 29//63
f 29//64 28//56 6//12
f 29//38 34//65 22//38
f 22//41 34//66 29//41
f 11//19 30//57 35//67
f 35//68 30//58 11//20
f 31//59 11//19 36//69
f 36//70 11//20 31//60
f 31//59 32//61 26//47
f 26//48 32//62 31//60
f 30//25 19//25 32//25
f 32//26 19//26 30//26
f 34//25 27//25 22//25
f 22//26 27//26 34//26
f 37//71 33//49 27//49
f 27//50 33//50 37//72
f 38//63 28//55 33//63
f 33//64 28//56 38//64
f 29//63 28//55 39//63
f 39//64 28//56 29//64
f 34//65 29//38 39//65
f 39//66 29//41 34//66
f 40//73 35//67 30//57
f 30//58 35//68 40//74
f 41//75 11//19 35//67
f 35//68 11//20 41//76
f 36//69 11//19 41//75
f 41//76 11//20 36//70
f 36//69 42//77 31//59
f 31//60 42//78 36//70
f 32//61 31//59 43//79
f 43//80 31//60 32//62
f 30//25 32//25 40//25
f 40//26 32//26 30//26
f 34//25 37//25 27//25
f 27//26 37//26 34//26
f 33//49 37//71 38//71
f 38//72 37//72 33//50
f 44//63 28//55 38//63
f 38//64 28//56 44//64
f 39//63 28//55 45//63
f 45//64 28//56 39//64
f 39//65 46//81 34//65
f 34//66 46//82 39//66
f 35//67 40//73 41//75
f 41//76 40//74 35//68
f 40//73 36//69 41//75
f 41//76 36//70 40//74
f 42//77 36//69 47//83
f 47//84 36//70 42//78
f 43//79 31//59 42//77
f 42//78 31//60 43//80
f 40//25 32//25 43//25
f 43//26 32//26 40//26
f 46//25 37//25 34//25
f 34//26 37//26 46//26
f 48//85 38//71 37//71
f 37//72 38//72 48//86
f 28//55 44//63 49//55
f 49//56 44//64 28//56
f 38//71 48//85 44//85
f 44//86 48//86 38//72
f 28//87 50//88 45//81
f 45//82 50//89 28//90
f 46//81 39//65 45//81
f 45//82 39//66 46//82
f 51//91 36//69 40//73
f 40//74 36//70 51//92
f 47//83 36//69 52//93
f 52//94 36//70 47//84
f 53//95 42//77 47//83
f 47//84 42//78 53//96
f 42//77 53//95 43//79
f 43//80 53//96 42//78
f 40//25 43//25 51//25
f 51//26 43//26 40//26
f 46//25 48//25 37//25
f 37//26 48//26 46//26
f 54//97 49//98 44//85
f 44//86 49//99 54//100
f 55//101 28//55 49//55
f 49//56 28//56 55//102
f 54//97 44//85 48//85
f 48//86 44//86 54//100
f 50//88 28//87 56//88
f 56//89 28//90 50//89
f 45//81 50//88 46//81
f 46//82 50//89 45//82
f 36//69 51//91 57//103
f 57//104 51//92 36//70
f 52//93 36//69 57//103
f 57//104 36//70 52//94
f 52//93 58//105 47//83
f 47//84 58//106 52//94
f 53//95 47//83 58//105
f 58//106 47//84 53//96
f 51//25 43//25 53//25
f 53//26 43//26 51//26
f 50//25 48//25 46//25
f 46//26 48//26 50//26
f 49//98 54//97 55//97
f 55//100 54//100 49//99
f 55//101 56//101 28//55
f 28//56 56//102 55//102
f 50//25 54//25 48//25
f 48//26 54//26 50//26
f 56//88 59//100 50//88
f 50//89 59//97 56//89
f 51//91 52//93 57//103
f 57//104 52//94 51//92
f 58//105 52//93 60//107
f 60//108 52//94 58//106
f 60//107 53//95 58//105
f 58//106 53//96 60//108
f 51//25 53//25 61//25
f 61//26 53//26 51//26
f 62//89 55//97 54//97
f 54//100 55//100 62//88
f 63//109 56//101 55//101
f 55//102 56//102 63//110
f 59//25 54//25 50//25
f 50//26 54//26 59//26
f 56//88 64//100 59//100
f 59//97 64//97 56//89
f 51//91 65//111 52//93
f 52//94 65//112 51//92
f 60//107 52//93 66//113
f 66//114 52//94 60//108
f 53//95 60//107 67//115
f 67//116 60//108 53//96
f 61//25 53//25 68//25
f 68//26 53//26 61//26
f 65//111 51//91 61//117
f 61//118 51//92 65//112
f 69//89 55//97 62//89
f 62//88 55//100 69//88
f 59//25 62//25 54//25
f 54//26 62//26 59//26
f 56//101 63//109 70//109
f 70//110 63//110 56//102
f 69//89 63//119 55//97
f 55//100 63//120 69//88
f 70//120 64//100 56//88
f 56//89 64//97 70//119
f 71//99 59//100 64//100
f 64//97 59//97 71//98
f 66//113 52//93 65//111
f 65//112 52//94 66//114
f 66//113 67//115 60//107
f 60//108 67//116 66//114
f 68//25 53//25 67//25
f 67//26 53//26 68//26
f 68//121 65//111 61//117
f 61//118 65//112 68//122
f 62//89 72//90 69//89
f 69//88 72//87 62//88
f 73//25 62//25 59//25
f 59//26 62//26 73//26
f 74//123 70//109 63//109
f 63//110 70//110 74//124
f 75//119 63//119 69//89
f 69//88 63//120 75//120
f 70//120 76//120 64//100
f 64//97 76//119 70//119
f 59//100 71//99 77//86
f 77//85 71//98 59//97
f 64//125 72//126 71//126
f 71//127 72//127 64//128
f 65//111 68//121 66//113
f 66//114 68//122 65//112
f 67//115 66//113 68//121
f 68//122 66//114 67//116
f 72//90 62//89 78//82
f 78//81 62//88 72//87
f 72//126 64//125 69//125
f 69//128 64//128 72//127
f 73//25 79//25 62//25
f 62//26 79//26 73//26
f 59//100 77//86 73//86
f 73//85 77//85 59//97
f 70//109 74//123 80//123
f 80//124 74//124 70//110
f 81//119 74//119 63//119
f 63//120 74//120 81//120
f 81//119 63//119 75//119
f 75//120 63//120 81//120
f 69//125 76//129 75//129
f 75//130 76//130 69//128
f 80//120 76//120 70//120
f 70//119 76//119 80//119
f 69//125 64//125 76//129
f 76//130 64//128 69//128
f 71//126 82//131 77//131
f 77//132 82//132 71//127
f 78//131 71//126 72//126
f 72//127 71//127 78//132
f 78//82 62//89 79//82
f 79//81 62//88 78//81
f 83//25 79//25 73//25
f 73//26 79//26 83//26
f 82//72 73//86 77//86
f 77//85 73//85 82//71
f 84//133 80//123 74//123
f 74//124 80//124 84//134
f 85//119 74//119 81//119
f 81//120 74//120 85//120
f 75//129 86//135 81//135
f 81//136 86//136 75//130
f 86//135 75//129 76//129
f 76//130 75//130 86//136
f 80//120 86//120 76//120
f 76//119 86//119 80//119
f 71//126 87//131 82//131
f 82//132 87//132 71//127
f 71//126 78//131 88//131
f 88//132 78//132 71//127
f 79//82 88//66 78//82
f 78//81 88//65 79//81
f 83//25 89//25 79//25
f 79//26 89//26 83//26
f 73//86 82//72 83//72
f 83//71 82//71 73//85
f 80//123 84//133 90//133
f 90//134 84//134 80//124
f 85//119 84//119 74//119
f 74//120 84//120 85//120
f 81//135 91//137 85//137
f 85//138 91//138 81//136
f 91//137 81//135 86//135
f 86//136 81//136 91//138
f 90//120 86//120 80//120
f 80//119 86//119 90//119
f 71//126 92//139 87//131
f 87//132 92//140 71//127
f 87//50 83//72 82//72
f 82//71 83//71 87//49
f 71//126 88//131 93//131
f 93//132 88//132 71//127
f 88//66 79//82 89//66
f 89//65 79//81 88//65
f 94//25 89//25 83//25
f 83//26 89//26 94//26
f 95//141 90//133 84//133
f 84//134 90//134 95//142
f 85//119 95//119 84//119
f 84//120 95//120 85//120
f 96//143 85//137 91//137
f 91//138 85//138 96//144
f 90//120 91//120 86//120
f 86//119 91//119 90//119
f 71//126 97//139 92//139
f 92//140 97//140 71//127
f 92//54 94//50 87//50
f 87//49 94//49 92//53
f 83//72 87//50 94//50
f 94//49 87//49 83//71
f 89//66 93//41 88//66
f 88//65 93//38 89//65
f 71//126 93//131 97//139
f 97//140 93//132 71//127
f 94//25 98//25 89//25
f 89//26 98//26 94//26
f 90//133 95//141 99//141
f 99//142 95//142 90//134
f 100//119 95//119 85//119
f 85//120 95//120 100//120
f 85//137 96//143 100//143
f 100//144 96//144 85//138
f 99//120 96//120 91//120
f 91//119 96//119 99//119
f 99//120 91//120 90//120
f 90//119 91//119 99//119
f 101//145 92//139 97//139
f 97//140 92//140 101//146
f 94//50 92//54 102//24
f 102//23 92//53 94//49
f 93//41 89//66 98//41
f 98//38 89//65 93//38
f 98//41 97//42 93//41
f 93//38 97//37 98//38
f 94//25 103//25 98//25
f 98//26 103//26 94//26
f 104//147 99//141 95//141
f 95//142 99//142 104//148
f 100//119 104//119 95//119
f 95//120 104//120 100//120
f 105//149 100//143 96//143
f 96//144 100//144 105//150
f 106//120 96//120 99//120
f 99//119 96//119 106//119
f 92//139 101//145 107//145
f 107//146 101//146 92//140
f 97//42 98//41 101//40
f 101//39 98//38 97//37
f 92//139 108//145 102//145
f 102//146 108//146 92//140
f 94//50 102//24 109//24
f 109//23 102//23 94//49
f 109//25 103//25 94//25
f 94//26 103//26 109//26
f 101//40 98//41 103//40
f 103//39 98//38 101//39
f 99//141 104//147 106//147
f 106//148 104//148 99//142
f 110//119 104//119 100//119
f 100//120 104//120 110//120
f 100//143 105//149 110//149
f 110//150 105//150 100//144
f 106//120 105//120 96//120
f 96//119 105//119 106//119
f 103//40 107//29 101//40
f 101//39 107//27 103//39
f 92//139 107//145 111//151
f 111//152 107//146 92//140
f 92//139 112//151 108//145
f 108//146 112//152 92//140
f 108//10 109//24 102//24
f 102//23 109//23 108//7
f 109//25 113//25 103//25
f 103//26 113//26 109//26
f 114//153 106//147 104//147
f 104//148 106//148 114//154
f 115//119 104//119 110//119
f 110//120 104//120 115//120
f 116//155 110//149 105//149
f 105//150 110//150 116//156
f 117//120 105//120 106//120
f 106//119 105//119 117//119
f 107//29 103//40 113//29
f 113//27 103//39 107//27
f 113//29 111//30 107//29
f 107//27 111//28 113//27
f 92//139 111//151 112//151
f 112//152 111//152 92//140
f 112//9 118//10 108//10
f 108//7 118//7 112//8
f 109//24 108//10 118//10
f 118//7 108//7 109//23
f 118//25 113//25 109//25
f 109//26 113//26 118//26
f 106//147 114//153 117//153
f 117//154 114//154 106//148
f 104//119 115//119 114//119
f 114//120 115//120 104//120
f 110//149 116//155 115//155
f 115//156 116//156 110//150
f 105//120 117//120 116//120
f 116//119 117//119 105//119
f 111//30 113//29 119//157
f 119//158 113//27 111//28
f 119//157 112//151 111//151
f 111//152 112//152 119//158
f 118//10 112//9 120//159
f 120//160 112//8 118//7
f 118//25 121//25 113//25
f 113//26 121//26 118//26
f 115//155 117//153 114//153
f 114//154 117//154 115//156
f 117//153 115//155 116//155
f 116//156 115//156 117//154
f 119//157 113//29 121//52
f 121//51 113//27 119//158
f 112//151 119//157 122//161
f 122//162 119//158 112//152
f 112//151 123//163 120//159
f 120//160 123//164 112//152
f 118//10 120//159 124//16
f 124//15 120//160 118//7
f 124//25 121//25 118//25
f 118//26 121//26 124//26
f 121//52 122//161 119//157
f 119//158 122//162 121//51
f 112//151 122//161 125//165
f 125//166 122//162 112//152
f 112//151 126//167 123//163
f 123//164 126//168 112//152
f 127//22 120//159 123//163
f 123//164 120//160 127//21
f 120//159 127//22 124//16
f 124//15 127//21 120//160
f 124//25 128//25 121//25
f 121//26 128//26 124//26
f 122//161 121//52 128//46
f 128//45 121//51 122//162
f 122//161 129//58 125//165
f 125//166 129//57 122//162
f 112//151 125//165 126//167
f 126//168 125//166 112//152
f 126//167 127//22 123//163
f 123//164 127//21 126//168
f 127//25 128//25 124//25
f 124//26 128//26 127//26
f 129//58 122//161 128//46
f 128//45 122//162 129//57
f 125//165 129//58 130//169
f 130//170 129//57 125//166
f 130//169 126//167 125//165
f 125//166 126//168 130//170
f 126//167 131//36 127//22
f 127//21 131//35 126//168
f 127//25 129//25 128//25
f 128//26 129//26 127//26
f 132//74 130//169 129//58
f 129//57 130//170 132//73
f 126//167 130//169 133//171
f 133//172 130//170 126//168
f 131//36 126//167 134//173
f 134//174 126//168 131//35
f 131//25 129//25 127//25
f 127//26 129//26 131//26
f 130//169 132//74 133//171
f 133//172 132//73 130//170
f 131//25 132//25 129//25
f 129//26 132//26 131//26
f 126//167 133//171 135//175
f 135//176 133//172 126//168
f 126//167 136//177 134//173
f 134//174 136//178 126//168
f 134//173 137//62 131//36
f 131//35 137//61 134//174
f 138//92 133//171 132//74
f 132//73 133//172 138//91
f 137//25 132//25 131//25
f 131//26 132//26 137//26
f 133//171 138//92 135//175
f 135//176 138//91 133//172
f 126//167 135//175 139//179
f 139//180 135//176 126//168
f 126//167 139//179 136//177
f 136//178 139//180 126//168
f 137//62 134//173 136//177
f 136//178 134//174 137//61
f 137//25 138//25 132//25
f 132//26 138//26 137//26
f 135//175 138//92 140//181
f 140//182 138//91 135//176
f 140//181 139//179 135//175
f 135//176 139//180 140//182
f 139//179 137//62 136//177
f 136//178 137//61 139//180
f 141//25 138//25 137//25
f 137//26 138//26 141//26
f 142//118 140//181 138//92
f 138//91 140//182 142//117
f 139//179 140//181 143//183
f 143//184 140//182 139//180
f 139//179 141//80 137//62
f 137//61 141//79 139//180
f 141//25 142//25 138//25
f 138//26 142//26 141//26
f 140//181 142//118 143//183
f 143//184 142//117 140//182
f 139//179 143//183 144//185
f 144//186 143//184 139//180
f 141//80 139//179 145//187
f 145//188 139//180 141//79
f 146//25 142//25 141//25
f 141//26 142//26 146//26
f 143//183 142//118 147//189
f 147//190 142//117 143//184
f 147//189 144//185 143//183
f 143//184 144//186 147//190
f 139//179 144//185 145//187
f 145//188 144//186 139//180
f 144//185 141//80 145//187
f 145//188 141//79 144//186
f 148//25 142//25 146//25
f 146//26 142//26 148//26
f 141//80 149//191 146//96
f 146//95 149//192 141//79
f 142//118 150//193 147//189
f 147//190 150//194 142//117
f 144//185 147//189 150//193
f 150//194 147//190 144//186
f 149//191 141//80 144//185
f 144//186 141//79 149//192
f 151//25 142//25 148//25
f 148//26 142//26 151//26
f 146//96 152//195 148//116
f 148//115 152//196 146//95
f 152//195 146//96 149//191
f 149//192 146//95 152//196
f 150//193 142//118 153//122
f 153//121 142//117 150//194
f 144//185 150//193 152//195
f 152//196 150//194 144//186
f 144//185 152//195 149//191
f 149//192 152//196 144//186
f 154//25 142//25 151//25
f 151//26 142//26 154//26
f 152//195 151//197 148//116
f 148//115 151//198 152//196
f 142//25 154//25 153//25
f 153//26 154//26 142//26
f 153//122 152//195 150//193
f 150//194 152//196 153//121
f 152//195 154//197 151//197
f 151//198 154//198 152//196
f 152//195 153//122 154//197
f 154//198 153//121 152//196
