# SSTK version 0.8.0
# 9
mtllib original-9.mtl
o mesh13/mesh13-geometry#mesh13-geometry
v 0.075401 0.066819 -0.702632
v 0.047466 0.066819 -0.664516
v -0.047950 0.066819 -0.702632
v 0.075401 0.066819 -0.646005
v -0.019931 0.066819 -0.664516
v 0.075401 0.068546 -0.702632
v 0.047466 0.066819 -0.655008
v -0.047950 0.066819 -0.646005
v -0.019931 0.068546 -0.664516
v -0.047950 0.068546 -0.702632
v 0.075401 0.068546 -0.646005
v 0.047014 0.066819 -0.648130
v 0.047466 0.068546 -0.655008
v -0.019931 0.066819 -0.655177
v -0.047950 0.068546 -0.646005
v 0.047466 0.068546 -0.664516
v 0.074265 0.066819 -0.630870
v 0.045657 0.066819 -0.642303
v 0.047014 0.068546 -0.648130
v -0.019269 0.066819 -0.644954
v -0.047109 0.068546 -0.635235
v -0.019931 0.068546 -0.655177
v 0.074265 0.068546 -0.630870
v 0.045657 0.068546 -0.642303
v -0.047109 0.066819 -0.635235
v -0.019269 0.068546 -0.644954
v 0.070857 0.066819 -0.618954
v 0.043396 0.066819 -0.637528
v 0.043396 0.068546 -0.637528
v -0.017281 0.066819 -0.638180
v -0.044585 0.068546 -0.623287
v -0.017281 0.068546 -0.638180
v 0.070857 0.068546 -0.618954
v 0.029901 0.066819 -0.629009
v 0.040230 0.066819 -0.633805
v -0.013642 0.066819 -0.633679
v -0.044585 0.066819 -0.623287
v -0.013642 0.068546 -0.633679
v 0.040230 0.068546 -0.633805
v 0.029901 0.068546 -0.629009
v 0.065325 0.066819 -0.609541
v 0.035839 0.066819 -0.631007
v 0.022418 0.066819 -0.627810
v -0.040914 0.068546 -0.614410
v -0.008025 0.068546 -0.630271
v 0.035839 0.068546 -0.631007
v 0.022418 0.068546 -0.627810
v 0.065325 0.068546 -0.609541
v -0.040914 0.066819 -0.614410
v 0.013389 0.066819 -0.627410
v -0.008025 0.066819 -0.630271
v 0.000631 0.068546 -0.628125
v 0.013389 0.068546 -0.627410
v 0.057815 0.066819 -0.601915
v -0.034782 0.066819 -0.606122
v 0.000631 0.066819 -0.628125
v -0.034782 0.068546 -0.606122
v 0.057815 0.068546 -0.601915
v 0.048623 0.068546 -0.596110
v -0.026536 0.066819 -0.599002
v -0.026536 0.068546 -0.599002
v 0.048623 0.066819 -0.596110
v 0.038042 0.068546 -0.592155
v -0.016524 0.068546 -0.593627
v -0.016524 0.066819 -0.593627
v 0.038042 0.066819 -0.592155
v 0.026431 0.068546 -0.589883
v -0.003408 0.068546 -0.590251
v -0.003408 0.066819 -0.590251
v 0.026431 0.066819 -0.589883
v 0.014146 0.068546 -0.589126
v 0.014146 0.066819 -0.589126
vn 0 -1 0
vn 0 1 0
vn 0 0 -1
vn 0 0 1
vn 1 0 0
vn 0.9992986156648298 0 0.03744698559770487
vn -1 0 0
vn -0.9992986156648298 0 -0.03744698559770487
vn -0.9994612455866478 0 -0.03282100806474627
vn 0.9994612455866478 0 0.03282100806474627
vn -0.9992402636350892 0 0.038973010282465005
vn 0.9992402636350892 0 -0.038973010282465005
vn 0.9994764071308004 0 -0.032356013180030514
vn -0.9994764071308004 0 0.032356013180030514
vn 0.9844251835751332 0 0.17580403278385118
vn -0.9844251835751332 0 -0.17580403278385118
vn -0.989183394019027 0 -0.14668405842830595
vn 0.989183394019027 0 0.14668405842830595
vn -0.9897805532319649 0 0.14259893563356435
vn 0.9897805532319649 0 -0.14259893563356435
vn -0.944236872783919 0 -0.3292669556381953
vn 0.944236872783919 0 0.3292669556381953
vn 0.984710283547367 0 -0.17420005016091167
vn -0.984710283547367 0 0.17420005016091167
vn 0.9191288913176106 0 0.3939569534165627
vn -0.9191288913176106 0 -0.3939569534165627
vn -0.8400241100528258 0 -0.5425490710801721
vn 0.8400241100528258 0 0.5425490710801721
vn -0.9552919970577006 0 0.29566399908935487
vn 0.9552919970577006 0 -0.29566399908935487
vn 0.8857654088189183 0 -0.46413321421748543
vn -0.8857654088189183 0 0.46413321421748543
vn 0.7933260279706931 0 0.6087970214646615
vn -0.7933260279706931 0 -0.6087970214646615
vn -0.6569041123660856 0 -0.7539741289703017
vn 0.6569041123660856 0 0.7539741289703017
vn 0.6579962097504722 0 -0.7530212400417485
vn -0.6579962097504722 0 0.7530212400417485
vn -0.8705222153998673 0 0.4921291217712146
vn 0.8705222153998673 0 -0.4921291217712146
vn -0.23942402525911627 0 -0.9709151024310632
vn -0.4313341241336655 0 -0.9021922596419479
vn 0.4313341241336655 0 0.9021922596419479
vn 0.23942402525911627 0 0.9709151024310632
vn -0.10137997731602985 0 -0.994847777400845
vn 0.10137997731602985 0 0.994847777400845
vn 0.3840410142984233 0 -0.9233160343764416
vn -0.3840410142984233 0 0.9233160343764416
vn 0.627376234001341 0 0.7787162904487711
vn -0.627376234001341 0 -0.7787162904487711
vn 0.005882998205750534 0 -0.9999826950163244
vn -0.005882998205750534 0 0.9999826950163244
vn -0.7332284324919855 0 0.6799824010850176
vn 0.7332284324919855 0 -0.6799824010850176
vn 0.1489320647830049 0 -0.9888474301324097
vn -0.1489320647830049 0 0.9888474301324097
vn 0.44439497853883375 0 0.8958309567376366
vn -0.44439497853883375 0 -0.8958309567376366
vn -0.5666699286208436 0 0.8239448962138477
vn 0.5666699286208436 0 -0.8239448962138477
vn 0.27197600911228437 0 0.962304032241035
vn -0.27197600911228437 0 -0.962304032241035
vn -0.3637460588322923 0 0.931498150660523
vn 0.3637460588322923 0 -0.931498150660523
vn 0.1270440103829898 0 0.9918970810652721
vn -0.1270440103829898 0 -0.9918970810652721
vn -0.15732903804554857 0 0.9875462388099416
vn 0.15732903804554857 0 -0.9875462388099416
vn -0.0012280003020973217 0 0.9999992460073449
vn 0.0012280003020973217 0 -0.9999992460073449
usemtl material_0_0
f 1//1 2//1 3//1
f 2//1 1//1 4//1
f 3//2 2//2 1//2
f 4//2 1//2 2//2
f 5//1 3//1 2//1
f 2//2 3//2 5//2
f 3//3 6//3 1//3
f 1//4 6//4 3//4
f 6//5 4//6 1//5
f 1//7 4//8 6//7
f 2//1 4//1 7//1
f 7//2 4//2 2//2
f 3//1 5//1 8//1
f 8//2 5//2 3//2
f 2//4 9//4 5//4
f 5//3 9//3 2//3
f 6//3 3//3 10//3
f 10//4 3//4 6//4
f 4//6 6//5 11//6
f 11//8 6//7 4//8
f 7//1 4//1 12//1
f 12//2 4//2 7//2
f 13//9 2//7 7//9
f 7//10 2//5 13//10
f 8//1 5//1 14//1
f 14//2 5//2 8//2
f 15//11 3//7 8//11
f 8//12 3//5 15//12
f 9//4 2//4 16//4
f 16//3 2//3 9//3
f 9//5 14//13 5//5
f 5//7 14//14 9//7
f 3//7 15//11 10//7
f 10//5 15//12 3//5
f 10//2 9//2 6//2
f 6//1 9//1 10//1
f 6//2 16//2 11//2
f 11//1 16//1 6//1
f 11//6 17//15 4//6
f 4//8 17//16 11//8
f 12//1 4//1 18//1
f 18//2 4//2 12//2
f 19//17 7//9 12//17
f 12//18 7//10 19//18
f 2//7 13//9 16//7
f 16//5 13//10 2//5
f 7//9 19//17 13//9
f 13//10 19//18 7//10
f 8//1 14//1 20//1
f 20//2 14//2 8//2
f 8//11 21//19 15//11
f 15//12 21//20 8//12
f 16//2 6//2 9//2
f 9//1 6//1 16//1
f 14//13 9//5 22//13
f 22//14 9//7 14//14
f 9//2 10//2 15//2
f 15//1 10//1 9//1
f 11//2 16//2 13//2
f 13//1 16//1 11//1
f 17//15 11//6 23//15
f 23//16 11//8 17//16
f 18//1 4//1 17//1
f 17//2 4//2 18//2
f 24//21 12//17 18//21
f 18//22 12//18 24//22
f 12//17 24//21 19//17
f 19//18 24//22 12//18
f 11//2 13//2 19//2
f 19//1 13//1 11//1
f 22//13 20//23 14//13
f 14//14 20//24 22//14
f 8//1 20//1 25//1
f 25//2 20//2 8//2
f 21//19 8//11 25//19
f 25//20 8//12 21//20
f 26//2 15//2 21//2
f 21//1 15//1 26//1
f 9//2 15//2 22//2
f 22//1 15//1 9//1
f 11//2 24//2 23//2
f 23//1 24//1 11//1
f 23//15 27//25 17//15
f 17//16 27//26 23//16
f 18//1 17//1 28//1
f 28//2 17//2 18//2
f 18//21 29//27 24//21
f 24//22 29//28 18//22
f 11//2 19//2 24//2
f 24//1 19//1 11//1
f 20//23 22//13 26//23
f 26//24 22//14 20//24
f 25//1 20//1 30//1
f 30//2 20//2 25//2
f 25//19 31//29 21//19
f 21//20 31//30 25//20
f 22//2 15//2 26//2
f 26//1 15//1 22//1
f 26//2 21//2 32//2
f 32//1 21//1 26//1
f 23//2 24//2 29//2
f 29//1 24//1 23//1
f 27//25 23//15 33//25
f 33//26 23//16 27//26
f 34//1 17//1 27//1
f 27//2 17//2 34//2
f 28//1 17//1 35//1
f 35//2 17//2 28//2
f 29//27 18//21 28//27
f 28//28 18//22 29//28
f 26//23 30//31 20//23
f 20//24 30//32 26//24
f 25//1 30//1 36//1
f 36//2 30//2 25//2
f 31//29 25//19 37//29
f 37//30 25//20 31//30
f 38//2 21//2 31//2
f 31//1 21//1 38//1
f 32//2 21//2 38//2
f 38//1 21//1 32//1
f 30//31 26//23 32//31
f 32//32 26//24 30//32
f 23//2 29//2 39//2
f 39//1 29//1 23//1
f 23//2 40//2 33//2
f 33//1 40//1 23//1
f 33//25 41//33 27//25
f 27//26 41//34 33//26
f 42//1 17//1 34//1
f 34//2 17//2 42//2
f 34//1 27//1 43//1
f 43//2 27//2 34//2
f 35//1 17//1 42//1
f 42//2 17//2 35//2
f 39//35 28//27 35//35
f 35//36 28//28 39//36
f 28//27 39//35 29//27
f 29//28 39//36 28//28
f 32//31 36//37 30//31
f 30//32 36//38 32//32
f 25//1 36//1 37//1
f 37//2 36//2 25//2
f 37//29 44//39 31//29
f 31//30 44//40 37//30
f 38//2 31//2 45//2
f 45//1 31//1 38//1
f 36//37 32//31 38//37
f 38//38 32//32 36//38
f 23//2 39//2 46//2
f 46//1 39//1 23//1
f 23//2 46//2 40//2
f 40//1 46//1 23//1
f 33//2 40//2 47//2
f 47//1 40//1 33//1
f 41//33 33//25 48//33
f 48//34 33//26 41//34
f 49//1 27//1 41//1
f 41//2 27//2 49//2
f 34//41 46//42 42//42
f 42//43 46//43 34//44
f 43//1 27//1 50//1
f 50//2 27//2 43//2
f 43//45 40//41 34//41
f 34//44 40//44 43//46
f 42//42 39//35 35//35
f 35//36 39//36 42//43
f 37//1 36//1 51//1
f 51//2 36//2 37//2
f 44//39 37//29 49//39
f 49//40 37//30 44//40
f 33//2 31//2 44//2
f 44//1 31//1 33//1
f 45//2 31//2 52//2
f 52//1 31//1 45//1
f 45//47 36//37 38//37
f 38//38 36//38 45//48
f 39//35 42//42 46//42
f 46//43 42//43 39//36
f 46//42 34//41 40//41
f 40//44 34//44 46//43
f 40//41 43//45 47//45
f 47//46 43//46 40//44
f 33//2 47//2 53//2
f 53//1 47//1 33//1
f 33//2 44//2 48//2
f 48//1 44//1 33//1
f 48//33 54//49 41//33
f 41//34 54//50 48//34
f 37//1 27//1 49//1
f 49//2 27//2 37//2
f 49//1 41//1 55//1
f 55//2 41//2 49//2
f 50//1 27//1 37//1
f 37//2 27//2 50//2
f 50//51 47//45 43//45
f 43//46 47//46 50//52
f 36//37 45//47 51//47
f 51//48 45//48 36//38
f 37//1 51//1 56//1
f 56//2 51//2 37//2
f 49//39 57//53 44//39
f 44//40 57//54 49//40
f 33//2 53//2 31//2
f 31//1 53//1 33//1
f 52//2 31//2 53//2
f 53//1 31//1 52//1
f 52//55 51//47 45//47
f 45//48 51//48 52//56
f 47//45 50//51 53//51
f 53//52 50//52 47//46
f 48//2 44//2 57//2
f 57//1 44//1 48//1
f 54//49 48//33 58//49
f 58//50 48//34 54//50
f 55//1 41//1 54//1
f 54//2 41//2 55//2
f 57//53 49//39 55//53
f 55//54 49//40 57//54
f 37//1 56//1 50//1
f 50//2 56//2 37//2
f 51//47 52//55 56//55
f 56//56 52//56 51//48
f 53//51 56//55 52//55
f 52//56 56//56 53//52
f 56//55 53//51 50//51
f 50//52 53//52 56//56
f 48//2 57//2 58//2
f 58//1 57//1 48//1
f 59//57 54//49 58//49
f 58//50 54//50 59//58
f 55//1 54//1 60//1
f 60//2 54//2 55//2
f 60//59 57//53 55//53
f 55//54 57//54 60//60
f 58//2 57//2 61//2
f 61//1 57//1 58//1
f 54//49 59//57 62//57
f 62//58 59//58 54//50
f 58//2 61//2 59//2
f 59//1 61//1 58//1
f 60//1 54//1 62//1
f 62//2 54//2 60//2
f 57//53 60//59 61//59
f 61//60 60//60 57//54
f 63//61 62//57 59//57
f 59//58 62//58 63//62
f 59//2 61//2 64//2
f 64//1 61//1 59//1
f 60//1 62//1 65//1
f 65//2 62//2 60//2
f 65//63 61//59 60//59
f 60//60 61//60 65//64
f 62//57 63//61 66//61
f 66//62 63//62 62//58
f 59//2 64//2 63//2
f 63//1 64//1 59//1
f 61//59 65//63 64//63
f 64//64 65//64 61//60
f 65//1 62//1 66//1
f 66//2 62//2 65//2
f 67//65 66//61 63//61
f 63//62 66//62 67//66
f 63//2 64//2 68//2
f 68//1 64//1 63//1
f 69//67 64//63 65//63
f 65//64 64//64 69//68
f 65//1 66//1 69//1
f 69//2 66//2 65//2
f 66//61 67//65 70//65
f 70//66 67//66 66//62
f 63//2 68//2 67//2
f 67//1 68//1 63//1
f 64//63 69//67 68//67
f 68//68 69//68 64//64
f 69//1 66//1 70//1
f 70//2 66//2 69//2
f 71//69 70//65 67//65
f 67//66 70//66 71//70
f 67//2 68//2 71//2
f 71//1 68//1 67//1
f 72//69 68//67 69//67
f 69//68 68//68 72//70
f 69//1 70//1 72//1
f 72//2 70//2 69//2
f 70//65 71//69 72//69
f 72//70 71//70 70//66
f 68//67 72//69 71//69
f 71//70 72//70 68//68
