# https://github.com/mikedh/trimesh
v -0.01026147 0.02250000 0.00000000
v -0.00001929 -0.00158165 0.00000000
v 0.01029040 0.02250000 0.00000000
v 0.02502679 0.02250000 0.00000000
v 0.02502679 -0.02250000 0.00000000
v 0.01406129 -0.02250000 0.00000000
v 0.01406129 0.01041577 0.00000000
v 0.00369374 -0.01384912 0.00000000
v -0.00366481 -0.01384912 0.00000000
v -0.01403236 0.01041577 0.00000000
v -0.01403236 -0.02250000 0.00000000
v -0.02502679 -0.02250000 0.00000000
v -0.02502679 0.02250000 0.00000000
v -0.01026147 0.02250000 0.06000000
v -0.00001929 -0.00158165 0.06000000
v 0.01029040 0.02250000 0.06000000
v 0.02502679 0.02250000 0.06000000
v 0.02502679 -0.02250000 0.06000000
v 0.01406129 -0.02250000 0.06000000
v 0.01406129 0.01041577 0.06000000
v 0.00369374 -0.01384912 0.06000000
v -0.00366481 -0.01384912 0.06000000
v -0.01403236 0.01041577 0.06000000
v -0.01403236 -0.02250000 0.06000000
v -0.02502679 -0.02250000 0.06000000
v -0.02502679 0.02250000 0.06000000
f 12 13 1
f 10 11 12
f 8 9 10
f 5 6 7
f 3 4 5
f 10 12 1
f 3 5 7
f 10 1 2
f 3 7 8
f 8 10 2
f 2 3 8
f 14 26 25
f 25 24 23
f 23 22 21
f 20 19 18
f 18 17 16
f 14 25 23
f 20 18 16
f 15 14 23
f 21 20 16
f 15 23 21
f 21 16 15
f 14 15 1
f 1 15 2
f 15 16 2
f 2 16 3
f 16 17 3
f 3 17 4
f 17 18 4
f 4 18 5
f 18 19 5
f 5 19 6
f 19 20 6
f 6 20 7
f 20 21 7
f 7 21 8
f 21 22 8
f 8 22 9
f 22 23 9
f 9 23 10
f 23 24 10
f 10 24 11
f 24 25 11
f 11 25 12
f 26 14 13
f 13 14 1
f 25 26 12
f 12 26 13

