# https://github.com/mikedh/trimesh
v 0.02073511 0.02250000 0.00000000
v 0.02073511 0.01372375 0.00000000
v 0.00581547 0.01372375 0.00000000
v 0.00581547 -0.02250000 0.00000000
v -0.00578654 -0.02250000 0.00000000
v -0.00578654 0.01372375 0.00000000
v -0.02073511 0.01372375 0.00000000
v -0.02073511 0.02250000 0.00000000
v 0.02073511 0.02250000 0.06000000
v 0.02073511 0.01372375 0.06000000
v 0.00581547 0.01372375 0.06000000
v 0.00581547 -0.02250000 0.06000000
v -0.00578654 -0.02250000 0.06000000
v -0.00578654 0.01372375 0.06000000
v -0.02073511 0.01372375 0.06000000
v -0.02073511 0.02250000 0.06000000
f 7 8 1
f 4 5 6
f 1 2 3
f 6 7 1
f 3 4 6
f 6 1 3
f 9 16 15
f 14 13 12
f 11 10 9
f 9 15 14
f 14 12 11
f 11 9 14
f 9 10 1
f 1 10 2
f 10 11 2
f 2 11 3
f 11 12 3
f 3 12 4
f 12 13 4
f 4 13 5
f 13 14 5
f 5 14 6
f 14 15 6
f 6 15 7
f 16 9 8
f 8 9 1
f 15 16 7
f 7 16 8

