# https://github.com/mikedh/trimesh
v -0.00905111 -0.01430240 0.00000000
v -0.01191545 -0.02250000 0.00000000
v -0.02358498 -0.02250000 0.00000000
v -0.00691974 0.02250000 0.00000000
v 0.00691974 0.02250000 0.00000000
v 0.02358498 -0.02250000 0.00000000
v 0.01192510 -0.02250000 0.00000000
v 0.00908969 -0.01430240 0.00000000
v 0.00616749 -0.00595049 0.00000000
v 0.00001447 0.01194921 0.00000000
v -0.00615784 -0.00595049 0.00000000
v -0.00905111 -0.01430240 0.06000000
v -0.01191545 -0.02250000 0.06000000
v -0.02358498 -0.02250000 0.06000000
v -0.00691974 0.02250000 0.06000000
v 0.00691974 0.02250000 0.06000000
v 0.02358498 -0.02250000 0.06000000
v 0.01192510 -0.02250000 0.06000000
v 0.00908969 -0.01430240 0.06000000
v 0.00616749 -0.00595049 0.06000000
v 0.00001447 0.01194921 0.06000000
v -0.00615784 -0.00595049 0.06000000
f 10 11 3
f 2 3 11
f 6 7 8
f 4 5 6
f 10 3 4
f 1 2 11
f 10 4 6
f 1 11 9
f 10 6 8
f 8 1 9
f 9 10 8
f 14 22 21
f 22 14 13
f 19 18 17
f 17 16 15
f 15 14 21
f 22 13 12
f 17 15 21
f 20 22 12
f 19 17 21
f 20 12 19
f 19 21 20
f 12 13 1
f 1 13 2
f 13 14 2
f 2 14 3
f 14 15 3
f 3 15 4
f 15 16 4
f 4 16 5
f 16 17 5
f 5 17 6
f 17 18 6
f 6 18 7
f 19 12 8
f 8 12 1
f 18 19 7
f 7 19 8
f 20 21 9
f 9 21 10
f 22 20 11
f 11 20 9
f 21 22 10
f 10 22 11

