# https://github.com/mikedh/trimesh
v 0.01565259 0.02250000 0.00000000
v 0.01565259 0.01372375 0.00000000
v -0.00405058 0.01372375 0.00000000
v -0.00405058 0.00535255 0.00000000
v 0.01448564 0.00535255 0.00000000
v 0.01448564 -0.00342370 0.00000000
v -0.00405058 -0.00342370 0.00000000
v -0.00405058 -0.02250000 0.00000000
v -0.01565259 -0.02250000 0.00000000
v -0.01565259 0.02250000 0.00000000
v 0.01565259 0.02250000 0.06000000
v 0.01565259 0.01372375 0.06000000
v -0.00405058 0.01372375 0.06000000
v -0.00405058 0.00535255 0.06000000
v 0.01448564 0.00535255 0.06000000
v 0.01448564 -0.00342370 0.06000000
v -0.00405058 -0.00342370 0.06000000
v -0.00405058 -0.02250000 0.06000000
v -0.01565259 -0.02250000 0.06000000
v -0.01565259 0.02250000 0.06000000
f 8 9 10
f 5 6 7
f 1 2 3
f 7 8 10
f 4 5 7
f 10 1 3
f 4 7 10
f 10 3 4
f 20 19 18
f 17 16 15
f 13 12 11
f 20 18 17
f 17 15 14
f 13 11 20
f 20 17 14
f 14 13 20
f 11 12 1
f 1 12 2
f 12 13 2
f 2 13 3
f 13 14 3
f 3 14 4
f 14 15 4
f 4 15 5
f 15 16 5
f 5 16 6
f 16 17 6
f 6 17 7
f 17 18 7
f 7 18 8
f 18 19 8
f 8 19 9
f 20 11 10
f 10 11 1
f 19 20 9
f 9 20 10

