# https://github.com/mikedh/trimesh
v 0.01531987 0.02250000 0.00000000
v 0.01531987 0.01372375 0.00000000
v -0.00438330 0.01372375 0.00000000
v -0.00438330 0.00535255 0.00000000
v 0.01415291 0.00535255 0.00000000
v 0.01415291 -0.00342370 0.00000000
v -0.00438330 -0.00342370 0.00000000
v -0.00438330 -0.01373339 0.00000000
v 0.01598532 -0.01373339 0.00000000
v 0.01598532 -0.02250000 0.00000000
v -0.01598532 -0.02250000 0.00000000
v -0.01598532 0.02250000 0.00000000
v 0.01531987 0.02250000 0.06000000
v 0.01531987 0.01372375 0.06000000
v -0.00438330 0.01372375 0.06000000
v -0.00438330 0.00535255 0.06000000
v 0.01415291 0.00535255 0.06000000
v 0.01415291 -0.00342370 0.06000000
v -0.00438330 -0.00342370 0.06000000
v -0.00438330 -0.01373339 0.06000000
v 0.01598532 -0.01373339 0.06000000
v 0.01598532 -0.02250000 0.06000000
v -0.01598532 -0.02250000 0.06000000
v -0.01598532 0.02250000 0.06000000
f 9 10 11
f 5 6 7
f 1 2 3
f 8 9 11
f 4 5 7
f 12 1 3
f 8 11 12
f 12 3 4
f 7 8 12
f 12 4 7
f 23 22 21
f 19 18 17
f 15 14 13
f 23 21 20
f 19 17 16
f 15 13 24
f 24 23 20
f 16 15 24
f 24 20 19
f 19 16 24
f 13 14 1
f 1 14 2
f 14 15 2
f 2 15 3
f 15 16 3
f 3 16 4
f 16 17 4
f 4 17 5
f 17 18 5
f 5 18 6
f 18 19 6
f 6 19 7
f 19 20 7
f 7 20 8
f 20 21 8
f 8 21 9
f 21 22 9
f 9 22 10
f 22 23 10
f 10 23 11
f 24 13 12
f 12 13 1
f 23 24 11
f 11 24 12

