# https://github.com/mikedh/trimesh
v -0.00720907 0.02250000 0.00000000
v 0.00915720 -0.00836155 0.00000000
v 0.00915720 0.02250000 0.00000000
v 0.02016127 0.02250000 0.00000000
v 0.02016127 -0.02250000 0.00000000
v 0.00719942 -0.02250000 0.00000000
v -0.00916685 0.00836155 0.00000000
v -0.00916685 -0.02250000 0.00000000
v -0.02016127 -0.02250000 0.00000000
v -0.02016127 0.02250000 0.00000000
v -0.00720907 0.02250000 0.06000000
v 0.00915720 -0.00836155 0.06000000
v 0.00915720 0.02250000 0.06000000
v 0.02016127 0.02250000 0.06000000
v 0.02016127 -0.02250000 0.06000000
v 0.00719942 -0.02250000 0.06000000
v -0.00916685 0.00836155 0.06000000
v -0.00916685 -0.02250000 0.06000000
v -0.02016127 -0.02250000 0.06000000
v -0.02016127 0.02250000 0.06000000
f 9 10 1
f 7 8 9
f 5 6 7
f 3 4 5
f 7 9 1
f 2 3 5
f 7 1 2
f 2 5 7
f 11 20 19
f 19 18 17
f 17 16 15
f 15 14 13
f 11 19 17
f 15 13 12
f 12 11 17
f 17 15 12
f 11 12 1
f 1 12 2
f 12 13 2
f 2 13 3
f 13 14 3
f 3 14 4
f 14 15 4
f 4 15 5
f 15 16 5
f 5 16 6
f 16 17 6
f 6 17 7
f 17 18 7
f 7 18 8
f 18 19 8
f 8 19 9
f 20 11 10
f 10 11 1
f 19 20 9
f 9 20 10

