# SSTK version 0.8.0
# 47
mtllib original-47.mtl
o #ID322
v 0.203351 0.622843 -0.357901
v 0.188476 0.635442 -0.335639
v 0.188476 0.622843 -0.335639
v 0.203351 0.635442 -0.357901
v 0.203351 0.635442 -0.357901
v 0.203351 0.622843 -0.357901
v 0.188476 0.635442 -0.335639
v 0.188476 0.622843 -0.335639
v -0.176845 0.622843 -0.486960
v -0.176845 0.622843 -0.433527
v -0.178596 0.622843 -0.460243
v -0.171621 0.622843 -0.513220
v -0.171621 0.622843 -0.407267
v -0.163015 0.622843 -0.538573
v -0.167742 0.622843 -0.460243
v -0.166083 0.622843 -0.485544
v -0.161137 0.622843 -0.510411
v -0.151173 0.622843 -0.562586
v -0.152987 0.622843 -0.534419
v -0.141773 0.622843 -0.557159
v -0.136298 0.622843 -0.584848
v -0.127687 0.622843 -0.578240
v -0.118645 0.622843 -0.604978
v -0.110970 0.622843 -0.597303
v -0.098515 0.622843 -0.622631
v -0.091908 0.622843 -0.614020
v -0.076253 0.622843 -0.637505
v -0.070826 0.622843 -0.628106
v -0.052240 0.622843 -0.649347
v -0.048087 0.622843 -0.639319
v -0.026887 0.622843 -0.657953
v -0.024078 0.622843 -0.647469
v -0.000628 0.622843 -0.663177
v 0.000789 0.622843 -0.652416
v 0.026089 0.622843 -0.664928
v 0.026089 0.622843 -0.654074
v 0.052806 0.622843 -0.663177
v 0.051389 0.622843 -0.652416
v 0.076256 0.622843 -0.647469
v 0.079065 0.622843 -0.657953
v 0.100265 0.622843 -0.639319
v 0.104419 0.622843 -0.649347
v 0.123004 0.622843 -0.628106
v 0.128431 0.622843 -0.637505
v 0.144086 0.622843 -0.614020
v 0.150693 0.622843 -0.622631
v 0.163148 0.622843 -0.597303
v 0.170823 0.622843 -0.604978
v 0.179865 0.622843 -0.578240
v 0.188476 0.622843 -0.584848
v 0.193951 0.622843 -0.557159
v 0.203351 0.622843 -0.562586
v 0.205165 0.622843 -0.534419
v 0.215193 0.622843 -0.538573
v 0.213315 0.622843 -0.510411
v 0.218261 0.622843 -0.485544
v 0.223799 0.622843 -0.513220
v 0.219920 0.622843 -0.460243
v -0.163015 0.622843 -0.381914
v -0.166083 0.622843 -0.434944
v -0.161137 0.622843 -0.410076
v -0.151173 0.622843 -0.357901
v -0.152987 0.622843 -0.386067
v -0.141773 0.622843 -0.363329
v -0.136298 0.622843 -0.335639
v -0.127687 0.622843 -0.342247
v -0.118645 0.622843 -0.315510
v -0.110970 0.622843 -0.323185
v -0.098515 0.622843 -0.297856
v -0.091908 0.622843 -0.306468
v -0.076253 0.622843 -0.282981
v -0.070826 0.622843 -0.292381
v -0.052240 0.622843 -0.271139
v -0.048087 0.622843 -0.281167
v -0.026887 0.622843 -0.262533
v -0.024078 0.622843 -0.273017
v -0.000628 0.622843 -0.257310
v 0.000789 0.622843 -0.268071
v 0.026089 0.622843 -0.255559
v 0.026089 0.622843 -0.266413
v 0.051389 0.622843 -0.268071
v 0.052806 0.622843 -0.257310
v 0.076256 0.622843 -0.273017
v 0.079065 0.622843 -0.262533
v 0.100265 0.622843 -0.281167
v 0.104419 0.622843 -0.271139
v 0.123004 0.622843 -0.292381
v 0.128431 0.622843 -0.282981
v 0.144086 0.622843 -0.306468
v 0.150693 0.622843 -0.297856
v 0.163148 0.622843 -0.323185
v 0.170823 0.622843 -0.315510
v 0.179865 0.622843 -0.342247
v 0.188476 0.622843 -0.335639
v 0.193951 0.622843 -0.363329
v 0.203351 0.622843 -0.357901
v 0.205165 0.622843 -0.386067
v 0.215193 0.622843 -0.381914
v 0.213315 0.622843 -0.410076
v 0.218261 0.622843 -0.434944
v 0.223799 0.622843 -0.407267
v 0.229023 0.622843 -0.486960
v 0.229023 0.622843 -0.433527
v 0.230774 0.622843 -0.460243
v 0.230774 0.622843 -0.460243
v 0.229023 0.622843 -0.486960
v 0.229023 0.622843 -0.433527
v 0.223799 0.622843 -0.407267
v 0.223799 0.622843 -0.513220
v 0.219920 0.622843 -0.460243
v 0.218261 0.622843 -0.434944
v 0.215193 0.622843 -0.381914
v 0.213315 0.622843 -0.410076
v 0.205165 0.622843 -0.386067
v 0.203351 0.622843 -0.357901
v 0.193951 0.622843 -0.363329
v 0.188476 0.622843 -0.335639
v 0.179865 0.622843 -0.342247
v 0.170823 0.622843 -0.315510
v 0.163148 0.622843 -0.323185
v 0.150693 0.622843 -0.297856
v 0.144086 0.622843 -0.306468
v 0.128431 0.622843 -0.282981
v 0.123004 0.622843 -0.292381
v 0.104419 0.622843 -0.271139
v 0.100265 0.622843 -0.281167
v 0.079065 0.622843 -0.262533
v 0.076256 0.622843 -0.273017
v 0.052806 0.622843 -0.257310
v 0.051389 0.622843 -0.268071
v 0.026089 0.622843 -0.255559
v 0.026089 0.622843 -0.266413
v 0.000789 0.622843 -0.268071
v -0.000628 0.622843 -0.257310
v -0.024078 0.622843 -0.273017
v -0.026887 0.622843 -0.262533
v -0.048087 0.622843 -0.281167
v -0.052240 0.622843 -0.271139
v -0.070826 0.622843 -0.292381
v -0.076253 0.622843 -0.282981
v -0.091908 0.622843 -0.306468
v -0.098515 0.622843 -0.297856
v -0.110970 0.622843 -0.323185
v -0.118645 0.622843 -0.315510
v -0.127687 0.622843 -0.342247
v -0.136298 0.622843 -0.335639
v -0.141773 0.622843 -0.363329
v -0.151173 0.622843 -0.357901
v -0.152987 0.622843 -0.386067
v -0.161137 0.622843 -0.410076
v -0.163015 0.622843 -0.381914
v -0.166083 0.622843 -0.434944
v -0.167742 0.622843 -0.460243
v -0.171621 0.622843 -0.407267
v 0.218261 0.622843 -0.485544
v 0.215193 0.622843 -0.538573
v 0.213315 0.622843 -0.510411
v 0.205165 0.622843 -0.534419
v 0.203351 0.622843 -0.562586
v 0.193951 0.622843 -0.557159
v 0.188476 0.622843 -0.584848
v 0.179865 0.622843 -0.578240
v 0.170823 0.622843 -0.604978
v 0.163148 0.622843 -0.597303
v 0.150693 0.622843 -0.622631
v 0.144086 0.622843 -0.614020
v 0.128431 0.622843 -0.637505
v 0.123004 0.622843 -0.628106
v 0.104419 0.622843 -0.649347
v 0.100265 0.622843 -0.639319
v 0.079065 0.622843 -0.657953
v 0.076256 0.622843 -0.647469
v 0.052806 0.622843 -0.663177
v 0.051389 0.622843 -0.652416
v 0.026089 0.622843 -0.654074
v 0.026089 0.622843 -0.664928
v 0.000789 0.622843 -0.652416
v -0.000628 0.622843 -0.663177
v -0.024078 0.622843 -0.647469
v -0.026887 0.622843 -0.657953
v -0.048087 0.622843 -0.639319
v -0.052240 0.622843 -0.649347
v -0.070826 0.622843 -0.628106
v -0.076253 0.622843 -0.637505
v -0.091908 0.622843 -0.614020
v -0.098515 0.622843 -0.622631
v -0.110970 0.622843 -0.597303
v -0.118645 0.622843 -0.604978
v -0.127687 0.622843 -0.578240
v -0.136298 0.622843 -0.584848
v -0.141773 0.622843 -0.557159
v -0.151173 0.622843 -0.562586
v -0.152987 0.622843 -0.534419
v -0.161137 0.622843 -0.510411
v -0.163015 0.622843 -0.538573
v -0.166083 0.622843 -0.485544
v -0.171621 0.622843 -0.513220
v -0.176845 0.622843 -0.433527
v -0.176845 0.622843 -0.486960
v -0.178596 0.622843 -0.460243
v 0.215193 0.622843 -0.381914
v 0.215193 0.635442 -0.381914
v 0.215193 0.635442 -0.381914
v 0.215193 0.622843 -0.381914
v -0.163015 0.635442 -0.381914
v -0.167742 0.635442 -0.460243
v -0.171621 0.635442 -0.407267
v -0.166083 0.635442 -0.434944
v -0.161137 0.635442 -0.410076
v -0.151173 0.635442 -0.357901
v -0.152987 0.635442 -0.386067
v -0.141773 0.635442 -0.363329
v -0.136298 0.635442 -0.335639
v -0.127687 0.635442 -0.342247
v -0.118645 0.635442 -0.315510
v -0.110970 0.635442 -0.323185
v -0.098515 0.635442 -0.297856
v -0.091908 0.635442 -0.306468
v -0.076253 0.635442 -0.282981
v -0.070826 0.635442 -0.292381
v -0.052240 0.635442 -0.271139
v -0.048087 0.635442 -0.281167
v -0.026887 0.635442 -0.262533
v -0.024078 0.635442 -0.273017
v -0.000628 0.635442 -0.257310
v 0.000789 0.635442 -0.268071
v 0.026089 0.635442 -0.255559
v 0.026089 0.635442 -0.266413
v 0.051389 0.635442 -0.268071
v 0.052806 0.635442 -0.257310
v 0.076256 0.635442 -0.273017
v 0.079065 0.635442 -0.262533
v 0.100265 0.635442 -0.281167
v 0.104419 0.635442 -0.271139
v 0.123004 0.635442 -0.292381
v 0.128431 0.635442 -0.282981
v 0.144086 0.635442 -0.306468
v 0.150693 0.635442 -0.297856
v 0.163148 0.635442 -0.323185
v 0.170823 0.635442 -0.315510
v 0.179865 0.635442 -0.342247
v 0.188476 0.635442 -0.335639
v 0.193951 0.635442 -0.363329
v 0.203351 0.635442 -0.357901
v 0.205165 0.635442 -0.386067
v 0.215193 0.635442 -0.381914
v 0.213315 0.635442 -0.410076
v 0.218261 0.635442 -0.434944
v 0.223799 0.635442 -0.407267
v 0.219920 0.635442 -0.460243
v -0.176845 0.635442 -0.433527
v -0.176845 0.635442 -0.486960
v -0.178596 0.635442 -0.460243
v -0.171621 0.635442 -0.513220
v -0.163015 0.635442 -0.538573
v -0.166083 0.635442 -0.485544
v -0.161137 0.635442 -0.510411
v -0.151173 0.635442 -0.562586
v -0.152987 0.635442 -0.534419
v -0.141773 0.635442 -0.557159
v -0.136298 0.635442 -0.584848
v -0.127687 0.635442 -0.578240
v -0.118645 0.635442 -0.604978
v -0.110970 0.635442 -0.597303
v -0.098515 0.635442 -0.622631
v -0.091908 0.635442 -0.614020
v -0.076253 0.635442 -0.637505
v -0.070826 0.635442 -0.628106
v -0.052240 0.635442 -0.649347
v -0.048087 0.635442 -0.639319
v -0.026887 0.635442 -0.657953
v -0.024078 0.635442 -0.647469
v -0.000628 0.635442 -0.663177
v 0.000789 0.635442 -0.652416
v 0.026089 0.635442 -0.664928
v 0.026089 0.635442 -0.654074
v 0.051389 0.635442 -0.652416
v 0.052806 0.635442 -0.663177
v 0.076256 0.635442 -0.647469
v 0.079065 0.635442 -0.657953
v 0.100265 0.635442 -0.639319
v 0.104419 0.635442 -0.649347
v 0.123004 0.635442 -0.628106
v 0.128431 0.635442 -0.637505
v 0.144086 0.635442 -0.614020
v 0.150693 0.635442 -0.622631
v 0.163148 0.635442 -0.597303
v 0.170823 0.635442 -0.604978
v 0.179865 0.635442 -0.578240
v 0.188476 0.635442 -0.584848
v 0.193951 0.635442 -0.557159
v 0.203351 0.635442 -0.562586
v 0.205165 0.635442 -0.534419
v 0.215193 0.635442 -0.538573
v 0.213315 0.635442 -0.510411
v 0.218261 0.635442 -0.485544
v 0.223799 0.635442 -0.513220
v 0.229023 0.635442 -0.433527
v 0.229023 0.635442 -0.486960
v 0.230774 0.635442 -0.460243
v 0.230774 0.635442 -0.460243
v 0.229023 0.635442 -0.433527
v 0.229023 0.635442 -0.486960
v 0.223799 0.635442 -0.513220
v 0.223799 0.635442 -0.407267
v 0.219920 0.635442 -0.460243
v 0.218261 0.635442 -0.485544
v 0.215193 0.635442 -0.538573
v 0.213315 0.635442 -0.510411
v 0.205165 0.635442 -0.534419
v 0.203351 0.635442 -0.562586
v 0.193951 0.635442 -0.557159
v 0.188476 0.635442 -0.584848
v 0.179865 0.635442 -0.578240
v 0.170823 0.635442 -0.604978
v 0.163148 0.635442 -0.597303
v 0.150693 0.635442 -0.622631
v 0.144086 0.635442 -0.614020
v 0.128431 0.635442 -0.637505
v 0.123004 0.635442 -0.628106
v 0.104419 0.635442 -0.649347
v 0.100265 0.635442 -0.639319
v 0.079065 0.635442 -0.657953
v 0.076256 0.635442 -0.647469
v 0.052806 0.635442 -0.663177
v 0.051389 0.635442 -0.652416
v 0.026089 0.635442 -0.664928
v 0.026089 0.635442 -0.654074
v 0.000789 0.635442 -0.652416
v -0.000628 0.635442 -0.663177
v -0.024078 0.635442 -0.647469
v -0.026887 0.635442 -0.657953
v -0.048087 0.635442 -0.639319
v -0.052240 0.635442 -0.649347
v -0.070826 0.635442 -0.628106
v -0.076253 0.635442 -0.637505
v -0.091908 0.635442 -0.614020
v -0.098515 0.635442 -0.622631
v -0.110970 0.635442 -0.597303
v -0.118645 0.635442 -0.604978
v -0.127687 0.635442 -0.578240
v -0.136298 0.635442 -0.584848
v -0.141773 0.635442 -0.557159
v -0.151173 0.635442 -0.562586
v -0.152987 0.635442 -0.534419
v -0.161137 0.635442 -0.510411
v -0.163015 0.635442 -0.538573
v -0.166083 0.635442 -0.485544
v -0.167742 0.635442 -0.460243
v -0.171621 0.635442 -0.407267
v -0.171621 0.635442 -0.513220
v -0.176845 0.635442 -0.433527
v -0.176845 0.635442 -0.486960
v -0.178596 0.635442 -0.460243
v 0.218261 0.635442 -0.434944
v 0.215193 0.635442 -0.381914
v 0.213315 0.635442 -0.410076
v 0.205165 0.635442 -0.386067
v 0.203351 0.635442 -0.357901
v 0.193951 0.635442 -0.363329
v 0.188476 0.635442 -0.335639
v 0.179865 0.635442 -0.342247
v 0.170823 0.635442 -0.315510
v 0.163148 0.635442 -0.323185
v 0.150693 0.635442 -0.297856
v 0.144086 0.635442 -0.306468
v 0.128431 0.635442 -0.282981
v 0.123004 0.635442 -0.292381
v 0.104419 0.635442 -0.271139
v 0.100265 0.635442 -0.281167
v 0.079065 0.635442 -0.262533
v 0.076256 0.635442 -0.273017
v 0.052806 0.635442 -0.257310
v 0.051389 0.635442 -0.268071
v 0.026089 0.635442 -0.255559
v 0.026089 0.635442 -0.266413
v 0.000789 0.635442 -0.268071
v -0.000628 0.635442 -0.257310
v -0.024078 0.635442 -0.273017
v -0.026887 0.635442 -0.262533
v -0.048087 0.635442 -0.281167
v -0.052240 0.635442 -0.271139
v -0.070826 0.635442 -0.292381
v -0.076253 0.635442 -0.282981
v -0.091908 0.635442 -0.306468
v -0.098515 0.635442 -0.297856
v -0.110970 0.635442 -0.323185
v -0.118645 0.635442 -0.315510
v -0.127687 0.635442 -0.342247
v -0.136298 0.635442 -0.335639
v -0.141773 0.635442 -0.363329
v -0.151173 0.635442 -0.357901
v -0.152987 0.635442 -0.386067
v -0.161137 0.635442 -0.410076
v -0.163015 0.635442 -0.381914
v -0.166083 0.635442 -0.434944
v 0.170823 0.635442 -0.315510
v 0.170823 0.622843 -0.315510
v 0.170823 0.635442 -0.315510
v 0.170823 0.622843 -0.315510
v -0.151173 0.635442 -0.562586
v -0.163015 0.622843 -0.538573
v -0.163015 0.635442 -0.538573
v -0.151173 0.622843 -0.562586
v -0.151173 0.622843 -0.562586
v -0.151173 0.635442 -0.562586
v -0.163015 0.622843 -0.538573
v -0.163015 0.635442 -0.538573
v -0.136298 0.635442 -0.584848
v -0.136298 0.622843 -0.584848
v -0.136298 0.622843 -0.584848
v -0.136298 0.635442 -0.584848
v -0.118645 0.635442 -0.604978
v -0.118645 0.622843 -0.604978
v -0.118645 0.622843 -0.604978
v -0.118645 0.635442 -0.604978
v -0.098515 0.622843 -0.622631
v -0.098515 0.635442 -0.622631
v -0.098515 0.635442 -0.622631
v -0.098515 0.622843 -0.622631
v -0.076253 0.622843 -0.637505
v -0.076253 0.635442 -0.637505
v -0.076253 0.635442 -0.637505
v -0.076253 0.622843 -0.637505
v -0.052240 0.622843 -0.649347
v -0.052240 0.635442 -0.649347
v -0.052240 0.635442 -0.649347
v -0.052240 0.622843 -0.649347
v -0.026887 0.622843 -0.657953
v -0.026887 0.635442 -0.657953
v -0.026887 0.635442 -0.657953
v -0.026887 0.622843 -0.657953
v -0.000628 0.622843 -0.663177
v -0.000628 0.635442 -0.663177
v -0.000628 0.635442 -0.663177
v -0.000628 0.622843 -0.663177
v 0.026089 0.622843 -0.664928
v 0.026089 0.635442 -0.664928
v 0.026089 0.635442 -0.664928
v 0.026089 0.622843 -0.664928
v 0.052806 0.622843 -0.663177
v 0.052806 0.635442 -0.663177
v 0.052806 0.635442 -0.663177
v 0.052806 0.622843 -0.663177
v 0.079065 0.622843 -0.657953
v 0.079065 0.635442 -0.657953
v 0.079065 0.635442 -0.657953
v 0.079065 0.622843 -0.657953
v 0.104419 0.622843 -0.649347
v 0.104419 0.635442 -0.649347
v 0.104419 0.635442 -0.649347
v 0.104419 0.622843 -0.649347
v 0.128431 0.622843 -0.637505
v 0.128431 0.635442 -0.637505
v 0.128431 0.635442 -0.637505
v 0.128431 0.622843 -0.637505
v 0.150693 0.622843 -0.622631
v 0.150693 0.635442 -0.622631
v 0.150693 0.635442 -0.622631
v 0.150693 0.622843 -0.622631
v 0.170823 0.622843 -0.604978
v 0.170823 0.635442 -0.604978
v 0.170823 0.635442 -0.604978
v 0.170823 0.622843 -0.604978
v 0.188476 0.635442 -0.584848
v 0.188476 0.622843 -0.584848
v 0.188476 0.635442 -0.584848
v 0.188476 0.622843 -0.584848
v 0.203351 0.635442 -0.562586
v 0.203351 0.622843 -0.562586
v 0.203351 0.635442 -0.562586
v 0.203351 0.622843 -0.562586
v 0.215193 0.635442 -0.538573
v 0.215193 0.622843 -0.538573
v 0.215193 0.635442 -0.538573
v 0.215193 0.622843 -0.538573
v 0.223799 0.635442 -0.513220
v 0.223799 0.622843 -0.513220
v 0.223799 0.635442 -0.513220
v 0.223799 0.622843 -0.513220
v 0.229023 0.635442 -0.486960
v 0.229023 0.622843 -0.486960
v 0.229023 0.635442 -0.486960
v 0.229023 0.622843 -0.486960
v 0.230774 0.635442 -0.460243
v 0.230774 0.622843 -0.460243
v 0.230774 0.635442 -0.460243
v 0.230774 0.622843 -0.460243
v 0.229023 0.635442 -0.433527
v 0.229023 0.622843 -0.433527
v 0.229023 0.635442 -0.433527
v 0.229023 0.622843 -0.433527
v 0.223799 0.635442 -0.407267
v 0.223799 0.622843 -0.407267
v 0.223799 0.635442 -0.407267
v 0.223799 0.622843 -0.407267
v 0.150693 0.622843 -0.297856
v 0.150693 0.635442 -0.297856
v 0.150693 0.635442 -0.297856
v 0.150693 0.622843 -0.297856
v 0.128431 0.622843 -0.282981
v 0.128431 0.635442 -0.282981
v 0.128431 0.635442 -0.282981
v 0.128431 0.622843 -0.282981
v 0.104419 0.622843 -0.271139
v 0.104419 0.635442 -0.271139
v 0.104419 0.635442 -0.271139
v 0.104419 0.622843 -0.271139
v 0.079065 0.622843 -0.262533
v 0.079065 0.635442 -0.262533
v 0.079065 0.635442 -0.262533
v 0.079065 0.622843 -0.262533
v 0.052806 0.622843 -0.257310
v 0.052806 0.635442 -0.257310
v 0.052806 0.635442 -0.257310
v 0.052806 0.622843 -0.257310
v 0.026089 0.622843 -0.255559
v 0.026089 0.635442 -0.255559
v 0.026089 0.635442 -0.255559
v 0.026089 0.622843 -0.255559
v -0.000628 0.622843 -0.257310
v -0.000628 0.635442 -0.257310
v -0.000628 0.635442 -0.257310
v -0.000628 0.622843 -0.257310
v -0.026887 0.622843 -0.262533
v -0.026887 0.635442 -0.262533
v -0.026887 0.635442 -0.262533
v -0.026887 0.622843 -0.262533
v -0.052240 0.622843 -0.271139
v -0.052240 0.635442 -0.271139
v -0.052240 0.635442 -0.271139
v -0.052240 0.622843 -0.271139
v -0.076253 0.622843 -0.282981
v -0.076253 0.635442 -0.282981
v -0.076253 0.635442 -0.282981
v -0.076253 0.622843 -0.282981
v -0.098515 0.622843 -0.297856
v -0.098515 0.635442 -0.297856
v -0.098515 0.635442 -0.297856
v -0.098515 0.622843 -0.297856
v -0.118645 0.622843 -0.315510
v -0.118645 0.635442 -0.315510
v -0.118645 0.635442 -0.315510
v -0.118645 0.622843 -0.315510
v -0.136298 0.635442 -0.335639
v -0.136298 0.622843 -0.335639
v -0.136298 0.622843 -0.335639
v -0.136298 0.635442 -0.335639
v -0.151173 0.635442 -0.357901
v -0.151173 0.622843 -0.357901
v -0.151173 0.622843 -0.357901
v -0.151173 0.635442 -0.357901
v -0.163015 0.635442 -0.381914
v -0.163015 0.622843 -0.381914
v -0.163015 0.622843 -0.381914
v -0.163015 0.635442 -0.381914
v -0.171621 0.635442 -0.407267
v -0.171621 0.622843 -0.407267
v -0.171621 0.622843 -0.407267
v -0.171621 0.635442 -0.407267
v -0.176845 0.635442 -0.433527
v -0.176845 0.622843 -0.433527
v -0.176845 0.622843 -0.433527
v -0.176845 0.635442 -0.433527
v -0.178596 0.635442 -0.460243
v -0.178596 0.622843 -0.460243
v -0.178596 0.622843 -0.460243
v -0.178596 0.635442 -0.460243
v -0.176845 0.635442 -0.486960
v -0.176845 0.622843 -0.486960
v -0.176845 0.622843 -0.486960
v -0.176845 0.635442 -0.486960
v -0.171621 0.635442 -0.513220
v -0.171621 0.622843 -0.513220
v -0.171621 0.622843 -0.513220
v -0.171621 0.635442 -0.513220
vn 0.8660254028383289 0 0.5000000016387101
vn 0.7933533393698231 0 0.6087614302095281
vn -0.8660254028383289 0 -0.5000000016387101
vn -0.7933533393698231 0 -0.6087614302095281
vn 0 -1 0
vn 0 1 0
vn 0.9238795391929062 0 0.3826834162342327
vn -0.9238795391929062 0 -0.3826834162342327
vn 0.7071067811865475 0 0.7071067811865477
vn -0.7071067811865475 0 -0.7071067811865477
vn -0.6087614302095279 0 -0.7933533393698234
vn 0.6087614302095279 0 0.7933533393698234
vn -0.5000000016387098 0 -0.866025402838329
vn 0.5000000016387098 0 0.866025402838329
vn -0.38268341623423247 0 -0.9238795391929064
vn 0.38268341623423247 0 0.9238795391929064
vn -0.2588190095935615 0 -0.9659258358036646
vn 0.2588190095935615 0 0.9659258358036646
vn -0.13052619486885536 0 -0.9914448610250888
vn 0.13052619486885536 0 0.9914448610250888
vn 0 0 -1
vn 0 0 1
vn 0.13052619486885564 0 -0.9914448610250888
vn -0.13052619486885564 0 0.9914448610250888
vn 0.2588190095935618 0 -0.9659258358036646
vn -0.2588190095935618 0 0.9659258358036646
vn 0.3826834162342327 0 -0.9238795391929062
vn -0.3826834162342327 0 0.9238795391929062
vn 0.5000000016387101 0 -0.8660254028383289
vn -0.5000000016387101 0 0.8660254028383289
vn 0.6087614302095281 0 -0.7933533393698231
vn -0.6087614302095281 0 0.7933533393698231
vn 0.7071067811865477 0 -0.7071067811865475
vn -0.7071067811865477 0 0.7071067811865475
vn 0.7933533393698234 0 -0.6087614302095279
vn -0.7933533393698234 0 0.6087614302095279
vn 0.866025402838329 0 -0.5000000016387098
vn -0.866025402838329 0 0.5000000016387098
vn 0.9238795391929064 0 -0.38268341623423247
vn -0.9238795391929064 0 0.38268341623423247
vn 0.9659258358036646 0 -0.2588190095935615
vn -0.9659258358036646 0 0.2588190095935615
vn 0.9914448610250888 0 -0.13052619486885536
vn -0.9914448610250888 0 0.13052619486885536
vn 1 0 0
vn -1 0 0
vn 0.9914448610250888 0 0.13052619486885564
vn -0.9914448610250888 0 -0.13052619486885564
vn 0.9659258358036646 0 0.2588190095935618
vn -0.9659258358036646 0 -0.2588190095935618
usemtl material_0_0
f 1//1 2//2 3//2
f 2//2 1//1 4//1
f 5//3 6//3 7//4
f 8//4 7//4 6//3
f 9//5 10//5 11//5
f 10//5 9//5 12//5
f 10//5 12//5 13//5
f 13//5 12//5 14//5
f 13//5 14//5 15//5
f 15//5 14//5 16//5
f 16//5 14//5 17//5
f 17//5 14//5 18//5
f 17//5 18//5 19//5
f 19//5 18//5 20//5
f 20//5 18//5 21//5
f 20//5 21//5 22//5
f 22//5 21//5 23//5
f 22//5 23//5 24//5
f 24//5 23//5 25//5
f 24//5 25//5 26//5
f 26//5 25//5 27//5
f 26//5 27//5 28//5
f 28//5 27//5 29//5
f 28//5 29//5 30//5
f 30//5 29//5 31//5
f 30//5 31//5 32//5
f 32//5 31//5 33//5
f 32//5 33//5 34//5
f 34//5 33//5 35//5
f 34//5 35//5 36//5
f 36//5 35//5 37//5
f 36//5 37//5 38//5
f 38//5 37//5 39//5
f 39//5 37//5 40//5
f 39//5 40//5 41//5
f 41//5 40//5 42//5
f 41//5 42//5 43//5
f 43//5 42//5 44//5
f 43//5 44//5 45//5
f 45//5 44//5 46//5
f 45//5 46//5 47//5
f 47//5 46//5 48//5
f 47//5 48//5 49//5
f 49//5 48//5 50//5
f 49//5 50//5 51//5
f 51//5 50//5 52//5
f 51//5 52//5 53//5
f 53//5 52//5 54//5
f 53//5 54//5 55//5
f 55//5 54//5 56//5
f 56//5 54//5 57//5
f 56//5 57//5 58//5
f 15//5 59//5 13//5
f 59//5 15//5 60//5
f 59//5 60//5 61//5
f 59//5 61//5 62//5
f 62//5 61//5 63//5
f 62//5 63//5 64//5
f 62//5 64//5 65//5
f 65//5 64//5 66//5
f 65//5 66//5 67//5
f 67//5 66//5 68//5
f 67//5 68//5 69//5
f 69//5 68//5 70//5
f 69//5 70//5 71//5
f 71//5 70//5 72//5
f 71//5 72//5 73//5
f 73//5 72//5 74//5
f 73//5 74//5 75//5
f 75//5 74//5 76//5
f 75//5 76//5 77//5
f 77//5 76//5 78//5
f 77//5 78//5 79//5
f 79//5 78//5 80//5
f 79//5 80//5 81//5
f 79//5 81//5 82//5
f 82//5 81//5 83//5
f 82//5 83//5 84//5
f 84//5 83//5 85//5
f 84//5 85//5 86//5
f 86//5 85//5 87//5
f 86//5 87//5 88//5
f 88//5 87//5 89//5
f 88//5 89//5 90//5
f 90//5 89//5 91//5
f 90//5 91//5 92//5
f 92//5 91//5 93//5
f 92//5 93//5 94//5
f 94//5 93//5 95//5
f 94//5 95//5 96//5
f 96//5 95//5 97//5
f 96//5 97//5 98//5
f 98//5 97//5 99//5
f 98//5 99//5 100//5
f 98//5 100//5 101//5
f 101//5 100//5 58//5
f 101//5 58//5 57//5
f 101//5 57//5 102//5
f 101//5 102//5 103//5
f 103//5 102//5 104//5
f 105//6 106//6 107//6
f 107//6 106//6 108//6
f 106//6 109//6 108//6
f 109//6 110//6 108//6
f 110//6 111//6 108//6
f 108//6 111//6 112//6
f 111//6 113//6 112//6
f 113//6 114//6 112//6
f 112//6 114//6 115//6
f 114//6 116//6 115//6
f 115//6 116//6 117//6
f 116//6 118//6 117//6
f 117//6 118//6 119//6
f 118//6 120//6 119//6
f 119//6 120//6 121//6
f 120//6 122//6 121//6
f 121//6 122//6 123//6
f 122//6 124//6 123//6
f 123//6 124//6 125//6
f 124//6 126//6 125//6
f 125//6 126//6 127//6
f 126//6 128//6 127//6
f 127//6 128//6 129//6
f 128//6 130//6 129//6
f 129//6 130//6 131//6
f 130//6 132//6 131//6
f 132//6 133//6 131//6
f 131//6 133//6 134//6
f 133//6 135//6 134//6
f 134//6 135//6 136//6
f 135//6 137//6 136//6
f 136//6 137//6 138//6
f 137//6 139//6 138//6
f 138//6 139//6 140//6
f 139//6 141//6 140//6
f 140//6 141//6 142//6
f 141//6 143//6 142//6
f 142//6 143//6 144//6
f 143//6 145//6 144//6
f 144//6 145//6 146//6
f 145//6 147//6 146//6
f 146//6 147//6 148//6
f 147//6 149//6 148//6
f 149//6 150//6 148//6
f 148//6 150//6 151//6
f 150//6 152//6 151//6
f 152//6 153//6 151//6
f 154//6 151//6 153//6
f 110//6 109//6 155//6
f 109//6 156//6 155//6
f 155//6 156//6 157//6
f 157//6 156//6 158//6
f 156//6 159//6 158//6
f 158//6 159//6 160//6
f 159//6 161//6 160//6
f 160//6 161//6 162//6
f 161//6 163//6 162//6
f 162//6 163//6 164//6
f 163//6 165//6 164//6
f 164//6 165//6 166//6
f 165//6 167//6 166//6
f 166//6 167//6 168//6
f 167//6 169//6 168//6
f 168//6 169//6 170//6
f 169//6 171//6 170//6
f 170//6 171//6 172//6
f 171//6 173//6 172//6
f 172//6 173//6 174//6
f 174//6 173//6 175//6
f 173//6 176//6 175//6
f 175//6 176//6 177//6
f 176//6 178//6 177//6
f 177//6 178//6 179//6
f 178//6 180//6 179//6
f 179//6 180//6 181//6
f 180//6 182//6 181//6
f 181//6 182//6 183//6
f 182//6 184//6 183//6
f 183//6 184//6 185//6
f 184//6 186//6 185//6
f 185//6 186//6 187//6
f 186//6 188//6 187//6
f 187//6 188//6 189//6
f 188//6 190//6 189//6
f 189//6 190//6 191//6
f 190//6 192//6 191//6
f 191//6 192//6 193//6
f 193//6 192//6 194//6
f 192//6 195//6 194//6
f 194//6 195//6 196//6
f 196//6 195//6 153//6
f 153//6 195//6 154//6
f 195//6 197//6 154//6
f 154//6 197//6 198//6
f 197//6 199//6 198//6
f 200//6 198//6 199//6
f 201//7 4//1 1//1
f 4//1 201//7 202//7
f 203//8 204//8 5//3
f 6//3 5//3 204//8
f 205//6 206//6 207//6
f 206//6 205//6 208//6
f 208//6 205//6 209//6
f 209//6 205//6 210//6
f 209//6 210//6 211//6
f 211//6 210//6 212//6
f 212//6 210//6 213//6
f 212//6 213//6 214//6
f 214//6 213//6 215//6
f 214//6 215//6 216//6
f 216//6 215//6 217//6
f 216//6 217//6 218//6
f 218//6 217//6 219//6
f 218//6 219//6 220//6
f 220//6 219//6 221//6
f 220//6 221//6 222//6
f 222//6 221//6 223//6
f 222//6 223//6 224//6
f 224//6 223//6 225//6
f 224//6 225//6 226//6
f 226//6 225//6 227//6
f 226//6 227//6 228//6
f 228//6 227//6 229//6
f 229//6 227//6 230//6
f 229//6 230//6 231//6
f 231//6 230//6 232//6
f 231//6 232//6 233//6
f 233//6 232//6 234//6
f 233//6 234//6 235//6
f 235//6 234//6 236//6
f 235//6 236//6 237//6
f 237//6 236//6 238//6
f 237//6 238//6 239//6
f 239//6 238//6 240//6
f 239//6 240//6 241//6
f 241//6 240//6 242//6
f 241//6 242//6 243//6
f 243//6 242//6 244//6
f 243//6 244//6 245//6
f 245//6 244//6 246//6
f 245//6 246//6 247//6
f 247//6 246//6 248//6
f 248//6 246//6 249//6
f 248//6 249//6 250//6
f 251//6 252//6 253//6
f 252//6 251//6 254//6
f 254//6 251//6 207//6
f 254//6 207//6 255//6
f 255//6 207//6 206//6
f 255//6 206//6 256//6
f 255//6 256//6 257//6
f 255//6 257//6 258//6
f 258//6 257//6 259//6
f 258//6 259//6 260//6
f 258//6 260//6 261//6
f 261//6 260//6 262//6
f 261//6 262//6 263//6
f 263//6 262//6 264//6
f 263//6 264//6 265//6
f 265//6 264//6 266//6
f 265//6 266//6 267//6
f 267//6 266//6 268//6
f 267//6 268//6 269//6
f 269//6 268//6 270//6
f 269//6 270//6 271//6
f 271//6 270//6 272//6
f 271//6 272//6 273//6
f 273//6 272//6 274//6
f 273//6 274//6 275//6
f 275//6 274//6 276//6
f 275//6 276//6 277//6
f 275//6 277//6 278//6
f 278//6 277//6 279//6
f 278//6 279//6 280//6
f 280//6 279//6 281//6
f 280//6 281//6 282//6
f 282//6 281//6 283//6
f 282//6 283//6 284//6
f 284//6 283//6 285//6
f 284//6 285//6 286//6
f 286//6 285//6 287//6
f 286//6 287//6 288//6
f 288//6 287//6 289//6
f 288//6 289//6 290//6
f 290//6 289//6 291//6
f 290//6 291//6 292//6
f 292//6 291//6 293//6
f 292//6 293//6 294//6
f 294//6 293//6 295//6
f 294//6 295//6 296//6
f 294//6 296//6 297//6
f 297//6 296//6 250//6
f 297//6 250//6 249//6
f 297//6 249//6 298//6
f 297//6 298//6 299//6
f 299//6 298//6 300//6
f 301//5 302//5 303//5
f 303//5 302//5 304//5
f 302//5 305//5 304//5
f 305//5 306//5 304//5
f 306//5 307//5 304//5
f 304//5 307//5 308//5
f 307//5 309//5 308//5
f 309//5 310//5 308//5
f 308//5 310//5 311//5
f 310//5 312//5 311//5
f 311//5 312//5 313//5
f 312//5 314//5 313//5
f 313//5 314//5 315//5
f 314//5 316//5 315//5
f 315//5 316//5 317//5
f 316//5 318//5 317//5
f 317//5 318//5 319//5
f 318//5 320//5 319//5
f 319//5 320//5 321//5
f 320//5 322//5 321//5
f 321//5 322//5 323//5
f 322//5 324//5 323//5
f 323//5 324//5 325//5
f 324//5 326//5 325//5
f 325//5 326//5 327//5
f 326//5 328//5 327//5
f 328//5 329//5 327//5
f 327//5 329//5 330//5
f 329//5 331//5 330//5
f 330//5 331//5 332//5
f 331//5 333//5 332//5
f 332//5 333//5 334//5
f 333//5 335//5 334//5
f 334//5 335//5 336//5
f 335//5 337//5 336//5
f 336//5 337//5 338//5
f 337//5 339//5 338//5
f 338//5 339//5 340//5
f 339//5 341//5 340//5
f 340//5 341//5 342//5
f 341//5 343//5 342//5
f 342//5 343//5 344//5
f 343//5 345//5 344//5
f 345//5 346//5 344//5
f 344//5 346//5 347//5
f 346//5 348//5 347//5
f 348//5 349//5 347//5
f 349//5 350//5 347//5
f 347//5 350//5 351//5
f 350//5 352//5 351//5
f 351//5 352//5 353//5
f 354//5 353//5 352//5
f 306//5 305//5 355//5
f 305//5 356//5 355//5
f 355//5 356//5 357//5
f 357//5 356//5 358//5
f 356//5 359//5 358//5
f 358//5 359//5 360//5
f 359//5 361//5 360//5
f 360//5 361//5 362//5
f 361//5 363//5 362//5
f 362//5 363//5 364//5
f 363//5 365//5 364//5
f 364//5 365//5 366//5
f 365//5 367//5 366//5
f 366//5 367//5 368//5
f 367//5 369//5 368//5
f 368//5 369//5 370//5
f 369//5 371//5 370//5
f 370//5 371//5 372//5
f 371//5 373//5 372//5
f 372//5 373//5 374//5
f 373//5 375//5 374//5
f 374//5 375//5 376//5
f 376//5 375//5 377//5
f 375//5 378//5 377//5
f 377//5 378//5 379//5
f 378//5 380//5 379//5
f 379//5 380//5 381//5
f 380//5 382//5 381//5
f 381//5 382//5 383//5
f 382//5 384//5 383//5
f 383//5 384//5 385//5
f 384//5 386//5 385//5
f 385//5 386//5 387//5
f 386//5 388//5 387//5
f 387//5 388//5 389//5
f 388//5 390//5 389//5
f 389//5 390//5 391//5
f 390//5 392//5 391//5
f 391//5 392//5 393//5
f 393//5 392//5 394//5
f 392//5 395//5 394//5
f 394//5 395//5 396//5
f 396//5 395//5 349//5
f 350//5 349//5 395//5
f 3//2 397//9 398//9
f 397//9 3//2 2//2
f 7//4 8//4 399//10
f 400//10 399//10 8//4
f 401//3 402//8 403//8
f 402//8 401//3 404//3
f 405//1 406//1 407//7
f 408//7 407//7 406//1
f 409//4 404//3 401//3
f 404//3 409//4 410//4
f 411//2 412//2 405//1
f 406//1 405//1 412//2
f 413//10 410//4 409//4
f 410//4 413//10 414//10
f 415//9 416//9 411//2
f 412//2 411//2 416//9
f 413//10 417//11 414//10
f 417//11 413//10 418//11
f 419//12 416//9 420//12
f 415//9 420//12 416//9
f 418//11 421//13 417//11
f 421//13 418//11 422//13
f 423//14 419//12 424//14
f 420//12 424//14 419//12
f 422//13 425//15 421//13
f 425//15 422//13 426//15
f 427//16 423//14 428//16
f 424//14 428//16 423//14
f 426//15 429//17 425//15
f 429//17 426//15 430//17
f 431//18 427//16 432//18
f 428//16 432//18 427//16
f 430//17 433//19 429//17
f 433//19 430//17 434//19
f 435//20 431//18 436//20
f 432//18 436//20 431//18
f 434//19 437//21 433//19
f 437//21 434//19 438//21
f 439//22 435//20 440//22
f 436//20 440//22 435//20
f 438//21 441//23 437//21
f 441//23 438//21 442//23
f 443//24 439//22 444//24
f 440//22 444//24 439//22
f 442//23 445//25 441//23
f 445//25 442//23 446//25
f 447//26 443//24 448//26
f 444//24 448//26 443//24
f 446//25 449//27 445//25
f 449//27 446//25 450//27
f 451//28 447//26 452//28
f 448//26 452//28 447//26
f 450//27 453//29 449//27
f 453//29 450//27 454//29
f 455//30 451//28 456//30
f 452//28 456//30 451//28
f 454//29 457//31 453//29
f 457//31 454//29 458//31
f 459//32 455//30 460//32
f 456//30 460//32 455//30
f 458//31 461//33 457//31
f 461//33 458//31 462//33
f 463//34 459//32 464//34
f 460//32 464//34 459//32
f 461//33 465//35 466//35
f 465//35 461//33 462//33
f 463//34 464//34 467//36
f 468//36 467//36 464//34
f 466//35 469//37 470//37
f 469//37 466//35 465//35
f 467//36 468//36 471//38
f 472//38 471//38 468//36
f 470//37 473//39 474//39
f 473//39 470//37 469//37
f 471//38 472//38 475//40
f 476//40 475//40 472//38
f 474//39 477//41 478//41
f 477//41 474//39 473//39
f 475//40 476//40 479//42
f 480//42 479//42 476//40
f 478//41 481//43 482//43
f 481//43 478//41 477//41
f 479//42 480//42 483//44
f 484//44 483//44 480//42
f 482//43 485//45 486//45
f 485//45 482//43 481//43
f 483//44 484//44 487//46
f 488//46 487//46 484//44
f 486//45 489//47 490//47
f 489//47 486//45 485//45
f 487//46 488//46 491//48
f 492//48 491//48 488//46
f 490//47 493//49 494//49
f 493//49 490//47 489//47
f 491//48 492//48 495//50
f 496//50 495//50 492//48
f 494//49 202//7 201//7
f 202//7 494//49 493//49
f 495//50 496//50 203//8
f 204//8 203//8 496//50
f 397//9 497//12 398//9
f 497//12 397//9 498//12
f 499//11 399//10 500//11
f 400//10 500//11 399//10
f 498//12 501//14 497//12
f 501//14 498//12 502//14
f 503//13 499//11 504//13
f 500//11 504//13 499//11
f 502//14 505//16 501//14
f 505//16 502//14 506//16
f 507//15 503//13 508//15
f 504//13 508//15 503//13
f 506//16 509//18 505//16
f 509//18 506//16 510//18
f 511//17 507//15 512//17
f 508//15 512//17 507//15
f 510//18 513//20 509//18
f 513//20 510//18 514//20
f 515//19 511//17 516//19
f 512//17 516//19 511//17
f 514//20 517//22 513//20
f 517//22 514//20 518//22
f 519//21 515//19 520//21
f 516//19 520//21 515//19
f 518//22 521//24 517//22
f 521//24 518//22 522//24
f 523//23 519//21 524//23
f 520//21 524//23 519//21
f 522//24 525//26 521//24
f 525//26 522//24 526//26
f 527//25 523//23 528//25
f 524//23 528//25 523//23
f 526//26 529//28 525//26
f 529//28 526//26 530//28
f 531//27 527//25 532//27
f 528//25 532//27 527//25
f 530//28 533//30 529//28
f 533//30 530//28 534//30
f 535//29 531//27 536//29
f 532//27 536//29 531//27
f 534//30 537//32 533//30
f 537//32 534//30 538//32
f 539//31 535//29 540//31
f 536//29 540//31 535//29
f 538//32 541//34 537//32
f 541//34 538//32 542//34
f 543//33 539//31 544//33
f 540//31 544//33 539//31
f 545//36 541//34 542//34
f 541//34 545//36 546//36
f 547//35 548//35 544//33
f 543//33 544//33 548//35
f 549//38 546//36 545//36
f 546//36 549//38 550//38
f 551//37 552//37 547//35
f 548//35 547//35 552//37
f 553//40 550//38 549//38
f 550//38 553//40 554//40
f 555//39 556//39 551//37
f 552//37 551//37 556//39
f 557//42 554//40 553//40
f 554//40 557//42 558//42
f 559//41 560//41 555//39
f 556//39 555//39 560//41
f 561//44 558//42 557//42
f 558//42 561//44 562//44
f 563//43 564//43 559//41
f 560//41 559//41 564//43
f 565//46 562//44 561//44
f 562//44 565//46 566//46
f 567//45 568//45 563//43
f 564//43 563//43 568//45
f 569//48 566//46 565//46
f 566//46 569//48 570//48
f 571//47 572//47 567//45
f 568//45 567//45 572//47
f 573//50 570//48 569//48
f 570//48 573//50 574//50
f 575//49 576//49 571//47
f 572//47 571//47 576//49
f 403//8 574//50 573//50
f 574//50 403//8 402//8
f 407//7 408//7 575//49
f 576//49 575//49 408//7
