# SSTK version 0.8.0
# 63
mtllib original-63.mtl
o #ID286
v 0.259235 0.238142 0.673597
v 0.241898 0.238142 0.673597
v 0.250566 0.237001 0.673597
v 0.267312 0.241488 0.673597
v 0.233821 0.241488 0.673597
v 0.274248 0.246810 0.673597
v 0.226885 0.246810 0.673597
v 0.250566 0.247699 0.673597
v 0.256466 0.248476 0.673597
v 0.279571 0.253746 0.673597
v 0.261963 0.250753 0.673597
v 0.266683 0.254375 0.673597
v 0.282917 0.261824 0.673597
v 0.270306 0.259095 0.673597
v 0.272583 0.264593 0.673597
v 0.284058 0.270492 0.673597
v 0.273359 0.270492 0.673597
v 0.282917 0.279160 0.673597
v 0.272583 0.276391 0.673597
v 0.270306 0.281888 0.673597
v 0.279571 0.287237 0.673597
v 0.266683 0.286609 0.673597
v 0.261963 0.290231 0.673597
v 0.274248 0.294174 0.673597
v 0.256466 0.292508 0.673597
v 0.250566 0.293285 0.673597
v 0.244667 0.248476 0.673597
v 0.221562 0.253746 0.673597
v 0.239170 0.250753 0.673597
v 0.234450 0.254375 0.673597
v 0.218216 0.261824 0.673597
v 0.230827 0.259095 0.673597
v 0.228550 0.264593 0.673597
v 0.217075 0.270492 0.673597
v 0.227774 0.270492 0.673597
v 0.228550 0.276391 0.673597
v 0.218216 0.279160 0.673597
v 0.230827 0.281888 0.673597
v 0.221562 0.287237 0.673597
v 0.234450 0.286609 0.673597
v 0.239170 0.290231 0.673597
v 0.226885 0.294174 0.673597
v 0.244667 0.292508 0.673597
v 0.267312 0.299496 0.673597
v 0.233821 0.299496 0.673597
v 0.259235 0.302842 0.673597
v 0.241898 0.302842 0.673597
v 0.250566 0.303983 0.673597
v 0.250566 0.303983 0.673597
v 0.259235 0.302842 0.673597
v 0.241898 0.302842 0.673597
v 0.233821 0.299496 0.673597
v 0.267312 0.299496 0.673597
v 0.226885 0.294174 0.673597
v 0.274248 0.294174 0.673597
v 0.250566 0.293285 0.673597
v 0.244667 0.292508 0.673597
v 0.239170 0.290231 0.673597
v 0.221562 0.287237 0.673597
v 0.234450 0.286609 0.673597
v 0.230827 0.281888 0.673597
v 0.218216 0.279160 0.673597
v 0.228550 0.276391 0.673597
v 0.217075 0.270492 0.673597
v 0.227774 0.270492 0.673597
v 0.228550 0.264593 0.673597
v 0.218216 0.261824 0.673597
v 0.230827 0.259095 0.673597
v 0.234450 0.254375 0.673597
v 0.221562 0.253746 0.673597
v 0.239170 0.250753 0.673597
v 0.244667 0.248476 0.673597
v 0.250566 0.247699 0.673597
v 0.226885 0.246810 0.673597
v 0.256466 0.292508 0.673597
v 0.261963 0.290231 0.673597
v 0.279571 0.287237 0.673597
v 0.266683 0.286609 0.673597
v 0.270306 0.281888 0.673597
v 0.282917 0.279160 0.673597
v 0.272583 0.276391 0.673597
v 0.273359 0.270492 0.673597
v 0.284058 0.270492 0.673597
v 0.272583 0.264593 0.673597
v 0.282917 0.261824 0.673597
v 0.270306 0.259095 0.673597
v 0.266683 0.254375 0.673597
v 0.279571 0.253746 0.673597
v 0.261963 0.250753 0.673597
v 0.256466 0.248476 0.673597
v 0.274248 0.246810 0.673597
v 0.233821 0.241488 0.673597
v 0.267312 0.241488 0.673597
v 0.241898 0.238142 0.673597
v 0.259235 0.238142 0.673597
v 0.250566 0.237001 0.673597
vn 0 0 1
vn 0 0 -1
usemtl material_0_0
f 49//2 50//2 51//2
f 51//2 50//2 52//2
f 50//2 53//2 52//2
f 52//2 53//2 54//2
f 53//2 55//2 54//2
f 55//2 56//2 54//2
f 56//2 57//2 54//2
f 57//2 58//2 54//2
f 54//2 58//2 59//2
f 58//2 60//2 59//2
f 60//2 61//2 59//2
f 59//2 61//2 62//2
f 61//2 63//2 62//2
f 62//2 63//2 64//2
f 63//2 65//2 64//2
f 65//2 66//2 64//2
f 64//2 66//2 67//2
f 66//2 68//2 67//2
f 68//2 69//2 67//2
f 67//2 69//2 70//2
f 69//2 71//2 70//2
f 71//2 72//2 70//2
f 73//2 74//2 72//2
f 70//2 72//2 74//2
f 56//2 55//2 75//2
f 75//2 55//2 76//2
f 55//2 77//2 76//2
f 76//2 77//2 78//2
f 78//2 77//2 79//2
f 77//2 80//2 79//2
f 79//2 80//2 81//2
f 81//2 80//2 82//2
f 80//2 83//2 82//2
f 82//2 83//2 84//2
f 83//2 85//2 84//2
f 84//2 85//2 86//2
f 86//2 85//2 87//2
f 85//2 88//2 87//2
f 87//2 88//2 89//2
f 89//2 88//2 90//2
f 88//2 91//2 90//2
f 90//2 91//2 73//2
f 73//2 91//2 74//2
f 74//2 91//2 92//2
f 91//2 93//2 92//2
f 92//2 93//2 94//2
f 93//2 95//2 94//2
f 96//2 94//2 95//2
usemtl material_1_0
f 1//1 2//1 3//1
f 2//1 1//1 4//1
f 2//1 4//1 5//1
f 5//1 4//1 6//1
f 5//1 6//1 7//1
f 7//1 6//1 8//1
f 8//1 6//1 9//1
f 9//1 6//1 10//1
f 9//1 10//1 11//1
f 11//1 10//1 12//1
f 12//1 10//1 13//1
f 12//1 13//1 14//1
f 14//1 13//1 15//1
f 15//1 13//1 16//1
f 15//1 16//1 17//1
f 17//1 16//1 18//1
f 17//1 18//1 19//1
f 19//1 18//1 20//1
f 20//1 18//1 21//1
f 20//1 21//1 22//1
f 22//1 21//1 23//1
f 23//1 21//1 24//1
f 23//1 24//1 25//1
f 25//1 24//1 26//1
f 7//1 27//1 28//1
f 27//1 7//1 8//1
f 28//1 27//1 29//1
f 28//1 29//1 30//1
f 28//1 30//1 31//1
f 31//1 30//1 32//1
f 31//1 32//1 33//1
f 31//1 33//1 34//1
f 34//1 33//1 35//1
f 34//1 35//1 36//1
f 34//1 36//1 37//1
f 37//1 36//1 38//1
f 37//1 38//1 39//1
f 39//1 38//1 40//1
f 39//1 40//1 41//1
f 39//1 41//1 42//1
f 42//1 41//1 43//1
f 42//1 43//1 26//1
f 42//1 26//1 24//1
f 42//1 24//1 44//1
f 42//1 44//1 45//1
f 45//1 44//1 46//1
f 45//1 46//1 47//1
f 47//1 46//1 48//1
