# SSTK version 0.8.0
# 46
mtllib original-46.mtl
o #ID316
v 0.261317 0.230372 0.480346
v 0.239816 0.230372 0.480346
v 0.250567 0.228957 0.480346
v 0.271334 0.234521 0.480346
v 0.229799 0.234521 0.480346
v 0.250567 0.237001 0.480346
v 0.259235 0.238142 0.480346
v 0.279936 0.241122 0.480346
v 0.267312 0.241488 0.480346
v 0.286537 0.249724 0.480346
v 0.274248 0.246810 0.480346
v 0.279571 0.253746 0.480346
v 0.290686 0.259742 0.480346
v 0.282917 0.261824 0.480346
v 0.292102 0.270492 0.480346
v 0.284058 0.270492 0.480346
v 0.290686 0.281242 0.480346
v 0.282917 0.279160 0.480346
v 0.279571 0.287238 0.480346
v 0.286537 0.291259 0.480346
v 0.274248 0.294174 0.480346
v 0.279936 0.299862 0.480346
v 0.267312 0.299496 0.480346
v 0.259235 0.302842 0.480346
v 0.271334 0.306463 0.480346
v 0.250567 0.303983 0.480346
v 0.241898 0.238142 0.480346
v 0.221197 0.241122 0.480346
v 0.233821 0.241488 0.480346
v 0.214596 0.249724 0.480346
v 0.226885 0.246810 0.480346
v 0.221562 0.253746 0.480346
v 0.210447 0.259742 0.480346
v 0.218216 0.261824 0.480346
v 0.209031 0.270492 0.480346
v 0.217075 0.270492 0.480346
v 0.218216 0.279160 0.480346
v 0.210447 0.281242 0.480346
v 0.221562 0.287238 0.480346
v 0.214596 0.291259 0.480346
v 0.226885 0.294174 0.480346
v 0.221197 0.299862 0.480346
v 0.233821 0.299496 0.480346
v 0.241898 0.302842 0.480346
v 0.229799 0.306463 0.480346
v 0.261317 0.310612 0.480346
v 0.239816 0.310612 0.480346
v 0.250567 0.312027 0.480346
v 0.250567 0.312027 0.480346
v 0.261317 0.310612 0.480346
v 0.239816 0.310612 0.480346
v 0.229799 0.306463 0.480346
v 0.271334 0.306463 0.480346
v 0.250567 0.303983 0.480346
v 0.241898 0.302842 0.480346
v 0.221197 0.299862 0.480346
v 0.233821 0.299496 0.480346
v 0.226885 0.294174 0.480346
v 0.214596 0.291259 0.480346
v 0.221562 0.287238 0.480346
v 0.210447 0.281242 0.480346
v 0.218216 0.279160 0.480346
v 0.209031 0.270492 0.480346
v 0.217075 0.270492 0.480346
v 0.218216 0.261824 0.480346
v 0.210447 0.259742 0.480346
v 0.221562 0.253746 0.480346
v 0.214596 0.249724 0.480346
v 0.226885 0.246810 0.480346
v 0.233821 0.241488 0.480346
v 0.221197 0.241122 0.480346
v 0.241898 0.238142 0.480346
v 0.250567 0.237001 0.480346
v 0.229799 0.234521 0.480346
v 0.259235 0.302842 0.480346
v 0.279936 0.299862 0.480346
v 0.267312 0.299496 0.480346
v 0.274248 0.294174 0.480346
v 0.286537 0.291259 0.480346
v 0.279571 0.287238 0.480346
v 0.290686 0.281242 0.480346
v 0.282917 0.279160 0.480346
v 0.284058 0.270492 0.480346
v 0.292102 0.270492 0.480346
v 0.282917 0.261824 0.480346
v 0.290686 0.259742 0.480346
v 0.279571 0.253746 0.480346
v 0.286537 0.249724 0.480346
v 0.274248 0.246810 0.480346
v 0.267312 0.241488 0.480346
v 0.279936 0.241122 0.480346
v 0.259235 0.238142 0.480346
v 0.271334 0.234521 0.480346
v 0.239816 0.230372 0.480346
v 0.261317 0.230372 0.480346
v 0.250567 0.228957 0.480346
v 0.261317 0.310612 0.480346
v 0.250567 0.312027 0.563416
v 0.250567 0.312027 0.480346
v 0.261317 0.310612 0.563416
v 0.261317 0.310612 0.563416
v 0.261317 0.310612 0.480346
v 0.250567 0.312027 0.563416
v 0.250567 0.312027 0.480346
v 0.239816 0.310612 0.563416
v 0.239816 0.310612 0.480346
v 0.239816 0.310612 0.563416
v 0.239816 0.310612 0.480346
v 0.229799 0.306463 0.563416
v 0.229799 0.306463 0.480346
v 0.229799 0.306463 0.563416
v 0.229799 0.306463 0.480346
v 0.221197 0.299862 0.563416
v 0.221197 0.299862 0.480346
v 0.221197 0.299862 0.563416
v 0.221197 0.299862 0.480346
v 0.214596 0.291259 0.480346
v 0.214596 0.291259 0.563416
v 0.214596 0.291259 0.480346
v 0.214596 0.291259 0.563416
v 0.210447 0.281242 0.480346
v 0.210447 0.281242 0.563416
v 0.210447 0.281242 0.480346
v 0.210447 0.281242 0.563416
v 0.209031 0.270492 0.480346
v 0.209031 0.270492 0.563416
v 0.209031 0.270492 0.480346
v 0.209031 0.270492 0.563416
v 0.210447 0.259742 0.480346
v 0.210447 0.259742 0.563416
v 0.210447 0.259742 0.480346
v 0.210447 0.259742 0.563416
v 0.214596 0.249724 0.480346
v 0.214596 0.249724 0.563416
v 0.214596 0.249724 0.480346
v 0.214596 0.249724 0.563416
v 0.221197 0.241122 0.563416
v 0.221197 0.241122 0.480346
v 0.221197 0.241122 0.480346
v 0.221197 0.241122 0.563416
v 0.229799 0.234521 0.563416
v 0.229799 0.234521 0.480346
v 0.229799 0.234521 0.480346
v 0.229799 0.234521 0.563416
v 0.239816 0.230372 0.563416
v 0.239816 0.230372 0.480346
v 0.239816 0.230372 0.480346
v 0.239816 0.230372 0.563416
v 0.250567 0.228957 0.563416
v 0.250567 0.228957 0.480346
v 0.250567 0.228957 0.480346
v 0.250567 0.228957 0.563416
v 0.261317 0.230372 0.563416
v 0.261317 0.230372 0.480346
v 0.261317 0.230372 0.480346
v 0.261317 0.230372 0.563416
v 0.271334 0.234521 0.563416
v 0.271334 0.234521 0.480346
v 0.271334 0.234521 0.480346
v 0.271334 0.234521 0.563416
v 0.279936 0.241122 0.563416
v 0.279936 0.241122 0.480346
v 0.279936 0.241122 0.480346
v 0.279936 0.241122 0.563416
v 0.286537 0.249724 0.563416
v 0.286537 0.249724 0.480346
v 0.286537 0.249724 0.480346
v 0.286537 0.249724 0.563416
v 0.290686 0.259742 0.480346
v 0.290686 0.259742 0.563416
v 0.290686 0.259742 0.480346
v 0.290686 0.259742 0.563416
v 0.292102 0.270492 0.480346
v 0.292102 0.270492 0.563416
v 0.292102 0.270492 0.480346
v 0.292102 0.270492 0.563416
v 0.290686 0.281242 0.480346
v 0.290686 0.281242 0.563416
v 0.290686 0.281242 0.480346
v 0.290686 0.281242 0.563416
v 0.286537 0.291259 0.480346
v 0.286537 0.291259 0.563416
v 0.286537 0.291259 0.480346
v 0.286537 0.291259 0.563416
v 0.279936 0.299862 0.480346
v 0.279936 0.299862 0.563416
v 0.279936 0.299862 0.480346
v 0.279936 0.299862 0.563416
v 0.271334 0.306463 0.563416
v 0.271334 0.306463 0.480346
v 0.271334 0.306463 0.563416
v 0.271334 0.306463 0.480346
vn 0 0 1
vn -0.25881900959356163 -0.9659258358036646 0
vn 0 -1 0
vn 0.25881900959356163 -0.9659258358036646 0
vn 0.50000000163871 -0.866025402838329 0
vn 0.7071067811865476 -0.7071067811865476 0
vn 0.866025402838329 -0.50000000163871 0
vn 0.9659258358036646 -0.25881900959356163 0
vn 1 0 0
vn 0.9659258358036646 0.25881900959356163 0
vn 0.866025402838329 0.50000000163871 0
vn 0.7071067811865476 0.7071067811865476 0
vn 0.50000000163871 0.866025402838329 0
vn 0.25881900959356163 0.9659258358036646 0
vn 0 1 0
vn -0.25881900959356163 0.9659258358036646 0
vn -0.50000000163871 0.866025402838329 0
vn -0.7071067811865476 0.7071067811865476 0
vn -0.866025402838329 0.50000000163871 0
vn -0.9659258358036646 0.25881900959356163 0
vn -1 0 0
vn -0.9659258358036646 -0.25881900959356163 0
vn -0.866025402838329 -0.50000000163871 0
vn -0.7071067811865476 -0.7071067811865476 0
vn -0.50000000163871 -0.866025402838329 0
vn 0 0 -1
usemtl material_0_0
f 1//1 2//1 3//1
f 2//1 1//1 4//1
f 2//1 4//1 5//1
f 5//1 4//1 6//1
f 6//1 4//1 7//1
f 7//1 4//1 8//1
f 7//1 8//1 9//1
f 9//1 8//1 10//1
f 9//1 10//1 11//1
f 11//1 10//1 12//1
f 12//1 10//1 13//1
f 12//1 13//1 14//1
f 14//1 13//1 15//1
f 14//1 15//1 16//1
f 16//1 15//1 17//1
f 16//1 17//1 18//1
f 18//1 17//1 19//1
f 19//1 17//1 20//1
f 19//1 20//1 21//1
f 21//1 20//1 22//1
f 21//1 22//1 23//1
f 23//1 22//1 24//1
f 24//1 22//1 25//1
f 24//1 25//1 26//1
f 5//1 27//1 28//1
f 27//1 5//1 6//1
f 28//1 27//1 29//1
f 28//1 29//1 30//1
f 30//1 29//1 31//1
f 30//1 31//1 32//1
f 30//1 32//1 33//1
f 33//1 32//1 34//1
f 33//1 34//1 35//1
f 35//1 34//1 36//1
f 35//1 36//1 37//1
f 35//1 37//1 38//1
f 38//1 37//1 39//1
f 38//1 39//1 40//1
f 40//1 39//1 41//1
f 40//1 41//1 42//1
f 42//1 41//1 43//1
f 42//1 43//1 44//1
f 42//1 44//1 45//1
f 45//1 44//1 26//1
f 45//1 26//1 25//1
f 45//1 25//1 46//1
f 45//1 46//1 47//1
f 47//1 46//1 48//1
f 97//2 98//3 99//3
f 98//3 97//2 100//2
f 99//3 105//4 106//4
f 105//4 99//3 98//3
f 106//4 109//5 110//5
f 109//5 106//4 105//4
f 110//5 113//6 114//6
f 113//6 110//5 109//5
f 117//7 113//6 118//7
f 113//6 117//7 114//6
f 121//8 118//7 122//8
f 118//7 121//8 117//7
f 125//9 122//8 126//9
f 122//8 125//9 121//8
f 129//10 126//9 130//10
f 126//9 129//10 125//9
f 133//11 130//10 134//11
f 130//10 133//11 129//10
f 137//12 133//11 134//11
f 133//11 137//12 138//12
f 141//13 138//12 137//12
f 138//12 141//13 142//13
f 145//14 142//13 141//13
f 142//13 145//14 146//14
f 149//15 146//14 145//14
f 146//14 149//15 150//15
f 153//16 150//15 149//15
f 150//15 153//16 154//16
f 157//17 154//16 153//16
f 154//16 157//17 158//17
f 161//18 158//17 157//17
f 158//17 161//18 162//18
f 165//19 162//18 161//18
f 162//18 165//19 166//19
f 169//20 165//19 170//20
f 165//19 169//20 166//19
f 173//21 170//20 174//21
f 170//20 173//21 169//20
f 177//22 174//21 178//22
f 174//21 177//22 173//21
f 181//23 178//22 182//23
f 178//22 181//23 177//22
f 185//24 182//23 186//24
f 182//23 185//24 181//23
f 185//24 189//25 190//25
f 189//25 185//24 186//24
f 190//25 100//2 97//2
f 100//2 190//25 189//25
usemtl material_1_0
f 49//26 50//26 51//26
f 51//26 50//26 52//26
f 50//26 53//26 52//26
f 53//26 54//26 52//26
f 54//26 55//26 52//26
f 52//26 55//26 56//26
f 55//26 57//26 56//26
f 57//26 58//26 56//26
f 56//26 58//26 59//26
f 58//26 60//26 59//26
f 59//26 60//26 61//26
f 60//26 62//26 61//26
f 61//26 62//26 63//26
f 62//26 64//26 63//26
f 64//26 65//26 63//26
f 63//26 65//26 66//26
f 65//26 67//26 66//26
f 66//26 67//26 68//26
f 67//26 69//26 68//26
f 69//26 70//26 68//26
f 68//26 70//26 71//26
f 70//26 72//26 71//26
f 73//26 74//26 72//26
f 71//26 72//26 74//26
f 54//26 53//26 75//26
f 53//26 76//26 75//26
f 75//26 76//26 77//26
f 77//26 76//26 78//26
f 76//26 79//26 78//26
f 78//26 79//26 80//26
f 79//26 81//26 80//26
f 80//26 81//26 82//26
f 82//26 81//26 83//26
f 81//26 84//26 83//26
f 83//26 84//26 85//26
f 84//26 86//26 85//26
f 85//26 86//26 87//26
f 86//26 88//26 87//26
f 87//26 88//26 89//26
f 89//26 88//26 90//26
f 88//26 91//26 90//26
f 90//26 91//26 92//26
f 91//26 93//26 92//26
f 92//26 93//26 73//26
f 73//26 93//26 74//26
f 74//26 93//26 94//26
f 93//26 95//26 94//26
f 96//26 94//26 95//26
f 101//14 102//14 103//15
f 104//15 103//15 102//14
f 103//15 104//15 107//16
f 108//16 107//16 104//15
f 107//16 108//16 111//17
f 112//17 111//17 108//16
f 111//17 112//17 115//18
f 116//18 115//18 112//17
f 116//18 119//19 115//18
f 120//19 115//18 119//19
f 119//19 123//20 120//19
f 124//20 120//19 123//20
f 123//20 127//21 124//20
f 128//21 124//20 127//21
f 127//21 131//22 128//21
f 132//22 128//21 131//22
f 131//22 135//23 132//22
f 136//23 132//22 135//23
f 139//24 140//24 135//23
f 136//23 135//23 140//24
f 143//25 144//25 139//24
f 140//24 139//24 144//25
f 147//2 148//2 143//25
f 144//25 143//25 148//2
f 151//3 152//3 147//2
f 148//2 147//2 152//3
f 155//4 156//4 151//3
f 152//3 151//3 156//4
f 159//5 160//5 155//4
f 156//4 155//4 160//5
f 163//6 164//6 159//5
f 160//5 159//5 164//6
f 167//7 168//7 163//6
f 164//6 163//6 168//7
f 167//7 171//8 168//7
f 172//8 168//7 171//8
f 171//8 175//9 172//8
f 176//9 172//8 175//9
f 175//9 179//10 176//9
f 180//10 176//9 179//10
f 179//10 183//11 180//10
f 184//11 180//10 183//11
f 183//11 187//12 184//11
f 188//12 184//11 187//12
f 188//12 187//12 191//13
f 192//13 191//13 187//12
f 191//13 192//13 101//14
f 102//14 101//14 192//13
