# SSTK version 0.8.0
# 114
mtllib original-114.mtl
o #ID615
v -0.256665 0.601084 0.399986
v -0.253405 0.594553 0.397485
v -0.256665 0.594553 0.399986
v -0.253405 0.601084 0.397485
v -0.253405 0.601084 0.397485
v -0.256665 0.601084 0.399986
v -0.253405 0.594553 0.397485
v -0.256665 0.594553 0.399986
v -0.260462 0.601084 0.401559
v -0.260462 0.594553 0.401559
v -0.260462 0.601084 0.401559
v -0.260462 0.594553 0.401559
v -0.250904 0.601084 0.394224
v -0.250904 0.594553 0.394224
v -0.250904 0.594553 0.394224
v -0.250904 0.601084 0.394224
v -0.264536 0.601084 0.402095
v -0.264536 0.594553 0.402095
v -0.264536 0.601084 0.402095
v -0.264536 0.594553 0.402095
v -0.249331 0.601084 0.390428
v -0.249331 0.594553 0.390428
v -0.249331 0.594553 0.390428
v -0.249331 0.601084 0.390428
v -0.268610 0.601084 0.401559
v -0.268610 0.594553 0.401559
v -0.268610 0.601084 0.401559
v -0.268610 0.594553 0.401559
v -0.248795 0.601084 0.386354
v -0.248795 0.594553 0.386354
v -0.248795 0.594553 0.386354
v -0.248795 0.601084 0.386354
v -0.272406 0.601084 0.399986
v -0.272406 0.594553 0.399986
v -0.272406 0.601084 0.399986
v -0.272406 0.594553 0.399986
v -0.249331 0.601084 0.382280
v -0.249331 0.594553 0.382280
v -0.249331 0.594553 0.382280
v -0.249331 0.601084 0.382280
v -0.275666 0.601084 0.397485
v -0.275666 0.594553 0.397485
v -0.275666 0.601084 0.397485
v -0.275666 0.594553 0.397485
v -0.250904 0.601084 0.378483
v -0.250904 0.594553 0.378483
v -0.250904 0.594553 0.378483
v -0.250904 0.601084 0.378483
v -0.278168 0.594553 0.394224
v -0.278168 0.601084 0.394224
v -0.278168 0.601084 0.394224
v -0.278168 0.594553 0.394224
v -0.253405 0.601084 0.375223
v -0.253405 0.594553 0.375223
v -0.253405 0.594553 0.375223
v -0.253405 0.601084 0.375223
v -0.279740 0.594553 0.390428
v -0.279740 0.601084 0.390428
v -0.279740 0.601084 0.390428
v -0.279740 0.594553 0.390428
v -0.256665 0.594553 0.372722
v -0.256665 0.601084 0.372722
v -0.256665 0.601084 0.372722
v -0.256665 0.594553 0.372722
v -0.280277 0.594553 0.386354
v -0.280277 0.601084 0.386354
v -0.280277 0.601084 0.386354
v -0.280277 0.594553 0.386354
v -0.260462 0.594553 0.371149
v -0.260462 0.601084 0.371149
v -0.260462 0.601084 0.371149
v -0.260462 0.594553 0.371149
v -0.279740 0.594553 0.382280
v -0.279740 0.601084 0.382280
v -0.279740 0.601084 0.382280
v -0.279740 0.594553 0.382280
v -0.264536 0.594553 0.370613
v -0.264536 0.601084 0.370613
v -0.264536 0.601084 0.370613
v -0.264536 0.594553 0.370613
v -0.278168 0.594553 0.378483
v -0.278168 0.601084 0.378483
v -0.278168 0.601084 0.378483
v -0.278168 0.594553 0.378483
v -0.268610 0.594553 0.371149
v -0.268610 0.601084 0.371149
v -0.268610 0.601084 0.371149
v -0.268610 0.594553 0.371149
v -0.275666 0.594553 0.375223
v -0.275666 0.601084 0.375223
v -0.275666 0.601084 0.375223
v -0.275666 0.594553 0.375223
v -0.272406 0.594553 0.372722
v -0.272406 0.601084 0.372722
v -0.272406 0.601084 0.372722
v -0.272406 0.594553 0.372722
vn -0.5000000016387101 0 -0.866025402838329
vn -0.7071067811865476 0 -0.7071067811865476
vn 0.7071067811865476 0 0.7071067811865476
vn 0.5000000016387101 0 0.866025402838329
vn -0.25881900959356163 0 -0.9659258358036645
vn 0.25881900959356163 0 0.9659258358036645
vn -0.866025402838329 0 -0.5000000016387101
vn 0.866025402838329 0 0.5000000016387101
vn 0 0 -1
vn 0 0 1
vn -0.9659258358036645 0 -0.2588190095935616
vn 0.9659258358036645 0 0.2588190095935616
vn 0.2588190095935616 0 -0.9659258358036645
vn -0.2588190095935616 0 0.9659258358036645
vn -1 0 0
vn 1 0 0
vn 0.5000000016387101 0 -0.866025402838329
vn -0.5000000016387101 0 0.866025402838329
vn -0.9659258358036645 0 0.25881900959356163
vn 0.9659258358036645 0 -0.25881900959356163
vn 0.7071067811865476 0 -0.7071067811865476
vn -0.7071067811865476 0 0.7071067811865476
vn -0.866025402838329 0 0.5000000016387101
vn 0.866025402838329 0 -0.5000000016387101
usemtl material_0_0
f 1//1 2//2 3//1
f 2//2 1//1 4//2
f 5//3 6//4 7//3
f 8//4 7//3 6//4
f 9//5 3//1 10//5
f 3//1 9//5 1//1
f 6//4 11//6 8//4
f 12//6 8//4 11//6
f 13//7 2//2 4//2
f 2//2 13//7 14//7
f 15//8 16//8 7//3
f 5//3 7//3 16//8
f 17//9 10//5 18//9
f 10//5 17//9 9//5
f 11//6 19//10 12//6
f 20//10 12//6 19//10
f 21//11 14//7 13//7
f 14//7 21//11 22//11
f 23//12 24//12 15//8
f 16//8 15//8 24//12
f 25//13 18//9 26//13
f 18//9 25//13 17//9
f 19//10 27//14 20//10
f 28//14 20//10 27//14
f 29//15 22//11 21//11
f 22//11 29//15 30//15
f 31//16 32//16 23//12
f 24//12 23//12 32//16
f 33//17 26//13 34//17
f 26//13 33//17 25//13
f 27//14 35//18 28//14
f 36//18 28//14 35//18
f 37//19 30//15 29//15
f 30//15 37//19 38//19
f 39//20 40//20 31//16
f 32//16 31//16 40//20
f 41//21 34//17 42//21
f 34//17 41//21 33//17
f 35//18 43//22 36//18
f 44//22 36//18 43//22
f 45//23 38//19 37//19
f 38//19 45//23 46//23
f 47//24 48//24 39//20
f 40//20 39//20 48//24
f 49//24 41//21 42//21
f 41//21 49//24 50//24
f 51//23 52//23 43//22
f 44//22 43//22 52//23
f 53//22 46//23 45//23
f 46//23 53//22 54//22
f 55//21 56//21 47//24
f 48//24 47//24 56//21
f 57//20 50//24 49//24
f 50//24 57//20 58//20
f 59//19 60//19 51//23
f 52//23 51//23 60//19
f 53//22 61//18 54//22
f 61//18 53//22 62//18
f 63//17 56//21 64//17
f 55//21 64//17 56//21
f 65//16 58//20 57//20
f 58//20 65//16 66//16
f 67//15 68//15 59//19
f 60//19 59//19 68//15
f 62//18 69//14 61//18
f 69//14 62//18 70//14
f 71//13 63//17 72//13
f 64//17 72//13 63//17
f 73//12 66//16 65//16
f 66//16 73//12 74//12
f 75//11 76//11 67//15
f 68//15 67//15 76//11
f 70//14 77//10 69//14
f 77//10 70//14 78//10
f 79//9 71//13 80//9
f 72//13 80//9 71//13
f 81//8 74//12 73//12
f 74//12 81//8 82//8
f 83//7 84//7 75//11
f 76//11 75//11 84//7
f 78//10 85//6 77//10
f 85//6 78//10 86//6
f 87//5 79//9 88//5
f 80//9 88//5 79//9
f 89//3 82//8 81//8
f 82//8 89//3 90//3
f 91//2 92//2 83//7
f 84//7 83//7 92//2
f 86//6 93//4 85//6
f 93//4 86//6 94//4
f 95//1 87//5 96//1
f 88//5 96//1 87//5
f 94//4 89//3 93//4
f 89//3 94//4 90//3
f 91//2 95//1 92//2
f 96//1 92//2 95//1
