# SSTK version 0.8.0
# 44
mtllib original-44.mtl
o #ID304
v -0.273768 0.601245 0.181038
v -0.274013 0.601245 -0.211752
v -0.274013 0.601245 0.182832
v -0.273768 0.601245 -0.209958
v -0.273051 0.601245 -0.208289
v -0.273051 0.601245 0.179369
v -0.271912 0.601245 0.177940
v -0.271912 0.601245 -0.206860
v -0.270430 0.601245 -0.205768
v -0.270430 0.601245 0.176848
v -0.268710 0.601245 -0.205088
v -0.268710 0.601245 0.176168
v -0.266870 0.601245 -0.204864
v -0.266870 0.601245 0.175944
v -0.265035 0.601245 -0.205109
v -0.265035 0.601245 0.176189
v -0.263331 0.601245 -0.205805
v -0.263331 0.601245 0.176885
v -0.261872 0.601245 -0.206902
v -0.261872 0.601245 0.177983
v -0.260755 0.601245 -0.208326
v -0.260755 0.601245 0.179406
v -0.260054 0.601245 -0.209980
v -0.260054 0.601245 0.181060
v -0.259815 0.601245 0.182832
v -0.259815 0.601245 -0.211752
v -0.274013 0.601245 0.286670
v -0.273768 0.601245 0.184625
v -0.274013 0.601245 0.386354
v -0.273768 0.601245 0.284876
v -0.273051 0.601245 0.186295
v -0.273051 0.601245 0.283207
v -0.271912 0.601245 0.187724
v -0.271912 0.601245 0.281777
v -0.270430 0.601245 0.188816
v -0.270430 0.601245 0.280686
v -0.268710 0.601245 0.189496
v -0.268710 0.601245 0.280006
v -0.266870 0.601245 0.189720
v -0.266870 0.601245 0.279781
v -0.265035 0.601245 0.189475
v -0.265035 0.601245 0.280027
v -0.263331 0.601245 0.188779
v -0.263331 0.601245 0.280723
v -0.261872 0.601245 0.187681
v -0.261872 0.601245 0.281820
v -0.260755 0.601245 0.186258
v -0.260755 0.601245 0.283244
v -0.260054 0.601245 0.184604
v -0.260054 0.601245 0.284898
v -0.259815 0.601245 0.286670
v -0.366427 0.601245 0.530197
v -0.273768 0.601245 0.388148
v -0.273051 0.601245 0.389817
v -0.271912 0.601245 0.391246
v -0.270430 0.601245 0.392338
v -0.268710 0.601245 0.393018
v 0.418605 0.601245 0.530197
v -0.266870 0.601245 0.393242
v -0.265035 0.601245 0.392997
v -0.263331 0.601245 0.392301
v -0.261872 0.601245 0.391203
v -0.260755 0.601245 0.389780
v -0.260054 0.601245 0.388126
v -0.259815 0.601245 0.386354
v -0.141064 0.601245 -0.363738
v -0.152231 0.601245 -0.386381
v -0.160346 0.601245 -0.410288
v -0.163298 0.601245 -0.425129
v -0.127038 0.601245 -0.342745
v -0.110391 0.601245 -0.323763
v -0.091409 0.601245 -0.307116
v -0.070417 0.601245 -0.293090
v -0.047773 0.601245 -0.281923
v -0.023866 0.601245 -0.273808
v 0.000896 0.601245 -0.268883
v 0.026089 0.601245 -0.267231
v 0.051282 0.601245 -0.268883
v 0.076044 0.601245 -0.273808
v 0.099952 0.601245 -0.281923
v 0.122595 0.601245 -0.293090
v 0.143587 0.601245 -0.307116
v 0.162569 0.601245 -0.323763
v 0.179216 0.601245 -0.342745
v 0.193242 0.601245 -0.363738
v 0.204409 0.601245 -0.386381
v 0.212525 0.601245 -0.410288
v 0.215477 0.601245 -0.425129
v 0.418605 0.601245 -0.425129
v -0.366427 0.601245 -0.425129
v -0.273051 0.601245 -0.215215
v -0.273768 0.601245 -0.213545
v -0.271912 0.601245 -0.216644
v -0.270430 0.601245 -0.217736
v -0.268710 0.601245 -0.218416
v -0.266870 0.601245 -0.218640
v -0.265035 0.601245 -0.218395
v -0.263331 0.601245 -0.217699
v -0.261872 0.601245 -0.216601
v -0.260755 0.601245 -0.215177
v -0.260054 0.601245 -0.213524
v -0.273768 0.601245 0.384560
v -0.273768 0.601245 0.288463
v -0.273051 0.601245 0.382891
v -0.273051 0.601245 0.290132
v -0.271912 0.601245 0.381462
v -0.271912 0.601245 0.291562
v -0.270430 0.601245 0.380370
v -0.270430 0.601245 0.292654
v -0.268710 0.601245 0.379690
v -0.268710 0.601245 0.293334
v -0.266870 0.601245 0.379466
v -0.266870 0.601245 0.293558
v -0.265035 0.601245 0.379711
v -0.265035 0.601245 0.293313
v -0.263331 0.601245 0.380407
v -0.263331 0.601245 0.292617
v -0.261872 0.601245 0.381505
v -0.261872 0.601245 0.291519
v -0.260755 0.601245 0.382928
v -0.260755 0.601245 0.290095
v -0.260054 0.601245 0.384582
v -0.260054 0.601245 0.288442
v -0.259815 0.601245 0.286670
v -0.259815 0.601245 0.386354
v -0.260054 0.601245 0.288442
v -0.260054 0.601245 0.384582
v -0.260755 0.601245 0.290095
v -0.260755 0.601245 0.382928
v -0.261872 0.601245 0.291519
v -0.261872 0.601245 0.381505
v -0.263331 0.601245 0.292617
v -0.263331 0.601245 0.380407
v -0.265035 0.601245 0.293313
v -0.265035 0.601245 0.379711
v -0.266870 0.601245 0.293558
v -0.266870 0.601245 0.379466
v -0.268710 0.601245 0.293334
v -0.268710 0.601245 0.379690
v -0.270430 0.601245 0.292654
v -0.270430 0.601245 0.380370
v -0.271912 0.601245 0.291562
v -0.271912 0.601245 0.381462
v -0.273051 0.601245 0.290132
v -0.273051 0.601245 0.382891
v -0.273768 0.601245 0.288463
v -0.273768 0.601245 0.384560
v -0.274013 0.601245 0.286670
v -0.274013 0.601245 0.386354
v -0.259815 0.601245 0.182832
v -0.163298 0.601245 -0.425129
v -0.259815 0.601245 -0.211752
v -0.260054 0.601245 -0.213524
v -0.260755 0.601245 -0.215177
v -0.261872 0.601245 -0.216601
v -0.263331 0.601245 -0.217699
v -0.265035 0.601245 -0.218395
v -0.266870 0.601245 -0.218640
v -0.268710 0.601245 -0.218416
v -0.270430 0.601245 -0.217736
v -0.271912 0.601245 -0.216644
v -0.273051 0.601245 -0.215215
v -0.274013 0.601245 0.182832
v -0.366427 0.601245 0.530197
v -0.274013 0.601245 -0.211752
v -0.366427 0.601245 -0.425129
v -0.273768 0.601245 -0.213545
v 0.418605 0.601245 -0.425129
v 0.418605 0.601245 0.530197
v 0.215477 0.601245 -0.425129
v 0.212525 0.601245 -0.410288
v 0.204409 0.601245 -0.386381
v 0.193242 0.601245 -0.363738
v 0.179216 0.601245 -0.342745
v 0.162569 0.601245 -0.323763
v 0.143587 0.601245 -0.307116
v 0.122595 0.601245 -0.293090
v 0.099952 0.601245 -0.281923
v 0.076044 0.601245 -0.273808
v 0.051282 0.601245 -0.268883
v 0.026089 0.601245 -0.267231
v 0.000896 0.601245 -0.268883
v -0.023866 0.601245 -0.273808
v -0.047773 0.601245 -0.281923
v -0.070417 0.601245 -0.293090
v -0.091409 0.601245 -0.307116
v -0.110391 0.601245 -0.323763
v -0.127038 0.601245 -0.342745
v -0.141064 0.601245 -0.363738
v -0.160346 0.601245 -0.410288
v -0.152231 0.601245 -0.386381
v -0.260054 0.601245 0.388126
v -0.260755 0.601245 0.389780
v -0.261872 0.601245 0.391203
v -0.263331 0.601245 0.392301
v -0.265035 0.601245 0.392997
v -0.266870 0.601245 0.393242
v -0.268710 0.601245 0.393018
v -0.270430 0.601245 0.392338
v -0.271912 0.601245 0.391246
v -0.273051 0.601245 0.389817
v -0.273768 0.601245 0.388148
v -0.260054 0.601245 0.284898
v -0.260054 0.601245 0.184604
v -0.260755 0.601245 0.283244
v -0.260755 0.601245 0.186258
v -0.261872 0.601245 0.281820
v -0.261872 0.601245 0.187681
v -0.263331 0.601245 0.280723
v -0.263331 0.601245 0.188779
v -0.265035 0.601245 0.280027
v -0.265035 0.601245 0.189475
v -0.266870 0.601245 0.279781
v -0.266870 0.601245 0.189720
v -0.268710 0.601245 0.280006
v -0.268710 0.601245 0.189496
v -0.270430 0.601245 0.280686
v -0.270430 0.601245 0.188816
v -0.271912 0.601245 0.281777
v -0.271912 0.601245 0.187724
v -0.273051 0.601245 0.283207
v -0.273051 0.601245 0.186295
v -0.273768 0.601245 0.284876
v -0.273768 0.601245 0.184625
v -0.260054 0.601245 -0.209980
v -0.260054 0.601245 0.181060
v -0.260755 0.601245 0.179406
v -0.260755 0.601245 -0.208326
v -0.261872 0.601245 0.177983
v -0.261872 0.601245 -0.206902
v -0.263331 0.601245 0.176885
v -0.263331 0.601245 -0.205805
v -0.265035 0.601245 0.176189
v -0.265035 0.601245 -0.205109
v -0.266870 0.601245 0.175944
v -0.266870 0.601245 -0.204864
v -0.268710 0.601245 0.176168
v -0.268710 0.601245 -0.205088
v -0.270430 0.601245 0.176848
v -0.270430 0.601245 -0.205768
v -0.271912 0.601245 0.177940
v -0.271912 0.601245 -0.206860
v -0.273051 0.601245 -0.208289
v -0.273051 0.601245 0.179369
v -0.273768 0.601245 0.181038
v -0.273768 0.601245 -0.209958
vn 0 1 0
vn 0 -1 0
usemtl material_0_0
f 1//1 2//1 3//1
f 2//1 1//1 4//1
f 4//1 1//1 5//1
f 5//1 1//1 6//1
f 5//1 6//1 7//1
f 5//1 7//1 8//1
f 8//1 7//1 9//1
f 9//1 7//1 10//1
f 9//1 10//1 11//1
f 11//1 10//1 12//1
f 11//1 12//1 13//1
f 13//1 12//1 14//1
f 13//1 14//1 15//1
f 15//1 14//1 16//1
f 15//1 16//1 17//1
f 17//1 16//1 18//1
f 17//1 18//1 19//1
f 19//1 18//1 20//1
f 19//1 20//1 21//1
f 21//1 20//1 22//1
f 21//1 22//1 23//1
f 23//1 22//1 24//1
f 23//1 24//1 25//1
f 23//1 25//1 26//1
f 3//1 27//1 28//1
f 27//1 3//1 29//1
f 28//1 27//1 30//1
f 28//1 30//1 31//1
f 31//1 30//1 32//1
f 31//1 32//1 33//1
f 33//1 32//1 34//1
f 33//1 34//1 35//1
f 35//1 34//1 36//1
f 35//1 36//1 37//1
f 37//1 36//1 38//1
f 37//1 38//1 39//1
f 39//1 38//1 40//1
f 39//1 40//1 41//1
f 41//1 40//1 42//1
f 41//1 42//1 43//1
f 43//1 42//1 44//1
f 43//1 44//1 45//1
f 45//1 44//1 46//1
f 45//1 46//1 47//1
f 47//1 46//1 48//1
f 47//1 48//1 49//1
f 49//1 48//1 50//1
f 49//1 50//1 25//1
f 25//1 50//1 51//1
f 52//1 29//1 3//1
f 29//1 52//1 53//1
f 53//1 52//1 54//1
f 54//1 52//1 55//1
f 55//1 52//1 56//1
f 56//1 52//1 57//1
f 57//1 52//1 58//1
f 57//1 58//1 59//1
f 59//1 58//1 60//1
f 60//1 58//1 61//1
f 61//1 58//1 62//1
f 62//1 58//1 63//1
f 63//1 58//1 64//1
f 64//1 58//1 65//1
f 65//1 58//1 51//1
f 51//1 58//1 66//1
f 51//1 66//1 67//1
f 51//1 67//1 68//1
f 51//1 68//1 69//1
f 66//1 58//1 70//1
f 70//1 58//1 71//1
f 71//1 58//1 72//1
f 72//1 58//1 73//1
f 73//1 58//1 74//1
f 74//1 58//1 75//1
f 75//1 58//1 76//1
f 76//1 58//1 77//1
f 77//1 58//1 78//1
f 78//1 58//1 79//1
f 79//1 58//1 80//1
f 80//1 58//1 81//1
f 81//1 58//1 82//1
f 82//1 58//1 83//1
f 83//1 58//1 84//1
f 84//1 58//1 85//1
f 85//1 58//1 86//1
f 86//1 58//1 87//1
f 87//1 58//1 88//1
f 88//1 58//1 89//1
f 90//1 91//1 69//1
f 91//1 90//1 92//1
f 92//1 90//1 2//1
f 2//1 90//1 52//1
f 2//1 52//1 3//1
f 69//1 91//1 93//1
f 69//1 93//1 94//1
f 69//1 94//1 95//1
f 69//1 95//1 96//1
f 69//1 96//1 97//1
f 69//1 97//1 98//1
f 69//1 98//1 99//1
f 69//1 99//1 100//1
f 69//1 100//1 101//1
f 69//1 101//1 26//1
f 69//1 26//1 25//1
f 69//1 25//1 51//1
f 102//1 27//1 29//1
f 27//1 102//1 103//1
f 103//1 102//1 104//1
f 103//1 104//1 105//1
f 105//1 104//1 106//1
f 105//1 106//1 107//1
f 107//1 106//1 108//1
f 107//1 108//1 109//1
f 109//1 108//1 110//1
f 109//1 110//1 111//1
f 111//1 110//1 112//1
f 111//1 112//1 113//1
f 113//1 112//1 114//1
f 113//1 114//1 115//1
f 115//1 114//1 116//1
f 115//1 116//1 117//1
f 117//1 116//1 118//1
f 117//1 118//1 119//1
f 119//1 118//1 120//1
f 119//1 120//1 121//1
f 121//1 120//1 122//1
f 121//1 122//1 123//1
f 123//1 122//1 65//1
f 123//1 65//1 51//1
usemtl material_1_0
f 124//2 125//2 126//2
f 125//2 127//2 126//2
f 126//2 127//2 128//2
f 127//2 129//2 128//2
f 128//2 129//2 130//2
f 129//2 131//2 130//2
f 130//2 131//2 132//2
f 131//2 133//2 132//2
f 132//2 133//2 134//2
f 133//2 135//2 134//2
f 134//2 135//2 136//2
f 135//2 137//2 136//2
f 136//2 137//2 138//2
f 137//2 139//2 138//2
f 138//2 139//2 140//2
f 139//2 141//2 140//2
f 140//2 141//2 142//2
f 141//2 143//2 142//2
f 142//2 143//2 144//2
f 143//2 145//2 144//2
f 144//2 145//2 146//2
f 145//2 147//2 146//2
f 146//2 147//2 148//2
f 149//2 148//2 147//2
f 124//2 150//2 151//2
f 150//2 152//2 151//2
f 152//2 153//2 151//2
f 153//2 154//2 151//2
f 154//2 155//2 151//2
f 155//2 156//2 151//2
f 156//2 157//2 151//2
f 157//2 158//2 151//2
f 158//2 159//2 151//2
f 159//2 160//2 151//2
f 160//2 161//2 151//2
f 161//2 162//2 151//2
f 163//2 164//2 165//2
f 164//2 166//2 165//2
f 165//2 166//2 167//2
f 167//2 166//2 162//2
f 151//2 162//2 166//2
f 168//2 169//2 170//2
f 170//2 169//2 171//2
f 171//2 169//2 172//2
f 172//2 169//2 173//2
f 173//2 169//2 174//2
f 174//2 169//2 175//2
f 175//2 169//2 176//2
f 176//2 169//2 177//2
f 177//2 169//2 178//2
f 178//2 169//2 179//2
f 179//2 169//2 180//2
f 180//2 169//2 181//2
f 181//2 169//2 182//2
f 182//2 169//2 183//2
f 183//2 169//2 184//2
f 184//2 169//2 185//2
f 185//2 169//2 186//2
f 186//2 169//2 187//2
f 187//2 169//2 188//2
f 188//2 169//2 189//2
f 151//2 190//2 124//2
f 190//2 191//2 124//2
f 191//2 189//2 124//2
f 189//2 169//2 124//2
f 124//2 169//2 125//2
f 125//2 169//2 192//2
f 192//2 169//2 193//2
f 193//2 169//2 194//2
f 194//2 169//2 195//2
f 195//2 169//2 196//2
f 196//2 169//2 197//2
f 197//2 169//2 198//2
f 169//2 164//2 198//2
f 198//2 164//2 199//2
f 199//2 164//2 200//2
f 200//2 164//2 201//2
f 201//2 164//2 202//2
f 202//2 164//2 149//2
f 163//2 149//2 164//2
f 124//2 203//2 150//2
f 150//2 203//2 204//2
f 203//2 205//2 204//2
f 204//2 205//2 206//2
f 205//2 207//2 206//2
f 206//2 207//2 208//2
f 207//2 209//2 208//2
f 208//2 209//2 210//2
f 209//2 211//2 210//2
f 210//2 211//2 212//2
f 211//2 213//2 212//2
f 212//2 213//2 214//2
f 213//2 215//2 214//2
f 214//2 215//2 216//2
f 215//2 217//2 216//2
f 216//2 217//2 218//2
f 217//2 219//2 218//2
f 218//2 219//2 220//2
f 219//2 221//2 220//2
f 220//2 221//2 222//2
f 221//2 223//2 222//2
f 222//2 223//2 224//2
f 223//2 148//2 224//2
f 149//2 163//2 148//2
f 224//2 148//2 163//2
f 152//2 150//2 225//2
f 150//2 226//2 225//2
f 226//2 227//2 225//2
f 225//2 227//2 228//2
f 227//2 229//2 228//2
f 228//2 229//2 230//2
f 229//2 231//2 230//2
f 230//2 231//2 232//2
f 231//2 233//2 232//2
f 232//2 233//2 234//2
f 233//2 235//2 234//2
f 234//2 235//2 236//2
f 235//2 237//2 236//2
f 236//2 237//2 238//2
f 237//2 239//2 238//2
f 238//2 239//2 240//2
f 239//2 241//2 240//2
f 240//2 241//2 242//2
f 242//2 241//2 243//2
f 241//2 244//2 243//2
f 244//2 245//2 243//2
f 243//2 245//2 246//2
f 246//2 245//2 165//2
f 163//2 165//2 245//2
