# SSTK version 0.8.0
# 78
mtllib original-78.mtl
o #ID454
v 0.266644 0.219806 0.626025
v 0.266940 0.217796 0.640668
v 0.266435 0.219743 0.626053
v 0.270836 0.218983 0.640148
v 0.270836 0.218983 0.640148
v 0.266644 0.219806 0.626025
v 0.266940 0.217796 0.640668
v 0.266435 0.219743 0.626053
v 0.266223 0.219693 0.626025
v 0.262973 0.216880 0.640139
v 0.266223 0.219693 0.626025
v 0.262973 0.216880 0.640139
v 0.266355 0.220047 0.625280
v 0.266355 0.220047 0.625280
v 0.266911 0.219909 0.625910
v 0.274450 0.220384 0.638589
v 0.274450 0.220384 0.638589
v 0.266911 0.219909 0.625910
v 0.266491 0.219418 0.655241
v 0.273822 0.221653 0.654261
v 0.273822 0.221653 0.654261
v 0.266491 0.219418 0.655241
v 0.265940 0.219650 0.625909
v 0.259146 0.216290 0.638573
v 0.265940 0.219650 0.625909
v 0.259146 0.216290 0.638573
v 0.259024 0.217695 0.654246
v 0.259024 0.217695 0.654246
v 0.266338 0.220110 0.625116
v 0.266237 0.220146 0.624976
v 0.266338 0.220110 0.625116
v 0.266237 0.220146 0.624976
v 0.267243 0.220074 0.625637
v 0.277555 0.221922 0.636042
v 0.277555 0.221922 0.636042
v 0.267243 0.220074 0.625637
v 0.280555 0.224262 0.651358
v 0.280555 0.224262 0.651358
v 0.275399 0.227634 0.667405
v 0.265117 0.224499 0.668778
v 0.275399 0.227634 0.667405
v 0.265117 0.224499 0.668778
v 0.265571 0.219627 0.625636
v 0.255693 0.216074 0.636019
v 0.265571 0.219627 0.625636
v 0.255693 0.216074 0.636019
v 0.266338 0.220110 0.625116
v 0.266408 0.220191 0.624976
v 0.266408 0.220191 0.624976
v 0.266338 0.220110 0.625116
v 0.251894 0.216595 0.651327
v 0.251894 0.216595 0.651327
v 0.254646 0.222083 0.667382
v 0.254646 0.222083 0.667382
v 0.266313 0.220206 0.624855
v 0.265897 0.220264 0.624505
v 0.266313 0.220206 0.624855
v 0.265897 0.220264 0.624505
v 0.267579 0.220299 0.625150
v 0.279910 0.223501 0.632625
v 0.279910 0.223501 0.632625
v 0.267579 0.220299 0.625150
v 0.286244 0.227080 0.646691
v 0.286244 0.227080 0.646691
v 0.284811 0.231280 0.663346
v 0.284811 0.231280 0.663346
v 0.275459 0.236517 0.678682
v 0.262913 0.232692 0.680358
v 0.262913 0.232692 0.680358
v 0.275459 0.236517 0.678682
v 0.265168 0.219655 0.625147
v 0.252870 0.216268 0.632595
v 0.265168 0.219655 0.625147
v 0.252870 0.216268 0.632595
v 0.266313 0.220206 0.624855
v 0.266644 0.220464 0.624506
v 0.266644 0.220464 0.624506
v 0.266313 0.220206 0.624855
v 0.245567 0.216200 0.646648
v 0.245567 0.216200 0.646648
v 0.244679 0.220546 0.663303
v 0.244679 0.220546 0.663303
v 0.250137 0.229744 0.678654
v 0.250137 0.229744 0.678654
v 0.266282 0.220322 0.624512
v 0.265374 0.220338 0.624065
v 0.266282 0.220322 0.624512
v 0.265374 0.220338 0.624065
v 0.267817 0.220557 0.624451
v 0.281298 0.225004 0.628548
v 0.281298 0.225004 0.628548
v 0.267817 0.220557 0.624451
v 0.290481 0.229921 0.640543
v 0.290481 0.229921 0.640543
v 0.292718 0.235197 0.656860
v 0.292718 0.235197 0.656860
v 0.286926 0.240960 0.673737
v 0.286926 0.240960 0.673737
v 0.273998 0.247698 0.687324
v 0.260029 0.243440 0.689190
v 0.260029 0.243440 0.689190
v 0.273998 0.247698 0.687324
v 0.264835 0.219759 0.624448
v 0.250925 0.216880 0.628515
v 0.264835 0.219759 0.624448
v 0.250925 0.216880 0.628515
v 0.266282 0.220322 0.624512
v 0.267061 0.220790 0.624067
v 0.267061 0.220790 0.624067
v 0.266282 0.220322 0.624512
v 0.240490 0.216549 0.640490
v 0.240490 0.216549 0.640490
v 0.235885 0.219996 0.656799
v 0.235885 0.219996 0.656799
v 0.237993 0.227871 0.673684
v 0.237993 0.227871 0.673684
v 0.245803 0.240157 0.687294
v 0.245803 0.240157 0.687294
v 0.266249 0.220447 0.624109
v 0.264837 0.220348 0.623801
v 0.266249 0.220447 0.624109
v 0.264837 0.220348 0.623801
v 0.267868 0.220801 0.623621
v 0.281572 0.226308 0.624113
v 0.281572 0.226308 0.624113
v 0.267868 0.220801 0.623621
v 0.292941 0.232585 0.633319
v 0.292941 0.232585 0.633319
v 0.298571 0.239122 0.648367
v 0.298571 0.239122 0.648367
v 0.296536 0.245721 0.665854
v 0.296536 0.245721 0.665854
v 0.286757 0.252642 0.681822
v 0.286757 0.252642 0.681822
v 0.271115 0.260415 0.692742
v 0.256661 0.256009 0.694673
v 0.256661 0.256009 0.694673
v 0.271115 0.260415 0.692742
v 0.264670 0.219946 0.623617
v 0.250046 0.217876 0.624079
v 0.264670 0.219946 0.623617
v 0.250046 0.217876 0.624079
v 0.266249 0.220447 0.624109
v 0.267522 0.221066 0.623804
v 0.267522 0.221066 0.623804
v 0.266249 0.220447 0.624109
v 0.237043 0.217633 0.633259
v 0.237043 0.217633 0.633259
v 0.228871 0.220478 0.648292
v 0.228871 0.220478 0.648292
v 0.227305 0.227203 0.665779
v 0.227305 0.227203 0.665779
v 0.232291 0.238073 0.681764
v 0.232291 0.238073 0.681764
v 0.241941 0.252612 0.692711
v 0.241941 0.252612 0.692711
v 0.266217 0.220567 0.623673
v 0.264499 0.220324 0.623727
v 0.266217 0.220567 0.623673
v 0.264499 0.220324 0.623727
v 0.280693 0.227304 0.619677
v 0.267703 0.220987 0.622790
v 0.280693 0.227304 0.619677
v 0.267703 0.220987 0.622790
v 0.293421 0.234876 0.625525
v 0.293421 0.234876 0.625525
v 0.301951 0.242782 0.638439
v 0.301951 0.242782 0.638439
v 0.303629 0.250476 0.655562
v 0.303629 0.250476 0.655562
v 0.297437 0.257933 0.673061
v 0.297437 0.257933 0.673061
v 0.284315 0.265529 0.687051
v 0.284315 0.265529 0.687051
v 0.267008 0.273801 0.694568
v 0.253039 0.269543 0.696434
v 0.253039 0.269543 0.696434
v 0.267008 0.273801 0.694568
v 0.250320 0.219179 0.619644
v 0.264721 0.220190 0.622787
v 0.264721 0.220190 0.622787
v 0.250320 0.219179 0.619644
v 0.266217 0.220567 0.623673
v 0.267827 0.221214 0.623731
v 0.267827 0.221214 0.623731
v 0.266217 0.220567 0.623673
v 0.235499 0.219383 0.625463
v 0.235499 0.219383 0.625463
v 0.224135 0.221968 0.638355
v 0.224135 0.221968 0.638355
v 0.218806 0.227788 0.655471
v 0.218806 0.227788 0.655471
v 0.220413 0.237331 0.672978
v 0.220413 0.237331 0.672978
v 0.227962 0.250456 0.686990
v 0.227962 0.250456 0.686990
v 0.238813 0.266260 0.694537
v 0.238813 0.266260 0.694537
v 0.264826 0.220392 0.623632
v 0.266189 0.220674 0.623233
v 0.266189 0.220674 0.623233
v 0.264826 0.220392 0.623632
v 0.278748 0.227915 0.615597
v 0.267370 0.221092 0.622091
v 0.278748 0.227915 0.615597
v 0.267370 0.221092 0.622091
v 0.291877 0.236626 0.617729
v 0.291877 0.236626 0.617729
v 0.302609 0.245921 0.627761
v 0.302609 0.245921 0.627761
v 0.307715 0.254901 0.643560
v 0.307715 0.254901 0.643560
v 0.305310 0.263211 0.661638
v 0.305310 0.263211 0.661638
v 0.295360 0.271001 0.677990
v 0.295360 0.271001 0.677990
v 0.279767 0.278745 0.689066
v 0.279767 0.278745 0.689066
v 0.261956 0.286944 0.692676
v 0.249410 0.283120 0.694352
v 0.249410 0.283120 0.694352
v 0.261956 0.286944 0.692676
v 0.251708 0.220682 0.615567
v 0.264959 0.220448 0.622088
v 0.264959 0.220448 0.622088
v 0.251708 0.220682 0.615567
v 0.266189 0.220674 0.623233
v 0.267510 0.221110 0.623635
v 0.267510 0.221110 0.623635
v 0.266189 0.220674 0.623233
v 0.235979 0.221674 0.617669
v 0.235979 0.221674 0.617669
v 0.222019 0.224365 0.627675
v 0.222019 0.224365 0.627675
v 0.213080 0.229588 0.643458
v 0.213080 0.229588 0.643458
v 0.210980 0.237980 0.661537
v 0.210980 0.237980 0.661537
v 0.215679 0.249689 0.677904
v 0.215679 0.249689 0.677904
v 0.225301 0.264176 0.689008
v 0.225301 0.264176 0.689008
v 0.236634 0.280171 0.692649
v 0.236634 0.280171 0.692649
v 0.265324 0.220529 0.623330
v 0.266166 0.220761 0.622820
v 0.266166 0.220761 0.622820
v 0.265324 0.220529 0.623330
v 0.275925 0.228109 0.612173
v 0.266967 0.221120 0.621603
v 0.275925 0.228109 0.612173
v 0.266967 0.221120 0.621603
v 0.288430 0.237709 0.610498
v 0.288430 0.237709 0.610498
v 0.300493 0.248319 0.617081
v 0.300493 0.248319 0.617081
v 0.308510 0.258691 0.630669
v 0.308510 0.258691 0.630669
v 0.309840 0.268117 0.648332
v 0.309840 0.268117 0.648332
v 0.303499 0.276458 0.666181
v 0.303499 0.276458 0.666181
v 0.290447 0.284036 0.680305
v 0.290447 0.284036 0.680305
v 0.273423 0.291387 0.687731
v 0.273423 0.291387 0.687731
v 0.256303 0.298949 0.687195
v 0.246021 0.295814 0.688569
v 0.246021 0.295814 0.688569
v 0.256303 0.298949 0.687195
v 0.254063 0.222262 0.612150
v 0.265295 0.220673 0.621601
v 0.265295 0.220673 0.621601
v 0.254063 0.222262 0.612150
v 0.266166 0.220761 0.622820
v 0.267011 0.220980 0.623332
v 0.267011 0.220980 0.623332
v 0.266166 0.220761 0.622820
v 0.238439 0.224338 0.610445
v 0.238439 0.224338 0.610445
v 0.222677 0.227505 0.616997
v 0.222677 0.227505 0.616997
v 0.210525 0.232483 0.630564
v 0.210525 0.232483 0.630564
v 0.204632 0.239976 0.648219
v 0.204632 0.239976 0.648219
v 0.205926 0.250359 0.666076
v 0.205926 0.250359 0.666076
v 0.213424 0.263434 0.680222
v 0.213424 0.263434 0.680222
v 0.224490 0.278299 0.687679
v 0.224490 0.278299 0.687679
v 0.235550 0.293398 0.687173
v 0.235550 0.293398 0.687173
v 0.265784 0.220694 0.622847
v 0.266149 0.220826 0.622463
v 0.266149 0.220826 0.622463
v 0.265784 0.220694 0.622847
v 0.272472 0.227893 0.609619
v 0.266598 0.221097 0.621329
v 0.272472 0.227893 0.609619
v 0.266598 0.221097 0.621329
v 0.283353 0.238059 0.604340
v 0.283353 0.238059 0.604340
v 0.295757 0.249808 0.607144
v 0.295757 0.249808 0.607144
v 0.305955 0.261586 0.617774
v 0.305955 0.261586 0.617774
v 0.310720 0.272316 0.634050
v 0.310720 0.272316 0.634050
v 0.308181 0.281527 0.652431
v 0.308181 0.281527 0.652431
v 0.298320 0.289314 0.668882
v 0.298320 0.289314 0.668882
v 0.283032 0.296148 0.679848
v 0.283032 0.296148 0.679848
v 0.265714 0.302595 0.683137
v 0.265714 0.302595 0.683137
v 0.243102 0.306761 0.679480
v 0.250434 0.308996 0.678500
v 0.250434 0.308996 0.678500
v 0.243102 0.306761 0.679480
v 0.257168 0.223800 0.609603
v 0.265628 0.220837 0.621328
v 0.265628 0.220837 0.621328
v 0.257168 0.223800 0.609603
v 0.266149 0.220826 0.622463
v 0.266531 0.220894 0.622848
v 0.266531 0.220894 0.622848
v 0.266149 0.220826 0.622463
v 0.242676 0.227179 0.604297
v 0.242676 0.227179 0.604297
v 0.226057 0.231165 0.607069
v 0.226057 0.231165 0.607069
v 0.211320 0.236273 0.617672
v 0.211320 0.236273 0.617672
v 0.201802 0.243183 0.633933
v 0.201802 0.243183 0.633933
v 0.199366 0.252422 0.652314
v 0.199366 0.252422 0.652314
v 0.203990 0.264083 0.668780
v 0.203990 0.264083 0.668780
v 0.213802 0.277631 0.679774
v 0.213802 0.277631 0.679774
v 0.225582 0.291861 0.683094
v 0.225582 0.291861 0.683094
v 0.235636 0.305038 0.678484
v 0.235636 0.305038 0.678484
v 0.266057 0.220829 0.622339
v 0.266138 0.220869 0.622187
v 0.266138 0.220869 0.622187
v 0.266057 0.220829 0.622339
v 0.268645 0.227303 0.608053
v 0.266315 0.221053 0.621214
v 0.268645 0.227303 0.608053
v 0.266315 0.221053 0.621214
v 0.277026 0.237663 0.599661
v 0.277026 0.237663 0.599661
v 0.288743 0.250291 0.598637
v 0.288743 0.250291 0.598637
v 0.300229 0.263386 0.605762
v 0.300229 0.263386 0.605762
v 0.307890 0.275523 0.619764
v 0.307890 0.275523 0.619764
v 0.309090 0.285866 0.637674
v 0.309090 0.285866 0.637674
v 0.302850 0.294220 0.655576
v 0.302850 0.294220 0.655576
v 0.290126 0.300904 0.669556
v 0.290126 0.300904 0.669556
v 0.273621 0.306513 0.676650
v 0.273621 0.306513 0.676650
v 0.257167 0.311605 0.675597
v 0.257167 0.311605 0.675597
v 0.240854 0.315214 0.667703
v 0.244750 0.316401 0.667182
v 0.244750 0.316401 0.667182
v 0.240854 0.315214 0.667703
v 0.260782 0.225200 0.608044
v 0.265894 0.220941 0.621213
v 0.265894 0.220941 0.621213
v 0.260782 0.225200 0.608044
v 0.266138 0.220869 0.622187
v 0.266228 0.220875 0.622339
v 0.266228 0.220875 0.622339
v 0.266138 0.220869 0.622187
v 0.248365 0.229997 0.599630
v 0.248365 0.229997 0.599630
v 0.231910 0.235089 0.598576
v 0.231910 0.235089 0.598576
v 0.215406 0.240698 0.605671
v 0.215406 0.240698 0.605671
v 0.202682 0.247382 0.619650
v 0.202682 0.247382 0.619650
v 0.196442 0.255735 0.637553
v 0.196442 0.255735 0.637553
v 0.197642 0.266079 0.655463
v 0.197642 0.266079 0.655463
v 0.205303 0.278215 0.669465
v 0.205303 0.278215 0.669465
v 0.216789 0.291311 0.676589
v 0.216789 0.291311 0.676589
v 0.228505 0.303938 0.675566
v 0.228505 0.303938 0.675566
v 0.236887 0.314298 0.667174
v 0.236887 0.314298 0.667174
v 0.266132 0.220894 0.622013
v 0.266132 0.220894 0.622013
v 0.266103 0.221004 0.621185
v 0.264678 0.226388 0.607524
v 0.266103 0.221004 0.621185
v 0.264678 0.226388 0.607524
v 0.269896 0.236564 0.596743
v 0.269896 0.236564 0.596743
v 0.279949 0.249741 0.592133
v 0.279949 0.249741 0.592133
v 0.291730 0.263971 0.595453
v 0.291730 0.263971 0.595453
v 0.301542 0.277518 0.606446
v 0.301542 0.277518 0.606446
v 0.306165 0.289179 0.622913
v 0.306165 0.289179 0.622913
v 0.303730 0.298419 0.641294
v 0.303730 0.298419 0.641294
v 0.294212 0.305329 0.657554
v 0.294212 0.305329 0.657554
v 0.279475 0.310437 0.668158
v 0.279475 0.310437 0.668158
v 0.262856 0.314423 0.670930
v 0.262856 0.314423 0.670930
v 0.248364 0.317802 0.665624
v 0.248364 0.317802 0.665624
v 0.239638 0.320661 0.654013
v 0.239429 0.320597 0.654041
v 0.239638 0.320661 0.654013
v 0.239429 0.320597 0.654041
v 0.255098 0.232606 0.596727
v 0.255098 0.232606 0.596727
v 0.239817 0.239006 0.592090
v 0.239817 0.239006 0.592090
v 0.222500 0.245453 0.595379
v 0.222500 0.245453 0.595379
v 0.207212 0.252287 0.606345
v 0.207212 0.252287 0.606345
v 0.197351 0.260074 0.622796
v 0.197351 0.260074 0.622796
v 0.194812 0.269286 0.641177
v 0.194812 0.269286 0.641177
v 0.199577 0.280016 0.657452
v 0.199577 0.280016 0.657452
v 0.209775 0.291794 0.668083
v 0.209775 0.291794 0.668083
v 0.222179 0.303543 0.670886
v 0.222179 0.303543 0.670886
v 0.233059 0.313708 0.665607
v 0.233059 0.313708 0.665607
v 0.239216 0.320548 0.654013
v 0.239216 0.320548 0.654013
v 0.262429 0.234841 0.595747
v 0.262429 0.234841 0.595747
v 0.269982 0.248204 0.588054
v 0.269982 0.248204 0.588054
v 0.281042 0.263303 0.587548
v 0.281042 0.263303 0.587548
v 0.292108 0.278168 0.595005
v 0.292108 0.278168 0.595005
v 0.299606 0.291242 0.609150
v 0.299606 0.291242 0.609150
v 0.300900 0.301626 0.627008
v 0.300900 0.301626 0.627008
v 0.295006 0.309119 0.644663
v 0.295006 0.309119 0.644663
v 0.282855 0.314097 0.658230
v 0.282855 0.314097 0.658230
v 0.267093 0.317264 0.664782
v 0.267093 0.317264 0.664782
v 0.251469 0.319340 0.663077
v 0.251469 0.319340 0.663077
v 0.239904 0.320764 0.653898
v 0.239904 0.320764 0.653898
v 0.239400 0.320707 0.653214
v 0.239400 0.320707 0.653214
v 0.249229 0.242653 0.588031
v 0.249229 0.242653 0.588031
v 0.232109 0.250214 0.587495
v 0.232109 0.250214 0.587495
v 0.215085 0.257566 0.594922
v 0.215085 0.257566 0.594922
v 0.202033 0.265144 0.609045
v 0.202033 0.265144 0.609045
v 0.195692 0.273485 0.626894
v 0.195692 0.273485 0.626894
v 0.197022 0.282910 0.644558
v 0.197022 0.282910 0.644558
v 0.205038 0.293283 0.658146
v 0.205038 0.293283 0.658146
v 0.217102 0.303892 0.664728
v 0.217102 0.303892 0.664728
v 0.229606 0.313492 0.663053
v 0.229606 0.313492 0.663053
v 0.238934 0.320505 0.653897
v 0.238934 0.320505 0.653897
v 0.259511 0.245787 0.586658
v 0.259511 0.245787 0.586658
v 0.268898 0.261430 0.582578
v 0.268898 0.261430 0.582578
v 0.280231 0.277425 0.586219
v 0.280231 0.277425 0.586219
v 0.289853 0.291913 0.597322
v 0.289853 0.291913 0.597322
v 0.294552 0.303622 0.613690
v 0.294552 0.303622 0.613690
v 0.292452 0.312013 0.631769
v 0.292452 0.312013 0.631769
v 0.283513 0.317236 0.647552
v 0.283513 0.317236 0.647552
v 0.269553 0.319927 0.657557
v 0.269553 0.319927 0.657557
v 0.253824 0.320919 0.659659
v 0.253824 0.320919 0.659659
v 0.240236 0.320929 0.653626
v 0.240236 0.320929 0.653626
v 0.239394 0.320732 0.653040
v 0.239303 0.320726 0.652888
v 0.239394 0.320732 0.653040
v 0.239303 0.320726 0.652888
v 0.243576 0.254657 0.582551
v 0.243576 0.254657 0.582551
v 0.225765 0.262857 0.586161
v 0.225765 0.262857 0.586161
v 0.210172 0.270600 0.597237
v 0.210172 0.270600 0.597237
v 0.200222 0.278391 0.613589
v 0.200222 0.278391 0.613589
v 0.197817 0.286700 0.631667
v 0.197817 0.286700 0.631667
v 0.202922 0.295680 0.647465
v 0.202922 0.295680 0.647465
v 0.213655 0.304976 0.657497
v 0.213655 0.304976 0.657497
v 0.226784 0.313686 0.659630
v 0.226784 0.313686 0.659630
v 0.238564 0.320482 0.653624
v 0.238564 0.320482 0.653624
v 0.239394 0.320732 0.653040
v 0.239475 0.320772 0.652888
v 0.239475 0.320772 0.652888
v 0.239394 0.320732 0.653040
v 0.256122 0.258482 0.580875
v 0.256122 0.258482 0.580875
v 0.266718 0.275341 0.580689
v 0.266718 0.275341 0.580689
v 0.277570 0.291145 0.588237
v 0.277570 0.291145 0.588237
v 0.285118 0.304271 0.602249
v 0.285118 0.304271 0.602249
v 0.286726 0.313813 0.619756
v 0.286726 0.313813 0.619756
v 0.281397 0.319634 0.636871
v 0.281397 0.319634 0.636871
v 0.270033 0.322219 0.649764
v 0.270033 0.322219 0.649764
v 0.255212 0.322422 0.655582
v 0.255212 0.322422 0.655582
v 0.240572 0.321154 0.653138
v 0.240572 0.321154 0.653138
v 0.239382 0.320776 0.652764
v 0.239001 0.320707 0.652379
v 0.239382 0.320776 0.652764
v 0.239001 0.320707 0.652379
v 0.238524 0.267800 0.580659
v 0.238524 0.267800 0.580659
v 0.221217 0.276072 0.588176
v 0.221217 0.276072 0.588176
v 0.208095 0.283669 0.602166
v 0.208095 0.283669 0.602166
v 0.201903 0.291125 0.619665
v 0.201903 0.291125 0.619665
v 0.203580 0.298820 0.636788
v 0.203580 0.298820 0.636788
v 0.212110 0.306726 0.649702
v 0.212110 0.306726 0.649702
v 0.224839 0.314298 0.655550
v 0.224839 0.314298 0.655550
v 0.238162 0.320509 0.653136
v 0.238162 0.320509 0.653136
v 0.239382 0.320776 0.652764
v 0.239748 0.320907 0.652380
v 0.239748 0.320907 0.652380
v 0.239382 0.320776 0.652764
v 0.252493 0.272058 0.578793
v 0.252493 0.272058 0.578793
v 0.263591 0.288990 0.582516
v 0.263591 0.288990 0.582516
v 0.273241 0.303528 0.593463
v 0.273241 0.303528 0.593463
v 0.278226 0.314398 0.609447
v 0.278226 0.314398 0.609447
v 0.276661 0.321123 0.626935
v 0.276661 0.321123 0.626935
v 0.268489 0.323969 0.641968
v 0.268489 0.323969 0.641968
v 0.255486 0.323726 0.651148
v 0.255486 0.323726 0.651148
v 0.240810 0.321412 0.652440
v 0.240810 0.321412 0.652440
v 0.239365 0.320841 0.652407
v 0.238521 0.320621 0.651895
v 0.239365 0.320841 0.652407
v 0.238521 0.320621 0.651895
v 0.234416 0.281186 0.582484
v 0.234416 0.281186 0.582484
v 0.218775 0.288960 0.593404
v 0.218775 0.288960 0.593404
v 0.208996 0.295881 0.609373
v 0.208996 0.295881 0.609373
v 0.206961 0.302480 0.626860
v 0.206961 0.302480 0.626860
v 0.212591 0.309017 0.641908
v 0.212591 0.309017 0.641908
v 0.223960 0.315294 0.651114
v 0.223960 0.315294 0.651114
v 0.237828 0.320614 0.652436
v 0.237828 0.320614 0.652436
v 0.239365 0.320841 0.652407
v 0.240208 0.321073 0.651897
v 0.240208 0.321073 0.651897
v 0.239365 0.320841 0.652407
v 0.248871 0.285593 0.580553
v 0.248871 0.285593 0.580553
v 0.259729 0.301445 0.587933
v 0.259729 0.301445 0.587933
v 0.267539 0.313730 0.601542
v 0.267539 0.313730 0.601542
v 0.269647 0.321606 0.618428
v 0.269647 0.321606 0.618428
v 0.265042 0.325052 0.634737
v 0.265042 0.325052 0.634737
v 0.254607 0.324722 0.646712
v 0.254607 0.324722 0.646712
v 0.240862 0.321656 0.651609
v 0.240862 0.321656 0.651609
v 0.239343 0.320928 0.651994
v 0.238021 0.320492 0.651592
v 0.239343 0.320928 0.651994
v 0.238021 0.320492 0.651592
v 0.231534 0.293903 0.587903
v 0.231534 0.293903 0.587903
v 0.218606 0.300642 0.601490
v 0.218606 0.300642 0.601490
v 0.212814 0.306404 0.618367
v 0.212814 0.306404 0.618367
v 0.215051 0.311681 0.634683
v 0.215051 0.311681 0.634683
v 0.224233 0.316598 0.646679
v 0.224233 0.316598 0.646679
v 0.237664 0.320801 0.651606
v 0.237664 0.320801 0.651606
v 0.239343 0.320928 0.651994
v 0.240706 0.321210 0.651595
v 0.240706 0.321210 0.651595
v 0.239343 0.320928 0.651994
v 0.245503 0.298162 0.586037
v 0.245503 0.298162 0.586037
v 0.255395 0.311858 0.596572
v 0.255395 0.311858 0.596572
v 0.260853 0.321056 0.611923
v 0.260853 0.321056 0.611923
v 0.259965 0.325402 0.628579
v 0.259965 0.325402 0.628579
v 0.252662 0.325333 0.642631
v 0.252662 0.325333 0.642631
v 0.240697 0.321842 0.650779
v 0.240697 0.321842 0.650779
v 0.239315 0.321034 0.651554
v 0.237705 0.320387 0.651496
v 0.239315 0.321034 0.651554
v 0.237705 0.320387 0.651496
v 0.230073 0.305084 0.596545
v 0.230073 0.305084 0.596545
v 0.220721 0.310322 0.611880
v 0.220721 0.310322 0.611880
v 0.219288 0.314522 0.628535
v 0.219288 0.314522 0.628535
v 0.225621 0.318101 0.642602
v 0.225621 0.318101 0.642602
v 0.237715 0.321045 0.650776
v 0.237715 0.321045 0.650776
v 0.239315 0.321034 0.651554
v 0.241032 0.321277 0.651499
v 0.241032 0.321277 0.651499
v 0.239315 0.321034 0.651554
v 0.242619 0.308909 0.594869
v 0.242619 0.308909 0.594869
v 0.250886 0.319519 0.607844
v 0.250886 0.319519 0.607844
v 0.253638 0.325006 0.623899
v 0.253638 0.325006 0.623899
v 0.249839 0.325528 0.639208
v 0.249839 0.325528 0.639208
v 0.240364 0.321947 0.650079
v 0.240364 0.321947 0.650079
v 0.238010 0.320536 0.651423
v 0.239283 0.321155 0.651118
v 0.239283 0.321155 0.651118
v 0.238010 0.320536 0.651423
v 0.230133 0.313968 0.607822
v 0.230133 0.313968 0.607822
v 0.224976 0.317340 0.623869
v 0.224976 0.317340 0.623869
v 0.227977 0.319680 0.639185
v 0.227977 0.319680 0.639185
v 0.237953 0.321302 0.650077
v 0.237953 0.321302 0.650077
v 0.239283 0.321155 0.651118
v 0.240694 0.321254 0.651426
v 0.240694 0.321254 0.651426
v 0.239283 0.321155 0.651118
v 0.240415 0.317102 0.606448
v 0.240415 0.317102 0.606448
v 0.246507 0.323907 0.620981
v 0.246507 0.323907 0.620981
v 0.246386 0.325312 0.636654
v 0.246386 0.325312 0.636654
v 0.239961 0.321975 0.649591
v 0.239961 0.321975 0.649591
v 0.238471 0.320812 0.651160
v 0.239250 0.321279 0.650715
v 0.239250 0.321279 0.650715
v 0.238471 0.320812 0.651160
v 0.231710 0.319949 0.620965
v 0.231710 0.319949 0.620965
v 0.231082 0.321218 0.636637
v 0.231082 0.321218 0.636637
v 0.238289 0.321528 0.649589
v 0.238289 0.321528 0.649589
v 0.239250 0.321279 0.650715
v 0.240158 0.321263 0.651162
v 0.240158 0.321263 0.651162
v 0.239250 0.321279 0.650715
v 0.239041 0.322184 0.619986
v 0.239041 0.322184 0.619986
v 0.242559 0.324721 0.635088
v 0.242559 0.324721 0.635088
v 0.239592 0.321952 0.649318
v 0.239592 0.321952 0.649318
v 0.238888 0.321137 0.650721
v 0.239219 0.321396 0.650372
v 0.239219 0.321396 0.650372
v 0.238888 0.321137 0.650721
v 0.234696 0.322618 0.635079
v 0.234696 0.322618 0.635079
v 0.238621 0.321692 0.649317
v 0.238621 0.321692 0.649317
v 0.239219 0.321396 0.650372
v 0.239635 0.321337 0.650722
v 0.239635 0.321337 0.650722
v 0.239219 0.321396 0.650372
v 0.238592 0.323806 0.634559
v 0.238592 0.323806 0.634559
v 0.239309 0.321908 0.649202
v 0.239309 0.321908 0.649202
v 0.239123 0.321410 0.650251
v 0.239194 0.321492 0.650111
v 0.239194 0.321492 0.650111
v 0.239123 0.321410 0.650251
v 0.238888 0.321795 0.649202
v 0.238888 0.321795 0.649202
v 0.239194 0.321492 0.650111
v 0.239295 0.321456 0.650251
v 0.239295 0.321456 0.650251
v 0.239194 0.321492 0.650111
v 0.239097 0.321859 0.649174
v 0.239097 0.321859 0.649174
v 0.239177 0.321554 0.649947
v 0.239177 0.321554 0.649947
vn 0.25316587488050396 -0.9348068428655488 -0.24908473724364213
vn 0.25839414823166945 -0.9660391854031792 -0.0008697270790610697
vn 0.250524018842467 -0.9356183220384248 -0.24870880854730795
vn 0.32311806077629945 -0.9463103873693025 -0.009558742444698376
vn -0.32311806077629945 0.9463103873693025 0.009558742444698376
vn -0.25316587488050396 0.9348068428655488 0.24908473724364213
vn -0.25839414823166945 0.9660391854031792 0.0008697270790610697
vn -0.250524018842467 0.9356183220384248 0.24870880854730795
vn 0.24783058289076484 -0.9362339140417738 -0.24909046626084322
vn 0.19248135870100408 -0.981252697204159 -0.009699009340056195
vn -0.24783058289076484 0.9362339140417738 0.24909046626084322
vn -0.19248135870100408 0.981252697204159 0.009699009340056195
vn 0.2404236254394716 -0.8973683772734063 -0.37003577637876334
vn -0.2404236254394716 0.8973683772734063 0.37003577637876334
vn 0.25553325115507314 -0.9338714388763967 -0.2501737260486135
vn 0.38187977181737554 -0.9235484098113886 -0.03501677614465036
vn -0.38187977181737554 0.9235484098113886 0.03501677614465036
vn -0.25553325115507314 0.9338714388763967 0.2501737260486135
vn 0.24999421093381355 -0.9356409282578585 0.24915647265995897
vn 0.37324747632855965 -0.8980896203028995 0.23263996930569542
vn -0.37324747632855965 0.8980896203028995 -0.23263996930569542
vn -0.24999421093381355 0.9356409282578585 -0.24915647265995897
vn 0.24531453834279218 -0.9366047158357975 -0.250184698876265
vn 0.13025402203650535 -0.9908525222912848 -0.0352869496033887
vn -0.24531453834279218 0.9366047158357975 0.250184698876265
vn -0.13025402203650535 0.9908525222912848 0.0352869496033887
vn 0.12448593620649827 -0.9646274548675445 0.23237281468053672
vn -0.12448593620649827 0.9646274548675445 -0.23237281468053672
vn 0.17991737136967362 -0.9150478934464413 -0.3609945874644897
vn 0.1687168876836354 -0.9198523060262698 -0.3541275856361677
vn -0.17991737136967362 0.9150478934464413 0.3609945874644897
vn -0.1687168876836354 0.9198523060262698 0.3541275856361677
vn 0.2574509317178049 -0.9328918035238886 -0.2518569051576322
vn 0.43055094303463237 -0.8994336099318645 -0.07513365941389617
vn -0.43055094303463237 0.8994336099318645 0.07513365941389617
vn -0.2574509317178049 0.9328918035238886 0.2518569051576322
vn 0.48519754352346783 -0.8547763810711551 0.18422997074768255
vn -0.48519754352346783 0.8547763810711551 -0.18422997074768255
vn 0.3999133944350671 -0.7905476017498745 0.46379280537643564
vn 0.22516608389467482 -0.8437752834378276 0.4871791310421146
vn -0.3999133944350671 0.7905476017498745 -0.46379280537643564
vn -0.22516608389467482 0.8437752834378276 -0.4871791310421146
vn 0.24316725045277568 -0.9367123686237468 -0.25187224296163874
vn 0.07612384528373527 -0.9942347630730213 -0.07551421108871402
vn -0.24316725045277568 0.9367123686237468 0.25187224296163874
vn -0.07612384528373527 0.9942347630730213 0.07551421108871402
vn 0.3016581539263522 -0.8824849252996639 -0.36086384522225534
vn 0.3137477008577377 -0.881059771950399 -0.35397183285848394
vn -0.3137477008577377 0.881059771950399 0.35397183285848394
vn -0.3016581539263522 0.8824849252996639 0.36086384522225534
vn 0.005959033466220314 -0.9829614270018725 0.1837153312780157
vn -0.005959033466220314 0.9829614270018725 -0.1837153312780157
vn 0.047227691151680684 -0.8848825495778857 0.4634138740273344
vn -0.047227691151680684 0.8848825495778857 -0.4634138740273344
vn 0.15635092700466943 -0.9267428363638069 -0.34161689488833336
vn 0.1475778382295839 -0.9316575284790095 -0.3320166129757157
vn -0.15635092700466943 0.9267428363638069 0.34161689488833336
vn -0.1475778382295839 0.9316575284790095 0.3320166129757157
vn 0.2588106221401638 -0.9319403341105698 -0.2539769192767346
vn 0.46599779140164044 -0.8756513719138772 -0.12680983114150826
vn -0.46599779140164044 0.8756513719138772 0.12680983114150826
vn -0.2588106221401638 0.9319403341105698 0.2539769192767346
vn 0.577991584337872 -0.8088781686168741 0.10789734366335466
vn -0.577991584337872 0.8088781686168741 -0.10789734366335466
vn 0.5586820530531528 -0.7291559053616748 0.3952290845478235
vn -0.5586820530531528 0.7291559053616748 -0.3952290845478235
vn 0.400024530685169 -0.6272201340788446 0.6682628811001149
vn 0.18457057676341812 -0.6928478497840407 0.6970620913827194
vn -0.18457057676341812 0.6928478497840407 -0.6970620913827194
vn -0.400024530685169 0.6272201340788446 -0.6682628811001149
vn 0.24151837961033568 -0.9365656221187201 -0.2539954877075034
vn 0.03364130980809753 -0.9912969160500675 -0.12727406060946217
vn -0.24151837961033568 0.9365656221187201 0.2539954877075034
vn -0.03364130980809753 0.9912969160500675 0.12727406060946217
vn 0.32787721869859854 -0.8808633531476958 -0.3414326910825459
vn 0.33791308275598325 -0.8807470715336219 -0.33181221268557476
vn -0.33791308275598325 0.8807470715336219 0.33181221268557476
vn -0.32787721869859854 0.8808633531476958 0.3414326910825459
vn -0.09720427381367258 -0.9894773475020765 0.10717232820374628
vn 0.09720427381367258 0.9894773475020765 -0.10717232820374628
vn -0.12085063760962157 -0.9109146948020368 0.39449910289259255
vn 0.12085063760962157 0.9109146948020368 -0.39449910289259255
vn -0.034818252901964615 -0.7435300816861571 0.6677954079601264
vn 0.034818252901964615 0.7435300816861571 -0.6677954079601264
vn 0.13917326037921232 -0.9382829458014016 -0.3166321481051222
vn 0.13336607641484255 -0.9429680846082338 -0.30499947716674697
vn -0.13917326037921232 0.9382829458014016 0.3166321481051222
vn -0.13336607641484255 0.9429680846082338 0.30499947716674697
vn 0.2595635239653845 -0.9310743763773549 -0.25637332677209435
vn 0.4861779628337502 -0.8537526989237052 -0.18637949869906278
vn -0.4861779628337502 0.8537526989237052 0.18637949869906278
vn -0.2595635239653845 0.9310743763773549 0.25637332677209435
vn 0.6456302022935367 -0.7635911102661539 0.009500432038018843
vn -0.6456302022935367 0.7635911102661539 -0.009500432038018843
vn 0.6903482003507055 -0.664085846556916 0.28707028873662016
vn -0.6903482003507055 0.664085846556916 -0.28707028873662016
vn 0.595820757556081 -0.551510273492476 0.5838099374775596
vn -0.595820757556081 0.551510273492476 -0.5838099374775596
vn 0.3719772938122484 -0.4167520024711161 0.8294279120721889
vn 0.13024408326668488 -0.49040317318395094 0.8617083070883865
vn -0.13024408326668488 0.49040317318395094 -0.8617083070883865
vn -0.3719772938122484 0.4167520024711161 -0.8294279120721889
vn 0.2404385146380155 -0.9361898886193033 -0.25639386327609565
vn 0.005342990591537096 -0.9823652143949577 -0.18689579449063992
vn -0.2404385146380155 0.9361898886193033 0.25639386327609565
vn -0.005342990591537096 0.9823652143949577 0.18689579449063992
vn 0.34847208262382984 -0.882300160301678 -0.3164073873401882
vn 0.3558194164334131 -0.8834667642627573 -0.30476059346982365
vn -0.3558194164334131 0.8834667642627573 0.30476059346982365
vn -0.34847208262382984 0.882300160301678 0.3164073873401882
vn -0.1782219210924398 -0.9839525974856123 0.008615842584276218
vn 0.1782219210924398 0.9839525974856123 -0.008615842584276218
vn -0.2672024356850429 -0.9202080796165915 0.28604186506930257
vn 0.2672024356850429 0.9202080796165915 -0.28604186506930257
vn -0.2420956513884644 -0.7756328594230779 0.5829093951567217
vn 0.2420956513884644 0.7756328594230779 -0.5829093951567217
vn -0.11591326724934428 -0.5472510737387015 0.8289031166351231
vn 0.11591326724934428 0.5472510737387015 -0.8289031166351231
vn 0.1293857569776137 -0.9489080852231032 -0.2878068305123315
vn 0.12686664327676617 -0.9530576744012877 -0.27492894370817855
vn -0.1293857569776137 0.9489080852231032 0.2878068305123315
vn -0.12686664327676617 0.9530576744012877 0.27492894370817855
vn 0.2596979296017517 -0.930337119970032 -0.2589011946021683
vn 0.4900600978864527 -0.83508883652565 -0.24993546280941512
vn -0.4900600978864527 0.83508883652565 0.24993546280941512
vn -0.2596979296017517 0.930337119970032 0.2589011946021683
vn 0.6841704914814517 -0.7218697759082345 -0.1039940633700987
vn -0.6841704914814517 0.7218697759082345 0.1039940633700987
vn 0.786376463307914 -0.59986068244298 0.1475778425590351
vn -0.786376463307914 0.59986068244298 -0.1475778425590351
vn 0.7582561678605096 -0.4712393510390297 0.45053419174776144
vn -0.7582561678605096 0.4712393510390297 -0.45053419174776144
vn 0.5916808740842778 -0.3317470966761077 0.7347500303435435
vn -0.5916808740842778 0.3317470966761077 -0.7347500303435435
vn 0.3167668386255674 -0.17393495789290933 0.9324191119716259
vn 0.06593451072508731 -0.25039208137881136 0.9658967055944596
vn -0.06593451072508731 0.25039208137881136 -0.9658967055944596
vn -0.3167668386255674 0.17393495789290933 -0.9324191119716259
vn 0.23995907040133346 -0.9356168234526887 -0.2589223903111279
vn -0.007210734448438917 -0.9680976545258922 -0.2504694324866419
vn -0.23995907040133346 0.9356168234526887 0.2589223903111279
vn 0.007210734448438917 0.9680976545258922 0.2504694324866419
vn 0.3621991436307665 -0.8866356928805591 -0.28755682649408687
vn 0.36642761945456853 -0.8889804600474958 -0.27467169740364705
vn -0.36642761945456853 0.8889804600474958 0.27467169740364705
vn -0.3621991436307665 0.8866356928805591 0.28755682649408687
vn -0.2322165128006543 -0.9669824765604393 -0.10497800344711675
vn 0.2322165128006543 0.9669824765604393 0.10497800344711675
vn -0.38219068422214963 -0.9124252604703664 0.14632301578831983
vn 0.38219068422214963 0.9124252604703664 -0.14632301578831983
vn -0.42264607042598834 -0.7871027982347152 0.4492654940728833
vn 0.42264607042598834 0.7871027982347152 -0.4492654940728833
vn -0.34852517591642296 -0.5832299314272226 0.7337390877143071
vn 0.34852517591642296 0.5832299314272226 -0.7337390877143071
vn -0.1895052123957265 -0.30935091744226206 0.931874339357234
vn 0.1895052123957265 0.30935091744226206 -0.931874339357234
vn 0.12749919604574828 -0.9579543263224204 -0.2570359190616082
vn 0.12749919604592097 -0.9579543263230762 -0.25703591905907797
vn -0.12749919604574828 0.9579543263224204 0.2570359190616082
vn -0.12749919604592097 0.9579543263230762 0.25703591905907797
vn 0.4775001977206033 -0.8207981666412061 -0.31350268071456694
vn 0.25921837043826146 -0.9297636255332382 -0.2614296024986854
vn -0.4775001977206033 0.8207981666412061 0.31350268071456694
vn -0.25921837043826146 0.9297636255332382 0.2614296024986854
vn 0.6916013578095213 -0.6862997104927013 -0.22512278705999705
vn -0.6916013578095213 0.6862997104927013 0.22512278705999705
vn 0.8411248415982001 -0.5406753203333947 -0.013386516678499284
vn -0.8411248415982001 0.5406753203333947 0.013386516678499284
vn 0.8767799303811352 -0.3919882282855678 0.2785716829945091
vn -0.8767799303811352 0.3919882282855678 -0.2785716829945091
vn 0.7739932021218612 -0.24158857316277488 0.5852943570429519
vn -0.7739932021218612 0.24158857316277488 -0.5852943570429519
vn 0.5447383537410665 -0.08563892552865686 0.83422185322477
vn -0.5447383537410665 0.08563892552865686 -0.83422185322477
vn 0.23855424406968326 0.08151253401506238 0.9677022163014742
vn -0.0031616729344211363 0.007796584839180579 0.9999646079182508
vn 0.0031616729344211363 -0.007796584839180579 -0.9999646079182508
vn -0.23855424406968326 -0.08151253401506238 -0.9677022163014742
vn -0.0033347558056861016 -0.9494108298374031 -0.31401903698847633
vn 0.24009336114153243 -0.9348791380170283 -0.2614501391017028
vn -0.24009336114153243 0.9348791380170283 0.2614501391017028
vn 0.0033347558056861016 0.9494108298374031 0.31401903698847633
vn 0.3682881792408849 -0.8935486584809503 -0.2567773587338415
vn 0.3682881792445267 -0.8935486584947805 -0.25677735868049073
vn -0.3682881792445267 0.8935486584947805 0.25677735868049073
vn -0.3682881792408849 0.8935486584809503 0.2567773587338415
vn -0.256169688037372 -0.9398071981719047 -0.2261404899506269
vn 0.256169688037372 0.9398071981719047 0.2261404899506269
vn -0.4588524207177079 -0.8883895197899634 -0.014782324879995737
vn 0.4588524207177079 0.8883895197899634 0.014782324879995737
vn -0.5645620863731591 -0.7775136741478397 0.2770237122397875
vn 0.5645620863731591 0.7775136741478397 -0.2770237122397875
vn -0.5512017634492882 -0.5960471696961852 0.5838701803205592
vn 0.5512017634492882 0.5960471696961852 -0.5838701803205592
vn -0.4309168098760227 -0.34660404045613286 0.8331724564012872
vn 0.4309168098760227 0.34660404045613286 -0.8331724564012872
vn -0.24933624282849767 -0.048987122625177106 0.9671771811974651
vn 0.24933624282849767 0.048987122625177106 -0.9671771811974651
vn 0.12931288999018717 -0.9623474996853008 -0.23909300770168032
vn 0.13358739273079942 -0.9648641471354795 -0.22625557689460607
vn -0.13358739273079942 0.9648641471354795 0.22625557689460607
vn -0.12931288999018717 0.9623474996853008 0.23909300770168032
vn 0.44918491607793004 -0.8118030621356251 -0.3731068204620295
vn 0.2581381876896746 -0.9293867052152985 -0.2638276487128333
vn -0.44918491607793004 0.8118030621356251 0.3731068204620295
vn -0.2581381876896746 0.9293867052152985 0.2638276487128333
vn 0.6676320775687914 -0.6590641272436956 -0.34626851601276903
vn -0.6676320775687914 0.6590641272436956 0.34626851601276903
vn 0.851696379953771 -0.49021126716945373 -0.1852193022170206
vn -0.851696379953771 0.49021126716945373 0.1852193022170206
vn 0.9443848001431003 -0.31894731859127035 0.08006220845140133
vn -0.9443848001431003 0.31894731859127035 -0.08006220845140133
vn 0.9070592642226163 -0.15255760463215387 0.3923896895393982
vn -0.9070592642226163 0.15255760463215387 -0.3923896895393982
vn 0.7339184185480093 0.008041979615378938 0.6791900186839137
vn -0.7339184185480093 -0.008041979615378938 -0.6791900186839137
vn 0.4582110199717268 0.16669245513962822 0.8730728987753501
vn -0.4582110199717268 -0.16669245513962822 -0.8730728987753501
vn 0.14412452351906946 0.3284309952469583 0.9334673015598851
vn -0.07130262377769737 0.2627028720047661 0.9622386070423821
vn 0.07130262377769737 -0.2627028720047661 -0.9622386070423821
vn -0.14412452351906946 -0.3284309952469583 -0.9334673015598851
vn 0.01682846708879384 -0.9274488636186504 -0.3735711552942966
vn 0.24084594521381936 -0.9340119936494572 -0.26384621731802077
vn -0.24084594521381936 0.9340119936494572 0.26384621731802077
vn -0.01682846708879384 0.9274488636186504 0.3735711552942966
vn 0.3664007838892544 -0.90259179035331 -0.22600558743567908
vn 0.3688738688668074 -0.898270306633293 -0.23883577011863855
vn -0.3688738688668074 0.898270306633293 0.23883577011863855
vn -0.3664007838892544 0.90259179035331 0.22600558743567908
vn -0.24875486541134206 -0.9041773117535391 -0.3472526541933532
vn 0.24875486541134206 0.9041773117535391 0.3472526541933532
vn -0.49286084224913235 -0.8498500453306241 -0.18666304034010595
vn 0.49286084224913235 0.8498500453306241 0.18666304034010595
vn -0.6592054447467722 -0.7478709588963134 0.07834035011230737
vn 0.6592054447467722 0.7478709588963134 -0.07834035011230737
vn -0.7105584926631623 -0.5852329188937265 0.3906520947689689
vn 0.7105584926631623 0.5852329188937265 -0.3906520947689689
vn -0.6412912133679032 -0.3597949232975435 0.6777117328381124
vn 0.6412912133679032 0.3597949232975435 -0.6777117328381124
vn -0.48199490216315416 -0.08479138885922258 0.8720615429337861
vn 0.48199490216315416 0.08479138885922258 -0.8720615429337861
vn -0.29071814707573035 0.21212015579002916 0.9329994632734081
vn 0.29071814707573035 -0.21212015579002916 -0.9329994632734081
vn 0.13991909139995293 -0.9678537069776932 -0.20900203288807798
vn 0.14731215227875427 -0.9691910712156333 -0.19740262730494332
vn -0.14731215227875427 0.9691910712156333 0.19740262730494332
vn -0.13991909139995293 0.9678537069776932 0.20900203288807798
vn 0.4066789335069333 -0.8087776023345402 -0.42484236488803206
vn 0.256488873593268 -0.9292383033084979 -0.26595043407973745
vn -0.4066789335069333 0.8087776023345402 0.42484236488803206
vn -0.256488873593268 0.9292383033084979 0.26595043407973745
vn 0.613593218967198 -0.6419285055764321 -0.45981643659821575
vn -0.613593218967198 0.6419285055764321 0.45981643659821575
vn 0.8176634122816567 -0.4515798584454055 -0.35707446795079706
vn -0.8176634122816567 0.4515798584454055 0.35707446795079706
vn 0.9574536635603069 -0.25668038956629546 -0.13190018857849178
vn -0.9574536635603069 0.25668038956629546 0.13190018857849178
vn 0.9829811168033006 -0.07050826952880816 0.16963698870290309
vn -0.9829811168033006 0.07050826952880816 -0.16963698870290309
vn 0.872005573727638 0.1005579319778849 0.47905571878881076
vn -0.872005573727638 -0.1005579319778849 -0.47905571878881076
vn 0.6404600251274253 0.25708764952769136 0.7236828702367528
vn -0.6404600251274253 -0.25708764952769136 -0.7236828702367528
vn 0.33984800079578253 0.404412880912638 0.8490898410103905
vn -0.33984800079578253 -0.404412880912638 -0.8490898410103905
vn 0.041426672656614226 0.5482104848750075 0.8353137704274431
vn -0.1332949103825079 0.4948864490652001 0.8586733193699198
vn 0.1332949103825079 -0.4948864490652001 -0.8586733193699198
vn -0.041426672656614226 -0.5482104848750075 -0.8353137704274431
vn 0.05225187370391613 -0.9035790549985688 -0.4252230391951069
vn 0.24220519239202332 -0.9330588689118079 -0.26596577208986993
vn -0.24220519239202332 0.9330588689118079 0.26596577208986993
vn -0.05225187370391613 0.9035790549985688 0.4252230391951069
vn 0.3566109823689989 -0.9132083476414853 -0.19717789189390797
vn 0.3623724381318166 -0.9083524396202753 -0.20876317088580748
vn -0.3623724381318166 0.9083524396202753 0.20876317088580748
vn -0.3566109823689989 0.9132083476414853 0.19717789189390797
vn -0.2102587976708926 -0.8622908353587085 -0.46070137101854947
vn 0.2102587976708926 0.8622908353587085 0.46070137101854947
vn -0.4823137483744784 -0.7992948603060068 -0.35847060467681496
vn 0.4823137483744784 0.7992948603060068 0.35847060467681496
vn -0.7011898397457242 -0.7003300364471987 -0.1336811455936518
vn 0.7011898397457242 0.7003300364471987 0.1336811455936518
vn -0.8168570157508651 -0.5519238026527582 0.1677042989428419
vn 0.8168570157508651 0.5519238026527582 -0.1677042989428419
vn -0.8067238130390825 -0.34846380372009 0.4772522047854891
vn 0.8067238130390825 0.34846380372009 -0.4772522047854891
vn -0.6847347937164657 -0.09737210512931369 0.7222582193487
vn 0.6847347937164657 0.09737210512931369 -0.7222582193487
vn -0.49806821337942575 0.1802887576640696 0.8481886692717447
vn 0.49806821337942575 -0.1802887576640696 -0.8481886692717447
vn -0.31125892649985815 0.4538747151724233 0.834934502581674
vn 0.31125892649985815 -0.4538747151724233 -0.834934502581674
vn 0.15782196051532976 -0.9705604479906831 -0.1819468207340325
vn 0.1679038482190946 -0.970616035519573 -0.17237403907052257
vn -0.1679038482190946 0.970616035519573 0.17237403907052257
vn -0.15782196051532976 0.9705604479906831 0.1819468207340325
vn 0.3525249740402519 -0.8120709974860981 -0.4650449846196104
vn 0.2543411315170723 -0.9293442599010661 -0.2676375074752322
vn -0.3525249740402519 0.8120709974860981 0.4650449846196104
vn -0.2543411315170723 0.9293442599010661 0.2676375074752322
vn 0.5325144127509649 -0.6361751946394609 -0.5583095216257191
vn -0.5325144127509649 0.6361751946394609 0.5583095216257191
vn 0.7409342780123715 -0.4272921120049853 -0.5181098789683559
vn -0.7409342780123715 0.4272921120049853 0.5181098789683559
vn 0.9154436394113664 -0.20904346511136138 -0.34389500251604005
vn -0.9154436394113664 0.20904346511136138 0.34389500251604005
vn 0.997667452688717 -0.0005918466387833637 -0.06825909143229698
vn -0.997667452688717 0.0005918466387833637 0.06825909143229698
vn 0.9507969887767732 0.1857996243751219 0.24791850619726724
vn -0.9507969887767732 -0.1857996243751219 -0.24791850619726724
vn 0.7734635683143178 0.3463522028998609 0.5308429711665175
vn -0.7734635683143178 -0.3463522028998609 -0.5308429711665175
vn 0.5021851760182822 0.4850509537619224 0.7159159316862116
vn -0.5021851760182822 -0.4850509537619224 -0.7159159316862116
vn 0.2001255322657751 0.6098631603085155 0.7668224677419477
vn -0.2001255322657751 -0.6098631603085155 -0.7668224677419477
vn -0.18519125752911253 0.689546031202561 0.7001646013528411
vn -0.061954929882846864 0.7271607590863524 0.6836657202962362
vn 0.061954929882846864 -0.7271607590863524 -0.6836657202962362
vn 0.18519125752911253 -0.689546031202561 -0.7001646013528411
vn 0.10089925738658731 -0.8793753714392167 -0.46531526513211996
vn 0.24412241876133578 -0.9320775373067725 -0.26764848048561246
vn -0.24412241876133578 0.9320775373067725 0.26764848048561246
vn -0.10089925738658731 0.8793753714392167 0.46531526513211996
vn 0.33943014903975716 -0.9247366243408148 -0.17218986475865183
vn 0.34815721402111205 -0.9196500619196107 -0.1817424494616311
vn -0.34815721402111205 0.9196500619196107 0.1817424494616311
vn -0.33943014903975716 0.9247366243408148 0.17218986475865183
vn -0.14268132122910548 -0.8167753536116934 -0.55903493835789
vn 0.14268132122910548 0.8167753536116934 0.55903493835789
vn -0.42763269255083386 -0.7398580868368336 -0.5193652776263197
vn 0.42763269255083386 0.7398580868368336 0.5193652776263197
vn -0.6881464950091218 -0.6379679773566951 -0.3456172178495566
vn 0.6881464950091218 0.6379679773566951 0.3456172178495566
vn -0.8640100273679828 -0.4985483754201231 -0.07025802426437608
vn 0.8640100273679828 0.4985483754201231 0.07025802426437608
vn -0.9170856950594266 -0.31381652701465934 0.24591261718306753
vn 0.9170856950594266 0.31381652701465934 -0.24591261718306753
vn -0.8441540622889127 -0.08632410811625946 0.5291049682993527
vn 0.8441540622889127 0.08632410811625946 -0.5291049682993527
vn -0.6787168388334717 0.16918574298913286 0.714646511957565
vn 0.6787168388334717 -0.16918574298913286 -0.714646511957565
vn -0.4794069789632506 0.42810295459512776 0.766091906228131
vn 0.4794069789632506 -0.42810295459512776 -0.766091906228131
vn -0.3107164071162345 0.6606224281410122 0.6833983624401303
vn 0.3107164071162345 -0.6606224281410122 -0.6833983624401303
vn 0.18198331120786343 -0.9702326834326301 -0.15978302300601097
vn 0.1941197039556215 -0.9689824721561303 -0.15293956057990923
vn -0.1941197039556215 0.9689824721561303 0.15293956057990923
vn -0.18198331120786343 0.9702326834326301 0.15978302300601097
vn 0.29028000932659254 -0.8216049904715553 -0.4906146714251306
vn 0.25182474735172694 -0.9297137934025516 -0.26873138815232694
vn -0.29028000932659254 0.8216049904715553 0.4906146714251306
vn -0.25182474735172694 0.9297137934025516 0.26873138815232694
vn 0.4292891783175843 -0.64245975258719 -0.6347883644845894
vn -0.4292891783175843 0.64245975258719 0.6347883644845894
vn 0.6258529671738231 -0.4191614814349989 -0.6577322524864799
vn -0.6258529671738231 0.4191614814349989 0.6577322524864799
vn 0.8207299293010113 -0.17913768559105944 -0.5425053665639039
vn -0.8207299293010113 0.17913768559105944 0.5425053665639039
vn 0.9504979387275974 0.052845399152753096 -0.30620423292791826
vn -0.9504979387275974 -0.052845399152753096 0.30620423292791826
vn 0.9660391772141398 0.25839356065333724 0.0010372561486854046
vn -0.9660391772141398 -0.25839356065333724 -0.0010372561486854046
vn 0.8493401212465572 0.428570706849645 0.3081371572389135
vn -0.8493401212465572 -0.428570706849645 -0.3081371572389135
vn 0.6206118952067193 0.5646646488633618 0.5440539585849368
vn -0.6206118952067193 -0.5646646488633618 -0.5440539585849368
vn 0.33169746310326287 0.6752853385521485 0.6587613410844397
vn -0.33169746310326287 -0.6752853385521485 -0.6587613410844397
vn 0.049949223405205724 0.7706456536027577 0.6353033540478088
vn -0.049949223405205724 -0.7706456536027577 -0.6353033540478088
vn -0.22436073053625405 0.8367942974230568 0.4994372497055975
vn -0.15964332649008448 0.856547452158255 0.4907550004924881
vn 0.15964332649008448 -0.856547452158255 -0.4907550004924881
vn 0.22436073053625405 -0.8367942974230568 -0.4994372497055975
vn 0.24648945539520037 -0.9311408648409231 -0.26873711727685745
vn -0.24648945539520037 0.9311408648409231 0.26873711727685745
vn 0.3158604944754675 -0.9364195668626705 -0.15280884407141515
vn 0.3270141332425665 -0.9314402192935238 -0.15962729886221
vn -0.3270141332425665 0.9314402192935238 0.15962729886221
vn -0.3158604944754675 0.9364195668626705 0.15280884407141515
vn -0.9660391772141111 -0.258393560653444 -0.0010372561486946383
vn 0.9660391772141111 0.258393560653444 0.0010372561486946383
vn 0.25583520509442714 -0.9558952040749361 -0.1442660967130836
vn -0.25583520509442714 0.9558952040749361 0.1442660967130836
vn 0.24913118556832248 -0.9303289155404431 -0.26911291549582933
vn 0.22436073053623823 -0.836794297423061 -0.4994372497055975
vn -0.24913118556832248 0.9303289155404431 0.26911291549582933
vn -0.22436073053623823 0.836794297423061 0.4994372497055975
vn 0.917085695059409 0.3138165270147252 -0.24591261718304924
vn -0.917085695059409 -0.3138165270147252 0.24591261718304924
vn 0.8640100273679797 0.49854837542013436 0.07025802426433238
vn -0.8640100273679797 -0.49854837542013436 -0.07025802426433238
vn -0.24913118556831498 0.930328915540445 0.26911291549582933
vn 0.24913118556831498 -0.930328915540445 -0.26911291549582933
vn -0.9507969887767841 -0.18579962437508074 -0.24791850619725578
vn 0.9507969887767841 0.18579962437508074 0.24791850619725578
vn -0.997667452688714 0.0005918466387720172 0.06825909143234064
vn 0.997667452688714 -0.0005918466387720172 -0.06825909143234064
vn 0.18519125752910795 -0.6895460312025621 -0.7001646013528411
vn -0.18519125752910795 0.6895460312025621 0.7001646013528411
vn 0.8067238130390904 0.34846380372006064 -0.4772522047854972
vn -0.8067238130390904 -0.34846380372006064 0.4772522047854972
vn 0.7011898397457225 0.7003300364472057 0.13368114559362468
vn -0.7011898397457225 -0.7003300364472057 -0.13368114559362468
vn -0.25583520509505925 0.955895204074767 0.1442660967130829
vn 0.25583520509505925 -0.955895204074767 -0.1442660967130829
vn -0.8720055737276352 -0.10055793197789537 -0.47905571878881364
vn 0.8720055737276352 0.10055793197789537 0.47905571878881364
vn -0.9574536635603126 0.2566803895663172 0.13190018857840777
vn 0.9574536635603126 -0.2566803895663172 -0.13190018857840777
vn 0.13329491038250332 -0.49488644906520135 -0.8586733193699198
vn -0.13329491038250332 0.49488644906520135 0.8586733193699198
vn 0.6412912133678839 0.35979492329761587 -0.6777117328380923
vn -0.6412912133678839 -0.35979492329761587 0.6777117328380923
vn 0.49286084224913596 0.8498500453306106 0.18666304034015854
vn -0.49286084224913596 -0.8498500453306106 -0.18666304034015854
vn -0.7339184185480276 -0.008041979615310679 -0.6791900186838947
vn 0.7339184185480276 0.008041979615310679 0.6791900186838947
vn -0.8516963799537697 0.4902112671694479 0.18521930221704316
vn 0.8516963799537697 -0.4902112671694479 -0.18521930221704316
vn 0.07130262377769386 -0.26270287200476705 -0.9622386070423821
vn -0.07130262377769386 0.26270287200476705 0.9622386070423821
vn 0.4309168098760313 0.3466040404561007 -0.8331724564012963
vn -0.4309168098760313 -0.3466040404561007 0.8331724564012963
vn 0.25616968803736995 0.9398071981719126 0.22614048995059646
vn -0.25616968803736995 -0.9398071981719126 -0.22614048995059646
vn -0.5447383537410636 0.08563892552864638 -0.8342218532247729
vn 0.5447383537410636 -0.08563892552864638 0.8342218532247729
vn -0.6916013578095218 0.6862997104927038 0.22512278705998762
vn 0.6916013578095218 -0.6862997104927038 -0.22512278705998762
vn 0.0031616729344154937 -0.007796584839182089 -0.9999646079182508
vn -0.0031616729344154937 0.007796584839182089 0.9999646079182508
vn 0.18950521239572515 0.3093509174422671 -0.9318743393572326
vn -0.18950521239572515 -0.3093509174422671 0.9318743393572326
vn 0.007210734448438032 0.9680976545258955 0.25046943248662884
vn -0.007210734448438032 -0.9680976545258955 -0.25046943248662884
vn -0.3167668386255686 0.1739349578929135 -0.9324191119716247
vn 0.3167668386255686 -0.1739349578929135 0.9324191119716247
vn -0.4900600978864525 0.8350888365256491 0.24993546280941858
vn 0.4900600978864525 -0.8350888365256491 -0.24993546280941858
vn -0.06593451072510097 0.25039208137881214 -0.9658967055944585
vn 0.06593451072510097 -0.25039208137881214 0.9658967055944585
vn -0.23995907040133382 0.9356168234526903 0.25892239031112235
vn 0.23995907040133382 -0.9356168234526903 -0.25892239031112235
vn -0.25969792960175003 0.9303371199700256 0.2589011946021933
vn 0.25969792960175003 -0.9303371199700256 -0.2589011946021933
vn -0.13024408326669878 0.4904031731839471 -0.8617083070883863
vn 0.13024408326669878 -0.4904031731839471 0.8617083070883863
vn -0.36828817924699314 0.8935486585041467 0.25677735864436096
vn -0.3682881792445667 0.893548658494932 0.25677735867990675
vn 0.36828817924699314 -0.8935486585041467 -0.25677735864436096
vn 0.3682881792445667 -0.893548658494932 -0.25677735867990675
vn -0.1274991960493263 0.9579543263360083 0.25703591900919226
vn -0.12749919604584356 0.9579543263227822 0.25703591906021234
vn 0.12749919604584356 -0.9579543263227822 -0.25703591906021234
vn 0.1274991960493263 -0.9579543263360083 -0.25703591900919226
vn -0.18457057676341868 0.6928478497840403 -0.6970620913827194
vn 0.18457057676341868 -0.6928478497840403 0.6970620913827194
vn -0.2251660838946879 0.8437752834378242 -0.4871791310421146
vn 0.2251660838946879 -0.8437752834378242 0.4871791310421146
vn -0.24999421093380655 0.9356409282578603 -0.24915647265995897
vn 0.24999421093380655 -0.9356409282578603 0.24915647265995897
vn -0.25839414823168616 0.9660391854031747 0.0008697270790610327
vn 0.25839414823168616 -0.9660391854031747 -0.0008697270790610327
vn -0.25052401884222736 0.935618322038489 0.24870880854730826
vn 0.25052401884222736 -0.935618322038489 -0.24870880854730826
vn -0.24042362529421601 0.8973683773122589 0.3700357763789194
vn 0.24042362529421601 -0.8973683773122589 -0.3700357763789194
usemtl material_0_0
f 1//1 2//2 3//3
f 2//2 1//1 4//4
f 5//5 6//6 7//7
f 8//8 7//7 6//6
f 9//9 2//2 10//10
f 2//2 9//9 3//3
f 8//8 11//11 7//7
f 12//12 7//7 11//11
f 1//1 3//3 13//13
f 14//14 8//8 6//6
f 15//15 4//4 1//1
f 4//4 15//15 16//16
f 17//17 18//18 5//5
f 6//6 5//5 18//18
f 4//4 19//19 2//2
f 19//19 4//4 20//20
f 21//21 5//5 22//22
f 7//7 22//22 5//5
f 23//23 10//10 24//24
f 10//10 23//23 9//9
f 11//11 25//25 12//12
f 26//26 12//12 25//25
f 13//13 3//3 9//9
f 11//11 8//8 14//14
f 10//10 19//19 27//27
f 19//19 10//10 2//2
f 7//7 12//12 22//22
f 28//28 22//22 12//12
f 29//29 13//13 30//30
f 13//13 29//29 15//15
f 13//13 15//15 1//1
f 6//6 18//18 14//14
f 18//18 31//31 14//14
f 32//32 14//14 31//31
f 33//33 16//16 15//15
f 16//16 33//33 34//34
f 35//35 36//36 17//17
f 18//18 17//17 36//36
f 16//16 20//20 4//4
f 20//20 16//16 37//37
f 38//38 17//17 21//21
f 5//5 21//21 17//17
f 19//19 39//39 40//40
f 39//39 19//19 20//20
f 21//21 22//22 41//41
f 42//42 41//41 22//22
f 43//43 24//24 44//44
f 24//24 43//43 23//23
f 25//25 45//45 26//26
f 46//46 26//26 45//45
f 47//47 9//9 23//23
f 9//9 47//47 13//13
f 13//13 47//47 48//48
f 49//49 50//50 14//14
f 14//14 50//50 11//11
f 25//25 11//11 50//50
f 24//24 27//27 51//51
f 27//27 24//24 10//10
f 12//12 26//26 28//28
f 52//52 28//28 26//26
f 27//27 40//40 53//53
f 40//40 27//27 19//19
f 22//22 28//28 42//42
f 54//54 42//42 28//28
f 55//55 30//30 56//56
f 30//30 55//55 29//29
f 29//29 55//55 33//33
f 29//29 33//33 15//15
f 18//18 36//36 31//31
f 36//36 57//57 31//31
f 31//31 57//57 32//32
f 58//58 32//32 57//57
f 59//59 34//34 33//33
f 34//34 59//59 60//60
f 61//61 62//62 35//35
f 36//36 35//35 62//62
f 34//34 37//37 16//16
f 37//37 34//34 63//63
f 64//64 35//35 38//38
f 17//17 38//38 35//35
f 37//37 39//39 20//20
f 39//39 37//37 65//65
f 66//66 38//38 41//41
f 21//21 41//41 38//38
f 67//67 40//40 39//39
f 40//40 67//67 68//68
f 69//69 70//70 42//42
f 41//41 42//42 70//70
f 71//71 44//44 72//72
f 44//44 71//71 43//43
f 45//45 73//73 46//46
f 74//74 46//46 73//73
f 75//75 23//23 43//43
f 23//23 75//75 47//47
f 47//47 75//75 76//76
f 47//47 76//76 48//48
f 49//49 77//77 50//50
f 77//77 78//78 50//50
f 50//50 78//78 25//25
f 45//45 25//25 78//78
f 44//44 51//51 79//79
f 51//51 44//44 24//24
f 26//26 46//46 52//52
f 80//80 52//52 46//46
f 51//51 53//53 81//81
f 53//53 51//51 27//27
f 28//28 52//52 54//54
f 82//82 54//54 52//52
f 68//68 53//53 40//40
f 53//53 68//68 83//83
f 84//84 69//69 54//54
f 42//42 54//54 69//69
f 85//85 56//56 86//86
f 56//56 85//85 55//55
f 55//55 85//85 33//33
f 33//33 85//85 59//59
f 62//62 87//87 36//36
f 36//36 87//87 57//57
f 57//57 87//87 58//58
f 88//88 58//58 87//87
f 89//89 60//60 59//59
f 60//60 89//89 90//90
f 91//91 92//92 61//61
f 62//62 61//61 92//92
f 60//60 63//63 34//34
f 63//63 60//60 93//93
f 94//94 61//61 64//64
f 35//35 64//64 61//61
f 63//63 65//65 37//37
f 65//65 63//63 95//95
f 96//96 64//64 66//66
f 38//38 66//66 64//64
f 97//97 39//39 65//65
f 39//39 97//97 67//67
f 70//70 98//98 41//41
f 66//66 41//41 98//98
f 99//99 68//68 67//67
f 68//68 99//99 100//100
f 101//101 102//102 69//69
f 70//70 69//69 102//102
f 103//103 72//72 104//104
f 72//72 103//103 71//71
f 73//73 105//105 74//74
f 106//106 74//74 105//105
f 107//107 43//43 71//71
f 43//43 107//107 75//75
f 75//75 107//107 76//76
f 76//76 107//107 108//108
f 109//109 110//110 77//77
f 77//77 110//110 78//78
f 78//78 110//110 45//45
f 73//73 45//45 110//110
f 72//72 79//79 111//111
f 79//79 72//72 44//44
f 46//46 74//74 80//80
f 112//112 80//80 74//74
f 79//79 81//81 113//113
f 81//81 79//79 51//51
f 52//52 80//80 82//82
f 114//114 82//82 80//80
f 53//53 115//115 81//81
f 115//115 53//53 83//83
f 84//84 54//54 116//116
f 82//82 116//116 54//54
f 68//68 117//117 83//83
f 117//117 68//68 100//100
f 101//101 69//69 118//118
f 84//84 118//118 69//69
f 119//119 86//86 120//120
f 86//86 119//119 85//85
f 85//85 119//119 59//59
f 59//59 119//119 89//89
f 92//92 121//121 62//62
f 62//62 121//121 87//87
f 87//87 121//121 88//88
f 122//122 88//88 121//121
f 123//123 90//90 89//89
f 90//90 123//123 124//124
f 125//125 126//126 91//91
f 92//92 91//91 126//126
f 90//90 93//93 60//60
f 93//93 90//90 127//127
f 128//128 91//91 94//94
f 61//61 94//94 91//91
f 93//93 95//95 63//63
f 95//95 93//93 129//129
f 130//130 94//94 96//96
f 64//64 96//96 94//94
f 131//131 65//65 95//95
f 65//65 131//131 97//97
f 98//98 132//132 66//66
f 96//96 66//66 132//132
f 133//133 67//67 97//97
f 67//67 133//133 99//99
f 102//102 134//134 70//70
f 98//98 70//70 134//134
f 135//135 100//100 99//99
f 100//100 135//135 136//136
f 137//137 138//138 101//101
f 102//102 101//101 138//138
f 139//139 104//104 140//140
f 104//104 139//139 103//103
f 105//105 141//141 106//106
f 142//142 106//106 141//141
f 143//143 71//71 103//103
f 71//71 143//143 107//107
f 107//107 143//143 108//108
f 108//108 143//143 144//144
f 145//145 146//146 109//109
f 109//109 146//146 110//110
f 110//110 146//146 73//73
f 105//105 73//73 146//146
f 104//104 111//111 147//147
f 111//111 104//104 72//72
f 74//74 106//106 112//112
f 148//148 112//112 106//106
f 111//111 113//113 149//149
f 113//113 111//111 79//79
f 80//80 112//112 114//114
f 150//150 114//114 112//112
f 81//81 151//151 113//113
f 151//151 81//81 115//115
f 116//116 82//82 152//152
f 114//114 152//152 82//82
f 83//83 153//153 115//115
f 153//153 83//83 117//117
f 118//118 84//84 154//154
f 116//116 154//154 84//84
f 136//136 117//117 100//100
f 117//117 136//136 155//155
f 156//156 137//137 118//118
f 101//101 118//118 137//137
f 157//157 120//120 158//158
f 120//120 157//157 119//119
f 119//119 157//157 123//123
f 119//119 123//123 89//89
f 92//92 126//126 121//121
f 126//126 159//159 121//121
f 121//121 159//159 122//122
f 160//160 122//122 159//159
f 161//161 123//123 162//162
f 123//123 161//161 124//124
f 125//125 163//163 126//126
f 164//164 126//126 163//163
f 124//124 127//127 90//90
f 127//127 124//124 165//165
f 166//166 125//125 128//128
f 91//91 128//128 125//125
f 127//127 129//129 93//93
f 129//129 127//127 167//167
f 168//168 128//128 130//130
f 94//94 130//130 128//128
f 95//95 169//169 131//131
f 169//169 95//95 129//129
f 130//130 96//96 170//170
f 132//132 170//170 96//96
f 131//131 133//133 97//97
f 133//133 131//131 171//171
f 172//172 132//132 134//134
f 98//98 134//134 132//132
f 133//133 135//135 99//99
f 135//135 133//133 173//173
f 174//174 134//134 138//138
f 102//102 138//138 134//134
f 175//175 136//136 135//135
f 136//136 175//175 176//176
f 177//177 178//178 137//137
f 138//138 137//137 178//178
f 179//179 139//139 140//140
f 139//139 179//179 180//180
f 181//181 182//182 141//141
f 142//142 141//141 182//182
f 183//183 103//103 139//139
f 103//103 183//183 143//143
f 143//143 183//183 184//184
f 143//143 184//184 144//144
f 145//145 185//185 146//146
f 185//185 186//186 146//146
f 146//146 186//186 105//105
f 141//141 105//105 186//186
f 140//140 147//147 187//187
f 147//147 140//140 104//104
f 106//106 142//142 148//148
f 188//188 148//148 142//142
f 147//147 149//149 189//189
f 149//149 147//147 111//111
f 112//112 148//148 150//150
f 190//190 150//150 148//148
f 191//191 113//113 151//151
f 113//113 191//191 149//149
f 150//150 192//192 114//114
f 152//152 114//114 192//192
f 153//153 151//151 115//115
f 151//151 153//153 193//193
f 194//194 154//154 152//152
f 116//116 152//152 154//154
f 155//155 153//153 117//117
f 153//153 155//155 195//195
f 196//196 156//156 154//154
f 118//118 154//154 156//156
f 176//176 155//155 136//136
f 155//155 176//176 197//197
f 198//198 177//177 156//156
f 137//137 156//156 177//177
f 199//199 157//157 158//158
f 157//157 199//199 200//200
f 157//157 200//200 123//123
f 123//123 200//200 162//162
f 164//164 201//201 126//126
f 126//126 201//201 159//159
f 201//201 202//202 159//159
f 160//160 159//159 202//202
f 203//203 162//162 204//204
f 162//162 203//203 161//161
f 163//163 205//205 164//164
f 206//206 164//164 205//205
f 207//207 124//124 161//161
f 124//124 207//207 165//165
f 166//166 208//208 125//125
f 163//163 125//125 208//208
f 165//165 167//167 127//127
f 167//167 165//165 209//209
f 210//210 166//166 168//168
f 128//128 168//168 166//166
f 129//129 211//211 169//169
f 211//211 129//129 167//167
f 168//168 130//130 212//212
f 170//170 212//212 130//130
f 131//131 213//213 171//171
f 213//213 131//131 169//169
f 170//170 132//132 214//214
f 172//172 214//214 132//132
f 215//215 133//133 171//171
f 133//133 215//215 173//173
f 174//174 216//216 134//134
f 172//172 134//134 216//216
f 173//173 175//175 135//135
f 175//175 173//173 217//217
f 218//218 174//174 178//178
f 138//138 178//178 174//174
f 219//219 176//176 175//175
f 176//176 219//219 220//220
f 221//221 222//222 177//177
f 178//178 177//177 222//222
f 223//223 180//180 179//179
f 180//180 223//223 224//224
f 225//225 226//226 181//181
f 182//182 181//181 226//226
f 180//180 183//183 139//139
f 183//183 180//180 227//227
f 183//183 227//227 184//184
f 184//184 227//227 228//228
f 229//229 230//230 185//185
f 185//185 230//230 186//186
f 230//230 181//181 186//186
f 141//141 186//186 181//181
f 231//231 140//140 187//187
f 140//140 231//231 179//179
f 182//182 232//232 142//142
f 188//188 142//142 232//232
f 187//187 189//189 233//233
f 189//189 187//187 147//147
f 148//148 188//188 190//190
f 234//234 190//190 188//188
f 235//235 149//149 191//191
f 149//149 235//235 189//189
f 190//190 236//236 150//150
f 192//192 150//150 236//236
f 237//237 151//151 193//193
f 151//151 237//237 191//191
f 192//192 238//238 152//152
f 194//194 152//152 238//238
f 153//153 239//239 193//193
f 239//239 153//153 195//195
f 196//196 154//154 240//240
f 194//194 240//240 154//154
f 197//197 195//195 155//155
f 195//195 197//197 241//241
f 242//242 198//198 196//196
f 156//156 196//196 198//198
f 176//176 243//243 197//197
f 243//243 176//176 220//220
f 221//221 177//177 244//244
f 198//198 244//244 177//177
f 245//245 200//200 199//199
f 200//200 245//245 246//246
f 200//200 246//246 204//204
f 200//200 204//204 162//162
f 164//164 206//206 201//201
f 206//206 247//247 201//201
f 247//247 248//248 201//201
f 202//202 201//201 248//248
f 249//249 204//204 250//250
f 204//204 249//249 203//203
f 205//205 251//251 206//206
f 252//252 206//206 251//251
f 253//253 161//161 203//203
f 161//161 253//253 207//207
f 208//208 254//254 163//163
f 205//205 163//163 254//254
f 255//255 165//165 207//207
f 165//165 255//255 209//209
f 210//210 256//256 166//166
f 208//208 166//166 256//256
f 167//167 257//257 211//211
f 257//257 167//167 209//209
f 210//210 168//168 258//258
f 212//212 258//258 168//168
f 169//169 259//259 213//213
f 259//259 169//169 211//211
f 212//212 170//170 260//260
f 214//214 260//260 170//170
f 171//171 261//261 215//215
f 261//261 171//171 213//213
f 214//214 172//172 262//262
f 216//216 262//262 172//172
f 215//215 217//217 173//173
f 217//217 215//215 263//263
f 264//264 216//216 218//218
f 174//174 218//218 216//216
f 265//265 175//175 217//217
f 175//175 265//265 219//219
f 222//222 266//266 178//178
f 218//218 178//178 266//266
f 267//267 220//220 219//219
f 220//220 267//267 268//268
f 269//269 270//270 221//221
f 222//222 221//221 270//270
f 271//271 224//224 223//223
f 224//224 271//271 272//272
f 273//273 274//274 225//225
f 226//226 225//225 274//274
f 224//224 227//227 180//180
f 227//227 224//224 275//275
f 227//227 275//275 276//276
f 227//227 276//276 228//228
f 229//229 277//277 230//230
f 277//277 278//278 230//230
f 278//278 225//225 230//230
f 181//181 230//230 225//225
f 279//279 179//179 231//231
f 179//179 279//279 223//223
f 226//226 280//280 182//182
f 232//232 182//182 280//280
f 281//281 187//187 233//233
f 187//187 281//281 231//231
f 232//232 282//282 188//188
f 234//234 188//188 282//282
f 283//283 189//189 235//235
f 189//189 283//283 233//233
f 234//234 284//284 190//190
f 236//236 190//190 284//284
f 285//285 191//191 237//237
f 191//191 285//285 235//235
f 236//236 286//286 192//192
f 238//238 192//192 286//286
f 287//287 193//193 239//239
f 193//193 287//287 237//237
f 238//238 288//288 194//194
f 240//240 194//194 288//288
f 241//241 239//239 195//195
f 239//239 241//241 289//289
f 290//290 242//242 240//240
f 196//196 240//240 242//242
f 243//243 241//241 197//197
f 241//241 243//243 291//291
f 292//292 244//244 242//242
f 198//198 242//242 244//244
f 268//268 243//243 220//220
f 243//243 268//268 293//293
f 294//294 269//269 244//244
f 221//221 244//244 269//269
f 295//295 246//246 245//245
f 246//246 295//295 296//296
f 246//246 296//296 250//250
f 246//246 250//250 204//204
f 206//206 252//252 247//247
f 252//252 297//297 247//247
f 297//297 298//298 247//247
f 248//248 247//247 298//298
f 299//299 250//250 300//300
f 250//250 299//299 249//249
f 251//251 301//301 252//252
f 302//302 252//252 301//301
f 303//303 203//203 249//249
f 203//203 303//303 253//253
f 254//254 304//304 205//205
f 251//251 205//205 304//304
f 305//305 207//207 253//253
f 207//207 305//305 255//255
f 256//256 306//306 208//208
f 254//254 208//208 306//306
f 255//255 257//257 209//209
f 257//257 255//255 307//307
f 308//308 256//256 258//258
f 210//210 258//258 256//256
f 211//211 309//309 259//259
f 309//309 211//211 257//257
f 258//258 212//212 310//310
f 260//260 310//310 212//212
f 213//213 311//311 261//261
f 311//311 213//213 259//259
f 260//260 214//214 312//312
f 262//262 312//312 214//214
f 261//261 263//263 215//215
f 263//263 261//261 313//313
f 314//314 262//262 264//264
f 216//216 264//264 262//262
f 263//263 265//265 217//217
f 265//265 263//263 315//315
f 316//316 264//264 266//266
f 218//218 266//266 264//264
f 317//317 219//219 265//265
f 219//219 317//317 267//267
f 270//270 318//318 222//222
f 266//266 222//222 318//318
f 267//267 319//319 268//268
f 319//319 267//267 320//320
f 321//321 270//270 322//322
f 269//269 322//322 270//270
f 323//323 272//272 271//271
f 272//272 323//323 324//324
f 325//325 326//326 273//273
f 274//274 273//273 326//326
f 272//272 275//275 224//224
f 275//275 272//272 327//327
f 275//275 327//327 328//328
f 275//275 328//328 276//276
f 277//277 329//329 278//278
f 329//329 330//330 278//278
f 330//330 273//273 278//278
f 225//225 278//278 273//273
f 331//331 223//223 279//279
f 223//223 331//331 271//271
f 274//274 332//332 226//226
f 280//280 226//226 332//332
f 333//333 231//231 281//281
f 231//231 333//333 279//279
f 280//280 334//334 232//232
f 282//282 232//232 334//334
f 335//335 233//233 283//283
f 233//233 335//335 281//281
f 282//282 336//336 234//234
f 284//284 234//234 336//336
f 337//337 235//235 285//285
f 235//235 337//337 283//283
f 284//284 338//338 236//236
f 286//286 236//236 338//338
f 339//339 237//237 287//287
f 237//237 339//339 285//285
f 286//286 340//340 238//238
f 288//288 238//238 340//340
f 289//289 287//287 239//239
f 287//287 289//289 341//341
f 342//342 290//290 288//288
f 240//240 288//288 290//290
f 291//291 289//289 241//241
f 289//289 291//291 343//343
f 344//344 292//292 290//290
f 242//242 290//290 292//292
f 293//293 291//291 243//243
f 291//291 293//293 345//345
f 346//346 294//294 292//292
f 244//244 292//292 294//294
f 268//268 347//347 293//293
f 347//347 268//268 319//319
f 322//322 269//269 348//348
f 294//294 348//348 269//269
f 349//349 296//296 295//295
f 296//296 349//349 350//350
f 296//296 350//350 250//250
f 250//250 350//350 300//300
f 302//302 351//351 252//252
f 252//252 351//351 297//297
f 351//351 352//352 297//297
f 298//298 297//297 352//352
f 353//353 300//300 354//354
f 300//300 353//353 299//299
f 301//301 355//355 302//302
f 356//356 302//302 355//355
f 357//357 249//249 299//299
f 249//249 357//357 303//303
f 304//304 358//358 251//251
f 301//301 251//251 358//358
f 359//359 253//253 303//303
f 253//253 359//359 305//305
f 306//306 360//360 254//254
f 304//304 254//254 360//360
f 305//305 307//307 255//255
f 307//307 305//305 361//361
f 362//362 306//306 308//308
f 256//256 308//308 306//306
f 257//257 363//363 309//309
f 363//363 257//257 307//307
f 308//308 258//258 364//364
f 310//310 364//364 258//258
f 259//259 365//365 311//311
f 365//365 259//259 309//309
f 310//310 260//260 366//366
f 312//312 366//366 260//260
f 311//311 313//313 261//261
f 313//313 311//311 367//367
f 368//368 312//312 314//314
f 262//262 314//314 312//312
f 313//313 315//315 263//263
f 315//315 313//313 369//369
f 370//370 314//314 316//316
f 264//264 316//316 314//314
f 371//371 265//265 315//315
f 265//265 371//371 317//317
f 318//318 372//372 266//266
f 316//316 266//266 372//372
f 267//267 373//373 320//320
f 373//373 267//267 317//317
f 318//318 270//270 374//374
f 321//321 374//374 270//270
f 320//320 375//375 319//319
f 375//375 320//320 376//376
f 377//377 321//321 378//378
f 322//322 378//378 321//321
f 379//377 324//324 323//323
f 324//324 379//377 380//379
f 381//380 382//376 325//325
f 326//326 325//325 382//376
f 324//324 327//327 272//272
f 327//327 324//324 383//381
f 327//327 383//381 384//382
f 327//327 384//382 328//328
f 329//329 385//383 330//330
f 385//383 386//384 330//330
f 386//384 325//325 330//330
f 273//273 330//330 325//325
f 387//374 271//271 331//331
f 271//271 387//374 323//323
f 326//326 388//373 274//274
f 332//332 274//274 388//373
f 389//372 279//279 333//333
f 279//279 389//372 331//331
f 332//332 390//371 280//280
f 334//334 280//280 390//371
f 335//335 333//333 281//281
f 333//333 335//335 391//370
f 392//369 336//336 334//334
f 282//282 334//334 336//336
f 393//368 283//283 337//337
f 283//283 393//368 335//335
f 336//336 394//367 284//284
f 338//338 284//284 394//367
f 395//385 285//285 339//339
f 285//285 395//385 337//337
f 338//338 396//386 286//286
f 340//340 286//286 396//386
f 341//341 339//339 287//287
f 339//339 341//341 397//364
f 398//363 342//342 340//340
f 288//288 340//340 342//342
f 343//343 341//341 289//289
f 341//341 343//343 399//362
f 400//361 344//344 342//342
f 290//290 342//342 344//344
f 345//345 343//343 291//291
f 343//343 345//345 401//360
f 402//359 346//346 344//344
f 292//292 344//344 346//346
f 293//293 403//358 345//345
f 403//358 293//293 347//347
f 348//348 294//294 404//357
f 346//346 404//357 294//294
f 319//319 405//355 347//347
f 405//355 319//319 375//375
f 378//378 322//322 406//353
f 348//348 406//353 322//322
f 407//387 350//350 349//349
f 350//350 407//387 300//300
f 300//300 407//387 354//354
f 356//356 408//388 302//302
f 302//302 408//388 351//351
f 352//352 351//351 408//388
f 353//353 409//389 410//390
f 409//389 353//353 354//354
f 356//356 355//355 411//391
f 412//392 411//391 355//355
f 413//348 299//299 353//353
f 299//299 413//348 357//357
f 358//358 414//347 301//301
f 355//355 301//301 414//347
f 415//346 303//303 357//357
f 303//303 415//346 359//359
f 360//360 416//345 304//304
f 358//358 304//304 416//345
f 359//359 361//361 305//305
f 361//361 359//359 417//344
f 418//343 360//360 362//362
f 306//306 362//362 360//360
f 361//361 363//363 307//307
f 363//363 361//361 419//342
f 420//341 362//362 364//364
f 308//308 364//364 362//362
f 363//363 365//365 309//309
f 365//365 363//363 421//393
f 422//394 364//364 366//366
f 310//310 366//366 364//364
f 365//365 367//367 311//311
f 367//367 365//365 423//395
f 424//396 366//366 368//368
f 312//312 368//368 366//366
f 367//367 369//369 313//313
f 369//369 367//367 425//336
f 426//335 368//368 370//370
f 314//314 370//370 368//368
f 369//369 371//371 315//315
f 371//371 369//369 427//334
f 428//333 370//370 372//372
f 316//316 372//372 370//370
f 317//317 429//332 373//373
f 429//332 317//317 371//371
f 372//372 318//318 430//331
f 374//374 430//331 318//318
f 320//320 431//326 376//376
f 431//326 320//320 373//373
f 374//374 321//321 432//323
f 377//377 432//323 321//321
f 375//375 433//380 434//397
f 433//380 375//375 376//376
f 377//377 378//378 435//379
f 436//398 435//379 378//378
f 410//390 380//379 379//377
f 380//379 410//390 409//389
f 411//391 412//392 381//380
f 382//376 381//380 412//392
f 380//379 383//381 324//324
f 383//381 380//379 407//387
f 383//381 407//387 384//382
f 385//383 408//388 386//384
f 408//388 381//380 386//384
f 325//325 386//384 381//380
f 437//321 323//323 387//374
f 323//323 437//321 379//377
f 382//376 438//320 326//326
f 388//373 326//326 438//320
f 439//318 331//331 389//372
f 331//331 439//318 387//374
f 388//373 440//317 332//332
f 390//371 332//332 440//317
f 391//370 389//372 333//333
f 389//372 391//370 441//316
f 442//315 392//369 390//371
f 334//334 390//371 392//369
f 393//368 391//370 335//335
f 391//370 393//368 443//314
f 444//313 394//367 392//369
f 336//336 392//369 394//367
f 445//399 337//337 395//385
f 337//337 445//399 393//368
f 394//367 446//400 338//338
f 396//386 338//338 446//400
f 397//364 395//385 339//339
f 395//385 397//364 447//401
f 448//402 398//363 396//386
f 340//340 396//386 398//363
f 399//362 397//364 341//341
f 397//364 399//362 449//308
f 450//307 400//361 398//363
f 342//342 398//363 400//361
f 401//360 399//362 343//343
f 399//362 401//360 451//306
f 452//305 402//359 400//361
f 344//344 400//361 402//359
f 345//345 453//304 401//360
f 453//304 345//345 403//358
f 404//357 346//346 454//303
f 402//359 454//303 346//346
f 347//347 455//301 403//358
f 455//301 347//347 405//355
f 406//353 348//348 456//299
f 404//357 456//299 348//348
f 375//375 457//356 405//355
f 457//356 375//375 434//397
f 436//398 378//378 458//354
f 406//353 458//354 378//378
f 354//354 407//387 409//389
f 411//391 408//388 356//356
f 413//348 410//390 459//403
f 410//390 413//348 353//353
f 355//355 414//347 412//392
f 460//404 412//392 414//347
f 461//294 357//357 413//348
f 357//357 461//294 415//346
f 416//345 462//293 358//358
f 414//347 358//358 462//293
f 463//292 359//359 415//346
f 359//359 463//292 417//344
f 418//343 464//291 360//360
f 416//345 360//360 464//291
f 417//344 419//342 361//361
f 419//342 417//344 465//290
f 466//289 418//343 420//341
f 362//362 420//341 418//343
f 419//342 421//393 363//363
f 421//393 419//342 467//405
f 468//406 420//341 422//394
f 364//364 422//394 420//341
f 421//393 423//395 365//365
f 423//395 421//393 469//286
f 470//285 422//394 424//396
f 366//366 424//396 422//394
f 423//395 425//336 367//367
f 425//336 423//395 471//407
f 472//408 424//396 426//335
f 368//368 426//335 424//396
f 425//336 427//334 369//369
f 427//334 425//336 473//282
f 474//281 426//335 428//333
f 370//370 428//333 426//335
f 371//371 475//280 429//332
f 475//280 371//371 427//334
f 428//333 372//372 476//279
f 430//331 476//279 372//372
f 373//373 477//274 431//326
f 477//274 373//373 429//332
f 430//331 374//374 478//271
f 432//323 478//271 374//374
f 376//376 479//325 433//380
f 479//325 376//376 431//326
f 432//323 377//377 480//324
f 435//379 480//324 377//377
f 433//380 481//409 434//397
f 436//398 482//410 435//379
f 407//387 380//379 409//389
f 411//391 381//380 408//388
f 459//403 379//377 437//321
f 379//377 459//403 410//390
f 412//392 460//404 382//376
f 438//320 382//376 460//404
f 483//270 387//374 439//318
f 387//374 483//270 437//321
f 438//320 484//267 388//373
f 440//317 388//373 484//267
f 441//316 439//318 389//372
f 439//318 441//316 485//266
f 486//265 442//315 440//317
f 390//371 440//317 442//315
f 443//314 441//316 391//370
f 441//316 443//314 487//264
f 488//263 444//313 442//315
f 392//369 442//315 444//313
f 445//399 443//314 393//368
f 443//314 445//399 489//411
f 490//412 446//400 444//313
f 394//367 444//313 446//400
f 491//260 395//385 447//401
f 395//385 491//260 445//399
f 446//400 492//259 396//386
f 448//402 396//386 492//259
f 449//308 447//401 397//364
f 447//401 449//308 493//413
f 494//414 450//307 448//402
f 398//363 448//402 450//307
f 451//306 449//308 399//362
f 449//308 451//306 495//256
f 496//255 452//305 450//307
f 400//361 450//307 452//305
f 401//360 497//254 451//306
f 497//254 401//360 453//304
f 454//303 402//359 498//253
f 452//305 498//253 402//359
f 403//358 499//251 453//304
f 499//251 403//358 455//301
f 456//299 404//357 500//249
f 454//303 500//249 404//357
f 405//355 501//302 455//301
f 501//302 405//355 457//356
f 458//354 406//353 502//300
f 456//299 502//300 406//353
f 434//397 481//409 457//356
f 458//354 482//410 436//398
f 503//415 413//348 459//403
f 413//348 503//415 461//294
f 462//293 504//416 414//347
f 460//404 414//347 504//416
f 505//244 415//346 461//294
f 415//346 505//244 463//292
f 464//291 506//243 416//345
f 462//293 416//345 506//243
f 463//292 465//290 417//344
f 465//290 463//292 507//242
f 508//241 464//291 466//289
f 418//343 466//289 464//291
f 465//290 467//405 419//342
f 467//405 465//290 509//417
f 510//418 466//289 468//406
f 420//341 468//406 466//289
f 421//393 511//238 469//286
f 511//238 421//393 467//405
f 468//406 422//394 512//237
f 470//285 512//237 422//394
f 469//286 471//407 423//395
f 471//407 469//286 513//236
f 514//235 470//285 472//408
f 424//396 472//408 470//285
f 471//407 473//282 425//336
f 473//282 471//407 515//419
f 516//420 472//408 474//281
f 426//335 474//281 472//408
f 427//334 517//232 475//280
f 517//232 427//334 473//282
f 474//281 428//333 518//231
f 476//279 518//231 428//333
f 429//332 519//226 477//274
f 519//226 429//332 475//280
f 476//279 430//331 520//223
f 478//271 520//223 430//331
f 431//326 521//273 479//325
f 521//273 431//326 477//274
f 478//271 432//323 522//272
f 480//324 522//272 432//323
f 481//409 523//384 524//383
f 523//384 481//409 433//380
f 523//384 433//380 479//325
f 480//324 435//379 525//381
f 435//379 482//410 525//381
f 526//382 525//381 482//410
f 503//415 437//321 483//270
f 437//321 503//415 459//403
f 460//404 504//416 438//320
f 484//267 438//320 504//416
f 439//318 527//222 483//270
f 527//222 439//318 485//266
f 486//265 440//317 528//219
f 484//267 528//219 440//317
f 487//264 485//266 441//316
f 485//266 487//264 529//218
f 530//217 488//263 486//265
f 442//315 486//265 488//263
f 489//411 487//264 443//314
f 487//264 489//411 531//421
f 532//422 490//412 488//263
f 444//313 488//263 490//412
f 533//214 445//399 491//260
f 445//399 533//214 489//411
f 490//412 534//213 446//400
f 492//259 446//400 534//213
f 493//413 491//260 447//401
f 491//260 493//413 535//212
f 536//211 494//414 492//259
f 448//402 492//259 494//414
f 495//256 493//413 449//308
f 493//413 495//256 537//423
f 538//424 496//255 494//414
f 450//307 494//414 496//255
f 451//306 539//208 495//256
f 539//208 451//306 497//254
f 498//253 452//305 540//207
f 496//255 540//207 452//305
f 453//304 541//205 497//254
f 541//205 453//304 499//251
f 500//249 454//303 542//203
f 498//253 542//203 454//303
f 455//301 543//252 499//251
f 543//252 455//301 501//302
f 502//300 456//299 544//250
f 500//249 544//250 456//299
f 457//356 545//351 501//302
f 545//351 457//356 481//409
f 545//351 481//409 546//352
f 547//349 482//410 548//350
f 482//410 458//354 548//350
f 502//300 548//350 458//354
f 503//415 505//244 461//294
f 505//244 503//415 549//425
f 550//426 504//416 506//243
f 462//293 506//243 504//416
f 551//198 463//292 505//244
f 463//292 551//198 507//242
f 508//241 552//197 464//291
f 506//243 464//291 552//197
f 507//242 509//417 465//290
f 509//417 507//242 553//427
f 554//428 508//241 510//418
f 466//289 510//418 508//241
f 467//405 555//194 511//238
f 555//194 467//405 509//417
f 510//418 468//406 556//193
f 512//237 556//193 468//406
f 469//286 557//192 513//236
f 557//192 469//286 511//238
f 512//237 470//285 558//191
f 514//235 558//191 470//285
f 471//407 559//190 515//419
f 559//190 471//407 513//236
f 514//235 472//408 560//189
f 516//420 560//189 472//408
f 473//282 561//429 517//232
f 561//429 473//282 515//419
f 516//420 474//281 562//430
f 518//231 562//430 474//281
f 475//280 563//182 519//226
f 563//182 475//280 517//232
f 518//231 476//279 564//179
f 520//223 564//179 476//279
f 477//274 565//225 521//273
f 565//225 477//274 519//226
f 520//223 478//271 566//224
f 522//272 566//224 478//271
f 524//383 567//330 568//329
f 567//330 524//383 523//384
f 567//330 523//384 479//325
f 567//330 479//325 521//273
f 522//272 480//324 569//327
f 480//324 525//381 569//327
f 525//381 526//382 569//327
f 570//328 569//327 526//382
f 527//222 503//415 483//270
f 503//415 527//222 549//425
f 550//426 528//219 504//416
f 484//267 504//416 528//219
f 529//218 527//222 485//266
f 527//222 529//218 571//178
f 572//175 530//217 528//219
f 486//265 528//219 530//217
f 531//421 529//218 487//264
f 529//218 531//421 573//431
f 574//432 532//422 530//217
f 488//263 530//217 532//422
f 575//172 489//411 533//214
f 489//411 575//172 531//421
f 532//422 576//171 490//412
f 534//213 490//412 576//171
f 577//170 491//260 535//212
f 491//260 577//170 533//214
f 534//213 578//169 492//259
f 536//211 492//259 578//169
f 579//168 493//413 537//423
f 493//413 579//168 535//212
f 536//211 580//167 494//414
f 538//424 494//414 580//167
f 495//256 581//433 537//423
f 581//433 495//256 539//208
f 540//207 496//255 582//434
f 538//424 582//434 496//255
f 497//254 583//163 539//208
f 583//163 497//254 541//205
f 542//203 498//253 584//161
f 540//207 584//161 498//253
f 499//251 585//206 541//205
f 585//206 499//251 543//252
f 544//250 500//249 586//204
f 542//203 586//204 500//249
f 501//302 587//297 543//252
f 587//297 501//302 545//351
f 587//297 545//351 546//352
f 587//297 546//352 588//298
f 589//295 547//349 590//296
f 547//349 548//350 590//296
f 548//350 502//300 590//296
f 544//250 590//296 502//300
f 591//435 505//244 549//425
f 505//244 591//435 551//198
f 552//197 592//436 506//243
f 550//426 506//243 592//436
f 593//437 507//242 551//198
f 507//242 593//437 553//427
f 554//428 594//438 508//241
f 552//197 508//241 594//438
f 595//154 509//417 553//427
f 509//417 595//154 555//194
f 556//193 596//153 510//418
f 554//428 510//418 596//153
f 511//238 597//152 557//192
f 597//152 511//238 555//194
f 556//193 512//237 598//151
f 558//191 598//151 512//237
f 513//236 599//150 559//190
f 599//150 513//236 557//192
f 558//191 514//235 600//149
f 560//189 600//149 514//235
f 561//429 559//190 601//148
f 559//190 561//429 515//419
f 516//420 562//430 560//189
f 602//147 560//189 562//430
f 517//232 603//439 563//182
f 603//439 517//232 561//429
f 562//430 518//231 604//440
f 564//179 604//440 518//231
f 519//226 605//181 565//225
f 605//181 519//226 563//182
f 564//179 520//223 606//180
f 566//224 606//180 520//223
f 568//329 607//278 608//277
f 607//278 568//329 567//330
f 607//278 567//330 521//273
f 607//278 521//273 565//225
f 566//224 522//272 609//275
f 522//272 569//327 609//275
f 569//327 570//328 609//275
f 610//276 609//275 570//328
f 527//222 591//435 549//425
f 591//435 527//222 571//178
f 572//175 528//219 592//436
f 550//426 592//436 528//219
f 573//431 571//178 529//218
f 571//178 573//431 611//441
f 612//442 574//432 572//175
f 530//217 572//175 574//432
f 575//172 573//431 531//421
f 573//431 575//172 613//134
f 614//133 576//171 574//432
f 532//422 574//432 576//171
f 615//132 533//214 577//170
f 533//214 615//132 575//172
f 576//171 616//131 534//213
f 578//169 534//213 616//131
f 617//130 535//212 579//168
f 535//212 617//130 577//170
f 578//169 618//129 536//211
f 580//167 536//211 618//129
f 581//433 579//168 537//423
f 579//168 581//433 619//128
f 620//127 582//434 580//167
f 538//424 580//167 582//434
f 539//208 621//443 581//433
f 621//443 539//208 583//163
f 584//161 540//207 622//444
f 582//434 622//444 540//207
f 541//205 623//164 583//163
f 623//164 541//205 585//206
f 586//204 542//203 624//162
f 584//161 624//162 542//203
f 543//252 625//247 585//206
f 625//247 543//252 587//297
f 625//247 587//297 588//298
f 625//247 588//298 626//248
f 627//245 589//295 628//246
f 589//295 590//296 628//246
f 590//296 544//250 628//246
f 586//204 628//246 544//250
f 629//445 551//198 591//435
f 551//198 629//445 593//437
f 594//438 630//446 552//197
f 592//436 552//197 630//446
f 593//437 595//154 553//427
f 595//154 593//437 631//118
f 632//117 594//438 596//153
f 554//428 596//153 594//438
f 595//154 597//152 555//194
f 597//152 595//154 633//116
f 634//115 596//153 598//151
f 556//193 598//151 596//153
f 557//192 635//114 599//150
f 635//114 557//192 597//152
f 598//151 558//191 636//113
f 600//149 636//113 558//191
f 601//148 599//150 637//112
f 599//150 601//148 559//190
f 560//189 602//147 600//149
f 638//111 600//149 602//147
f 603//439 601//148 639//106
f 601//148 603//439 561//429
f 562//430 604//440 602//147
f 640//104 602//147 604//440
f 563//182 641//447 605//181
f 641//447 563//182 603//439
f 604//440 564//179 642//448
f 606//180 642//448 564//179
f 608//277 643//230 644//229
f 643//230 608//277 607//278
f 643//230 607//278 565//225
f 643//230 565//225 605//181
f 606//180 566//224 645//227
f 566//224 609//275 645//227
f 609//275 610//276 645//227
f 646//228 645//227 610//276
f 571//178 629//445 591//435
f 629//445 571//178 611//441
f 612//442 572//175 630//446
f 592//436 630//446 572//175
f 573//431 647//102 611//441
f 647//102 573//431 613//134
f 614//133 574//432 648//99
f 612//442 648//99 574//432
f 615//132 613//134 575//172
f 613//134 615//132 649//98
f 650//97 616//131 614//133
f 576//171 614//133 616//131
f 651//96 577//170 617//130
f 577//170 651//96 615//132
f 616//131 652//95 578//169
f 618//129 578//169 652//95
f 619//128 617//130 579//168
f 617//130 619//128 653//94
f 654//93 620//127 618//129
f 580//167 618//129 620//127
f 621//443 619//128 581//433
f 619//128 621//443 655//91
f 656//90 622//444 620//127
f 582//434 620//127 622//444
f 583//163 657//449 621//443
f 657//449 583//163 623//164
f 624//162 584//161 658//450
f 622//444 658//450 584//161
f 585//206 659//201 623//164
f 659//201 585//206 625//247
f 659//201 625//247 626//248
f 659//201 626//248 660//202
f 661//199 627//245 662//200
f 627//245 628//246 662//200
f 628//246 586//204 662//200
f 624//162 662//200 586//204
f 663//451 593//437 629//445
f 593//437 663//451 631//118
f 632//117 664//452 594//438
f 630//446 594//438 664//452
f 665//84 595//154 631//118
f 595//154 665//84 633//116
f 634//115 666//83 596//153
f 632//117 596//153 666//83
f 633//116 635//114 597//152
f 635//114 633//116 667//82
f 668//81 634//115 636//113
f 598//151 636//113 634//115
f 637//112 635//114 669//80
f 635//114 637//112 599//150
f 600//149 638//111 636//113
f 670//79 636//113 638//111
f 639//106 637//112 671//74
f 637//112 639//106 601//148
f 602//147 640//104 638//111
f 672//72 638//111 640//104
f 641//447 639//106 673//105
f 639//106 641//447 603//439
f 604//440 642//448 640//104
f 674//103 640//104 642//448
f 644//229 675//453 676//454
f 675//453 644//229 643//230
f 675//453 643//230 641//447
f 641//447 643//230 605//181
f 606//180 645//227 642//448
f 642//448 645//227 677//455
f 645//227 646//228 677//455
f 678//456 677//455 646//228
f 647//102 629//445 611//441
f 629//445 647//102 663//451
f 664//452 648//99 630//446
f 612//442 630//446 648//99
f 613//134 679//70 647//102
f 679//70 613//134 649//98
f 650//97 614//133 680//67
f 648//99 680//67 614//133
f 651//96 649//98 615//132
f 649//98 651//96 681//66
f 682//65 652//95 650//97
f 616//131 650//97 652//95
f 653//94 651//96 617//130
f 651//96 653//94 683//64
f 684//63 654//93 652//95
f 618//129 652//95 654//93
f 655//91 653//94 619//128
f 653//94 655//91 685//61
f 686//60 656//90 654//93
f 620//127 654//93 656//90
f 657//449 655//91 621//443
f 655//91 657//449 687//92
f 688//89 658//450 656//90
f 622//444 656//90 658//450
f 623//164 689//457 657//449
f 689//457 623//164 659//201
f 689//457 659//201 690//458
f 690//458 659//201 660//202
f 661//199 662//200 691//459
f 691//459 662//200 692//460
f 662//200 624//162 692//460
f 658//450 692//460 624//162
f 693//461 631//118 663//451
f 631//118 693//461 665//84
f 666//83 694//462 632//117
f 664//452 632//117 694//462
f 695//54 633//116 665//84
f 633//116 695//54 667//82
f 668//81 696//53 634//115
f 666//83 634//115 696//53
f 669//80 667//82 697//52
f 667//82 669//80 635//114
f 636//113 670//79 668//81
f 698//51 668//81 670//79
f 671//74 669//80 699//46
f 669//80 671//74 637//112
f 638//111 672//72 670//79
f 700//44 670//79 672//72
f 673//105 671//74 701//73
f 671//74 673//105 639//106
f 640//104 674//103 672//72
f 702//71 672//72 674//103
f 675//453 703//145 676//454
f 703//145 675//453 704//146
f 704//146 675//453 641//447
f 704//146 641//447 673//105
f 674//103 642//448 705//143
f 642//448 677//455 705//143
f 705//143 677//455 706//144
f 678//456 706//144 677//455
f 679//70 663//451 647//102
f 663//451 679//70 693//461
f 694//462 680//67 664//452
f 648//99 664//452 680//67
f 649//98 707//41 679//70
f 707//41 649//98 681//66
f 682//65 650//97 708//39
f 680//67 708//39 650//97
f 683//64 681//66 651//96
f 681//66 683//64 709//38
f 710//37 684//63 682//65
f 652//95 682//65 684//63
f 685//61 683//64 653//94
f 683//64 685//61 711//35
f 712//34 686//60 684//63
f 654//93 684//63 686//60
f 687//92 685//61 655//91
f 685//61 687//92 713//62
f 714//59 688//89 686//60
f 656//90 686//60 688//89
f 689//457 687//92 657//449
f 687//92 689//457 715//121
f 715//121 689//457 716//122
f 716//122 689//457 690//458
f 691//459 692//460 717//120
f 717//120 692//460 718//119
f 718//119 692//460 688//89
f 658//450 688//89 692//460
f 693//461 695//54 665//84
f 695//54 693//461 719//463
f 720//464 694//462 696//53
f 666//83 696//53 694//462
f 697//52 695//54 721//28
f 695//54 697//52 667//82
f 668//81 698//51 696//53
f 722//27 696//53 698//51
f 699//46 697//52 723//26
f 697//52 699//46 669//80
f 670//79 700//44 698//51
f 724//24 698//51 700//44
f 701//73 699//46 725//45
f 699//46 701//73 671//74
f 672//72 702//71 700//44
f 726//43 700//44 702//71
f 704//146 727//109 703//145
f 727//109 704//146 728//110
f 728//110 704//146 701//73
f 701//73 704//146 673//105
f 674//103 705//143 702//71
f 702//71 705//143 729//107
f 729//107 705//143 730//108
f 706//144 730//108 705//143
f 707//41 693//461 679//70
f 693//461 707//41 719//463
f 720//464 708//39 694//462
f 680//67 694//462 708//39
f 709//38 707//41 681//66
f 707//41 709//38 731//21
f 732//20 710//37 708//39
f 682//65 708//39 710//37
f 711//35 709//38 683//64
f 709//38 711//35 733//17
f 734//16 712//34 710//37
f 684//63 710//37 712//34
f 713//62 711//35 685//61
f 711//35 713//62 735//36
f 736//33 714//59 712//34
f 686//60 712//34 714//59
f 715//121 713//62 687//92
f 713//62 715//121 737//87
f 737//87 715//121 738//88
f 738//88 715//121 716//122
f 717//120 718//119 739//86
f 739//86 718//119 740//85
f 740//85 718//119 714//59
f 688//89 714//59 718//119
f 741//465 695//54 719//463
f 695//54 741//465 721//28
f 722//27 742//466 696//53
f 720//464 696//53 742//466
f 723//26 721//28 743//12
f 721//28 723//26 697//52
f 698//51 724//24 722//27
f 744//10 722//27 724//24
f 725//45 723//26 745//25
f 723//26 725//45 699//46
f 700//44 726//43 724//24
f 746//23 724//24 726//43
f 728//110 747//77 727//109
f 747//77 728//110 748//78
f 748//78 728//110 725//45
f 725//45 728//110 701//73
f 702//71 729//107 726//43
f 726//43 729//107 749//75
f 749//75 729//107 750//76
f 730//108 750//76 729//107
f 731//21 719//463 707//41
f 719//463 731//21 741//465
f 742//466 732//20 720//464
f 708//39 720//464 732//20
f 733//17 731//21 709//38
f 731//21 733//17 751//5
f 752//4 734//16 732//20
f 710//37 732//20 734//16
f 735//36 733//17 711//35
f 733//17 735//36 753//18
f 754//15 736//33 734//16
f 712//34 734//16 736//33
f 737//87 735//36 713//62
f 735//36 737//87 755//57
f 755//57 737//87 756//58
f 756//58 737//87 738//88
f 739//86 740//85 757//56
f 757//56 740//85 758//55
f 758//55 740//85 736//33
f 714//59 736//33 740//85
f 743//12 741//465 759//467
f 741//465 743//12 721//28
f 722//27 744//10 742//466
f 760//468 742//466 744//10
f 745//25 743//12 761//11
f 743//12 745//25 723//26
f 724//24 746//23 744//10
f 762//9 744//10 746//23
f 748//78 763//49 747//77
f 763//49 748//78 764//50
f 764//50 748//78 725//45
f 764//50 725//45 745//25
f 746//23 726//43 765//47
f 726//43 749//75 765//47
f 765//47 749//75 766//48
f 750//76 766//48 749//75
f 751//5 741//465 731//21
f 741//465 751//5 759//467
f 760//468 752//4 742//466
f 732//20 742//466 752//4
f 753//18 751//5 733//17
f 751//5 753//18 767//6
f 768//1 754//15 752//4
f 734//16 752//4 754//15
f 755//57 753//18 735//36
f 753//18 755//57 769//31
f 769//31 755//57 770//32
f 770//32 755//57 756//58
f 757//56 758//55 771//30
f 771//30 758//55 772//29
f 772//29 758//55 754//15
f 736//33 754//15 758//55
f 773//469 743//12 759//467
f 743//12 773//469 761//11
f 762//9 774//470 744//10
f 760//468 744//10 774//470
f 764//50 775//471 763//49
f 775//471 764//50 745//25
f 775//471 745//25 761//11
f 762//9 746//23 776//472
f 746//23 765//47 776//472
f 766//48 776//472 765//47
f 767//6 759//467 751//5
f 759//467 767//6 773//469
f 774//470 768//1 760//468
f 752//4 760//468 768//1
f 769//31 767//6 753//18
f 767//6 769//31 775//471
f 775//471 769//31 770//32
f 771//30 772//29 776//472
f 776//472 772//29 768//1
f 754//15 768//1 772//29
f 761//11 773//469 775//471
f 776//472 774//470 762//9
f 773//469 767//6 775//471
f 776//472 768//1 774//470
