# SSTK version 0.8.0
# 58
mtllib original-58.mtl
o #ID241
v -0.144644 0.124976 0.076693
v -0.035621 -0.096545 0.076693
v -0.144644 -0.096545 0.076693
v -0.035621 0.124976 0.076693
v -0.035621 0.124976 0.076693
v -0.144644 0.124976 0.076693
v -0.035621 -0.096545 0.076693
v -0.144644 -0.096545 0.076693
v 0.000240 -0.096545 0.097743
v -0.002175 -0.096545 0.107800
v -0.003625 -0.096545 0.092214
v 0.003457 -0.096545 0.103881
v -0.035621 -0.096545 0.076693
v -0.144644 -0.096545 0.078147
v -0.144644 -0.096545 0.076693
v -0.144644 -0.096545 0.132054
v -0.036205 -0.096545 0.132054
v -0.035621 -0.096545 0.132073
v -0.029738 -0.096545 0.076885
v -0.035591 -0.096545 0.133527
v 0.008835 -0.096545 0.132073
v -0.023933 -0.096545 0.078084
v -0.018314 -0.096545 0.080267
v -0.012991 -0.096545 0.083392
v -0.008063 -0.096545 0.087399
v 0.003647 -0.096545 0.104383
v 0.005966 -0.096545 0.110513
v 0.007718 -0.096545 0.117512
v 0.008680 -0.096545 0.124744
v 0.008680 -0.096545 0.124744
v 0.007718 -0.096545 0.117512
v 0.008835 -0.096545 0.132073
v 0.005966 -0.096545 0.110513
v 0.003647 -0.096545 0.104383
v -0.002175 -0.096545 0.107800
v -0.003625 -0.096545 0.092214
v -0.008063 -0.096545 0.087399
v -0.012991 -0.096545 0.083392
v -0.018314 -0.096545 0.080267
v -0.023933 -0.096545 0.078084
v -0.029738 -0.096545 0.076885
v -0.035591 -0.096545 0.133527
v -0.035621 -0.096545 0.132073
v -0.035621 -0.096545 0.076693
v -0.036205 -0.096545 0.132054
v -0.144644 -0.096545 0.132054
v -0.144644 -0.096545 0.078147
v -0.144644 -0.096545 0.076693
v 0.003457 -0.096545 0.103881
v 0.000240 -0.096545 0.097743
v -0.144644 0.124976 0.078147
v -0.144644 -0.096545 0.076693
v -0.144644 -0.096545 0.078147
v -0.144644 0.124976 0.076693
v -0.144644 0.124976 0.076693
v -0.144644 0.124976 0.078147
v -0.144644 -0.096545 0.076693
v -0.144644 -0.096545 0.078147
v -0.253666 -0.096545 0.076693
v -0.144644 0.124976 0.076693
v -0.144644 -0.096545 0.076693
v -0.253666 0.124976 0.076693
v -0.253666 0.124976 0.076693
v -0.253666 -0.096545 0.076693
v -0.144644 0.124976 0.076693
v -0.144644 -0.096545 0.076693
v -0.035646 0.124976 0.079058
v -0.144644 0.124976 0.078147
v -0.144644 0.124976 0.079058
v -0.144644 0.124976 0.076693
v -0.035621 0.124976 0.076693
v -0.029920 0.124976 0.079246
v -0.029738 0.124976 0.076885
v -0.024373 0.124976 0.080391
v -0.023933 0.124976 0.078084
v -0.019005 0.124976 0.082477
v -0.018314 0.124976 0.080267
v -0.013919 0.124976 0.085462
v -0.012991 0.124976 0.083392
v -0.009211 0.124976 0.089291
v -0.008063 0.124976 0.087399
v -0.004970 0.124976 0.093890
v -0.003625 0.124976 0.092214
v -0.001278 0.124976 0.099173
v 0.000240 0.124976 0.097743
v 0.001795 0.124976 0.105038
v 0.003457 0.124976 0.103881
v 0.003457 0.124976 0.103881
v 0.001795 0.124976 0.105038
v 0.000240 0.124976 0.097743
v -0.001278 0.124976 0.099173
v -0.003625 0.124976 0.092214
v -0.004970 0.124976 0.093890
v -0.008063 0.124976 0.087399
v -0.009211 0.124976 0.089291
v -0.012991 0.124976 0.083392
v -0.013919 0.124976 0.085462
v -0.018314 0.124976 0.080267
v -0.019005 0.124976 0.082477
v -0.023933 0.124976 0.078084
v -0.024373 0.124976 0.080391
v -0.029738 0.124976 0.076885
v -0.029920 0.124976 0.079246
v -0.035621 0.124976 0.076693
v -0.035646 0.124976 0.079058
v -0.144644 0.124976 0.076693
v -0.144644 0.124976 0.078147
v -0.144644 0.124976 0.079058
v -0.029738 -0.096545 0.076885
v -0.029738 0.124976 0.076885
v -0.029738 0.124976 0.076885
v -0.029738 -0.096545 0.076885
v -0.036205 -0.096545 0.132054
v -0.144644 -0.096545 0.133527
v -0.144644 -0.096545 0.132054
v -0.035591 -0.096545 0.133527
v -0.035621 -0.096545 0.132073
v -0.035621 -0.096545 0.132073
v -0.036205 -0.096545 0.132054
v -0.035591 -0.096545 0.133527
v -0.144644 -0.096545 0.133527
v -0.144644 -0.096545 0.132054
v -0.289527 -0.096545 0.097743
v -0.287112 -0.096545 0.107800
v -0.292744 -0.096545 0.103881
v -0.285663 -0.096545 0.092214
v -0.297968 -0.096545 0.124744
v -0.253696 -0.096545 0.133527
v -0.298122 -0.096545 0.132073
v -0.297005 -0.096545 0.117512
v -0.295253 -0.096545 0.110513
v -0.292934 -0.096545 0.104383
v -0.281224 -0.096545 0.087399
v -0.276296 -0.096545 0.083392
v -0.270973 -0.096545 0.080267
v -0.265355 -0.096545 0.078084
v -0.259549 -0.096545 0.076885
v -0.253666 -0.096545 0.076693
v -0.253666 -0.096545 0.132073
v -0.144644 -0.096545 0.076693
v -0.253082 -0.096545 0.132054
v -0.144644 -0.096545 0.132054
v -0.144644 -0.096545 0.078147
v -0.144644 -0.096545 0.078147
v -0.144644 -0.096545 0.076693
v -0.144644 -0.096545 0.132054
v -0.253082 -0.096545 0.132054
v -0.253666 -0.096545 0.132073
v -0.253666 -0.096545 0.076693
v -0.253696 -0.096545 0.133527
v -0.259549 -0.096545 0.076885
v -0.265355 -0.096545 0.078084
v -0.270973 -0.096545 0.080267
v -0.276296 -0.096545 0.083392
v -0.281224 -0.096545 0.087399
v -0.285663 -0.096545 0.092214
v -0.287112 -0.096545 0.107800
v -0.292934 -0.096545 0.104383
v -0.295253 -0.096545 0.110513
v -0.297005 -0.096545 0.117512
v -0.297968 -0.096545 0.124744
v -0.298122 -0.096545 0.132073
v -0.289527 -0.096545 0.097743
v -0.292744 -0.096545 0.103881
v -0.144644 -0.096027 0.125136
v -0.144644 -0.096545 0.078147
v -0.144644 -0.096545 0.132054
v -0.144644 -0.094481 0.118337
v -0.144644 -0.091933 0.111773
v -0.144644 -0.088428 0.105556
v -0.144644 -0.084025 0.099792
v -0.144644 -0.078799 0.094580
v -0.144644 -0.072841 0.090009
v -0.144644 -0.066251 0.086158
v -0.144644 -0.059144 0.083092
v -0.144644 -0.051639 0.080864
v -0.144644 -0.043866 0.079511
v -0.144644 -0.035958 0.079058
v -0.144644 0.124976 0.079058
v -0.144644 0.124976 0.078147
v -0.144644 0.124976 0.078147
v -0.144644 0.124976 0.079058
v -0.144644 -0.096545 0.078147
v -0.144644 -0.035958 0.079058
v -0.144644 -0.043866 0.079511
v -0.144644 -0.051639 0.080864
v -0.144644 -0.059144 0.083092
v -0.144644 -0.066251 0.086158
v -0.144644 -0.072841 0.090009
v -0.144644 -0.078799 0.094580
v -0.144644 -0.084025 0.099792
v -0.144644 -0.088428 0.105556
v -0.144644 -0.091933 0.111773
v -0.144644 -0.094481 0.118337
v -0.144644 -0.096027 0.125136
v -0.144644 -0.096545 0.132054
v -0.023933 -0.096545 0.078084
v -0.023933 0.124976 0.078084
v -0.023933 0.124976 0.078084
v -0.023933 -0.096545 0.078084
v -0.018314 -0.096545 0.080267
v -0.018314 0.124976 0.080267
v -0.018314 0.124976 0.080267
v -0.018314 -0.096545 0.080267
v -0.012991 -0.096545 0.083392
v -0.012991 0.124976 0.083392
v -0.012991 0.124976 0.083392
v -0.012991 -0.096545 0.083392
v -0.008063 -0.096545 0.087399
v -0.008063 0.124976 0.087399
v -0.008063 0.124976 0.087399
v -0.008063 -0.096545 0.087399
v -0.003625 -0.096545 0.092214
v -0.003625 0.124976 0.092214
v -0.003625 0.124976 0.092214
v -0.003625 -0.096545 0.092214
v 0.000240 0.124976 0.097743
v 0.000240 -0.096545 0.097743
v 0.000240 0.124976 0.097743
v 0.000240 -0.096545 0.097743
v 0.003457 0.124976 0.103881
v 0.003457 -0.096545 0.103881
v 0.003457 0.124976 0.103881
v 0.003457 -0.096545 0.103881
v 0.003647 -0.096545 0.104383
v 0.005966 0.124976 0.110513
v 0.005966 -0.096545 0.110513
v 0.003647 0.124976 0.104383
v 0.003647 0.124976 0.104383
v 0.003647 -0.096545 0.104383
v 0.005966 0.124976 0.110513
v 0.005966 -0.096545 0.110513
v 0.007718 0.124976 0.117512
v 0.007718 -0.096545 0.117512
v 0.007718 0.124976 0.117512
v 0.007718 -0.096545 0.117512
v 0.008680 0.124976 0.124744
v 0.008680 -0.096545 0.124744
v 0.008680 0.124976 0.124744
v 0.008680 -0.096545 0.124744
v 0.008835 0.124976 0.132073
v 0.008835 -0.096545 0.132073
v 0.008835 0.124976 0.132073
v 0.008835 -0.096545 0.132073
v 0.008835 -0.096545 0.132073
v -0.030040 -0.096027 0.133345
v -0.035591 -0.096545 0.133527
v -0.024584 -0.094481 0.133167
v -0.019316 -0.091933 0.132994
v -0.014327 -0.088428 0.132831
v -0.009702 -0.084025 0.132680
v -0.007610 -0.081412 0.132611
v -0.005519 -0.078799 0.132543
v -0.005241 -0.078348 0.132534
v -0.001851 -0.072841 0.132423
v 0.001239 -0.066251 0.132321
v 0.003700 -0.059144 0.132241
v 0.005488 -0.051639 0.132182
v 0.006573 -0.043866 0.132147
v 0.006937 -0.035958 0.132135
v 0.008835 0.124976 0.132073
v -0.006049 -0.079461 0.132560
v 0.006937 0.124976 0.132135
v 0.006937 0.124976 0.132135
v 0.008835 0.124976 0.132073
v 0.006937 -0.035958 0.132135
v -0.006049 -0.079461 0.132560
v -0.005519 -0.078799 0.132543
v -0.007610 -0.081412 0.132611
v 0.008835 -0.096545 0.132073
v 0.006573 -0.043866 0.132147
v 0.005488 -0.051639 0.132182
v 0.003700 -0.059144 0.132241
v 0.001239 -0.066251 0.132321
v -0.001851 -0.072841 0.132423
v -0.005241 -0.078348 0.132534
v -0.009702 -0.084025 0.132680
v -0.014327 -0.088428 0.132831
v -0.019316 -0.091933 0.132994
v -0.024584 -0.094481 0.133167
v -0.030040 -0.096027 0.133345
v -0.035591 -0.096545 0.133527
v -0.291083 0.124976 0.105038
v -0.289527 0.124976 0.097743
v -0.292744 0.124976 0.103881
v -0.288009 0.124976 0.099173
v -0.285663 0.124976 0.092214
v -0.284317 0.124976 0.093890
v -0.281224 0.124976 0.087399
v -0.280076 0.124976 0.089291
v -0.276296 0.124976 0.083392
v -0.275368 0.124976 0.085462
v -0.270973 0.124976 0.080267
v -0.270282 0.124976 0.082477
v -0.265355 0.124976 0.078084
v -0.264915 0.124976 0.080391
v -0.259549 0.124976 0.076885
v -0.259368 0.124976 0.079246
v -0.253666 0.124976 0.076693
v -0.253641 0.124976 0.079058
v -0.144644 0.124976 0.076693
v -0.144644 0.124976 0.079058
v -0.144644 0.124976 0.078147
v -0.144644 0.124976 0.078147
v -0.144644 0.124976 0.079058
v -0.144644 0.124976 0.076693
v -0.253641 0.124976 0.079058
v -0.253666 0.124976 0.076693
v -0.259368 0.124976 0.079246
v -0.259549 0.124976 0.076885
v -0.264915 0.124976 0.080391
v -0.265355 0.124976 0.078084
v -0.270282 0.124976 0.082477
v -0.270973 0.124976 0.080267
v -0.275368 0.124976 0.085462
v -0.276296 0.124976 0.083392
v -0.280076 0.124976 0.089291
v -0.281224 0.124976 0.087399
v -0.284317 0.124976 0.093890
v -0.285663 0.124976 0.092214
v -0.288009 0.124976 0.099173
v -0.289527 0.124976 0.097743
v -0.291083 0.124976 0.105038
v -0.292744 0.124976 0.103881
v -0.259549 0.124976 0.076885
v -0.259549 -0.096545 0.076885
v -0.259549 0.124976 0.076885
v -0.259549 -0.096545 0.076885
v -0.253666 -0.096545 0.132073
v -0.144644 -0.096545 0.133527
v -0.253696 -0.096545 0.133527
v -0.253082 -0.096545 0.132054
v -0.144644 -0.096545 0.132054
v -0.144644 -0.096545 0.132054
v -0.253082 -0.096545 0.132054
v -0.144644 -0.096545 0.133527
v -0.253666 -0.096545 0.132073
v -0.253696 -0.096545 0.133527
v -0.298122 -0.096545 0.132073
v -0.296224 -0.035958 0.132135
v -0.298122 0.124976 0.132073
v -0.295860 -0.043866 0.132147
v -0.294775 -0.051639 0.132182
v -0.292987 -0.059144 0.132241
v -0.290526 -0.066251 0.132321
v -0.287436 -0.072841 0.132423
v -0.284046 -0.078348 0.132534
v -0.283768 -0.078799 0.132543
v -0.279586 -0.084025 0.132680
v -0.274960 -0.088428 0.132831
v -0.269971 -0.091933 0.132994
v -0.264703 -0.094481 0.133167
v -0.259247 -0.096027 0.133345
v -0.253696 -0.096545 0.133527
v -0.281677 -0.081412 0.132611
v -0.283238 -0.079461 0.132560
v -0.296224 0.124976 0.132135
v -0.296224 0.124976 0.132135
v -0.296224 -0.035958 0.132135
v -0.298122 0.124976 0.132073
v -0.283238 -0.079461 0.132560
v -0.281677 -0.081412 0.132611
v -0.283768 -0.078799 0.132543
v -0.279586 -0.084025 0.132680
v -0.253696 -0.096545 0.133527
v -0.298122 -0.096545 0.132073
v -0.259247 -0.096027 0.133345
v -0.264703 -0.094481 0.133167
v -0.269971 -0.091933 0.132994
v -0.274960 -0.088428 0.132831
v -0.284046 -0.078348 0.132534
v -0.287436 -0.072841 0.132423
v -0.290526 -0.066251 0.132321
v -0.292987 -0.059144 0.132241
v -0.294775 -0.051639 0.132182
v -0.295860 -0.043866 0.132147
v -0.297968 0.124976 0.124744
v -0.298122 -0.096545 0.132073
v -0.298122 0.124976 0.132073
v -0.297968 -0.096545 0.124744
v -0.297968 -0.096545 0.124744
v -0.297968 0.124976 0.124744
v -0.298122 -0.096545 0.132073
v -0.298122 0.124976 0.132073
v -0.297005 -0.096545 0.117512
v -0.297005 0.124976 0.117512
v -0.297005 0.124976 0.117512
v -0.297005 -0.096545 0.117512
v -0.295253 -0.096545 0.110513
v -0.295253 0.124976 0.110513
v -0.295253 0.124976 0.110513
v -0.295253 -0.096545 0.110513
v -0.292934 -0.096545 0.104383
v -0.292934 0.124976 0.104383
v -0.292744 -0.096545 0.103881
v -0.292744 0.124976 0.103881
v -0.292744 0.124976 0.103881
v -0.292934 0.124976 0.104383
v -0.292744 -0.096545 0.103881
v -0.292934 -0.096545 0.104383
v -0.289527 -0.096545 0.097743
v -0.289527 0.124976 0.097743
v -0.289527 0.124976 0.097743
v -0.289527 -0.096545 0.097743
v -0.285663 -0.096545 0.092214
v -0.285663 0.124976 0.092214
v -0.285663 0.124976 0.092214
v -0.285663 -0.096545 0.092214
v -0.281224 0.124976 0.087399
v -0.281224 -0.096545 0.087399
v -0.281224 0.124976 0.087399
v -0.281224 -0.096545 0.087399
v -0.276296 -0.096545 0.083392
v -0.276296 0.124976 0.083392
v -0.276296 0.124976 0.083392
v -0.276296 -0.096545 0.083392
v -0.270973 -0.096545 0.080267
v -0.270973 0.124976 0.080267
v -0.270973 0.124976 0.080267
v -0.270973 -0.096545 0.080267
v -0.265355 -0.096545 0.078084
v -0.265355 0.124976 0.078084
v -0.265355 0.124976 0.078084
v -0.265355 -0.096545 0.078084
v 0.004192 0.124976 0.111373
v 0.003647 0.124976 0.104383
v 0.001929 0.124976 0.105391
v 0.005966 0.124976 0.110513
v 0.005866 0.124976 0.118060
v 0.006786 0.124976 0.124970
v 0.007718 0.124976 0.117512
v 0.006937 0.124976 0.132135
v 0.008835 0.124976 0.132073
v 0.008680 0.124976 0.124744
v 0.008680 0.124976 0.124744
v 0.008835 0.124976 0.132073
v 0.007718 0.124976 0.117512
v 0.006937 0.124976 0.132135
v 0.006786 0.124976 0.124970
v 0.005966 0.124976 0.110513
v 0.005866 0.124976 0.118060
v 0.004192 0.124976 0.111373
v 0.003647 0.124976 0.104383
v 0.001929 0.124976 0.105391
v -0.030038 -0.096027 0.133527
v -0.030040 -0.096027 0.133345
v -0.035591 -0.096545 0.133527
v -0.035591 -0.096545 0.133527
v -0.030040 -0.096027 0.133345
v -0.030038 -0.096027 0.133527
v 0.006951 0.124976 0.133527
v 0.008835 0.124976 0.132073
v 0.006937 0.124976 0.132135
v 0.008835 0.124976 0.133527
v 0.008835 0.124976 0.133527
v 0.006951 0.124976 0.133527
v 0.008835 0.124976 0.132073
v 0.006937 0.124976 0.132135
v 0.006937 0.124976 0.132135
v 0.006951 -0.035958 0.133527
v 0.006951 0.124976 0.133527
v 0.006937 -0.035958 0.132135
v 0.006937 -0.035958 0.132135
v 0.006937 0.124976 0.132135
v 0.006951 -0.035958 0.133527
v 0.006951 0.124976 0.133527
v 0.006587 -0.043866 0.133527
v 0.006573 -0.043866 0.132147
v 0.006573 -0.043866 0.132147
v 0.006587 -0.043866 0.133527
v 0.005488 -0.051639 0.132182
v 0.005502 -0.051639 0.133527
v 0.005488 -0.051639 0.132182
v 0.005502 -0.051639 0.133527
v 0.003700 -0.059144 0.132241
v 0.003713 -0.059144 0.133527
v 0.003700 -0.059144 0.132241
v 0.003713 -0.059144 0.133527
v 0.001252 -0.066251 0.133527
v 0.001239 -0.066251 0.132321
v 0.001239 -0.066251 0.132321
v 0.001252 -0.066251 0.133527
v -0.001851 -0.072841 0.132423
v -0.001840 -0.072841 0.133527
v -0.001851 -0.072841 0.132423
v -0.001840 -0.072841 0.133527
v -0.005223 -0.078344 0.133527
v -0.001851 -0.072841 0.132423
v -0.001840 -0.072841 0.133527
v -0.005241 -0.078348 0.132534
v -0.005241 -0.078348 0.132534
v -0.005223 -0.078344 0.133527
v -0.001851 -0.072841 0.132423
v -0.001840 -0.072841 0.133527
v -0.005519 -0.078799 0.132543
v -0.005223 -0.078344 0.133527
v -0.005509 -0.078799 0.133527
v -0.005241 -0.078348 0.132534
v -0.005241 -0.078348 0.132534
v -0.005519 -0.078799 0.132543
v -0.005223 -0.078344 0.133527
v -0.005509 -0.078799 0.133527
v -0.006047 -0.079465 0.133527
v -0.006049 -0.079461 0.132560
v -0.006047 -0.079465 0.133527
v -0.006049 -0.079461 0.132560
v -0.006049 -0.079461 0.132560
v -0.007601 -0.081412 0.133527
v -0.007610 -0.081412 0.132611
v -0.006047 -0.079465 0.133527
v -0.006047 -0.079465 0.133527
v -0.006049 -0.079461 0.132560
v -0.007601 -0.081412 0.133527
v -0.007610 -0.081412 0.132611
v -0.007610 -0.081412 0.132611
v -0.009693 -0.084025 0.133527
v -0.009702 -0.084025 0.132680
v -0.007601 -0.081412 0.133527
v -0.007601 -0.081412 0.133527
v -0.007610 -0.081412 0.132611
v -0.009693 -0.084025 0.133527
v -0.009702 -0.084025 0.132680
v -0.014320 -0.088428 0.133527
v -0.014327 -0.088428 0.132831
v -0.014320 -0.088428 0.133527
v -0.014327 -0.088428 0.132831
v -0.019311 -0.091933 0.133527
v -0.019316 -0.091933 0.132994
v -0.019311 -0.091933 0.133527
v -0.019316 -0.091933 0.132994
v -0.024580 -0.094481 0.133527
v -0.024584 -0.094481 0.133167
v -0.024580 -0.094481 0.133527
v -0.024584 -0.094481 0.133167
v -0.253696 -0.096545 0.133527
v -0.259247 -0.096027 0.133345
v -0.259249 -0.096027 0.133527
v -0.259249 -0.096027 0.133527
v -0.259247 -0.096027 0.133345
v -0.253696 -0.096545 0.133527
v -0.264703 -0.094481 0.133167
v -0.264707 -0.094481 0.133527
v -0.264703 -0.094481 0.133167
v -0.264707 -0.094481 0.133527
v -0.269971 -0.091933 0.132994
v -0.269977 -0.091933 0.133527
v -0.269971 -0.091933 0.132994
v -0.269977 -0.091933 0.133527
v -0.274960 -0.088428 0.132831
v -0.274968 -0.088428 0.133527
v -0.274960 -0.088428 0.132831
v -0.274968 -0.088428 0.133527
v -0.279586 -0.084025 0.132680
v -0.279595 -0.084025 0.133527
v -0.279586 -0.084025 0.132680
v -0.279595 -0.084025 0.133527
v -0.281677 -0.081412 0.132611
v -0.281686 -0.081412 0.133527
v -0.281677 -0.081412 0.132611
v -0.281686 -0.081412 0.133527
v -0.283238 -0.079461 0.132560
v -0.283240 -0.079465 0.133527
v -0.283238 -0.079461 0.132560
v -0.283240 -0.079465 0.133527
v -0.283768 -0.078799 0.132543
v -0.283778 -0.078799 0.133527
v -0.283768 -0.078799 0.132543
v -0.283778 -0.078799 0.133527
v -0.284064 -0.078344 0.133527
v -0.284046 -0.078348 0.132534
v -0.284046 -0.078348 0.132534
v -0.284064 -0.078344 0.133527
v -0.287436 -0.072841 0.132423
v -0.287447 -0.072841 0.133527
v -0.287436 -0.072841 0.132423
v -0.287447 -0.072841 0.133527
v -0.290539 -0.066251 0.133527
v -0.290526 -0.066251 0.132321
v -0.290526 -0.066251 0.132321
v -0.290539 -0.066251 0.133527
v -0.292987 -0.059144 0.132241
v -0.293000 -0.059144 0.133527
v -0.292987 -0.059144 0.132241
v -0.293000 -0.059144 0.133527
v -0.294775 -0.051639 0.132182
v -0.294789 -0.051639 0.133527
v -0.294775 -0.051639 0.132182
v -0.294789 -0.051639 0.133527
v -0.295875 -0.043866 0.133527
v -0.295860 -0.043866 0.132147
v -0.295860 -0.043866 0.132147
v -0.295875 -0.043866 0.133527
v -0.296239 -0.035958 0.133527
v -0.296224 -0.035958 0.132135
v -0.296224 -0.035958 0.132135
v -0.296239 -0.035958 0.133527
v -0.296239 0.124976 0.133527
v -0.296224 0.124976 0.132135
v -0.296224 0.124976 0.132135
v -0.296239 0.124976 0.133527
v -0.296224 0.124976 0.132135
v -0.297968 0.124976 0.124744
v -0.298122 0.124976 0.132073
v -0.297005 0.124976 0.117512
v -0.296073 0.124976 0.124970
v -0.295253 0.124976 0.110513
v -0.295153 0.124976 0.118060
v -0.292934 0.124976 0.104383
v -0.293479 0.124976 0.111373
v -0.291216 0.124976 0.105391
v -0.291216 0.124976 0.105391
v -0.293479 0.124976 0.111373
v -0.292934 0.124976 0.104383
v -0.295153 0.124976 0.118060
v -0.295253 0.124976 0.110513
v -0.296073 0.124976 0.124970
v -0.297005 0.124976 0.117512
v -0.296224 0.124976 0.132135
v -0.297968 0.124976 0.124744
v -0.298122 0.124976 0.132073
v -0.296239 0.124976 0.133527
v -0.298122 0.124976 0.132073
v -0.298122 0.124976 0.133527
v -0.296224 0.124976 0.132135
v -0.296224 0.124976 0.132135
v -0.296239 0.124976 0.133527
v -0.298122 0.124976 0.132073
v -0.298122 0.124976 0.133527
v 0.008835 -0.096545 0.133527
v 0.006951 -0.035958 0.133527
v 0.008835 0.124976 0.133527
v 0.006587 -0.043866 0.133527
v 0.005502 -0.051639 0.133527
v 0.003713 -0.059144 0.133527
v 0.001252 -0.066251 0.133527
v -0.001840 -0.072841 0.133527
v -0.005223 -0.078344 0.133527
v -0.005509 -0.078799 0.133527
v -0.007601 -0.081412 0.133527
v -0.009693 -0.084025 0.133527
v -0.014320 -0.088428 0.133527
v -0.019311 -0.091933 0.133527
v -0.024580 -0.094481 0.133527
v -0.030038 -0.096027 0.133527
v -0.035591 -0.096545 0.133527
v -0.006047 -0.079465 0.133527
v 0.006951 0.124976 0.133527
v 0.006951 0.124976 0.133527
v 0.006951 -0.035958 0.133527
v 0.008835 0.124976 0.133527
v -0.006047 -0.079465 0.133527
v -0.007601 -0.081412 0.133527
v -0.005509 -0.078799 0.133527
v -0.035591 -0.096545 0.133527
v 0.008835 -0.096545 0.133527
v -0.030038 -0.096027 0.133527
v -0.024580 -0.094481 0.133527
v -0.019311 -0.091933 0.133527
v -0.014320 -0.088428 0.133527
v -0.009693 -0.084025 0.133527
v -0.005223 -0.078344 0.133527
v -0.001840 -0.072841 0.133527
v 0.001252 -0.066251 0.133527
v 0.003713 -0.059144 0.133527
v 0.005502 -0.051639 0.133527
v 0.006587 -0.043866 0.133527
v -0.298122 -0.096545 0.133527
v -0.259249 -0.096027 0.133527
v -0.253696 -0.096545 0.133527
v -0.264707 -0.094481 0.133527
v -0.269977 -0.091933 0.133527
v -0.274968 -0.088428 0.133527
v -0.279595 -0.084025 0.133527
v -0.281686 -0.081412 0.133527
v -0.283778 -0.078799 0.133527
v -0.284064 -0.078344 0.133527
v -0.287447 -0.072841 0.133527
v -0.290539 -0.066251 0.133527
v -0.293000 -0.059144 0.133527
v -0.294789 -0.051639 0.133527
v -0.295875 -0.043866 0.133527
v -0.296239 -0.035958 0.133527
v -0.298122 0.124976 0.133527
v -0.283240 -0.079465 0.133527
v -0.296239 0.124976 0.133527
v -0.296239 0.124976 0.133527
v -0.298122 0.124976 0.133527
v -0.296239 -0.035958 0.133527
v -0.283240 -0.079465 0.133527
v -0.283778 -0.078799 0.133527
v -0.281686 -0.081412 0.133527
v -0.298122 -0.096545 0.133527
v -0.295875 -0.043866 0.133527
v -0.294789 -0.051639 0.133527
v -0.293000 -0.059144 0.133527
v -0.290539 -0.066251 0.133527
v -0.287447 -0.072841 0.133527
v -0.284064 -0.078344 0.133527
v -0.279595 -0.084025 0.133527
v -0.274968 -0.088428 0.133527
v -0.269977 -0.091933 0.133527
v -0.264707 -0.094481 0.133527
v -0.259249 -0.096027 0.133527
v -0.253696 -0.096545 0.133527
vn 0 0 -1
vn 0.016364563737152036 0 -0.9998660915611113
vn -0.016364563737152036 0 0.9998660915611113
vn 0 0 1
vn 0 -1 0
vn 0 1 0
vn -1 0 0
vn 1 0 0
vn -0.016364563737152036 0 -0.9998660915611113
vn 0.016364563737152036 0 0.9998660915611113
vn 0.11822562079870684 0 -0.9929867585153189
vn -0.11822562079870684 0 0.9929867585153189
vn 0.2838516675452952 0 -0.9588682030559547
vn -0.2838516675452952 0 0.9588682030559547
vn 0.4364397623768925 0 -0.8997334793239615
vn -0.4364397623768925 0 0.8997334793239615
vn 0.5711164607910132 0 -0.8208690444970788
vn -0.5711164607910132 0 0.8208690444970788
vn 0.6856255128057257 0 -0.7279544327702702
vn -0.6856255128057257 0 0.7279544327702702
vn 0.7798215900684266 0 -0.626001827204323
vn -0.7798215900684266 0 0.626001827204323
vn 0.8548656510261665 0 -0.5188494181317045
vn -0.8548656510261665 0 0.5188494181317045
vn 0.9124860698083576 0 -0.4091077760269258
vn -0.9124860698083576 0 0.4091077760269258
vn 0.9353244809467125 0 -0.3537910617041683
vn 0.9544562934835922 0 -0.2983507731338444
vn -0.9353244809467125 0 0.3537910617041683
vn -0.9544562934835922 0 0.2983507731338444
vn 0.9822868178673818 0 -0.18738358370992214
vn -0.9822868178673818 0 0.18738358370992214
vn 0.9970696771223222 0 -0.07649875138319759
vn -0.9970696771223222 0 0.07649875138319759
vn 0.9997775248566733 0 -0.021092671510843694
vn -0.9997775248566733 0 0.021092671510843694
vn 0.03272162796026527 0 0.9994645041539144
vn -0.03272162796026527 0 -0.9994645041539144
vn -0.11822562079870684 0 -0.9929867585153189
vn 0.11822562079870684 0 0.9929867585153189
vn -0.03272162796026527 0 0.9994645041539144
vn 0.03272162796026527 0 -0.9994645041539144
vn -0.9970696771223222 0 -0.07649875138319759
vn -0.9997775248566733 0 -0.021092671510843694
vn 0.9970696771223222 0 0.07649875138319759
vn 0.9997775248566733 0 0.021092671510843694
vn -0.9822868178673818 0 -0.18738358370992214
vn 0.9822868178673818 0 0.18738358370992214
vn -0.9544562934835922 0 -0.2983507731338444
vn 0.9544562934835922 0 0.2983507731338444
vn -0.9353244809467125 0 -0.3537910617041683
vn -0.9124860698083576 0 -0.4091077760269258
vn 0.9124860698083576 0 0.4091077760269258
vn 0.9353244809467125 0 0.3537910617041683
vn -0.8548656510261665 0 -0.5188494181317045
vn 0.8548656510261665 0 0.5188494181317045
vn -0.7798215900684266 0 -0.626001827204323
vn 0.7798215900684266 0 0.626001827204323
vn -0.6856255128057257 0 -0.7279544327702702
vn 0.6856255128057257 0 0.7279544327702702
vn -0.5711164607910132 0 -0.8208690444970788
vn 0.5711164607910132 0 0.8208690444970788
vn -0.4364397623768925 0 -0.8997334793239615
vn 0.4364397623768925 0 0.8997334793239615
vn -0.2838516675452952 0 -0.9588682030559547
vn 0.2838516675452952 0 0.9588682030559547
vn -0.13904399183064084 0.9902851194373825 0.0014664776471631133
vn -0.09294088677792119 0.9956711458632885 0.000980234777799215
vn 0.09294088677792119 -0.9956711458632885 -0.000980234777799215
vn 0.13904399183064084 -0.9902851194373825 -0.0014664776471631133
vn -0.9999443864854953 0 0.010546275937324033
vn -0.9996804903423261 0.022972851959583603 0.010543495709183207
vn 0.9996804903423261 -0.022972851959583603 -0.010543495709183207
vn 0.9999443864854953 0 -0.010546275937324033
vn -0.9957041801414627 0.09199403738540837 0.010501558662877468
vn 0.9957041801414627 -0.09199403738540837 -0.010501558662877468
vn -0.9780047441828904 0.2083274432702715 0.010314879360950062
vn 0.9780047441828904 -0.2083274432702715 -0.010314879360950062
vn 0.9602064126641751 -0.2791076594040903 -0.010127168437729423
vn -0.9602064126641751 0.2791076594040903 0.010127168437729423
vn 0.9267806269971014 -0.3754758661665785 -0.009774627835226474
vn -0.9267806269971014 0.3754758661665785 0.009774627835226474
vn 0.9052711830942792 -0.42472688307027534 -0.009547767094613371
vn -0.9052711830942792 0.42472688307027534 0.009547767094613371
vn 0.8516279731269714 -0.5240314686343773 -0.010991599908303968
vn -0.8516279731269714 0.5240314686343773 0.010991599908303968
vn 0.8166632222504925 -0.5770475570100985 -0.00879194927873652
vn 0.8492376213919094 -0.5278918922844641 -0.011207697039964257
vn 0.8166626454749958 -0.5770483738817693 -0.008791910269494312
vn -0.8492376213919094 0.5278918922844641 0.011207697039964257
vn -0.8166632222504925 0.5770475570100985 0.00879194927873652
vn -0.8166626454749958 0.5770483738817693 0.008791910269494312
vn 0.7791396322151662 -0.6268196939576592 -0.006205221868859925
vn -0.7791396322151662 0.6268196939576592 0.006205221868859925
vn 0.781112458909933 -0.6243609064577982 -0.006065065776625739
vn -0.781112458909933 0.6243609064577982 0.006065065776625739
vn 0.780589287120574 -0.624990069014609 -0.008232767803628409
vn 0.7380162302017143 -0.6747380655572585 -0.007783755321119952
vn -0.780589287120574 0.624990069014609 0.008232767803628409
vn -0.7380162302017143 0.6747380655572585 0.007783755321119952
vn 0.6355144233571343 -0.7720599016610059 -0.006702682466516345
vn -0.6355144233571343 0.7720599016610059 0.006702682466516345
vn 0.5086214168032682 -0.8609735640641673 -0.005364359391531102
vn -0.5086214168032682 0.8609735640641673 0.005364359391531102
vn 0.3571816894697759 -0.9340273279321833 -0.0037671452563331665
vn -0.3571816894697759 0.9340273279321833 0.0037671452563331665
vn 0.09294088677792119 0.9956711458632885 0.000980234777799215
vn 0.13904399183064084 0.9902851194373825 0.0014664776471631133
vn -0.13904399183064084 -0.9902851194373825 -0.0014664776471631133
vn -0.09294088677792119 -0.9956711458632885 -0.000980234777799215
vn -0.3571816894697759 -0.9340273279321833 -0.0037671452563331665
vn 0.3571816894697759 0.9340273279321833 0.0037671452563331665
vn -0.5086214168032682 -0.8609735640641673 -0.005364359391531102
vn 0.5086214168032682 0.8609735640641673 0.005364359391531102
vn -0.6355144233571343 -0.7720599016610059 -0.006702682466516345
vn 0.6355144233571343 0.7720599016610059 0.006702682466516345
vn -0.7380162302017143 -0.6747380655572585 -0.007783755321119952
vn 0.7380162302017143 0.6747380655572585 0.007783755321119952
vn -0.7808530945191138 -0.6246738648100215 -0.007141946739861141
vn -0.7808530944926217 -0.6246738647888282 -0.007141951489983223
vn 0.7808530945191138 0.6246738648100215 0.007141946739861141
vn 0.7808530944926217 0.6246738647888282 0.007141951489983223
vn -0.7801151573093559 -0.625605859089328 -0.006135992935392971
vn -0.7801276038781819 -0.6255903468477442 -0.006135111914667506
vn 0.7801151573093559 0.625605859089328 0.006135992935392971
vn 0.7801276038781819 0.6255903468477442 0.006135111914667506
vn -0.8166632222504925 -0.5770475570100985 -0.00879194927873652
vn -0.8166626454749958 -0.5770483738817693 -0.008791910269494312
vn 0.8166632222504925 0.5770475570100985 0.00879194927873652
vn 0.8166626454749958 0.5770483738817693 0.008791910269494312
vn -0.8504491084933837 -0.5259402432546137 -0.011098395743819243
vn -0.8504359538278643 -0.5259614887239251 -0.011099586307743867
vn 0.8504359538278643 0.5259614887239251 0.011099586307743867
vn 0.8504491084933837 0.5259402432546137 0.011098395743819243
vn -0.8805145495276036 -0.4739078939093746 -0.010268211167592313
vn -0.8805145820431612 -0.47390783348768145 -0.010268211546775841
vn 0.8805145495276036 0.4739078939093746 0.010268211167592313
vn 0.8805145820431612 0.47390783348768145 0.010268211546775841
vn -0.9267806269971014 -0.3754758661665785 -0.009774627835226474
vn 0.9267806269971014 0.3754758661665785 0.009774627835226474
vn -0.9602064126641751 -0.2791076594040903 -0.010127168437729423
vn 0.9602064126641751 0.2791076594040903 0.010127168437729423
vn -0.9780047441828904 -0.2083274432702715 -0.010314879360950062
vn 0.9780047441828904 0.2083274432702715 0.010314879360950062
vn 0.9957041801414627 0.09199403738540837 0.010501558662877468
vn -0.9957041801414627 -0.09199403738540837 -0.010501558662877468
vn 0.9996804903423261 0.022972851959583603 0.010543495709183207
vn -0.9996804903423261 -0.022972851959583603 -0.010543495709183207
vn 0.9999443864854953 0 0.010546275937324033
vn -0.9999443864854953 0 -0.010546275937324033
vn 1.2830930235816656e-7 4.27933633799922e-8 -1
vn -1.2830930235816656e-7 -4.27933633799922e-8 1
usemtl material_0_0
f 1//1 2//2 3//1
f 2//2 1//1 4//2
f 5//3 6//4 7//3
f 8//4 7//3 6//4
f 9//5 10//5 11//5
f 10//5 9//5 12//5
f 13//5 14//5 15//5
f 14//5 13//5 16//5
f 16//5 13//5 17//5
f 17//5 13//5 18//5
f 18//5 13//5 19//5
f 18//5 19//5 20//5
f 20//5 19//5 21//5
f 21//5 19//5 22//5
f 21//5 22//5 23//5
f 21//5 23//5 10//5
f 10//5 23//5 24//5
f 10//5 24//5 25//5
f 10//5 25//5 11//5
f 21//5 10//5 26//5
f 21//5 26//5 27//5
f 21//5 27//5 28//5
f 21//5 28//5 29//5
f 30//6 31//6 32//6
f 31//6 33//6 32//6
f 33//6 34//6 32//6
f 34//6 35//6 32//6
f 36//6 37//6 35//6
f 37//6 38//6 35//6
f 38//6 39//6 35//6
f 35//6 39//6 32//6
f 39//6 40//6 32//6
f 40//6 41//6 32//6
f 32//6 41//6 42//6
f 42//6 41//6 43//6
f 41//6 44//6 43//6
f 43//6 44//6 45//6
f 45//6 44//6 46//6
f 46//6 44//6 47//6
f 48//6 47//6 44//6
f 49//6 50//6 35//6
f 36//6 35//6 50//6
f 51//7 52//7 53//7
f 52//7 51//7 54//7
f 55//8 56//8 57//8
f 58//8 57//8 56//8
f 59//9 60//1 61//1
f 60//1 59//9 62//9
f 63//10 64//10 65//4
f 66//4 65//4 64//10
f 67//6 68//6 69//6
f 68//6 67//6 70//6
f 70//6 67//6 71//6
f 71//6 67//6 72//6
f 71//6 72//6 73//6
f 73//6 72//6 74//6
f 73//6 74//6 75//6
f 75//6 74//6 76//6
f 75//6 76//6 77//6
f 77//6 76//6 78//6
f 77//6 78//6 79//6
f 79//6 78//6 80//6
f 79//6 80//6 81//6
f 81//6 80//6 82//6
f 81//6 82//6 83//6
f 83//6 82//6 84//6
f 83//6 84//6 85//6
f 85//6 84//6 86//6
f 85//6 86//6 87//6
f 88//5 89//5 90//5
f 89//5 91//5 90//5
f 90//5 91//5 92//5
f 91//5 93//5 92//5
f 92//5 93//5 94//5
f 93//5 95//5 94//5
f 94//5 95//5 96//5
f 95//5 97//5 96//5
f 96//5 97//5 98//5
f 97//5 99//5 98//5
f 98//5 99//5 100//5
f 99//5 101//5 100//5
f 100//5 101//5 102//5
f 101//5 103//5 102//5
f 102//5 103//5 104//5
f 103//5 105//5 104//5
f 104//5 105//5 106//5
f 106//5 105//5 107//5
f 108//5 107//5 105//5
f 4//2 109//11 2//2
f 109//11 4//2 110//11
f 111//12 5//3 112//12
f 7//3 112//12 5//3
f 113//5 114//5 115//5
f 114//5 113//5 116//5
f 116//5 113//5 117//5
f 118//6 119//6 120//6
f 120//6 119//6 121//6
f 122//6 121//6 119//6
f 123//5 124//5 125//5
f 124//5 123//5 126//5
f 127//5 128//5 129//5
f 128//5 127//5 130//5
f 128//5 130//5 131//5
f 128//5 131//5 132//5
f 128//5 132//5 124//5
f 128//5 124//5 126//5
f 128//5 126//5 133//5
f 128//5 133//5 134//5
f 128//5 134//5 135//5
f 128//5 135//5 136//5
f 128//5 136//5 137//5
f 128//5 137//5 138//5
f 128//5 138//5 139//5
f 139//5 138//5 140//5
f 139//5 140//5 141//5
f 141//5 140//5 142//5
f 142//5 140//5 143//5
f 144//6 145//6 146//6
f 146//6 145//6 147//6
f 147//6 145//6 148//6
f 145//6 149//6 148//6
f 148//6 149//6 150//6
f 149//6 151//6 150//6
f 151//6 152//6 150//6
f 152//6 153//6 150//6
f 153//6 154//6 150//6
f 154//6 155//6 150//6
f 155//6 156//6 150//6
f 156//6 157//6 150//6
f 157//6 158//6 150//6
f 158//6 159//6 150//6
f 159//6 160//6 150//6
f 160//6 161//6 150//6
f 162//6 150//6 161//6
f 156//6 163//6 157//6
f 164//6 157//6 163//6
f 165//7 166//7 167//7
f 166//7 165//7 168//7
f 166//7 168//7 169//7
f 166//7 169//7 170//7
f 166//7 170//7 171//7
f 166//7 171//7 172//7
f 166//7 172//7 173//7
f 166//7 173//7 174//7
f 166//7 174//7 175//7
f 166//7 175//7 176//7
f 166//7 176//7 177//7
f 166//7 177//7 178//7
f 166//7 178//7 179//7
f 166//7 179//7 180//7
f 181//8 182//8 183//8
f 182//8 184//8 183//8
f 184//8 185//8 183//8
f 185//8 186//8 183//8
f 186//8 187//8 183//8
f 187//8 188//8 183//8
f 188//8 189//8 183//8
f 189//8 190//8 183//8
f 190//8 191//8 183//8
f 191//8 192//8 183//8
f 192//8 193//8 183//8
f 193//8 194//8 183//8
f 194//8 195//8 183//8
f 196//8 183//8 195//8
f 110//11 197//13 109//11
f 197//13 110//11 198//13
f 199//14 111//12 200//14
f 112//12 200//14 111//12
f 198//13 201//15 197//13
f 201//15 198//13 202//15
f 203//16 199//14 204//16
f 200//14 204//16 199//14
f 202//15 205//17 201//15
f 205//17 202//15 206//17
f 207//18 203//16 208//18
f 204//16 208//18 203//16
f 206//17 209//19 205//17
f 209//19 206//17 210//19
f 211//20 207//18 212//20
f 208//18 212//20 207//18
f 210//19 213//21 209//19
f 213//21 210//19 214//21
f 215//22 211//20 216//22
f 212//20 216//22 211//20
f 213//21 217//23 218//23
f 217//23 213//21 214//21
f 215//22 216//22 219//24
f 220//24 219//24 216//22
f 218//23 221//25 222//25
f 221//25 218//23 217//23
f 219//24 220//24 223//26
f 224//26 223//26 220//24
f 225//27 226//28 227//28
f 226//28 225//27 228//27
f 228//27 225//27 222//25
f 228//27 222//25 221//25
f 223//26 224//26 229//29
f 224//26 230//29 229//29
f 229//29 230//29 231//30
f 232//30 231//30 230//29
f 227//28 233//31 234//31
f 233//31 227//28 226//28
f 231//30 232//30 235//32
f 236//32 235//32 232//30
f 234//31 237//33 238//33
f 237//33 234//31 233//31
f 235//32 236//32 239//34
f 240//34 239//34 236//32
f 238//33 241//35 242//35
f 241//35 238//33 237//33
f 239//34 240//34 243//36
f 244//36 243//36 240//34
f 245//37 246//37 247//37
f 246//37 245//37 248//37
f 248//37 245//37 249//37
f 249//37 245//37 250//37
f 250//37 245//37 251//37
f 251//37 245//37 252//37
f 252//37 245//37 253//37
f 253//37 245//37 254//37
f 254//37 245//37 255//37
f 255//37 245//37 256//37
f 256//37 245//37 257//37
f 257//37 245//37 258//37
f 258//37 245//37 259//37
f 259//37 245//37 260//37
f 260//37 245//37 261//37
f 252//37 253//37 262//37
f 260//37 261//37 263//37
f 264//38 265//38 266//38
f 267//38 268//38 269//38
f 265//38 270//38 266//38
f 266//38 270//38 271//38
f 271//38 270//38 272//38
f 272//38 270//38 273//38
f 273//38 270//38 274//38
f 274//38 270//38 275//38
f 275//38 270//38 276//38
f 276//38 270//38 268//38
f 268//38 270//38 269//38
f 269//38 270//38 277//38
f 277//38 270//38 278//38
f 278//38 270//38 279//38
f 279//38 270//38 280//38
f 280//38 270//38 281//38
f 282//38 281//38 270//38
f 283//6 284//6 285//6
f 284//6 283//6 286//6
f 284//6 286//6 287//6
f 287//6 286//6 288//6
f 287//6 288//6 289//6
f 289//6 288//6 290//6
f 289//6 290//6 291//6
f 291//6 290//6 292//6
f 291//6 292//6 293//6
f 293//6 292//6 294//6
f 293//6 294//6 295//6
f 295//6 294//6 296//6
f 295//6 296//6 297//6
f 297//6 296//6 298//6
f 297//6 298//6 299//6
f 299//6 298//6 300//6
f 299//6 300//6 301//6
f 301//6 300//6 302//6
f 301//6 302//6 303//6
f 304//5 305//5 306//5
f 305//5 307//5 306//5
f 306//5 307//5 308//5
f 307//5 309//5 308//5
f 308//5 309//5 310//5
f 309//5 311//5 310//5
f 310//5 311//5 312//5
f 311//5 313//5 312//5
f 312//5 313//5 314//5
f 313//5 315//5 314//5
f 314//5 315//5 316//5
f 315//5 317//5 316//5
f 316//5 317//5 318//5
f 317//5 319//5 318//5
f 318//5 319//5 320//5
f 319//5 321//5 320//5
f 320//5 321//5 322//5
f 321//5 323//5 322//5
f 324//5 322//5 323//5
f 325//39 59//9 326//39
f 59//9 325//39 62//9
f 63//10 327//40 64//10
f 328//40 64//10 327//40
f 329//5 330//5 331//5
f 330//5 329//5 332//5
f 330//5 332//5 333//5
f 334//6 335//6 336//6
f 335//6 337//6 336//6
f 338//6 336//6 337//6
f 339//41 340//41 341//41
f 340//41 339//41 342//41
f 342//41 339//41 343//41
f 343//41 339//41 344//41
f 344//41 339//41 345//41
f 345//41 339//41 346//41
f 346//41 339//41 347//41
f 347//41 339//41 348//41
f 348//41 339//41 349//41
f 349//41 339//41 350//41
f 350//41 339//41 351//41
f 351//41 339//41 352//41
f 352//41 339//41 353//41
f 353//41 339//41 354//41
f 348//41 349//41 355//41
f 348//41 355//41 356//41
f 341//41 340//41 357//41
f 358//42 359//42 360//42
f 361//42 362//42 363//42
f 362//42 364//42 363//42
f 365//42 366//42 367//42
f 367//42 366//42 368//42
f 368//42 366//42 369//42
f 369//42 366//42 370//42
f 370//42 366//42 364//42
f 364//42 366//42 363//42
f 363//42 366//42 371//42
f 371//42 366//42 372//42
f 372//42 366//42 373//42
f 373//42 366//42 374//42
f 374//42 366//42 375//42
f 375//42 366//42 376//42
f 376//42 366//42 359//42
f 360//42 359//42 366//42
f 377//43 378//44 379//44
f 378//44 377//43 380//43
f 381//45 382//45 383//46
f 384//46 383//46 382//45
f 377//43 385//47 380//43
f 385//47 377//43 386//47
f 387//48 382//45 388//48
f 381//45 388//48 382//45
f 386//47 389//49 385//47
f 389//49 386//47 390//49
f 391//50 387//48 392//50
f 388//48 392//50 387//48
f 390//49 393//51 389//49
f 393//51 390//49 394//51
f 393//51 394//51 395//52
f 395//52 394//51 396//52
f 397//53 398//54 399//53
f 399//53 398//54 400//54
f 398//54 391//50 400//54
f 392//50 400//54 391//50
f 396//52 401//55 395//52
f 401//55 396//52 402//55
f 403//56 397//53 404//56
f 399//53 404//56 397//53
f 402//55 405//57 401//55
f 405//57 402//55 406//57
f 407//58 403//56 408//58
f 404//56 408//58 403//56
f 405//57 409//59 410//59
f 409//59 405//57 406//57
f 407//58 408//58 411//60
f 412//60 411//60 408//58
f 409//59 413//61 410//59
f 413//61 409//59 414//61
f 415//62 411//60 416//62
f 412//60 416//62 411//60
f 414//61 417//63 413//61
f 417//63 414//61 418//63
f 419//64 415//62 420//64
f 416//62 420//64 415//62
f 418//63 421//65 417//63
f 421//65 418//63 422//65
f 423//66 419//64 424//66
f 420//64 424//66 419//64
f 422//65 326//39 421//65
f 326//39 422//65 325//39
f 327//40 423//66 328//40
f 424//66 328//40 423//66
f 425//6 426//6 427//6
f 426//6 425//6 428//6
f 428//6 425//6 429//6
f 428//6 429//6 430//6
f 428//6 430//6 431//6
f 431//6 430//6 432//6
f 431//6 432//6 433//6
f 431//6 433//6 434//6
f 435//5 436//5 437//5
f 436//5 438//5 437//5
f 438//5 439//5 437//5
f 437//5 439//5 440//5
f 439//5 441//5 440//5
f 441//5 442//5 440//5
f 440//5 442//5 443//5
f 444//5 443//5 442//5
f 445//67 446//67 447//68
f 448//69 449//70 450//70
f 451//6 452//6 453//6
f 452//6 451//6 454//6
f 455//5 456//5 457//5
f 458//5 457//5 456//5
f 459//71 460//72 461//71
f 460//72 459//71 462//72
f 463//73 464//74 465//73
f 466//74 465//73 464//74
f 462//72 467//75 460//72
f 467//75 462//72 468//75
f 469//76 463//73 470//76
f 465//73 470//76 463//73
f 467//75 471//77 472//77
f 471//77 467//75 468//75
f 469//76 470//76 473//78
f 474//78 473//78 470//76
f 475//79 474//78 476//79
f 474//78 475//79 473//78
f 471//77 477//80 472//77
f 478//80 472//77 477//80
f 479//81 475//79 476//79
f 475//79 479//81 480//81
f 481//82 482//82 477//80
f 478//80 477//80 482//82
f 483//83 479//81 484//83
f 479//81 483//83 480//81
f 481//82 485//84 482//82
f 486//84 482//82 485//84
f 487//85 488//85 489//85
f 488//85 487//85 490//85
f 491//86 492//86 493//86
f 494//86 493//86 492//86
f 487//85 488//85 489//85
f 488//85 487//85 490//85
f 491//86 492//86 493//86
f 494//86 493//86 492//86
f 495//87 496//88 497//89
f 496//88 495//87 498//88
f 499//90 500//91 501//90
f 502//92 501//90 500//91
f 495//87 503//93 504//93
f 503//93 495//87 497//89
f 502//92 500//91 505//94
f 506//94 505//94 500//91
f 507//95 508//95 509//95
f 508//95 507//95 510//95
f 511//96 512//96 513//96
f 514//96 513//96 512//96
f 507//95 508//95 509//95
f 508//95 507//95 510//95
f 511//96 512//96 513//96
f 514//96 513//96 512//96
f 515//97 516//98 517//98
f 516//98 515//97 518//97
f 519//99 520//99 521//100
f 522//100 521//100 520//99
f 517//98 523//101 524//101
f 523//101 517//98 516//98
f 521//100 522//100 525//102
f 526//102 525//102 522//100
f 524//101 527//103 528//103
f 527//103 524//101 523//101
f 525//102 526//102 529//104
f 530//104 529//104 526//102
f 528//103 531//105 532//105
f 531//105 528//103 527//103
f 529//104 530//104 533//106
f 534//106 533//106 530//104
f 532//105 450//70 449//70
f 450//70 532//105 531//105
f 533//106 534//106 445//67
f 446//67 445//67 534//106
f 535//107 536//108 537//108
f 538//109 539//109 540//110
f 541//111 538//109 542//111
f 538//109 541//111 539//109
f 536//108 543//112 537//108
f 544//112 537//108 543//112
f 545//113 542//111 546//113
f 542//111 545//113 541//111
f 543//112 547//114 544//112
f 548//114 544//112 547//114
f 549//115 546//113 550//115
f 546//113 549//115 545//113
f 547//114 551//116 548//114
f 552//116 548//114 551//116
f 553//117 550//115 554//117
f 550//115 553//117 549//115
f 551//116 555//118 552//116
f 556//118 552//116 555//118
f 557//119 554//117 558//120
f 554//117 557//119 553//117
f 555//118 559//121 556//118
f 560//122 556//118 559//121
f 561//123 558//120 562//124
f 558//120 561//123 557//119
f 559//121 563//125 560//122
f 564//126 560//122 563//125
f 565//127 562//124 566//128
f 562//124 565//127 561//123
f 563//125 567//129 564//126
f 568//130 564//126 567//129
f 569//131 565//127 566//128
f 565//127 569//131 570//132
f 571//133 572//134 567//129
f 568//130 567//129 572//134
f 573//135 569//131 574//136
f 569//131 573//135 570//132
f 571//133 575//137 572//134
f 576//138 572//134 575//137
f 577//139 573//135 574//136
f 573//135 577//139 578//139
f 579//140 580//140 575//137
f 576//138 575//137 580//140
f 581//141 577//139 582//141
f 577//139 581//141 578//139
f 579//140 583//142 580//140
f 584//142 580//140 583//142
f 585//143 582//141 586//143
f 582//141 585//143 581//141
f 583//142 587//144 584//142
f 588//144 584//142 587//144
f 587//144 589//145 588//144
f 589//145 587//144 590//145
f 591//146 585//143 592//146
f 586//143 592//146 585//143
f 590//145 593//147 589//145
f 593//147 590//145 594//147
f 595//148 591//146 596//148
f 592//146 596//148 591//146
f 594//147 597//149 593//147
f 597//149 594//147 598//149
f 599//150 595//148 600//150
f 596//148 600//150 595//148
f 601//6 602//6 603//6
f 602//6 601//6 604//6
f 604//6 601//6 605//6
f 604//6 605//6 606//6
f 606//6 605//6 607//6
f 606//6 607//6 608//6
f 608//6 607//6 609//6
f 608//6 609//6 610//6
f 611//5 612//5 613//5
f 612//5 614//5 613//5
f 613//5 614//5 615//5
f 614//5 616//5 615//5
f 615//5 616//5 617//5
f 616//5 618//5 617//5
f 617//5 618//5 619//5
f 620//5 619//5 618//5
f 621//6 622//6 623//6
f 622//6 621//6 624//6
f 625//5 626//5 627//5
f 628//5 627//5 626//5
f 629//1 630//1 631//1
f 630//1 629//1 632//1
f 632//1 629//1 633//1
f 633//1 629//1 634//1
f 634//1 629//1 635//1
f 635//1 629//1 636//1
f 636//1 629//1 637//1
f 637//1 629//1 638//1
f 638//1 629//1 639//1
f 639//1 629//1 640//1
f 640//1 629//1 641//1
f 641//1 629//1 642//1
f 642//1 629//1 643//1
f 643//1 629//1 644//1
f 644//1 629//1 645//1
f 638//1 639//1 646//1
f 631//1 630//1 647//1
f 648//4 649//4 650//4
f 651//4 652//4 653//4
f 654//4 655//4 656//4
f 656//4 655//4 657//4
f 657//4 655//4 658//4
f 658//4 655//4 659//4
f 659//4 655//4 660//4
f 660//4 655//4 652//4
f 652//4 655//4 653//4
f 653//4 655//4 661//4
f 661//4 655//4 662//4
f 662//4 655//4 663//4
f 663//4 655//4 664//4
f 664//4 655//4 665//4
f 665//4 655//4 666//4
f 666//4 655//4 649//4
f 650//4 649//4 655//4
f 667//151 668//151 669//151
f 668//151 667//151 670//151
f 670//151 667//151 671//151
f 671//151 667//151 672//151
f 672//151 667//151 673//151
f 673//151 667//151 674//151
f 674//151 667//151 675//151
f 675//151 667//151 676//151
f 676//151 667//151 677//151
f 677//151 667//151 678//151
f 678//151 667//151 679//151
f 679//151 667//151 680//151
f 680//151 667//151 681//151
f 681//151 667//151 682//151
f 682//151 667//151 683//151
f 674//151 675//151 684//151
f 682//151 683//151 685//151
f 686//152 687//152 688//152
f 689//152 690//152 691//152
f 687//152 692//152 688//152
f 688//152 692//152 693//152
f 693//152 692//152 694//152
f 694//152 692//152 695//152
f 695//152 692//152 696//152
f 696//152 692//152 697//152
f 697//152 692//152 698//152
f 698//152 692//152 690//152
f 690//152 692//152 691//152
f 691//152 692//152 699//152
f 699//152 692//152 700//152
f 700//152 692//152 701//152
f 701//152 692//152 702//152
f 702//152 692//152 703//152
f 704//152 703//152 692//152
