# SSTK version 0.8.0
# 27
mtllib original-27.mtl
o #ID151
v 0.330631 -0.402936 0.410477
v -0.278453 -0.430626 0.410477
v 0.330631 -0.430626 0.410477
v -0.278453 -0.402936 0.410477
v -0.278453 -0.402936 0.410477
v 0.330631 -0.402936 0.410477
v -0.278453 -0.430626 0.410477
v 0.330631 -0.430626 0.410477
v -0.278453 -0.430626 0.410477
v -0.278453 -0.402936 0.425609
v -0.278453 -0.430626 0.425609
v -0.278453 -0.402936 0.410477
v -0.278453 -0.402936 0.410477
v -0.278453 -0.430626 0.410477
v -0.278453 -0.402936 0.425609
v -0.278453 -0.430626 0.425609
v 0.330631 -0.402936 0.410477
v 0.330631 -0.430626 0.425609
v 0.330631 -0.402936 0.425609
v 0.330631 -0.430626 0.410477
v 0.330631 -0.430626 0.410477
v 0.330631 -0.402936 0.410477
v 0.330631 -0.430626 0.425609
v 0.330631 -0.402936 0.425609
v -0.278453 -0.402936 0.425609
v 0.330631 -0.430626 0.425609
v -0.278453 -0.430626 0.425609
v 0.330631 -0.402936 0.425609
v 0.330631 -0.402936 0.425609
v -0.278453 -0.402936 0.425609
v 0.330631 -0.430626 0.425609
v -0.278453 -0.430626 0.425609
vn 0 0 1
vn 1 0 0
vn -1 0 0
vn 0 0 -1
usemtl material_0_0
f 5//4 6//4 7//4
f 8//4 7//4 6//4
f 13//3 14//3 15//3
f 16//3 15//3 14//3
f 21//2 22//2 23//2
f 24//2 23//2 22//2
f 29//1 30//1 31//1
f 32//1 31//1 30//1
usemtl material_1_0
f 1//1 2//1 3//1
f 2//1 1//1 4//1
f 9//2 10//2 11//2
f 10//2 9//2 12//2
f 17//3 18//3 19//3
f 18//3 17//3 20//3
f 25//4 26//4 27//4
f 26//4 25//4 28//4
