# SSTK version 0.8.0
# 64
mtllib original-64.mtl
o #ID292
v 0.250566 0.247699 0.673597
v 0.244667 0.248476 0.480346
v 0.244667 0.248476 0.673597
v 0.250566 0.247699 0.480346
v 0.250566 0.247699 0.480346
v 0.250566 0.247699 0.673597
v 0.244667 0.248476 0.480346
v 0.244667 0.248476 0.673597
v 0.239170 0.250753 0.480346
v 0.239170 0.250753 0.673597
v 0.239170 0.250753 0.480346
v 0.239170 0.250753 0.673597
v 0.256466 0.248476 0.673597
v 0.256466 0.248476 0.480346
v 0.256466 0.248476 0.480346
v 0.256466 0.248476 0.673597
v 0.234450 0.254375 0.480346
v 0.234450 0.254375 0.673597
v 0.234450 0.254375 0.480346
v 0.234450 0.254375 0.673597
v 0.261963 0.250753 0.673597
v 0.261963 0.250753 0.480346
v 0.261963 0.250753 0.480346
v 0.261963 0.250753 0.673597
v 0.230827 0.259095 0.673597
v 0.230827 0.259095 0.480346
v 0.230827 0.259095 0.480346
v 0.230827 0.259095 0.673597
v 0.266683 0.254375 0.673597
v 0.266683 0.254375 0.480346
v 0.266683 0.254375 0.480346
v 0.266683 0.254375 0.673597
v 0.228550 0.264593 0.673597
v 0.228550 0.264593 0.480346
v 0.228550 0.264593 0.480346
v 0.228550 0.264593 0.673597
v 0.270306 0.259095 0.480346
v 0.270306 0.259095 0.673597
v 0.270306 0.259095 0.480346
v 0.270306 0.259095 0.673597
v 0.227774 0.270492 0.673597
v 0.227774 0.270492 0.480346
v 0.227774 0.270492 0.480346
v 0.227774 0.270492 0.673597
v 0.272583 0.264593 0.480346
v 0.272583 0.264593 0.673597
v 0.272583 0.264593 0.480346
v 0.272583 0.264593 0.673597
v 0.228550 0.276391 0.673597
v 0.228550 0.276391 0.480346
v 0.228550 0.276391 0.480346
v 0.228550 0.276391 0.673597
v 0.273359 0.270492 0.480346
v 0.273359 0.270492 0.673597
v 0.273359 0.270492 0.480346
v 0.273359 0.270492 0.673597
v 0.230827 0.281888 0.673597
v 0.230827 0.281888 0.480346
v 0.230827 0.281888 0.480346
v 0.230827 0.281888 0.673597
v 0.272583 0.276391 0.480346
v 0.272583 0.276391 0.673597
v 0.272583 0.276391 0.480346
v 0.272583 0.276391 0.673597
v 0.234450 0.286609 0.673597
v 0.234450 0.286609 0.480346
v 0.234450 0.286609 0.480346
v 0.234450 0.286609 0.673597
v 0.270306 0.281888 0.480346
v 0.270306 0.281888 0.673597
v 0.270306 0.281888 0.480346
v 0.270306 0.281888 0.673597
v 0.239170 0.290231 0.480346
v 0.239170 0.290231 0.673597
v 0.239170 0.290231 0.673597
v 0.239170 0.290231 0.480346
v 0.266683 0.286609 0.480346
v 0.266683 0.286609 0.673597
v 0.266683 0.286609 0.480346
v 0.266683 0.286609 0.673597
v 0.244667 0.292508 0.480346
v 0.244667 0.292508 0.673597
v 0.244667 0.292508 0.673597
v 0.244667 0.292508 0.480346
v 0.261963 0.290231 0.673597
v 0.261963 0.290231 0.480346
v 0.261963 0.290231 0.673597
v 0.261963 0.290231 0.480346
v 0.250566 0.293285 0.480346
v 0.250566 0.293285 0.673597
v 0.250566 0.293285 0.673597
v 0.250566 0.293285 0.480346
v 0.256466 0.292508 0.673597
v 0.256466 0.292508 0.480346
v 0.256466 0.292508 0.673597
v 0.256466 0.292508 0.480346
vn 0 1 0
vn 0.25881900959356163 0.9659258358036646 0
vn 0 -1 0
vn -0.25881900959356163 -0.9659258358036646 0
vn 0.50000000163871 0.866025402838329 0
vn -0.50000000163871 -0.866025402838329 0
vn -0.25881900959356163 0.9659258358036646 0
vn 0.25881900959356163 -0.9659258358036646 0
vn 0.7071067811865476 0.7071067811865476 0
vn -0.7071067811865476 -0.7071067811865476 0
vn -0.50000000163871 0.866025402838329 0
vn 0.50000000163871 -0.866025402838329 0
vn 0.866025402838329 0.50000000163871 0
vn -0.866025402838329 -0.50000000163871 0
vn -0.7071067811865476 0.7071067811865476 0
vn 0.7071067811865476 -0.7071067811865476 0
vn 0.9659258358036646 0.25881900959356163 0
vn -0.9659258358036646 -0.25881900959356163 0
vn -0.866025402838329 0.50000000163871 0
vn 0.866025402838329 -0.50000000163871 0
vn 1 0 0
vn -1 0 0
vn -0.9659258358036646 0.25881900959356163 0
vn 0.9659258358036646 -0.25881900959356163 0
usemtl material_0_0
f 1//1 2//2 3//2
f 2//2 1//1 4//1
f 5//3 6//3 7//4
f 8//4 7//4 6//3
f 3//2 9//5 10//5
f 9//5 3//2 2//2
f 7//4 8//4 11//6
f 12//6 11//6 8//4
f 13//7 4//1 1//1
f 4//1 13//7 14//7
f 15//8 16//8 5//3
f 6//3 5//3 16//8
f 10//5 17//9 18//9
f 17//9 10//5 9//5
f 11//6 12//6 19//10
f 20//10 19//10 12//6
f 21//11 14//7 13//7
f 14//7 21//11 22//11
f 23//12 24//12 15//8
f 16//8 15//8 24//12
f 17//9 25//13 18//9
f 25//13 17//9 26//13
f 27//14 19//10 28//14
f 20//10 28//14 19//10
f 29//15 22//11 21//11
f 22//11 29//15 30//15
f 31//16 32//16 23//12
f 24//12 23//12 32//16
f 26//13 33//17 25//13
f 33//17 26//13 34//17
f 35//18 27//14 36//18
f 28//14 36//18 27//14
f 37//19 29//15 38//19
f 29//15 37//19 30//15
f 31//16 39//20 32//16
f 40//20 32//16 39//20
f 34//17 41//21 33//17
f 41//21 34//17 42//21
f 43//22 35//18 44//22
f 36//18 44//22 35//18
f 45//23 38//19 46//23
f 38//19 45//23 37//19
f 39//20 47//24 40//20
f 48//24 40//20 47//24
f 42//21 49//24 41//21
f 49//24 42//21 50//24
f 51//23 43//22 52//23
f 44//22 52//23 43//22
f 53//22 46//23 54//22
f 46//23 53//22 45//23
f 47//24 55//21 48//24
f 56//21 48//24 55//21
f 50//24 57//20 49//24
f 57//20 50//24 58//20
f 59//19 51//23 60//19
f 52//23 60//19 51//23
f 61//18 54//22 62//18
f 54//22 61//18 53//22
f 55//21 63//17 56//21
f 64//17 56//21 63//17
f 58//20 65//16 57//20
f 65//16 58//20 66//16
f 67//15 59//19 68//15
f 60//19 68//15 59//19
f 69//14 62//18 70//14
f 62//18 69//14 61//18
f 63//17 71//13 64//17
f 72//13 64//17 71//13
f 73//12 65//16 66//16
f 65//16 73//12 74//12
f 75//11 76//11 68//15
f 67//15 68//15 76//11
f 77//10 70//14 78//10
f 70//14 77//10 69//14
f 71//13 79//9 72//13
f 80//9 72//13 79//9
f 81//8 74//12 73//12
f 74//12 81//8 82//8
f 83//7 84//7 75//11
f 76//11 75//11 84//7
f 77//10 85//6 86//6
f 85//6 77//10 78//10
f 80//9 79//9 87//5
f 88//5 87//5 79//9
f 89//3 82//8 81//8
f 82//8 89//3 90//3
f 91//1 92//1 83//7
f 84//7 83//7 92//1
f 86//6 93//4 94//4
f 93//4 86//6 85//6
f 87//5 88//5 95//2
f 96//2 95//2 88//5
f 94//4 90//3 89//3
f 90//3 94//4 93//4
f 95//2 96//2 91//1
f 92//1 91//1 96//2
