# SSTK version 0.8.0
# 23
mtllib original-23.mtl
o #ID125
v -0.344266 -0.402936 0.188908
v 0.396444 -0.430626 0.188908
v -0.344266 -0.430626 0.188908
v 0.396444 -0.402936 0.188908
v -0.288886 -0.402936 0.188908
v 0.341064 -0.402936 0.188908
v 0.341064 -0.402936 0.188908
v -0.288886 -0.402936 0.188908
v 0.396444 -0.402936 0.188908
v -0.344266 -0.402936 0.188908
v 0.396444 -0.430626 0.188908
v -0.344266 -0.430626 0.188908
v -0.288886 -0.402936 0.508036
v -0.344266 -0.402936 0.188908
v -0.344266 -0.402936 0.508036
v -0.288886 -0.402936 0.292053
v -0.288886 -0.402936 0.188908
v -0.288886 -0.402936 0.472039
v -0.288886 -0.402936 0.436042
v -0.288886 -0.402936 0.400044
v -0.288886 -0.402936 0.364047
v -0.288886 -0.402936 0.328050
v -0.288886 -0.402936 0.256056
v -0.288886 -0.402936 0.222482
v -0.288886 -0.402936 0.222482
v -0.288886 -0.402936 0.256056
v -0.288886 -0.402936 0.188908
v -0.288886 -0.402936 0.292053
v -0.288886 -0.402936 0.328050
v -0.288886 -0.402936 0.364047
v -0.288886 -0.402936 0.400044
v -0.288886 -0.402936 0.436042
v -0.288886 -0.402936 0.472039
v -0.288886 -0.402936 0.508036
v -0.344266 -0.402936 0.188908
v -0.344266 -0.402936 0.508036
v -0.278453 -0.402936 0.212049
v 0.341064 -0.402936 0.222482
v 0.330631 -0.402936 0.212049
v 0.330631 -0.402936 0.199340
v -0.278453 -0.402936 0.199340
v 0.341064 -0.402936 0.188908
v 0.341064 -0.402936 0.222482
v 0.330631 -0.402936 0.199340
v 0.341064 -0.402936 0.188908
v -0.278453 -0.402936 0.199340
v -0.278453 -0.402936 0.212049
v 0.330631 -0.402936 0.212049
v 0.396444 -0.402936 0.508036
v 0.341064 -0.402936 0.472039
v 0.341064 -0.402936 0.508036
v 0.341064 -0.402936 0.436042
v 0.341064 -0.402936 0.400044
v 0.341064 -0.402936 0.364047
v 0.341064 -0.402936 0.328050
v 0.341064 -0.402936 0.292053
v 0.341064 -0.402936 0.256056
v 0.396444 -0.402936 0.188908
v 0.396444 -0.402936 0.188908
v 0.396444 -0.402936 0.508036
v 0.341064 -0.402936 0.256056
v 0.341064 -0.402936 0.292053
v 0.341064 -0.402936 0.328050
v 0.341064 -0.402936 0.364047
v 0.341064 -0.402936 0.400044
v 0.341064 -0.402936 0.436042
v 0.341064 -0.402936 0.472039
v 0.341064 -0.402936 0.508036
v 0.396444 -0.430626 0.188908
v 0.396444 -0.402936 0.508036
v 0.396444 -0.430626 0.508036
v 0.396444 -0.402936 0.188908
v 0.396444 -0.402936 0.188908
v 0.396444 -0.430626 0.188908
v 0.396444 -0.402936 0.508036
v 0.396444 -0.430626 0.508036
v -0.344266 -0.430626 0.188908
v -0.278453 -0.430626 0.199340
v -0.344266 -0.430626 0.508036
v 0.396444 -0.430626 0.188908
v -0.278453 -0.430626 0.281621
v -0.278453 -0.430626 0.245624
v 0.330631 -0.430626 0.199340
v 0.330631 -0.430626 0.212049
v 0.330631 -0.430626 0.232914
v 0.330631 -0.430626 0.245624
v 0.330631 -0.430626 0.266488
v 0.330631 -0.430626 0.281621
v 0.330631 -0.430626 0.302486
v 0.330631 -0.430626 0.317618
v 0.330631 -0.430626 0.338483
v 0.330631 -0.430626 0.353615
v 0.330631 -0.430626 0.374480
v 0.330631 -0.430626 0.389612
v 0.330631 -0.430626 0.410477
v 0.330631 -0.430626 0.425609
v 0.330631 -0.430626 0.446474
v 0.330631 -0.430626 0.461606
v 0.330631 -0.430626 0.482471
v 0.330631 -0.430626 0.497603
v -0.278453 -0.430626 0.497603
v 0.396444 -0.430626 0.508036
v -0.278453 -0.430626 0.302486
v -0.278453 -0.430626 0.317618
v -0.278453 -0.430626 0.338483
v -0.278453 -0.430626 0.353615
v -0.278453 -0.430626 0.374480
v -0.278453 -0.430626 0.389612
v -0.278453 -0.430626 0.410477
v -0.278453 -0.430626 0.425609
v -0.278453 -0.430626 0.446474
v -0.278453 -0.430626 0.461606
v -0.278453 -0.430626 0.482471
v -0.278453 -0.430626 0.266488
v -0.278453 -0.430626 0.232914
v -0.278453 -0.430626 0.212049
v 0.330631 -0.430626 0.232914
v 0.330631 -0.430626 0.212049
v -0.278453 -0.430626 0.232914
v -0.278453 -0.430626 0.212049
v -0.278453 -0.430626 0.199340
v -0.278453 -0.430626 0.245624
v 0.330631 -0.430626 0.266488
v 0.330631 -0.430626 0.245624
v -0.278453 -0.430626 0.266488
v -0.278453 -0.430626 0.281621
v 0.330631 -0.430626 0.302486
v 0.330631 -0.430626 0.281621
v -0.278453 -0.430626 0.302486
v 0.330631 -0.430626 0.338483
v 0.330631 -0.430626 0.317618
v -0.278453 -0.430626 0.338483
v -0.278453 -0.430626 0.317618
v 0.330631 -0.430626 0.374480
v 0.330631 -0.430626 0.353615
v -0.278453 -0.430626 0.374480
v -0.278453 -0.430626 0.353615
v 0.330631 -0.430626 0.410477
v 0.330631 -0.430626 0.389612
v -0.278453 -0.430626 0.410477
v -0.278453 -0.430626 0.389612
v 0.330631 -0.430626 0.446474
v 0.330631 -0.430626 0.425609
v -0.278453 -0.430626 0.446474
v -0.278453 -0.430626 0.425609
v 0.330631 -0.430626 0.482471
v 0.330631 -0.430626 0.461606
v -0.278453 -0.430626 0.482471
v -0.278453 -0.430626 0.461606
v 0.396444 -0.430626 0.188908
v 0.330631 -0.430626 0.497603
v 0.396444 -0.430626 0.508036
v -0.278453 -0.430626 0.497603
v -0.344266 -0.430626 0.508036
v 0.330631 -0.430626 0.199340
v -0.344266 -0.430626 0.188908
v -0.344266 -0.402936 0.188908
v -0.344266 -0.430626 0.508036
v -0.344266 -0.402936 0.508036
v -0.344266 -0.430626 0.188908
v -0.344266 -0.430626 0.188908
v -0.344266 -0.402936 0.188908
v -0.344266 -0.430626 0.508036
v -0.344266 -0.402936 0.508036
v 0.396444 -0.402936 0.508036
v -0.344266 -0.430626 0.508036
v 0.396444 -0.430626 0.508036
v -0.344266 -0.402936 0.508036
v 0.341064 -0.402936 0.508036
v -0.288886 -0.402936 0.508036
v -0.288886 -0.402936 0.508036
v 0.341064 -0.402936 0.508036
v -0.344266 -0.402936 0.508036
v 0.396444 -0.402936 0.508036
v -0.344266 -0.430626 0.508036
v 0.396444 -0.430626 0.508036
v -0.278453 -0.402936 0.497603
v 0.330631 -0.402936 0.497603
v 0.330631 -0.402936 0.482471
v -0.278453 -0.402936 0.482471
v 0.330631 -0.402936 0.482471
v -0.278453 -0.402936 0.482471
v -0.278453 -0.402936 0.497603
v 0.330631 -0.402936 0.497603
v -0.278453 -0.402936 0.461606
v 0.330631 -0.402936 0.461606
v 0.330631 -0.402936 0.446474
v -0.278453 -0.402936 0.446474
v 0.330631 -0.402936 0.446474
v -0.278453 -0.402936 0.446474
v -0.278453 -0.402936 0.461606
v 0.330631 -0.402936 0.461606
v -0.278453 -0.402936 0.425609
v 0.330631 -0.402936 0.425609
v 0.330631 -0.402936 0.410477
v -0.278453 -0.402936 0.410477
v 0.330631 -0.402936 0.410477
v -0.278453 -0.402936 0.410477
v -0.278453 -0.402936 0.425609
v 0.330631 -0.402936 0.425609
v -0.278453 -0.402936 0.389612
v 0.330631 -0.402936 0.389612
v 0.330631 -0.402936 0.374480
v -0.278453 -0.402936 0.374480
v 0.330631 -0.402936 0.374480
v -0.278453 -0.402936 0.374480
v -0.278453 -0.402936 0.389612
v 0.330631 -0.402936 0.389612
v -0.278453 -0.402936 0.353615
v 0.330631 -0.402936 0.353615
v 0.330631 -0.402936 0.338483
v -0.278453 -0.402936 0.338483
v 0.330631 -0.402936 0.338483
v -0.278453 -0.402936 0.338483
v -0.278453 -0.402936 0.353615
v 0.330631 -0.402936 0.353615
v -0.278453 -0.402936 0.317618
v 0.330631 -0.402936 0.317618
v 0.330631 -0.402936 0.302486
v -0.278453 -0.402936 0.302486
v 0.330631 -0.402936 0.302486
v -0.278453 -0.402936 0.302486
v -0.278453 -0.402936 0.317618
v 0.330631 -0.402936 0.317618
v -0.278453 -0.402936 0.281621
v 0.330631 -0.402936 0.281621
v 0.330631 -0.402936 0.266488
v -0.278453 -0.402936 0.266488
v 0.330631 -0.402936 0.266488
v -0.278453 -0.402936 0.266488
v -0.278453 -0.402936 0.281621
v 0.330631 -0.402936 0.281621
v -0.278453 -0.402936 0.245624
v 0.330631 -0.402936 0.245624
v 0.330631 -0.402936 0.232914
v -0.278453 -0.402936 0.232914
v 0.330631 -0.402936 0.232914
v -0.278453 -0.402936 0.232914
v -0.278453 -0.402936 0.245624
v 0.330631 -0.402936 0.245624
vn 0 0 -1
vn 0 1 0
vn 1 0 0
vn 0 -1 0
vn -1 0 0
vn 0 0 1
usemtl material_0_0
f 7//6 8//6 9//6
f 8//6 10//6 9//6
f 9//6 10//6 11//6
f 12//6 11//6 10//6
f 25//4 26//4 27//4
f 26//4 28//4 27//4
f 29//4 30//4 28//4
f 30//4 31//4 28//4
f 31//4 32//4 28//4
f 32//4 33//4 28//4
f 33//4 34//4 28//4
f 27//4 28//4 35//4
f 28//4 34//4 35//4
f 36//4 35//4 34//4
f 43//4 44//4 45//4
f 44//4 46//4 45//4
f 47//4 27//4 46//4
f 45//4 46//4 27//4
f 44//4 43//4 48//4
f 48//4 43//4 47//4
f 43//4 25//4 47//4
f 27//4 47//4 25//4
f 59//4 60//4 45//4
f 45//4 60//4 43//4
f 43//4 60//4 61//4
f 61//4 60//4 62//4
f 62//4 60//4 63//4
f 63//4 60//4 64//4
f 64//4 60//4 65//4
f 65//4 60//4 66//4
f 66//4 60//4 67//4
f 68//4 67//4 60//4
f 73//5 74//5 75//5
f 76//5 75//5 74//5
f 117//2 118//2 119//2
f 118//2 120//2 119//2
f 120//2 121//2 119//2
f 122//2 119//2 121//2
f 123//2 124//2 125//2
f 124//2 122//2 125//2
f 126//2 125//2 122//2
f 127//2 128//2 129//2
f 126//2 129//2 128//2
f 130//2 131//2 132//2
f 133//2 132//2 131//2
f 134//2 135//2 136//2
f 137//2 136//2 135//2
f 138//2 139//2 140//2
f 141//2 140//2 139//2
f 142//2 143//2 144//2
f 145//2 144//2 143//2
f 146//2 147//2 148//2
f 149//2 148//2 147//2
f 150//2 151//2 152//2
f 151//2 153//2 152//2
f 148//2 149//2 153//2
f 149//2 144//2 153//2
f 144//2 145//2 153//2
f 145//2 140//2 153//2
f 140//2 141//2 153//2
f 141//2 136//2 153//2
f 136//2 137//2 153//2
f 137//2 132//2 153//2
f 132//2 133//2 153//2
f 133//2 129//2 153//2
f 129//2 126//2 153//2
f 126//2 154//2 153//2
f 152//2 153//2 154//2
f 151//2 150//2 146//2
f 146//2 150//2 147//2
f 147//2 150//2 142//2
f 142//2 150//2 143//2
f 143//2 150//2 138//2
f 138//2 150//2 139//2
f 139//2 150//2 134//2
f 134//2 150//2 135//2
f 135//2 150//2 130//2
f 130//2 150//2 131//2
f 131//2 150//2 127//2
f 127//2 150//2 128//2
f 128//2 150//2 123//2
f 123//2 150//2 124//2
f 124//2 150//2 117//2
f 117//2 150//2 118//2
f 118//2 150//2 155//2
f 155//2 150//2 121//2
f 122//2 121//2 126//2
f 126//2 121//2 154//2
f 150//2 156//2 121//2
f 154//2 121//2 156//2
f 161//3 162//3 163//3
f 164//3 163//3 162//3
f 171//1 172//1 173//1
f 172//1 174//1 173//1
f 173//1 174//1 175//1
f 176//1 175//1 174//1
f 68//4 181//4 67//4
f 181//4 182//4 67//4
f 183//4 33//4 182//4
f 67//4 182//4 33//4
f 181//4 68//4 184//4
f 184//4 68//4 183//4
f 68//4 34//4 183//4
f 33//4 183//4 34//4
f 67//4 189//4 66//4
f 189//4 190//4 66//4
f 191//4 32//4 190//4
f 66//4 190//4 32//4
f 189//4 67//4 192//4
f 192//4 67//4 191//4
f 67//4 33//4 191//4
f 32//4 191//4 33//4
f 66//4 197//4 65//4
f 197//4 198//4 65//4
f 199//4 31//4 198//4
f 65//4 198//4 31//4
f 197//4 66//4 200//4
f 200//4 66//4 199//4
f 66//4 32//4 199//4
f 31//4 199//4 32//4
f 65//4 205//4 64//4
f 205//4 206//4 64//4
f 207//4 30//4 206//4
f 64//4 206//4 30//4
f 205//4 65//4 208//4
f 208//4 65//4 207//4
f 65//4 31//4 207//4
f 30//4 207//4 31//4
f 64//4 213//4 63//4
f 213//4 214//4 63//4
f 215//4 29//4 214//4
f 63//4 214//4 29//4
f 213//4 64//4 216//4
f 216//4 64//4 215//4
f 64//4 30//4 215//4
f 29//4 215//4 30//4
f 63//4 221//4 62//4
f 221//4 222//4 62//4
f 223//4 28//4 222//4
f 62//4 222//4 28//4
f 221//4 63//4 224//4
f 224//4 63//4 223//4
f 63//4 29//4 223//4
f 28//4 223//4 29//4
f 62//4 229//4 61//4
f 229//4 230//4 61//4
f 231//4 26//4 230//4
f 61//4 230//4 26//4
f 229//4 62//4 232//4
f 232//4 62//4 231//4
f 62//4 28//4 231//4
f 26//4 231//4 28//4
f 61//4 237//4 43//4
f 237//4 238//4 43//4
f 239//4 25//4 238//4
f 43//4 238//4 25//4
f 237//4 61//4 240//4
f 240//4 61//4 239//4
f 61//4 26//4 239//4
f 25//4 239//4 26//4
usemtl material_1_0
f 1//1 2//1 3//1
f 2//1 1//1 4//1
f 4//1 1//1 5//1
f 4//1 5//1 6//1
f 13//2 14//2 15//2
f 14//2 13//2 16//2
f 14//2 16//2 17//2
f 16//2 13//2 18//2
f 16//2 18//2 19//2
f 16//2 19//2 20//2
f 16//2 20//2 21//2
f 16//2 21//2 22//2
f 17//2 16//2 23//2
f 17//2 23//2 24//2
f 24//2 37//2 17//2
f 37//2 24//2 38//2
f 37//2 38//2 39//2
f 39//2 38//2 40//2
f 17//2 41//2 42//2
f 41//2 17//2 37//2
f 42//2 41//2 40//2
f 42//2 40//2 38//2
f 49//2 50//2 51//2
f 50//2 49//2 52//2
f 52//2 49//2 53//2
f 53//2 49//2 54//2
f 54//2 49//2 55//2
f 55//2 49//2 56//2
f 56//2 49//2 57//2
f 57//2 49//2 38//2
f 38//2 49//2 42//2
f 42//2 49//2 58//2
f 69//3 70//3 71//3
f 70//3 69//3 72//3
f 77//4 78//4 79//4
f 78//4 77//4 80//4
f 79//4 78//4 81//4
f 81//4 78//4 82//4
f 78//4 80//4 83//4
f 83//4 80//4 84//4
f 84//4 80//4 85//4
f 85//4 80//4 86//4
f 86//4 80//4 87//4
f 87//4 80//4 88//4
f 88//4 80//4 89//4
f 89//4 80//4 90//4
f 90//4 80//4 91//4
f 91//4 80//4 92//4
f 92//4 80//4 93//4
f 93//4 80//4 94//4
f 94//4 80//4 95//4
f 95//4 80//4 96//4
f 96//4 80//4 97//4
f 97//4 80//4 98//4
f 98//4 80//4 99//4
f 99//4 80//4 100//4
f 79//4 101//4 102//4
f 101//4 79//4 81//4
f 101//4 81//4 103//4
f 101//4 103//4 104//4
f 101//4 104//4 105//4
f 101//4 105//4 106//4
f 101//4 106//4 107//4
f 101//4 107//4 108//4
f 101//4 108//4 109//4
f 101//4 109//4 110//4
f 101//4 110//4 111//4
f 101//4 111//4 112//4
f 101//4 112//4 113//4
f 102//4 101//4 100//4
f 102//4 100//4 80//4
f 98//4 113//4 112//4
f 113//4 98//4 99//4
f 96//4 111//4 110//4
f 111//4 96//4 97//4
f 94//4 109//4 108//4
f 109//4 94//4 95//4
f 92//4 107//4 106//4
f 107//4 92//4 93//4
f 90//4 105//4 104//4
f 105//4 90//4 91//4
f 88//4 103//4 81//4
f 103//4 88//4 89//4
f 82//4 114//4 81//4
f 114//4 82//4 86//4
f 114//4 86//4 87//4
f 78//4 115//4 82//4
f 115//4 78//4 116//4
f 115//4 116//4 84//4
f 115//4 84//4 85//4
f 157//5 158//5 159//5
f 158//5 157//5 160//5
f 165//6 166//6 167//6
f 166//6 165//6 168//6
f 168//6 165//6 169//6
f 168//6 169//6 170//6
f 13//2 177//2 18//2
f 177//2 13//2 51//2
f 177//2 51//2 178//2
f 178//2 51//2 179//2
f 18//2 180//2 50//2
f 180//2 18//2 177//2
f 50//2 180//2 179//2
f 50//2 179//2 51//2
f 18//2 185//2 19//2
f 185//2 18//2 50//2
f 185//2 50//2 186//2
f 186//2 50//2 187//2
f 19//2 188//2 52//2
f 188//2 19//2 185//2
f 52//2 188//2 187//2
f 52//2 187//2 50//2
f 19//2 193//2 20//2
f 193//2 19//2 52//2
f 193//2 52//2 194//2
f 194//2 52//2 195//2
f 20//2 196//2 53//2
f 196//2 20//2 193//2
f 53//2 196//2 195//2
f 53//2 195//2 52//2
f 20//2 201//2 21//2
f 201//2 20//2 53//2
f 201//2 53//2 202//2
f 202//2 53//2 203//2
f 21//2 204//2 54//2
f 204//2 21//2 201//2
f 54//2 204//2 203//2
f 54//2 203//2 53//2
f 21//2 209//2 22//2
f 209//2 21//2 54//2
f 209//2 54//2 210//2
f 210//2 54//2 211//2
f 22//2 212//2 55//2
f 212//2 22//2 209//2
f 55//2 212//2 211//2
f 55//2 211//2 54//2
f 22//2 217//2 16//2
f 217//2 22//2 55//2
f 217//2 55//2 218//2
f 218//2 55//2 219//2
f 16//2 220//2 56//2
f 220//2 16//2 217//2
f 56//2 220//2 219//2
f 56//2 219//2 55//2
f 16//2 225//2 23//2
f 225//2 16//2 56//2
f 225//2 56//2 226//2
f 226//2 56//2 227//2
f 23//2 228//2 57//2
f 228//2 23//2 225//2
f 57//2 228//2 227//2
f 57//2 227//2 56//2
f 23//2 233//2 24//2
f 233//2 23//2 57//2
f 233//2 57//2 234//2
f 234//2 57//2 235//2
f 24//2 236//2 38//2
f 236//2 24//2 233//2
f 38//2 236//2 235//2
f 38//2 235//2 57//2
