# SSTK version 0.8.0
# 43
mtllib original-43.mtl
o #ID298
v 0.451824 -0.430626 -0.458348
v 0.451824 -0.402936 0.133527
v 0.451824 -0.430626 0.133527
v 0.451824 0.097285 0.133527
v 0.451824 0.608167 0.563416
v 0.451824 0.097285 0.563416
v 0.451824 0.608167 -0.458348
v 0.451824 -0.430626 -0.458348
v 0.451824 -0.402936 0.133527
v 0.451824 0.608167 -0.458348
v 0.451824 0.097285 0.133527
v 0.451824 0.608167 0.563416
v 0.451824 0.097285 0.563416
v 0.451824 -0.430626 0.133527
v -0.399646 -0.430626 -0.458348
v -0.314499 -0.430626 -0.373201
v -0.399646 -0.430626 0.133527
v 0.451824 -0.430626 -0.458348
v 0.366677 -0.430626 -0.373201
v 0.366677 -0.430626 0.133527
v 0.451824 -0.430626 0.133527
v -0.314499 -0.430626 0.133527
v -0.314499 -0.430626 -0.373201
v -0.399646 -0.430626 0.133527
v -0.314499 -0.430626 0.133527
v 0.451824 -0.430626 0.133527
v 0.451824 -0.430626 -0.458348
v 0.366677 -0.430626 0.133527
v 0.366677 -0.430626 -0.373201
v -0.399646 -0.430626 -0.458348
v -0.399646 -0.430626 -0.458348
v -0.140316 -0.097628 -0.458348
v 0.451824 -0.430626 -0.458348
v -0.399646 0.608167 -0.458348
v -0.167061 0.608167 -0.458348
v 0.192495 -0.097628 -0.458348
v 0.451824 0.608167 -0.458348
v 0.219239 0.608167 -0.458348
v 0.219239 0.608167 -0.458348
v 0.192495 -0.097628 -0.458348
v 0.451824 0.608167 -0.458348
v -0.140316 -0.097628 -0.458348
v 0.451824 -0.430626 -0.458348
v -0.167061 0.608167 -0.458348
v -0.399646 0.608167 -0.458348
v -0.399646 -0.430626 -0.458348
v 0.451824 0.097285 0.563416
v 0.261317 0.230372 0.563416
v -0.399646 0.097285 0.563416
v 0.271334 0.234521 0.563416
v 0.279936 0.241122 0.563416
v 0.286537 0.249724 0.563416
v 0.451824 0.608167 0.563416
v 0.250567 0.228957 0.563416
v 0.290686 0.259742 0.563416
v 0.292102 0.270492 0.563416
v 0.290686 0.281242 0.563416
v 0.286537 0.291259 0.563416
v 0.279936 0.299862 0.563416
v 0.271334 0.306463 0.563416
v 0.261317 0.310612 0.563416
v 0.250567 0.312027 0.563416
v 0.229799 0.234521 0.563416
v -0.399646 0.608167 0.563416
v 0.239816 0.230372 0.563416
v 0.221197 0.241122 0.563416
v 0.214596 0.249724 0.563416
v 0.210447 0.259742 0.563416
v 0.209031 0.270492 0.563416
v 0.210447 0.281242 0.563416
v 0.214596 0.291259 0.563416
v 0.221197 0.299862 0.563416
v 0.229799 0.306463 0.563416
v 0.239816 0.310612 0.563416
v 0.451824 0.608167 0.563416
v 0.250567 0.312027 0.563416
v -0.399646 0.608167 0.563416
v 0.239816 0.310612 0.563416
v 0.229799 0.306463 0.563416
v 0.221197 0.299862 0.563416
v 0.214596 0.291259 0.563416
v 0.210447 0.281242 0.563416
v 0.209031 0.270492 0.563416
v 0.210447 0.259742 0.563416
v 0.214596 0.249724 0.563416
v 0.221197 0.241122 0.563416
v 0.229799 0.234521 0.563416
v 0.250567 0.228957 0.563416
v -0.399646 0.097285 0.563416
v 0.239816 0.230372 0.563416
v 0.261317 0.310612 0.563416
v 0.271334 0.306463 0.563416
v 0.279936 0.299862 0.563416
v 0.286537 0.291259 0.563416
v 0.290686 0.281242 0.563416
v 0.292102 0.270492 0.563416
v 0.290686 0.259742 0.563416
v 0.286537 0.249724 0.563416
v 0.261317 0.230372 0.563416
v 0.451824 0.097285 0.563416
v 0.279936 0.241122 0.563416
v 0.271334 0.234521 0.563416
v -0.336971 0.097285 0.133527
v -0.336971 0.097285 0.500741
v -0.399646 0.097285 0.133527
v -0.399646 0.097285 0.563416
v 0.451824 0.097285 0.563416
v 0.389149 0.097285 0.500741
v 0.389149 0.097285 0.133527
v 0.451824 0.097285 0.133527
v 0.451824 0.097285 0.133527
v 0.389149 0.097285 0.133527
v 0.451824 0.097285 0.563416
v 0.389149 0.097285 0.500741
v -0.336971 0.097285 0.500741
v -0.399646 0.097285 0.133527
v -0.399646 0.097285 0.563416
v -0.336971 0.097285 0.133527
v 0.451824 0.097285 0.133527
v -0.399646 -0.402936 0.133527
v 0.451824 -0.402936 0.133527
v 0.008835 -0.096545 0.133527
v 0.008835 0.097285 0.133527
v 0.389149 0.097285 0.133527
v 0.008835 0.124975 0.133527
v 0.389149 0.124975 0.133527
v -0.298122 0.124975 0.133527
v -0.336971 0.097285 0.133527
v -0.298122 0.097285 0.133527
v -0.336971 0.124975 0.133527
v -0.298122 -0.096545 0.133527
v -0.399646 0.097285 0.133527
v -0.336971 0.097285 0.133527
v -0.298122 0.097285 0.133527
v -0.399646 0.097285 0.133527
v -0.298122 -0.096545 0.133527
v 0.008835 -0.096545 0.133527
v -0.399646 -0.402936 0.133527
v -0.336971 0.124975 0.133527
v -0.298122 0.124975 0.133527
v 0.389149 0.124975 0.133527
v 0.389149 0.097285 0.133527
v 0.008835 0.124975 0.133527
v 0.008835 0.097285 0.133527
v 0.451824 0.097285 0.133527
v 0.451824 -0.402936 0.133527
v 0.451824 -0.402936 0.133527
v 0.366677 -0.430626 0.133527
v 0.451824 -0.430626 0.133527
v 0.366677 -0.413597 0.133527
v -0.314499 -0.413597 0.133527
v -0.399646 -0.430626 0.133527
v -0.314499 -0.430626 0.133527
v -0.399646 -0.402936 0.133527
v 0.451824 -0.402936 0.133527
v -0.314499 -0.413597 0.133527
v -0.399646 -0.402936 0.133527
v -0.399646 -0.430626 0.133527
v -0.314499 -0.430626 0.133527
v 0.366677 -0.413597 0.133527
v 0.366677 -0.430626 0.133527
v 0.451824 -0.430626 0.133527
v -0.399646 0.608167 -0.458348
v -0.399646 0.097285 0.563416
v -0.399646 0.608167 0.563416
v -0.399646 0.097285 0.133527
v -0.399646 -0.402936 0.133527
v -0.399646 -0.430626 -0.458348
v -0.399646 -0.430626 0.133527
v -0.399646 0.608167 -0.458348
v -0.399646 -0.402936 0.133527
v -0.399646 -0.430626 -0.458348
v -0.399646 -0.430626 0.133527
v -0.399646 0.097285 0.133527
v -0.399646 0.097285 0.563416
v -0.399646 0.608167 0.563416
v -0.336971 0.097285 0.133527
v -0.336971 0.124975 0.500741
v -0.336971 0.097285 0.500741
v -0.336971 0.124975 0.133527
v -0.336971 0.124975 0.133527
v -0.336971 0.097285 0.133527
v -0.336971 0.124975 0.500741
v -0.336971 0.097285 0.500741
v -0.336971 0.124975 0.500741
v 0.389149 0.097285 0.500741
v -0.336971 0.097285 0.500741
v 0.389149 0.124975 0.500741
v 0.389149 0.124975 0.500741
v -0.336971 0.124975 0.500741
v 0.389149 0.097285 0.500741
v -0.336971 0.097285 0.500741
v 0.389149 0.124975 0.133527
v 0.389149 0.097285 0.500741
v 0.389149 0.124975 0.500741
v 0.389149 0.097285 0.133527
v 0.389149 0.097285 0.133527
v 0.389149 0.124975 0.133527
v 0.389149 0.097285 0.500741
v 0.389149 0.124975 0.500741
v 0.008835 0.124975 0.132073
v 0.008835 0.097285 0.133527
v 0.008835 0.124975 0.133527
v 0.008835 0.097285 0.132073
v 0.008835 0.097285 0.132073
v 0.008835 0.124975 0.132073
v 0.008835 0.097285 0.133527
v 0.008835 0.124975 0.133527
v -0.298122 0.097285 0.133527
v -0.298122 0.124975 0.132073
v -0.298122 0.124975 0.133527
v -0.298122 0.097285 0.132073
v -0.298122 0.097285 0.132073
v -0.298122 0.097285 0.133527
v -0.298122 0.124975 0.132073
v -0.298122 0.124975 0.133527
v 0.366677 -0.413597 0.133527
v -0.314499 -0.430626 0.133527
v 0.366677 -0.430626 0.133527
v -0.314499 -0.413597 0.133527
v -0.314499 -0.413597 0.133527
v 0.366677 -0.413597 0.133527
v -0.314499 -0.430626 0.133527
v 0.366677 -0.430626 0.133527
vn 1 0 0
vn 0 -1 0
vn 0 0 -1
vn 0 0 1
vn -1 0 0
vn 0 1 0
usemtl material_0_0
f 1//1 2//1 3//1
f 4//1 5//1 6//1
f 5//1 4//1 7//1
f 7//1 4//1 2//1
f 7//1 2//1 1//1
f 15//2 16//2 17//2
f 16//2 15//2 18//2
f 16//2 18//2 19//2
f 19//2 18//2 20//2
f 20//2 18//2 21//2
f 22//2 17//2 16//2
f 31//3 32//3 33//3
f 32//3 31//3 34//3
f 32//3 34//3 35//3
f 33//3 36//3 37//3
f 36//3 33//3 32//3
f 37//3 36//3 38//3
f 47//4 48//4 49//4
f 48//4 47//4 50//4
f 50//4 47//4 51//4
f 51//4 47//4 52//4
f 52//4 47//4 53//4
f 49//4 48//4 54//4
f 52//4 53//4 55//4
f 55//4 53//4 56//4
f 56//4 53//4 57//4
f 57//4 53//4 58//4
f 58//4 53//4 59//4
f 59//4 53//4 60//4
f 60//4 53//4 61//4
f 61//4 53//4 62//4
f 49//4 63//4 64//4
f 63//4 49//4 65//4
f 65//4 49//4 54//4
f 64//4 63//4 66//4
f 64//4 66//4 67//4
f 64//4 67//4 68//4
f 64//4 68//4 69//4
f 64//4 69//4 70//4
f 64//4 70//4 71//4
f 64//4 71//4 72//4
f 64//4 72//4 73//4
f 64//4 73//4 74//4
f 64//4 74//4 62//4
f 64//4 62//4 53//4
f 103//2 104//2 105//2
f 106//2 104//2 107//2
f 104//2 106//2 105//2
f 107//2 104//2 108//2
f 107//2 108//2 109//2
f 107//2 109//2 110//2
f 119//4 120//4 121//4
f 120//4 119//4 122//4
f 122//4 119//4 123//4
f 123//4 119//4 124//4
f 123//4 124//4 125//4
f 125//4 124//4 126//4
f 127//4 128//4 129//4
f 128//4 127//4 130//4
f 120//4 131//4 132//4
f 131//4 120//4 122//4
f 132//4 131//4 129//4
f 132//4 129//4 128//4
f 147//4 148//4 149//4
f 148//4 147//4 150//4
f 150//4 147//4 151//4
f 151//4 152//4 153//4
f 152//4 151//4 154//4
f 154//4 151//4 147//4
f 19//2 22//2 16//2
f 22//2 19//2 20//2
f 163//5 164//5 165//5
f 164//5 163//5 166//5
f 166//5 163//5 167//5
f 167//5 168//5 169//5
f 168//5 167//5 163//5
f 177//1 178//1 179//1
f 178//1 177//1 180//1
f 185//3 186//3 187//3
f 186//3 185//3 188//3
f 193//5 194//5 195//5
f 194//5 193//5 196//5
f 201//5 202//5 203//5
f 202//5 201//5 204//5
f 209//1 210//1 211//1
f 210//1 209//1 212//1
f 217//4 218//4 219//4
f 218//4 217//4 220//4
usemtl material_1_0
f 8//5 9//5 10//5
f 9//5 11//5 10//5
f 10//5 11//5 12//5
f 13//5 12//5 11//5
f 14//5 9//5 8//5
f 23//6 24//6 25//6
f 26//6 27//6 28//6
f 28//6 27//6 29//6
f 29//6 27//6 23//6
f 27//6 30//6 23//6
f 24//6 23//6 30//6
f 39//4 40//4 41//4
f 42//4 43//4 40//4
f 41//4 40//4 43//4
f 44//4 45//4 42//4
f 45//4 46//4 42//4
f 43//4 42//4 46//4
f 75//3 76//3 77//3
f 76//3 78//3 77//3
f 78//3 79//3 77//3
f 79//3 80//3 77//3
f 80//3 81//3 77//3
f 81//3 82//3 77//3
f 82//3 83//3 77//3
f 83//3 84//3 77//3
f 84//3 85//3 77//3
f 85//3 86//3 77//3
f 86//3 87//3 77//3
f 88//3 89//3 90//3
f 90//3 89//3 87//3
f 77//3 87//3 89//3
f 76//3 75//3 91//3
f 91//3 75//3 92//3
f 92//3 75//3 93//3
f 93//3 75//3 94//3
f 94//3 75//3 95//3
f 95//3 75//3 96//3
f 96//3 75//3 97//3
f 97//3 75//3 98//3
f 88//3 99//3 89//3
f 75//3 100//3 98//3
f 98//3 100//3 101//3
f 101//3 100//3 102//3
f 102//3 100//3 99//3
f 89//3 99//3 100//3
f 111//6 112//6 113//6
f 112//6 114//6 113//6
f 114//6 115//6 113//6
f 116//6 117//6 115//6
f 113//6 115//6 117//6
f 116//6 115//6 118//6
f 133//3 134//3 135//3
f 134//3 136//3 135//3
f 137//3 138//3 136//3
f 135//3 136//3 138//3
f 139//3 140//3 133//3
f 134//3 133//3 140//3
f 141//3 142//3 143//3
f 143//3 142//3 144//3
f 142//3 145//3 144//3
f 144//3 145//3 137//3
f 137//3 145//3 138//3
f 146//3 138//3 145//3
f 155//3 156//3 157//3
f 157//3 156//3 158//3
f 159//3 158//3 156//3
f 156//3 155//3 160//3
f 160//3 155//3 161//3
f 162//3 161//3 155//3
f 28//6 29//6 25//6
f 23//6 25//6 29//6
f 170//1 171//1 172//1
f 173//1 172//1 171//1
f 171//1 170//1 174//1
f 174//1 170//1 175//1
f 176//1 175//1 170//1
f 181//5 182//5 183//5
f 184//5 183//5 182//5
f 189//4 190//4 191//4
f 192//4 191//4 190//4
f 197//1 198//1 199//1
f 200//1 199//1 198//1
f 205//1 206//1 207//1
f 208//1 207//1 206//1
f 213//5 214//5 215//5
f 216//5 215//5 214//5
f 221//3 222//3 223//3
f 224//3 223//3 222//3
