# SSTK version 0.8.0
# 122
mtllib original-122.mtl
o group_29/ID662#ID662
v -0.305826 -0.583891 -0.282547
v -0.316576 -0.611581 -0.281131
v -0.305826 -0.611581 -0.282547
v -0.316576 -0.583891 -0.281131
v -0.327326 -0.611581 -0.282547
v -0.327326 -0.583891 -0.282547
v -0.356696 -0.611581 -0.333416
v -0.356696 -0.611581 -0.311916
v -0.358111 -0.611581 -0.322666
v -0.352546 -0.611581 -0.301899
v -0.352546 -0.611581 -0.343434
v -0.345945 -0.611581 -0.293297
v -0.345945 -0.611581 -0.352036
v -0.337343 -0.611581 -0.286696
v -0.337343 -0.611581 -0.358637
v -0.327326 -0.611581 -0.282547
v -0.327326 -0.611581 -0.362786
v -0.316576 -0.611581 -0.281131
v -0.316576 -0.611581 -0.364202
v -0.305826 -0.611581 -0.362786
v -0.305826 -0.611581 -0.282547
v -0.295808 -0.611581 -0.286696
v -0.295808 -0.611581 -0.358637
v -0.287206 -0.611581 -0.293297
v -0.287206 -0.611581 -0.352036
v -0.280605 -0.611581 -0.301899
v -0.280605 -0.611581 -0.343434
v -0.276456 -0.611581 -0.311916
v -0.276456 -0.611581 -0.333416
v -0.275041 -0.611581 -0.322666
v -0.295808 -0.583891 -0.286696
v -0.295808 -0.611581 -0.286696
v -0.337343 -0.611581 -0.286696
v -0.337343 -0.583891 -0.286696
v -0.276456 -0.611581 -0.333416
v -0.275041 -0.583891 -0.322666
v -0.275041 -0.611581 -0.322666
v -0.276456 -0.583891 -0.333416
v -0.275041 -0.611581 -0.322666
v -0.276456 -0.583891 -0.311916
v -0.276456 -0.611581 -0.311916
v -0.275041 -0.583891 -0.322666
v -0.280605 -0.583891 -0.301899
v -0.280605 -0.611581 -0.301899
v -0.287206 -0.583891 -0.293297
v -0.287206 -0.611581 -0.293297
v -0.345945 -0.611581 -0.293297
v -0.345945 -0.583891 -0.293297
v -0.352546 -0.583891 -0.301899
v -0.352546 -0.611581 -0.301899
v -0.356696 -0.583891 -0.311916
v -0.356696 -0.611581 -0.311916
v -0.358111 -0.583891 -0.322666
v -0.358111 -0.611581 -0.322666
v -0.356696 -0.583891 -0.333416
v -0.358111 -0.611581 -0.322666
v -0.358111 -0.583891 -0.322666
v -0.356696 -0.611581 -0.333416
v -0.352546 -0.583891 -0.343434
v -0.352546 -0.611581 -0.343434
v -0.345945 -0.583891 -0.352036
v -0.345945 -0.611581 -0.352036
v -0.337343 -0.611581 -0.358637
v -0.337343 -0.583891 -0.358637
v -0.327326 -0.611581 -0.362786
v -0.327326 -0.583891 -0.362786
v -0.316576 -0.611581 -0.364202
v -0.316576 -0.583891 -0.364202
v -0.305826 -0.611581 -0.362786
v -0.305826 -0.583891 -0.362786
v -0.295808 -0.611581 -0.358637
v -0.295808 -0.583891 -0.358637
v -0.287206 -0.611581 -0.352036
v -0.287206 -0.583891 -0.352036
v -0.280605 -0.583891 -0.343434
v -0.280605 -0.611581 -0.343434
vn 0.25881900959356163 0 0.9659258358036645
vn 0 0 1
vn -0.25881900959356163 0 0.9659258358036645
vn 0 -1 0
vn 0.5000000016387101 0 0.866025402838329
vn -0.5000000016387101 0 0.866025402838329
vn 0.9659258358036645 0 -0.25881900959356163
vn 0.9914448610250887 0 -0.1305261948688555
vn 0.9914448610250887 0 0.1305261948688555
vn 0.9659258358036645 0 0.25881900959356163
vn 0.866025402838329 0 0.5000000016387101
vn 0.7071067811865476 0 0.7071067811865476
vn -0.7071067811865476 0 0.7071067811865476
vn -0.866025402838329 0 0.5000000016387101
vn -0.9659258358036645 0 0.25881900959356163
vn -0.9914448610250887 0 0.1305261948688555
vn -0.9659258358036645 0 -0.25881900959356163
vn -0.9914448610250887 0 -0.1305261948688555
vn -0.866025402838329 0 -0.5000000016387101
vn -0.7071067811865476 0 -0.7071067811865476
vn -0.5000000016387101 0 -0.866025402838329
vn -0.25881900959356163 0 -0.9659258358036645
vn 0 0 -1
vn 0.25881900959356163 0 -0.9659258358036645
vn 0.5000000016387101 0 -0.866025402838329
vn 0.7071067811865476 0 -0.7071067811865476
vn 0.866025402838329 0 -0.5000000016387101
usemtl material_0_0
f 1//1 2//2 3//1
f 2//2 1//1 4//2
f 4//2 5//3 2//2
f 5//3 4//2 6//3
f 7//4 8//4 9//4
f 8//4 7//4 10//4
f 10//4 7//4 11//4
f 10//4 11//4 12//4
f 12//4 11//4 13//4
f 12//4 13//4 14//4
f 14//4 13//4 15//4
f 14//4 15//4 16//4
f 16//4 15//4 17//4
f 16//4 17//4 18//4
f 18//4 17//4 19//4
f 18//4 19//4 20//4
f 18//4 20//4 21//4
f 21//4 20//4 22//4
f 22//4 20//4 23//4
f 22//4 23//4 24//4
f 24//4 23//4 25//4
f 24//4 25//4 26//4
f 26//4 25//4 27//4
f 26//4 27//4 28//4
f 28//4 27//4 29//4
f 28//4 29//4 30//4
f 31//5 3//1 32//5
f 3//1 31//5 1//1
f 6//3 33//6 5//3
f 33//6 6//3 34//6
f 35//7 36//8 37//8
f 36//8 35//7 38//7
f 39//9 40//10 41//10
f 40//10 39//9 42//9
f 41//10 43//11 44//11
f 43//11 41//10 40//10
f 44//11 45//12 46//12
f 45//12 44//11 43//11
f 45//12 32//5 46//12
f 32//5 45//12 31//5
f 34//6 47//13 33//6
f 47//13 34//6 48//13
f 49//14 47//13 48//13
f 47//13 49//14 50//14
f 51//15 50//14 49//14
f 50//14 51//15 52//15
f 53//16 52//15 51//15
f 52//15 53//16 54//16
f 55//17 56//18 57//18
f 56//18 55//17 58//17
f 59//19 58//17 55//17
f 58//17 59//19 60//19
f 61//20 60//19 59//19
f 60//19 61//20 62//20
f 61//20 63//21 62//20
f 63//21 61//20 64//21
f 64//21 65//22 63//21
f 65//22 64//21 66//22
f 66//22 67//23 65//22
f 67//23 66//22 68//23
f 68//23 69//24 67//23
f 69//24 68//23 70//24
f 70//24 71//25 69//24
f 71//25 70//24 72//25
f 72//25 73//26 71//25
f 73//26 72//25 74//26
f 73//26 75//27 76//27
f 75//27 73//26 74//26
f 76//27 38//7 35//7
f 38//7 76//27 75//27
