# SSTK version 0.8.0
# 7
mtllib original-7.mtl
o group_4/ID25#ID25
v -0.277316 0.124975 0.192670
v -0.233093 0.124975 0.136216
v -0.258921 0.124975 0.161532
v -0.201594 0.124975 0.118448
v -0.287026 0.124975 0.227508
v -0.166568 0.124975 0.109438
v -0.287388 0.124975 0.263671
v -0.130405 0.124975 0.109800
v -0.278378 0.124975 0.298697
v -0.095567 0.124975 0.119509
v -0.260609 0.124975 0.330196
v -0.064429 0.124975 0.137904
v -0.235293 0.124975 0.356024
v -0.039113 0.124975 0.163732
v -0.204156 0.124975 0.374419
v -0.021345 0.124975 0.195232
v -0.169318 0.124975 0.384129
v -0.012335 0.124975 0.230257
v -0.133154 0.124975 0.384491
v -0.012697 0.124975 0.266421
v -0.098129 0.124975 0.375481
v -0.022406 0.124975 0.301259
v -0.066629 0.124975 0.357712
v -0.040801 0.124975 0.332396
v -0.040801 0.124975 0.332396
v -0.066629 0.124975 0.357712
v -0.022406 0.124975 0.301259
v -0.098129 0.124975 0.375481
v -0.012697 0.124975 0.266421
v -0.133154 0.124975 0.384491
v -0.012335 0.124975 0.230257
v -0.169318 0.124975 0.384129
v -0.021345 0.124975 0.195232
v -0.204156 0.124975 0.374419
v -0.039113 0.124975 0.163732
v -0.235293 0.124975 0.356024
v -0.064429 0.124975 0.137904
v -0.260609 0.124975 0.330196
v -0.095567 0.124975 0.119509
v -0.278378 0.124975 0.298697
v -0.130405 0.124975 0.109800
v -0.287388 0.124975 0.263671
v -0.166568 0.124975 0.109438
v -0.287026 0.124975 0.227508
v -0.201594 0.124975 0.118448
v -0.277316 0.124975 0.192670
v -0.233093 0.124975 0.136216
v -0.258921 0.124975 0.161532
v -0.169318 0.124975 0.384129
v -0.204156 0.027567 0.374419
v -0.169318 0.027567 0.384129
v -0.204156 0.124975 0.374419
v -0.204156 0.124975 0.374419
v -0.169318 0.124975 0.384129
v -0.204156 0.027567 0.374419
v -0.169318 0.027567 0.384129
v -0.133154 0.124975 0.384491
v -0.133154 0.027567 0.384491
v -0.133154 0.124975 0.384491
v -0.133154 0.027567 0.384491
v -0.098129 0.027567 0.375481
v -0.098129 0.124975 0.375481
v -0.098129 0.124975 0.375481
v -0.098129 0.027567 0.375481
v -0.066629 0.027567 0.357712
v -0.066629 0.124975 0.357712
v -0.066629 0.124975 0.357712
v -0.066629 0.027567 0.357712
v -0.040801 0.027567 0.332396
v -0.040801 0.124975 0.332396
v -0.040801 0.124975 0.332396
v -0.040801 0.027567 0.332396
v -0.022406 0.027567 0.301259
v -0.022406 0.124975 0.301259
v -0.022406 0.124975 0.301259
v -0.022406 0.027567 0.301259
v -0.012697 0.027567 0.266421
v -0.012697 0.124975 0.266421
v -0.012697 0.124975 0.266421
v -0.012697 0.027567 0.266421
v -0.012335 0.027567 0.230257
v -0.012335 0.124975 0.230257
v -0.012335 0.124975 0.230257
v -0.012335 0.027567 0.230257
v -0.021345 0.124975 0.195232
v -0.021345 0.027567 0.195232
v -0.021345 0.124975 0.195232
v -0.021345 0.027567 0.195232
v -0.039113 0.124975 0.163732
v -0.039113 0.027567 0.163732
v -0.039113 0.124975 0.163732
v -0.039113 0.027567 0.163732
v -0.064429 0.124975 0.137904
v -0.064429 0.027567 0.137904
v -0.064429 0.124975 0.137904
v -0.064429 0.027567 0.137904
v -0.095567 0.124975 0.119509
v -0.095567 0.027567 0.119509
v -0.095567 0.124975 0.119509
v -0.095567 0.027567 0.119509
v -0.130405 0.124975 0.109800
v -0.130405 0.027567 0.109800
v -0.130405 0.124975 0.109800
v -0.130405 0.027567 0.109800
v -0.166568 0.124975 0.109438
v -0.166568 0.027567 0.109438
v -0.166568 0.124975 0.109438
v -0.166568 0.027567 0.109438
v -0.201594 0.027567 0.118448
v -0.201594 0.124975 0.118448
v -0.201594 0.027567 0.118448
v -0.201594 0.124975 0.118448
v -0.233093 0.027567 0.136216
v -0.233093 0.124975 0.136216
v -0.233093 0.027567 0.136216
v -0.233093 0.124975 0.136216
v -0.258921 0.027567 0.161532
v -0.258921 0.124975 0.161532
v -0.258921 0.027567 0.161532
v -0.258921 0.124975 0.161532
v -0.277316 0.027567 0.192670
v -0.277316 0.124975 0.192670
v -0.277316 0.027567 0.192670
v -0.277316 0.124975 0.192670
v -0.287026 0.027567 0.227508
v -0.287026 0.124975 0.227508
v -0.287026 0.027567 0.227508
v -0.287026 0.124975 0.227508
v -0.287388 0.027567 0.263671
v -0.287388 0.124975 0.263671
v -0.287388 0.027567 0.263671
v -0.287388 0.124975 0.263671
v -0.278378 0.124975 0.298697
v -0.278378 0.027567 0.298697
v -0.278378 0.124975 0.298697
v -0.278378 0.027567 0.298697
v -0.260609 0.124975 0.330196
v -0.260609 0.027567 0.330196
v -0.260609 0.124975 0.330196
v -0.260609 0.027567 0.330196
v -0.235293 0.124975 0.356024
v -0.235293 0.027567 0.356024
v -0.235293 0.124975 0.356024
v -0.235293 0.027567 0.356024
v -0.233093 0.027567 0.136216
v -0.277316 0.027567 0.192670
v -0.258921 0.027567 0.161532
v -0.201594 0.027567 0.118448
v -0.287026 0.027567 0.227508
v -0.166568 0.027567 0.109438
v -0.287388 0.027567 0.263671
v -0.130405 0.027567 0.109800
v -0.278378 0.027567 0.298697
v -0.095567 0.027567 0.119509
v -0.260609 0.027567 0.330196
v -0.064429 0.027567 0.137904
v -0.235293 0.027567 0.356024
v -0.039113 0.027567 0.163732
v -0.204156 0.027567 0.374419
v -0.021345 0.027567 0.195232
v -0.169318 0.027567 0.384129
v -0.012335 0.027567 0.230257
v -0.133154 0.027567 0.384491
v -0.012697 0.027567 0.266421
v -0.098129 0.027567 0.375481
v -0.022406 0.027567 0.301259
v -0.066629 0.027567 0.357712
v -0.040801 0.027567 0.332396
v -0.040801 0.027567 0.332396
v -0.022406 0.027567 0.301259
v -0.066629 0.027567 0.357712
v -0.098129 0.027567 0.375481
v -0.012697 0.027567 0.266421
v -0.133154 0.027567 0.384491
v -0.012335 0.027567 0.230257
v -0.169318 0.027567 0.384129
v -0.021345 0.027567 0.195232
v -0.204156 0.027567 0.374419
v -0.039113 0.027567 0.163732
v -0.235293 0.027567 0.356024
v -0.064429 0.027567 0.137904
v -0.260609 0.027567 0.330196
v -0.095567 0.027567 0.119509
v -0.278378 0.027567 0.298697
v -0.130405 0.027567 0.109800
v -0.287388 0.027567 0.263671
v -0.166568 0.027567 0.109438
v -0.287026 0.027567 0.227508
v -0.201594 0.027567 0.118448
v -0.277316 0.027567 0.192670
v -0.233093 0.027567 0.136216
v -0.258921 0.027567 0.161532
vn 0 1 0
vn 0 -1 0
vn -0.1404429183293268 0 0.9900887771766439
vn -0.3919112678950035 0 0.9200030206998947
vn 0.3919112678950035 0 -0.9200030206998947
vn 0.1404429183293268 0 -0.9900887771766439
vn 0.12059636713067777 0 0.9927016249784639
vn -0.12059636713067777 0 -0.9927016249784639
vn 0.37341728154134896 0 0.9276634809273613
vn -0.37341728154134896 0 -0.9276634809273613
vn 0.600790305252483 0 0.7994066606644132
vn -0.600790305252483 0 -0.7994066606644132
vn 0.7872205078894852 0 0.6166716078742565
vn -0.7872205078894852 0 -0.6166716078742565
vn 0.9200029744529851 0 0.3919113764585817
vn -0.9200029744529851 0 -0.3919113764585817
vn 0.9900887541992467 0 0.1404430803143523
vn -0.9900887541992467 0 -0.1404430803143523
vn 0.9927016449216396 0 -0.1205962029662253
vn -0.9927016449216396 0 0.1205962029662253
vn 0.9276635267923586 0 -0.3734171676010127
vn -0.9276635267923586 0 0.3734171676010127
vn 0.799406689122583 0 -0.6007902673862736
vn -0.799406689122583 0 0.6007902673862736
vn 0.616671575770236 0 -0.7872205330382674
vn -0.616671575770236 0 0.7872205330382674
usemtl material_0_0
f 1//1 2//1 3//1
f 2//1 1//1 4//1
f 4//1 1//1 5//1
f 4//1 5//1 6//1
f 6//1 5//1 7//1
f 6//1 7//1 8//1
f 8//1 7//1 9//1
f 8//1 9//1 10//1
f 10//1 9//1 11//1
f 10//1 11//1 12//1
f 12//1 11//1 13//1
f 12//1 13//1 14//1
f 14//1 13//1 15//1
f 14//1 15//1 16//1
f 16//1 15//1 17//1
f 16//1 17//1 18//1
f 18//1 17//1 19//1
f 18//1 19//1 20//1
f 20//1 19//1 21//1
f 20//1 21//1 22//1
f 22//1 21//1 23//1
f 22//1 23//1 24//1
f 25//2 26//2 27//2
f 26//2 28//2 27//2
f 27//2 28//2 29//2
f 28//2 30//2 29//2
f 29//2 30//2 31//2
f 30//2 32//2 31//2
f 31//2 32//2 33//2
f 32//2 34//2 33//2
f 33//2 34//2 35//2
f 34//2 36//2 35//2
f 35//2 36//2 37//2
f 36//2 38//2 37//2
f 37//2 38//2 39//2
f 38//2 40//2 39//2
f 39//2 40//2 41//2
f 40//2 42//2 41//2
f 41//2 42//2 43//2
f 42//2 44//2 43//2
f 43//2 44//2 45//2
f 44//2 46//2 45//2
f 45//2 46//2 47//2
f 48//2 47//2 46//2
f 49//3 50//4 51//3
f 50//4 49//3 52//4
f 53//5 54//6 55//5
f 56//6 55//5 54//6
f 57//7 51//3 58//7
f 51//3 57//7 49//3
f 54//6 59//8 56//6
f 60//8 56//6 59//8
f 61//9 57//7 58//7
f 57//7 61//9 62//9
f 63//10 64//10 59//8
f 60//8 59//8 64//10
f 65//11 62//9 61//9
f 62//9 65//11 66//11
f 67//12 68//12 63//10
f 64//10 63//10 68//12
f 69//13 66//11 65//11
f 66//11 69//13 70//13
f 71//14 72//14 67//12
f 68//12 67//12 72//14
f 73//15 70//13 69//13
f 70//13 73//15 74//15
f 75//16 76//16 71//14
f 72//14 71//14 76//16
f 77//17 74//15 73//15
f 74//15 77//17 78//17
f 79//18 80//18 75//16
f 76//16 75//16 80//18
f 81//19 78//17 77//17
f 78//17 81//19 82//19
f 83//20 84//20 79//18
f 80//18 79//18 84//20
f 85//21 81//19 86//21
f 81//19 85//21 82//19
f 83//20 87//22 84//20
f 88//22 84//20 87//22
f 89//23 86//21 90//23
f 86//21 89//23 85//21
f 87//22 91//24 88//22
f 92//24 88//22 91//24
f 93//25 90//23 94//25
f 90//23 93//25 89//23
f 91//24 95//26 92//24
f 96//26 92//24 95//26
f 97//5 94//25 98//5
f 94//25 97//5 93//25
f 95//26 99//4 96//26
f 100//4 96//26 99//4
f 101//6 98//5 102//6
f 98//5 101//6 97//5
f 99//4 103//3 100//4
f 104//3 100//4 103//3
f 105//8 102//6 106//8
f 102//6 105//8 101//6
f 103//3 107//7 104//3
f 108//7 104//3 107//7
f 105//8 109//10 110//10
f 109//10 105//8 106//8
f 108//7 107//7 111//9
f 112//9 111//9 107//7
f 110//10 113//12 114//12
f 113//12 110//10 109//10
f 111//9 112//9 115//11
f 116//11 115//11 112//9
f 114//12 117//14 118//14
f 117//14 114//12 113//12
f 115//11 116//11 119//13
f 120//13 119//13 116//11
f 118//14 121//16 122//16
f 121//16 118//14 117//14
f 119//13 120//13 123//15
f 124//15 123//15 120//13
f 122//16 125//18 126//18
f 125//18 122//16 121//16
f 123//15 124//15 127//17
f 128//17 127//17 124//15
f 126//18 129//20 130//20
f 129//20 126//18 125//18
f 127//17 128//17 131//19
f 132//19 131//19 128//17
f 133//22 129//20 134//22
f 129//20 133//22 130//20
f 132//19 135//21 131//19
f 136//21 131//19 135//21
f 137//24 134//22 138//24
f 134//22 137//24 133//22
f 135//21 139//23 136//21
f 140//23 136//21 139//23
f 141//26 138//24 142//26
f 138//24 141//26 137//24
f 139//23 143//25 140//23
f 144//25 140//23 143//25
f 52//4 142//26 50//4
f 142//26 52//4 141//26
f 143//25 53//5 144//25
f 55//5 144//25 53//5
f 145//2 146//2 147//2
f 146//2 145//2 148//2
f 146//2 148//2 149//2
f 149//2 148//2 150//2
f 149//2 150//2 151//2
f 151//2 150//2 152//2
f 151//2 152//2 153//2
f 153//2 152//2 154//2
f 153//2 154//2 155//2
f 155//2 154//2 156//2
f 155//2 156//2 157//2
f 157//2 156//2 158//2
f 157//2 158//2 159//2
f 159//2 158//2 160//2
f 159//2 160//2 161//2
f 161//2 160//2 162//2
f 161//2 162//2 163//2
f 163//2 162//2 164//2
f 163//2 164//2 165//2
f 165//2 164//2 166//2
f 165//2 166//2 167//2
f 167//2 166//2 168//2
f 169//1 170//1 171//1
f 171//1 170//1 172//1
f 170//1 173//1 172//1
f 172//1 173//1 174//1
f 173//1 175//1 174//1
f 174//1 175//1 176//1
f 175//1 177//1 176//1
f 176//1 177//1 178//1
f 177//1 179//1 178//1
f 178//1 179//1 180//1
f 179//1 181//1 180//1
f 180//1 181//1 182//1
f 181//1 183//1 182//1
f 182//1 183//1 184//1
f 183//1 185//1 184//1
f 184//1 185//1 186//1
f 185//1 187//1 186//1
f 186//1 187//1 188//1
f 187//1 189//1 188//1
f 188//1 189//1 190//1
f 189//1 191//1 190//1
f 192//1 190//1 191//1
