# SSTK version 0.8.0
# 90
mtllib original-90.mtl
o #ID506
v 0.263121 0.272222 0.693374
v 0.262259 0.274033 0.696241
v 0.263121 0.272222 0.696241
v 0.262259 0.274033 0.693374
v 0.262259 0.274033 0.693374
v 0.263121 0.272222 0.693374
v 0.262259 0.274033 0.696241
v 0.263121 0.272222 0.696241
v 0.246461 0.259947 0.693374
v 0.253799 0.259512 0.693374
v 0.247918 0.258744 0.693374
v 0.252300 0.259644 0.693374
v 0.250961 0.260040 0.693374
v 0.245301 0.261449 0.693374
v 0.249783 0.260701 0.693374
v 0.248764 0.261626 0.693374
v 0.244447 0.263264 0.693374
v 0.247943 0.262799 0.693374
v 0.247357 0.264207 0.693374
v 0.243920 0.265364 0.693374
v 0.247005 0.265848 0.693374
v 0.243745 0.267722 0.693374
v 0.246888 0.267722 0.693374
v 0.243922 0.270122 0.693374
v 0.247008 0.269591 0.693374
v 0.247368 0.271257 0.693374
v 0.244454 0.272208 0.693374
v 0.247954 0.272687 0.693374
v 0.245315 0.274003 0.693374
v 0.248749 0.273853 0.693374
v 0.249766 0.274786 0.693374
v 0.246476 0.275525 0.693374
v 0.250923 0.275437 0.693374
v 0.252256 0.275819 0.693374
v 0.247923 0.276709 0.693374
v 0.253799 0.275946 0.693374
v 0.259681 0.276684 0.693374
v 0.257964 0.277551 0.693374
v 0.249642 0.277571 0.693374
v 0.255988 0.278091 0.693374
v 0.251604 0.278096 0.693374
v 0.253784 0.278271 0.693374
v 0.251595 0.257361 0.693374
v 0.255918 0.257355 0.693374
v 0.253784 0.257187 0.693374
v 0.257865 0.257860 0.693374
v 0.249634 0.257881 0.693374
v 0.259602 0.258718 0.693374
v 0.261107 0.259947 0.693374
v 0.255298 0.259644 0.693374
v 0.256635 0.260040 0.693374
v 0.262278 0.261452 0.693374
v 0.257811 0.260701 0.693374
v 0.258826 0.261626 0.693374
v 0.263136 0.263277 0.693374
v 0.259644 0.262799 0.693374
v 0.260228 0.264207 0.693374
v 0.263663 0.265381 0.693374
v 0.260578 0.265848 0.693374
v 0.263838 0.267722 0.693374
v 0.260695 0.267722 0.693374
v 0.260573 0.269619 0.693374
v 0.263659 0.270111 0.693374
v 0.260207 0.271284 0.693374
v 0.263121 0.272222 0.693374
v 0.259620 0.272701 0.693374
v 0.262259 0.274033 0.693374
v 0.258834 0.273853 0.693374
v 0.257840 0.274769 0.693374
v 0.261107 0.275525 0.693374
v 0.256660 0.275423 0.693374
v 0.255308 0.275816 0.693374
v 0.253799 0.275946 0.693374
v 0.255308 0.275816 0.693374
v 0.259681 0.276684 0.693374
v 0.261107 0.275525 0.693374
v 0.256660 0.275423 0.693374
v 0.257840 0.274769 0.693374
v 0.262259 0.274033 0.693374
v 0.258834 0.273853 0.693374
v 0.259620 0.272701 0.693374
v 0.263121 0.272222 0.693374
v 0.260207 0.271284 0.693374
v 0.263659 0.270111 0.693374
v 0.260573 0.269619 0.693374
v 0.263838 0.267722 0.693374
v 0.260695 0.267722 0.693374
v 0.260578 0.265848 0.693374
v 0.263663 0.265381 0.693374
v 0.260228 0.264207 0.693374
v 0.263136 0.263277 0.693374
v 0.259644 0.262799 0.693374
v 0.258826 0.261626 0.693374
v 0.262278 0.261452 0.693374
v 0.257811 0.260701 0.693374
v 0.256635 0.260040 0.693374
v 0.261107 0.259947 0.693374
v 0.255298 0.259644 0.693374
v 0.253799 0.259512 0.693374
v 0.247918 0.258744 0.693374
v 0.259602 0.258718 0.693374
v 0.249634 0.257881 0.693374
v 0.257865 0.257860 0.693374
v 0.251595 0.257361 0.693374
v 0.255918 0.257355 0.693374
v 0.253784 0.257187 0.693374
v 0.253784 0.278271 0.693374
v 0.251604 0.278096 0.693374
v 0.255988 0.278091 0.693374
v 0.249642 0.277571 0.693374
v 0.257964 0.277551 0.693374
v 0.247923 0.276709 0.693374
v 0.252256 0.275819 0.693374
v 0.246476 0.275525 0.693374
v 0.250923 0.275437 0.693374
v 0.249766 0.274786 0.693374
v 0.245315 0.274003 0.693374
v 0.248749 0.273853 0.693374
v 0.247954 0.272687 0.693374
v 0.244454 0.272208 0.693374
v 0.247368 0.271257 0.693374
v 0.243922 0.270122 0.693374
v 0.247008 0.269591 0.693374
v 0.246888 0.267722 0.693374
v 0.243745 0.267722 0.693374
v 0.247005 0.265848 0.693374
v 0.243920 0.265364 0.693374
v 0.247357 0.264207 0.693374
v 0.244447 0.263264 0.693374
v 0.247943 0.262799 0.693374
v 0.248764 0.261626 0.693374
v 0.245301 0.261449 0.693374
v 0.249783 0.260701 0.693374
v 0.250961 0.260040 0.693374
v 0.246461 0.259947 0.693374
v 0.252300 0.259644 0.693374
v 0.261107 0.275525 0.696241
v 0.261107 0.275525 0.693374
v 0.261107 0.275525 0.693374
v 0.261107 0.275525 0.696241
v 0.255918 0.257355 0.696241
v 0.251595 0.257361 0.696241
v 0.253784 0.257187 0.696241
v 0.257865 0.257860 0.696241
v 0.249634 0.257881 0.696241
v 0.259602 0.258718 0.696241
v 0.247918 0.258744 0.696241
v 0.261107 0.259947 0.696241
v 0.253799 0.259512 0.696241
v 0.255298 0.259644 0.696241
v 0.256635 0.260040 0.696241
v 0.262278 0.261452 0.696241
v 0.257811 0.260701 0.696241
v 0.258826 0.261626 0.696241
v 0.263136 0.263277 0.696241
v 0.259644 0.262799 0.696241
v 0.260228 0.264207 0.696241
v 0.263663 0.265381 0.696241
v 0.260578 0.265848 0.696241
v 0.263838 0.267722 0.696241
v 0.260695 0.267722 0.696241
v 0.263659 0.270111 0.696241
v 0.260573 0.269619 0.696241
v 0.260207 0.271284 0.696241
v 0.263121 0.272222 0.696241
v 0.259620 0.272701 0.696241
v 0.262259 0.274033 0.696241
v 0.258834 0.273853 0.696241
v 0.257840 0.274769 0.696241
v 0.261107 0.275525 0.696241
v 0.256660 0.275423 0.696241
v 0.255308 0.275816 0.696241
v 0.259681 0.276684 0.696241
v 0.253799 0.275946 0.696241
v 0.246461 0.259947 0.696241
v 0.252300 0.259644 0.696241
v 0.250961 0.260040 0.696241
v 0.245301 0.261449 0.696241
v 0.249783 0.260701 0.696241
v 0.248764 0.261626 0.696241
v 0.244447 0.263264 0.696241
v 0.247943 0.262799 0.696241
v 0.247357 0.264207 0.696241
v 0.243920 0.265364 0.696241
v 0.247005 0.265848 0.696241
v 0.243745 0.267722 0.696241
v 0.246888 0.267722 0.696241
v 0.247008 0.269591 0.696241
v 0.243922 0.270122 0.696241
v 0.247368 0.271257 0.696241
v 0.244454 0.272208 0.696241
v 0.247954 0.272687 0.696241
v 0.245315 0.274003 0.696241
v 0.248749 0.273853 0.696241
v 0.249766 0.274786 0.696241
v 0.246476 0.275525 0.696241
v 0.250923 0.275437 0.696241
v 0.252256 0.275819 0.696241
v 0.247923 0.276709 0.696241
v 0.257964 0.277551 0.696241
v 0.249642 0.277571 0.696241
v 0.255988 0.278091 0.696241
v 0.251604 0.278096 0.696241
v 0.253784 0.278271 0.696241
v 0.253784 0.278271 0.696241
v 0.255988 0.278091 0.696241
v 0.251604 0.278096 0.696241
v 0.249642 0.277571 0.696241
v 0.257964 0.277551 0.696241
v 0.247923 0.276709 0.696241
v 0.259681 0.276684 0.696241
v 0.253799 0.275946 0.696241
v 0.252256 0.275819 0.696241
v 0.246476 0.275525 0.696241
v 0.250923 0.275437 0.696241
v 0.249766 0.274786 0.696241
v 0.245315 0.274003 0.696241
v 0.248749 0.273853 0.696241
v 0.247954 0.272687 0.696241
v 0.244454 0.272208 0.696241
v 0.247368 0.271257 0.696241
v 0.243922 0.270122 0.696241
v 0.247008 0.269591 0.696241
v 0.243745 0.267722 0.696241
v 0.246888 0.267722 0.696241
v 0.247005 0.265848 0.696241
v 0.243920 0.265364 0.696241
v 0.247357 0.264207 0.696241
v 0.244447 0.263264 0.696241
v 0.247943 0.262799 0.696241
v 0.248764 0.261626 0.696241
v 0.245301 0.261449 0.696241
v 0.249783 0.260701 0.696241
v 0.250961 0.260040 0.696241
v 0.246461 0.259947 0.696241
v 0.252300 0.259644 0.696241
v 0.253799 0.259512 0.696241
v 0.247918 0.258744 0.696241
v 0.255308 0.275816 0.696241
v 0.261107 0.275525 0.696241
v 0.256660 0.275423 0.696241
v 0.257840 0.274769 0.696241
v 0.262259 0.274033 0.696241
v 0.258834 0.273853 0.696241
v 0.259620 0.272701 0.696241
v 0.263121 0.272222 0.696241
v 0.260207 0.271284 0.696241
v 0.263659 0.270111 0.696241
v 0.260573 0.269619 0.696241
v 0.260695 0.267722 0.696241
v 0.263838 0.267722 0.696241
v 0.260578 0.265848 0.696241
v 0.263663 0.265381 0.696241
v 0.260228 0.264207 0.696241
v 0.263136 0.263277 0.696241
v 0.259644 0.262799 0.696241
v 0.258826 0.261626 0.696241
v 0.262278 0.261452 0.696241
v 0.257811 0.260701 0.696241
v 0.256635 0.260040 0.696241
v 0.261107 0.259947 0.696241
v 0.255298 0.259644 0.696241
v 0.259602 0.258718 0.696241
v 0.249634 0.257881 0.696241
v 0.257865 0.257860 0.696241
v 0.251595 0.257361 0.696241
v 0.255918 0.257355 0.696241
v 0.253784 0.257187 0.696241
v 0.263659 0.270111 0.693374
v 0.263659 0.270111 0.696241
v 0.263659 0.270111 0.693374
v 0.263659 0.270111 0.696241
v 0.263838 0.267722 0.693374
v 0.263838 0.267722 0.696241
v 0.263838 0.267722 0.693374
v 0.263838 0.267722 0.696241
v 0.263663 0.265381 0.693374
v 0.263663 0.265381 0.696241
v 0.263663 0.265381 0.693374
v 0.263663 0.265381 0.696241
v 0.263136 0.263277 0.693374
v 0.263136 0.263277 0.696241
v 0.263136 0.263277 0.693374
v 0.263136 0.263277 0.696241
v 0.262278 0.261452 0.693374
v 0.262278 0.261452 0.696241
v 0.262278 0.261452 0.693374
v 0.262278 0.261452 0.696241
v 0.261107 0.259947 0.693374
v 0.261107 0.259947 0.696241
v 0.261107 0.259947 0.693374
v 0.261107 0.259947 0.696241
v 0.259602 0.258718 0.696241
v 0.259602 0.258718 0.693374
v 0.259602 0.258718 0.696241
v 0.259602 0.258718 0.693374
v 0.257865 0.257860 0.696241
v 0.257865 0.257860 0.693374
v 0.257865 0.257860 0.696241
v 0.257865 0.257860 0.693374
v 0.255918 0.257355 0.696241
v 0.255918 0.257355 0.693374
v 0.255918 0.257355 0.696241
v 0.255918 0.257355 0.693374
v 0.253784 0.257187 0.696241
v 0.253784 0.257187 0.693374
v 0.253784 0.257187 0.696241
v 0.253784 0.257187 0.693374
v 0.251595 0.257361 0.696241
v 0.251595 0.257361 0.693374
v 0.251595 0.257361 0.696241
v 0.251595 0.257361 0.693374
v 0.249634 0.257881 0.696241
v 0.249634 0.257881 0.693374
v 0.249634 0.257881 0.696241
v 0.249634 0.257881 0.693374
v 0.247918 0.258744 0.696241
v 0.247918 0.258744 0.693374
v 0.247918 0.258744 0.696241
v 0.247918 0.258744 0.693374
v 0.246461 0.259947 0.696241
v 0.246461 0.259947 0.693374
v 0.246461 0.259947 0.696241
v 0.246461 0.259947 0.693374
v 0.245301 0.261449 0.693374
v 0.245301 0.261449 0.696241
v 0.245301 0.261449 0.693374
v 0.245301 0.261449 0.696241
v 0.244447 0.263264 0.693374
v 0.244447 0.263264 0.696241
v 0.244447 0.263264 0.693374
v 0.244447 0.263264 0.696241
v 0.243920 0.265364 0.693374
v 0.243920 0.265364 0.696241
v 0.243920 0.265364 0.693374
v 0.243920 0.265364 0.696241
v 0.243745 0.267722 0.693374
v 0.243745 0.267722 0.696241
v 0.243745 0.267722 0.693374
v 0.243745 0.267722 0.696241
v 0.243922 0.270122 0.693374
v 0.243922 0.270122 0.696241
v 0.243922 0.270122 0.693374
v 0.243922 0.270122 0.696241
v 0.244454 0.272208 0.693374
v 0.244454 0.272208 0.696241
v 0.244454 0.272208 0.693374
v 0.244454 0.272208 0.696241
v 0.245315 0.274003 0.693374
v 0.245315 0.274003 0.696241
v 0.245315 0.274003 0.693374
v 0.245315 0.274003 0.696241
v 0.246476 0.275525 0.693374
v 0.246476 0.275525 0.696241
v 0.246476 0.275525 0.693374
v 0.246476 0.275525 0.696241
v 0.247923 0.276709 0.696241
v 0.247923 0.276709 0.693374
v 0.247923 0.276709 0.693374
v 0.247923 0.276709 0.696241
v 0.249642 0.277571 0.696241
v 0.249642 0.277571 0.693374
v 0.249642 0.277571 0.693374
v 0.249642 0.277571 0.696241
v 0.251604 0.278096 0.696241
v 0.251604 0.278096 0.693374
v 0.251604 0.278096 0.693374
v 0.251604 0.278096 0.696241
v 0.253784 0.278271 0.696241
v 0.253784 0.278271 0.693374
v 0.253784 0.278271 0.693374
v 0.253784 0.278271 0.696241
v 0.255988 0.278091 0.696241
v 0.255988 0.278091 0.693374
v 0.255988 0.278091 0.693374
v 0.255988 0.278091 0.696241
v 0.257964 0.277551 0.696241
v 0.257964 0.277551 0.693374
v 0.257964 0.277551 0.693374
v 0.257964 0.277551 0.696241
v 0.259681 0.276684 0.696241
v 0.259681 0.276684 0.693374
v 0.259681 0.276684 0.693374
v 0.259681 0.276684 0.696241
vn 0.9404498005347398 0.3399326001932857 0
vn 0.8520911006214046 0.5233935003816952 0
vn 0 0 -1
vn 0.7158062953970434 0.6982988955096238 0
vn 0 0 1
vn 0.9868732853127894 0.16149649759651707 0
vn 0.9999999986561195 0.00005184361993032837 0
vn 0.9872296079913273 -0.15930380128951643 0
vn 0.9419605064515159 -0.33572370229938175 0
vn 0.8523645906081525 -0.5229479942378557 0
vn 0.7154211641031395 -0.6986934649424659 0
vn 0.5410912087059818 -0.8409639135308361 0
vn 0.34870130349906064 -0.9372339094047206 0
vn 0.16537150743246218 -0.9862313443252122 0
vn -0.00016749819765036483 -0.9999999859721767 0
vn -0.16832079503656233 -0.9857322709327615 0
vn -0.3547212949537171 -0.9349720866990404 0
vn -0.5464302924102882 -0.8375045883673753 0
vn -0.718616986847078 -0.6954060872719094 0
vn -0.8532048911075488 -0.5215758945639222 0
vn -0.9418222760942058 -0.33611129146865865 0
vn -0.9872420294187072 -0.15922680474478054 0
vn -0.9999999727371949 -0.0002335071936339387 0
vn -0.986950213155785 0.16102570214642997 0
vn -0.9399461033040891 0.34132290119981484 0
vn -0.852879313452423 0.5221081082351852 0
vn -0.7190542965939476 0.6949538967081077 0
vn -0.5440429710722133 0.8390573553857441 0
vn -0.3551650966559484 0.9348035911983709 0
vn -0.16994879891743891 0.9854528937227389 0
vn 0.0007000837684551476 0.9999997549413284 0
vn 0.17336149299956424 0.9848582602308628 0
vn 0.3590612928629945 0.933313981448663 0
vn 0.5437531868865003 0.8392451797602264 0
vn -0.8520911006214046 -0.5233935003816952 0
vn -0.9404498005347398 -0.3399326001932857 0
vn -0.7158062953970434 -0.6982988955096238 0
vn -0.9868732853127894 -0.16149649759651707 0
vn -0.9999999986561195 -0.00005184361993032837 0
vn -0.9872296079913273 0.15930380128951643 0
vn -0.9419605064515159 0.33572370229938175 0
vn -0.8523645906081525 0.5229479942378557 0
vn -0.7154211641031395 0.6986934649424659 0
vn -0.5410912087059818 0.8409639135308361 0
vn -0.34870130349906064 0.9372339094047206 0
vn -0.16537150743246218 0.9862313443252122 0
vn 0.00016749819765036483 0.9999999859721767 0
vn 0.16832079503656233 0.9857322709327615 0
vn 0.3547212949537171 0.9349720866990404 0
vn 0.5464302924102882 0.8375045883673753 0
vn 0.718616986847078 0.6954060872719094 0
vn 0.8532048911075488 0.5215758945639222 0
vn 0.9418222760942058 0.33611129146865865 0
vn 0.9872420294187072 0.15922680474478054 0
vn 0.9999999727371949 0.0002335071936339387 0
vn 0.986950213155785 -0.16102570214642997 0
vn 0.9399461033040891 -0.34132290119981484 0
vn 0.852879313452423 -0.5221081082351852 0
vn 0.7190542965939476 -0.6949538967081077 0
vn 0.5440429710722133 -0.8390573553857441 0
vn 0.3551650966559484 -0.9348035911983709 0
vn 0.16994879891743891 -0.9854528937227389 0
vn -0.0007000837684551476 -0.9999997549413284 0
vn -0.17336149299956424 -0.9848582602308628 0
vn -0.3590612928629945 -0.933313981448663 0
vn -0.5437531868865003 -0.8392451797602264 0
usemtl material_0_0
f 5//35 6//36 7//35
f 8//36 7//35 6//36
f 73//5 74//5 75//5
f 75//5 74//5 76//5
f 74//5 77//5 76//5
f 77//5 78//5 76//5
f 76//5 78//5 79//5
f 78//5 80//5 79//5
f 80//5 81//5 79//5
f 79//5 81//5 82//5
f 81//5 83//5 82//5
f 82//5 83//5 84//5
f 83//5 85//5 84//5
f 84//5 85//5 86//5
f 85//5 87//5 86//5
f 87//5 88//5 86//5
f 86//5 88//5 89//5
f 88//5 90//5 89//5
f 89//5 90//5 91//5
f 90//5 92//5 91//5
f 92//5 93//5 91//5
f 91//5 93//5 94//5
f 93//5 95//5 94//5
f 95//5 96//5 94//5
f 94//5 96//5 97//5
f 96//5 98//5 97//5
f 98//5 99//5 97//5
f 99//5 100//5 97//5
f 97//5 100//5 101//5
f 100//5 102//5 101//5
f 101//5 102//5 103//5
f 102//5 104//5 103//5
f 103//5 104//5 105//5
f 106//5 105//5 104//5
f 107//5 108//5 109//5
f 108//5 110//5 109//5
f 109//5 110//5 111//5
f 110//5 112//5 111//5
f 111//5 112//5 75//5
f 75//5 112//5 73//5
f 73//5 112//5 113//5
f 112//5 114//5 113//5
f 113//5 114//5 115//5
f 115//5 114//5 116//5
f 114//5 117//5 116//5
f 116//5 117//5 118//5
f 118//5 117//5 119//5
f 117//5 120//5 119//5
f 119//5 120//5 121//5
f 120//5 122//5 121//5
f 121//5 122//5 123//5
f 123//5 122//5 124//5
f 122//5 125//5 124//5
f 124//5 125//5 126//5
f 125//5 127//5 126//5
f 126//5 127//5 128//5
f 127//5 129//5 128//5
f 128//5 129//5 130//5
f 130//5 129//5 131//5
f 129//5 132//5 131//5
f 131//5 132//5 133//5
f 133//5 132//5 134//5
f 132//5 135//5 134//5
f 134//5 135//5 136//5
f 136//5 135//5 99//5
f 100//5 99//5 135//5
f 139//37 5//35 140//37
f 7//35 140//37 5//35
f 205//3 206//3 207//3
f 207//3 206//3 208//3
f 206//3 209//3 208//3
f 208//3 209//3 210//3
f 209//3 211//3 210//3
f 211//3 212//3 210//3
f 212//3 213//3 210//3
f 210//3 213//3 214//3
f 213//3 215//3 214//3
f 215//3 216//3 214//3
f 214//3 216//3 217//3
f 216//3 218//3 217//3
f 218//3 219//3 217//3
f 217//3 219//3 220//3
f 219//3 221//3 220//3
f 220//3 221//3 222//3
f 221//3 223//3 222//3
f 222//3 223//3 224//3
f 223//3 225//3 224//3
f 225//3 226//3 224//3
f 224//3 226//3 227//3
f 226//3 228//3 227//3
f 227//3 228//3 229//3
f 228//3 230//3 229//3
f 230//3 231//3 229//3
f 229//3 231//3 232//3
f 231//3 233//3 232//3
f 233//3 234//3 232//3
f 232//3 234//3 235//3
f 234//3 236//3 235//3
f 236//3 237//3 235//3
f 238//3 235//3 237//3
f 212//3 211//3 239//3
f 211//3 240//3 239//3
f 239//3 240//3 241//3
f 241//3 240//3 242//3
f 240//3 243//3 242//3
f 242//3 243//3 244//3
f 244//3 243//3 245//3
f 243//3 246//3 245//3
f 245//3 246//3 247//3
f 246//3 248//3 247//3
f 247//3 248//3 249//3
f 249//3 248//3 250//3
f 248//3 251//3 250//3
f 250//3 251//3 252//3
f 251//3 253//3 252//3
f 252//3 253//3 254//3
f 253//3 255//3 254//3
f 254//3 255//3 256//3
f 256//3 255//3 257//3
f 255//3 258//3 257//3
f 257//3 258//3 259//3
f 259//3 258//3 260//3
f 258//3 261//3 260//3
f 260//3 261//3 262//3
f 262//3 261//3 237//3
f 237//3 261//3 238//3
f 261//3 263//3 238//3
f 238//3 263//3 264//3
f 263//3 265//3 264//3
f 264//3 265//3 266//3
f 265//3 267//3 266//3
f 268//3 266//3 267//3
f 6//36 271//38 8//36
f 272//38 8//36 271//38
f 271//38 275//39 272//38
f 276//39 272//38 275//39
f 275//39 279//40 276//39
f 280//40 276//39 279//40
f 279//40 283//41 280//40
f 284//41 280//40 283//41
f 283//41 287//42 284//41
f 288//42 284//41 287//42
f 287//42 291//43 288//42
f 292//43 288//42 291//43
f 292//43 291//43 295//44
f 296//44 295//44 291//43
f 295//44 296//44 299//45
f 300//45 299//45 296//44
f 299//45 300//45 303//46
f 304//46 303//46 300//45
f 303//46 304//46 307//47
f 308//47 307//47 304//46
f 307//47 308//47 311//48
f 312//48 311//48 308//47
f 311//48 312//48 315//49
f 316//49 315//49 312//48
f 315//49 316//49 319//50
f 320//50 319//50 316//49
f 319//50 320//50 323//51
f 324//51 323//51 320//50
f 324//51 327//52 323//51
f 328//52 323//51 327//52
f 327//52 331//53 328//52
f 332//53 328//52 331//53
f 331//53 335//54 332//53
f 336//54 332//53 335//54
f 335//54 339//55 336//54
f 340//55 336//54 339//55
f 339//55 343//56 340//55
f 344//56 340//55 343//56
f 343//56 347//57 344//56
f 348//57 344//56 347//57
f 347//57 351//58 348//57
f 352//58 348//57 351//58
f 351//58 355//59 352//58
f 356//59 352//58 355//59
f 359//60 360//60 355//59
f 356//59 355//59 360//60
f 363//61 364//61 359//60
f 360//60 359//60 364//61
f 367//62 368//62 363//61
f 364//61 363//61 368//62
f 371//63 372//63 367//62
f 368//62 367//62 372//63
f 375//64 376//64 371//63
f 372//63 371//63 376//64
f 379//65 380//65 375//64
f 376//64 375//64 380//65
f 383//66 384//66 379//65
f 380//65 379//65 384//66
f 139//37 140//37 383//66
f 384//66 383//66 140//37
usemtl material_1_0
f 1//1 2//2 3//1
f 2//2 1//1 4//2
f 9//3 10//3 11//3
f 10//3 9//3 12//3
f 12//3 9//3 13//3
f 13//3 9//3 14//3
f 13//3 14//3 15//3
f 15//3 14//3 16//3
f 16//3 14//3 17//3
f 16//3 17//3 18//3
f 18//3 17//3 19//3
f 19//3 17//3 20//3
f 19//3 20//3 21//3
f 21//3 20//3 22//3
f 21//3 22//3 23//3
f 23//3 22//3 24//3
f 23//3 24//3 25//3
f 25//3 24//3 26//3
f 26//3 24//3 27//3
f 26//3 27//3 28//3
f 28//3 27//3 29//3
f 28//3 29//3 30//3
f 30//3 29//3 31//3
f 31//3 29//3 32//3
f 31//3 32//3 33//3
f 33//3 32//3 34//3
f 34//3 32//3 35//3
f 34//3 35//3 36//3
f 36//3 35//3 37//3
f 37//3 35//3 38//3
f 38//3 35//3 39//3
f 38//3 39//3 40//3
f 40//3 39//3 41//3
f 40//3 41//3 42//3
f 43//3 44//3 45//3
f 44//3 43//3 46//3
f 46//3 43//3 47//3
f 46//3 47//3 48//3
f 48//3 47//3 11//3
f 48//3 11//3 49//3
f 49//3 11//3 10//3
f 49//3 10//3 50//3
f 49//3 50//3 51//3
f 49//3 51//3 52//3
f 52//3 51//3 53//3
f 52//3 53//3 54//3
f 52//3 54//3 55//3
f 55//3 54//3 56//3
f 55//3 56//3 57//3
f 55//3 57//3 58//3
f 58//3 57//3 59//3
f 58//3 59//3 60//3
f 60//3 59//3 61//3
f 60//3 61//3 62//3
f 60//3 62//3 63//3
f 63//3 62//3 64//3
f 63//3 64//3 65//3
f 65//3 64//3 66//3
f 65//3 66//3 67//3
f 67//3 66//3 68//3
f 67//3 68//3 69//3
f 67//3 69//3 70//3
f 70//3 69//3 71//3
f 70//3 71//3 72//3
f 70//3 72//3 37//3
f 37//3 72//3 36//3
f 4//2 137//4 2//2
f 137//4 4//2 138//4
f 141//5 142//5 143//5
f 142//5 141//5 144//5
f 142//5 144//5 145//5
f 145//5 144//5 146//5
f 145//5 146//5 147//5
f 147//5 146//5 148//5
f 147//5 148//5 149//5
f 149//5 148//5 150//5
f 150//5 148//5 151//5
f 151//5 148//5 152//5
f 151//5 152//5 153//5
f 153//5 152//5 154//5
f 154//5 152//5 155//5
f 154//5 155//5 156//5
f 156//5 155//5 157//5
f 157//5 155//5 158//5
f 157//5 158//5 159//5
f 159//5 158//5 160//5
f 159//5 160//5 161//5
f 161//5 160//5 162//5
f 161//5 162//5 163//5
f 163//5 162//5 164//5
f 164//5 162//5 165//5
f 164//5 165//5 166//5
f 166//5 165//5 167//5
f 166//5 167//5 168//5
f 168//5 167//5 169//5
f 169//5 167//5 170//5
f 169//5 170//5 171//5
f 171//5 170//5 172//5
f 172//5 170//5 173//5
f 172//5 173//5 174//5
f 149//5 175//5 147//5
f 175//5 149//5 176//5
f 175//5 176//5 177//5
f 175//5 177//5 178//5
f 178//5 177//5 179//5
f 178//5 179//5 180//5
f 178//5 180//5 181//5
f 181//5 180//5 182//5
f 181//5 182//5 183//5
f 181//5 183//5 184//5
f 184//5 183//5 185//5
f 184//5 185//5 186//5
f 186//5 185//5 187//5
f 186//5 187//5 188//5
f 186//5 188//5 189//5
f 189//5 188//5 190//5
f 189//5 190//5 191//5
f 191//5 190//5 192//5
f 191//5 192//5 193//5
f 193//5 192//5 194//5
f 193//5 194//5 195//5
f 193//5 195//5 196//5
f 196//5 195//5 197//5
f 196//5 197//5 198//5
f 196//5 198//5 199//5
f 199//5 198//5 174//5
f 199//5 174//5 173//5
f 199//5 173//5 200//5
f 199//5 200//5 201//5
f 201//5 200//5 202//5
f 201//5 202//5 203//5
f 203//5 202//5 204//5
f 269//6 3//1 270//6
f 3//1 269//6 1//1
f 273//7 270//6 274//7
f 270//6 273//7 269//6
f 277//8 274//7 278//8
f 274//7 277//8 273//7
f 281//9 278//8 282//9
f 278//8 281//9 277//8
f 285//10 282//9 286//10
f 282//9 285//10 281//9
f 289//11 286//10 290//11
f 286//10 289//11 285//10
f 289//11 293//12 294//12
f 293//12 289//11 290//11
f 294//12 297//13 298//13
f 297//13 294//12 293//12
f 298//13 301//14 302//14
f 301//14 298//13 297//13
f 302//14 305//15 306//15
f 305//15 302//14 301//14
f 306//15 309//16 310//16
f 309//16 306//15 305//15
f 310//16 313//17 314//17
f 313//17 310//16 309//16
f 314//17 317//18 318//18
f 317//18 314//17 313//17
f 318//18 321//19 322//19
f 321//19 318//18 317//18
f 325//20 321//19 326//20
f 321//19 325//20 322//19
f 329//21 326//20 330//21
f 326//20 329//21 325//20
f 333//22 330//21 334//22
f 330//21 333//22 329//21
f 337//23 334//22 338//23
f 334//22 337//23 333//22
f 341//24 338//23 342//24
f 338//23 341//24 337//23
f 345//25 342//24 346//25
f 342//24 345//25 341//24
f 349//26 346//25 350//26
f 346//25 349//26 345//25
f 353//27 350//26 354//27
f 350//26 353//27 349//26
f 357//28 353//27 354//27
f 353//27 357//28 358//28
f 361//29 358//28 357//28
f 358//28 361//29 362//29
f 365//30 362//29 361//29
f 362//29 365//30 366//30
f 369//31 366//30 365//30
f 366//30 369//31 370//31
f 373//32 370//31 369//31
f 370//31 373//32 374//32
f 377//33 374//32 373//32
f 374//32 377//33 378//33
f 381//34 378//33 377//33
f 378//33 381//34 382//34
f 137//4 382//34 381//34
f 382//34 137//4 138//4
