# SSTK version 0.8.0
# 59
mtllib original-59.mtl
o #ID247
v -0.025799 -0.094481 0.124236
v -0.021828 -0.091933 0.119336
v -0.026595 -0.094481 0.122134
v -0.021188 -0.091933 0.121028
v -0.021188 -0.091933 0.121028
v -0.025799 -0.094481 0.124236
v -0.021828 -0.091933 0.119336
v -0.026595 -0.094481 0.122134
v -0.031034 -0.095997 0.126361
v -0.031532 -0.096027 0.125032
v -0.030798 -0.096017 0.126976
v -0.030576 -0.096027 0.127560
v -0.030576 -0.096027 0.127560
v -0.030798 -0.096017 0.126976
v -0.031034 -0.095997 0.126361
v -0.031532 -0.096027 0.125032
v -0.017313 -0.088428 0.116686
v -0.016820 -0.088428 0.117989
v -0.016820 -0.088428 0.117989
v -0.017313 -0.088428 0.116686
v -0.035665 -0.096545 0.130024
v -0.031532 -0.096027 0.125032
v -0.036555 -0.096545 0.127980
v -0.033798 -0.096370 0.129802
v -0.031034 -0.095997 0.126361
v -0.030576 -0.096027 0.127560
v -0.030798 -0.096017 0.126976
v -0.035658 -0.096545 0.130352
v -0.036555 -0.096545 0.127980
v -0.035665 -0.096545 0.130024
v -0.035658 -0.096545 0.130352
v -0.030798 -0.096017 0.126976
v -0.030576 -0.096027 0.127560
v -0.031034 -0.095997 0.126361
v -0.033798 -0.096370 0.129802
v -0.031532 -0.096027 0.125032
v -0.030576 -0.096027 0.127560
v -0.030854 -0.096027 0.127028
v -0.030798 -0.096017 0.126976
v -0.030798 -0.096017 0.126976
v -0.030854 -0.096027 0.127028
v -0.030576 -0.096027 0.127560
v -0.030576 -0.096027 0.127560
v -0.030798 -0.096017 0.126976
v -0.030854 -0.096027 0.127028
v -0.030854 -0.096027 0.127028
v -0.030798 -0.096017 0.126976
v -0.030576 -0.096027 0.127560
v -0.035658 -0.096545 0.130352
v -0.035665 -0.096545 0.130024
v -0.036555 -0.096545 0.127980
v -0.031532 -0.096027 0.125032
v -0.033798 -0.096370 0.129802
v -0.031572 -0.096027 0.126134
v -0.031188 -0.096027 0.126550
v -0.031034 -0.095997 0.126361
v -0.031034 -0.095997 0.126361
v -0.031188 -0.096027 0.126550
v -0.031532 -0.096027 0.125032
v -0.031572 -0.096027 0.126134
v -0.033798 -0.096370 0.129802
v -0.035665 -0.096545 0.130024
v -0.036555 -0.096545 0.127980
v -0.035658 -0.096545 0.130352
v -0.030854 -0.096027 0.127028
v -0.031034 -0.095997 0.126361
v -0.031188 -0.096027 0.126550
v -0.030798 -0.096017 0.126976
v -0.030798 -0.096017 0.126976
v -0.030854 -0.096027 0.127028
v -0.031034 -0.095997 0.126361
v -0.031188 -0.096027 0.126550
v -0.013127 -0.084025 0.114229
v -0.012771 -0.084025 0.115172
v -0.012771 -0.084025 0.115172
v -0.013127 -0.084025 0.114229
v -0.030359 -0.096027 0.128133
v -0.030576 -0.096027 0.127560
v -0.033798 -0.096370 0.129802
v -0.033798 -0.096370 0.129802
v -0.030576 -0.096027 0.127560
v -0.030359 -0.096027 0.128133
v -0.030576 -0.096027 0.127560
v -0.030854 -0.096027 0.127028
v -0.033798 -0.096370 0.129802
v -0.033798 -0.096370 0.129802
v -0.030854 -0.096027 0.127028
v -0.030576 -0.096027 0.127560
v -0.030576 -0.096027 0.127560
v -0.033798 -0.096370 0.129802
v -0.030854 -0.096027 0.127028
v -0.030854 -0.096027 0.127028
v -0.033798 -0.096370 0.129802
v -0.030576 -0.096027 0.127560
v -0.031188 -0.096027 0.126550
v -0.031572 -0.096027 0.126134
v -0.033798 -0.096370 0.129802
v -0.033798 -0.096370 0.129802
v -0.031572 -0.096027 0.126134
v -0.031188 -0.096027 0.126550
v -0.031572 -0.096027 0.126134
v -0.033447 -0.096027 0.125224
v -0.033798 -0.096370 0.129802
v -0.032945 -0.096027 0.125328
v -0.032459 -0.096027 0.125517
v -0.031998 -0.096027 0.125787
v -0.031998 -0.096027 0.125787
v -0.031572 -0.096027 0.126134
v -0.032459 -0.096027 0.125517
v -0.032945 -0.096027 0.125328
v -0.033447 -0.096027 0.125224
v -0.033798 -0.096370 0.129802
v -0.030854 -0.096027 0.127028
v -0.031188 -0.096027 0.126550
v -0.033798 -0.096370 0.129802
v -0.033798 -0.096370 0.129802
v -0.031188 -0.096027 0.126550
v -0.030854 -0.096027 0.127028
v -0.009395 -0.078826 0.112041
v -0.009109 -0.078799 0.112624
v -0.009343 -0.078799 0.112007
v -0.009343 -0.078799 0.112007
v -0.009109 -0.078799 0.112624
v -0.009395 -0.078826 0.112041
v -0.030207 -0.096027 0.128739
v -0.030359 -0.096027 0.128133
v -0.033798 -0.096370 0.129802
v -0.033798 -0.096370 0.129802
v -0.030359 -0.096027 0.128133
v -0.030207 -0.096027 0.128739
v -0.030124 -0.096027 0.129364
v -0.030207 -0.096027 0.128739
v -0.033798 -0.096370 0.129802
v -0.033798 -0.096370 0.129802
v -0.030207 -0.096027 0.128739
v -0.030124 -0.096027 0.129364
vn -0.31997036261653666 0.9396779438634669 0.12093109138500759
vn -0.4635030085540099 0.8685775996357936 0.1753223159563688
vn -0.3231673575621034 0.9384261284253677 0.12214442473933625
vn -0.46087539795677646 0.8701744009583902 0.17432836681071068
vn 0.46087539795677646 -0.8701744009583902 -0.17432836681071068
vn 0.31997036261653666 -0.9396779438634669 -0.12093109138500759
vn 0.4635030085540099 -0.8685775996357936 -0.1753223159563688
vn 0.3231673575621034 -0.9384261284253677 -0.12214442473933625
vn -0.24571405115750775 0.9648948181529756 0.09275017501493803
vn 0.24571405115750775 -0.9648948181529756 -0.09275017501493803
vn -0.5821640542310657 0.782683944646941 0.22020639580437495
vn -0.5801130108297512 0.784422799524413 0.21943054995219716
vn 0.5801130108297512 -0.784422799524413 -0.21943054995219716
vn 0.5821640542310657 -0.782683944646941 -0.22020639580437495
vn -0.08510683433635913 0.9957914842901826 0.034002155290490325
vn 0.08510683433635913 -0.9957914842901826 -0.034002155290490325
vn 0.11529179014814335 -0.9914924189168499 -0.060420082380367446
vn -0.11529179014814335 0.9914924189168499 0.060420082380367446
vn -0.10394361369871286 0.9919261484780045 0.07265150471149498
vn 0.10394361369871286 -0.9919261484780045 -0.07265150471149498
vn -0.08902296032381952 0.9954996061982049 0.032487637562657184
vn 0.08902296032381952 -0.9954996061982049 -0.032487637562657184
vn -0.10387933620684872 0.9919368466940115 0.07259735311955522
vn 0.10387933620684872 -0.9919368466940115 -0.07259735311955522
vn -0.6779389760436514 0.6872273022605658 0.2609930646368795
vn -0.6764782391261428 0.6889328451617531 0.26028585602395843
vn 0.6764782391261428 -0.6889328451617531 -0.26028585602395843
vn 0.6779389760436514 -0.6872273022605658 -0.2609930646368795
vn -0.08409838123645287 0.9959495704463607 0.031810617741848554
vn 0.08409838123645287 -0.9959495704463607 -0.031810617741848554
vn -0.07446490763981405 0.9961989484494996 0.04519549356191533
vn 0.07446490763981405 -0.9961989484494996 -0.04519549356191533
vn 0.07786056364245669 -0.9961288994231817 -0.040803778786281115
vn -0.07786056364245669 0.9961288994231817 0.040803778786281115
vn -0.061084358211069015 0.9965425387684173 0.05631757813453644
vn 0.061084358211069015 -0.9965425387684173 -0.05631757813453644
vn -0.03428281691082443 0.9969100884580103 0.07067505921682
vn 0.03428281691082443 -0.9969100884580103 -0.07067505921682
vn -0.07014096154500656 0.9963316643977596 0.04902509594005939
vn 0.07014096154500656 -0.9963316643977596 -0.04902509594005939
vn -0.7176146338867812 0.6375191174412376 0.2803544401797244
vn 0.7176146338867812 -0.6375191174412376 -0.2803544401797244
vn -0.08873798831710798 0.9958072062439547 0.02221660239646296
vn 0.08873798831710798 -0.9958072062439547 -0.02221660239646296
vn -0.09169311574485535 0.995712533545282 0.012203403862711007
vn 0.09169311574485535 -0.995712533545282 -0.012203403862711007
usemtl material_0_0
f 1//1 2//2 3//3
f 2//2 1//1 4//4
f 5//5 6//6 7//7
f 8//8 7//7 6//6
f 9//9 3//3 10//9
f 3//3 9//9 11//9
f 3//3 11//9 12//9
f 3//3 12//9 1//1
f 6//6 13//10 8//8
f 13//10 14//10 8//8
f 14//10 15//10 8//8
f 16//10 8//8 15//10
f 4//4 17//11 2//2
f 17//11 4//4 18//12
f 19//13 5//5 20//14
f 7//7 20//14 5//5
f 21//15 22//15 23//15
f 22//15 21//15 24//15
f 22//15 24//15 25//15
f 25//15 24//15 26//15
f 25//15 26//15 27//15
f 28//15 21//15 23//15
f 29//16 30//16 31//16
f 32//16 33//16 34//16
f 33//16 35//16 34//16
f 34//16 35//16 36//16
f 35//16 30//16 36//16
f 29//16 36//16 30//16
f 37//17 38//17 39//17
f 40//18 41//18 42//18
f 43//19 44//19 45//19
f 46//20 47//20 48//20
f 49//21 50//21 51//21
f 50//21 52//21 51//21
f 52//21 50//21 53//21
f 52//21 53//21 54//21
f 52//21 54//21 55//21
f 52//21 55//21 56//21
f 57//22 58//22 59//22
f 58//22 60//22 59//22
f 60//22 61//22 59//22
f 61//22 62//22 59//22
f 63//22 59//22 62//22
f 63//22 62//22 64//22
f 65//23 66//23 67//23
f 66//23 65//23 68//23
f 69//24 70//24 71//24
f 72//24 71//24 70//24
f 18//12 73//25 17//11
f 73//25 18//12 74//26
f 75//27 19//13 76//28
f 20//14 76//28 19//13
f 77//29 78//29 79//29
f 80//30 81//30 82//30
f 77//29 78//29 79//29
f 80//30 81//30 82//30
f 77//29 78//29 79//29
f 80//30 81//30 82//30
f 83//31 84//31 85//31
f 86//32 87//32 88//32
f 89//33 90//33 91//33
f 92//34 93//34 94//34
f 89//33 90//33 91//33
f 92//34 93//34 94//34
f 89//33 90//33 91//33
f 92//34 93//34 94//34
f 89//33 90//33 91//33
f 92//34 93//34 94//34
f 89//33 90//33 91//33
f 92//34 93//34 94//34
f 95//35 96//35 97//35
f 98//36 99//36 100//36
f 95//35 96//35 97//35
f 98//36 99//36 100//36
f 95//35 96//35 97//35
f 98//36 99//36 100//36
f 101//37 102//37 103//37
f 102//37 101//37 104//37
f 104//37 101//37 105//37
f 105//37 101//37 106//37
f 107//38 108//38 109//38
f 109//38 108//38 110//38
f 110//38 108//38 111//38
f 112//38 111//38 108//38
f 95//35 96//35 97//35
f 98//36 99//36 100//36
f 95//35 96//35 97//35
f 98//36 99//36 100//36
f 101//37 102//37 103//37
f 102//37 101//37 104//37
f 104//37 101//37 105//37
f 105//37 101//37 106//37
f 107//38 108//38 109//38
f 109//38 108//38 110//38
f 110//38 108//38 111//38
f 112//38 111//38 108//38
f 95//35 96//35 97//35
f 98//36 99//36 100//36
f 101//37 102//37 103//37
f 102//37 101//37 104//37
f 104//37 101//37 105//37
f 105//37 101//37 106//37
f 107//38 108//38 109//38
f 109//38 108//38 110//38
f 110//38 108//38 111//38
f 112//38 111//38 108//38
f 113//39 114//39 115//39
f 116//40 117//40 118//40
f 113//39 114//39 115//39
f 116//40 117//40 118//40
f 113//39 114//39 115//39
f 116//40 117//40 118//40
f 113//39 114//39 115//39
f 116//40 117//40 118//40
f 113//39 114//39 115//39
f 116//40 117//40 118//40
f 74//26 119//41 73//25
f 119//41 74//26 120//41
f 119//41 120//41 121//41
f 122//42 123//42 124//42
f 123//42 75//27 124//42
f 76//28 124//42 75//27
f 125//43 126//43 127//43
f 128//44 129//44 130//44
f 125//43 126//43 127//43
f 128//44 129//44 130//44
f 131//45 132//45 133//45
f 134//46 135//46 136//46
f 131//45 132//45 133//45
f 134//46 135//46 136//46
f 131//45 132//45 133//45
f 134//46 135//46 136//46
