# SSTK version 0.8.0
# 92
mtllib original-92.mtl
o #ID520
v 0.280761 0.277805 0.690204
v 0.273531 0.275413 0.692637
v 0.280761 0.275413 0.690204
v 0.270668 0.275413 0.693600
v 0.263438 0.275413 0.696033
v 0.263438 0.277805 0.696033
v 0.270668 0.257564 0.693600
v 0.273531 0.257564 0.692637
v 0.270668 0.275413 0.693600
v 0.273531 0.275413 0.692637
v 0.270668 0.257564 0.693600
v 0.273531 0.257564 0.692637
v 0.263438 0.277805 0.696033
v 0.280761 0.277805 0.690204
v 0.263438 0.275413 0.696033
v 0.280761 0.275413 0.690204
v 0.269753 0.275413 0.690883
v 0.270668 0.257564 0.693600
v 0.270668 0.275413 0.693600
v 0.269753 0.257564 0.690883
v 0.269753 0.257564 0.690883
v 0.269753 0.275413 0.690883
v 0.270668 0.257564 0.693600
v 0.270668 0.275413 0.693600
v 0.272616 0.257564 0.689919
v 0.270668 0.257564 0.693600
v 0.269753 0.257564 0.690883
v 0.273531 0.257564 0.692637
v 0.273531 0.257564 0.692637
v 0.272616 0.257564 0.689919
v 0.270668 0.257564 0.693600
v 0.269753 0.257564 0.690883
v 0.272616 0.257564 0.689919
v 0.273531 0.275413 0.692637
v 0.273531 0.257564 0.692637
v 0.272616 0.275413 0.689919
v 0.272616 0.275413 0.689919
v 0.272616 0.257564 0.689919
v 0.273531 0.275413 0.692637
v 0.273531 0.257564 0.692637
v 0.279846 0.275413 0.687486
v 0.273531 0.275413 0.692637
v 0.272616 0.275413 0.689919
v 0.280761 0.275413 0.690204
v 0.280761 0.275413 0.690204
v 0.279846 0.275413 0.687486
v 0.273531 0.275413 0.692637
v 0.272616 0.275413 0.689919
v 0.279846 0.275413 0.687486
v 0.280761 0.277805 0.690204
v 0.280761 0.275413 0.690204
v 0.279846 0.277805 0.687486
v 0.279846 0.277805 0.687486
v 0.279846 0.275413 0.687486
v 0.280761 0.277805 0.690204
v 0.280761 0.275413 0.690204
v 0.263438 0.277805 0.696033
v 0.279846 0.277805 0.687486
v 0.262523 0.277805 0.693316
v 0.280761 0.277805 0.690204
v 0.280761 0.277805 0.690204
v 0.263438 0.277805 0.696033
v 0.279846 0.277805 0.687486
v 0.262523 0.277805 0.693316
v 0.262523 0.277805 0.693316
v 0.263438 0.275413 0.696033
v 0.263438 0.277805 0.696033
v 0.262523 0.275413 0.693316
v 0.262523 0.275413 0.693316
v 0.262523 0.277805 0.693316
v 0.263438 0.275413 0.696033
v 0.263438 0.277805 0.696033
v 0.269753 0.275413 0.690883
v 0.263438 0.275413 0.696033
v 0.262523 0.275413 0.693316
v 0.270668 0.275413 0.693600
v 0.270668 0.275413 0.693600
v 0.269753 0.275413 0.690883
v 0.263438 0.275413 0.696033
v 0.262523 0.275413 0.693316
v 0.262523 0.277805 0.693316
v 0.269753 0.275413 0.690883
v 0.262523 0.275413 0.693316
v 0.272616 0.275413 0.689919
v 0.279846 0.275413 0.687486
v 0.279846 0.277805 0.687486
v 0.272616 0.257564 0.689919
v 0.269753 0.257564 0.690883
v 0.272616 0.275413 0.689919
v 0.269753 0.275413 0.690883
v 0.272616 0.257564 0.689919
v 0.269753 0.257564 0.690883
v 0.279846 0.277805 0.687486
v 0.262523 0.277805 0.693316
v 0.279846 0.275413 0.687486
v 0.262523 0.275413 0.693316
vn 0.31895930397183275 0 0.9477684118020625
vn -0.9477684118020625 0 0.31895930397183275
vn 0 -1 0
vn 0.9477684118020625 0 -0.31895930397183275
vn 0 1 0
vn -0.31895930397183275 0 -0.9477684118020625
usemtl material_0_0
f 9//6 10//6 11//6
f 12//6 11//6 10//6
f 13//6 14//6 15//6
f 15//6 14//6 9//6
f 9//6 14//6 10//6
f 16//6 10//6 14//6
f 21//4 22//4 23//4
f 24//4 23//4 22//4
f 29//5 30//5 31//5
f 32//5 31//5 30//5
f 37//2 38//2 39//2
f 40//2 39//2 38//2
f 45//5 46//5 47//5
f 48//5 47//5 46//5
f 53//2 54//2 55//2
f 56//2 55//2 54//2
f 61//3 62//3 63//3
f 64//3 63//3 62//3
f 69//4 70//4 71//4
f 72//4 71//4 70//4
f 77//5 78//5 79//5
f 80//5 79//5 78//5
f 89//1 90//1 91//1
f 92//1 91//1 90//1
f 93//1 94//1 95//1
f 95//1 94//1 89//1
f 89//1 94//1 90//1
f 96//1 90//1 94//1
usemtl material_1_0
f 1//1 2//1 3//1
f 2//1 1//1 4//1
f 4//1 1//1 5//1
f 5//1 1//1 6//1
f 2//1 7//1 8//1
f 7//1 2//1 4//1
f 17//2 18//2 19//2
f 18//2 17//2 20//2
f 25//3 26//3 27//3
f 26//3 25//3 28//3
f 33//4 34//4 35//4
f 34//4 33//4 36//4
f 41//3 42//3 43//3
f 42//3 41//3 44//3
f 49//4 50//4 51//4
f 50//4 49//4 52//4
f 57//5 58//5 59//5
f 58//5 57//5 60//5
f 65//2 66//2 67//2
f 66//2 65//2 68//2
f 73//3 74//3 75//3
f 74//3 73//3 76//3
f 81//6 82//6 83//6
f 82//6 81//6 84//6
f 84//6 81//6 85//6
f 85//6 81//6 86//6
f 82//6 87//6 88//6
f 87//6 82//6 84//6
