# SSTK version 0.8.0
# 71
mtllib original-71.mtl
o #ID430
v -0.344266 -0.494313 0.508036
v 0.396444 -0.494313 0.188908
v -0.344266 -0.494313 0.188908
v 0.396444 -0.494313 0.508036
v 0.396444 -0.494313 0.508036
v -0.344266 -0.494313 0.508036
v 0.396444 -0.494313 0.188908
v -0.344266 -0.494313 0.188908
v -0.344266 -0.402936 0.508036
v 0.396444 -0.494313 0.508036
v -0.344266 -0.494313 0.508036
v 0.396444 -0.402936 0.508036
v 0.396444 -0.402936 0.508036
v -0.344266 -0.402936 0.508036
v 0.396444 -0.494313 0.508036
v -0.344266 -0.494313 0.508036
v 0.396444 -0.402936 0.188908
v 0.396444 -0.494313 0.508036
v 0.396444 -0.402936 0.508036
v 0.396444 -0.494313 0.188908
v 0.396444 -0.494313 0.188908
v 0.396444 -0.402936 0.188908
v 0.396444 -0.494313 0.508036
v 0.396444 -0.402936 0.508036
v 0.396444 -0.402936 0.188908
v -0.344266 -0.494313 0.188908
v 0.396444 -0.494313 0.188908
v -0.344266 -0.402936 0.188908
v -0.344266 -0.402936 0.188908
v 0.396444 -0.402936 0.188908
v -0.344266 -0.494313 0.188908
v 0.396444 -0.494313 0.188908
v -0.344266 -0.494313 0.188908
v -0.344266 -0.402936 0.508036
v -0.344266 -0.494313 0.508036
v -0.344266 -0.402936 0.188908
v -0.344266 -0.402936 0.188908
v -0.344266 -0.494313 0.188908
v -0.344266 -0.402936 0.508036
v -0.344266 -0.494313 0.508036
vt 0.2 0.1
vt 2.875 1.2525
vt 0.2 1.2525
vt 2.875 0.1
vt -0.2 0.6535
vt -2.875 0.3235
vt -0.2 0.3235
vt -2.875 0.6535
vt -1.2525 0.6535
vt -0.1 0.3235
vt -0.1 0.6535
vt -1.2525 0.3235
vt 2.875 0.6535
vt 0.2 0.3235
vt 2.875 0.3235
vt 0.2 0.6535
vt 1.2525 0.3235
vt 0.1 0.6535
vt 0.1 0.3235
vt 1.2525 0.6535
vn 0 1 0
vn 0 0 -1
vn -1 0 0
vn 0 0 1
vn 1 0 0
vn 0 -1 0
usemtl material_0_0
f 1/1/1 2/2/1 3/3/1
f 2/2/1 1/1/1 4/4/1
f 9/5/2 10/6/2 11/7/2
f 10/6/2 9/5/2 12/8/2
f 17/9/3 18/10/3 19/11/3
f 18/10/3 17/9/3 20/12/3
f 25/13/4 26/14/4 27/15/4
f 26/14/4 25/13/4 28/16/4
f 33/17/5 34/18/5 35/19/5
f 34/18/5 33/17/5 36/20/5
usemtl material_1_0
f 5//6 6//6 7//6
f 8//6 7//6 6//6
f 13//4 14//4 15//4
f 16//4 15//4 14//4
f 21//5 22//5 23//5
f 24//5 23//5 22//5
f 29//2 30//2 31//2
f 32//2 31//2 30//2
f 37//3 38//3 39//3
f 40//3 39//3 38//3
