# SSTK version 0.8.0
# 117
mtllib original-117.mtl
o #ID628
v -0.277783 0.608483 0.387760
v -0.281031 0.608483 0.384841
v -0.281038 0.608483 0.387760
v -0.277783 0.608483 0.384841
v -0.293295 0.608483 0.394060
v -0.293810 0.608483 0.382558
v -0.293816 0.608483 0.390103
v -0.293295 0.608483 0.378648
v -0.290321 0.608483 0.401241
v -0.290321 0.608483 0.371467
v -0.285589 0.608483 0.407407
v -0.285589 0.608483 0.365301
v -0.279423 0.608483 0.412139
v -0.281038 0.608483 0.388479
v -0.280745 0.608483 0.390697
v -0.279069 0.608483 0.394745
v -0.272242 0.608483 0.415113
v -0.276402 0.608483 0.398220
v -0.272927 0.608483 0.400887
v -0.268879 0.608483 0.402564
v -0.264536 0.608483 0.416128
v -0.264536 0.608483 0.403136
v -0.256830 0.608483 0.415113
v -0.260192 0.608483 0.402564
v -0.256145 0.608483 0.400887
v -0.249649 0.608483 0.412139
v -0.252669 0.608483 0.398220
v -0.250002 0.608483 0.394745
v -0.248326 0.608483 0.390697
v -0.243482 0.608483 0.407407
v -0.247754 0.608483 0.386354
v -0.281031 0.608483 0.384182
v -0.279423 0.608483 0.360569
v -0.280745 0.608483 0.382011
v -0.279069 0.608483 0.377963
v -0.272242 0.608483 0.357595
v -0.276402 0.608483 0.374488
v -0.272927 0.608483 0.371821
v -0.268879 0.608483 0.370144
v -0.264536 0.608483 0.356580
v -0.264536 0.608483 0.369572
v -0.260192 0.608483 0.370144
v -0.256830 0.608483 0.357595
v -0.256145 0.608483 0.371821
v -0.249649 0.608483 0.360569
v -0.252669 0.608483 0.374488
v -0.250002 0.608483 0.377963
v -0.248326 0.608483 0.382011
v -0.243482 0.608483 0.365301
v -0.238751 0.608483 0.401241
v -0.238751 0.608483 0.371467
v -0.235776 0.608483 0.394060
v -0.235776 0.608483 0.378648
v -0.234762 0.608483 0.386354
v -0.234762 0.608483 0.386354
v -0.235776 0.608483 0.394060
v -0.235776 0.608483 0.378648
v -0.238751 0.608483 0.371467
v -0.238751 0.608483 0.401241
v -0.243482 0.608483 0.365301
v -0.243482 0.608483 0.407407
v -0.247754 0.608483 0.386354
v -0.248326 0.608483 0.382011
v -0.249649 0.608483 0.360569
v -0.250002 0.608483 0.377963
v -0.252669 0.608483 0.374488
v -0.256145 0.608483 0.371821
v -0.256830 0.608483 0.357595
v -0.260192 0.608483 0.370144
v -0.264536 0.608483 0.356580
v -0.264536 0.608483 0.369572
v -0.268879 0.608483 0.370144
v -0.272242 0.608483 0.357595
v -0.272927 0.608483 0.371821
v -0.276402 0.608483 0.374488
v -0.279069 0.608483 0.377963
v -0.279423 0.608483 0.360569
v -0.280745 0.608483 0.382011
v -0.281031 0.608483 0.384182
v -0.281031 0.608483 0.384841
v -0.281038 0.608483 0.387760
v -0.281038 0.608483 0.388479
v -0.285589 0.608483 0.365301
v -0.248326 0.608483 0.390697
v -0.249649 0.608483 0.412139
v -0.250002 0.608483 0.394745
v -0.252669 0.608483 0.398220
v -0.256145 0.608483 0.400887
v -0.256830 0.608483 0.415113
v -0.260192 0.608483 0.402564
v -0.264536 0.608483 0.403136
v -0.264536 0.608483 0.416128
v -0.268879 0.608483 0.402564
v -0.272242 0.608483 0.415113
v -0.272927 0.608483 0.400887
v -0.276402 0.608483 0.398220
v -0.279069 0.608483 0.394745
v -0.279423 0.608483 0.412139
v -0.280745 0.608483 0.390697
v -0.285589 0.608483 0.407407
v -0.290321 0.608483 0.371467
v -0.290321 0.608483 0.401241
v -0.293295 0.608483 0.378648
v -0.293295 0.608483 0.394060
v -0.293810 0.608483 0.382558
v -0.293816 0.608483 0.390103
v -0.277783 0.608483 0.384841
v -0.277783 0.608483 0.387760
v -0.249649 0.604693 0.412139
v -0.256830 0.601245 0.415113
v -0.249649 0.601245 0.412139
v -0.256830 0.604693 0.415113
v -0.249649 0.608483 0.412139
v -0.256830 0.608483 0.415113
v -0.256830 0.608483 0.415113
v -0.249649 0.608483 0.412139
v -0.256830 0.604693 0.415113
v -0.249649 0.604693 0.412139
v -0.256830 0.601245 0.415113
v -0.249649 0.601245 0.412139
v -0.243482 0.604693 0.407407
v -0.243482 0.601245 0.407407
v -0.243482 0.608483 0.407407
v -0.243482 0.608483 0.407407
v -0.243482 0.604693 0.407407
v -0.243482 0.601245 0.407407
v -0.238751 0.601245 0.401241
v -0.238751 0.608483 0.401241
v -0.238751 0.604693 0.401241
v -0.238751 0.604693 0.401241
v -0.238751 0.601245 0.401241
v -0.238751 0.608483 0.401241
v -0.235776 0.601245 0.394060
v -0.235776 0.608483 0.394060
v -0.235776 0.604693 0.394060
v -0.235776 0.604693 0.394060
v -0.235776 0.601245 0.394060
v -0.235776 0.608483 0.394060
v -0.234762 0.601245 0.386354
v -0.234762 0.608483 0.386354
v -0.234762 0.604693 0.386354
v -0.234762 0.604693 0.386354
v -0.234762 0.601245 0.386354
v -0.234762 0.608483 0.386354
v -0.235776 0.601245 0.378648
v -0.235776 0.608483 0.378648
v -0.235776 0.604693 0.378648
v -0.235776 0.604693 0.378648
v -0.235776 0.601245 0.378648
v -0.235776 0.608483 0.378648
v -0.238751 0.601245 0.371467
v -0.238751 0.608483 0.371467
v -0.238751 0.604693 0.371467
v -0.238751 0.604693 0.371467
v -0.238751 0.601245 0.371467
v -0.238751 0.608483 0.371467
v -0.243482 0.601245 0.365301
v -0.243482 0.608483 0.365301
v -0.243482 0.604693 0.365301
v -0.243482 0.604693 0.365301
v -0.243482 0.601245 0.365301
v -0.243482 0.608483 0.365301
v -0.249649 0.604693 0.360569
v -0.249649 0.601245 0.360569
v -0.249649 0.608483 0.360569
v -0.249649 0.608483 0.360569
v -0.249649 0.604693 0.360569
v -0.249649 0.601245 0.360569
v -0.256830 0.604693 0.357595
v -0.256830 0.601245 0.357595
v -0.256830 0.608483 0.357595
v -0.256830 0.608483 0.357595
v -0.256830 0.604693 0.357595
v -0.256830 0.601245 0.357595
v -0.264536 0.604693 0.356580
v -0.264536 0.601245 0.356580
v -0.264536 0.608483 0.356580
v -0.264536 0.608483 0.356580
v -0.264536 0.604693 0.356580
v -0.264536 0.601245 0.356580
v -0.272242 0.604693 0.357595
v -0.272242 0.601245 0.357595
v -0.272242 0.608483 0.357595
v -0.272242 0.608483 0.357595
v -0.272242 0.604693 0.357595
v -0.272242 0.601245 0.357595
v -0.279423 0.604693 0.360569
v -0.279423 0.601245 0.360569
v -0.279423 0.608483 0.360569
v -0.279423 0.608483 0.360569
v -0.279423 0.604693 0.360569
v -0.279423 0.601245 0.360569
v -0.285589 0.604693 0.365301
v -0.285589 0.601245 0.365301
v -0.285589 0.608483 0.365301
v -0.285589 0.608483 0.365301
v -0.285589 0.604693 0.365301
v -0.285589 0.601245 0.365301
v -0.290321 0.604693 0.371467
v -0.290321 0.608483 0.371467
v -0.290321 0.601245 0.371467
v -0.290321 0.601245 0.371467
v -0.290321 0.604693 0.371467
v -0.290321 0.608483 0.371467
v -0.293295 0.604693 0.378648
v -0.293295 0.608483 0.378648
v -0.293295 0.601245 0.378648
v -0.293295 0.601245 0.378648
v -0.293295 0.604693 0.378648
v -0.293295 0.608483 0.378648
v -0.293810 0.604693 0.382558
v -0.293810 0.608483 0.382558
v -0.293810 0.604693 0.382558
v -0.293810 0.608483 0.382558
v -0.293816 0.608483 0.390103
v -0.293295 0.604693 0.394060
v -0.293295 0.608483 0.394060
v -0.293295 0.601245 0.394060
v -0.293816 0.601245 0.390103
v -0.293816 0.604693 0.390103
v -0.293816 0.604693 0.390103
v -0.293816 0.608483 0.390103
v -0.293816 0.601245 0.390103
v -0.293295 0.601245 0.394060
v -0.293295 0.604693 0.394060
v -0.293295 0.608483 0.394060
v -0.290321 0.604693 0.401241
v -0.290321 0.608483 0.401241
v -0.290321 0.601245 0.401241
v -0.290321 0.601245 0.401241
v -0.290321 0.604693 0.401241
v -0.290321 0.608483 0.401241
v -0.285589 0.604693 0.407407
v -0.285589 0.608483 0.407407
v -0.285589 0.601245 0.407407
v -0.285589 0.601245 0.407407
v -0.285589 0.604693 0.407407
v -0.285589 0.608483 0.407407
v -0.279423 0.604693 0.412139
v -0.279423 0.601245 0.412139
v -0.279423 0.608483 0.412139
v -0.279423 0.608483 0.412139
v -0.279423 0.604693 0.412139
v -0.279423 0.601245 0.412139
v -0.272242 0.604693 0.415113
v -0.272242 0.601245 0.415113
v -0.272242 0.608483 0.415113
v -0.272242 0.608483 0.415113
v -0.272242 0.604693 0.415113
v -0.272242 0.601245 0.415113
v -0.264536 0.604693 0.416128
v -0.264536 0.601245 0.416128
v -0.264536 0.608483 0.416128
v -0.264536 0.608483 0.416128
v -0.264536 0.604693 0.416128
v -0.264536 0.601245 0.416128
v -0.285589 0.601245 0.365301
v -0.281031 0.601245 0.384182
v -0.281038 0.601245 0.387760
v -0.279423 0.601245 0.360569
v -0.280745 0.601245 0.382011
v -0.279069 0.601245 0.377963
v -0.272242 0.601245 0.357595
v -0.276402 0.601245 0.374488
v -0.272927 0.601245 0.371821
v -0.268879 0.601245 0.370144
v -0.264536 0.601245 0.356580
v -0.264536 0.601245 0.369572
v -0.256830 0.601245 0.357595
v -0.260192 0.601245 0.370144
v -0.256145 0.601245 0.371821
v -0.249649 0.601245 0.360569
v -0.252669 0.601245 0.374488
v -0.250002 0.601245 0.377963
v -0.248326 0.601245 0.382011
v -0.243482 0.601245 0.365301
v -0.247754 0.601245 0.386354
v -0.293810 0.601245 0.382558
v -0.293295 0.601245 0.394060
v -0.293816 0.601245 0.390103
v -0.293295 0.601245 0.378648
v -0.290321 0.601245 0.401241
v -0.290321 0.601245 0.371467
v -0.285589 0.601245 0.407407
v -0.279423 0.601245 0.412139
v -0.281038 0.601245 0.388479
v -0.280745 0.601245 0.390697
v -0.279069 0.601245 0.394745
v -0.272242 0.601245 0.415113
v -0.276402 0.601245 0.398220
v -0.272927 0.601245 0.400887
v -0.268879 0.601245 0.402564
v -0.264536 0.601245 0.416128
v -0.264536 0.601245 0.403136
v -0.260192 0.601245 0.402564
v -0.256830 0.601245 0.415113
v -0.256145 0.601245 0.400887
v -0.249649 0.601245 0.412139
v -0.252669 0.601245 0.398220
v -0.250002 0.601245 0.394745
v -0.248326 0.601245 0.390697
v -0.243482 0.601245 0.407407
v -0.238751 0.601245 0.371467
v -0.238751 0.601245 0.401241
v -0.235776 0.601245 0.378648
v -0.235776 0.601245 0.394060
v -0.234762 0.601245 0.386354
v -0.281031 0.601245 0.384841
v -0.277783 0.601245 0.387760
v -0.277783 0.601245 0.384841
v -0.277783 0.601245 0.384841
v -0.281031 0.601245 0.384841
v -0.277783 0.601245 0.387760
v -0.281031 0.601245 0.384182
v -0.281038 0.601245 0.387760
v -0.234762 0.601245 0.386354
v -0.235776 0.601245 0.378648
v -0.235776 0.601245 0.394060
v -0.238751 0.601245 0.401241
v -0.238751 0.601245 0.371467
v -0.243482 0.601245 0.407407
v -0.243482 0.601245 0.365301
v -0.247754 0.601245 0.386354
v -0.248326 0.601245 0.390697
v -0.249649 0.601245 0.412139
v -0.250002 0.601245 0.394745
v -0.252669 0.601245 0.398220
v -0.256145 0.601245 0.400887
v -0.256830 0.601245 0.415113
v -0.260192 0.601245 0.402564
v -0.264536 0.601245 0.416128
v -0.264536 0.601245 0.403136
v -0.268879 0.601245 0.402564
v -0.272242 0.601245 0.415113
v -0.272927 0.601245 0.400887
v -0.276402 0.601245 0.398220
v -0.279069 0.601245 0.394745
v -0.279423 0.601245 0.412139
v -0.280745 0.601245 0.390697
v -0.281038 0.601245 0.388479
v -0.285589 0.601245 0.365301
v -0.285589 0.601245 0.407407
v -0.290321 0.601245 0.401241
v -0.290321 0.601245 0.371467
v -0.293295 0.601245 0.378648
v -0.293295 0.601245 0.394060
v -0.293810 0.601245 0.382558
v -0.293816 0.601245 0.390103
v -0.248326 0.601245 0.382011
v -0.249649 0.601245 0.360569
v -0.250002 0.601245 0.377963
v -0.252669 0.601245 0.374488
v -0.256145 0.601245 0.371821
v -0.256830 0.601245 0.357595
v -0.260192 0.601245 0.370144
v -0.264536 0.601245 0.369572
v -0.264536 0.601245 0.356580
v -0.268879 0.601245 0.370144
v -0.272242 0.601245 0.357595
v -0.272927 0.601245 0.371821
v -0.276402 0.601245 0.374488
v -0.279069 0.601245 0.377963
v -0.279423 0.601245 0.360569
v -0.280745 0.601245 0.382011
v -0.293810 0.601245 0.382558
v -0.293810 0.601245 0.382558
v -0.277783 0.604693 0.387760
v -0.281031 0.604693 0.384841
v -0.281038 0.604693 0.387760
v -0.277783 0.604693 0.384841
v -0.293295 0.604693 0.394060
v -0.293810 0.604693 0.382558
v -0.293816 0.604693 0.390103
v -0.293295 0.604693 0.378648
v -0.290321 0.604693 0.401241
v -0.290321 0.604693 0.371467
v -0.285589 0.604693 0.407407
v -0.285589 0.604693 0.365301
v -0.279423 0.604693 0.412139
v -0.281038 0.604693 0.388479
v -0.280745 0.604693 0.390697
v -0.279069 0.604693 0.394745
v -0.272242 0.604693 0.415113
v -0.276402 0.604693 0.398220
v -0.272927 0.604693 0.400887
v -0.268879 0.604693 0.402564
v -0.264536 0.604693 0.416128
v -0.264536 0.604693 0.403136
v -0.256830 0.604693 0.415113
v -0.260192 0.604693 0.402564
v -0.256145 0.604693 0.400887
v -0.249649 0.604693 0.412139
v -0.252669 0.604693 0.398220
v -0.250002 0.604693 0.394745
v -0.248326 0.604693 0.390697
v -0.243482 0.604693 0.407407
v -0.247754 0.604693 0.386354
v -0.281031 0.604693 0.384182
v -0.279423 0.604693 0.360569
v -0.280745 0.604693 0.382011
v -0.279069 0.604693 0.377963
v -0.272242 0.604693 0.357595
v -0.276402 0.604693 0.374488
v -0.272927 0.604693 0.371821
v -0.268879 0.604693 0.370144
v -0.264536 0.604693 0.356580
v -0.264536 0.604693 0.369572
v -0.260192 0.604693 0.370144
v -0.256830 0.604693 0.357595
v -0.256145 0.604693 0.371821
v -0.249649 0.604693 0.360569
v -0.252669 0.604693 0.374488
v -0.250002 0.604693 0.377963
v -0.248326 0.604693 0.382011
v -0.243482 0.604693 0.365301
v -0.238751 0.604693 0.401241
v -0.238751 0.604693 0.371467
v -0.235776 0.604693 0.394060
v -0.235776 0.604693 0.378648
v -0.234762 0.604693 0.386354
v -0.234762 0.604693 0.386354
v -0.235776 0.604693 0.394060
v -0.235776 0.604693 0.378648
v -0.238751 0.604693 0.371467
v -0.238751 0.604693 0.401241
v -0.243482 0.604693 0.365301
v -0.243482 0.604693 0.407407
v -0.247754 0.604693 0.386354
v -0.248326 0.604693 0.382011
v -0.249649 0.604693 0.360569
v -0.250002 0.604693 0.377963
v -0.252669 0.604693 0.374488
v -0.256145 0.604693 0.371821
v -0.256830 0.604693 0.357595
v -0.260192 0.604693 0.370144
v -0.264536 0.604693 0.356580
v -0.264536 0.604693 0.369572
v -0.268879 0.604693 0.370144
v -0.272242 0.604693 0.357595
v -0.272927 0.604693 0.371821
v -0.276402 0.604693 0.374488
v -0.279069 0.604693 0.377963
v -0.279423 0.604693 0.360569
v -0.280745 0.604693 0.382011
v -0.281031 0.604693 0.384182
v -0.281031 0.604693 0.384841
v -0.281038 0.604693 0.387760
v -0.281038 0.604693 0.388479
v -0.285589 0.604693 0.365301
v -0.248326 0.604693 0.390697
v -0.249649 0.604693 0.412139
v -0.250002 0.604693 0.394745
v -0.252669 0.604693 0.398220
v -0.256145 0.604693 0.400887
v -0.256830 0.604693 0.415113
v -0.260192 0.604693 0.402564
v -0.264536 0.604693 0.403136
v -0.264536 0.604693 0.416128
v -0.268879 0.604693 0.402564
v -0.272242 0.604693 0.415113
v -0.272927 0.604693 0.400887
v -0.276402 0.604693 0.398220
v -0.279069 0.604693 0.394745
v -0.279423 0.604693 0.412139
v -0.280745 0.604693 0.390697
v -0.285589 0.604693 0.407407
v -0.290321 0.604693 0.371467
v -0.290321 0.604693 0.401241
v -0.293295 0.604693 0.378648
v -0.293295 0.604693 0.394060
v -0.293810 0.604693 0.382558
v -0.293816 0.604693 0.390103
v -0.277783 0.604693 0.384841
v -0.277783 0.604693 0.387760
vn 0 1 0
vn 0 -1 0
vn 0.5000000016387101 0 0.866025402838329
vn 0.25881900959356163 0 0.9659258358036645
vn -0.25881900959356163 0 -0.9659258358036645
vn -0.5000000016387101 0 -0.866025402838329
vn 0.7071067811865476 0 0.7071067811865476
vn -0.7071067811865476 0 -0.7071067811865476
vn 0.866025402838329 0 0.5000000016387101
vn -0.866025402838329 0 -0.5000000016387101
vn 0.9659258358036645 0 0.2588190095935616
vn -0.9659258358036645 0 -0.2588190095935616
vn 1 0 0
vn -1 0 0
vn 0.9659258358036645 0 -0.25881900959356163
vn -0.9659258358036645 0 0.25881900959356163
vn 0.866025402838329 0 -0.5000000016387101
vn -0.866025402838329 0 0.5000000016387101
vn 0.7071067811865476 0 -0.7071067811865476
vn -0.7071067811865476 0 0.7071067811865476
vn 0.5000000016387101 0 -0.866025402838329
vn -0.5000000016387101 0 0.866025402838329
vn 0.2588190095935616 0 -0.9659258358036645
vn -0.2588190095935616 0 0.9659258358036645
vn 0 0 -1
vn 0 0 1
vn -0.9914448610250888 0 -0.13052619486885547
vn 0.9914448610250888 0 0.13052619486885547
vn -0.9914448610250888 0 0.13052619486885553
vn 0.9914448610250888 0 -0.13052619486885553
usemtl material_0_0
f 1//1 2//1 3//1
f 2//1 1//1 4//1
f 5//1 6//1 7//1
f 6//1 5//1 8//1
f 8//1 5//1 9//1
f 8//1 9//1 10//1
f 10//1 9//1 11//1
f 10//1 11//1 12//1
f 12//1 11//1 13//1
f 12//1 13//1 14//1
f 14//1 13//1 15//1
f 15//1 13//1 16//1
f 16//1 13//1 17//1
f 16//1 17//1 18//1
f 18//1 17//1 19//1
f 19//1 17//1 20//1
f 20//1 17//1 21//1
f 20//1 21//1 22//1
f 22//1 21//1 23//1
f 22//1 23//1 24//1
f 24//1 23//1 25//1
f 25//1 23//1 26//1
f 25//1 26//1 27//1
f 27//1 26//1 28//1
f 28//1 26//1 29//1
f 29//1 26//1 30//1
f 29//1 30//1 31//1
f 12//1 32//1 33//1
f 32//1 12//1 3//1
f 3//1 12//1 14//1
f 32//1 3//1 2//1
f 33//1 32//1 34//1
f 33//1 34//1 35//1
f 33//1 35//1 36//1
f 36//1 35//1 37//1
f 36//1 37//1 38//1
f 36//1 38//1 39//1
f 36//1 39//1 40//1
f 40//1 39//1 41//1
f 40//1 41//1 42//1
f 40//1 42//1 43//1
f 43//1 42//1 44//1
f 43//1 44//1 45//1
f 45//1 44//1 46//1
f 45//1 46//1 47//1
f 45//1 47//1 48//1
f 45//1 48//1 49//1
f 49//1 48//1 31//1
f 49//1 31//1 30//1
f 49//1 30//1 50//1
f 49//1 50//1 51//1
f 51//1 50//1 52//1
f 51//1 52//1 53//1
f 53//1 52//1 54//1
f 55//2 56//2 57//2
f 57//2 56//2 58//2
f 56//2 59//2 58//2
f 58//2 59//2 60//2
f 59//2 61//2 60//2
f 61//2 62//2 60//2
f 62//2 63//2 60//2
f 60//2 63//2 64//2
f 63//2 65//2 64//2
f 65//2 66//2 64//2
f 66//2 67//2 64//2
f 64//2 67//2 68//2
f 67//2 69//2 68//2
f 68//2 69//2 70//2
f 69//2 71//2 70//2
f 71//2 72//2 70//2
f 70//2 72//2 73//2
f 72//2 74//2 73//2
f 74//2 75//2 73//2
f 75//2 76//2 73//2
f 73//2 76//2 77//2
f 76//2 78//2 77//2
f 78//2 79//2 77//2
f 80//2 81//2 79//2
f 82//2 83//2 81//2
f 81//2 83//2 79//2
f 77//2 79//2 83//2
f 62//2 61//2 84//2
f 61//2 85//2 84//2
f 84//2 85//2 86//2
f 86//2 85//2 87//2
f 87//2 85//2 88//2
f 85//2 89//2 88//2
f 88//2 89//2 90//2
f 90//2 89//2 91//2
f 89//2 92//2 91//2
f 91//2 92//2 93//2
f 92//2 94//2 93//2
f 93//2 94//2 95//2
f 95//2 94//2 96//2
f 96//2 94//2 97//2
f 94//2 98//2 97//2
f 97//2 98//2 99//2
f 99//2 98//2 82//2
f 82//2 98//2 83//2
f 98//2 100//2 83//2
f 83//2 100//2 101//2
f 100//2 102//2 101//2
f 101//2 102//2 103//2
f 102//2 104//2 103//2
f 103//2 104//2 105//2
f 106//2 105//2 104//2
f 107//2 108//2 80//2
f 81//2 80//2 108//2
f 109//3 110//4 111//3
f 110//4 109//3 112//4
f 112//4 109//3 113//3
f 112//4 113//3 114//4
f 115//5 116//6 117//5
f 116//6 118//6 117//5
f 117//5 118//6 119//5
f 120//6 119//5 118//6
f 121//7 111//3 122//7
f 111//3 121//7 109//3
f 109//3 121//7 123//7
f 109//3 123//7 113//3
f 116//6 124//8 118//6
f 124//8 125//8 118//6
f 118//6 125//8 120//6
f 126//8 120//6 125//8
f 127//9 121//7 122//7
f 121//7 127//9 123//7
f 123//7 127//9 128//9
f 128//9 127//9 129//9
f 130//10 131//10 132//10
f 132//10 131//10 124//8
f 124//8 131//10 125//8
f 126//8 125//8 131//10
f 133//11 129//9 127//9
f 129//9 133//11 128//9
f 128//9 133//11 134//11
f 134//11 133//11 135//11
f 136//12 137//12 138//12
f 138//12 137//12 132//10
f 132//10 137//12 130//10
f 131//10 130//10 137//12
f 139//13 135//11 133//11
f 135//11 139//13 134//11
f 134//11 139//13 140//13
f 140//13 139//13 141//13
f 142//14 143//14 144//14
f 144//14 143//14 138//12
f 138//12 143//14 136//12
f 137//12 136//12 143//14
f 145//15 141//13 139//13
f 141//13 145//15 140//13
f 140//13 145//15 146//15
f 146//15 145//15 147//15
f 148//16 149//16 150//16
f 150//16 149//16 144//14
f 144//14 149//16 142//14
f 143//14 142//14 149//16
f 151//17 147//15 145//15
f 147//15 151//17 146//15
f 146//15 151//17 152//17
f 152//17 151//17 153//17
f 154//18 155//18 156//18
f 156//18 155//18 150//16
f 150//16 155//18 148//16
f 149//16 148//16 155//18
f 157//19 153//17 151//17
f 153//17 157//19 152//17
f 152//17 157//19 158//19
f 158//19 157//19 159//19
f 160//20 161//20 162//20
f 162//20 161//20 156//18
f 156//18 161//20 154//18
f 155//18 154//18 161//20
f 163//21 157//19 164//21
f 157//19 163//21 159//19
f 159//19 163//21 165//21
f 159//19 165//21 158//19
f 162//20 166//22 160//20
f 166//22 167//22 160//20
f 160//20 167//22 161//20
f 168//22 161//20 167//22
f 169//23 164//21 170//23
f 164//21 169//23 163//21
f 163//21 169//23 171//23
f 163//21 171//23 165//21
f 166//22 172//24 167//22
f 172//24 173//24 167//22
f 167//22 173//24 168//22
f 174//24 168//22 173//24
f 175//25 170//23 176//25
f 170//23 175//25 169//23
f 169//23 175//25 177//25
f 169//23 177//25 171//23
f 172//24 178//26 173//24
f 178//26 179//26 173//24
f 173//24 179//26 174//24
f 180//26 174//24 179//26
f 181//5 176//25 182//5
f 176//25 181//5 175//25
f 175//25 181//5 183//5
f 175//25 183//5 177//25
f 178//26 184//4 179//26
f 184//4 185//4 179//26
f 179//26 185//4 180//26
f 186//4 180//26 185//4
f 187//6 182//5 188//6
f 182//5 187//6 181//5
f 181//5 187//6 189//6
f 181//5 189//6 183//5
f 184//4 190//3 185//4
f 190//3 191//3 185//4
f 185//4 191//3 186//4
f 192//3 186//4 191//3
f 193//8 188//6 194//8
f 188//6 193//8 187//6
f 187//6 193//8 195//8
f 187//6 195//8 189//6
f 190//3 196//7 191//3
f 196//7 197//7 191//3
f 191//3 197//7 192//3
f 198//7 192//3 197//7
f 195//8 199//10 200//10
f 199//10 195//8 201//10
f 201//10 195//8 194//8
f 194//8 195//8 193//8
f 197//7 196//7 198//7
f 198//7 196//7 202//9
f 202//9 196//7 203//9
f 204//9 203//9 196//7
f 200//10 205//12 206//12
f 205//12 200//10 207//12
f 207//12 200//10 201//10
f 201//10 200//10 199//10
f 203//9 204//9 202//9
f 202//9 204//9 208//11
f 208//11 204//9 209//11
f 210//11 209//11 204//9
f 206//12 211//27 212//27
f 211//27 206//12 205//12
f 209//11 210//11 213//28
f 214//28 213//28 210//11
f 215//29 216//16 217//16
f 216//16 215//29 218//16
f 218//16 215//29 219//29
f 219//29 215//29 220//29
f 221//30 222//30 223//30
f 223//30 222//30 224//15
f 224//15 222//30 225//15
f 226//15 225//15 222//30
f 217//16 227//18 228//18
f 227//18 217//16 229//18
f 229//18 217//16 218//16
f 218//16 217//16 216//16
f 225//15 226//15 224//15
f 224//15 226//15 230//17
f 230//17 226//15 231//17
f 232//17 231//17 226//15
f 228//18 233//20 234//20
f 233//20 228//18 235//20
f 235//20 228//18 229//18
f 229//18 228//18 227//18
f 231//17 232//17 230//17
f 230//17 232//17 236//19
f 236//19 232//17 237//19
f 238//19 237//19 232//17
f 239//22 235//20 240//22
f 235//20 239//22 233//20
f 233//20 239//22 241//22
f 233//20 241//22 234//20
f 238//19 242//21 237//19
f 242//21 243//21 237//19
f 237//19 243//21 236//19
f 244//21 236//19 243//21
f 245//24 240//22 246//24
f 240//22 245//24 239//22
f 239//22 245//24 247//24
f 239//22 247//24 241//22
f 242//21 248//23 243//21
f 248//23 249//23 243//21
f 243//21 249//23 244//21
f 250//23 244//21 249//23
f 251//26 246//24 252//26
f 246//24 251//26 245//24
f 245//24 251//26 253//26
f 245//24 253//26 247//24
f 248//23 254//25 249//23
f 254//25 255//25 249//23
f 249//23 255//25 250//23
f 256//25 250//23 255//25
f 112//4 252//26 110//4
f 252//26 112//4 251//26
f 251//26 112//4 114//4
f 251//26 114//4 253//26
f 254//25 115//5 255//25
f 115//5 117//5 255//25
f 255//25 117//5 256//25
f 119//5 256//25 117//5
f 257//2 258//2 259//2
f 258//2 257//2 260//2
f 258//2 260//2 261//2
f 261//2 260//2 262//2
f 262//2 260//2 263//2
f 262//2 263//2 264//2
f 264//2 263//2 265//2
f 265//2 263//2 266//2
f 266//2 263//2 267//2
f 266//2 267//2 268//2
f 268//2 267//2 269//2
f 268//2 269//2 270//2
f 270//2 269//2 271//2
f 271//2 269//2 272//2
f 271//2 272//2 273//2
f 273//2 272//2 274//2
f 274//2 272//2 275//2
f 275//2 272//2 276//2
f 275//2 276//2 277//2
f 278//2 279//2 280//2
f 279//2 278//2 281//2
f 279//2 281//2 282//2
f 282//2 281//2 283//2
f 282//2 283//2 257//2
f 282//2 257//2 284//2
f 284//2 257//2 285//2
f 285//2 257//2 286//2
f 286//2 257//2 259//2
f 285//2 286//2 287//2
f 285//2 287//2 288//2
f 285//2 288//2 289//2
f 289//2 288//2 290//2
f 289//2 290//2 291//2
f 289//2 291//2 292//2
f 289//2 292//2 293//2
f 293//2 292//2 294//2
f 293//2 294//2 295//2
f 293//2 295//2 296//2
f 296//2 295//2 297//2
f 296//2 297//2 298//2
f 298//2 297//2 299//2
f 298//2 299//2 300//2
f 298//2 300//2 301//2
f 298//2 301//2 302//2
f 302//2 301//2 277//2
f 302//2 277//2 276//2
f 302//2 276//2 303//2
f 302//2 303//2 304//2
f 304//2 303//2 305//2
f 304//2 305//2 306//2
f 306//2 305//2 307//2
f 259//2 308//2 309//2
f 308//2 259//2 258//2
f 309//2 308//2 310//2
f 311//1 312//1 313//1
f 314//1 315//1 312//1
f 313//1 312//1 315//1
f 316//1 317//1 318//1
f 318//1 317//1 319//1
f 317//1 320//1 319//1
f 319//1 320//1 321//1
f 320//1 322//1 321//1
f 322//1 323//1 321//1
f 323//1 324//1 321//1
f 321//1 324//1 325//1
f 324//1 326//1 325//1
f 326//1 327//1 325//1
f 327//1 328//1 325//1
f 325//1 328//1 329//1
f 328//1 330//1 329//1
f 329//1 330//1 331//1
f 330//1 332//1 331//1
f 332//1 333//1 331//1
f 331//1 333//1 334//1
f 333//1 335//1 334//1
f 335//1 336//1 334//1
f 336//1 337//1 334//1
f 334//1 337//1 338//1
f 337//1 339//1 338//1
f 339//1 340//1 338//1
f 315//1 341//1 340//1
f 340//1 341//1 338//1
f 338//1 341//1 342//1
f 342//1 341//1 343//1
f 341//1 344//1 343//1
f 344//1 345//1 343//1
f 343//1 345//1 346//1
f 345//1 347//1 346//1
f 348//1 346//1 347//1
f 323//1 322//1 349//1
f 322//1 350//1 349//1
f 349//1 350//1 351//1
f 351//1 350//1 352//1
f 352//1 350//1 353//1
f 350//1 354//1 353//1
f 353//1 354//1 355//1
f 355//1 354//1 356//1
f 354//1 357//1 356//1
f 356//1 357//1 358//1
f 357//1 359//1 358//1
f 358//1 359//1 360//1
f 360//1 359//1 361//1
f 361//1 359//1 362//1
f 359//1 363//1 362//1
f 362//1 363//1 364//1
f 364//1 363//1 314//1
f 363//1 341//1 314//1
f 315//1 314//1 341//1
f 205//12 365//27 211//27
f 365//27 205//12 207//12
f 208//11 209//11 366//28
f 213//28 366//28 209//11
f 367//1 368//1 369//1
f 368//1 367//1 370//1
f 371//1 372//1 373//1
f 372//1 371//1 374//1
f 374//1 371//1 375//1
f 374//1 375//1 376//1
f 376//1 375//1 377//1
f 376//1 377//1 378//1
f 378//1 377//1 379//1
f 378//1 379//1 380//1
f 380//1 379//1 381//1
f 381//1 379//1 382//1
f 382//1 379//1 383//1
f 382//1 383//1 384//1
f 384//1 383//1 385//1
f 385//1 383//1 386//1
f 386//1 383//1 387//1
f 386//1 387//1 388//1
f 388//1 387//1 389//1
f 388//1 389//1 390//1
f 390//1 389//1 391//1
f 391//1 389//1 392//1
f 391//1 392//1 393//1
f 393//1 392//1 394//1
f 394//1 392//1 395//1
f 395//1 392//1 396//1
f 395//1 396//1 397//1
f 378//1 398//1 399//1
f 398//1 378//1 369//1
f 369//1 378//1 380//1
f 398//1 369//1 368//1
f 399//1 398//1 400//1
f 399//1 400//1 401//1
f 399//1 401//1 402//1
f 402//1 401//1 403//1
f 402//1 403//1 404//1
f 402//1 404//1 405//1
f 402//1 405//1 406//1
f 406//1 405//1 407//1
f 406//1 407//1 408//1
f 406//1 408//1 409//1
f 409//1 408//1 410//1
f 409//1 410//1 411//1
f 411//1 410//1 412//1
f 411//1 412//1 413//1
f 411//1 413//1 414//1
f 411//1 414//1 415//1
f 415//1 414//1 397//1
f 415//1 397//1 396//1
f 415//1 396//1 416//1
f 415//1 416//1 417//1
f 417//1 416//1 418//1
f 417//1 418//1 419//1
f 419//1 418//1 420//1
f 421//2 422//2 423//2
f 423//2 422//2 424//2
f 422//2 425//2 424//2
f 424//2 425//2 426//2
f 425//2 427//2 426//2
f 427//2 428//2 426//2
f 428//2 429//2 426//2
f 426//2 429//2 430//2
f 429//2 431//2 430//2
f 431//2 432//2 430//2
f 432//2 433//2 430//2
f 430//2 433//2 434//2
f 433//2 435//2 434//2
f 434//2 435//2 436//2
f 435//2 437//2 436//2
f 437//2 438//2 436//2
f 436//2 438//2 439//2
f 438//2 440//2 439//2
f 440//2 441//2 439//2
f 441//2 442//2 439//2
f 439//2 442//2 443//2
f 442//2 444//2 443//2
f 444//2 445//2 443//2
f 446//2 447//2 445//2
f 448//2 449//2 447//2
f 447//2 449//2 445//2
f 443//2 445//2 449//2
f 428//2 427//2 450//2
f 427//2 451//2 450//2
f 450//2 451//2 452//2
f 452//2 451//2 453//2
f 453//2 451//2 454//2
f 451//2 455//2 454//2
f 454//2 455//2 456//2
f 456//2 455//2 457//2
f 455//2 458//2 457//2
f 457//2 458//2 459//2
f 458//2 460//2 459//2
f 459//2 460//2 461//2
f 461//2 460//2 462//2
f 462//2 460//2 463//2
f 460//2 464//2 463//2
f 463//2 464//2 465//2
f 465//2 464//2 448//2
f 448//2 464//2 449//2
f 464//2 466//2 449//2
f 449//2 466//2 467//2
f 466//2 468//2 467//2
f 467//2 468//2 469//2
f 468//2 470//2 469//2
f 469//2 470//2 471//2
f 472//2 471//2 470//2
f 473//2 474//2 446//2
f 447//2 446//2 474//2
