# SSTK version 0.8.0
# 79
mtllib original-79.mtl
o #ID460
v 0.200768 0.256745 0.622365
v 0.202699 0.249415 0.650641
v 0.199897 0.252589 0.636501
v 0.208981 0.247439 0.663822
v 0.205252 0.261600 0.609196
v 0.213043 0.266824 0.597891
v 0.218317 0.246797 0.675145
v 0.230070 0.247532 0.683838
v 0.223611 0.272059 0.589222
v 0.243438 0.249593 0.689309
v 0.236234 0.276950 0.583779
v 0.257512 0.252841 0.691186
v 0.250054 0.281163 0.581933
v 0.264128 0.284411 0.583809
v 0.271332 0.257054 0.689339
v 0.283955 0.261945 0.683896
v 0.277496 0.286472 0.589280
v 0.289249 0.287207 0.597973
v 0.294523 0.267180 0.675227
v 0.298585 0.286565 0.609296
v 0.302314 0.272404 0.663923
v 0.306798 0.277259 0.650754
v 0.304868 0.284589 0.622477
v 0.307669 0.281415 0.636617
v 0.307669 0.281415 0.636617
v 0.304868 0.284589 0.622477
v 0.306798 0.277259 0.650754
v 0.298585 0.286565 0.609296
v 0.302314 0.272404 0.663923
v 0.294523 0.267180 0.675227
v 0.289249 0.287207 0.597973
v 0.283955 0.261945 0.683896
v 0.277496 0.286472 0.589280
v 0.264128 0.284411 0.583809
v 0.271332 0.257054 0.689339
v 0.257512 0.252841 0.691186
v 0.250054 0.281163 0.581933
v 0.236234 0.276950 0.583779
v 0.243438 0.249593 0.689309
v 0.223611 0.272059 0.589222
v 0.230070 0.247532 0.683838
v 0.213043 0.266824 0.597891
v 0.218317 0.246797 0.675145
v 0.208981 0.247439 0.663822
v 0.205252 0.261600 0.609196
v 0.200768 0.256745 0.622365
v 0.202699 0.249415 0.650641
v 0.199897 0.252589 0.636501
vn 0.24984153892556937 -0.9330256650497443 -0.2589253054179638
vn -0.24984153892556937 0.9330256650497443 0.2589253054179638
usemtl material_0_0
f 1//1 2//1 3//1
f 2//1 1//1 4//1
f 4//1 1//1 5//1
f 4//1 5//1 6//1
f 4//1 6//1 7//1
f 7//1 6//1 8//1
f 8//1 6//1 9//1
f 8//1 9//1 10//1
f 10//1 9//1 11//1
f 10//1 11//1 12//1
f 12//1 11//1 13//1
f 12//1 13//1 14//1
f 12//1 14//1 15//1
f 15//1 14//1 16//1
f 16//1 14//1 17//1
f 16//1 17//1 18//1
f 16//1 18//1 19//1
f 19//1 18//1 20//1
f 19//1 20//1 21//1
f 21//1 20//1 22//1
f 22//1 20//1 23//1
f 22//1 23//1 24//1
f 25//2 26//2 27//2
f 26//2 28//2 27//2
f 27//2 28//2 29//2
f 29//2 28//2 30//2
f 28//2 31//2 30//2
f 30//2 31//2 32//2
f 31//2 33//2 32//2
f 33//2 34//2 32//2
f 32//2 34//2 35//2
f 35//2 34//2 36//2
f 34//2 37//2 36//2
f 37//2 38//2 36//2
f 36//2 38//2 39//2
f 38//2 40//2 39//2
f 39//2 40//2 41//2
f 40//2 42//2 41//2
f 41//2 42//2 43//2
f 43//2 42//2 44//2
f 42//2 45//2 44//2
f 45//2 46//2 44//2
f 44//2 46//2 47//2
f 48//2 47//2 46//2
