# SSTK version 0.8.0
# 41
mtllib original-41.mtl
o group_11/ID224#ID224
v 0.451824 -0.583891 -0.458348
v -0.399646 -0.583891 0.535726
v -0.399646 -0.583891 -0.458348
v 0.451824 -0.583891 0.535726
v 0.451824 -0.583891 0.535726
v 0.451824 -0.583891 -0.458348
v -0.399646 -0.583891 0.535726
v -0.399646 -0.583891 -0.458348
v -0.399646 -0.433395 -0.458348
v -0.399646 -0.447240 0.134472
v -0.399646 -0.433395 0.134472
v -0.399646 -0.583891 -0.458348
v -0.399646 -0.433395 0.137241
v -0.399646 -0.583891 0.535726
v -0.399646 -0.433395 0.535726
v -0.399646 -0.447240 0.137241
v -0.399646 -0.447240 0.134472
v -0.399646 -0.447240 0.137241
v -0.399646 -0.583891 -0.458348
v -0.399646 -0.583891 0.535726
v -0.399646 -0.433395 0.137241
v -0.399646 -0.433395 0.535726
v -0.399646 -0.433395 -0.458348
v -0.399646 -0.433395 0.134472
v -0.399646 -0.433395 -0.458348
v 0.451824 -0.583891 -0.458348
v -0.399646 -0.583891 -0.458348
v 0.451824 -0.433395 -0.458348
v -0.385801 -0.433395 -0.458348
v 0.437979 -0.433395 -0.458348
v 0.437979 -0.433395 -0.458348
v -0.385801 -0.433395 -0.458348
v 0.451824 -0.433395 -0.458348
v -0.399646 -0.433395 -0.458348
v 0.451824 -0.583891 -0.458348
v -0.399646 -0.583891 -0.458348
v 0.451824 -0.583891 -0.458348
v 0.451824 -0.447240 0.137241
v 0.451824 -0.583891 0.535726
v 0.451824 -0.447240 0.134472
v 0.451824 -0.433395 0.134472
v 0.451824 -0.433395 -0.458348
v 0.451824 -0.433395 0.137241
v 0.451824 -0.433395 0.535726
v 0.451824 -0.447240 0.137241
v 0.451824 -0.583891 0.535726
v 0.451824 -0.433395 0.137241
v 0.451824 -0.433395 0.535726
v 0.451824 -0.433395 -0.458348
v 0.451824 -0.583891 -0.458348
v 0.451824 -0.433395 0.134472
v 0.451824 -0.447240 0.134472
v 0.451824 -0.583891 0.535726
v 0.437979 -0.522004 0.535726
v -0.399646 -0.583891 0.535726
v 0.451824 -0.433395 0.535726
v 0.437979 -0.433395 0.535726
v -0.385801 -0.522004 0.535726
v -0.399646 -0.433395 0.535726
v -0.385801 -0.433395 0.535726
v -0.385801 -0.433395 0.535726
v -0.385801 -0.522004 0.535726
v -0.399646 -0.433395 0.535726
v 0.437979 -0.522004 0.535726
v -0.399646 -0.583891 0.535726
v 0.437979 -0.433395 0.535726
v 0.451824 -0.433395 0.535726
v 0.451824 -0.583891 0.535726
v -0.399646 -0.433395 0.535726
v -0.385801 -0.433395 0.137241
v -0.399646 -0.433395 0.137241
v -0.385801 -0.433395 0.535726
v -0.385801 -0.433395 0.535726
v -0.399646 -0.433395 0.535726
v -0.385801 -0.433395 0.137241
v -0.399646 -0.433395 0.137241
v -0.280440 -0.433395 0.137241
v -0.212323 -0.433395 0.137241
v -0.314499 -0.433395 0.137241
v -0.246381 -0.433395 0.137241
v -0.399646 -0.447240 0.137241
v 0.451824 -0.433395 0.137241
v 0.451824 -0.447240 0.137241
v 0.437979 -0.433395 0.137241
v -0.399646 -0.433395 0.137241
v -0.385801 -0.433395 0.137241
v 0.366677 -0.433395 0.137241
v 0.332618 -0.433395 0.137241
v -0.178264 -0.433395 0.137241
v -0.144205 -0.433395 0.137241
v 0.298559 -0.433395 0.137241
v -0.110146 -0.433395 0.137241
v -0.042029 -0.433395 0.137241
v -0.076087 -0.433395 0.137241
v 0.264501 -0.433395 0.137241
v 0.026089 -0.433395 0.137241
v 0.128265 -0.433395 0.137241
v -0.007970 -0.433395 0.137241
v 0.094207 -0.433395 0.137241
v 0.060148 -0.433395 0.137241
v 0.230442 -0.433395 0.137241
v 0.196383 -0.433395 0.137241
v 0.162324 -0.433395 0.137241
v 0.162324 -0.433395 0.137241
v 0.128265 -0.433395 0.137241
v 0.196383 -0.433395 0.137241
v -0.007970 -0.433395 0.137241
v 0.230442 -0.433395 0.137241
v -0.042029 -0.433395 0.137241
v 0.264501 -0.433395 0.137241
v 0.060148 -0.433395 0.137241
v 0.026089 -0.433395 0.137241
v 0.094207 -0.433395 0.137241
v 0.298559 -0.433395 0.137241
v -0.076087 -0.433395 0.137241
v -0.110146 -0.433395 0.137241
v -0.144205 -0.433395 0.137241
v 0.332618 -0.433395 0.137241
v -0.178264 -0.433395 0.137241
v -0.212323 -0.433395 0.137241
v -0.314499 -0.433395 0.137241
v 0.366677 -0.433395 0.137241
v -0.385801 -0.433395 0.137241
v 0.437979 -0.433395 0.137241
v -0.399646 -0.433395 0.137241
v -0.399646 -0.447240 0.137241
v 0.451824 -0.433395 0.137241
v 0.451824 -0.447240 0.137241
v -0.246381 -0.433395 0.137241
v -0.280440 -0.433395 0.137241
v -0.399646 -0.447240 0.137241
v -0.385801 -0.447240 0.134472
v -0.399646 -0.447240 0.134472
v 0.451824 -0.447240 0.137241
v 0.366677 -0.447240 0.134472
v 0.437979 -0.447240 0.134472
v 0.451824 -0.447240 0.134472
v 0.451824 -0.447240 0.134472
v 0.451824 -0.447240 0.137241
v 0.437979 -0.447240 0.134472
v 0.366677 -0.447240 0.134472
v -0.385801 -0.447240 0.134472
v -0.399646 -0.447240 0.137241
v -0.399646 -0.447240 0.134472
v -0.385801 -0.447240 0.134472
v -0.399646 -0.433395 0.134472
v -0.399646 -0.447240 0.134472
v -0.385801 -0.433395 0.134472
v -0.385801 -0.433395 0.134472
v -0.385801 -0.447240 0.134472
v -0.399646 -0.433395 0.134472
v -0.399646 -0.447240 0.134472
v -0.399646 -0.433395 0.134472
v -0.385801 -0.433395 -0.458348
v -0.399646 -0.433395 -0.458348
v -0.385801 -0.433395 0.134472
v -0.385801 -0.433395 -0.444503
v -0.385801 -0.433395 -0.444503
v -0.385801 -0.433395 0.134472
v -0.385801 -0.433395 -0.458348
v -0.399646 -0.433395 0.134472
v -0.399646 -0.433395 -0.458348
v 0.437979 -0.433395 -0.444503
v -0.385801 -0.433395 -0.458348
v -0.385801 -0.433395 -0.444503
v 0.437979 -0.433395 -0.458348
v 0.437979 -0.433395 -0.458348
v 0.437979 -0.433395 -0.444503
v -0.385801 -0.433395 -0.458348
v -0.385801 -0.433395 -0.444503
v 0.437979 -0.433395 0.134472
v 0.437979 -0.433395 -0.458348
v 0.437979 -0.433395 -0.444503
v 0.451824 -0.433395 -0.458348
v 0.451824 -0.433395 0.134472
v 0.451824 -0.433395 0.134472
v 0.437979 -0.433395 0.134472
v 0.451824 -0.433395 -0.458348
v 0.437979 -0.433395 -0.458348
v 0.437979 -0.433395 -0.444503
v 0.451824 -0.433395 0.134472
v 0.437979 -0.447240 0.134472
v 0.451824 -0.447240 0.134472
v 0.437979 -0.433395 0.134472
v 0.437979 -0.433395 0.134472
v 0.451824 -0.433395 0.134472
v 0.437979 -0.447240 0.134472
v 0.451824 -0.447240 0.134472
v 0.451824 -0.433395 0.535726
v 0.437979 -0.433395 0.137241
v 0.437979 -0.433395 0.535726
v 0.451824 -0.433395 0.137241
v 0.451824 -0.433395 0.137241
v 0.451824 -0.433395 0.535726
v 0.437979 -0.433395 0.137241
v 0.437979 -0.433395 0.535726
v 0.437979 -0.433395 0.535726
v 0.437979 -0.522004 0.134472
v 0.437979 -0.522004 0.535726
v 0.437979 -0.433395 0.137241
v 0.437979 -0.447240 0.134472
v 0.437979 -0.433395 0.134472
v 0.437979 -0.433395 0.134472
v 0.437979 -0.433395 0.137241
v 0.437979 -0.447240 0.134472
v 0.437979 -0.522004 0.134472
v 0.437979 -0.433395 0.535726
v 0.437979 -0.522004 0.535726
v 0.437979 -0.522004 0.535726
v -0.385801 -0.522004 0.134472
v -0.385801 -0.522004 0.535726
v 0.366677 -0.522004 0.134472
v 0.437979 -0.522004 0.134472
v 0.437979 -0.522004 0.134472
v 0.437979 -0.522004 0.535726
v 0.366677 -0.522004 0.134472
v -0.385801 -0.522004 0.134472
v -0.385801 -0.522004 0.535726
v -0.385801 -0.522004 0.134472
v -0.385801 -0.433395 0.535726
v -0.385801 -0.522004 0.535726
v -0.385801 -0.433395 0.137241
v -0.385801 -0.447240 0.134472
v -0.385801 -0.433395 0.134472
v -0.385801 -0.433395 0.134472
v -0.385801 -0.447240 0.134472
v -0.385801 -0.433395 0.137241
v -0.385801 -0.522004 0.134472
v -0.385801 -0.433395 0.535726
v -0.385801 -0.522004 0.535726
v -0.314499 -0.433395 0.134472
v -0.385801 -0.433395 0.137241
v -0.385801 -0.433395 0.134472
v -0.314499 -0.433395 0.137241
v -0.314499 -0.433395 0.137241
v -0.314499 -0.433395 0.134472
v -0.385801 -0.433395 0.137241
v -0.385801 -0.433395 0.134472
v -0.280440 -0.433395 0.134472
v -0.314499 -0.433395 0.137241
v -0.314499 -0.433395 0.134472
v -0.280440 -0.433395 0.137241
v -0.280440 -0.433395 0.137241
v -0.280440 -0.433395 0.134472
v -0.314499 -0.433395 0.137241
v -0.314499 -0.433395 0.134472
v -0.212323 -0.433395 0.134472
v -0.246381 -0.433395 0.137241
v -0.246381 -0.433395 0.134472
v -0.212323 -0.433395 0.137241
v -0.212323 -0.433395 0.137241
v -0.212323 -0.433395 0.134472
v -0.246381 -0.433395 0.137241
v -0.246381 -0.433395 0.134472
v -0.144205 -0.433395 0.134472
v -0.178264 -0.433395 0.137241
v -0.178264 -0.433395 0.134472
v -0.144205 -0.433395 0.137241
v -0.144205 -0.433395 0.137241
v -0.144205 -0.433395 0.134472
v -0.178264 -0.433395 0.137241
v -0.178264 -0.433395 0.134472
v -0.076087 -0.433395 0.134472
v -0.110146 -0.433395 0.137241
v -0.110146 -0.433395 0.134472
v -0.076087 -0.433395 0.137241
v -0.076087 -0.433395 0.137241
v -0.076087 -0.433395 0.134472
v -0.110146 -0.433395 0.137241
v -0.110146 -0.433395 0.134472
v 0.437979 -0.433395 0.134472
v 0.366677 -0.447240 0.134472
v 0.437979 -0.447240 0.134472
v 0.366677 -0.433395 0.134472
v 0.366677 -0.433395 0.134472
v 0.437979 -0.433395 0.134472
v 0.366677 -0.447240 0.134472
v 0.437979 -0.447240 0.134472
v 0.366677 -0.433395 0.134472
v -0.385801 -0.447240 0.134472
v 0.366677 -0.447240 0.134472
v -0.385801 -0.433395 0.134472
v -0.314499 -0.433395 0.134472
v 0.332618 -0.433395 0.134472
v 0.298559 -0.433395 0.134472
v 0.264501 -0.433395 0.134472
v 0.230442 -0.433395 0.134472
v 0.196383 -0.433395 0.134472
v 0.162324 -0.433395 0.134472
v 0.128265 -0.433395 0.134472
v 0.094207 -0.433395 0.134472
v 0.060148 -0.433395 0.134472
v 0.026089 -0.433395 0.134472
v -0.007970 -0.433395 0.134472
v -0.042029 -0.433395 0.134472
v -0.076087 -0.433395 0.134472
v -0.110146 -0.433395 0.134472
v -0.144205 -0.433395 0.134472
v -0.178264 -0.433395 0.134472
v -0.212323 -0.433395 0.134472
v -0.246381 -0.433395 0.134472
v -0.280440 -0.433395 0.134472
v -0.280440 -0.433395 0.134472
v -0.246381 -0.433395 0.134472
v -0.314499 -0.433395 0.134472
v -0.212323 -0.433395 0.134472
v -0.178264 -0.433395 0.134472
v -0.144205 -0.433395 0.134472
v -0.110146 -0.433395 0.134472
v -0.076087 -0.433395 0.134472
v -0.042029 -0.433395 0.134472
v -0.007970 -0.433395 0.134472
v 0.026089 -0.433395 0.134472
v 0.060148 -0.433395 0.134472
v 0.094207 -0.433395 0.134472
v 0.128265 -0.433395 0.134472
v 0.162324 -0.433395 0.134472
v 0.196383 -0.433395 0.134472
v 0.230442 -0.433395 0.134472
v 0.264501 -0.433395 0.134472
v 0.298559 -0.433395 0.134472
v 0.332618 -0.433395 0.134472
v 0.366677 -0.433395 0.134472
v -0.385801 -0.433395 0.134472
v -0.385801 -0.447240 0.134472
v 0.366677 -0.447240 0.134472
v -0.314499 -0.433395 0.134472
v -0.385801 -0.433395 -0.444503
v -0.385801 -0.433395 0.134472
v -0.314499 -0.433395 -0.373201
v 0.437979 -0.433395 -0.444503
v 0.366677 -0.433395 -0.373201
v 0.366677 -0.433395 0.134472
v 0.437979 -0.433395 0.134472
v 0.437979 -0.433395 0.134472
v 0.366677 -0.433395 0.134472
v 0.437979 -0.433395 -0.444503
v 0.366677 -0.433395 -0.373201
v -0.314499 -0.433395 -0.373201
v -0.385801 -0.433395 -0.444503
v -0.314499 -0.433395 0.134472
v -0.385801 -0.433395 0.134472
v 0.437979 -0.447240 0.134472
v 0.366677 -0.522004 0.134472
v 0.437979 -0.522004 0.134472
v 0.366677 -0.447240 0.134472
v 0.366677 -0.447240 0.134472
v 0.437979 -0.447240 0.134472
v 0.366677 -0.522004 0.134472
v 0.437979 -0.522004 0.134472
v 0.366677 -0.447240 0.134472
v -0.385801 -0.522004 0.134472
v 0.366677 -0.522004 0.134472
v -0.385801 -0.447240 0.134472
v -0.385801 -0.447240 0.134472
v 0.366677 -0.447240 0.134472
v -0.385801 -0.522004 0.134472
v 0.366677 -0.522004 0.134472
v 0.366677 -0.413597 0.134472
v 0.332618 -0.433395 0.134472
v 0.366677 -0.433395 0.134472
v 0.332618 -0.413597 0.134472
v 0.332618 -0.413597 0.134472
v 0.366677 -0.413597 0.134472
v 0.332618 -0.433395 0.134472
v 0.366677 -0.433395 0.134472
v 0.437979 -0.433395 0.137241
v 0.366677 -0.433395 0.134472
v 0.366677 -0.433395 0.137241
v 0.437979 -0.433395 0.134472
v -0.314499 -0.433395 0.134472
v 0.366677 -0.433395 -0.373201
v -0.314499 -0.433395 -0.373201
v -0.280440 -0.433395 0.134472
v -0.246381 -0.433395 0.134472
v -0.212323 -0.433395 0.134472
v -0.178264 -0.433395 0.134472
v -0.144205 -0.433395 0.134472
v -0.110146 -0.433395 0.134472
v -0.076087 -0.433395 0.134472
v -0.042029 -0.433395 0.134472
v -0.007970 -0.433395 0.134472
v 0.026089 -0.433395 0.134472
v 0.060148 -0.433395 0.134472
v 0.094207 -0.433395 0.134472
v 0.128265 -0.433395 0.134472
v 0.162324 -0.433395 0.134472
v 0.196383 -0.433395 0.134472
v 0.230442 -0.433395 0.134472
v 0.264501 -0.433395 0.134472
v 0.298559 -0.433395 0.134472
v 0.332618 -0.433395 0.134472
v 0.366677 -0.433395 0.134472
v 0.332618 -0.433395 0.134472
v 0.366677 -0.433395 -0.373201
v 0.298559 -0.433395 0.134472
v 0.264501 -0.433395 0.134472
v 0.230442 -0.433395 0.134472
v 0.196383 -0.433395 0.134472
v 0.162324 -0.433395 0.134472
v 0.128265 -0.433395 0.134472
v 0.094207 -0.433395 0.134472
v 0.060148 -0.433395 0.134472
v 0.026089 -0.433395 0.134472
v -0.007970 -0.433395 0.134472
v -0.042029 -0.433395 0.134472
v -0.076087 -0.433395 0.134472
v -0.110146 -0.433395 0.134472
v -0.144205 -0.433395 0.134472
v -0.178264 -0.433395 0.134472
v -0.212323 -0.433395 0.134472
v -0.246381 -0.433395 0.134472
v -0.280440 -0.433395 0.134472
v -0.314499 -0.433395 0.134472
v -0.314499 -0.433395 -0.373201
v 0.437979 -0.433395 0.134472
v 0.437979 -0.433395 0.137241
v 0.366677 -0.433395 0.137241
v 0.298559 -0.433395 0.134472
v 0.298559 -0.413597 0.134472
v 0.298559 -0.413597 0.134472
v 0.298559 -0.433395 0.134472
v 0.264501 -0.433395 0.134472
v 0.264501 -0.413597 0.134472
v 0.264501 -0.413597 0.134472
v 0.264501 -0.433395 0.134472
v 0.230442 -0.433395 0.134472
v 0.230442 -0.413597 0.134472
v 0.230442 -0.413597 0.134472
v 0.230442 -0.433395 0.134472
v 0.196383 -0.433395 0.134472
v 0.196383 -0.413597 0.134472
v 0.196383 -0.413597 0.134472
v 0.196383 -0.433395 0.134472
v 0.162324 -0.433395 0.134472
v 0.162324 -0.413597 0.134472
v 0.162324 -0.413597 0.134472
v 0.162324 -0.433395 0.134472
v 0.128265 -0.433395 0.134472
v 0.128265 -0.413597 0.134472
v 0.128265 -0.413597 0.134472
v 0.128265 -0.433395 0.134472
v 0.094207 -0.433395 0.134472
v 0.094207 -0.413597 0.134472
v 0.094207 -0.413597 0.134472
v 0.094207 -0.433395 0.134472
v 0.094207 -0.413597 0.134472
v 0.060148 -0.433395 0.134472
v 0.094207 -0.433395 0.134472
v 0.060148 -0.413597 0.134472
v 0.060148 -0.413597 0.134472
v 0.094207 -0.413597 0.134472
v 0.060148 -0.433395 0.134472
v 0.094207 -0.433395 0.134472
v 0.060148 -0.413597 0.134472
v 0.026089 -0.433395 0.134472
v 0.060148 -0.433395 0.134472
v 0.026089 -0.413597 0.134472
v 0.026089 -0.413597 0.134472
v 0.060148 -0.413597 0.134472
v 0.026089 -0.433395 0.134472
v 0.060148 -0.433395 0.134472
v -0.007970 -0.433395 0.134472
v -0.007970 -0.413597 0.134472
v -0.007970 -0.413597 0.134472
v -0.007970 -0.433395 0.134472
v -0.042029 -0.433395 0.134472
v -0.042029 -0.413597 0.134472
v -0.042029 -0.413597 0.134472
v -0.042029 -0.433395 0.134472
v -0.076087 -0.433395 0.134472
v -0.076087 -0.413597 0.134472
v -0.076087 -0.413597 0.134472
v -0.076087 -0.433395 0.134472
v -0.110146 -0.413597 0.134472
v -0.144205 -0.433395 0.134472
v -0.110146 -0.433395 0.134472
v -0.144205 -0.413597 0.134472
v -0.144205 -0.413597 0.134472
v -0.110146 -0.413597 0.134472
v -0.144205 -0.433395 0.134472
v -0.110146 -0.433395 0.134472
v -0.178264 -0.413597 0.134472
v -0.212323 -0.433395 0.134472
v -0.178264 -0.433395 0.134472
v -0.212323 -0.413597 0.134472
v -0.212323 -0.413597 0.134472
v -0.178264 -0.413597 0.134472
v -0.212323 -0.433395 0.134472
v -0.178264 -0.433395 0.134472
v -0.246381 -0.413597 0.134472
v -0.280440 -0.433395 0.134472
v -0.246381 -0.433395 0.134472
v -0.280440 -0.413597 0.134472
v -0.280440 -0.413597 0.134472
v -0.246381 -0.413597 0.134472
v -0.280440 -0.433395 0.134472
v -0.246381 -0.433395 0.134472
v -0.314499 -0.413597 -0.373201
v -0.314499 -0.433395 0.134472
v -0.314499 -0.413597 0.134472
v -0.314499 -0.433395 -0.373201
v -0.314499 -0.433395 -0.373201
v -0.314499 -0.413597 -0.373201
v -0.314499 -0.433395 0.134472
v -0.314499 -0.413597 0.134472
v -0.314499 -0.413597 -0.373201
v 0.366677 -0.433395 -0.373201
v -0.314499 -0.433395 -0.373201
v 0.366677 -0.413597 -0.373201
v 0.366677 -0.413597 -0.373201
v -0.314499 -0.413597 -0.373201
v 0.366677 -0.433395 -0.373201
v -0.314499 -0.433395 -0.373201
v 0.366677 -0.433395 -0.373201
v 0.366677 -0.413597 0.134472
v 0.366677 -0.433395 0.134472
v 0.366677 -0.413597 -0.373201
v 0.366677 -0.413597 -0.373201
v 0.366677 -0.433395 -0.373201
v 0.366677 -0.413597 0.134472
v 0.366677 -0.433395 0.134472
v -0.314499 -0.413597 0.134472
v 0.366677 -0.413597 -0.373201
v -0.314499 -0.413597 -0.373201
v -0.280440 -0.413597 0.134472
v -0.246381 -0.413597 0.134472
v -0.212323 -0.413597 0.134472
v -0.178264 -0.413597 0.134472
v -0.144205 -0.413597 0.134472
v -0.110146 -0.413597 0.134472
v -0.076087 -0.413597 0.134472
v -0.042029 -0.413597 0.134472
v -0.007970 -0.413597 0.134472
v 0.026089 -0.413597 0.134472
v 0.060148 -0.413597 0.134472
v 0.094207 -0.413597 0.134472
v 0.128265 -0.413597 0.134472
v 0.162324 -0.413597 0.134472
v 0.196383 -0.413597 0.134472
v 0.230442 -0.413597 0.134472
v 0.264501 -0.413597 0.134472
v 0.298559 -0.413597 0.134472
v 0.332618 -0.413597 0.134472
v 0.366677 -0.413597 0.134472
v 0.366677 -0.413597 0.134472
v 0.332618 -0.413597 0.134472
v 0.366677 -0.413597 -0.373201
v 0.298559 -0.413597 0.134472
v 0.264501 -0.413597 0.134472
v 0.230442 -0.413597 0.134472
v 0.196383 -0.413597 0.134472
v 0.162324 -0.413597 0.134472
v 0.128265 -0.413597 0.134472
v 0.094207 -0.413597 0.134472
v 0.060148 -0.413597 0.134472
v 0.026089 -0.413597 0.134472
v -0.007970 -0.413597 0.134472
v -0.042029 -0.413597 0.134472
v -0.076087 -0.413597 0.134472
v -0.110146 -0.413597 0.134472
v -0.144205 -0.413597 0.134472
v -0.178264 -0.413597 0.134472
v -0.212323 -0.413597 0.134472
v -0.246381 -0.413597 0.134472
v -0.280440 -0.413597 0.134472
v -0.314499 -0.413597 0.134472
v -0.314499 -0.413597 -0.373201
v 0.366677 -0.433395 0.137241
v 0.332618 -0.433395 0.134472
v 0.332618 -0.433395 0.137241
v 0.366677 -0.433395 0.134472
v 0.366677 -0.433395 0.134472
v 0.366677 -0.433395 0.137241
v 0.332618 -0.433395 0.134472
v 0.332618 -0.433395 0.137241
v -0.246381 -0.433395 0.137241
v -0.280440 -0.433395 0.134472
v -0.280440 -0.433395 0.137241
v -0.246381 -0.433395 0.134472
v -0.246381 -0.433395 0.134472
v -0.246381 -0.433395 0.137241
v -0.280440 -0.433395 0.134472
v -0.280440 -0.433395 0.137241
v -0.178264 -0.433395 0.137241
v -0.212323 -0.433395 0.134472
v -0.212323 -0.433395 0.137241
v -0.178264 -0.433395 0.134472
v -0.178264 -0.433395 0.134472
v -0.178264 -0.433395 0.137241
v -0.212323 -0.433395 0.134472
v -0.212323 -0.433395 0.137241
v -0.110146 -0.433395 0.137241
v -0.144205 -0.433395 0.134472
v -0.144205 -0.433395 0.137241
v -0.110146 -0.433395 0.134472
v -0.110146 -0.433395 0.134472
v -0.110146 -0.433395 0.137241
v -0.144205 -0.433395 0.134472
v -0.144205 -0.433395 0.137241
v -0.042029 -0.433395 0.137241
v -0.076087 -0.433395 0.134472
v -0.076087 -0.433395 0.137241
v -0.042029 -0.433395 0.134472
v -0.042029 -0.433395 0.134472
v -0.042029 -0.433395 0.137241
v -0.076087 -0.433395 0.134472
v -0.076087 -0.433395 0.137241
v -0.007970 -0.433395 0.137241
v -0.042029 -0.433395 0.134472
v -0.042029 -0.433395 0.137241
v -0.007970 -0.433395 0.134472
v -0.007970 -0.433395 0.134472
v -0.007970 -0.433395 0.137241
v -0.042029 -0.433395 0.134472
v -0.042029 -0.433395 0.137241
v 0.026089 -0.433395 0.137241
v -0.007970 -0.433395 0.134472
v -0.007970 -0.433395 0.137241
v 0.026089 -0.433395 0.134472
v 0.026089 -0.433395 0.134472
v 0.026089 -0.433395 0.137241
v -0.007970 -0.433395 0.134472
v -0.007970 -0.433395 0.137241
v 0.060148 -0.433395 0.137241
v 0.026089 -0.433395 0.134472
v 0.026089 -0.433395 0.137241
v 0.060148 -0.433395 0.134472
v 0.060148 -0.433395 0.134472
v 0.060148 -0.433395 0.137241
v 0.026089 -0.433395 0.134472
v 0.026089 -0.433395 0.137241
v 0.094207 -0.433395 0.137241
v 0.060148 -0.433395 0.134472
v 0.060148 -0.433395 0.137241
v 0.094207 -0.433395 0.134472
v 0.094207 -0.433395 0.134472
v 0.094207 -0.433395 0.137241
v 0.060148 -0.433395 0.134472
v 0.060148 -0.433395 0.137241
v 0.128265 -0.433395 0.137241
v 0.094207 -0.433395 0.134472
v 0.094207 -0.433395 0.137241
v 0.128265 -0.433395 0.134472
v 0.128265 -0.433395 0.134472
v 0.128265 -0.433395 0.137241
v 0.094207 -0.433395 0.134472
v 0.094207 -0.433395 0.137241
v 0.162324 -0.433395 0.137241
v 0.128265 -0.433395 0.134472
v 0.128265 -0.433395 0.137241
v 0.162324 -0.433395 0.134472
v 0.162324 -0.433395 0.134472
v 0.162324 -0.433395 0.137241
v 0.128265 -0.433395 0.134472
v 0.128265 -0.433395 0.137241
v 0.196383 -0.433395 0.137241
v 0.162324 -0.433395 0.134472
v 0.162324 -0.433395 0.137241
v 0.196383 -0.433395 0.134472
v 0.196383 -0.433395 0.134472
v 0.196383 -0.433395 0.137241
v 0.162324 -0.433395 0.134472
v 0.162324 -0.433395 0.137241
v 0.230442 -0.433395 0.137241
v 0.196383 -0.433395 0.134472
v 0.196383 -0.433395 0.137241
v 0.230442 -0.433395 0.134472
v 0.230442 -0.433395 0.134472
v 0.230442 -0.433395 0.137241
v 0.196383 -0.433395 0.134472
v 0.196383 -0.433395 0.137241
v 0.264501 -0.433395 0.137241
v 0.230442 -0.433395 0.134472
v 0.230442 -0.433395 0.137241
v 0.264501 -0.433395 0.134472
v 0.264501 -0.433395 0.134472
v 0.264501 -0.433395 0.137241
v 0.230442 -0.433395 0.134472
v 0.230442 -0.433395 0.137241
v 0.298559 -0.433395 0.137241
v 0.264501 -0.433395 0.134472
v 0.264501 -0.433395 0.137241
v 0.298559 -0.433395 0.134472
v 0.298559 -0.433395 0.134472
v 0.298559 -0.433395 0.137241
v 0.264501 -0.433395 0.134472
v 0.264501 -0.433395 0.137241
v 0.332618 -0.433395 0.137241
v 0.298559 -0.433395 0.134472
v 0.298559 -0.433395 0.137241
v 0.332618 -0.433395 0.134472
v 0.332618 -0.433395 0.134472
v 0.332618 -0.433395 0.137241
v 0.298559 -0.433395 0.134472
v 0.298559 -0.433395 0.137241
vn 0 -1 0
vn -1 0 0
vn 0 0 -1
vn 1 0 0
vn 0 0 1
vn 0 1 0
usemtl material_0_0
f 1//1 2//1 3//1
f 2//1 1//1 4//1
f 9//2 10//2 11//2
f 10//2 9//2 12//2
f 13//2 14//2 15//2
f 14//2 13//2 16//2
f 14//2 16//2 12//2
f 12//2 16//2 10//2
f 25//3 26//3 27//3
f 26//3 25//3 28//3
f 28//3 25//3 29//3
f 28//3 29//3 30//3
f 37//4 38//4 39//4
f 38//4 37//4 40//4
f 40//4 37//4 41//4
f 41//4 37//4 42//4
f 39//4 43//4 44//4
f 43//4 39//4 38//4
f 53//5 54//5 55//5
f 54//5 53//5 56//5
f 54//5 56//5 57//5
f 55//5 58//5 59//5
f 58//5 55//5 54//5
f 59//5 58//5 60//5
f 69//6 70//6 71//6
f 70//6 69//6 72//6
f 77//3 78//3 79//3
f 78//3 77//3 80//3
f 81//3 82//3 83//3
f 82//3 81//3 84//3
f 85//3 84//3 81//3
f 84//3 85//3 86//3
f 84//3 86//3 87//3
f 87//3 86//3 79//3
f 87//3 79//3 88//3
f 88//3 79//3 89//3
f 89//3 79//3 78//3
f 88//3 89//3 90//3
f 88//3 90//3 91//3
f 91//3 90//3 92//3
f 91//3 92//3 93//3
f 93//3 92//3 94//3
f 91//3 93//3 95//3
f 96//3 97//3 98//3
f 97//3 96//3 99//3
f 99//3 96//3 100//3
f 93//3 101//3 95//3
f 101//3 93//3 98//3
f 101//3 98//3 102//3
f 102//3 98//3 97//3
f 102//3 97//3 103//3
f 131//6 132//6 133//6
f 132//6 131//6 134//6
f 132//6 134//6 135//6
f 135//6 134//6 136//6
f 136//6 134//6 137//6
f 145//5 146//5 147//5
f 146//5 145//5 148//5
f 153//6 154//6 155//6
f 154//6 153//6 156//6
f 154//6 156//6 157//6
f 163//6 164//6 165//6
f 164//6 163//6 166//6
f 171//6 172//6 173//6
f 172//6 171//6 174//6
f 174//6 171//6 175//6
f 181//5 182//5 183//5
f 182//5 181//5 184//5
f 189//6 190//6 191//6
f 190//6 189//6 192//6
f 197//2 198//2 199//2
f 198//2 197//2 200//2
f 198//2 200//2 201//2
f 201//2 200//2 202//2
f 209//6 210//6 211//6
f 210//6 209//6 212//6
f 212//6 209//6 213//6
f 219//4 220//4 221//4
f 220//4 219//4 222//4
f 222//4 219//4 223//4
f 222//4 223//4 224//4
f 231//1 232//1 233//1
f 232//1 231//1 234//1
f 239//1 240//1 241//1
f 240//1 239//1 242//1
f 247//1 248//1 249//1
f 248//1 247//1 250//1
f 255//1 256//1 257//1
f 256//1 255//1 258//1
f 263//1 264//1 265//1
f 264//1 263//1 266//1
f 271//5 272//5 273//5
f 272//5 271//5 274//5
f 279//5 280//5 281//5
f 280//5 279//5 282//5
f 282//5 279//5 283//5
f 283//5 279//5 284//5
f 283//5 284//5 285//5
f 283//5 285//5 286//5
f 283//5 286//5 287//5
f 283//5 287//5 288//5
f 283//5 288//5 289//5
f 283//5 289//5 290//5
f 283//5 290//5 291//5
f 283//5 291//5 292//5
f 283//5 292//5 293//5
f 283//5 293//5 294//5
f 283//5 294//5 295//5
f 283//5 295//5 296//5
f 283//5 296//5 297//5
f 283//5 297//5 298//5
f 283//5 298//5 299//5
f 283//5 299//5 300//5
f 283//5 300//5 301//5
f 283//5 301//5 302//5
f 327//6 328//6 329//6
f 328//6 327//6 330//6
f 330//6 331//6 328//6
f 331//6 330//6 332//6
f 331//6 332//6 333//6
f 331//6 333//6 334//6
f 343//5 344//5 345//5
f 344//5 343//5 346//5
f 351//5 352//5 353//5
f 352//5 351//5 354//5
f 359//5 360//5 361//5
f 360//5 359//5 362//5
f 367//6 368//6 369//6
f 368//6 367//6 370//6
f 371//6 372//6 373//6
f 372//6 371//6 374//6
f 372//6 374//6 375//6
f 372//6 375//6 376//6
f 372//6 376//6 377//6
f 372//6 377//6 378//6
f 372//6 378//6 379//6
f 372//6 379//6 380//6
f 372//6 380//6 381//6
f 372//6 381//6 382//6
f 372//6 382//6 383//6
f 372//6 383//6 384//6
f 372//6 384//6 385//6
f 372//6 385//6 386//6
f 372//6 386//6 387//6
f 372//6 387//6 388//6
f 372//6 388//6 389//6
f 372//6 389//6 390//6
f 372//6 390//6 391//6
f 372//6 391//6 392//6
f 372//6 392//6 368//6
f 362//5 419//5 360//5
f 419//5 362//5 420//5
f 420//5 423//5 419//5
f 423//5 420//5 424//5
f 424//5 427//5 423//5
f 427//5 424//5 428//5
f 428//5 431//5 427//5
f 431//5 428//5 432//5
f 432//5 435//5 431//5
f 435//5 432//5 436//5
f 436//5 439//5 435//5
f 439//5 436//5 440//5
f 440//5 443//5 439//5
f 443//5 440//5 444//5
f 447//5 448//5 449//5
f 448//5 447//5 450//5
f 455//5 456//5 457//5
f 456//5 455//5 458//5
f 458//5 463//5 456//5
f 463//5 458//5 464//5
f 464//5 467//5 463//5
f 467//5 464//5 468//5
f 468//5 471//5 467//5
f 471//5 468//5 472//5
f 475//5 476//5 477//5
f 476//5 475//5 478//5
f 483//5 484//5 485//5
f 484//5 483//5 486//5
f 491//5 492//5 493//5
f 492//5 491//5 494//5
f 499//2 500//2 501//2
f 500//2 499//2 502//2
f 507//3 508//3 509//3
f 508//3 507//3 510//3
f 515//4 516//4 517//4
f 516//4 515//4 518//4
f 523//6 524//6 525//6
f 524//6 523//6 526//6
f 524//6 526//6 527//6
f 524//6 527//6 528//6
f 524//6 528//6 529//6
f 524//6 529//6 530//6
f 524//6 530//6 531//6
f 524//6 531//6 532//6
f 524//6 532//6 533//6
f 524//6 533//6 534//6
f 524//6 534//6 535//6
f 524//6 535//6 536//6
f 524//6 536//6 537//6
f 524//6 537//6 538//6
f 524//6 538//6 539//6
f 524//6 539//6 540//6
f 524//6 540//6 541//6
f 524//6 541//6 542//6
f 524//6 542//6 543//6
f 524//6 543//6 544//6
f 524//6 544//6 545//6
f 569//6 570//6 571//6
f 570//6 569//6 572//6
f 577//6 578//6 579//6
f 578//6 577//6 580//6
f 585//6 586//6 587//6
f 586//6 585//6 588//6
f 593//6 594//6 595//6
f 594//6 593//6 596//6
f 601//6 602//6 603//6
f 602//6 601//6 604//6
f 609//6 610//6 611//6
f 610//6 609//6 612//6
f 617//6 618//6 619//6
f 618//6 617//6 620//6
f 625//6 626//6 627//6
f 626//6 625//6 628//6
f 633//6 634//6 635//6
f 634//6 633//6 636//6
f 641//6 642//6 643//6
f 642//6 641//6 644//6
f 649//6 650//6 651//6
f 650//6 649//6 652//6
f 657//6 658//6 659//6
f 658//6 657//6 660//6
f 665//6 666//6 667//6
f 666//6 665//6 668//6
f 673//6 674//6 675//6
f 674//6 673//6 676//6
f 681//6 682//6 683//6
f 682//6 681//6 684//6
f 689//6 690//6 691//6
f 690//6 689//6 692//6
usemtl material_1_0
f 5//6 6//6 7//6
f 8//6 7//6 6//6
f 17//4 18//4 19//4
f 19//4 18//4 20//4
f 18//4 21//4 20//4
f 22//4 20//4 21//4
f 19//4 23//4 17//4
f 24//4 17//4 23//4
f 31//5 32//5 33//5
f 32//5 34//5 33//5
f 33//5 34//5 35//5
f 36//5 35//5 34//5
f 45//2 46//2 47//2
f 48//2 47//2 46//2
f 49//2 50//2 51//2
f 51//2 50//2 52//2
f 52//2 50//2 45//2
f 46//2 45//2 50//2
f 61//3 62//3 63//3
f 64//3 65//3 62//3
f 63//3 62//3 65//3
f 66//3 67//3 64//3
f 67//3 68//3 64//3
f 65//3 64//3 68//3
f 73//1 74//1 75//1
f 76//1 75//1 74//1
f 104//5 105//5 106//5
f 105//5 107//5 106//5
f 106//5 107//5 108//5
f 107//5 109//5 108//5
f 110//5 108//5 109//5
f 111//5 112//5 113//5
f 113//5 112//5 105//5
f 107//5 105//5 112//5
f 110//5 109//5 114//5
f 115//5 116//5 109//5
f 109//5 116//5 114//5
f 116//5 117//5 114//5
f 114//5 117//5 118//5
f 117//5 119//5 118//5
f 120//5 121//5 119//5
f 119//5 121//5 118//5
f 118//5 121//5 122//5
f 121//5 123//5 122//5
f 122//5 123//5 124//5
f 123//5 125//5 124//5
f 126//5 124//5 125//5
f 124//5 126//5 127//5
f 128//5 127//5 126//5
f 129//5 130//5 120//5
f 121//5 120//5 130//5
f 138//1 139//1 140//1
f 140//1 139//1 141//1
f 141//1 139//1 142//1
f 139//1 143//1 142//1
f 144//1 142//1 143//1
f 149//3 150//3 151//3
f 152//3 151//3 150//3
f 158//1 159//1 160//1
f 159//1 161//1 160//1
f 162//1 160//1 161//1
f 167//1 168//1 169//1
f 170//1 169//1 168//1
f 176//1 177//1 178//1
f 178//1 177//1 179//1
f 180//1 179//1 177//1
f 185//3 186//3 187//3
f 188//3 187//3 186//3
f 193//1 194//1 195//1
f 196//1 195//1 194//1
f 203//4 204//4 205//4
f 205//4 204//4 206//4
f 204//4 207//4 206//4
f 208//4 206//4 207//4
f 214//1 215//1 216//1
f 216//1 215//1 217//1
f 218//1 217//1 215//1
f 225//2 226//2 227//2
f 226//2 228//2 227//2
f 227//2 228//2 229//2
f 230//2 229//2 228//2
f 235//6 236//6 237//6
f 238//6 237//6 236//6
f 243//6 244//6 245//6
f 246//6 245//6 244//6
f 251//6 252//6 253//6
f 254//6 253//6 252//6
f 259//6 260//6 261//6
f 262//6 261//6 260//6
f 267//6 268//6 269//6
f 270//6 269//6 268//6
f 275//3 276//3 277//3
f 278//3 277//3 276//3
f 303//3 304//3 305//3
f 304//3 306//3 305//3
f 306//3 307//3 305//3
f 307//3 308//3 305//3
f 308//3 309//3 305//3
f 309//3 310//3 305//3
f 310//3 311//3 305//3
f 311//3 312//3 305//3
f 312//3 313//3 305//3
f 313//3 314//3 305//3
f 314//3 315//3 305//3
f 315//3 316//3 305//3
f 316//3 317//3 305//3
f 317//3 318//3 305//3
f 318//3 319//3 305//3
f 319//3 320//3 305//3
f 320//3 321//3 305//3
f 321//3 322//3 305//3
f 322//3 323//3 305//3
f 305//3 323//3 324//3
f 324//3 323//3 325//3
f 326//3 325//3 323//3
f 335//1 336//1 337//1
f 336//1 338//1 337//1
f 338//1 339//1 337//1
f 340//1 337//1 339//1
f 339//1 341//1 340//1
f 342//1 340//1 341//1
f 347//3 348//3 349//3
f 350//3 349//3 348//3
f 355//3 356//3 357//3
f 358//3 357//3 356//3
f 363//3 364//3 365//3
f 366//3 365//3 364//3
f 393//1 394//1 395//1
f 394//1 396//1 395//1
f 396//1 397//1 395//1
f 397//1 398//1 395//1
f 398//1 399//1 395//1
f 399//1 400//1 395//1
f 400//1 401//1 395//1
f 401//1 402//1 395//1
f 402//1 403//1 395//1
f 403//1 404//1 395//1
f 404//1 405//1 395//1
f 405//1 406//1 395//1
f 406//1 407//1 395//1
f 407//1 408//1 395//1
f 408//1 409//1 395//1
f 409//1 410//1 395//1
f 410//1 411//1 395//1
f 411//1 412//1 395//1
f 412//1 413//1 395//1
f 413//1 414//1 395//1
f 415//1 395//1 414//1
f 416//1 417//1 393//1
f 418//1 393//1 417//1
f 421//3 363//3 422//3
f 365//3 422//3 363//3
f 425//3 421//3 426//3
f 422//3 426//3 421//3
f 429//3 425//3 430//3
f 426//3 430//3 425//3
f 433//3 429//3 434//3
f 430//3 434//3 429//3
f 437//3 433//3 438//3
f 434//3 438//3 433//3
f 441//3 437//3 442//3
f 438//3 442//3 437//3
f 445//3 441//3 446//3
f 442//3 446//3 441//3
f 451//3 452//3 453//3
f 454//3 453//3 452//3
f 459//3 460//3 461//3
f 462//3 461//3 460//3
f 465//3 459//3 466//3
f 461//3 466//3 459//3
f 469//3 465//3 470//3
f 466//3 470//3 465//3
f 473//3 469//3 474//3
f 470//3 474//3 469//3
f 479//3 480//3 481//3
f 482//3 481//3 480//3
f 487//3 488//3 489//3
f 490//3 489//3 488//3
f 495//3 496//3 497//3
f 498//3 497//3 496//3
f 503//4 504//4 505//4
f 506//4 505//4 504//4
f 511//5 512//5 513//5
f 514//5 513//5 512//5
f 519//2 520//2 521//2
f 522//2 521//2 520//2
f 546//1 547//1 548//1
f 547//1 549//1 548//1
f 549//1 550//1 548//1
f 550//1 551//1 548//1
f 551//1 552//1 548//1
f 552//1 553//1 548//1
f 553//1 554//1 548//1
f 554//1 555//1 548//1
f 555//1 556//1 548//1
f 556//1 557//1 548//1
f 557//1 558//1 548//1
f 558//1 559//1 548//1
f 559//1 560//1 548//1
f 560//1 561//1 548//1
f 561//1 562//1 548//1
f 562//1 563//1 548//1
f 563//1 564//1 548//1
f 564//1 565//1 548//1
f 565//1 566//1 548//1
f 566//1 567//1 548//1
f 568//1 548//1 567//1
f 573//1 574//1 575//1
f 576//1 575//1 574//1
f 581//1 582//1 583//1
f 584//1 583//1 582//1
f 589//1 590//1 591//1
f 592//1 591//1 590//1
f 597//1 598//1 599//1
f 600//1 599//1 598//1
f 605//1 606//1 607//1
f 608//1 607//1 606//1
f 613//1 614//1 615//1
f 616//1 615//1 614//1
f 621//1 622//1 623//1
f 624//1 623//1 622//1
f 629//1 630//1 631//1
f 632//1 631//1 630//1
f 637//1 638//1 639//1
f 640//1 639//1 638//1
f 645//1 646//1 647//1
f 648//1 647//1 646//1
f 653//1 654//1 655//1
f 656//1 655//1 654//1
f 661//1 662//1 663//1
f 664//1 663//1 662//1
f 669//1 670//1 671//1
f 672//1 671//1 670//1
f 677//1 678//1 679//1
f 680//1 679//1 678//1
f 685//1 686//1 687//1
f 688//1 687//1 686//1
f 693//1 694//1 695//1
f 696//1 695//1 694//1
