# SSTK version 0.8.0
# 67
mtllib original-67.mtl
o #ID409
v -0.303243 0.607060 -0.093632
v -0.301759 0.607060 -0.076193
v -0.303603 0.607060 -0.084819
v -0.301311 0.607060 -0.089483
v -0.300703 0.607060 -0.102078
v -0.299760 0.607060 -0.097907
v -0.296142 0.607060 -0.109628
v -0.296080 0.607060 -0.105643
v -0.289847 0.607060 -0.115806
v -0.290525 0.607060 -0.112162
v -0.283471 0.607060 -0.117022
v -0.282213 0.607060 -0.120225
v -0.275399 0.607060 -0.119890
v -0.273720 0.607060 -0.122607
v -0.266861 0.607060 -0.120572
v -0.264902 0.607060 -0.122801
v -0.258436 0.607060 -0.119020
v -0.256313 0.607060 -0.120796
v -0.250701 0.607060 -0.115341
v -0.248491 0.607060 -0.116719
v -0.244181 0.607060 -0.109785
v -0.241930 0.607060 -0.110824
v -0.239322 0.607060 -0.102731
v -0.237041 0.607060 -0.103483
v -0.236453 0.607060 -0.094660
v -0.234131 0.607060 -0.095156
v -0.236113 0.607060 -0.090390
v -0.235772 0.607060 -0.086121
v -0.234844 0.607060 -0.077669
v -0.233383 0.607060 -0.086367
v -0.300630 0.607060 -0.080944
v -0.297829 0.607060 -0.068297
v -0.297761 0.607060 -0.072873
v -0.292058 0.607060 -0.061626
v -0.292902 0.607060 -0.065819
v -0.286382 0.607060 -0.060263
v -0.284809 0.607060 -0.056600
v -0.278647 0.607060 -0.056584
v -0.276539 0.607060 -0.053535
v -0.270223 0.607060 -0.055032
v -0.267766 0.607060 -0.052623
v -0.261684 0.607060 -0.055714
v -0.259041 0.607060 -0.053921
v -0.253612 0.607060 -0.058582
v -0.250914 0.607060 -0.057348
v -0.246559 0.607060 -0.063442
v -0.243894 0.607060 -0.062688
v -0.241003 0.607060 -0.069961
v -0.238423 0.607060 -0.069607
v -0.237324 0.607060 -0.077697
v -0.235772 0.607060 -0.086121
v -0.237324 0.607060 -0.077697
v -0.234844 0.607060 -0.077669
v -0.238423 0.607060 -0.069607
v -0.241003 0.607060 -0.069961
v -0.243894 0.607060 -0.062688
v -0.246559 0.607060 -0.063442
v -0.250914 0.607060 -0.057348
v -0.253612 0.607060 -0.058582
v -0.259041 0.607060 -0.053921
v -0.261684 0.607060 -0.055714
v -0.267766 0.607060 -0.052623
v -0.270223 0.607060 -0.055032
v -0.276539 0.607060 -0.053535
v -0.278647 0.607060 -0.056584
v -0.284809 0.607060 -0.056600
v -0.286382 0.607060 -0.060263
v -0.292058 0.607060 -0.061626
v -0.292902 0.607060 -0.065819
v -0.297761 0.607060 -0.072873
v -0.297829 0.607060 -0.068297
v -0.300630 0.607060 -0.080944
v -0.301311 0.607060 -0.089483
v -0.301759 0.607060 -0.076193
v -0.233383 0.607060 -0.086367
v -0.234131 0.607060 -0.095156
v -0.236113 0.607060 -0.090390
v -0.236453 0.607060 -0.094660
v -0.237041 0.607060 -0.103483
v -0.239322 0.607060 -0.102731
v -0.241930 0.607060 -0.110824
v -0.244181 0.607060 -0.109785
v -0.248491 0.607060 -0.116719
v -0.250701 0.607060 -0.115341
v -0.256313 0.607060 -0.120796
v -0.258436 0.607060 -0.119020
v -0.264902 0.607060 -0.122801
v -0.266861 0.607060 -0.120572
v -0.273720 0.607060 -0.122607
v -0.275399 0.607060 -0.119890
v -0.282213 0.607060 -0.120225
v -0.283471 0.607060 -0.117022
v -0.289847 0.607060 -0.115806
v -0.290525 0.607060 -0.112162
v -0.296080 0.607060 -0.105643
v -0.296142 0.607060 -0.109628
v -0.299760 0.607060 -0.097907
v -0.300703 0.607060 -0.102078
v -0.303243 0.607060 -0.093632
v -0.303603 0.607060 -0.084819
vn 0 -1 0
vn 0 1 0
usemtl material_0_0
f 1//1 2//1 3//1
f 2//1 1//1 4//1
f 4//1 1//1 5//1
f 4//1 5//1 6//1
f 6//1 5//1 7//1
f 6//1 7//1 8//1
f 8//1 7//1 9//1
f 8//1 9//1 10//1
f 10//1 9//1 11//1
f 11//1 9//1 12//1
f 11//1 12//1 13//1
f 13//1 12//1 14//1
f 13//1 14//1 15//1
f 15//1 14//1 16//1
f 15//1 16//1 17//1
f 17//1 16//1 18//1
f 17//1 18//1 19//1
f 19//1 18//1 20//1
f 19//1 20//1 21//1
f 21//1 20//1 22//1
f 21//1 22//1 23//1
f 23//1 22//1 24//1
f 23//1 24//1 25//1
f 25//1 24//1 26//1
f 25//1 26//1 27//1
f 27//1 26//1 28//1
f 28//1 26//1 29//1
f 29//1 26//1 30//1
f 2//1 31//1 32//1
f 31//1 2//1 4//1
f 32//1 31//1 33//1
f 32//1 33//1 34//1
f 34//1 33//1 35//1
f 34//1 35//1 36//1
f 34//1 36//1 37//1
f 37//1 36//1 38//1
f 37//1 38//1 39//1
f 39//1 38//1 40//1
f 39//1 40//1 41//1
f 41//1 40//1 42//1
f 41//1 42//1 43//1
f 43//1 42//1 44//1
f 43//1 44//1 45//1
f 45//1 44//1 46//1
f 45//1 46//1 47//1
f 47//1 46//1 48//1
f 47//1 48//1 49//1
f 49//1 48//1 50//1
f 49//1 50//1 29//1
f 29//1 50//1 28//1
f 51//2 52//2 53//2
f 53//2 52//2 54//2
f 52//2 55//2 54//2
f 54//2 55//2 56//2
f 55//2 57//2 56//2
f 56//2 57//2 58//2
f 57//2 59//2 58//2
f 58//2 59//2 60//2
f 59//2 61//2 60//2
f 60//2 61//2 62//2
f 61//2 63//2 62//2
f 62//2 63//2 64//2
f 63//2 65//2 64//2
f 64//2 65//2 66//2
f 65//2 67//2 66//2
f 66//2 67//2 68//2
f 67//2 69//2 68//2
f 69//2 70//2 68//2
f 68//2 70//2 71//2
f 70//2 72//2 71//2
f 73//2 74//2 72//2
f 71//2 72//2 74//2
f 75//2 76//2 53//2
f 53//2 76//2 51//2
f 51//2 76//2 77//2
f 77//2 76//2 78//2
f 76//2 79//2 78//2
f 78//2 79//2 80//2
f 79//2 81//2 80//2
f 80//2 81//2 82//2
f 81//2 83//2 82//2
f 82//2 83//2 84//2
f 83//2 85//2 84//2
f 84//2 85//2 86//2
f 85//2 87//2 86//2
f 86//2 87//2 88//2
f 87//2 89//2 88//2
f 88//2 89//2 90//2
f 89//2 91//2 90//2
f 90//2 91//2 92//2
f 91//2 93//2 92//2
f 92//2 93//2 94//2
f 94//2 93//2 95//2
f 93//2 96//2 95//2
f 95//2 96//2 97//2
f 96//2 98//2 97//2
f 97//2 98//2 73//2
f 98//2 99//2 73//2
f 73//2 99//2 74//2
f 100//2 74//2 99//2
