# SSTK version 0.8.0
# 6
mtllib original-6.mtl
o #ID83
v -0.203225 -0.000083 0.328952
v -0.208715 -0.000048 0.323078
v -0.205872 -0.000577 0.325921
v -0.200954 0.001400 0.331965
v -0.211559 0.001469 0.320619
v -0.199213 0.003771 0.334755
v -0.214210 0.003868 0.318709
v -0.198121 0.006869 0.337132
v -0.216489 0.006988 0.317479
v -0.197753 0.010483 0.338934
v -0.218240 0.010615 0.317014
v -0.198134 0.014366 0.340037
v -0.219343 0.014503 0.317344
v -0.199237 0.018253 0.340367
v -0.219724 0.018385 0.318447
v -0.200988 0.021880 0.339902
v -0.219356 0.021999 0.320249
v -0.203267 0.025000 0.338672
v -0.218264 0.025097 0.322626
v -0.205919 0.027400 0.336762
v -0.216524 0.027468 0.325416
v -0.208763 0.028916 0.334303
v -0.214252 0.028951 0.328429
v -0.211605 0.029445 0.331460
v -0.211605 0.029445 0.331460
v -0.208763 0.028916 0.334303
v -0.214252 0.028951 0.328429
v -0.216524 0.027468 0.325416
v -0.205919 0.027400 0.336762
v -0.218264 0.025097 0.322626
v -0.203267 0.025000 0.338672
v -0.219356 0.021999 0.320249
v -0.200988 0.021880 0.339902
v -0.219724 0.018385 0.318447
v -0.199237 0.018253 0.340367
v -0.219343 0.014503 0.317344
v -0.198134 0.014366 0.340037
v -0.218240 0.010615 0.317014
v -0.197753 0.010483 0.338934
v -0.216489 0.006988 0.317479
v -0.198121 0.006869 0.337132
v -0.214210 0.003868 0.318709
v -0.199213 0.003771 0.334755
v -0.211559 0.001469 0.320619
v -0.200954 0.001400 0.331965
v -0.208715 -0.000048 0.323078
v -0.203225 -0.000083 0.328952
v -0.205872 -0.000577 0.325921
v -0.214252 0.028951 0.328429
v -0.301176 -0.003069 0.414978
v -0.303823 -0.003563 0.411947
v -0.211605 0.029445 0.331460
v -0.211605 0.029445 0.331460
v -0.214252 0.028951 0.328429
v -0.301176 -0.003069 0.414978
v -0.303823 -0.003563 0.411947
v -0.216524 0.027468 0.325416
v -0.306095 -0.005046 0.408933
v -0.216524 0.027468 0.325416
v -0.306095 -0.005046 0.408933
v -0.307836 -0.007417 0.406143
v -0.218264 0.025097 0.322626
v -0.218264 0.025097 0.322626
v -0.307836 -0.007417 0.406143
v -0.308927 -0.010515 0.403766
v -0.219356 0.021999 0.320249
v -0.219356 0.021999 0.320249
v -0.308927 -0.010515 0.403766
v -0.309295 -0.014129 0.401965
v -0.219724 0.018385 0.318447
v -0.219724 0.018385 0.318447
v -0.309295 -0.014129 0.401965
v -0.308915 -0.018012 0.400861
v -0.219343 0.014503 0.317344
v -0.219343 0.014503 0.317344
v -0.308915 -0.018012 0.400861
v -0.307811 -0.021899 0.400531
v -0.218240 0.010615 0.317014
v -0.218240 0.010615 0.317014
v -0.307811 -0.021899 0.400531
v -0.306061 -0.025526 0.400997
v -0.216489 0.006988 0.317479
v -0.216489 0.006988 0.317479
v -0.306061 -0.025526 0.400997
v -0.303782 -0.028646 0.402226
v -0.214210 0.003868 0.318709
v -0.214210 0.003868 0.318709
v -0.303782 -0.028646 0.402226
v -0.301130 -0.031046 0.404136
v -0.211559 0.001469 0.320619
v -0.211559 0.001469 0.320619
v -0.301130 -0.031046 0.404136
v -0.298286 -0.032562 0.406596
v -0.208715 -0.000048 0.323078
v -0.208715 -0.000048 0.323078
v -0.298286 -0.032562 0.406596
v -0.295443 -0.033091 0.409438
v -0.205872 -0.000577 0.325921
v -0.205872 -0.000577 0.325921
v -0.295443 -0.033091 0.409438
v -0.292796 -0.032597 0.412470
v -0.203225 -0.000083 0.328952
v -0.203225 -0.000083 0.328952
v -0.292796 -0.032597 0.412470
v -0.290525 -0.031114 0.415483
v -0.200954 0.001400 0.331965
v -0.200954 0.001400 0.331965
v -0.290525 -0.031114 0.415483
v -0.199213 0.003771 0.334755
v -0.288784 -0.028743 0.418273
v -0.199213 0.003771 0.334755
v -0.288784 -0.028743 0.418273
v -0.198121 0.006869 0.337132
v -0.287693 -0.025645 0.420650
v -0.198121 0.006869 0.337132
v -0.287693 -0.025645 0.420650
v -0.197753 0.010483 0.338934
v -0.287325 -0.022031 0.422451
v -0.197753 0.010483 0.338934
v -0.287325 -0.022031 0.422451
v -0.198134 0.014366 0.340037
v -0.287705 -0.018149 0.423555
v -0.198134 0.014366 0.340037
v -0.287705 -0.018149 0.423555
v -0.199237 0.018253 0.340367
v -0.288808 -0.014261 0.423885
v -0.199237 0.018253 0.340367
v -0.288808 -0.014261 0.423885
v -0.200988 0.021880 0.339902
v -0.290559 -0.010634 0.423420
v -0.200988 0.021880 0.339902
v -0.290559 -0.010634 0.423420
v -0.203267 0.025000 0.338672
v -0.292838 -0.007514 0.422190
v -0.203267 0.025000 0.338672
v -0.292838 -0.007514 0.422190
v -0.205919 0.027400 0.336762
v -0.295490 -0.005115 0.420280
v -0.205919 0.027400 0.336762
v -0.295490 -0.005115 0.420280
v -0.208763 0.028916 0.334303
v -0.298334 -0.003598 0.417820
v -0.208763 0.028916 0.334303
v -0.298334 -0.003598 0.417820
vn -0.7069006513812058 -0.2566048440677407 0.6591247401499942
vn 0.7069006513812058 0.2566048440677407 -0.6591247401499942
vn 0.3540950315693076 -0.9350772340515158 0.01572497937988131
vn 0.18348840136865077 -0.9664982044181641 -0.17948043742882241
vn 0.35233304512036623 -0.9357763994102849 0.01356302410722145
vn 0.18556871509385214 -0.9665117895734047 -0.17725465464701148
vn -0.18556871509385214 0.9665117895734047 0.17725465464701148
vn -0.3540950315693076 0.9350772340515158 -0.01572497937988131
vn -0.18348840136865077 0.9664982044181641 0.17948043742882241
vn -0.35233304512036623 0.9357763994102849 -0.01356302410722145
vn 0.499618659069513 -0.8407765100692987 0.2085091259999716
vn 0.49839676129753396 -0.8419360267614217 0.20674717693192252
vn -0.499618659069513 0.8407765100692987 -0.2085091259999716
vn -0.49839676129753396 0.8419360267614217 -0.20674717693192252
vn 0.6114109712165975 -0.6902108886850321 0.387021386252227
vn 0.6120711944701386 -0.688951596086174 0.3882197201974821
vn -0.6120711944701386 0.688951596086174 -0.3882197201974821
vn -0.6114109712165975 0.6902108886850321 -0.387021386252227
vn 0.6828723095206155 -0.49044267496510763 0.5414345680348186
vn 0.6830996616071358 -0.48941265071180523 0.5420794311126931
vn -0.6830996616071358 0.48941265071180523 -0.5420794311126931
vn -0.6828723095206155 0.49044267496510763 -0.5414345680348186
vn 0.7073128394459974 -0.2563794887441867 0.6587701457307473
vn 0.7073126805068592 -0.2558106939542597 0.6589913966455417
vn -0.7073126805068592 0.2558106939542597 -0.6589913966455417
vn -0.7073128394459974 0.2563794887441867 -0.6587701457307473
vn 0.6828015561139198 -0.004373984199861833 0.7305907905459998
vn 0.6828034765063837 -0.0043840739668517805 0.7305889352886817
vn -0.6828034765063837 0.0043840739668517805 -0.7305889352886817
vn -0.6828015561139198 0.004373984199861833 -0.7305907905459998
vn 0.6109967155930057 0.2479312226173167 0.7518065724546723
vn 0.611221540878362 0.24734146248761696 0.7518180823183009
vn -0.611221540878362 -0.24734146248761696 -0.7518180823183009
vn -0.6109967155930057 -0.2479312226173167 -0.7518065724546723
vn 0.49698750774914796 0.48287131871356775 0.72099840964118
vn 0.49761998920583256 0.48181809129805137 0.7212667143579342
vn -0.49761998920583256 -0.48181809129805137 -0.7212667143579342
vn -0.49698750774914796 -0.48287131871356775 -0.72099840964118
vn 0.34896991254675913 0.6840295624783194 0.6405650301045369
vn 0.3501260272814163 0.6827444897480438 0.6413047066245624
vn -0.3501260272814163 -0.6827444897480438 -0.6413047066245624
vn -0.34896991254675913 -0.6840295624783194 -0.6405650301045369
vn 0.17768815363188134 0.8375619263681447 0.5166400483483403
vn 0.1793685602107561 0.8363750939590234 0.517980329561804
vn -0.1793685602107561 -0.8363750939590234 -0.517980329561804
vn -0.17768815363188134 -0.8375619263681447 -0.5166400483483403
vn -0.004579119166918887 0.9335123722893293 0.35851594448560276
vn -0.0025378184410049433 0.9327857365330433 0.3604224315966865
vn 0.0025378184410049433 -0.9327857365330433 -0.3604224315966865
vn 0.004579119166918887 -0.9335123722893293 -0.35851594448560276
usemtl material_0_0
f 1//1 2//1 3//1
f 2//1 1//1 4//1
f 2//1 4//1 5//1
f 5//1 4//1 6//1
f 5//1 6//1 7//1
f 7//1 6//1 8//1
f 7//1 8//1 9//1
f 9//1 8//1 10//1
f 9//1 10//1 11//1
f 11//1 10//1 12//1
f 11//1 12//1 13//1
f 13//1 12//1 14//1
f 13//1 14//1 15//1
f 15//1 14//1 16//1
f 15//1 16//1 17//1
f 17//1 16//1 18//1
f 17//1 18//1 19//1
f 19//1 18//1 20//1
f 19//1 20//1 21//1
f 21//1 20//1 22//1
f 21//1 22//1 23//1
f 23//1 22//1 24//1
f 25//2 26//2 27//2
f 27//2 26//2 28//2
f 26//2 29//2 28//2
f 28//2 29//2 30//2
f 29//2 31//2 30//2
f 30//2 31//2 32//2
f 31//2 33//2 32//2
f 32//2 33//2 34//2
f 33//2 35//2 34//2
f 34//2 35//2 36//2
f 35//2 37//2 36//2
f 36//2 37//2 38//2
f 37//2 39//2 38//2
f 38//2 39//2 40//2
f 39//2 41//2 40//2
f 40//2 41//2 42//2
f 41//2 43//2 42//2
f 42//2 43//2 44//2
f 43//2 45//2 44//2
f 44//2 45//2 46//2
f 45//2 47//2 46//2
f 48//2 46//2 47//2
f 49//3 50//4 51//5
f 50//4 49//3 52//6
f 53//7 54//8 55//9
f 56//10 55//9 54//8
f 57//11 51//5 58//12
f 51//5 57//11 49//3
f 54//8 59//13 56//10
f 60//14 56//10 59//13
f 61//15 57//11 58//12
f 57//11 61//15 62//16
f 63//17 64//18 59//13
f 60//14 59//13 64//18
f 65//19 62//16 61//15
f 62//16 65//19 66//20
f 67//21 68//22 63//17
f 64//18 63//17 68//22
f 69//23 66//20 65//19
f 66//20 69//23 70//24
f 71//25 72//26 67//21
f 68//22 67//21 72//26
f 73//27 70//24 69//23
f 70//24 73//27 74//28
f 75//29 76//30 71//25
f 72//26 71//25 76//30
f 77//31 74//28 73//27
f 74//28 77//31 78//32
f 79//33 80//34 75//29
f 76//30 75//29 80//34
f 81//35 78//32 77//31
f 78//32 81//35 82//36
f 83//37 84//38 79//33
f 80//34 79//33 84//38
f 85//39 82//36 81//35
f 82//36 85//39 86//40
f 87//41 88//42 83//37
f 84//38 83//37 88//42
f 89//43 86//40 85//39
f 86//40 89//43 90//44
f 91//45 92//46 87//41
f 88//42 87//41 92//46
f 93//47 90//44 89//43
f 90//44 93//47 94//48
f 95//49 96//50 91//45
f 92//46 91//45 96//50
f 97//7 94//48 93//47
f 94//48 97//7 98//9
f 99//4 100//6 95//49
f 96//50 95//49 100//6
f 101//8 98//9 97//7
f 98//9 101//8 102//10
f 103//5 104//3 99//4
f 100//6 99//4 104//3
f 105//13 102//10 101//8
f 102//10 105//13 106//14
f 107//12 108//11 103//5
f 104//3 103//5 108//11
f 109//18 105//13 110//17
f 105//13 109//18 106//14
f 107//12 111//15 108//11
f 112//16 108//11 111//15
f 113//22 110//17 114//21
f 110//17 113//22 109//18
f 111//15 115//19 112//16
f 116//20 112//16 115//19
f 117//26 114//21 118//25
f 114//21 117//26 113//22
f 115//19 119//23 116//20
f 120//24 116//20 119//23
f 121//30 118//25 122//29
f 118//25 121//30 117//26
f 119//23 123//27 120//24
f 124//28 120//24 123//27
f 125//34 122//29 126//33
f 122//29 125//34 121//30
f 123//27 127//31 124//28
f 128//32 124//28 127//31
f 129//38 126//33 130//37
f 126//33 129//38 125//34
f 127//31 131//35 128//32
f 132//36 128//32 131//35
f 133//42 130//37 134//41
f 130//37 133//42 129//38
f 131//35 135//39 132//36
f 136//40 132//36 135//39
f 137//46 134//41 138//45
f 134//41 137//46 133//42
f 135//39 139//43 136//40
f 140//44 136//40 139//43
f 141//50 138//45 142//49
f 138//45 141//50 137//46
f 139//43 143//47 140//44
f 144//48 140//44 143//47
f 52//6 142//49 50//4
f 142//49 52//6 141//50
f 143//47 53//7 144//48
f 55//9 144//48 53//7
