# SSTK version 0.8.0
# 18
mtllib original-18.mtl
o #ID99
v 0.368386 -0.233088 0.327401
v 0.366768 -0.260778 0.330632
v 0.366768 -0.233088 0.330632
v 0.368386 -0.260778 0.327401
v 0.366041 -0.233088 0.334173
v 0.366041 -0.260778 0.334173
v 0.370786 -0.233088 0.324698
v 0.370786 -0.260778 0.324698
v 0.368386 -0.260778 0.327401
v 0.366768 -0.263547 0.330632
v 0.366768 -0.260778 0.330632
v 0.368386 -0.263547 0.327401
v 0.373803 -0.260778 0.322708
v 0.368386 -0.260778 0.327401
v 0.370786 -0.260778 0.324698
v 0.366768 -0.260778 0.330632
v 0.377232 -0.260778 0.321567
v 0.380840 -0.260778 0.321353
v 0.366041 -0.260778 0.334173
v 0.384381 -0.260778 0.322080
v 0.366255 -0.260778 0.337781
v 0.367396 -0.260778 0.341210
v 0.387613 -0.260778 0.323698
v 0.390315 -0.260778 0.326098
v 0.369386 -0.260778 0.344228
v 0.372088 -0.260778 0.346627
v 0.392305 -0.260778 0.329115
v 0.393446 -0.260778 0.332545
v 0.375320 -0.260778 0.348246
v 0.393660 -0.260778 0.336153
v 0.378861 -0.260778 0.348972
v 0.392933 -0.260778 0.339693
v 0.382468 -0.260778 0.348758
v 0.391315 -0.260778 0.342925
v 0.385898 -0.260778 0.347617
v 0.388915 -0.260778 0.345628
v 0.366255 -0.233088 0.337781
v 0.366255 -0.260778 0.337781
v 0.366041 -0.263547 0.334173
v 0.366041 -0.260778 0.334173
v 0.373803 -0.260778 0.322708
v 0.373803 -0.233088 0.322708
v 0.370786 -0.260778 0.324698
v 0.370786 -0.263547 0.324698
v 0.368386 -0.263547 0.327401
v 0.366768 -0.316158 0.330632
v 0.366768 -0.263547 0.330632
v 0.368386 -0.316158 0.327401
v 0.377232 -0.260778 0.321567
v 0.377232 -0.233088 0.321567
v 0.380840 -0.260778 0.321353
v 0.380840 -0.233088 0.321353
v 0.384381 -0.260778 0.322080
v 0.384381 -0.233088 0.322080
v 0.387613 -0.260778 0.323698
v 0.387613 -0.233088 0.323698
v 0.390315 -0.260778 0.326098
v 0.390315 -0.233088 0.326098
v 0.392305 -0.260778 0.329115
v 0.392305 -0.233088 0.329115
v 0.393446 -0.260778 0.332545
v 0.393446 -0.233088 0.332545
v 0.393660 -0.260778 0.336153
v 0.393660 -0.233088 0.336153
v 0.392933 -0.233088 0.339693
v 0.392933 -0.260778 0.339693
v 0.391315 -0.233088 0.342925
v 0.391315 -0.260778 0.342925
v 0.388915 -0.233088 0.345628
v 0.388915 -0.260778 0.345628
v 0.385898 -0.233088 0.347617
v 0.385898 -0.260778 0.347617
v 0.382468 -0.233088 0.348758
v 0.382468 -0.260778 0.348758
v 0.378861 -0.233088 0.348972
v 0.378861 -0.260778 0.348972
v 0.375320 -0.233088 0.348246
v 0.375320 -0.260778 0.348246
v 0.372088 -0.260778 0.346627
v 0.372088 -0.233088 0.346627
v 0.369386 -0.260778 0.344228
v 0.369386 -0.233088 0.344228
v 0.367396 -0.260778 0.341210
v 0.367396 -0.233088 0.341210
v 0.366255 -0.260778 0.337781
v 0.366255 -0.263547 0.337781
v 0.366041 -0.316158 0.334173
v 0.366041 -0.263547 0.334173
v 0.373803 -0.260778 0.322708
v 0.373803 -0.263547 0.322708
v 0.370786 -0.316158 0.324698
v 0.370786 -0.263547 0.324698
v 0.373803 -0.316158 0.322708
v 0.368386 -0.316158 0.327401
v 0.370786 -0.316158 0.324698
v 0.377232 -0.316158 0.321567
v 0.366768 -0.316158 0.330632
v 0.380840 -0.316158 0.321353
v 0.366041 -0.316158 0.334173
v 0.384381 -0.316158 0.322080
v 0.366255 -0.316158 0.337781
v 0.387613 -0.316158 0.323698
v 0.367396 -0.316158 0.341210
v 0.369386 -0.316158 0.344228
v 0.390315 -0.316158 0.326098
v 0.392305 -0.316158 0.329115
v 0.372088 -0.316158 0.346627
v 0.375320 -0.316158 0.348246
v 0.393446 -0.316158 0.332545
v 0.378861 -0.316158 0.348972
v 0.393660 -0.316158 0.336153
v 0.382468 -0.316158 0.348758
v 0.392933 -0.316158 0.339693
v 0.385898 -0.316158 0.347617
v 0.391315 -0.316158 0.342925
v 0.388915 -0.316158 0.345628
v 0.377232 -0.260778 0.321567
v 0.377232 -0.263547 0.321567
v 0.380840 -0.260778 0.321353
v 0.380840 -0.263547 0.321353
v 0.384381 -0.263547 0.322080
v 0.384381 -0.260778 0.322080
v 0.387613 -0.263547 0.323698
v 0.387613 -0.260778 0.323698
v 0.390315 -0.263547 0.326098
v 0.390315 -0.260778 0.326098
v 0.392305 -0.263547 0.329115
v 0.392305 -0.260778 0.329115
v 0.393446 -0.263547 0.332545
v 0.393446 -0.260778 0.332545
v 0.393660 -0.263547 0.336153
v 0.393660 -0.260778 0.336153
v 0.392933 -0.260778 0.339693
v 0.392933 -0.263547 0.339693
v 0.391315 -0.263547 0.342925
v 0.391315 -0.260778 0.342925
v 0.388915 -0.263547 0.345628
v 0.388915 -0.260778 0.345628
v 0.385898 -0.263547 0.347617
v 0.385898 -0.260778 0.347617
v 0.382468 -0.260778 0.348758
v 0.382468 -0.263547 0.348758
v 0.378861 -0.263547 0.348972
v 0.378861 -0.260778 0.348972
v 0.375320 -0.260778 0.348246
v 0.375320 -0.263547 0.348246
v 0.372088 -0.263547 0.346627
v 0.372088 -0.260778 0.346627
v 0.369386 -0.263547 0.344228
v 0.369386 -0.260778 0.344228
v 0.367396 -0.263547 0.341210
v 0.367396 -0.260778 0.341210
v 0.366255 -0.263547 0.337781
v 0.366255 -0.316158 0.337781
v 0.373803 -0.263547 0.322708
v 0.373803 -0.316158 0.322708
v 0.366041 -0.343848 0.334173
v 0.366768 -0.316158 0.330632
v 0.366041 -0.316158 0.334173
v 0.366768 -0.343848 0.330632
v 0.368386 -0.343848 0.327401
v 0.368386 -0.316158 0.327401
v 0.370786 -0.316158 0.324698
v 0.370786 -0.343848 0.324698
v 0.373803 -0.316158 0.322708
v 0.373803 -0.343848 0.322708
v 0.377232 -0.263547 0.321567
v 0.377232 -0.316158 0.321567
v 0.377232 -0.343848 0.321567
v 0.377232 -0.316158 0.321567
v 0.380840 -0.263547 0.321353
v 0.380840 -0.316158 0.321353
v 0.380840 -0.316158 0.321353
v 0.380840 -0.343848 0.321353
v 0.384381 -0.316158 0.322080
v 0.384381 -0.263547 0.322080
v 0.384381 -0.343848 0.322080
v 0.384381 -0.316158 0.322080
v 0.387613 -0.316158 0.323698
v 0.387613 -0.263547 0.323698
v 0.387613 -0.316158 0.323698
v 0.387613 -0.343848 0.323698
v 0.390315 -0.316158 0.326098
v 0.390315 -0.263547 0.326098
v 0.390315 -0.316158 0.326098
v 0.390315 -0.343848 0.326098
v 0.392305 -0.316158 0.329115
v 0.392305 -0.263547 0.329115
v 0.392305 -0.316158 0.329115
v 0.392305 -0.343848 0.329115
v 0.393446 -0.316158 0.332545
v 0.393446 -0.263547 0.332545
v 0.393446 -0.316158 0.332545
v 0.393446 -0.343848 0.332545
v 0.393660 -0.316158 0.336153
v 0.393660 -0.263547 0.336153
v 0.393660 -0.316158 0.336153
v 0.393660 -0.343848 0.336153
v 0.392933 -0.263547 0.339693
v 0.392933 -0.316158 0.339693
v 0.392933 -0.343848 0.339693
v 0.392933 -0.316158 0.339693
v 0.391315 -0.263547 0.342925
v 0.391315 -0.316158 0.342925
v 0.391315 -0.343848 0.342925
v 0.391315 -0.316158 0.342925
v 0.388915 -0.263547 0.345628
v 0.388915 -0.316158 0.345628
v 0.388915 -0.343848 0.345628
v 0.388915 -0.316158 0.345628
v 0.385898 -0.263547 0.347617
v 0.385898 -0.316158 0.347617
v 0.385898 -0.343848 0.347617
v 0.385898 -0.316158 0.347617
v 0.382468 -0.263547 0.348758
v 0.382468 -0.316158 0.348758
v 0.382468 -0.316158 0.348758
v 0.382468 -0.343848 0.348758
v 0.378861 -0.263547 0.348972
v 0.378861 -0.316158 0.348972
v 0.378861 -0.343848 0.348972
v 0.378861 -0.316158 0.348972
v 0.375320 -0.316158 0.348246
v 0.375320 -0.263547 0.348246
v 0.375320 -0.316158 0.348246
v 0.375320 -0.343848 0.348246
v 0.372088 -0.316158 0.346627
v 0.372088 -0.263547 0.346627
v 0.372088 -0.316158 0.346627
v 0.372088 -0.343848 0.346627
v 0.369386 -0.316158 0.344228
v 0.369386 -0.263547 0.344228
v 0.369386 -0.316158 0.344228
v 0.369386 -0.343848 0.344228
v 0.367396 -0.316158 0.341210
v 0.367396 -0.263547 0.341210
v 0.367396 -0.316158 0.341210
v 0.367396 -0.343848 0.341210
v 0.366255 -0.316158 0.337781
v 0.366255 -0.343848 0.337781
vn -0.8280602968819111 0 -0.5606390503058464
vn -0.9449489027783908 0 -0.32721792606444267
vn -0.997440780746303 0 -0.07149747480999095
vn -0.6547407906218505 0 -0.7558534891735791
vn -0.6547407906218518 0 -0.7558534891735783
vn 0 -1 0
vn -0.9819587188321596 0 0.18909541112756736
vn -0.4368017939504264 0 -0.8995577762443552
vn -0.6547407906218538 0 -0.7558534891735763
vn -0.18909541112756736 0 -0.9819587188321596
vn 0.07149747480999095 0 -0.997440780746303
vn 0.32721792606444267 0 -0.9449489027783908
vn 0.5606390503058464 0 -0.8280602968819111
vn 0.7558534891735793 0 -0.6547407906218503
vn 0.8995577762443552 0 -0.4368017939504264
vn 0.9819587188321596 0 -0.18909541112756736
vn 0.997440780746303 0 0.07149747480999095
vn 0.9449489027783908 0 0.32721792606444267
vn 0.8280602968819111 0 0.5606390503058464
vn 0.6547407906218576 0 0.755853489173573
vn 0.6547407906218575 0 0.755853489173573
vn 0.4368017939504264 0 0.8995577762443552
vn 0.18909541112756736 0 0.9819587188321596
vn -0.07149747480999095 0 0.997440780746303
vn -0.32721792606444267 0 0.9449489027783908
vn -0.5606390503058464 0 0.8280602968819111
vn -0.7558534891735701 0 0.654740790621861
vn -0.7558534891735703 0 0.6547407906218606
vn -0.8995577762443552 0 0.4368017939504264
vn -0.6547407906218585 0 -0.7558534891735724
vn -0.6547407906218587 0 -0.755853489173572
vn 0.7558534891735792 0 -0.6547407906218504
vn 0.6547407906218643 0 0.7558534891735672
vn 0.6547407906218586 0 0.7558534891735721
vn -0.7558534891735726 0 0.654740790621858
vn -0.7558534891735751 0 0.6547407906218552
vn 0.65474079062186 0 0.7558534891735709
vn 0.6547407906218594 0 0.7558534891735714
vn 0.7558534891735782 0 -0.6547407906218515
vn 0.7558534891735783 0 -0.6547407906218514
vn -0.7558534891735743 0 0.6547407906218561
vn -0.7558534891735748 0 0.6547407906218555
vn 0.6547407906218567 0 0.7558534891735738
vn 0.6547407906218564 0 0.755853489173574
vn -0.6547407906218518 0 -0.7558534891735781
vn -0.755853489173573 0 0.6547407906218575
vn -0.7558534891735729 0 0.6547407906218577
vn 0.7558534891735732 0 -0.6547407906218573
vn 0.7558534891735728 0 -0.6547407906218579
usemtl material_0_0
f 1//1 2//2 3//2
f 2//2 1//1 4//1
f 5//3 2//2 6//3
f 2//2 5//3 3//2
f 7//4 4//1 1//1
f 4//1 7//4 8//5
f 9//1 10//2 11//2
f 10//2 9//1 12//1
f 13//6 14//6 15//6
f 14//6 13//6 16//6
f 16//6 13//6 17//6
f 16//6 17//6 18//6
f 16//6 18//6 19//6
f 19//6 18//6 20//6
f 19//6 20//6 21//6
f 21//6 20//6 22//6
f 22//6 20//6 23//6
f 22//6 23//6 24//6
f 22//6 24//6 25//6
f 25//6 24//6 26//6
f 26//6 24//6 27//6
f 26//6 27//6 28//6
f 26//6 28//6 29//6
f 29//6 28//6 30//6
f 29//6 30//6 31//6
f 31//6 30//6 32//6
f 31//6 32//6 33//6
f 33//6 32//6 34//6
f 33//6 34//6 35//6
f 35//6 34//6 36//6
f 37//7 6//3 38//7
f 6//3 37//7 5//3
f 11//2 39//3 40//3
f 39//3 11//2 10//2
f 7//4 41//8 8//5
f 41//8 7//4 42//8
f 43//9 12//1 9//1
f 12//1 43//9 44//9
f 45//1 46//2 47//2
f 46//2 45//1 48//1
f 42//8 49//10 41//8
f 49//10 42//8 50//10
f 50//10 51//11 49//10
f 51//11 50//10 52//11
f 52//11 53//12 51//11
f 53//12 52//11 54//12
f 54//12 55//13 53//12
f 55//13 54//12 56//13
f 56//13 57//14 55//13
f 57//14 56//13 58//14
f 58//14 59//15 57//14
f 59//15 58//14 60//15
f 60//15 61//16 59//15
f 61//16 60//15 62//16
f 62//16 63//17 61//16
f 63//17 62//16 64//17
f 63//17 65//18 66//18
f 65//18 63//17 64//17
f 66//18 67//19 68//19
f 67//19 66//18 65//18
f 68//19 69//20 70//21
f 69//20 68//19 67//19
f 70//21 71//22 72//22
f 71//22 70//21 69//20
f 72//22 73//23 74//23
f 73//23 72//22 71//22
f 74//23 75//24 76//24
f 75//24 74//23 73//23
f 76//24 77//25 78//25
f 77//25 76//24 75//24
f 77//25 79//26 78//25
f 79//26 77//25 80//26
f 80//26 81//27 79//26
f 81//27 80//26 82//28
f 82//28 83//29 81//27
f 83//29 82//28 84//29
f 84//29 38//7 83//29
f 38//7 84//29 37//7
f 85//7 39//3 86//7
f 39//3 85//7 40//3
f 47//2 87//3 88//3
f 87//3 47//2 46//2
f 89//8 44//9 43//9
f 44//9 89//8 90//8
f 45//1 91//30 48//1
f 91//30 45//1 92//31
f 93//6 94//6 95//6
f 94//6 93//6 96//6
f 94//6 96//6 97//6
f 97//6 96//6 98//6
f 97//6 98//6 99//6
f 99//6 98//6 100//6
f 99//6 100//6 101//6
f 101//6 100//6 102//6
f 101//6 102//6 103//6
f 103//6 102//6 104//6
f 104//6 102//6 105//6
f 104//6 105//6 106//6
f 104//6 106//6 107//6
f 107//6 106//6 108//6
f 108//6 106//6 109//6
f 108//6 109//6 110//6
f 110//6 109//6 111//6
f 110//6 111//6 112//6
f 112//6 111//6 113//6
f 112//6 113//6 114//6
f 114//6 113//6 115//6
f 114//6 115//6 116//6
f 117//10 90//8 89//8
f 90//8 117//10 118//10
f 119//11 118//10 117//10
f 118//10 119//11 120//11
f 119//11 121//12 120//11
f 121//12 119//11 122//12
f 122//12 123//13 121//12
f 123//13 122//12 124//13
f 124//13 125//32 123//13
f 125//32 124//13 126//32
f 126//32 127//15 125//32
f 127//15 126//32 128//15
f 128//15 129//16 127//15
f 129//16 128//15 130//16
f 130//16 131//17 129//16
f 131//17 130//16 132//17
f 131//17 133//18 134//18
f 133//18 131//17 132//17
f 135//19 133//18 136//19
f 133//18 135//19 134//18
f 137//33 136//19 138//34
f 136//19 137//33 135//19
f 139//22 138//34 140//22
f 138//34 139//22 137//33
f 139//22 141//23 142//23
f 141//23 139//22 140//22
f 143//24 141//23 144//24
f 141//23 143//24 142//23
f 143//24 145//25 146//25
f 145//25 143//24 144//24
f 145//25 147//26 146//25
f 147//26 145//25 148//26
f 148//26 149//35 147//26
f 149//35 148//26 150//36
f 150//36 151//29 149//35
f 151//29 150//36 152//29
f 152//29 86//7 151//29
f 86//7 152//29 85//7
f 153//7 87//3 154//7
f 87//3 153//7 88//3
f 155//8 91//30 92//31
f 91//30 155//8 156//8
f 157//17 158//18 159//17
f 158//18 157//17 160//18
f 161//19 158//18 160//18
f 158//18 161//19 162//19
f 161//19 163//37 162//19
f 163//37 161//19 164//38
f 164//38 165//22 163//37
f 165//22 164//38 166//22
f 167//10 156//8 155//8
f 156//8 167//10 168//10
f 169//23 165//22 166//22
f 165//22 169//23 170//23
f 171//11 168//10 167//10
f 168//10 171//11 172//11
f 169//23 173//24 170//23
f 173//24 169//23 174//24
f 171//11 175//12 172//11
f 175//12 171//11 176//12
f 177//25 173//24 174//24
f 173//24 177//25 178//25
f 176//12 179//13 175//12
f 179//13 176//12 180//13
f 181//26 177//25 182//26
f 177//25 181//26 178//25
f 180//13 183//39 179//13
f 183//39 180//13 184//40
f 185//41 182//26 186//42
f 182//26 185//41 181//26
f 184//40 187//15 183//39
f 187//15 184//40 188//15
f 189//29 186//42 190//29
f 186//42 189//29 185//41
f 188//15 191//16 187//15
f 191//16 188//15 192//16
f 193//7 190//29 194//7
f 190//29 193//7 189//29
f 192//16 195//17 191//16
f 195//17 192//16 196//17
f 197//3 194//7 198//3
f 194//7 197//3 193//7
f 195//17 199//18 200//18
f 199//18 195//17 196//17
f 197//3 201//2 202//2
f 201//2 197//3 198//3
f 200//18 203//19 204//19
f 203//19 200//18 199//18
f 202//2 205//1 206//1
f 205//1 202//2 201//2
f 204//19 207//43 208//44
f 207//43 204//19 203//19
f 206//1 209//45 210//45
f 209//45 206//1 205//1
f 208//44 211//22 212//22
f 211//22 208//44 207//43
f 210//45 213//8 214//8
f 213//8 210//45 209//45
f 212//22 215//23 216//23
f 215//23 212//22 211//22
f 217//10 213//8 218//10
f 213//8 217//10 214//8
f 216//23 219//24 220//24
f 219//24 216//23 215//23
f 217//10 221//11 222//11
f 221//11 217//10 218//10
f 219//24 223//25 220//24
f 223//25 219//24 224//25
f 225//12 221//11 226//12
f 221//11 225//12 222//11
f 224//25 227//26 223//25
f 227//26 224//25 228//26
f 229//13 226//12 230//13
f 226//12 229//13 225//12
f 228//26 231//46 227//26
f 231//46 228//26 232//47
f 233//48 230//13 234//49
f 230//13 233//48 229//13
f 232//47 235//29 231//46
f 235//29 232//47 236//29
f 237//15 234//49 238//15
f 234//49 237//15 233//48
f 236//29 154//7 235//29
f 154//7 236//29 153//7
f 239//16 238//15 240//16
f 238//15 239//16 237//15
f 159//17 240//16 157//17
f 240//16 159//17 239//16
