# SSTK version 0.8.0
# 14
mtllib original-14.mtl
o #ID59
v -0.192796 -0.121950 0.182737
v -0.204607 -0.125878 0.170925
v -0.192796 -0.125878 0.182737
v -0.204607 -0.121950 0.170925
v -0.204607 -0.121950 0.170925
v -0.192796 -0.121950 0.182737
v -0.204607 -0.125878 0.170925
v -0.192796 -0.125878 0.182737
v -0.192796 -0.121950 0.182737
v -0.225883 -0.121950 0.192202
v -0.204607 -0.121950 0.170925
v -0.214072 -0.121950 0.204013
v -0.214072 -0.121950 0.204013
v -0.192796 -0.121950 0.182737
v -0.225883 -0.121950 0.192202
v -0.204607 -0.121950 0.170925
v -0.204607 -0.125878 0.170925
v -0.225883 -0.121950 0.192202
v -0.225883 -0.125878 0.192202
v -0.204607 -0.121950 0.170925
v -0.204607 -0.121950 0.170925
v -0.204607 -0.125878 0.170925
v -0.225883 -0.121950 0.192202
v -0.225883 -0.125878 0.192202
v -0.214072 -0.121950 0.204013
v -0.192796 -0.125878 0.182737
v -0.214072 -0.125878 0.204013
v -0.192796 -0.121950 0.182737
v -0.192796 -0.121950 0.182737
v -0.214072 -0.121950 0.204013
v -0.192796 -0.125878 0.182737
v -0.214072 -0.125878 0.204013
v -0.225883 -0.121950 0.192202
v -0.214072 -0.125878 0.204013
v -0.225883 -0.125878 0.192202
v -0.214072 -0.121950 0.204013
v -0.214072 -0.121950 0.204013
v -0.225883 -0.121950 0.192202
v -0.214072 -0.125878 0.204013
v -0.225883 -0.125878 0.192202
vn -0.7071067811866956 0 0.7071067811863995
vn 0.7071067811866956 0 -0.7071067811863995
vn 0 -1 0
vn 0 1 0
vn 0.7071067811864811 0 0.7071067811866142
vn -0.7071067811864811 0 -0.7071067811866142
vn -0.7071067811864798 0 -0.7071067811866153
vn 0.7071067811864798 0 0.7071067811866153
vn 0.7071067811866891 0 -0.707106781186406
vn -0.7071067811866891 0 0.707106781186406
usemtl material_0_0
f 1//1 2//1 3//1
f 2//1 1//1 4//1
f 5//2 6//2 7//2
f 8//2 7//2 6//2
f 9//3 10//3 11//3
f 10//3 9//3 12//3
f 13//4 14//4 15//4
f 16//4 15//4 14//4
f 17//5 18//5 19//5
f 18//5 17//5 20//5
f 21//6 22//6 23//6
f 24//6 23//6 22//6
f 25//7 26//7 27//7
f 26//7 25//7 28//7
f 29//8 30//8 31//8
f 32//8 31//8 30//8
f 33//9 34//9 35//9
f 34//9 33//9 36//9
f 37//10 38//10 39//10
f 40//10 39//10 38//10
