# SSTK version 0.8.0
# 50
mtllib original-50.mtl
o #ID342
v -0.139016 -0.097628 -0.481980
v -0.140316 -0.097628 -0.458348
v -0.140441 -0.097628 -0.460243
v 0.192495 -0.097628 -0.458348
v -0.134766 -0.097628 -0.503345
v -0.127764 -0.097628 -0.523971
v -0.118130 -0.097628 -0.543508
v -0.106028 -0.097628 -0.561620
v -0.091665 -0.097628 -0.577998
v -0.075288 -0.097628 -0.592360
v -0.057176 -0.097628 -0.604462
v -0.037639 -0.097628 -0.614097
v -0.017012 -0.097628 -0.621099
v 0.004353 -0.097628 -0.625348
v 0.026089 -0.097628 -0.626773
v 0.047826 -0.097628 -0.625348
v 0.069190 -0.097628 -0.621099
v 0.089817 -0.097628 -0.614097
v 0.109354 -0.097628 -0.604462
v 0.127466 -0.097628 -0.592360
v 0.143843 -0.097628 -0.577998
v 0.158206 -0.097628 -0.561620
v 0.170308 -0.097628 -0.543508
v 0.179942 -0.097628 -0.523971
v 0.186944 -0.097628 -0.503345
v 0.191194 -0.097628 -0.481980
v 0.192619 -0.097628 -0.460243
v 0.192619 -0.097628 -0.460243
v 0.191194 -0.097628 -0.481980
v 0.192495 -0.097628 -0.458348
v 0.186944 -0.097628 -0.503345
v 0.179942 -0.097628 -0.523971
v 0.170308 -0.097628 -0.543508
v 0.158206 -0.097628 -0.561620
v 0.143843 -0.097628 -0.577998
v 0.127466 -0.097628 -0.592360
v 0.109354 -0.097628 -0.604462
v 0.089817 -0.097628 -0.614097
v 0.069190 -0.097628 -0.621099
v 0.047826 -0.097628 -0.625348
v 0.026089 -0.097628 -0.626773
v 0.004353 -0.097628 -0.625348
v -0.017012 -0.097628 -0.621099
v -0.037639 -0.097628 -0.614097
v -0.057176 -0.097628 -0.604462
v -0.075288 -0.097628 -0.592360
v -0.091665 -0.097628 -0.577998
v -0.106028 -0.097628 -0.561620
v -0.118130 -0.097628 -0.543508
v -0.127764 -0.097628 -0.523971
v -0.134766 -0.097628 -0.503345
v -0.139016 -0.097628 -0.481980
v -0.140316 -0.097628 -0.458348
v -0.140441 -0.097628 -0.460243
v 0.192495 -0.097628 -0.458348
v -0.139016 -0.097628 -0.438507
v -0.140316 -0.097628 -0.458348
v -0.134766 -0.097628 -0.417143
v -0.127764 -0.097628 -0.396515
v -0.118130 -0.097628 -0.376979
v -0.106028 -0.097628 -0.358866
v -0.091665 -0.097628 -0.342489
v -0.075288 -0.097628 -0.328127
v -0.057176 -0.097628 -0.316024
v -0.037639 -0.097628 -0.306390
v -0.017012 -0.097628 -0.299388
v 0.004353 -0.097628 -0.295138
v 0.026089 -0.097628 -0.293714
v 0.047826 -0.097628 -0.295138
v 0.069190 -0.097628 -0.299388
v 0.089817 -0.097628 -0.306390
v 0.109354 -0.097628 -0.316024
v 0.127466 -0.097628 -0.328127
v 0.143843 -0.097628 -0.342489
v 0.158206 -0.097628 -0.358866
v 0.170308 -0.097628 -0.376979
v 0.179942 -0.097628 -0.396515
v 0.186944 -0.097628 -0.417143
v 0.191194 -0.097628 -0.438507
v 0.191194 -0.097628 -0.438507
v 0.192495 -0.097628 -0.458348
v 0.186944 -0.097628 -0.417143
v 0.179942 -0.097628 -0.396515
v 0.170308 -0.097628 -0.376979
v 0.158206 -0.097628 -0.358866
v 0.143843 -0.097628 -0.342489
v 0.127466 -0.097628 -0.328127
v 0.109354 -0.097628 -0.316024
v 0.089817 -0.097628 -0.306390
v 0.069190 -0.097628 -0.299388
v 0.047826 -0.097628 -0.295138
v 0.026089 -0.097628 -0.293714
v 0.004353 -0.097628 -0.295138
v -0.017012 -0.097628 -0.299388
v -0.037639 -0.097628 -0.306390
v -0.057176 -0.097628 -0.316024
v -0.075288 -0.097628 -0.328127
v -0.091665 -0.097628 -0.342489
v -0.106028 -0.097628 -0.358866
v -0.118130 -0.097628 -0.376979
v -0.127764 -0.097628 -0.396515
v -0.134766 -0.097628 -0.417143
v -0.139016 -0.097628 -0.438507
v -0.140316 -0.097628 -0.458348
v -0.167061 0.608167 -0.458348
v -0.161353 0.496928 -0.435566
v -0.165532 0.608167 -0.435016
v -0.160420 0.472093 -0.435689
v -0.139016 -0.097628 -0.438507
v -0.140316 -0.097628 -0.458348
v -0.140316 -0.097628 -0.458348
v -0.167061 0.608167 -0.458348
v -0.139016 -0.097628 -0.438507
v -0.160420 0.472093 -0.435689
v -0.161353 0.496928 -0.435566
v -0.165532 0.608167 -0.435016
v 0.213531 0.496928 -0.435566
v 0.219239 0.608167 -0.458348
v 0.217710 0.608167 -0.435016
v 0.212598 0.472093 -0.435689
v 0.191194 -0.097628 -0.438507
v 0.192495 -0.097628 -0.458348
v 0.192495 -0.097628 -0.458348
v 0.191194 -0.097628 -0.438507
v 0.219239 0.608167 -0.458348
v 0.212598 0.472093 -0.435689
v 0.213531 0.496928 -0.435566
v 0.217710 0.608167 -0.435016
v 0.208706 0.496928 -0.411311
v 0.215477 0.601245 -0.425129
v 0.212525 0.601245 -0.410288
v 0.207797 0.472093 -0.411555
v 0.186944 -0.097628 -0.417143
v 0.215743 0.608167 -0.425129
v 0.215743 0.608167 -0.425129
v 0.215477 0.601245 -0.425129
v 0.186944 -0.097628 -0.417143
v 0.207797 0.472093 -0.411555
v 0.208706 0.496928 -0.411311
v 0.212525 0.601245 -0.410288
v 0.200757 0.496928 -0.387894
v 0.204409 0.601245 -0.386381
v 0.199888 0.472093 -0.388254
v 0.179942 -0.097628 -0.396515
v 0.179942 -0.097628 -0.396515
v 0.199888 0.472093 -0.388254
v 0.200757 0.496928 -0.387894
v 0.204409 0.601245 -0.386381
v 0.189819 0.496928 -0.365714
v 0.193242 0.601245 -0.363738
v 0.189004 0.472093 -0.366184
v 0.170308 -0.097628 -0.376979
v 0.170308 -0.097628 -0.376979
v 0.189004 0.472093 -0.366184
v 0.189819 0.496928 -0.365714
v 0.193242 0.601245 -0.363738
v 0.176080 0.496928 -0.345151
v 0.179216 0.601245 -0.342745
v 0.175333 0.472093 -0.345725
v 0.158206 -0.097628 -0.358866
v 0.158206 -0.097628 -0.358866
v 0.175333 0.472093 -0.345725
v 0.176080 0.496928 -0.345151
v 0.179216 0.601245 -0.342745
v 0.159774 0.496928 -0.326559
v 0.162569 0.601245 -0.323763
v 0.159109 0.472093 -0.327224
v 0.143843 -0.097628 -0.342489
v 0.143843 -0.097628 -0.342489
v 0.159109 0.472093 -0.327224
v 0.159774 0.496928 -0.326559
v 0.162569 0.601245 -0.323763
v 0.127466 -0.097628 -0.328127
v 0.140608 0.472093 -0.310999
v 0.141181 0.496928 -0.310252
v 0.143587 0.601245 -0.307116
v 0.143587 0.601245 -0.307116
v 0.141181 0.496928 -0.310252
v 0.140608 0.472093 -0.310999
v 0.127466 -0.097628 -0.328127
v 0.109354 -0.097628 -0.316024
v 0.120148 0.472093 -0.297328
v 0.120619 0.496928 -0.296513
v 0.122595 0.601245 -0.293090
v 0.122595 0.601245 -0.293090
v 0.120619 0.496928 -0.296513
v 0.120148 0.472093 -0.297328
v 0.109354 -0.097628 -0.316024
v 0.089817 -0.097628 -0.306390
v 0.098079 0.472093 -0.286445
v 0.098439 0.496928 -0.285575
v 0.099952 0.601245 -0.281923
v 0.099952 0.601245 -0.281923
v 0.098439 0.496928 -0.285575
v 0.098079 0.472093 -0.286445
v 0.089817 -0.097628 -0.306390
v 0.069190 -0.097628 -0.299388
v 0.074778 0.472093 -0.278535
v 0.075021 0.496928 -0.277626
v 0.076044 0.601245 -0.273808
v 0.076044 0.601245 -0.273808
v 0.075021 0.496928 -0.277626
v 0.074778 0.472093 -0.278535
v 0.069190 -0.097628 -0.299388
v 0.047826 -0.097628 -0.295138
v 0.050643 0.472093 -0.273735
v 0.050766 0.496928 -0.272802
v 0.051282 0.601245 -0.268883
v 0.051282 0.601245 -0.268883
v 0.050766 0.496928 -0.272802
v 0.050643 0.472093 -0.273735
v 0.047826 -0.097628 -0.295138
v 0.026089 -0.097628 -0.293714
v 0.026089 0.472093 -0.272125
v 0.026089 0.496928 -0.271184
v 0.026089 0.601245 -0.267231
v 0.026089 0.601245 -0.267231
v 0.026089 0.496928 -0.271184
v 0.026089 0.472093 -0.272125
v 0.026089 -0.097628 -0.293714
v 0.004353 -0.097628 -0.295138
v 0.001412 0.496928 -0.272802
v 0.000896 0.601245 -0.268883
v 0.000896 0.601245 -0.268883
v 0.001412 0.496928 -0.272802
v 0.004353 -0.097628 -0.295138
v -0.017012 -0.097628 -0.299388
v -0.022843 0.496928 -0.277626
v -0.023866 0.601245 -0.273808
v -0.023866 0.601245 -0.273808
v -0.022843 0.496928 -0.277626
v -0.017012 -0.097628 -0.299388
v -0.037639 -0.097628 -0.306390
v -0.046261 0.496928 -0.285575
v -0.047773 0.601245 -0.281923
v -0.047773 0.601245 -0.281923
v -0.046261 0.496928 -0.285575
v -0.037639 -0.097628 -0.306390
v -0.057176 -0.097628 -0.316024
v -0.068441 0.496928 -0.296513
v -0.070417 0.601245 -0.293090
v -0.070417 0.601245 -0.293090
v -0.068441 0.496928 -0.296513
v -0.057176 -0.097628 -0.316024
v -0.075288 -0.097628 -0.328127
v -0.089003 0.496928 -0.310252
v -0.091409 0.601245 -0.307116
v -0.091409 0.601245 -0.307116
v -0.089003 0.496928 -0.310252
v -0.075288 -0.097628 -0.328127
v -0.091665 -0.097628 -0.342489
v -0.107596 0.496928 -0.326559
v -0.110391 0.601245 -0.323763
v -0.110391 0.601245 -0.323763
v -0.107596 0.496928 -0.326559
v -0.091665 -0.097628 -0.342489
v -0.127038 0.601245 -0.342745
v -0.123902 0.496928 -0.345151
v -0.106028 -0.097628 -0.358866
v -0.106028 -0.097628 -0.358866
v -0.123902 0.496928 -0.345151
v -0.127038 0.601245 -0.342745
v -0.141064 0.601245 -0.363738
v -0.136826 0.472093 -0.366184
v -0.118130 -0.097628 -0.376979
v -0.137641 0.496928 -0.365714
v -0.137641 0.496928 -0.365714
v -0.141064 0.601245 -0.363738
v -0.136826 0.472093 -0.366184
v -0.118130 -0.097628 -0.376979
v -0.152231 0.601245 -0.386381
v -0.127764 -0.097628 -0.396515
v -0.148579 0.496928 -0.387894
v -0.147709 0.472093 -0.388254
v -0.147709 0.472093 -0.388254
v -0.148579 0.496928 -0.387894
v -0.127764 -0.097628 -0.396515
v -0.152231 0.601245 -0.386381
v -0.160346 0.601245 -0.410288
v -0.155619 0.472093 -0.411555
v -0.134766 -0.097628 -0.417143
v -0.156528 0.496928 -0.411311
v -0.156528 0.496928 -0.411311
v -0.160346 0.601245 -0.410288
v -0.155619 0.472093 -0.411555
v -0.134766 -0.097628 -0.417143
v -0.163298 0.601245 -0.425129
v -0.163565 0.608167 -0.425129
v -0.163298 0.601245 -0.425129
v -0.163565 0.608167 -0.425129
v -0.399646 0.608167 0.563416
v -0.366427 0.608167 0.530197
v -0.399646 0.608167 -0.458348
v 0.451824 0.608167 0.563416
v -0.366427 0.608167 -0.425129
v 0.418605 0.608167 0.530197
v 0.418605 0.608167 -0.425129
v 0.217710 0.608167 -0.435016
v 0.215743 0.608167 -0.425129
v 0.219239 0.608167 -0.458348
v 0.451824 0.608167 -0.458348
v -0.167061 0.608167 -0.458348
v -0.165532 0.608167 -0.435016
v -0.163565 0.608167 -0.425129
v -0.163565 0.608167 -0.425129
v -0.366427 0.608167 -0.425129
v -0.165532 0.608167 -0.435016
v -0.167061 0.608167 -0.458348
v -0.399646 0.608167 -0.458348
v 0.451824 0.608167 0.563416
v 0.418605 0.608167 -0.425129
v 0.451824 0.608167 -0.458348
v 0.219239 0.608167 -0.458348
v 0.217710 0.608167 -0.435016
v 0.215743 0.608167 -0.425129
v 0.418605 0.608167 0.530197
v -0.366427 0.608167 0.530197
v -0.399646 0.608167 0.563416
vn 0 -1 0
vn 0 1 0
vn -0.9971463437649503 -0.03778501165839165 0.06535642286850618
vn -0.9907338211574969 -0.03786597080864221 0.1304326027854376
vn 0.9971463437649503 0.03778501165839165 -0.06535642286850618
vn 0.9907338211574969 0.03786597080864221 -0.1304326027854376
vn 0.9907338211574969 -0.03786597080864221 0.1304326027854379
vn 0.9971463437649503 -0.03778501165839165 0.06535642286850644
vn -0.9971463437649503 0.03778501165839165 -0.06535642286850644
vn -0.9907338211574969 0.03786597080864221 -0.1304326027854379
vn 0.9652330977726229 -0.03786596991262034 0.2586333994031763
vn 0.9800848948105925 -0.03778500979993389 0.19495099896776283
vn -0.9800848948105925 0.03778500979993389 -0.19495099896776283
vn -0.9652330977726229 0.03786596991262034 -0.2586333994031763
vn 0.923216951967774 -0.03786596802994664 0.38240898010440083
vn -0.923216951967774 0.03786596802994664 -0.38240898010440083
vn 0.8654043161240008 -0.03786597070550959 0.4996414093091963
vn -0.8654043161240008 0.03786597070550959 -0.4996414093091963
vn 0.7927844004509195 -0.03786597002153753 0.6083248003460029
vn -0.7927844004509195 0.03786597002153753 -0.6083248003460029
vn 0.706599663340119 -0.03786596803543387 0.7065996633401194
vn -0.706599663340119 0.03786596803543387 -0.7065996633401194
vn 0.6083248003460026 -0.03786597002153756 0.7927844004509196
vn -0.6083248003460026 0.03786597002153756 -0.7927844004509196
vn 0.49964140930919604 -0.03786597070550966 0.8654043161240008
vn -0.49964140930919604 0.03786597070550966 -0.8654043161240008
vn 0.38240898010440055 -0.03786596802994676 0.923216951967774
vn -0.38240898010440055 0.03786596802994676 -0.923216951967774
vn 0.25863339940317603 -0.0378659699126205 0.9652330977726229
vn -0.25863339940317603 0.0378659699126205 -0.9652330977726229
vn 0.1304326027854376 -0.0378659708086424 0.9907338211574969
vn -0.1304326027854376 0.0378659708086424 -0.9907338211574969
vn 0 -0.037865971021247724 0.9992828269507176
vn 0 0.037865971021247724 -0.9992828269507176
vn -0.1304326027854379 -0.0378659708086424 0.9907338211574969
vn 0.1304326027854379 0.0378659708086424 -0.9907338211574969
vn -0.2586333994031763 -0.0378659699126205 0.9652330977726229
vn 0.2586333994031763 0.0378659699126205 -0.9652330977726229
vn -0.38240898010440083 -0.03786596802994676 0.923216951967774
vn 0.38240898010440083 0.03786596802994676 -0.923216951967774
vn -0.4996414093091963 -0.03786597070550966 0.8654043161240008
vn 0.4996414093091963 0.03786597070550966 -0.8654043161240008
vn -0.6083248003460029 -0.03786597002153757 0.7927844004509195
vn 0.6083248003460029 0.03786597002153757 -0.7927844004509195
vn -0.7065996633401194 -0.03786596803543387 0.706599663340119
vn 0.7065996633401194 0.03786596803543387 -0.706599663340119
vn -0.7927844004509196 -0.03786597002153752 0.6083248003460026
vn 0.7927844004509196 0.03786597002153752 -0.6083248003460026
vn -0.8654043161240008 -0.03786597070550959 0.49964140930919604
vn 0.8654043161240008 0.03786597070550959 -0.49964140930919604
vn -0.923216951967774 -0.03786596802994664 0.38240898010440055
vn 0.923216951967774 0.03786596802994664 -0.38240898010440055
vn -0.9652330977726229 -0.03786596991262034 0.25863339940317603
vn 0.9652330977726229 0.03786596991262034 -0.25863339940317603
vn -0.9800848948105927 -0.0377850097999339 0.1949509989677626
vn 0.9800848948105927 0.0377850097999339 -0.1949509989677626
usemtl material_0_0
f 1//1 2//1 3//1
f 2//1 1//1 4//1
f 4//1 1//1 5//1
f 4//1 5//1 6//1
f 4//1 6//1 7//1
f 4//1 7//1 8//1
f 4//1 8//1 9//1
f 4//1 9//1 10//1
f 4//1 10//1 11//1
f 4//1 11//1 12//1
f 4//1 12//1 13//1
f 4//1 13//1 14//1
f 4//1 14//1 15//1
f 4//1 15//1 16//1
f 4//1 16//1 17//1
f 4//1 17//1 18//1
f 4//1 18//1 19//1
f 4//1 19//1 20//1
f 4//1 20//1 21//1
f 4//1 21//1 22//1
f 4//1 22//1 23//1
f 4//1 23//1 24//1
f 4//1 24//1 25//1
f 4//1 25//1 26//1
f 4//1 26//1 27//1
f 28//2 29//2 30//2
f 29//2 31//2 30//2
f 31//2 32//2 30//2
f 32//2 33//2 30//2
f 33//2 34//2 30//2
f 34//2 35//2 30//2
f 35//2 36//2 30//2
f 36//2 37//2 30//2
f 37//2 38//2 30//2
f 38//2 39//2 30//2
f 39//2 40//2 30//2
f 40//2 41//2 30//2
f 41//2 42//2 30//2
f 42//2 43//2 30//2
f 43//2 44//2 30//2
f 44//2 45//2 30//2
f 45//2 46//2 30//2
f 46//2 47//2 30//2
f 47//2 48//2 30//2
f 48//2 49//2 30//2
f 49//2 50//2 30//2
f 50//2 51//2 30//2
f 51//2 52//2 30//2
f 30//2 52//2 53//2
f 54//2 53//2 52//2
f 55//1 56//1 57//1
f 56//1 55//1 58//1
f 58//1 55//1 59//1
f 59//1 55//1 60//1
f 60//1 55//1 61//1
f 61//1 55//1 62//1
f 62//1 55//1 63//1
f 63//1 55//1 64//1
f 64//1 55//1 65//1
f 65//1 55//1 66//1
f 66//1 55//1 67//1
f 67//1 55//1 68//1
f 68//1 55//1 69//1
f 69//1 55//1 70//1
f 70//1 55//1 71//1
f 71//1 55//1 72//1
f 72//1 55//1 73//1
f 73//1 55//1 74//1
f 74//1 55//1 75//1
f 75//1 55//1 76//1
f 76//1 55//1 77//1
f 77//1 55//1 78//1
f 78//1 55//1 79//1
f 80//2 81//2 82//2
f 82//2 81//2 83//2
f 83//2 81//2 84//2
f 84//2 81//2 85//2
f 85//2 81//2 86//2
f 86//2 81//2 87//2
f 87//2 81//2 88//2
f 88//2 81//2 89//2
f 89//2 81//2 90//2
f 90//2 81//2 91//2
f 91//2 81//2 92//2
f 92//2 81//2 93//2
f 93//2 81//2 94//2
f 94//2 81//2 95//2
f 95//2 81//2 96//2
f 96//2 81//2 97//2
f 97//2 81//2 98//2
f 98//2 81//2 99//2
f 99//2 81//2 100//2
f 100//2 81//2 101//2
f 101//2 81//2 102//2
f 102//2 81//2 103//2
f 104//2 103//2 81//2
f 105//3 106//4 107//4
f 106//4 105//3 108//4
f 108//4 105//3 109//4
f 109//4 105//3 110//3
f 111//5 112//5 113//6
f 113//6 112//5 114//6
f 114//6 112//5 115//6
f 116//6 115//6 112//5
f 117//7 118//8 119//7
f 118//8 117//7 120//7
f 118//8 120//7 121//7
f 118//8 121//7 122//8
f 123//9 124//10 125//9
f 124//10 126//10 125//9
f 126//10 127//10 125//9
f 128//10 125//9 127//10
f 129//11 130//12 131//11
f 130//12 129//11 132//11
f 130//12 132//11 133//11
f 130//12 133//11 121//7
f 130//12 121//7 134//12
f 134//12 121//7 119//7
f 119//7 121//7 120//7
f 119//7 120//7 117//7
f 127//10 126//10 128//10
f 126//10 124//10 128//10
f 128//10 124//10 135//13
f 135//13 124//10 136//13
f 124//10 137//14 136//13
f 137//14 138//14 136//13
f 138//14 139//14 136//13
f 140//14 136//13 139//14
f 141//15 131//11 142//15
f 131//11 141//15 143//15
f 131//11 143//15 144//15
f 131//11 144//15 133//11
f 131//11 133//11 132//11
f 131//11 132//11 129//11
f 139//14 138//14 140//14
f 138//14 137//14 140//14
f 137//14 145//16 140//14
f 145//16 146//16 140//14
f 146//16 147//16 140//14
f 148//16 140//14 147//16
f 149//17 142//15 150//17
f 142//15 149//17 151//17
f 142//15 151//17 152//17
f 142//15 152//17 141//15
f 141//15 152//17 144//15
f 141//15 144//15 143//15
f 146//16 145//16 147//16
f 145//16 153//18 147//16
f 147//16 153//18 148//16
f 153//18 154//18 148//16
f 154//18 155//18 148//16
f 156//18 148//16 155//18
f 157//19 150//17 158//19
f 150//17 157//19 159//19
f 150//17 159//19 160//19
f 150//17 160//19 149//17
f 149//17 160//19 152//17
f 149//17 152//17 151//17
f 154//18 153//18 155//18
f 153//18 161//20 155//18
f 155//18 161//20 156//18
f 161//20 162//20 156//18
f 162//20 163//20 156//18
f 164//20 156//18 163//20
f 165//21 158//19 166//21
f 158//19 165//21 167//21
f 158//19 167//21 168//21
f 158//19 168//21 160//19
f 158//19 160//19 157//19
f 157//19 160//19 159//19
f 162//20 161//20 163//20
f 163//20 161//20 164//20
f 161//20 169//22 164//20
f 169//22 170//22 164//20
f 170//22 171//22 164//20
f 172//22 164//20 171//22
f 167//21 173//23 168//21
f 173//23 167//21 174//23
f 174//23 167//21 165//21
f 174//23 165//21 175//23
f 175//23 165//21 166//21
f 175//23 166//21 176//23
f 177//24 172//22 178//24
f 172//22 171//22 178//24
f 178//24 171//22 179//24
f 171//22 170//22 179//24
f 179//24 170//22 180//24
f 169//22 180//24 170//22
f 174//23 181//25 173//23
f 181//25 174//23 182//25
f 182//25 174//23 175//23
f 182//25 175//23 183//25
f 183//25 175//23 176//23
f 183//25 176//23 184//25
f 185//26 177//24 186//26
f 177//24 178//24 186//26
f 186//26 178//24 187//26
f 178//24 179//24 187//26
f 187//26 179//24 188//26
f 180//24 188//26 179//24
f 182//25 189//27 181//25
f 189//27 182//25 190//27
f 190//27 182//25 183//25
f 190//27 183//25 191//27
f 191//27 183//25 184//25
f 191//27 184//25 192//27
f 193//28 185//26 194//28
f 185//26 186//26 194//28
f 194//28 186//26 195//28
f 186//26 187//26 195//28
f 195//28 187//26 196//28
f 188//26 196//28 187//26
f 190//27 197//29 189//27
f 197//29 190//27 198//29
f 198//29 190//27 191//27
f 198//29 191//27 199//29
f 199//29 191//27 192//27
f 199//29 192//27 200//29
f 201//30 193//28 202//30
f 193//28 194//28 202//30
f 202//30 194//28 203//30
f 194//28 195//28 203//30
f 203//30 195//28 204//30
f 196//28 204//30 195//28
f 198//29 205//31 197//29
f 205//31 198//29 206//31
f 206//31 198//29 199//29
f 206//31 199//29 207//31
f 207//31 199//29 200//29
f 207//31 200//29 208//31
f 209//32 201//30 210//32
f 201//30 202//30 210//32
f 210//32 202//30 211//32
f 202//30 203//30 211//32
f 211//32 203//30 212//32
f 204//30 212//32 203//30
f 206//31 213//33 205//31
f 213//33 206//31 214//33
f 214//33 206//31 207//31
f 214//33 207//31 215//33
f 215//33 207//31 208//31
f 215//33 208//31 216//33
f 217//34 209//32 218//34
f 209//32 210//32 218//34
f 218//34 210//32 219//34
f 210//32 211//32 219//34
f 219//34 211//32 220//34
f 212//32 220//34 211//32
f 214//33 221//35 213//33
f 221//35 214//33 222//35
f 222//35 214//33 215//33
f 222//35 215//33 216//33
f 222//35 216//33 223//35
f 224//36 217//34 225//36
f 217//34 218//34 225//36
f 218//34 219//34 225//36
f 225//36 219//34 226//36
f 220//34 226//36 219//34
f 222//35 227//37 221//35
f 227//37 222//35 228//37
f 228//37 222//35 223//35
f 228//37 223//35 229//37
f 230//38 224//36 231//38
f 224//36 225//36 231//38
f 231//38 225//36 232//38
f 226//36 232//38 225//36
f 228//37 233//39 227//37
f 233//39 228//37 234//39
f 234//39 228//37 229//37
f 234//39 229//37 235//39
f 236//40 230//38 237//40
f 230//38 231//38 237//40
f 237//40 231//38 238//40
f 232//38 238//40 231//38
f 234//39 239//41 233//39
f 239//41 234//39 240//41
f 240//41 234//39 235//39
f 240//41 235//39 241//41
f 242//42 236//40 243//42
f 236//40 237//40 243//42
f 243//42 237//40 244//42
f 238//40 244//42 237//40
f 240//41 245//43 239//41
f 245//43 240//41 246//43
f 246//43 240//41 241//41
f 246//43 241//41 247//43
f 248//44 242//42 249//44
f 242//42 243//42 249//44
f 249//44 243//42 250//44
f 244//42 250//44 243//42
f 246//43 251//45 245//43
f 251//45 246//43 252//45
f 252//45 246//43 247//43
f 252//45 247//43 253//45
f 254//46 248//44 255//46
f 248//44 249//44 255//46
f 255//46 249//44 256//46
f 250//44 256//46 249//44
f 257//47 252//45 253//45
f 252//45 257//47 251//45
f 251//45 257//47 258//47
f 251//45 258//47 259//47
f 260//48 261//48 256//46
f 261//48 262//48 256//46
f 256//46 262//48 255//46
f 254//46 255//46 262//48
f 263//49 258//47 257//47
f 258//47 263//49 259//47
f 259//47 263//49 264//49
f 259//47 264//49 265//49
f 264//49 263//49 266//49
f 267//50 268//50 269//50
f 270//50 269//50 260//48
f 269//50 268//50 260//48
f 260//48 268//50 261//48
f 262//48 261//48 268//50
f 271//51 266//49 263//49
f 266//49 271//51 264//49
f 264//49 271//51 265//49
f 265//49 271//51 272//51
f 272//51 271//51 273//51
f 272//51 273//51 274//51
f 275//52 276//52 277//52
f 276//52 278//52 277//52
f 277//52 278//52 270//50
f 270//50 278//52 269//50
f 269//50 278//52 267//50
f 268//50 267//50 278//52
f 279//53 273//51 271//51
f 273//51 279//53 274//51
f 274//51 279//53 272//51
f 272//51 279//53 280//53
f 272//51 280//53 281//53
f 280//53 279//53 282//53
f 283//54 284//54 285//54
f 286//54 285//54 277//52
f 285//54 284//54 277//52
f 277//52 284//54 275//52
f 275//52 284//54 276//52
f 278//52 276//52 284//54
f 107//4 287//55 288//55
f 287//55 282//53 279//53
f 282//53 287//55 280//53
f 280//53 287//55 281//53
f 281//53 287//55 109//4
f 109//4 287//55 108//4
f 108//4 287//55 107//4
f 108//4 107//4 106//4
f 115//6 116//6 114//6
f 116//6 289//56 114//6
f 114//6 289//56 113//6
f 113//6 289//56 286//54
f 286//54 289//56 285//54
f 285//54 289//56 283//54
f 284//54 283//54 289//56
f 290//56 289//56 116//6
f 291//2 292//2 293//2
f 292//2 291//2 294//2
f 293//2 292//2 295//2
f 292//2 294//2 296//2
f 296//2 294//2 297//2
f 297//2 298//2 299//2
f 298//2 297//2 300//2
f 300//2 297//2 301//2
f 301//2 297//2 294//2
f 295//2 302//2 293//2
f 302//2 295//2 303//2
f 303//2 295//2 304//2
f 305//1 306//1 307//1
f 307//1 306//1 308//1
f 309//1 308//1 306//1
f 310//1 311//1 312//1
f 312//1 311//1 313//1
f 313//1 311//1 314//1
f 315//1 314//1 311//1
f 311//1 310//1 316//1
f 316//1 310//1 317//1
f 306//1 317//1 309//1
f 310//1 318//1 317//1
f 309//1 317//1 318//1
