# SSTK version 0.8.0
# 62
mtllib original-62.mtl
o #ID278
v 0.256466 0.248476 0.480346
v 0.244667 0.248476 0.480346
v 0.250566 0.247699 0.480346
v 0.261963 0.250753 0.480346
v 0.239170 0.250753 0.480346
v 0.266683 0.254375 0.480346
v 0.234450 0.254375 0.480346
v 0.270306 0.259095 0.480346
v 0.230827 0.259095 0.480346
v 0.272583 0.264593 0.480346
v 0.228550 0.264593 0.480346
v 0.273359 0.270492 0.480346
v 0.227774 0.270492 0.480346
v 0.272583 0.276391 0.480346
v 0.228550 0.276391 0.480346
v 0.270306 0.281888 0.480346
v 0.230827 0.281888 0.480346
v 0.266683 0.286609 0.480346
v 0.234450 0.286609 0.480346
v 0.261963 0.290231 0.480346
v 0.239170 0.290231 0.480346
v 0.256466 0.292508 0.480346
v 0.244667 0.292508 0.480346
v 0.250566 0.293285 0.480346
v 0.250566 0.293285 0.480346
v 0.256466 0.292508 0.480346
v 0.244667 0.292508 0.480346
v 0.239170 0.290231 0.480346
v 0.261963 0.290231 0.480346
v 0.234450 0.286609 0.480346
v 0.266683 0.286609 0.480346
v 0.230827 0.281888 0.480346
v 0.270306 0.281888 0.480346
v 0.228550 0.276391 0.480346
v 0.272583 0.276391 0.480346
v 0.227774 0.270492 0.480346
v 0.273359 0.270492 0.480346
v 0.228550 0.264593 0.480346
v 0.272583 0.264593 0.480346
v 0.230827 0.259095 0.480346
v 0.270306 0.259095 0.480346
v 0.234450 0.254375 0.480346
v 0.266683 0.254375 0.480346
v 0.239170 0.250753 0.480346
v 0.261963 0.250753 0.480346
v 0.244667 0.248476 0.480346
v 0.256466 0.248476 0.480346
v 0.250566 0.247699 0.480346
vn 0 0 1
vn 0 0 -1
usemtl material_0_0
f 25//2 26//2 27//2
f 27//2 26//2 28//2
f 26//2 29//2 28//2
f 28//2 29//2 30//2
f 29//2 31//2 30//2
f 30//2 31//2 32//2
f 31//2 33//2 32//2
f 32//2 33//2 34//2
f 33//2 35//2 34//2
f 34//2 35//2 36//2
f 35//2 37//2 36//2
f 36//2 37//2 38//2
f 37//2 39//2 38//2
f 38//2 39//2 40//2
f 39//2 41//2 40//2
f 40//2 41//2 42//2
f 41//2 43//2 42//2
f 42//2 43//2 44//2
f 43//2 45//2 44//2
f 44//2 45//2 46//2
f 45//2 47//2 46//2
f 48//2 46//2 47//2
usemtl material_1_0
f 1//1 2//1 3//1
f 2//1 1//1 4//1
f 2//1 4//1 5//1
f 5//1 4//1 6//1
f 5//1 6//1 7//1
f 7//1 6//1 8//1
f 7//1 8//1 9//1
f 9//1 8//1 10//1
f 9//1 10//1 11//1
f 11//1 10//1 12//1
f 11//1 12//1 13//1
f 13//1 12//1 14//1
f 13//1 14//1 15//1
f 15//1 14//1 16//1
f 15//1 16//1 17//1
f 17//1 16//1 18//1
f 17//1 18//1 19//1
f 19//1 18//1 20//1
f 19//1 20//1 21//1
f 21//1 20//1 22//1
f 21//1 22//1 23//1
f 23//1 22//1 24//1
