# SSTK version 0.8.0
# 109
mtllib original-109.mtl
o #ID594
v -0.277783 0.608483 -0.210346
v -0.281031 0.608483 -0.213264
v -0.281038 0.608483 -0.210346
v -0.277783 0.608483 -0.213264
v -0.293295 0.608483 -0.204046
v -0.293810 0.608483 -0.215547
v -0.293816 0.608483 -0.208003
v -0.293295 0.608483 -0.219458
v -0.290321 0.608483 -0.196865
v -0.290321 0.608483 -0.226639
v -0.285589 0.608483 -0.190699
v -0.285589 0.608483 -0.232805
v -0.279423 0.608483 -0.185967
v -0.281038 0.608483 -0.209627
v -0.280745 0.608483 -0.207408
v -0.279069 0.608483 -0.203361
v -0.272242 0.608483 -0.182993
v -0.276402 0.608483 -0.199885
v -0.272927 0.608483 -0.197219
v -0.268879 0.608483 -0.195542
v -0.264536 0.608483 -0.181978
v -0.264536 0.608483 -0.194970
v -0.256830 0.608483 -0.182993
v -0.260192 0.608483 -0.195542
v -0.256145 0.608483 -0.197219
v -0.249649 0.608483 -0.185967
v -0.252669 0.608483 -0.199885
v -0.250002 0.608483 -0.203361
v -0.248326 0.608483 -0.207408
v -0.243482 0.608483 -0.190699
v -0.247754 0.608483 -0.211752
v -0.281031 0.608483 -0.213923
v -0.279423 0.608483 -0.237537
v -0.280745 0.608483 -0.216095
v -0.279069 0.608483 -0.220143
v -0.272242 0.608483 -0.240511
v -0.276402 0.608483 -0.223618
v -0.272927 0.608483 -0.226285
v -0.268879 0.608483 -0.227962
v -0.264536 0.608483 -0.241526
v -0.264536 0.608483 -0.228533
v -0.260192 0.608483 -0.227962
v -0.256830 0.608483 -0.240511
v -0.256145 0.608483 -0.226285
v -0.249649 0.608483 -0.237537
v -0.252669 0.608483 -0.223618
v -0.250002 0.608483 -0.220143
v -0.248326 0.608483 -0.216095
v -0.243482 0.608483 -0.232805
v -0.238751 0.608483 -0.196865
v -0.238751 0.608483 -0.226639
v -0.235776 0.608483 -0.204046
v -0.235776 0.608483 -0.219458
v -0.234762 0.608483 -0.211752
v -0.234762 0.608483 -0.211752
v -0.235776 0.608483 -0.204046
v -0.235776 0.608483 -0.219458
v -0.238751 0.608483 -0.226639
v -0.238751 0.608483 -0.196865
v -0.243482 0.608483 -0.232805
v -0.243482 0.608483 -0.190699
v -0.247754 0.608483 -0.211752
v -0.248326 0.608483 -0.216095
v -0.249649 0.608483 -0.237537
v -0.250002 0.608483 -0.220143
v -0.252669 0.608483 -0.223618
v -0.256145 0.608483 -0.226285
v -0.256830 0.608483 -0.240511
v -0.260192 0.608483 -0.227962
v -0.264536 0.608483 -0.241526
v -0.264536 0.608483 -0.228533
v -0.268879 0.608483 -0.227962
v -0.272242 0.608483 -0.240511
v -0.272927 0.608483 -0.226285
v -0.276402 0.608483 -0.223618
v -0.279069 0.608483 -0.220143
v -0.279423 0.608483 -0.237537
v -0.280745 0.608483 -0.216095
v -0.281031 0.608483 -0.213923
v -0.281031 0.608483 -0.213264
v -0.281038 0.608483 -0.210346
v -0.281038 0.608483 -0.209627
v -0.285589 0.608483 -0.232805
v -0.248326 0.608483 -0.207408
v -0.249649 0.608483 -0.185967
v -0.250002 0.608483 -0.203361
v -0.252669 0.608483 -0.199885
v -0.256145 0.608483 -0.197219
v -0.256830 0.608483 -0.182993
v -0.260192 0.608483 -0.195542
v -0.264536 0.608483 -0.194970
v -0.264536 0.608483 -0.181978
v -0.268879 0.608483 -0.195542
v -0.272242 0.608483 -0.182993
v -0.272927 0.608483 -0.197219
v -0.276402 0.608483 -0.199885
v -0.279069 0.608483 -0.203361
v -0.279423 0.608483 -0.185967
v -0.280745 0.608483 -0.207408
v -0.285589 0.608483 -0.190699
v -0.290321 0.608483 -0.226639
v -0.290321 0.608483 -0.196865
v -0.293295 0.608483 -0.219458
v -0.293295 0.608483 -0.204046
v -0.293810 0.608483 -0.215547
v -0.293816 0.608483 -0.208003
v -0.277783 0.608483 -0.213264
v -0.277783 0.608483 -0.210346
v -0.249649 0.608483 -0.185967
v -0.256830 0.601245 -0.182993
v -0.249649 0.601245 -0.185967
v -0.256830 0.608483 -0.182993
v -0.256830 0.608483 -0.182993
v -0.249649 0.608483 -0.185967
v -0.256830 0.601245 -0.182993
v -0.249649 0.601245 -0.185967
v -0.243482 0.608483 -0.190699
v -0.243482 0.601245 -0.190699
v -0.243482 0.608483 -0.190699
v -0.243482 0.601245 -0.190699
v -0.238751 0.601245 -0.196865
v -0.238751 0.608483 -0.196865
v -0.238751 0.608483 -0.196865
v -0.238751 0.601245 -0.196865
v -0.235776 0.601245 -0.204046
v -0.235776 0.608483 -0.204046
v -0.235776 0.608483 -0.204046
v -0.235776 0.601245 -0.204046
v -0.234762 0.601245 -0.211752
v -0.234762 0.608483 -0.211752
v -0.234762 0.608483 -0.211752
v -0.234762 0.601245 -0.211752
v -0.235776 0.601245 -0.219458
v -0.235776 0.608483 -0.219458
v -0.235776 0.608483 -0.219458
v -0.235776 0.601245 -0.219458
v -0.238751 0.601245 -0.226639
v -0.238751 0.608483 -0.226639
v -0.238751 0.608483 -0.226639
v -0.238751 0.601245 -0.226639
v -0.243482 0.601245 -0.232805
v -0.243482 0.608483 -0.232805
v -0.243482 0.608483 -0.232805
v -0.243482 0.601245 -0.232805
v -0.249649 0.608483 -0.237537
v -0.249649 0.601245 -0.237537
v -0.249649 0.608483 -0.237537
v -0.249649 0.601245 -0.237537
v -0.256830 0.608483 -0.240511
v -0.256830 0.601245 -0.240511
v -0.256830 0.608483 -0.240511
v -0.256830 0.601245 -0.240511
v -0.264536 0.608483 -0.241526
v -0.264536 0.601245 -0.241526
v -0.264536 0.608483 -0.241526
v -0.264536 0.601245 -0.241526
v -0.272242 0.608483 -0.240511
v -0.272242 0.601245 -0.240511
v -0.272242 0.608483 -0.240511
v -0.272242 0.601245 -0.240511
v -0.279423 0.608483 -0.237537
v -0.279423 0.601245 -0.237537
v -0.279423 0.608483 -0.237537
v -0.279423 0.601245 -0.237537
v -0.285589 0.608483 -0.232805
v -0.285589 0.601245 -0.232805
v -0.285589 0.608483 -0.232805
v -0.285589 0.601245 -0.232805
v -0.290321 0.601245 -0.226639
v -0.290321 0.608483 -0.226639
v -0.290321 0.601245 -0.226639
v -0.290321 0.608483 -0.226639
v -0.293295 0.601245 -0.219458
v -0.293295 0.608483 -0.219458
v -0.293295 0.601245 -0.219458
v -0.293295 0.608483 -0.219458
v -0.293810 0.601245 -0.215547
v -0.293810 0.608483 -0.215547
v -0.293810 0.601245 -0.215547
v -0.293810 0.608483 -0.215547
v -0.293810 0.608483 -0.215547
v -0.293816 0.601245 -0.208003
v -0.293816 0.608483 -0.208003
v -0.293810 0.601245 -0.215547
v -0.293810 0.601245 -0.215547
v -0.293810 0.608483 -0.215547
v -0.293816 0.601245 -0.208003
v -0.293816 0.608483 -0.208003
v -0.293816 0.608483 -0.208003
v -0.293295 0.601245 -0.204046
v -0.293295 0.608483 -0.204046
v -0.293816 0.601245 -0.208003
v -0.293816 0.601245 -0.208003
v -0.293816 0.608483 -0.208003
v -0.293295 0.601245 -0.204046
v -0.293295 0.608483 -0.204046
v -0.290321 0.601245 -0.196865
v -0.290321 0.608483 -0.196865
v -0.290321 0.601245 -0.196865
v -0.290321 0.608483 -0.196865
v -0.285589 0.601245 -0.190699
v -0.285589 0.608483 -0.190699
v -0.285589 0.601245 -0.190699
v -0.285589 0.608483 -0.190699
v -0.279423 0.608483 -0.185967
v -0.279423 0.601245 -0.185967
v -0.279423 0.608483 -0.185967
v -0.279423 0.601245 -0.185967
v -0.272242 0.608483 -0.182993
v -0.272242 0.601245 -0.182993
v -0.272242 0.608483 -0.182993
v -0.272242 0.601245 -0.182993
v -0.264536 0.608483 -0.181978
v -0.264536 0.601245 -0.181978
v -0.264536 0.608483 -0.181978
v -0.264536 0.601245 -0.181978
v -0.285589 0.601245 -0.232805
v -0.281031 0.601245 -0.213923
v -0.281038 0.601245 -0.210346
v -0.279423 0.601245 -0.237537
v -0.280745 0.601245 -0.216095
v -0.279069 0.601245 -0.220143
v -0.272242 0.601245 -0.240511
v -0.276402 0.601245 -0.223618
v -0.272927 0.601245 -0.226285
v -0.268879 0.601245 -0.227962
v -0.264536 0.601245 -0.241526
v -0.264536 0.601245 -0.228533
v -0.260192 0.601245 -0.227962
v -0.256830 0.601245 -0.240511
v -0.256145 0.601245 -0.226285
v -0.249649 0.601245 -0.237537
v -0.252669 0.601245 -0.223618
v -0.250002 0.601245 -0.220143
v -0.248326 0.601245 -0.216095
v -0.243482 0.601245 -0.232805
v -0.247754 0.601245 -0.211752
v -0.293810 0.601245 -0.215547
v -0.293295 0.601245 -0.204046
v -0.293816 0.601245 -0.208003
v -0.293295 0.601245 -0.219458
v -0.290321 0.601245 -0.196865
v -0.290321 0.601245 -0.226639
v -0.285589 0.601245 -0.190699
v -0.279423 0.601245 -0.185967
v -0.281038 0.601245 -0.209627
v -0.280745 0.601245 -0.207408
v -0.279069 0.601245 -0.203361
v -0.272242 0.601245 -0.182993
v -0.276402 0.601245 -0.199885
v -0.272927 0.601245 -0.197219
v -0.268879 0.601245 -0.195542
v -0.264536 0.601245 -0.181978
v -0.264536 0.601245 -0.194970
v -0.260192 0.601245 -0.195542
v -0.256830 0.601245 -0.182993
v -0.256145 0.601245 -0.197219
v -0.249649 0.601245 -0.185967
v -0.252669 0.601245 -0.199885
v -0.250002 0.601245 -0.203361
v -0.248326 0.601245 -0.207408
v -0.243482 0.601245 -0.190699
v -0.238751 0.601245 -0.226639
v -0.238751 0.601245 -0.196865
v -0.235776 0.601245 -0.219458
v -0.235776 0.601245 -0.204046
v -0.234762 0.601245 -0.211752
v -0.281031 0.601245 -0.213264
v -0.277783 0.601245 -0.210346
v -0.277783 0.601245 -0.213264
v -0.277783 0.601245 -0.213264
v -0.281031 0.601245 -0.213264
v -0.277783 0.601245 -0.210346
v -0.281031 0.601245 -0.213923
v -0.281038 0.601245 -0.210346
v -0.234762 0.601245 -0.211752
v -0.235776 0.601245 -0.219458
v -0.235776 0.601245 -0.204046
v -0.238751 0.601245 -0.196865
v -0.238751 0.601245 -0.226639
v -0.243482 0.601245 -0.190699
v -0.243482 0.601245 -0.232805
v -0.247754 0.601245 -0.211752
v -0.248326 0.601245 -0.207408
v -0.249649 0.601245 -0.185967
v -0.250002 0.601245 -0.203361
v -0.252669 0.601245 -0.199885
v -0.256145 0.601245 -0.197219
v -0.256830 0.601245 -0.182993
v -0.260192 0.601245 -0.195542
v -0.264536 0.601245 -0.181978
v -0.264536 0.601245 -0.194970
v -0.268879 0.601245 -0.195542
v -0.272242 0.601245 -0.182993
v -0.272927 0.601245 -0.197219
v -0.276402 0.601245 -0.199885
v -0.279069 0.601245 -0.203361
v -0.279423 0.601245 -0.185967
v -0.280745 0.601245 -0.207408
v -0.281038 0.601245 -0.209627
v -0.285589 0.601245 -0.232805
v -0.285589 0.601245 -0.190699
v -0.290321 0.601245 -0.226639
v -0.290321 0.601245 -0.196865
v -0.293295 0.601245 -0.219458
v -0.293295 0.601245 -0.204046
v -0.293810 0.601245 -0.215547
v -0.293816 0.601245 -0.208003
v -0.248326 0.601245 -0.216095
v -0.249649 0.601245 -0.237537
v -0.250002 0.601245 -0.220143
v -0.252669 0.601245 -0.223618
v -0.256145 0.601245 -0.226285
v -0.256830 0.601245 -0.240511
v -0.260192 0.601245 -0.227962
v -0.264536 0.601245 -0.241526
v -0.264536 0.601245 -0.228533
v -0.268879 0.601245 -0.227962
v -0.272242 0.601245 -0.240511
v -0.272927 0.601245 -0.226285
v -0.276402 0.601245 -0.223618
v -0.279069 0.601245 -0.220143
v -0.279423 0.601245 -0.237537
v -0.280745 0.601245 -0.216095
vn 0 1 0
vn 0 -1 0
vn 0.5000000016387101 0 0.866025402838329
vn 0.25881900959356163 0 0.9659258358036645
vn -0.25881900959356163 0 -0.9659258358036645
vn -0.5000000016387101 0 -0.866025402838329
vn 0.7071067811865476 0 0.7071067811865476
vn -0.7071067811865476 0 -0.7071067811865476
vn 0.866025402838329 0 0.5000000016387101
vn -0.866025402838329 0 -0.5000000016387101
vn 0.9659258358036645 0 0.2588190095935616
vn -0.9659258358036645 0 -0.2588190095935616
vn 1 0 0
vn -1 0 0
vn 0.9659258358036645 0 -0.25881900959356163
vn -0.9659258358036645 0 0.25881900959356163
vn 0.866025402838329 0 -0.5000000016387101
vn -0.866025402838329 0 0.5000000016387101
vn 0.7071067811865476 0 -0.7071067811865476
vn -0.7071067811865476 0 0.7071067811865476
vn 0.5000000016387101 0 -0.866025402838329
vn -0.5000000016387101 0 0.866025402838329
vn 0.2588190095935616 0 -0.9659258358036645
vn -0.2588190095935616 0 0.9659258358036645
vn 0 0 -1
vn 0 0 1
vn -0.9914448610250888 0 -0.13052619486885547
vn 0.9914448610250888 0 0.13052619486885547
vn -0.9999996685678051 0 -0.0008141647744089772
vn 0.9999996685678051 0 0.0008141647744089772
vn -0.9914448610250888 0 0.13052619486885553
vn 0.9914448610250888 0 -0.13052619486885553
usemtl material_0_0
f 1//1 2//1 3//1
f 2//1 1//1 4//1
f 5//1 6//1 7//1
f 6//1 5//1 8//1
f 8//1 5//1 9//1
f 8//1 9//1 10//1
f 10//1 9//1 11//1
f 10//1 11//1 12//1
f 12//1 11//1 13//1
f 12//1 13//1 14//1
f 14//1 13//1 15//1
f 15//1 13//1 16//1
f 16//1 13//1 17//1
f 16//1 17//1 18//1
f 18//1 17//1 19//1
f 19//1 17//1 20//1
f 20//1 17//1 21//1
f 20//1 21//1 22//1
f 22//1 21//1 23//1
f 22//1 23//1 24//1
f 24//1 23//1 25//1
f 25//1 23//1 26//1
f 25//1 26//1 27//1
f 27//1 26//1 28//1
f 28//1 26//1 29//1
f 29//1 26//1 30//1
f 29//1 30//1 31//1
f 12//1 32//1 33//1
f 32//1 12//1 3//1
f 3//1 12//1 14//1
f 32//1 3//1 2//1
f 33//1 32//1 34//1
f 33//1 34//1 35//1
f 33//1 35//1 36//1
f 36//1 35//1 37//1
f 36//1 37//1 38//1
f 36//1 38//1 39//1
f 36//1 39//1 40//1
f 40//1 39//1 41//1
f 40//1 41//1 42//1
f 40//1 42//1 43//1
f 43//1 42//1 44//1
f 43//1 44//1 45//1
f 45//1 44//1 46//1
f 45//1 46//1 47//1
f 45//1 47//1 48//1
f 45//1 48//1 49//1
f 49//1 48//1 31//1
f 49//1 31//1 30//1
f 49//1 30//1 50//1
f 49//1 50//1 51//1
f 51//1 50//1 52//1
f 51//1 52//1 53//1
f 53//1 52//1 54//1
f 55//2 56//2 57//2
f 57//2 56//2 58//2
f 56//2 59//2 58//2
f 58//2 59//2 60//2
f 59//2 61//2 60//2
f 61//2 62//2 60//2
f 62//2 63//2 60//2
f 60//2 63//2 64//2
f 63//2 65//2 64//2
f 65//2 66//2 64//2
f 66//2 67//2 64//2
f 64//2 67//2 68//2
f 67//2 69//2 68//2
f 68//2 69//2 70//2
f 69//2 71//2 70//2
f 71//2 72//2 70//2
f 70//2 72//2 73//2
f 72//2 74//2 73//2
f 74//2 75//2 73//2
f 75//2 76//2 73//2
f 73//2 76//2 77//2
f 76//2 78//2 77//2
f 78//2 79//2 77//2
f 80//2 81//2 79//2
f 82//2 83//2 81//2
f 81//2 83//2 79//2
f 77//2 79//2 83//2
f 62//2 61//2 84//2
f 61//2 85//2 84//2
f 84//2 85//2 86//2
f 86//2 85//2 87//2
f 87//2 85//2 88//2
f 85//2 89//2 88//2
f 88//2 89//2 90//2
f 90//2 89//2 91//2
f 89//2 92//2 91//2
f 91//2 92//2 93//2
f 92//2 94//2 93//2
f 93//2 94//2 95//2
f 95//2 94//2 96//2
f 96//2 94//2 97//2
f 94//2 98//2 97//2
f 97//2 98//2 99//2
f 99//2 98//2 82//2
f 82//2 98//2 83//2
f 98//2 100//2 83//2
f 83//2 100//2 101//2
f 100//2 102//2 101//2
f 101//2 102//2 103//2
f 102//2 104//2 103//2
f 103//2 104//2 105//2
f 106//2 105//2 104//2
f 107//2 108//2 80//2
f 81//2 80//2 108//2
f 109//3 110//4 111//3
f 110//4 109//3 112//4
f 113//5 114//6 115//5
f 116//6 115//5 114//6
f 117//7 111//3 118//7
f 111//3 117//7 109//3
f 114//6 119//8 116//6
f 120//8 116//6 119//8
f 121//9 117//7 118//7
f 117//7 121//9 122//9
f 123//10 124//10 119//8
f 120//8 119//8 124//10
f 125//11 122//9 121//9
f 122//9 125//11 126//11
f 127//12 128//12 123//10
f 124//10 123//10 128//12
f 129//13 126//11 125//11
f 126//11 129//13 130//13
f 131//14 132//14 127//12
f 128//12 127//12 132//14
f 133//15 130//13 129//13
f 130//13 133//15 134//15
f 135//16 136//16 131//14
f 132//14 131//14 136//16
f 137//17 134//15 133//15
f 134//15 137//17 138//17
f 139//18 140//18 135//16
f 136//16 135//16 140//18
f 141//19 138//17 137//17
f 138//17 141//19 142//19
f 143//20 144//20 139//18
f 140//18 139//18 144//20
f 145//21 141//19 146//21
f 141//19 145//21 142//19
f 143//20 147//22 144//20
f 148//22 144//20 147//22
f 149//23 146//21 150//23
f 146//21 149//23 145//21
f 147//22 151//24 148//22
f 152//24 148//22 151//24
f 153//25 150//23 154//25
f 150//23 153//25 149//23
f 151//24 155//26 152//24
f 156//26 152//24 155//26
f 157//5 154//25 158//5
f 154//25 157//5 153//25
f 155//26 159//4 156//26
f 160//4 156//26 159//4
f 161//6 158//5 162//6
f 158//5 161//6 157//5
f 159//4 163//3 160//4
f 164//3 160//4 163//3
f 165//8 162//6 166//8
f 162//6 165//8 161//6
f 163//3 167//7 164//3
f 168//7 164//3 167//7
f 165//8 169//10 170//10
f 169//10 165//8 166//8
f 168//7 167//7 171//9
f 172//9 171//9 167//7
f 170//10 173//12 174//12
f 173//12 170//10 169//10
f 171//9 172//9 175//11
f 176//11 175//11 172//9
f 174//12 177//27 178//27
f 177//27 174//12 173//12
f 175//11 176//11 179//28
f 180//28 179//28 176//11
f 181//29 182//29 183//29
f 182//29 181//29 184//29
f 185//30 186//30 187//30
f 188//30 187//30 186//30
f 189//31 190//16 191//16
f 190//16 189//31 192//31
f 193//32 194//32 195//15
f 196//15 195//15 194//32
f 191//16 197//18 198//18
f 197//18 191//16 190//16
f 195//15 196//15 199//17
f 200//17 199//17 196//15
f 198//18 201//20 202//20
f 201//20 198//18 197//18
f 199//17 200//17 203//19
f 204//19 203//19 200//17
f 205//22 201//20 206//22
f 201//20 205//22 202//20
f 204//19 207//21 203//19
f 208//21 203//19 207//21
f 209//24 206//22 210//24
f 206//22 209//24 205//22
f 207//21 211//23 208//21
f 212//23 208//21 211//23
f 213//26 210//24 214//26
f 210//24 213//26 209//24
f 211//23 215//25 212//23
f 216//25 212//23 215//25
f 112//4 214//26 110//4
f 214//26 112//4 213//26
f 215//25 113//5 216//25
f 115//5 216//25 113//5
f 217//2 218//2 219//2
f 218//2 217//2 220//2
f 218//2 220//2 221//2
f 221//2 220//2 222//2
f 222//2 220//2 223//2
f 222//2 223//2 224//2
f 224//2 223//2 225//2
f 225//2 223//2 226//2
f 226//2 223//2 227//2
f 226//2 227//2 228//2
f 228//2 227//2 229//2
f 229//2 227//2 230//2
f 229//2 230//2 231//2
f 231//2 230//2 232//2
f 231//2 232//2 233//2
f 233//2 232//2 234//2
f 234//2 232//2 235//2
f 235//2 232//2 236//2
f 235//2 236//2 237//2
f 238//2 239//2 240//2
f 239//2 238//2 241//2
f 239//2 241//2 242//2
f 242//2 241//2 243//2
f 242//2 243//2 244//2
f 244//2 243//2 217//2
f 244//2 217//2 245//2
f 245//2 217//2 246//2
f 246//2 217//2 219//2
f 245//2 246//2 247//2
f 245//2 247//2 248//2
f 245//2 248//2 249//2
f 249//2 248//2 250//2
f 249//2 250//2 251//2
f 249//2 251//2 252//2
f 249//2 252//2 253//2
f 253//2 252//2 254//2
f 253//2 254//2 255//2
f 253//2 255//2 256//2
f 256//2 255//2 257//2
f 256//2 257//2 258//2
f 258//2 257//2 259//2
f 258//2 259//2 260//2
f 258//2 260//2 261//2
f 258//2 261//2 262//2
f 262//2 261//2 237//2
f 262//2 237//2 236//2
f 262//2 236//2 263//2
f 262//2 263//2 264//2
f 264//2 263//2 265//2
f 264//2 265//2 266//2
f 266//2 265//2 267//2
f 219//2 268//2 269//2
f 268//2 219//2 218//2
f 269//2 268//2 270//2
f 271//1 272//1 273//1
f 274//1 275//1 272//1
f 273//1 272//1 275//1
f 276//1 277//1 278//1
f 278//1 277//1 279//1
f 277//1 280//1 279//1
f 279//1 280//1 281//1
f 280//1 282//1 281//1
f 282//1 283//1 281//1
f 283//1 284//1 281//1
f 281//1 284//1 285//1
f 284//1 286//1 285//1
f 286//1 287//1 285//1
f 287//1 288//1 285//1
f 285//1 288//1 289//1
f 288//1 290//1 289//1
f 289//1 290//1 291//1
f 290//1 292//1 291//1
f 292//1 293//1 291//1
f 291//1 293//1 294//1
f 293//1 295//1 294//1
f 295//1 296//1 294//1
f 296//1 297//1 294//1
f 294//1 297//1 298//1
f 297//1 299//1 298//1
f 299//1 300//1 298//1
f 275//1 301//1 300//1
f 300//1 301//1 298//1
f 298//1 301//1 302//1
f 301//1 303//1 302//1
f 302//1 303//1 304//1
f 303//1 305//1 304//1
f 304//1 305//1 306//1
f 305//1 307//1 306//1
f 308//1 306//1 307//1
f 283//1 282//1 309//1
f 282//1 310//1 309//1
f 309//1 310//1 311//1
f 311//1 310//1 312//1
f 312//1 310//1 313//1
f 310//1 314//1 313//1
f 313//1 314//1 315//1
f 314//1 316//1 315//1
f 315//1 316//1 317//1
f 317//1 316//1 318//1
f 316//1 319//1 318//1
f 318//1 319//1 320//1
f 320//1 319//1 321//1
f 321//1 319//1 322//1
f 319//1 323//1 322//1
f 322//1 323//1 324//1
f 324//1 323//1 274//1
f 323//1 301//1 274//1
f 275//1 274//1 301//1
