# SSTK version 0.8.0
# 91
mtllib original-91.mtl
o #ID514
v 0.259620 0.272701 0.693374
v 0.260207 0.271284 0.696241
v 0.259620 0.272701 0.696241
v 0.260207 0.271284 0.693374
v 0.260207 0.271284 0.693374
v 0.259620 0.272701 0.693374
v 0.260207 0.271284 0.696241
v 0.259620 0.272701 0.696241
v 0.260573 0.269619 0.696241
v 0.260573 0.269619 0.693374
v 0.260573 0.269619 0.693374
v 0.260573 0.269619 0.696241
v 0.258834 0.273853 0.693374
v 0.258834 0.273853 0.696241
v 0.258834 0.273853 0.693374
v 0.258834 0.273853 0.696241
v 0.260695 0.267722 0.696241
v 0.260695 0.267722 0.693374
v 0.260695 0.267722 0.693374
v 0.260695 0.267722 0.696241
v 0.257840 0.274769 0.696241
v 0.257840 0.274769 0.693374
v 0.257840 0.274769 0.696241
v 0.257840 0.274769 0.693374
v 0.260578 0.265848 0.696241
v 0.260578 0.265848 0.693374
v 0.260578 0.265848 0.693374
v 0.260578 0.265848 0.696241
v 0.256660 0.275423 0.696241
v 0.256660 0.275423 0.693374
v 0.256660 0.275423 0.696241
v 0.256660 0.275423 0.693374
v 0.260228 0.264207 0.696241
v 0.260228 0.264207 0.693374
v 0.260228 0.264207 0.693374
v 0.260228 0.264207 0.696241
v 0.255308 0.275816 0.696241
v 0.255308 0.275816 0.693374
v 0.255308 0.275816 0.696241
v 0.255308 0.275816 0.693374
v 0.259644 0.262799 0.696241
v 0.259644 0.262799 0.693374
v 0.259644 0.262799 0.693374
v 0.259644 0.262799 0.696241
v 0.253799 0.275946 0.696241
v 0.253799 0.275946 0.693374
v 0.253799 0.275946 0.696241
v 0.253799 0.275946 0.693374
v 0.258826 0.261626 0.696241
v 0.258826 0.261626 0.693374
v 0.258826 0.261626 0.693374
v 0.258826 0.261626 0.696241
v 0.252256 0.275819 0.696241
v 0.252256 0.275819 0.693374
v 0.252256 0.275819 0.696241
v 0.252256 0.275819 0.693374
v 0.257811 0.260701 0.693374
v 0.257811 0.260701 0.696241
v 0.257811 0.260701 0.693374
v 0.257811 0.260701 0.696241
v 0.250923 0.275437 0.696241
v 0.250923 0.275437 0.693374
v 0.250923 0.275437 0.696241
v 0.250923 0.275437 0.693374
v 0.256635 0.260040 0.693374
v 0.256635 0.260040 0.696241
v 0.256635 0.260040 0.693374
v 0.256635 0.260040 0.696241
v 0.249766 0.274786 0.696241
v 0.249766 0.274786 0.693374
v 0.249766 0.274786 0.696241
v 0.249766 0.274786 0.693374
v 0.255298 0.259644 0.693374
v 0.255298 0.259644 0.696241
v 0.255298 0.259644 0.693374
v 0.255298 0.259644 0.696241
v 0.248749 0.273853 0.696241
v 0.248749 0.273853 0.693374
v 0.248749 0.273853 0.696241
v 0.248749 0.273853 0.693374
v 0.253799 0.259512 0.693374
v 0.253799 0.259512 0.696241
v 0.253799 0.259512 0.693374
v 0.253799 0.259512 0.696241
v 0.247954 0.272687 0.693374
v 0.247954 0.272687 0.696241
v 0.247954 0.272687 0.693374
v 0.247954 0.272687 0.696241
v 0.252300 0.259644 0.693374
v 0.252300 0.259644 0.696241
v 0.252300 0.259644 0.693374
v 0.252300 0.259644 0.696241
v 0.247368 0.271257 0.693374
v 0.247368 0.271257 0.696241
v 0.247368 0.271257 0.693374
v 0.247368 0.271257 0.696241
v 0.250961 0.260040 0.693374
v 0.250961 0.260040 0.696241
v 0.250961 0.260040 0.693374
v 0.250961 0.260040 0.696241
v 0.247008 0.269591 0.693374
v 0.247008 0.269591 0.696241
v 0.247008 0.269591 0.693374
v 0.247008 0.269591 0.696241
v 0.249783 0.260701 0.693374
v 0.249783 0.260701 0.696241
v 0.249783 0.260701 0.693374
v 0.249783 0.260701 0.696241
v 0.246888 0.267722 0.693374
v 0.246888 0.267722 0.696241
v 0.246888 0.267722 0.693374
v 0.246888 0.267722 0.696241
v 0.248764 0.261626 0.693374
v 0.248764 0.261626 0.696241
v 0.248764 0.261626 0.693374
v 0.248764 0.261626 0.696241
v 0.247005 0.265848 0.693374
v 0.247005 0.265848 0.696241
v 0.247005 0.265848 0.693374
v 0.247005 0.265848 0.696241
v 0.247943 0.262799 0.696241
v 0.247943 0.262799 0.693374
v 0.247943 0.262799 0.693374
v 0.247943 0.262799 0.696241
v 0.247357 0.264207 0.693374
v 0.247357 0.264207 0.696241
v 0.247357 0.264207 0.693374
v 0.247357 0.264207 0.696241
vn -0.8796174240865643 -0.47568181302559526 0
vn -0.9539414025360722 -0.2999930007975374 0
vn -0.9901659633533196 -0.1398976948222962 0
vn -0.7568526020230215 -0.6535856017469951 0
vn -0.9999994769747418 -0.0010227659764505369 0
vn -0.5854070971927798 -0.8107394961122365 0
vn -0.9907247127919503 0.13588430175449873 0
vn -0.38415078681271836 -0.923270368305606 0
vn -0.9547815952145536 0.2973080985098666 0
vn -0.18347960319544313 -0.9830235171201361 0
vn -0.8771446225773301 0.48022631236082125 0
vn -0.0020515559908844943 -0.9999978955567937 0
vn -0.7516892982571144 0.6595173984708265 0
vn 0.17987580518400909 -0.9836893283498628 0
vn -0.5853505942084095 0.8107802919779573 0
vn 0.3854837161866832 -0.9227146387453191 0
vn -0.38934260490109146 0.9210930115948295 0
vn 0.5869983305636831 -0.809588142153434 0
vn -0.18692170284065568 0.9823748149291845 0
vn 0.7560869181532502 -0.6544712157135106 0
vn -0.000013912959998653429 1 0
vn 0.8806503525318905 -0.47376677446340293 0
vn 0.18676509993657736 0.9824045996663902 0
vn 0.9551020607675553 -0.29627698782991785 0
vn 0.38881060252617056 0.9213177059859624 0
vn 0.9903998333748261 -0.1382323046581986 0
vn 0.5843374729969216 0.811510762498916 0
vn 0.9999996351576765 -0.0008542157300322513 0
vn 0.7505188924729673 0.6608489933722761 0
vn 0.9906507320964651 0.1364226044200072 0
vn 0.8763376112431838 0.48169740618005247 0
vn 0.9544424046286639 0.2983952014470974 0
vn 0.9539414025360722 0.2999930007975374 0
vn 0.8796174240865643 0.47568181302559526 0
vn 0.9901659633533196 0.1398976948222962 0
vn 0.7568526020230215 0.6535856017469951 0
vn 0.9999994769747418 0.0010227659764505369 0
vn 0.5854070971927798 0.8107394961122365 0
vn 0.9907247127919503 -0.13588430175449873 0
vn 0.38415078681271836 0.923270368305606 0
vn 0.9547815952145536 -0.2973080985098666 0
vn 0.18347960319544313 0.9830235171201361 0
vn 0.8771446225773301 -0.48022631236082125 0
vn 0.0020515559908844943 0.9999978955567937 0
vn 0.7516892982571144 -0.6595173984708265 0
vn -0.17987580518400909 0.9836893283498628 0
vn 0.5853505942084095 -0.8107802919779573 0
vn -0.3854837161866832 0.9227146387453191 0
vn 0.38934260490109146 -0.9210930115948295 0
vn -0.5869983305636831 0.809588142153434 0
vn 0.18692170284065568 -0.9823748149291845 0
vn -0.7560869181532502 0.6544712157135106 0
vn 0.000013912959998653429 -1 0
vn -0.8806503525318905 0.47376677446340293 0
vn -0.18676509993657736 -0.9824045996663902 0
vn -0.9551020607675553 0.29627698782991785 0
vn -0.38881060252617056 -0.9213177059859624 0
vn -0.9903998333748261 0.1382323046581986 0
vn -0.5843374729969216 -0.811510762498916 0
vn -0.9999996351576765 0.0008542157300322513 0
vn -0.7505188924729673 -0.6608489933722761 0
vn -0.9906507320964651 -0.1364226044200072 0
vn -0.8763376112431838 -0.48169740618005247 0
vn -0.9544424046286639 -0.2983952014470974 0
usemtl material_0_0
f 5//33 6//34 7//33
f 8//34 7//33 6//34
f 11//35 5//33 12//35
f 7//33 12//35 5//33
f 6//34 15//36 8//34
f 16//36 8//34 15//36
f 19//37 11//35 20//37
f 12//35 20//37 11//35
f 16//36 15//36 23//38
f 24//38 23//38 15//36
f 27//39 19//37 28//39
f 20//37 28//39 19//37
f 23//38 24//38 31//40
f 32//40 31//40 24//38
f 35//41 27//39 36//41
f 28//39 36//41 27//39
f 31//40 32//40 39//42
f 40//42 39//42 32//40
f 43//43 35//41 44//43
f 36//41 44//43 35//41
f 39//42 40//42 47//44
f 48//44 47//44 40//42
f 51//45 43//43 52//45
f 44//43 52//45 43//43
f 47//44 48//44 55//46
f 56//46 55//46 48//44
f 51//45 52//45 59//47
f 60//47 59//47 52//45
f 55//46 56//46 63//48
f 64//48 63//48 56//46
f 59//47 60//47 67//49
f 68//49 67//49 60//47
f 63//48 64//48 71//50
f 72//50 71//50 64//48
f 67//49 68//49 75//51
f 76//51 75//51 68//49
f 71//50 72//50 79//52
f 80//52 79//52 72//50
f 75//51 76//51 83//53
f 84//53 83//53 76//51
f 80//52 87//54 79//52
f 88//54 79//52 87//54
f 83//53 84//53 91//55
f 92//55 91//55 84//53
f 87//54 95//56 88//54
f 96//56 88//54 95//56
f 91//55 92//55 99//57
f 100//57 99//57 92//55
f 95//56 103//58 96//56
f 104//58 96//56 103//58
f 99//57 100//57 107//59
f 108//59 107//59 100//57
f 103//58 111//60 104//58
f 112//60 104//58 111//60
f 107//59 108//59 115//61
f 116//61 115//61 108//59
f 111//60 119//62 112//60
f 120//62 112//60 119//62
f 123//63 115//61 124//63
f 116//61 124//63 115//61
f 119//62 127//64 120//62
f 128//64 120//62 127//64
f 127//64 123//63 128//64
f 124//63 128//64 123//63
usemtl material_1_0
f 1//1 2//2 3//1
f 2//2 1//1 4//2
f 4//2 9//3 2//2
f 9//3 4//2 10//3
f 13//4 3//1 14//4
f 3//1 13//4 1//1
f 10//3 17//5 9//3
f 17//5 10//3 18//5
f 13//4 21//6 22//6
f 21//6 13//4 14//4
f 18//5 25//7 17//5
f 25//7 18//5 26//7
f 22//6 29//8 30//8
f 29//8 22//6 21//6
f 26//7 33//9 25//7
f 33//9 26//7 34//9
f 30//8 37//10 38//10
f 37//10 30//8 29//8
f 34//9 41//11 33//9
f 41//11 34//9 42//11
f 38//10 45//12 46//12
f 45//12 38//10 37//10
f 42//11 49//13 41//11
f 49//13 42//11 50//13
f 46//12 53//14 54//14
f 53//14 46//12 45//12
f 49//13 57//15 58//15
f 57//15 49//13 50//13
f 54//14 61//16 62//16
f 61//16 54//14 53//14
f 58//15 65//17 66//17
f 65//17 58//15 57//15
f 62//16 69//18 70//18
f 69//18 62//16 61//16
f 66//17 73//19 74//19
f 73//19 66//17 65//17
f 70//18 77//20 78//20
f 77//20 70//18 69//18
f 74//19 81//21 82//21
f 81//21 74//19 73//19
f 85//22 77//20 86//22
f 77//20 85//22 78//20
f 82//21 89//23 90//23
f 89//23 82//21 81//21
f 93//24 86//22 94//24
f 86//22 93//24 85//22
f 90//23 97//25 98//25
f 97//25 90//23 89//23
f 101//26 94//24 102//26
f 94//24 101//26 93//24
f 98//25 105//27 106//27
f 105//27 98//25 97//25
f 109//28 102//26 110//28
f 102//26 109//28 101//26
f 106//27 113//29 114//29
f 113//29 106//27 105//27
f 117//30 110//28 118//30
f 110//28 117//30 109//28
f 113//29 121//31 114//29
f 121//31 113//29 122//31
f 125//32 118//30 126//32
f 118//30 125//32 117//30
f 122//31 126//32 121//31
f 126//32 122//31 125//32
