# SSTK version 0.8.0
# 15
mtllib original-15.mtl
o #ID65
v -0.107162 -0.121950 0.310924
v -0.095350 -0.125878 0.322735
v -0.107162 -0.125878 0.310924
v -0.095350 -0.121950 0.322735
v -0.095350 -0.121950 0.322735
v -0.107162 -0.121950 0.310924
v -0.095350 -0.125878 0.322735
v -0.107162 -0.125878 0.310924
v -0.074074 -0.121950 0.301458
v -0.107162 -0.121950 0.310924
v -0.085885 -0.121950 0.289647
v -0.095350 -0.121950 0.322735
v -0.095350 -0.121950 0.322735
v -0.074074 -0.121950 0.301458
v -0.107162 -0.121950 0.310924
v -0.085885 -0.121950 0.289647
v -0.074074 -0.121950 0.301458
v -0.095350 -0.125878 0.322735
v -0.095350 -0.121950 0.322735
v -0.074074 -0.125878 0.301458
v -0.074074 -0.125878 0.301458
v -0.074074 -0.121950 0.301458
v -0.095350 -0.125878 0.322735
v -0.095350 -0.121950 0.322735
v -0.107162 -0.125878 0.310924
v -0.085885 -0.121950 0.289647
v -0.107162 -0.121950 0.310924
v -0.085885 -0.125878 0.289647
v -0.085885 -0.125878 0.289647
v -0.107162 -0.125878 0.310924
v -0.085885 -0.121950 0.289647
v -0.107162 -0.121950 0.310924
v -0.074074 -0.121950 0.301458
v -0.085885 -0.125878 0.289647
v -0.074074 -0.125878 0.301458
v -0.085885 -0.121950 0.289647
v -0.085885 -0.121950 0.289647
v -0.074074 -0.121950 0.301458
v -0.085885 -0.125878 0.289647
v -0.074074 -0.125878 0.301458
vn 0.7071067811866689 0 -0.7071067811864261
vn -0.7071067811866689 0 0.7071067811864261
vn 0 -1 0
vn 0 1 0
vn -0.7071067811865873 0 -0.7071067811865078
vn 0.7071067811865873 0 0.7071067811865078
vn 0.7071067811865848 0 0.7071067811865102
vn -0.7071067811865848 0 -0.7071067811865102
vn -0.7071067811866604 0 0.7071067811864347
vn 0.7071067811866604 0 -0.7071067811864347
usemtl material_0_0
f 1//1 2//1 3//1
f 2//1 1//1 4//1
f 5//2 6//2 7//2
f 8//2 7//2 6//2
f 9//3 10//3 11//3
f 10//3 9//3 12//3
f 13//4 14//4 15//4
f 16//4 15//4 14//4
f 17//5 18//5 19//5
f 18//5 17//5 20//5
f 21//6 22//6 23//6
f 24//6 23//6 22//6
f 25//7 26//7 27//7
f 26//7 25//7 28//7
f 29//8 30//8 31//8
f 32//8 31//8 30//8
f 33//9 34//9 35//9
f 34//9 33//9 36//9
f 37//10 38//10 39//10
f 40//10 39//10 38//10
