# SSTK version 0.8.0
# 60
mtllib original-60.mtl
o #ID253
v -0.263488 -0.094481 0.124236
v -0.267459 -0.091933 0.119336
v -0.268100 -0.091933 0.121028
v -0.262693 -0.094481 0.122134
v -0.262693 -0.094481 0.122134
v -0.263488 -0.094481 0.124236
v -0.267459 -0.091933 0.119336
v -0.268100 -0.091933 0.121028
v -0.258712 -0.096027 0.127560
v -0.257755 -0.096027 0.125032
v -0.258489 -0.096017 0.126976
v -0.258253 -0.095997 0.126361
v -0.258253 -0.095997 0.126361
v -0.258489 -0.096017 0.126976
v -0.257755 -0.096027 0.125032
v -0.258712 -0.096027 0.127560
v -0.271974 -0.088428 0.116686
v -0.272467 -0.088428 0.117989
v -0.271974 -0.088428 0.116686
v -0.272467 -0.088428 0.117989
v -0.252732 -0.096545 0.127980
v -0.253623 -0.096545 0.130024
v -0.253629 -0.096545 0.130352
v -0.255489 -0.096370 0.129802
v -0.258489 -0.096017 0.126976
v -0.258712 -0.096027 0.127560
v -0.258253 -0.095997 0.126361
v -0.257755 -0.096027 0.125032
v -0.253623 -0.096545 0.130024
v -0.255489 -0.096370 0.129802
v -0.252732 -0.096545 0.127980
v -0.257755 -0.096027 0.125032
v -0.258253 -0.095997 0.126361
v -0.258489 -0.096017 0.126976
v -0.258712 -0.096027 0.127560
v -0.253629 -0.096545 0.130352
v -0.258433 -0.096027 0.127028
v -0.258712 -0.096027 0.127560
v -0.258489 -0.096017 0.126976
v -0.258489 -0.096017 0.126976
v -0.258712 -0.096027 0.127560
v -0.258433 -0.096027 0.127028
v -0.258433 -0.096027 0.127028
v -0.258489 -0.096017 0.126976
v -0.258712 -0.096027 0.127560
v -0.258712 -0.096027 0.127560
v -0.258489 -0.096017 0.126976
v -0.258433 -0.096027 0.127028
v -0.258433 -0.096027 0.127028
v -0.258253 -0.095997 0.126361
v -0.258489 -0.096017 0.126976
v -0.258099 -0.096027 0.126550
v -0.258099 -0.096027 0.126550
v -0.258433 -0.096027 0.127028
v -0.258253 -0.095997 0.126361
v -0.258489 -0.096017 0.126976
v -0.252732 -0.096545 0.127980
v -0.253623 -0.096545 0.130024
v -0.253629 -0.096545 0.130352
v -0.258099 -0.096027 0.126550
v -0.257755 -0.096027 0.125032
v -0.258253 -0.095997 0.126361
v -0.257715 -0.096027 0.126134
v -0.255489 -0.096370 0.129802
v -0.253623 -0.096545 0.130024
v -0.255489 -0.096370 0.129802
v -0.252732 -0.096545 0.127980
v -0.257715 -0.096027 0.126134
v -0.257755 -0.096027 0.125032
v -0.258099 -0.096027 0.126550
v -0.258253 -0.095997 0.126361
v -0.253629 -0.096545 0.130352
v -0.276160 -0.084025 0.114229
v -0.276517 -0.084025 0.115172
v -0.276160 -0.084025 0.114229
v -0.276517 -0.084025 0.115172
v -0.255489 -0.096370 0.129802
v -0.258712 -0.096027 0.127560
v -0.258712 -0.096027 0.127560
v -0.255489 -0.096370 0.129802
v -0.257715 -0.096027 0.126134
v -0.257715 -0.096027 0.126134
v -0.279945 -0.078799 0.112007
v -0.280178 -0.078799 0.112624
v -0.279892 -0.078826 0.112041
v -0.279892 -0.078826 0.112041
v -0.279945 -0.078799 0.112007
v -0.280178 -0.078799 0.112624
vn 0.31997036261653666 0.9396779438634669 0.12093109138500759
vn 0.4635030085540099 0.8685775996357936 0.1753223159563688
vn 0.46087539795677646 0.8701744009583902 0.17432836681071068
vn 0.3231673575621034 0.9384261284253677 0.12214442473933625
vn -0.3231673575621034 -0.9384261284253677 -0.12214442473933625
vn -0.31997036261653666 -0.9396779438634669 -0.12093109138500759
vn -0.4635030085540099 -0.8685775996357936 -0.1753223159563688
vn -0.46087539795677646 -0.8701744009583902 -0.17432836681071068
vn 0.24571405115750775 0.9648948181529756 0.09275017501493803
vn -0.24571405115750775 -0.9648948181529756 -0.09275017501493803
vn 0.5821640542310657 0.782683944646941 0.22020639580437495
vn 0.5801130108297512 0.784422799524413 0.21943054995219716
vn -0.5821640542310657 -0.782683944646941 -0.22020639580437495
vn -0.5801130108297512 -0.784422799524413 -0.21943054995219716
vn 0.08588563247995014 0.9957502324406723 0.033243536632946956
vn -0.08588563247995014 -0.9957502324406723 -0.033243536632946956
vn -0.11529179014814335 -0.9914924189168499 -0.060420082380367446
vn 0.11529179014814335 0.9914924189168499 0.060420082380367446
vn 0.10394361369871286 0.9919261484780045 0.07265150471149498
vn -0.10394361369871286 -0.9919261484780045 -0.07265150471149498
vn 0.08556565893658992 0.9946469520263004 0.05793063814198566
vn 0.10387933620684872 0.9919368466940115 0.07259735311955522
vn 0.07912212355995546 0.9950750951527109 0.059709668984064074
vn -0.07912212355995546 -0.9950750951527109 -0.059709668984064074
vn -0.08556565893658992 -0.9946469520263004 -0.05793063814198566
vn -0.10387933620684872 -0.9919368466940115 -0.07259735311955522
vn 0.08902296032381952 0.9954996061982049 0.032487637562657184
vn -0.08902296032381952 -0.9954996061982049 -0.032487637562657184
vn 0.6779389760436514 0.6872273022605658 0.2609930646368795
vn 0.6764782391261428 0.6889328451617531 0.26028585602395843
vn -0.6779389760436514 -0.6872273022605658 -0.2609930646368795
vn -0.6764782391261428 -0.6889328451617531 -0.26028585602395843
vn -0.06575009941085803 -0.9964519225717433 -0.05254036953180399
vn -0.07786056364245669 -0.9961288994231817 -0.040803778786281115
vn 0.07786056364245669 0.9961288994231817 0.040803778786281115
vn 0.06575009941085803 0.9964519225717433 0.05254036953180399
vn 0.061084358211069015 0.9965425387684173 0.05631757813453644
vn -0.061084358211069015 -0.9965425387684173 -0.05631757813453644
vn 0.7176146338867812 0.6375191174412376 0.2803544401797244
vn -0.7176146338867812 -0.6375191174412376 -0.2803544401797244
usemtl material_0_0
f 1//1 2//2 3//3
f 2//2 1//1 4//4
f 5//5 6//6 7//7
f 8//8 7//7 6//6
f 9//9 4//4 1//1
f 4//4 9//9 10//9
f 10//9 9//9 11//9
f 10//9 11//9 12//9
f 13//10 14//10 15//10
f 14//10 16//10 15//10
f 15//10 16//10 5//5
f 6//6 5//5 16//10
f 3//3 17//11 18//12
f 17//11 3//3 2//2
f 7//7 8//8 19//13
f 20//14 19//13 8//8
f 21//15 22//15 23//15
f 24//15 25//15 26//15
f 25//15 24//15 27//15
f 27//15 24//15 28//15
f 28//15 24//15 21//15
f 21//15 24//15 22//15
f 29//16 30//16 31//16
f 31//16 30//16 32//16
f 32//16 30//16 33//16
f 33//16 30//16 34//16
f 35//16 34//16 30//16
f 36//16 29//16 31//16
f 37//17 38//17 39//17
f 40//18 41//18 42//18
f 43//19 44//19 45//19
f 46//20 47//20 48//20
f 49//21 50//22 51//22
f 50//22 49//21 52//23
f 53//24 54//25 55//26
f 56//26 55//26 54//25
f 57//27 58//27 59//27
f 60//27 61//27 62//27
f 61//27 60//27 63//27
f 61//27 63//27 57//27
f 57//27 63//27 64//27
f 57//27 64//27 58//27
f 65//28 66//28 67//28
f 66//28 68//28 67//28
f 67//28 68//28 69//28
f 68//28 70//28 69//28
f 71//28 69//28 70//28
f 72//28 65//28 67//28
f 18//12 73//29 74//30
f 73//29 18//12 17//11
f 19//13 20//14 75//31
f 76//32 75//31 20//14
f 77//33 78//34 54//25
f 49//21 79//35 80//36
f 80//36 52//23 49//21
f 54//25 53//24 77//33
f 80//36 81//37 52//23
f 53//24 82//38 77//33
f 74//30 83//39 84//39
f 83//39 74//30 85//39
f 85//39 74//30 73//29
f 75//31 76//32 86//40
f 86//40 76//32 87//40
f 88//40 87//40 76//32
