# SSTK version 0.8.0
# 120
mtllib original-120.mtl
o group_27/ID648#ID648
v 0.335556 -0.583891 -0.311916
v 0.339706 -0.611581 -0.301899
v 0.339706 -0.583891 -0.301899
v 0.335556 -0.611581 -0.311916
v 0.334141 -0.583891 -0.322666
v 0.334141 -0.611581 -0.322666
v 0.335556 -0.611581 -0.333416
v 0.335556 -0.611581 -0.311916
v 0.334141 -0.611581 -0.322666
v 0.339706 -0.611581 -0.343434
v 0.339706 -0.611581 -0.301899
v 0.346307 -0.611581 -0.352036
v 0.346307 -0.611581 -0.293297
v 0.354909 -0.611581 -0.358637
v 0.354909 -0.611581 -0.286696
v 0.364926 -0.611581 -0.362786
v 0.364926 -0.611581 -0.282547
v 0.375676 -0.611581 -0.364202
v 0.375676 -0.611581 -0.281131
v 0.386426 -0.611581 -0.362786
v 0.386426 -0.611581 -0.282547
v 0.396444 -0.611581 -0.286696
v 0.396444 -0.611581 -0.358637
v 0.405046 -0.611581 -0.293297
v 0.405046 -0.611581 -0.352036
v 0.411647 -0.611581 -0.343434
v 0.411647 -0.611581 -0.301899
v 0.415796 -0.611581 -0.333416
v 0.415796 -0.611581 -0.311916
v 0.417211 -0.611581 -0.322666
v 0.346307 -0.611581 -0.293297
v 0.346307 -0.583891 -0.293297
v 0.335556 -0.583891 -0.333416
v 0.334141 -0.611581 -0.322666
v 0.334141 -0.583891 -0.322666
v 0.335556 -0.611581 -0.333416
v 0.415796 -0.611581 -0.333416
v 0.417211 -0.583891 -0.322666
v 0.417211 -0.611581 -0.322666
v 0.415796 -0.583891 -0.333416
v 0.417211 -0.611581 -0.322666
v 0.415796 -0.583891 -0.311916
v 0.415796 -0.611581 -0.311916
v 0.417211 -0.583891 -0.322666
v 0.411647 -0.583891 -0.301899
v 0.411647 -0.611581 -0.301899
v 0.405046 -0.583891 -0.293297
v 0.405046 -0.611581 -0.293297
v 0.396444 -0.611581 -0.286696
v 0.396444 -0.583891 -0.286696
v 0.386426 -0.611581 -0.282547
v 0.386426 -0.583891 -0.282547
v 0.375676 -0.611581 -0.281131
v 0.375676 -0.583891 -0.281131
v 0.364926 -0.611581 -0.282547
v 0.364926 -0.583891 -0.282547
v 0.354909 -0.611581 -0.286696
v 0.354909 -0.583891 -0.286696
v 0.339706 -0.583891 -0.343434
v 0.339706 -0.611581 -0.343434
v 0.346307 -0.583891 -0.352036
v 0.346307 -0.611581 -0.352036
v 0.354909 -0.611581 -0.358637
v 0.354909 -0.583891 -0.358637
v 0.364926 -0.611581 -0.362786
v 0.364926 -0.583891 -0.362786
v 0.375676 -0.611581 -0.364202
v 0.375676 -0.583891 -0.364202
v 0.386426 -0.611581 -0.362786
v 0.386426 -0.583891 -0.362786
v 0.396444 -0.611581 -0.358637
v 0.396444 -0.583891 -0.358637
v 0.405046 -0.611581 -0.352036
v 0.405046 -0.583891 -0.352036
v 0.411647 -0.583891 -0.343434
v 0.411647 -0.611581 -0.343434
vn -0.9659258358036645 0 0.25881900959356163
vn -0.866025402838329 0 0.5000000016387101
vn -0.9914448610250887 0 0.1305261948688555
vn 0 -1 0
vn -0.7071067811865476 0 0.7071067811865476
vn -0.9659258358036645 0 -0.25881900959356163
vn -0.9914448610250887 0 -0.1305261948688555
vn 0.9659258358036645 0 -0.25881900959356163
vn 0.9914448610250887 0 -0.1305261948688555
vn 0.9914448610250887 0 0.1305261948688555
vn 0.9659258358036645 0 0.25881900959356163
vn 0.866025402838329 0 0.5000000016387101
vn 0.7071067811865476 0 0.7071067811865476
vn 0.5000000016387101 0 0.866025402838329
vn 0.25881900959356163 0 0.9659258358036645
vn 0 0 1
vn -0.25881900959356163 0 0.9659258358036645
vn -0.5000000016387101 0 0.866025402838329
vn -0.866025402838329 0 -0.5000000016387101
vn -0.7071067811865476 0 -0.7071067811865476
vn -0.5000000016387101 0 -0.866025402838329
vn -0.25881900959356163 0 -0.9659258358036645
vn 0 0 -1
vn 0.25881900959356163 0 -0.9659258358036645
vn 0.5000000016387101 0 -0.866025402838329
vn 0.7071067811865476 0 -0.7071067811865476
vn 0.866025402838329 0 -0.5000000016387101
usemtl material_0_0
f 1//1 2//2 3//2
f 2//2 1//1 4//1
f 5//3 4//1 1//1
f 4//1 5//3 6//3
f 7//4 8//4 9//4
f 8//4 7//4 10//4
f 8//4 10//4 11//4
f 11//4 10//4 12//4
f 11//4 12//4 13//4
f 13//4 12//4 14//4
f 13//4 14//4 15//4
f 15//4 14//4 16//4
f 15//4 16//4 17//4
f 17//4 16//4 18//4
f 17//4 18//4 19//4
f 19//4 18//4 20//4
f 19//4 20//4 21//4
f 21//4 20//4 22//4
f 22//4 20//4 23//4
f 22//4 23//4 24//4
f 24//4 23//4 25//4
f 24//4 25//4 26//4
f 24//4 26//4 27//4
f 27//4 26//4 28//4
f 27//4 28//4 29//4
f 29//4 28//4 30//4
f 3//2 31//5 32//5
f 31//5 3//2 2//2
f 33//6 34//7 35//7
f 34//7 33//6 36//6
f 37//8 38//9 39//9
f 38//9 37//8 40//8
f 41//10 42//11 43//11
f 42//11 41//10 44//10
f 43//11 45//12 46//12
f 45//12 43//11 42//11
f 46//12 47//13 48//13
f 47//13 46//12 45//12
f 47//13 49//14 48//13
f 49//14 47//13 50//14
f 50//14 51//15 49//14
f 51//15 50//14 52//15
f 52//15 53//16 51//15
f 53//16 52//15 54//16
f 54//16 55//17 53//16
f 55//17 54//16 56//17
f 56//17 57//18 55//17
f 57//18 56//17 58//18
f 58//18 31//5 57//18
f 31//5 58//18 32//5
f 59//19 36//6 33//6
f 36//6 59//19 60//19
f 61//20 60//19 59//19
f 60//19 61//20 62//20
f 61//20 63//21 62//20
f 63//21 61//20 64//21
f 64//21 65//22 63//21
f 65//22 64//21 66//22
f 66//22 67//23 65//22
f 67//23 66//22 68//23
f 68//23 69//24 67//23
f 69//24 68//23 70//24
f 70//24 71//25 69//24
f 71//25 70//24 72//25
f 72//25 73//26 71//25
f 73//26 72//25 74//26
f 73//26 75//27 76//27
f 75//27 73//26 74//26
f 76//27 40//8 37//8
f 40//8 76//27 75//27
