# SSTK version 0.8.0
# 36
mtllib original-36.mtl
o #ID198
v -0.285632 0.594553 0.274490
v -0.279740 0.594553 0.282596
v -0.285632 0.594553 0.298850
v -0.278168 0.594553 0.278799
v -0.275666 0.594553 0.275539
v -0.264536 0.594553 0.262309
v -0.280277 0.594553 0.286670
v -0.272406 0.594553 0.273038
v -0.268610 0.594553 0.271465
v -0.264536 0.594553 0.270929
v -0.260462 0.594553 0.271465
v -0.243439 0.594553 0.274490
v -0.256665 0.594553 0.273038
v -0.253405 0.594553 0.275539
v -0.250904 0.594553 0.278799
v -0.249331 0.594553 0.282596
v -0.248795 0.594553 0.286670
v -0.275666 0.594553 0.297800
v -0.264536 0.594553 0.311030
v -0.278168 0.594553 0.294540
v -0.279740 0.594553 0.290744
v -0.272406 0.594553 0.300302
v -0.268610 0.594553 0.301874
v -0.264536 0.594553 0.302411
v -0.260462 0.594553 0.301874
v -0.243439 0.594553 0.298850
v -0.256665 0.594553 0.300302
v -0.253405 0.594553 0.297800
v -0.250904 0.594553 0.294540
v -0.249331 0.594553 0.290744
v -0.243439 0.594553 0.274490
v -0.248795 0.594553 0.286670
v -0.243439 0.594553 0.298850
v -0.249331 0.594553 0.290744
v -0.250904 0.594553 0.294540
v -0.253405 0.594553 0.297800
v -0.256665 0.594553 0.300302
v -0.260462 0.594553 0.301874
v -0.264536 0.594553 0.311030
v -0.264536 0.594553 0.302411
v -0.268610 0.594553 0.301874
v -0.272406 0.594553 0.300302
v -0.275666 0.594553 0.297800
v -0.280277 0.594553 0.286670
v -0.285632 0.594553 0.298850
v -0.279740 0.594553 0.290744
v -0.278168 0.594553 0.294540
v -0.249331 0.594553 0.282596
v -0.250904 0.594553 0.278799
v -0.253405 0.594553 0.275539
v -0.256665 0.594553 0.273038
v -0.260462 0.594553 0.271465
v -0.264536 0.594553 0.262309
v -0.264536 0.594553 0.270929
v -0.268610 0.594553 0.271465
v -0.272406 0.594553 0.273038
v -0.275666 0.594553 0.275539
v -0.279740 0.594553 0.282596
v -0.285632 0.594553 0.274490
v -0.278168 0.594553 0.278799
v -0.243439 0.601084 0.298850
v -0.264536 0.594553 0.311030
v -0.243439 0.594553 0.298850
v -0.264536 0.601084 0.311030
v -0.264536 0.601084 0.311030
v -0.243439 0.601084 0.298850
v -0.264536 0.594553 0.311030
v -0.243439 0.594553 0.298850
v -0.285632 0.594553 0.298850
v -0.285632 0.601084 0.298850
v -0.285632 0.601084 0.298850
v -0.285632 0.594553 0.298850
v -0.285632 0.601084 0.274490
v -0.285632 0.594553 0.274490
v -0.285632 0.594553 0.274490
v -0.285632 0.601084 0.274490
v -0.264536 0.594553 0.262309
v -0.264536 0.601084 0.262309
v -0.264536 0.601084 0.262309
v -0.264536 0.594553 0.262309
v -0.243439 0.594553 0.274490
v -0.243439 0.601084 0.274490
v -0.243439 0.601084 0.274490
v -0.243439 0.594553 0.274490
v -0.285632 0.601084 0.298850
v -0.279740 0.601084 0.290744
v -0.285632 0.601084 0.274490
v -0.278168 0.601084 0.294540
v -0.275666 0.601084 0.297800
v -0.264536 0.601084 0.311030
v -0.280277 0.601084 0.286670
v -0.272406 0.601084 0.300302
v -0.268610 0.601084 0.301874
v -0.264536 0.601084 0.302411
v -0.260462 0.601084 0.301874
v -0.243439 0.601084 0.298850
v -0.256665 0.601084 0.300302
v -0.253405 0.601084 0.297800
v -0.250904 0.601084 0.294540
v -0.249331 0.601084 0.290744
v -0.248795 0.601084 0.286670
v -0.243439 0.601084 0.274490
v -0.275666 0.601084 0.275539
v -0.264536 0.601084 0.262309
v -0.278168 0.601084 0.278799
v -0.279740 0.601084 0.282596
v -0.272406 0.601084 0.273038
v -0.268610 0.601084 0.271465
v -0.264536 0.601084 0.270929
v -0.260462 0.601084 0.271465
v -0.256665 0.601084 0.273038
v -0.253405 0.601084 0.275539
v -0.250904 0.601084 0.278799
v -0.249331 0.601084 0.282596
v -0.248795 0.601084 0.286670
v -0.249331 0.601084 0.282596
v -0.243439 0.601084 0.274490
v -0.250904 0.601084 0.278799
v -0.253405 0.601084 0.275539
v -0.256665 0.601084 0.273038
v -0.260462 0.601084 0.271465
v -0.264536 0.601084 0.262309
v -0.264536 0.601084 0.270929
v -0.268610 0.601084 0.271465
v -0.272406 0.601084 0.273038
v -0.275666 0.601084 0.275539
v -0.280277 0.601084 0.286670
v -0.285632 0.601084 0.274490
v -0.279740 0.601084 0.282596
v -0.278168 0.601084 0.278799
v -0.243439 0.601084 0.298850
v -0.249331 0.601084 0.290744
v -0.250904 0.601084 0.294540
v -0.253405 0.601084 0.297800
v -0.256665 0.601084 0.300302
v -0.260462 0.601084 0.301874
v -0.264536 0.601084 0.311030
v -0.264536 0.601084 0.302411
v -0.268610 0.601084 0.301874
v -0.272406 0.601084 0.300302
v -0.275666 0.601084 0.297800
v -0.279740 0.601084 0.290744
v -0.285632 0.601084 0.298850
v -0.278168 0.601084 0.294540
vn 0 -1 0
vn 0 1 0
vn 0.866025402838329 0 0.5000000016387101
vn 0 0 1
vn 0 0 -1
vn -0.866025402838329 0 -0.5000000016387101
vn -0.866025402838329 0 0.5000000016387101
vn 0.866025402838329 0 -0.5000000016387101
usemtl material_0_0
f 1//1 2//1 3//1
f 2//1 1//1 4//1
f 4//1 1//1 5//1
f 5//1 1//1 6//1
f 3//1 2//1 7//1
f 5//1 6//1 8//1
f 8//1 6//1 9//1
f 9//1 6//1 10//1
f 10//1 6//1 11//1
f 11//1 6//1 12//1
f 11//1 12//1 13//1
f 13//1 12//1 14//1
f 14//1 12//1 15//1
f 15//1 12//1 16//1
f 16//1 12//1 17//1
f 3//1 18//1 19//1
f 18//1 3//1 20//1
f 20//1 3//1 21//1
f 21//1 3//1 7//1
f 19//1 18//1 22//1
f 19//1 22//1 23//1
f 19//1 23//1 24//1
f 19//1 24//1 25//1
f 19//1 25//1 26//1
f 26//1 25//1 27//1
f 26//1 27//1 28//1
f 26//1 28//1 29//1
f 26//1 29//1 30//1
f 26//1 30//1 17//1
f 26//1 17//1 12//1
f 31//2 32//2 33//2
f 32//2 34//2 33//2
f 34//2 35//2 33//2
f 35//2 36//2 33//2
f 36//2 37//2 33//2
f 37//2 38//2 33//2
f 33//2 38//2 39//2
f 38//2 40//2 39//2
f 40//2 41//2 39//2
f 41//2 42//2 39//2
f 42//2 43//2 39//2
f 44//2 45//2 46//2
f 46//2 45//2 47//2
f 47//2 45//2 43//2
f 39//2 43//2 45//2
f 32//2 31//2 48//2
f 48//2 31//2 49//2
f 49//2 31//2 50//2
f 50//2 31//2 51//2
f 51//2 31//2 52//2
f 31//2 53//2 52//2
f 52//2 53//2 54//2
f 54//2 53//2 55//2
f 55//2 53//2 56//2
f 56//2 53//2 57//2
f 44//2 58//2 45//2
f 53//2 59//2 57//2
f 57//2 59//2 60//2
f 60//2 59//2 58//2
f 45//2 58//2 59//2
f 61//3 62//4 63//3
f 62//4 61//3 64//4
f 65//5 66//6 67//5
f 68//6 67//5 66//6
f 64//4 69//7 62//4
f 69//7 64//4 70//7
f 71//8 65//5 72//8
f 67//5 72//8 65//5
f 73//6 69//7 70//7
f 69//7 73//6 74//6
f 75//3 76//3 72//8
f 71//8 72//8 76//3
f 73//6 77//5 74//6
f 77//5 73//6 78//5
f 79//4 76//3 80//4
f 75//3 80//4 76//3
f 78//5 81//8 77//5
f 81//8 78//5 82//8
f 83//7 79//4 84//7
f 80//4 84//7 79//4
f 81//8 61//3 63//3
f 61//3 81//8 82//8
f 83//7 84//7 66//6
f 68//6 66//6 84//7
f 85//2 86//2 87//2
f 86//2 85//2 88//2
f 88//2 85//2 89//2
f 89//2 85//2 90//2
f 87//2 86//2 91//2
f 89//2 90//2 92//2
f 92//2 90//2 93//2
f 93//2 90//2 94//2
f 94//2 90//2 95//2
f 95//2 90//2 96//2
f 95//2 96//2 97//2
f 97//2 96//2 98//2
f 98//2 96//2 99//2
f 99//2 96//2 100//2
f 100//2 96//2 101//2
f 101//2 96//2 102//2
f 87//2 103//2 104//2
f 103//2 87//2 105//2
f 105//2 87//2 106//2
f 106//2 87//2 91//2
f 104//2 103//2 107//2
f 104//2 107//2 108//2
f 104//2 108//2 109//2
f 104//2 109//2 110//2
f 104//2 110//2 102//2
f 102//2 110//2 111//2
f 102//2 111//2 112//2
f 102//2 112//2 113//2
f 102//2 113//2 114//2
f 102//2 114//2 101//2
f 115//1 116//1 117//1
f 116//1 118//1 117//1
f 118//1 119//1 117//1
f 119//1 120//1 117//1
f 120//1 121//1 117//1
f 117//1 121//1 122//1
f 121//1 123//1 122//1
f 123//1 124//1 122//1
f 124//1 125//1 122//1
f 125//1 126//1 122//1
f 127//1 128//1 129//1
f 129//1 128//1 130//1
f 130//1 128//1 126//1
f 122//1 126//1 128//1
f 117//1 131//1 115//1
f 115//1 131//1 132//1
f 132//1 131//1 133//1
f 133//1 131//1 134//1
f 134//1 131//1 135//1
f 135//1 131//1 136//1
f 131//1 137//1 136//1
f 136//1 137//1 138//1
f 138//1 137//1 139//1
f 139//1 137//1 140//1
f 140//1 137//1 141//1
f 127//1 142//1 128//1
f 137//1 143//1 141//1
f 141//1 143//1 144//1
f 144//1 143//1 142//1
f 128//1 142//1 143//1
