# SSTK version 0.8.0
# 10
mtllib original-10.mtl
o #ID40
v -0.152154 -0.087414 0.245603
v -0.151206 -0.087414 0.244655
v -0.151742 -0.087410 0.245066
v -0.150582 -0.087426 0.244396
v -0.152413 -0.087426 0.246227
v -0.152501 -0.087445 0.246897
v -0.149912 -0.087445 0.244307
v -0.149242 -0.087470 0.244395
v -0.152414 -0.087470 0.247567
v -0.148618 -0.087498 0.244653
v -0.152155 -0.087498 0.248191
v -0.148082 -0.087529 0.245064
v -0.151744 -0.087529 0.248727
v -0.147671 -0.087560 0.245600
v -0.151208 -0.087560 0.249138
v -0.147413 -0.087589 0.246224
v -0.150584 -0.087589 0.249396
v -0.147325 -0.087614 0.246894
v -0.149915 -0.087614 0.249484
v -0.147413 -0.087632 0.247564
v -0.149245 -0.087632 0.249395
v -0.147672 -0.087644 0.248189
v -0.148620 -0.087644 0.249136
v -0.148084 -0.087648 0.248725
v -0.148084 -0.087648 0.248725
v -0.148620 -0.087644 0.249136
v -0.147672 -0.087644 0.248189
v -0.149245 -0.087632 0.249395
v -0.147413 -0.087632 0.247564
v -0.149915 -0.087614 0.249484
v -0.147325 -0.087614 0.246894
v -0.150584 -0.087589 0.249396
v -0.147413 -0.087589 0.246224
v -0.151208 -0.087560 0.249138
v -0.147671 -0.087560 0.245600
v -0.151744 -0.087529 0.248727
v -0.148082 -0.087529 0.245064
v -0.152155 -0.087498 0.248191
v -0.148618 -0.087498 0.244653
v -0.152414 -0.087470 0.247567
v -0.149242 -0.087470 0.244395
v -0.152501 -0.087445 0.246897
v -0.149912 -0.087445 0.244307
v -0.150582 -0.087426 0.244396
v -0.152413 -0.087426 0.246227
v -0.152154 -0.087414 0.245603
v -0.151206 -0.087414 0.244655
v -0.151742 -0.087410 0.245066
v -0.148082 -0.087529 0.245064
v -0.148955 -0.097846 0.244316
v -0.148419 -0.097877 0.244728
v -0.148618 -0.087498 0.244653
v -0.148618 -0.087498 0.244653
v -0.148082 -0.087529 0.245064
v -0.148955 -0.097846 0.244316
v -0.148419 -0.097877 0.244728
v -0.149579 -0.097817 0.244058
v -0.149242 -0.087470 0.244395
v -0.149242 -0.087470 0.244395
v -0.149579 -0.097817 0.244058
v -0.150249 -0.097793 0.243970
v -0.149912 -0.087445 0.244307
v -0.149912 -0.087445 0.244307
v -0.150249 -0.097793 0.243970
v -0.150582 -0.087426 0.244396
v -0.150919 -0.097774 0.244059
v -0.150582 -0.087426 0.244396
v -0.150919 -0.097774 0.244059
v -0.151206 -0.087414 0.244655
v -0.151543 -0.097762 0.244318
v -0.151206 -0.087414 0.244655
v -0.151543 -0.097762 0.244318
v -0.151742 -0.087410 0.245066
v -0.152079 -0.097758 0.244729
v -0.151742 -0.087410 0.245066
v -0.152079 -0.097758 0.244729
v -0.152154 -0.087414 0.245603
v -0.152491 -0.097762 0.245266
v -0.152154 -0.087414 0.245603
v -0.152491 -0.097762 0.245266
v -0.152413 -0.087426 0.246227
v -0.152750 -0.097774 0.245890
v -0.152413 -0.087426 0.246227
v -0.152750 -0.097774 0.245890
v -0.152501 -0.087445 0.246897
v -0.152838 -0.097793 0.246560
v -0.152501 -0.087445 0.246897
v -0.152838 -0.097793 0.246560
v -0.152414 -0.087470 0.247567
v -0.152751 -0.097817 0.247230
v -0.152414 -0.087470 0.247567
v -0.152751 -0.097817 0.247230
v -0.152155 -0.087498 0.248191
v -0.152492 -0.097846 0.247854
v -0.152155 -0.087498 0.248191
v -0.152492 -0.097846 0.247854
v -0.151744 -0.087529 0.248727
v -0.152081 -0.097877 0.248390
v -0.151744 -0.087529 0.248727
v -0.152081 -0.097877 0.248390
v -0.151208 -0.087560 0.249138
v -0.151545 -0.097908 0.248801
v -0.151208 -0.087560 0.249138
v -0.151545 -0.097908 0.248801
v -0.150584 -0.087589 0.249396
v -0.150921 -0.097936 0.249059
v -0.150584 -0.087589 0.249396
v -0.150921 -0.097936 0.249059
v -0.149915 -0.087614 0.249484
v -0.150251 -0.097961 0.249147
v -0.149915 -0.087614 0.249484
v -0.150251 -0.097961 0.249147
v -0.149582 -0.097980 0.249058
v -0.149245 -0.087632 0.249395
v -0.149245 -0.087632 0.249395
v -0.149582 -0.097980 0.249058
v -0.148957 -0.097992 0.248799
v -0.148620 -0.087644 0.249136
v -0.148620 -0.087644 0.249136
v -0.148957 -0.097992 0.248799
v -0.148421 -0.097996 0.248388
v -0.148084 -0.087648 0.248725
v -0.148084 -0.087648 0.248725
v -0.148421 -0.097996 0.248388
v -0.148009 -0.097992 0.247852
v -0.147672 -0.087644 0.248189
v -0.147672 -0.087644 0.248189
v -0.148009 -0.097992 0.247852
v -0.147750 -0.097980 0.247227
v -0.147413 -0.087632 0.247564
v -0.147413 -0.087632 0.247564
v -0.147750 -0.097980 0.247227
v -0.147662 -0.097961 0.246557
v -0.147325 -0.087614 0.246894
v -0.147325 -0.087614 0.246894
v -0.147662 -0.097961 0.246557
v -0.147750 -0.097936 0.245887
v -0.147413 -0.087589 0.246224
v -0.147413 -0.087589 0.246224
v -0.147750 -0.097936 0.245887
v -0.148008 -0.097908 0.245263
v -0.147671 -0.087560 0.245600
v -0.147671 -0.087560 0.245600
v -0.148008 -0.097908 0.245263
vn 0.032526489931158975 0.9989414672069248 0.03252648993104626
vn -0.032526489931158975 -0.9989414672069248 -0.03252648993104626
vn -0.707106781186572 0 0.707106781186523
vn -0.5001936627041875 -0.011905520904577263 0.865831714805227
vn -0.7071067811865114 0 0.7071067811865837
vn 0.5001936627041875 0.011905520904577263 -0.865831714805227
vn 0.707106781186572 0 -0.707106781186523
vn 0.7071067811865114 0 -0.7071067811865837
vn -0.25919324807688415 -0.02299970104806645 0.9655515904927372
vn 0.25919324807688415 0.02299970104806645 -0.9655515904927372
vn -0.000529184295594175 -0.0325264886786066 0.9994707336876962
vn 0.000529184295594175 0.0325264886786066 -0.9994707336876962
vn 0.2581709061193705 -0.03983664719815067 0.9652775894909781
vn -0.2581709061193705 0.03983664719815067 -0.9652775894909781
vn 0.4992770919158061 -0.04443200486727087 0.8653023647440071
vn -0.4992770919158061 0.04443200486727087 -0.8653023647440071
vn 0.7063582857763574 -0.04599939380284277 0.7063582857763169
vn 0.7063582857763592 -0.04599939380284277 0.7063582857763151
vn -0.7063582857763574 0.04599939380284277 -0.7063582857763169
vn -0.7063582857763592 0.04599939380284277 -0.7063582857763151
vn 0.8653023647439537 -0.044432004867271294 0.49927709191589814
vn -0.8653023647439537 0.044432004867271294 -0.49927709191589814
vn 0.9652775894909528 -0.039836647198151304 0.2581709061194652
vn -0.9652775894909528 0.039836647198151304 -0.2581709061194652
vn 0.9994707336876962 -0.03252648867860713 -0.0005291842955075738
vn -0.9994707336876962 0.03252648867860713 0.0005291842955075738
vn 0.9655515904927566 -0.022999701048066635 -0.2591932480768114
vn -0.9655515904927566 0.022999701048066635 0.2591932480768114
vn 0.8658317148052604 -0.011905520904577095 -0.5001936627041297
vn -0.8658317148052604 0.011905520904577095 0.5001936627041297
vn 0.7071067811864876 0 -0.7071067811866074
vn 0.7071067811865247 0 -0.7071067811865703
vn -0.7071067811864876 0 0.7071067811866074
vn -0.7071067811865247 0 0.7071067811865703
vn -0.7063582857763745 0.04599939380284277 -0.7063582857762998
vn -0.7063582857763605 0.04599939380284277 -0.7063582857763137
vn 0.7063582857763605 -0.04599939380284277 0.7063582857763137
vn 0.7063582857763745 -0.04599939380284277 0.7063582857762998
usemtl material_0_0
f 1//1 2//1 3//1
f 2//1 1//1 4//1
f 4//1 1//1 5//1
f 4//1 5//1 6//1
f 4//1 6//1 7//1
f 7//1 6//1 8//1
f 8//1 6//1 9//1
f 8//1 9//1 10//1
f 10//1 9//1 11//1
f 10//1 11//1 12//1
f 12//1 11//1 13//1
f 12//1 13//1 14//1
f 14//1 13//1 15//1
f 14//1 15//1 16//1
f 16//1 15//1 17//1
f 16//1 17//1 18//1
f 18//1 17//1 19//1
f 18//1 19//1 20//1
f 20//1 19//1 21//1
f 20//1 21//1 22//1
f 22//1 21//1 23//1
f 22//1 23//1 24//1
f 25//2 26//2 27//2
f 26//2 28//2 27//2
f 27//2 28//2 29//2
f 28//2 30//2 29//2
f 29//2 30//2 31//2
f 30//2 32//2 31//2
f 31//2 32//2 33//2
f 32//2 34//2 33//2
f 33//2 34//2 35//2
f 34//2 36//2 35//2
f 35//2 36//2 37//2
f 36//2 38//2 37//2
f 37//2 38//2 39//2
f 38//2 40//2 39//2
f 39//2 40//2 41//2
f 40//2 42//2 41//2
f 41//2 42//2 43//2
f 43//2 42//2 44//2
f 42//2 45//2 44//2
f 45//2 46//2 44//2
f 44//2 46//2 47//2
f 48//2 47//2 46//2
f 49//3 50//4 51//5
f 50//4 49//3 52//4
f 53//6 54//7 55//6
f 56//8 55//6 54//7
f 52//4 57//9 50//4
f 57//9 52//4 58//9
f 59//10 53//6 60//10
f 55//6 60//10 53//6
f 58//9 61//11 57//9
f 61//11 58//9 62//11
f 63//12 59//10 64//12
f 60//10 64//12 59//10
f 61//11 65//13 66//13
f 65//13 61//11 62//11
f 63//12 64//12 67//14
f 68//14 67//14 64//12
f 66//13 69//15 70//15
f 69//15 66//13 65//13
f 67//14 68//14 71//16
f 72//16 71//16 68//14
f 70//15 73//17 74//18
f 73//17 70//15 69//15
f 71//16 72//16 75//19
f 76//20 75//19 72//16
f 74//18 77//21 78//21
f 77//21 74//18 73//17
f 75//19 76//20 79//22
f 80//22 79//22 76//20
f 78//21 81//23 82//23
f 81//23 78//21 77//21
f 79//22 80//22 83//24
f 84//24 83//24 80//22
f 82//23 85//25 86//25
f 85//25 82//23 81//23
f 83//24 84//24 87//26
f 88//26 87//26 84//24
f 86//25 89//27 90//27
f 89//27 86//25 85//25
f 87//26 88//26 91//28
f 92//28 91//28 88//26
f 90//27 93//29 94//29
f 93//29 90//27 89//27
f 91//28 92//28 95//30
f 96//30 95//30 92//28
f 94//29 97//31 98//32
f 97//31 94//29 93//29
f 95//30 96//30 99//33
f 100//34 99//33 96//30
f 98//32 101//6 102//6
f 101//6 98//32 97//31
f 99//33 100//34 103//4
f 104//4 103//4 100//34
f 102//6 105//10 106//10
f 105//10 102//6 101//6
f 103//4 104//4 107//9
f 108//9 107//9 104//4
f 106//10 109//12 110//12
f 109//12 106//10 105//10
f 107//9 108//9 111//11
f 112//11 111//11 108//9
f 109//12 113//14 110//12
f 113//14 109//12 114//14
f 115//13 111//11 116//13
f 112//11 116//13 111//11
f 114//14 117//16 113//14
f 117//16 114//14 118//16
f 119//15 115//13 120//15
f 116//13 120//15 115//13
f 118//16 121//35 117//16
f 121//35 118//16 122//36
f 123//37 119//15 124//38
f 120//15 124//38 119//15
f 122//36 125//22 121//35
f 125//22 122//36 126//22
f 127//21 123//37 128//21
f 124//38 128//21 123//37
f 126//22 129//24 125//22
f 129//24 126//22 130//24
f 131//23 127//21 132//23
f 128//21 132//23 127//21
f 130//24 133//26 129//24
f 133//26 130//24 134//26
f 135//25 131//23 136//25
f 132//23 136//25 131//23
f 134//26 137//28 133//26
f 137//28 134//26 138//28
f 139//27 135//25 140//27
f 136//25 140//27 135//25
f 138//28 141//30 137//28
f 141//30 138//28 142//30
f 143//29 139//27 144//29
f 140//27 144//29 139//27
f 142//30 51//5 141//30
f 51//5 142//30 49//3
f 54//7 143//29 56//8
f 144//29 56//8 143//29
