# SSTK version 0.8.0
# 82
mtllib original-82.mtl
o #ID473
v 0.354577 0.168551 0.640679
v 0.357834 0.173277 0.637421
v 0.355310 0.169284 0.642029
v 0.355310 0.169284 0.642029
v 0.357834 0.173277 0.637421
v 0.354577 0.168551 0.640679
v 0.356264 0.170238 0.643065
v 0.356264 0.170238 0.643065
v 0.351500 0.166551 0.646655
v 0.350033 0.165083 0.643951
v 0.350033 0.165083 0.643951
v 0.351500 0.166551 0.646655
v 0.354117 0.168091 0.639108
v 0.354117 0.168091 0.639108
v 0.357375 0.171350 0.643716
v 0.357375 0.171350 0.643716
v 0.353413 0.168463 0.648731
v 0.353413 0.168463 0.648731
v 0.349110 0.164160 0.640801
v 0.349110 0.164160 0.640801
v 0.353960 0.167934 0.637421
v 0.353960 0.167934 0.637421
v 0.358568 0.172542 0.643938
v 0.358568 0.172542 0.643938
v 0.355640 0.170690 0.650035
v 0.355640 0.170690 0.650035
v 0.348796 0.163846 0.637421
v 0.348796 0.163846 0.637421
v 0.354117 0.168091 0.635734
v 0.354117 0.168091 0.635734
v 0.359761 0.173735 0.643716
v 0.359761 0.173735 0.643716
v 0.358030 0.173080 0.650480
v 0.358030 0.173080 0.650480
v 0.349110 0.164160 0.634041
v 0.349110 0.164160 0.634041
v 0.354577 0.168551 0.634162
v 0.354577 0.168551 0.634162
v 0.360872 0.174846 0.643065
v 0.360872 0.174846 0.643065
v 0.360420 0.175470 0.650035
v 0.360420 0.175470 0.650035
v 0.350033 0.165083 0.630891
v 0.350033 0.165083 0.630891
v 0.355310 0.169284 0.632813
v 0.355310 0.169284 0.632813
v 0.361827 0.175801 0.642029
v 0.361827 0.175801 0.642029
v 0.362647 0.177698 0.648731
v 0.362647 0.177698 0.648731
v 0.351500 0.166551 0.628186
v 0.351500 0.166551 0.628186
v 0.356264 0.170238 0.631777
v 0.356264 0.170238 0.631777
v 0.362559 0.176533 0.640679
v 0.362559 0.176533 0.640679
v 0.364560 0.179610 0.646655
v 0.364560 0.179610 0.646655
v 0.353413 0.168463 0.626111
v 0.353413 0.168463 0.626111
v 0.357375 0.171350 0.631126
v 0.357375 0.171350 0.631126
v 0.363019 0.176993 0.639108
v 0.363019 0.176993 0.639108
v 0.366027 0.181078 0.643951
v 0.366027 0.181078 0.643951
v 0.355640 0.170690 0.624806
v 0.355640 0.170690 0.624806
v 0.358568 0.172542 0.630904
v 0.358568 0.172542 0.630904
v 0.363176 0.177150 0.637421
v 0.363176 0.177150 0.637421
v 0.366950 0.182000 0.640801
v 0.366950 0.182000 0.640801
v 0.358030 0.173080 0.624361
v 0.358030 0.173080 0.624361
v 0.359761 0.173735 0.631126
v 0.359761 0.173735 0.631126
v 0.363019 0.176993 0.635734
v 0.363019 0.176993 0.635734
v 0.367265 0.182315 0.637421
v 0.367265 0.182315 0.637421
v 0.360420 0.175470 0.624806
v 0.360420 0.175470 0.624806
v 0.360872 0.174846 0.631777
v 0.360872 0.174846 0.631777
v 0.362559 0.176533 0.634162
v 0.362559 0.176533 0.634162
v 0.366950 0.182000 0.634041
v 0.366950 0.182000 0.634041
v 0.362647 0.177698 0.626111
v 0.362647 0.177698 0.626111
v 0.361827 0.175801 0.632813
v 0.361827 0.175801 0.632813
v 0.366027 0.181078 0.630891
v 0.366027 0.181078 0.630891
v 0.364560 0.179610 0.628186
v 0.364560 0.179610 0.628186
vn 0.7130996676999494 -0.701045395355396 -0.004921135765094446
vn 0.707106781186536 -0.7071067811865589 0
vn 0.7119936678362395 -0.7021513952085279 -0.006959537902502266
vn -0.7119936678362395 0.7021513952085279 0.006959537902502266
vn -0.707106781186536 0.7071067811865589 0
vn -0.7130996676999494 0.701045395355396 0.004921135765094446
vn 0.7105522999048158 -0.703592763148707 -0.008523657943868073
vn -0.7105522999048158 0.703592763148707 0.008523657943868073
vn 0.6446143771799554 -0.7601316859988635 0.0816830745835608
vn 0.6316334189259163 -0.773112645380577 0.057758649989453154
vn -0.6316334189259163 0.773112645380577 -0.057758649989453154
vn -0.6446143771799554 0.7601316859988635 -0.0816830745835608
vn 0.7137949283180034 -0.7003501347387237 -0.0025473670619308598
vn -0.7137949283180034 0.7003501347387237 0.0025473670619308598
vn 0.7088737920025234 -0.7052712710510469 -0.009506904964477099
vn -0.7088737920025234 0.7052712710510469 0.009506904964477099
vn 0.6615315000427366 -0.7432145640143856 0.10004092306708096
vn -0.6615315000427366 0.7432145640143856 -0.10004092306708096
vn 0.6234732469893676 -0.7812728175338793 0.029898074707386587
vn -0.6234732469893676 0.7812728175338793 -0.029898074707386587
vn 0.7140320682889235 -0.7001129947765875 0
vn -0.7140320682889235 0.7001129947765875 0
vn 0.7070725315309766 -0.7070725315308898 -0.009842271530240532
vn -0.7070725315309766 0.7070725315308898 0.009842271530240532
vn 0.681231901244642 -0.7235141628466818 0.11158114933480394
vn -0.681231901244642 0.7235141628466818 -0.11158114933480394
vn 0.6206899686398659 -0.784056096736606 0
vn -0.6206899686398659 0.784056096736606 0
vn 0.7137949283180034 -0.7003501347387235 0.0025473670619437574
vn -0.7137949283180034 0.7003501347387235 -0.0025473670619437574
vn 0.7052712710510467 -0.7088737920025237 -0.009506904964476967
vn -0.7052712710510467 0.7088737920025237 0.009506904964476967
vn 0.7023730324388 -0.7023730324389298 0.11551730002586937
vn -0.7023730324388 0.7023730324389298 -0.11551730002586937
vn 0.6234732469893668 -0.7812728175338808 -0.029898074707367543
vn -0.6234732469893668 0.7812728175338808 0.029898074707367543
vn 0.7130996676999495 -0.7010453953553958 0.004921135765107394
vn -0.7130996676999495 0.7010453953553958 -0.004921135765107394
vn 0.7035927631487069 -0.710552299904816 -0.008523657943867818
vn -0.7035927631487069 0.710552299904816 0.008523657943867818
vn 0.7235141628466859 -0.6812319012446377 0.11158114933480241
vn -0.7235141628466859 0.6812319012446377 -0.11158114933480241
vn 0.6316334189259146 -0.7731126453805797 -0.05775864998943469
vn -0.6316334189259146 0.7731126453805797 0.05775864998943469
vn 0.7119936678362397 -0.7021513952085277 0.006959537902515295
vn -0.7119936678362397 0.7021513952085277 -0.006959537902515295
vn 0.7021513952085278 -0.7119936678362396 -0.006959537902501906
vn -0.7021513952085278 0.7119936678362396 0.006959537902501906
vn 0.7432145640143892 -0.6615315000427329 0.10004092306707799
vn -0.7432145640143892 0.6615315000427329 -0.10004092306707799
vn 0.6446143771799532 -0.7601316859988672 -0.08168307458354332
vn -0.6446143771799532 0.7601316859988672 0.08168307458354332
vn 0.710552299904816 -0.7035927631487067 0.008523657943881206
vn -0.710552299904816 0.7035927631487067 -0.008523657943881206
vn 0.701045395355396 -0.7130996676999494 -0.0049211357650940065
vn -0.701045395355396 0.7130996676999494 0.0049211357650940065
vn 0.7601316859988666 -0.6446143771799523 0.0816830745835566
vn -0.7601316859988666 0.6446143771799523 -0.0816830745835566
vn 0.661531500042734 -0.7432145640143901 -0.1000409230670647
vn -0.661531500042734 0.7432145640143901 0.1000409230670647
vn 0.7088737920025237 -0.7052712710510465 0.009506904964490352
vn -0.7088737920025237 0.7052712710510465 -0.009506904964490352
vn 0.7003501347387238 -0.7137949283180034 -0.0025473670619303706
vn -0.7003501347387238 0.7137949283180034 0.0025473670619303706
vn 0.7731126453805792 -0.6316334189259141 0.057758649989448
vn -0.7731126453805792 0.6316334189259141 -0.057758649989448
vn 0.681231901244639 -0.7235141628466869 -0.11158114933478913
vn -0.681231901244639 0.7235141628466869 0.11158114933478913
vn 0.7070725315308508 -0.7070725315310156 0.00984227153025392
vn -0.7070725315308508 0.7070725315310156 -0.00984227153025392
vn 0.7001129947765876 -0.7140320682889234 0
vn -0.7001129947765876 0.7140320682889234 0
vn 0.7812728175338806 -0.6234732469893663 0.02989807470738084
vn -0.7812728175338806 0.6234732469893663 -0.02989807470738084
vn 0.702373032438946 -0.7023730324387861 -0.11551730002585608
vn -0.702373032438946 0.7023730324387861 0.11551730002585608
vn 0.7052712710510469 -0.7088737920025232 0.009506904964490484
vn -0.7052712710510469 0.7088737920025232 -0.009506904964490484
vn 0.7003501347387238 -0.7137949283180032 0.0025473670619442466
vn -0.7003501347387238 0.7137949283180032 -0.0025473670619442466
vn 0.7840560967366061 -0.6206899686398658 0
vn -0.7840560967366061 0.6206899686398658 0
vn 0.7235141628466829 -0.6812319012446428 -0.11158114933479066
vn -0.7235141628466829 0.6812319012446428 0.11158114933479066
vn 0.7035927631487071 -0.7105522999048157 0.00852365794388146
vn -0.7035927631487071 0.7105522999048157 -0.00852365794388146
vn 0.7010453953553961 -0.7130996676999491 0.004921135765107834
vn -0.7010453953553961 0.7130996676999491 -0.004921135765107834
vn 0.7812728175338798 -0.6234732469893677 -0.02989807470737329
vn -0.7812728175338798 0.6234732469893677 0.02989807470737329
vn 0.7432145640143866 -0.6615315000427374 -0.10004092306706767
vn -0.7432145640143866 0.6615315000427374 0.10004092306706767
vn 0.7021513952085281 -0.7119936678362394 0.006959537902515654
vn -0.7021513952085281 0.7119936678362394 -0.006959537902515654
vn 0.7731126453805777 -0.6316334189259166 -0.057758649989439845
vn -0.7731126453805777 0.6316334189259166 0.057758649989439845
vn 0.7601316859988643 -0.644614377179956 -0.08168307458354752
vn -0.7601316859988643 0.644614377179956 0.08168307458354752
usemtl material_0_0
f 1//1 2//2 3//3
f 4//4 5//5 6//6
f 3//3 2//2 7//7
f 8//8 5//5 4//4
f 9//9 1//1 3//3
f 1//1 9//9 10//10
f 11//11 12//12 6//6
f 4//4 6//6 12//12
f 13//13 2//2 1//1
f 6//6 5//5 14//14
f 7//7 2//2 15//15
f 16//16 5//5 8//8
f 17//17 3//3 7//7
f 3//3 17//17 9//9
f 12//12 18//18 4//4
f 8//8 4//4 18//18
f 10//10 13//13 1//1
f 13//13 10//10 19//19
f 20//20 11//11 14//14
f 6//6 14//14 11//11
f 21//21 2//2 13//13
f 14//14 5//5 22//22
f 15//15 2//2 23//23
f 24//24 5//5 16//16
f 25//25 7//7 15//15
f 7//7 25//25 17//17
f 18//18 26//26 8//8
f 16//16 8//8 26//26
f 19//19 21//21 13//13
f 21//21 19//19 27//27
f 28//28 20//20 22//22
f 14//14 22//22 20//20
f 21//21 29//29 2//2
f 5//5 30//30 22//22
f 2//2 31//31 23//23
f 24//24 32//32 5//5
f 33//33 15//15 23//23
f 15//15 33//33 25//25
f 26//26 34//34 16//16
f 24//24 16//16 34//34
f 21//21 35//35 29//29
f 35//35 21//21 27//27
f 28//28 22//22 36//36
f 30//30 36//36 22//22
f 29//29 37//37 2//2
f 5//5 38//38 30//30
f 2//2 39//39 31//31
f 32//32 40//40 5//5
f 33//33 31//31 41//41
f 31//31 33//33 23//23
f 24//24 34//34 32//32
f 42//42 32//32 34//34
f 29//29 43//43 37//37
f 43//43 29//29 35//35
f 36//36 30//30 44//44
f 38//38 44//44 30//30
f 37//37 45//45 2//2
f 5//5 46//46 38//38
f 2//2 47//47 39//39
f 40//40 48//48 5//5
f 41//41 39//39 49//49
f 39//39 41//41 31//31
f 32//32 42//42 40//40
f 50//50 40//40 42//42
f 37//37 51//51 45//45
f 51//51 37//37 43//43
f 44//44 38//38 52//52
f 46//46 52//52 38//38
f 45//45 53//53 2//2
f 5//5 54//54 46//46
f 2//2 55//55 47//47
f 48//48 56//56 5//5
f 49//49 47//47 57//57
f 47//47 49//49 39//39
f 40//40 50//50 48//48
f 58//58 48//48 50//50
f 45//45 59//59 53//53
f 59//59 45//45 51//51
f 52//52 46//46 60//60
f 54//54 60//60 46//46
f 53//53 61//61 2//2
f 5//5 62//62 54//54
f 2//2 63//63 55//55
f 56//56 64//64 5//5
f 57//57 55//55 65//65
f 55//55 57//57 47//47
f 48//48 58//58 56//56
f 66//66 56//56 58//58
f 53//53 67//67 61//61
f 67//67 53//53 59//59
f 60//60 54//54 68//68
f 62//62 68//68 54//54
f 61//61 69//69 2//2
f 5//5 70//70 62//62
f 2//2 71//71 63//63
f 64//64 72//72 5//5
f 65//65 63//63 73//73
f 63//63 65//65 55//55
f 56//56 66//66 64//64
f 74//74 64//64 66//66
f 69//69 67//67 75//75
f 67//67 69//69 61//61
f 62//62 70//70 68//68
f 76//76 68//68 70//70
f 2//2 69//69 77//77
f 78//78 70//70 5//5
f 2//2 79//79 71//71
f 72//72 80//80 5//5
f 73//73 71//71 81//81
f 71//71 73//73 63//63
f 64//64 74//74 72//72
f 82//82 72//72 74//74
f 77//77 75//75 83//83
f 75//75 77//77 69//69
f 70//70 78//78 76//76
f 84//84 76//76 78//78
f 2//2 77//77 85//85
f 86//86 78//78 5//5
f 2//2 87//87 79//79
f 80//80 88//88 5//5
f 71//71 89//89 81//81
f 89//89 71//71 79//79
f 80//80 72//72 90//90
f 82//82 90//90 72//72
f 85//85 83//83 91//91
f 83//83 85//85 77//77
f 78//78 86//86 84//84
f 92//92 84//84 86//86
f 2//2 85//85 93//93
f 94//94 86//86 5//5
f 2//2 93//93 87//87
f 88//88 94//94 5//5
f 79//79 95//95 89//89
f 95//95 79//79 87//87
f 88//88 80//80 96//96
f 90//90 96//96 80//80
f 93//93 91//91 97//97
f 91//91 93//93 85//85
f 86//86 94//94 92//92
f 98//98 92//92 94//94
f 87//87 97//97 95//95
f 97//97 87//87 93//93
f 94//94 88//88 98//98
f 96//96 98//98 88//88
