# SSTK version 0.8.0
# 118
mtllib original-118.mtl
o #ID634
v -0.293810 0.604693 0.382558
v -0.293816 0.601245 0.390103
v -0.293816 0.604693 0.390103
v -0.293810 0.601245 0.382558
v -0.293810 0.601245 0.382558
v -0.293810 0.604693 0.382558
v -0.293816 0.601245 0.390103
v -0.293816 0.604693 0.390103
v -0.293810 0.608483 0.382558
v -0.293816 0.604693 0.390103
v -0.293816 0.608483 0.390103
v -0.293810 0.604693 0.382558
v -0.293810 0.604693 0.382558
v -0.293810 0.608483 0.382558
v -0.293816 0.604693 0.390103
v -0.293816 0.608483 0.390103
vn -0.9999996685678051 0 -0.0008141647744089772
vn 0.9999996685678051 0 0.0008141647744089772
usemtl material_0_0
f 1//1 2//1 3//1
f 2//1 1//1 4//1
f 5//2 6//2 7//2
f 8//2 7//2 6//2
f 9//1 10//1 11//1
f 10//1 9//1 12//1
f 13//2 14//2 15//2
f 16//2 15//2 14//2
