# SSTK version 0.8.0
# 103
mtllib original-103.mtl
o handle/ID568#ID568
v -0.282085 0.662268 -0.211752
v -0.283482 0.661630 -0.213262
v -0.283811 0.661548 -0.212819
v -0.283811 0.661548 -0.212819
v -0.283482 0.661630 -0.213262
v -0.282085 0.662268 -0.211752
v -0.284018 0.661496 -0.212304
v -0.284018 0.661496 -0.212304
v -0.283053 0.661737 -0.213601
v -0.283053 0.661737 -0.213601
v -0.284647 0.660490 -0.214669
v -0.285284 0.660331 -0.213814
v -0.284647 0.660490 -0.214669
v -0.285284 0.660331 -0.213814
v -0.284088 0.661479 -0.211752
v -0.284088 0.661479 -0.211752
v -0.285683 0.660232 -0.212819
v -0.285683 0.660232 -0.212819
v -0.282553 0.661861 -0.213814
v -0.282553 0.661861 -0.213814
v -0.283819 0.660696 -0.215324
v -0.283819 0.660696 -0.215324
v -0.285503 0.658925 -0.215877
v -0.286402 0.658701 -0.214669
v -0.285503 0.658925 -0.215877
v -0.286402 0.658701 -0.214669
v -0.284018 0.661496 -0.211199
v -0.284018 0.661496 -0.211199
v -0.285820 0.660198 -0.211752
v -0.285820 0.660198 -0.211752
v -0.286968 0.658560 -0.213262
v -0.286968 0.658560 -0.213262
v -0.282017 0.661995 -0.213887
v -0.282017 0.661995 -0.213887
v -0.282853 0.660937 -0.215736
v -0.282853 0.660937 -0.215736
v -0.284330 0.659218 -0.216804
v -0.284330 0.659218 -0.216804
v -0.287090 0.656769 -0.215324
v -0.285989 0.657043 -0.216804
v -0.285989 0.657043 -0.216804
v -0.287090 0.656769 -0.215324
v -0.283811 0.661548 -0.210684
v -0.283811 0.661548 -0.210684
v -0.285683 0.660232 -0.210684
v -0.285683 0.660232 -0.210684
v -0.287160 0.658512 -0.211752
v -0.287160 0.658512 -0.211752
v -0.287783 0.656596 -0.213601
v -0.287783 0.656596 -0.213601
v -0.281480 0.662129 -0.213814
v -0.281480 0.662129 -0.213814
v -0.281817 0.661195 -0.215877
v -0.281817 0.661195 -0.215877
v -0.282965 0.659558 -0.217387
v -0.282965 0.659558 -0.217387
v -0.284553 0.657401 -0.217939
v -0.284553 0.657401 -0.217939
v -0.287302 0.654665 -0.215736
v -0.286073 0.654972 -0.217387
v -0.286073 0.654972 -0.217387
v -0.287302 0.654665 -0.215736
v -0.283482 0.661630 -0.210242
v -0.283482 0.661630 -0.210242
v -0.285284 0.660331 -0.209689
v -0.285284 0.660331 -0.209689
v -0.286968 0.658560 -0.210242
v -0.286968 0.658560 -0.210242
v -0.288019 0.656537 -0.211752
v -0.288019 0.656537 -0.211752
v -0.288074 0.654473 -0.213814
v -0.288074 0.654473 -0.213814
v -0.280981 0.662253 -0.213601
v -0.280981 0.662253 -0.213601
v -0.280781 0.661454 -0.215736
v -0.280781 0.661454 -0.215736
v -0.281500 0.659923 -0.217585
v -0.281500 0.659923 -0.217585
v -0.282881 0.657818 -0.218653
v -0.282881 0.657818 -0.218653
v -0.284471 0.655371 -0.218653
v -0.284471 0.655371 -0.218653
v -0.287021 0.652534 -0.215877
v -0.285749 0.652852 -0.217585
v -0.285749 0.652852 -0.217585
v -0.287021 0.652534 -0.215877
v -0.283053 0.661737 -0.209903
v -0.283053 0.661737 -0.209903
v -0.284647 0.660490 -0.208835
v -0.284647 0.660490 -0.208835
v -0.286402 0.658701 -0.208835
v -0.286402 0.658701 -0.208835
v -0.287783 0.656596 -0.209903
v -0.287783 0.656596 -0.209903
v -0.288338 0.654407 -0.211752
v -0.288338 0.654407 -0.211752
v -0.287821 0.652335 -0.213887
v -0.287821 0.652335 -0.213887
v -0.280552 0.662360 -0.213262
v -0.280552 0.662360 -0.213262
v -0.279816 0.661694 -0.215324
v -0.279816 0.661694 -0.215324
v -0.280035 0.660289 -0.217387
v -0.280035 0.660289 -0.217387
v -0.281087 0.658265 -0.218897
v -0.281087 0.658265 -0.218897
v -0.282607 0.655836 -0.219449
v -0.282607 0.655836 -0.219449
v -0.284091 0.653265 -0.218897
v -0.284091 0.653265 -0.218897
v -0.287021 0.652534 -0.215877
v -0.267521 0.584868 -0.216345
v -0.268522 0.584618 -0.215000
v -0.285749 0.652852 -0.217585
v -0.285749 0.652852 -0.217585
v -0.287021 0.652534 -0.215877
v -0.267521 0.584868 -0.216345
v -0.268522 0.584618 -0.215000
v -0.282553 0.661861 -0.209689
v -0.282553 0.661861 -0.209689
v -0.283819 0.660696 -0.208179
v -0.283819 0.660696 -0.208179
v -0.285503 0.658925 -0.207627
v -0.285503 0.658925 -0.207627
v -0.287090 0.656769 -0.208179
v -0.287090 0.656769 -0.208179
v -0.288074 0.654473 -0.209689
v -0.288074 0.654473 -0.209689
v -0.288094 0.652267 -0.211752
v -0.288094 0.652267 -0.211752
v -0.287821 0.652335 -0.213887
v -0.269152 0.584461 -0.213433
v -0.287821 0.652335 -0.213887
v -0.269152 0.584461 -0.213433
v -0.280222 0.662443 -0.212819
v -0.280222 0.662443 -0.212819
v -0.278987 0.661901 -0.214669
v -0.278987 0.661901 -0.214669
v -0.278670 0.660629 -0.216804
v -0.278670 0.660629 -0.216804
v -0.279292 0.658713 -0.218653
v -0.279292 0.658713 -0.218653
v -0.280605 0.656335 -0.219721
v -0.280605 0.656335 -0.219721
v -0.282161 0.653746 -0.219721
v -0.282161 0.653746 -0.219721
v -0.266215 0.585193 -0.217378
v -0.284091 0.653265 -0.218897
v -0.284091 0.653265 -0.218897
v -0.266215 0.585193 -0.217378
v -0.269152 0.584461 -0.213433
v -0.269152 0.584461 -0.210070
v -0.269367 0.584407 -0.211752
v -0.268522 0.584618 -0.215000
v -0.268522 0.584618 -0.208504
v -0.267521 0.584868 -0.216345
v -0.267521 0.584868 -0.207158
v -0.266215 0.585193 -0.217378
v -0.266215 0.585193 -0.206126
v -0.264695 0.585572 -0.218027
v -0.264695 0.585572 -0.205477
v -0.263064 0.585979 -0.218248
v -0.263064 0.585979 -0.205256
v -0.261432 0.586386 -0.218027
v -0.261432 0.586386 -0.205477
v -0.259912 0.586765 -0.217378
v -0.259912 0.586765 -0.206126
v -0.258607 0.587090 -0.216345
v -0.258607 0.587090 -0.207158
v -0.257605 0.587340 -0.215000
v -0.257605 0.587340 -0.208504
v -0.256975 0.587497 -0.213433
v -0.256975 0.587497 -0.210070
v -0.256761 0.587551 -0.211752
v -0.256761 0.587551 -0.211752
v -0.256975 0.587497 -0.213433
v -0.256975 0.587497 -0.210070
v -0.257605 0.587340 -0.208504
v -0.257605 0.587340 -0.215000
v -0.258607 0.587090 -0.207158
v -0.258607 0.587090 -0.216345
v -0.259912 0.586765 -0.206126
v -0.259912 0.586765 -0.217378
v -0.261432 0.586386 -0.205477
v -0.261432 0.586386 -0.218027
v -0.263064 0.585979 -0.205256
v -0.263064 0.585979 -0.218248
v -0.264695 0.585572 -0.205477
v -0.264695 0.585572 -0.218027
v -0.266215 0.585193 -0.206126
v -0.266215 0.585193 -0.217378
v -0.267521 0.584868 -0.207158
v -0.267521 0.584868 -0.216345
v -0.268522 0.584618 -0.208504
v -0.268522 0.584618 -0.215000
v -0.269152 0.584461 -0.210070
v -0.269152 0.584461 -0.213433
v -0.269367 0.584407 -0.211752
v -0.282017 0.661995 -0.209617
v -0.282017 0.661995 -0.209617
v -0.282853 0.660937 -0.207767
v -0.282853 0.660937 -0.207767
v -0.284330 0.659218 -0.206700
v -0.284330 0.659218 -0.206700
v -0.285989 0.657043 -0.206700
v -0.285989 0.657043 -0.206700
v -0.287302 0.654665 -0.207767
v -0.287302 0.654665 -0.207767
v -0.287821 0.652335 -0.209617
v -0.287821 0.652335 -0.209617
v -0.269367 0.584407 -0.211752
v -0.288094 0.652267 -0.211752
v -0.269367 0.584407 -0.211752
v -0.288094 0.652267 -0.211752
v -0.280015 0.662494 -0.212304
v -0.280015 0.662494 -0.212304
v -0.278351 0.662060 -0.213814
v -0.278351 0.662060 -0.213814
v -0.277498 0.660921 -0.215877
v -0.277498 0.660921 -0.215877
v -0.277620 0.659130 -0.217939
v -0.277620 0.659130 -0.217939
v -0.278604 0.656834 -0.219449
v -0.278604 0.656834 -0.219449
v -0.280089 0.654263 -0.220002
v -0.280089 0.654263 -0.220002
v -0.264695 0.585572 -0.218027
v -0.282161 0.653746 -0.219721
v -0.282161 0.653746 -0.219721
v -0.264695 0.585572 -0.218027
v -0.287821 0.652335 -0.209617
v -0.268522 0.584618 -0.208504
v -0.287021 0.652534 -0.207627
v -0.269152 0.584461 -0.210070
v -0.269152 0.584461 -0.210070
v -0.287821 0.652335 -0.209617
v -0.268522 0.584618 -0.208504
v -0.287021 0.652534 -0.207627
v -0.263064 0.585979 -0.218248
v -0.280089 0.654263 -0.220002
v -0.280089 0.654263 -0.220002
v -0.263064 0.585979 -0.218248
v -0.278017 0.654780 -0.219721
v -0.261432 0.586386 -0.218027
v -0.278017 0.654780 -0.219721
v -0.261432 0.586386 -0.218027
v -0.259912 0.586765 -0.217378
v -0.276086 0.655261 -0.218897
v -0.276086 0.655261 -0.218897
v -0.259912 0.586765 -0.217378
v -0.258607 0.587090 -0.216345
v -0.274428 0.655674 -0.217585
v -0.274428 0.655674 -0.217585
v -0.258607 0.587090 -0.216345
v -0.273156 0.655991 -0.215877
v -0.257605 0.587340 -0.215000
v -0.273156 0.655991 -0.215877
v -0.257605 0.587340 -0.215000
v -0.272357 0.656191 -0.213887
v -0.256975 0.587497 -0.213433
v -0.272357 0.656191 -0.213887
v -0.256975 0.587497 -0.213433
v -0.272084 0.656259 -0.211752
v -0.256761 0.587551 -0.211752
v -0.272084 0.656259 -0.211752
v -0.256761 0.587551 -0.211752
v -0.256975 0.587497 -0.210070
v -0.272357 0.656191 -0.209617
v -0.256975 0.587497 -0.210070
v -0.272357 0.656191 -0.209617
v -0.257605 0.587340 -0.208504
v -0.273156 0.655991 -0.207627
v -0.257605 0.587340 -0.208504
v -0.273156 0.655991 -0.207627
v -0.258607 0.587090 -0.207158
v -0.274428 0.655674 -0.205918
v -0.258607 0.587090 -0.207158
v -0.274428 0.655674 -0.205918
v -0.276086 0.655261 -0.204607
v -0.259912 0.586765 -0.206126
v -0.276086 0.655261 -0.204607
v -0.259912 0.586765 -0.206126
v -0.261432 0.586386 -0.205477
v -0.278017 0.654780 -0.203783
v -0.278017 0.654780 -0.203783
v -0.261432 0.586386 -0.205477
v -0.263064 0.585979 -0.205256
v -0.280089 0.654263 -0.203502
v -0.280089 0.654263 -0.203502
v -0.263064 0.585979 -0.205256
v -0.282161 0.653746 -0.203783
v -0.264695 0.585572 -0.205477
v -0.282161 0.653746 -0.203783
v -0.264695 0.585572 -0.205477
v -0.266215 0.585193 -0.206126
v -0.284091 0.653265 -0.204607
v -0.284091 0.653265 -0.204607
v -0.266215 0.585193 -0.206126
v -0.285749 0.652852 -0.205918
v -0.267521 0.584868 -0.207158
v -0.285749 0.652852 -0.205918
v -0.267521 0.584868 -0.207158
v -0.281480 0.662129 -0.209689
v -0.281480 0.662129 -0.209689
v -0.281817 0.661195 -0.207627
v -0.281817 0.661195 -0.207627
v -0.282965 0.659558 -0.206117
v -0.282965 0.659558 -0.206117
v -0.284553 0.657401 -0.205564
v -0.284553 0.657401 -0.205564
v -0.286073 0.654972 -0.206117
v -0.286073 0.654972 -0.206117
v -0.287021 0.652534 -0.207627
v -0.287021 0.652534 -0.207627
v -0.279945 0.662512 -0.211752
v -0.279945 0.662512 -0.211752
v -0.277951 0.662159 -0.212819
v -0.277951 0.662159 -0.212819
v -0.276598 0.661146 -0.214669
v -0.276598 0.661146 -0.214669
v -0.276185 0.659488 -0.216804
v -0.276185 0.659488 -0.216804
v -0.276739 0.657299 -0.218653
v -0.276739 0.657299 -0.218653
v -0.278017 0.654780 -0.219721
v -0.278017 0.654780 -0.219721
v -0.276086 0.655261 -0.218897
v -0.276086 0.655261 -0.218897
v -0.274428 0.655674 -0.217585
v -0.275138 0.657698 -0.217387
v -0.275138 0.657698 -0.217387
v -0.274428 0.655674 -0.217585
v -0.273156 0.655991 -0.215877
v -0.273909 0.658004 -0.215736
v -0.273156 0.655991 -0.215877
v -0.273909 0.658004 -0.215736
v -0.272357 0.656191 -0.213887
v -0.273137 0.658197 -0.213814
v -0.272357 0.656191 -0.213887
v -0.273137 0.658197 -0.213814
v -0.272873 0.658263 -0.211752
v -0.272084 0.656259 -0.211752
v -0.272873 0.658263 -0.211752
v -0.272084 0.656259 -0.211752
v -0.273137 0.658197 -0.209689
v -0.272357 0.656191 -0.209617
v -0.273137 0.658197 -0.209689
v -0.272357 0.656191 -0.209617
v -0.273909 0.658004 -0.207767
v -0.273156 0.655991 -0.207627
v -0.273909 0.658004 -0.207767
v -0.273156 0.655991 -0.207627
v -0.275138 0.657698 -0.206117
v -0.274428 0.655674 -0.205918
v -0.275138 0.657698 -0.206117
v -0.274428 0.655674 -0.205918
v -0.276086 0.655261 -0.204607
v -0.276739 0.657299 -0.204850
v -0.276739 0.657299 -0.204850
v -0.276086 0.655261 -0.204607
v -0.278017 0.654780 -0.203783
v -0.278604 0.656834 -0.204054
v -0.278604 0.656834 -0.204054
v -0.278017 0.654780 -0.203783
v -0.280089 0.654263 -0.203502
v -0.280605 0.656335 -0.203783
v -0.280605 0.656335 -0.203783
v -0.280089 0.654263 -0.203502
v -0.282161 0.653746 -0.203783
v -0.282607 0.655836 -0.204054
v -0.282607 0.655836 -0.204054
v -0.282161 0.653746 -0.203783
v -0.284091 0.653265 -0.204607
v -0.284471 0.655371 -0.204850
v -0.284471 0.655371 -0.204850
v -0.284091 0.653265 -0.204607
v -0.285749 0.652852 -0.205918
v -0.285749 0.652852 -0.205918
v -0.280981 0.662253 -0.209903
v -0.280981 0.662253 -0.209903
v -0.280781 0.661454 -0.207767
v -0.280781 0.661454 -0.207767
v -0.281500 0.659923 -0.205918
v -0.281500 0.659923 -0.205918
v -0.282881 0.657818 -0.204850
v -0.282881 0.657818 -0.204850
v -0.280015 0.662494 -0.211199
v -0.280015 0.662494 -0.211199
v -0.277815 0.662193 -0.211752
v -0.277815 0.662193 -0.211752
v -0.276033 0.661287 -0.213262
v -0.276033 0.661287 -0.213262
v -0.275083 0.659762 -0.215324
v -0.275083 0.659762 -0.215324
v -0.274390 0.659935 -0.213601
v -0.274390 0.659935 -0.213601
v -0.274154 0.659994 -0.211752
v -0.274154 0.659994 -0.211752
v -0.274390 0.659935 -0.209903
v -0.274390 0.659935 -0.209903
v -0.275083 0.659762 -0.208179
v -0.275083 0.659762 -0.208179
v -0.276185 0.659488 -0.206700
v -0.276185 0.659488 -0.206700
v -0.277620 0.659130 -0.205564
v -0.277620 0.659130 -0.205564
v -0.279292 0.658713 -0.204850
v -0.279292 0.658713 -0.204850
v -0.281087 0.658265 -0.204607
v -0.281087 0.658265 -0.204607
v -0.280552 0.662360 -0.210242
v -0.280552 0.662360 -0.210242
v -0.279816 0.661694 -0.208179
v -0.279816 0.661694 -0.208179
v -0.280035 0.660289 -0.206117
v -0.280035 0.660289 -0.206117
v -0.280222 0.662443 -0.210684
v -0.280222 0.662443 -0.210684
v -0.277951 0.662159 -0.210684
v -0.277951 0.662159 -0.210684
v -0.275840 0.661335 -0.211752
v -0.275840 0.661335 -0.211752
v -0.276033 0.661287 -0.210242
v -0.276033 0.661287 -0.210242
v -0.276598 0.661146 -0.208835
v -0.276598 0.661146 -0.208835
v -0.277498 0.660921 -0.207627
v -0.277498 0.660921 -0.207627
v -0.278670 0.660629 -0.206700
v -0.278670 0.660629 -0.206700
v -0.278987 0.661901 -0.208835
v -0.278987 0.661901 -0.208835
v -0.278351 0.662060 -0.209689
v -0.278351 0.662060 -0.209689
vn -0.24192190591038248 0.9702957237052464 0
vn -0.41750979919540476 0.8885548096873617 -0.19014709505345956
vn -0.45897499725171 0.8782163709297411 -0.13445429605924863
vn 0.45897499725171 -0.8782163709297411 0.13445429605924863
vn 0.41750979919540476 -0.8885548096873617 0.19014709505345956
vn 0.24192190591038248 -0.9702957237052464 0
vn -0.48504111577244674 0.8717173518305068 -0.06959866757222025
vn 0.48504111577244674 -0.8717173518305068 0.06959866757222025
vn -0.36347131272324 0.9020281158121672 -0.23288169338012787
vn 0.36347131272324 -0.9020281158121672 0.23288169338012787
vn -0.5569566114712817 0.7488219650572367 -0.35925617264877474
vn -0.6352991803719824 0.7292890000030705 -0.2540324898378338
vn 0.5569566114712817 -0.7488219650572367 0.35925617264877474
vn 0.6352991803719824 -0.7292890000030705 0.2540324898378338
vn -0.4939317462989184 0.8695006785495344 0
vn 0.4939317462989184 -0.8695006785495344 0
vn -0.6845474174749074 0.7170100415212 -0.13149689572838497
vn 0.6845474174749074 -0.7170100415212 0.13149689572838497
vn -0.30054217104674935 0.9177181088467876 -0.2597457913368033
vn 0.30054217104674935 -0.9177181088467876 0.2597457913368033
vn -0.4548585284755807 0.7742779122077813 -0.4399970837860054
vn 0.4548585284755807 -0.7742779122077813 0.4399970837860054
vn -0.6585787755808782 0.5589964338298805 -0.5037826746920419
vn -0.768438154581917 0.5316053915997123 -0.35622817154859404
vn 0.6585787755808782 -0.5589964338298805 0.5037826746920419
vn 0.768438154581917 -0.5316053915997123 0.35622817154859404
vn -0.48504111577244663 0.8717173518305067 0.06959866757222066
vn 0.48504111577244663 -0.8717173518305067 -0.06959866757222066
vn -0.7013450792692677 0.712821913092453 0
vn 0.7013450792692677 -0.712821913092453 0
vn -0.8374986140150136 0.5143867303727568 -0.1843972969957962
vn 0.8374986140150136 -0.5143867303727568 0.1843972969957962
vn -0.2330108821687337 0.9345555612018948 -0.26890859379640514
vn 0.2330108821687337 -0.9345555612018948 0.26890859379640514
vn -0.33596276457208674 0.8039219656337725 -0.4907529867383511
vn 0.33596276457208674 -0.8039219656337725 0.4907529867383511
vn -0.5154072668348543 0.5946930848394639 -0.6170052545464647
vn 0.5154072668348543 -0.5946930848394639 0.6170052545464647
vn -0.8497981219420084 0.29864331756872725 -0.43434470275966275
vn -0.7158478990885129 0.332040845786679 -0.6142561860492974
vn 0.7158478990885129 -0.332040845786679 0.6142561860492974
vn 0.8497981219420084 -0.29864331756872725 0.43434470275966275
vn -0.45897499725171 0.8782163709297411 0.13445429605924905
vn 0.45897499725171 -0.8782163709297411 -0.13445429605924905
vn -0.6845474174749075 0.7170100415212 0.13149689572838533
vn 0.6845474174749075 -0.7170100415212 -0.13149689572838533
vn -0.8610538832058052 0.5085137266743185 0
vn 0.8610538832058052 -0.5085137266743185 0
vn -0.9340027523715398 0.2776487110473595 -0.2248333867914813
vn 0.9340027523715398 -0.2776487110473595 0.2248333867914813
vn -0.16547958849858452 0.9513929943368078 -0.2597457913368033
vn 0.16547958849858452 -0.9513929943368078 0.2597457913368033
vn -0.20837188514726723 0.8357339462003492 -0.5080648862582081
vn 0.20837188514726723 -0.8357339462003492 0.5080648862582081
vn -0.3486805113241272 0.6362627849543824 -0.6881798961789268
vn 0.3486805113241272 -0.6362627849543824 0.6881798961789268
vn -0.5412805604149251 0.37556539321456356 -0.752307111714687
vn 0.5412805604149251 -0.37556539321456356 0.752307111714687
vn -0.8742340778164857 0.046017649635387244 -0.48331889380241866
vn -0.7251804023751365 0.08318088956393725 -0.6835161473018668
vn 0.7251804023751365 -0.08318088956393725 0.6835161473018668
vn 0.8742340778164857 -0.046017649635387244 0.48331889380241866
vn -0.41750979919540476 0.8885548096873616 0.19014709505345997
vn 0.41750979919540476 -0.8885548096873616 -0.19014709505345997
vn -0.6352991803719823 0.7292890000030702 0.25403248983783416
vn 0.6352991803719823 -0.7292890000030702 -0.25403248983783416
vn -0.8374986140150136 0.5143867303727567 0.18439729699579643
vn 0.8374986140150136 -0.5143867303727567 -0.18439729699579643
vn -0.962723390787651 0.27048784229670575 0
vn 0.962723390787651 -0.27048784229670575 0
vn -0.9679331218877447 0.022655855965293546 -0.2501842995535978
vn 0.9679331218877447 -0.022655855965293546 0.2501842995535978
vn -0.10255044911804105 0.9670829965799689 -0.23288169338012787
vn 0.10255044911804105 -0.9670829965799689 0.23288169338012787
vn -0.08078100573255338 0.867545926807466 -0.4907529867383511
vn 0.08078100573255338 -0.867545926807466 0.4907529867383511
vn -0.16976059300558669 0.6808725188698075 -0.7124562822449354
vn 0.16976059300558669 -0.6808725188698075 0.7124562822449354
vn -0.33799261410187126 0.42625074337462243 -0.8390895641021674
vn 0.33799261410187126 -0.42625074337462243 0.8390895641021674
vn -0.5309298687044016 0.13161300934898404 -0.8371328988205106
vn 0.5309298687044016 -0.13161300934898404 0.8371328988205106
vn -0.8646890127910929 -0.08106910641383407 -0.495722413396477
vn -0.7118101368713559 -0.04295212821676864 -0.7010573754899322
vn 0.7118101368713559 0.04295212821676864 0.7010573754899322
vn 0.8646890127910929 0.08106910641383407 0.495722413396477
vn -0.36347131272323996 0.9020281158121671 0.23288169338012826
vn 0.36347131272323996 -0.9020281158121671 -0.23288169338012826
vn -0.5569566114712818 0.7488219650572366 0.35925617264877524
vn 0.5569566114712818 -0.7488219650572366 -0.35925617264877524
vn -0.7684381545819169 0.5316053915997121 0.35622817154859426
vn 0.7684381545819169 -0.5316053915997121 -0.35622817154859426
vn -0.9340027523715398 0.27764871104735944 0.22483338679148143
vn 0.9340027523715398 -0.27764871104735944 -0.22483338679148143
vn -0.9998921317221958 0.014687577065094888 0
vn 0.9998921317221958 -0.014687577065094888 0
vn -0.9607926852767882 -0.10503045103690829 -0.2566047939411939
vn 0.9607926852767882 0.10503045103690829 0.2566047939411939
vn -0.04851196376974282 0.9805563072123568 -0.19014709505345953
vn 0.04851196376974282 -0.9805563072123568 0.19014709505345953
vn 0.03811476226635195 0.8971899638076603 -0.4399970837860054
vn -0.03811476226635195 -0.8971899638076603 0.4399970837860054
vn 0.009159318736945183 0.7254822791601712 -0.6881798961789268
vn -0.009159318736945183 -0.7254822791601712 0.6881798961789268
vn -0.11983772972017716 0.4806428597214563 -0.8686894496506183
vn 0.11983772972017716 -0.4806428597214563 0.8686894496506183
vn -0.304720363978714 0.18801338105947496 -0.9337004167929158
vn 0.304720363978714 -0.18801338105947496 0.9337004167929158
vn -0.5125745044693799 0.006722906307679343 -0.8586164335130955
vn 0.5125745044693799 -0.006722906307679343 0.8586164335130955
vn -0.8340123283135782 -0.23362072564832728 -0.499844768671748
vn -0.6798621375480508 -0.1951867649244192 -0.7068872616810511
vn 0.6798621375480508 0.1951867649244192 0.7068872616810511
vn 0.8340123283135782 0.23362072564832728 0.499844768671748
vn -0.30054217104674935 0.9177181088467876 0.25974579133680376
vn 0.30054217104674935 -0.9177181088467876 -0.25974579133680376
vn -0.4548585284755807 0.774277912207781 0.43999708378600577
vn 0.4548585284755807 -0.774277912207781 -0.43999708378600577
vn -0.6585787755808781 0.5589964338298803 0.5037826746920421
vn 0.6585787755808781 -0.5589964338298803 -0.5037826746920421
vn -0.8497981219420084 0.29864331756872703 0.434344702759663
vn 0.8497981219420084 -0.29864331756872703 -0.434344702759663
vn -0.9679331218877447 0.022655855965293407 0.25018429955359783
vn 0.9679331218877447 -0.022655855965293407 -0.25018429955359783
vn -0.9935718547760897 -0.11320322167147513 0
vn 0.9935718547760897 0.11320322167147513 0
vn -0.930915185125809 -0.2577813227427458 -0.25873868622063667
vn 0.930915185125809 0.2577813227427458 0.25873868622063667
vn -0.007046764177923076 0.9908947398113649 -0.13445429605924863
vn 0.007046764177923076 -0.9908947398113649 0.13445429605924863
vn 0.14021286163287144 0.9226458452984412 -0.35925617264877474
vn -0.14021286163287144 -0.9226458452984412 0.35925617264877474
vn 0.17588609737434482 0.7670518865190771 -0.6170052545464647
vn -0.17588609737434482 -0.7670518865190771 0.6170052545464647
vn 0.09831715102366004 0.5350349906589527 -0.8390895641021674
vn -0.09831715102366004 -0.5350349906589527 0.8390895641021674
vn -0.06196759686953717 0.248538444770165 -0.9666378113903066
vn 0.06196759686953717 -0.248538444770165 0.9666378113903066
vn -0.28055969326230423 0.0645706928055603 -0.9576621973050683
vn 0.28055969326230423 -0.0645706928055603 0.9576621973050683
vn -0.4789696929461088 -0.14509865075410516 -0.865756556306938
vn 0.4789696929461088 0.14509865075410516 0.865756556306938
vn 0.24192190591038204 -0.9702957237052465 0
vn -0.24192190591038204 0.9702957237052465 0
vn -0.23301088216873317 0.9345555612018948 0.2689085937964055
vn 0.23301088216873317 -0.9345555612018948 -0.2689085937964055
vn -0.3359627645720867 0.8039219656337722 0.49075298673835155
vn 0.3359627645720867 -0.8039219656337722 -0.49075298673835155
vn -0.5154072668348543 0.5946930848394636 0.6170052545464649
vn 0.5154072668348543 -0.5946930848394636 -0.6170052545464649
vn -0.7158478990885128 0.33204084578667864 0.6142561860492975
vn 0.7158478990885128 -0.33204084578667864 -0.6142561860492975
vn -0.8742340778164857 0.046017649635387035 0.48331889380241877
vn 0.8742340778164857 -0.046017649635387035 -0.48331889380241877
vn -0.9607926852767882 -0.10503045103690843 0.2566047939411939
vn 0.9607926852767882 0.10503045103690843 -0.2566047939411939
vn -0.9639669433861102 -0.2660220518281141 0
vn 0.9639669433861102 0.2660220518281141 0
vn 0.01901935694010818 0.9973937484934204 -0.06959866757222023
vn -0.01901935694010818 -0.9973937484934204 0.06959866757222023
vn 0.21855541547682128 0.9421788707419335 -0.2540324898378338
vn -0.21855541547682128 -0.9421788707419335 0.2540324898378338
vn 0.31905759816466717 0.8027485694372344 -0.5037826746920419
vn -0.31905759816466717 -0.8027485694372344 0.5037826746920419
vn 0.30160508335079567 0.5857203969134631 -0.752307111714687
vn -0.30160508335079567 -0.5857203969134631 0.752307111714687
vn 0.18078516947100876 0.30906351156368156 -0.9337004167929158
vn -0.18078516947100876 -0.30906351156368156 0.9337004167929158
vn -0.03157714659222196 0.12664901175420817 -0.9914448606124173
vn 0.03157714659222196 -0.12664901175420817 0.9914448606124173
vn -0.24502548574598895 -0.08676980662702156 -0.965625968992576
vn 0.24502548574598895 0.08676980662702156 0.965625968992576
vn -0.930915185125809 -0.2577813227427459 0.2587386862206366
vn -0.8340123283135782 -0.2336207256483275 0.499844768671748
vn 0.930915185125809 0.2577813227427459 -0.2587386862206366
vn 0.8340123283135782 0.2336207256483275 -0.499844768671748
vn 0.006027566473854279 -0.02417524759455526 -0.9996895647380468
vn 0.006027566473853369 -0.02417524759455549 -0.9996895647380468
vn -0.006027566473853369 0.02417524759455549 0.9996895647380468
vn -0.006027566473854279 0.02417524759455526 0.9996895647380468
vn 0.2570806187318126 0.03841931128504203 -0.965625968992576
vn -0.2570806187318126 -0.03841931128504203 0.965625968992576
vn 0.4910248257106383 0.09674815629968851 -0.865756556306938
vn -0.4910248257106383 -0.09674815629968851 0.865756556306938
vn 0.6919172702674947 0.14683627065083027 -0.7068872616810509
vn -0.6919172702674947 -0.14683627065083027 0.7068872616810509
vn 0.8460674609309399 0.1852702317841681 -0.499844768671748
vn -0.8460674609309399 -0.1852702317841681 0.499844768671748
vn 0.9429703178567307 0.2094308284231222 -0.2587386862206366
vn -0.9429703178567307 -0.2094308284231222 0.2587386862206366
vn 0.9760220760394839 0.2176715578195186 0
vn -0.9760220760394839 -0.2176715578195186 0
vn 0.9429703178567307 0.20943082842312205 0.25873868622063667
vn -0.9429703178567307 -0.20943082842312205 -0.25873868622063667
vn 0.8460674609309399 0.1852702317841679 0.499844768671748
vn -0.8460674609309399 -0.1852702317841679 -0.499844768671748
vn 0.6919172702674948 0.14683627065082994 0.7068872616810511
vn -0.6919172702674948 -0.14683627065082994 -0.7068872616810511
vn 0.4910248257106383 0.09674815629968814 0.865756556306938
vn -0.4910248257106383 -0.09674815629968814 -0.865756556306938
vn 0.2570806187318127 0.03841931128504159 0.965625968992576
vn -0.2570806187318127 -0.03841931128504159 -0.965625968992576
vn 0.006027566473854742 -0.024175247594555603 0.9996895647380468
vn 0.0060275664738547695 -0.0241752475945556 0.9996895647380468
vn -0.0060275664738547695 0.0241752475945556 -0.9996895647380468
vn -0.006027566473854742 0.024175247594555603 -0.9996895647380468
vn -0.2450254857459889 -0.086769806627022 0.965625968992576
vn 0.2450254857459889 0.086769806627022 -0.965625968992576
vn -0.4789696929461088 -0.14509865075410555 0.865756556306938
vn 0.4789696929461088 0.14509865075410555 -0.865756556306938
vn -0.6798621375480507 -0.1951867649244195 0.7068872616810509
vn 0.6798621375480507 0.1951867649244195 -0.7068872616810509
vn -0.16547958849858452 0.9513929943368077 0.25974579133680376
vn 0.16547958849858452 -0.9513929943368077 -0.25974579133680376
vn -0.20837188514726634 0.8357339462003492 0.5080648862582086
vn 0.20837188514726634 -0.8357339462003492 -0.5080648862582086
vn -0.34868051132412714 0.636262784954382 0.6881798961789272
vn 0.34868051132412714 -0.636262784954382 -0.6881798961789272
vn -0.5412805604149251 0.37556539321456317 0.7523071117146873
vn 0.5412805604149251 -0.37556539321456317 -0.7523071117146873
vn -0.7251804023751365 0.08318088956393697 0.6835161473018668
vn 0.7251804023751365 -0.08318088956393697 -0.6835161473018668
vn -0.8646890127910929 -0.08106910641383427 0.495722413396477
vn 0.8646890127910929 0.08106910641383427 -0.495722413396477
vn 0.027909982784747597 0.9996104405521958 0
vn -0.027909982784747597 -0.9996104405521958 0
vn 0.2678036494462999 0.9544578417913708 -0.1314968957283849
vn -0.2678036494462999 -0.9544578417913708 0.1314968957283849
vn 0.4289169872266089 0.8301395713153267 -0.356228171548594
vn -0.4289169872266089 -0.8301395713153267 0.356228171548594
vn 0.4761724311999323 0.6292449075402332 -0.6142561860492974
vn -0.4761724311999323 -0.6292449075402332 0.6142561860492974
vn 0.4069946766003328 0.36546387363371435 -0.8371328988205106
vn -0.4069946766003328 -0.36546387363371435 0.8371328988205106
vn 0.2174053977466261 0.18872734005294411 -0.9576621973050683
vn -0.2174053977466261 -0.18872734005294411 0.9576621973050683
vn 0.4494202063109734 0.24657513715022922 -0.8586164335130952
vn -0.4494202063109734 -0.24657513715022922 0.8586164335130952
vn 0.6486558433859303 0.29625015293237505 -0.7010573754899322
vn 0.6012452196516758 0.4138959557951987 -0.6835161473018668
vn -0.6012452196516758 -0.4138959557951987 0.6835161473018668
vn -0.6486558433859303 -0.29625015293237505 0.7010573754899322
vn 0.8015347153910027 0.3343671468303018 -0.4957224133964769
vn 0.7502988871270133 0.4510592276736746 -0.48331889380241866
vn -0.8015347153910027 -0.3343671468303018 0.4957224133964769
vn -0.7502988871270133 -0.4510592276736746 0.48331889380241866
vn 0.8976383910745523 0.3583284786274829 -0.2566047939411938
vn 0.8439979298301925 0.47442102683083653 -0.25018429955359767
vn -0.8976383910745523 -0.3583284786274829 0.2566047939411938
vn -0.8439979298301925 -0.47442102683083653 0.25018429955359767
vn 0.8759569408123185 0.482389301127963 0
vn 0.9304175631082826 0.3665012390970115 0
vn -0.8759569408123185 -0.482389301127963 0
vn -0.9304175631082826 -0.3665012390970115 0
vn 0.8439979298301925 0.4744210268308364 0.2501842995535979
vn 0.8976383910745523 0.3583284786274828 0.2566047939411939
vn -0.8439979298301925 -0.4744210268308364 -0.2501842995535979
vn -0.8976383910745523 -0.3583284786274828 -0.2566047939411939
vn 0.7502988871270133 0.4510592276736744 0.48331889380241877
vn 0.8015347153910028 0.33436714683030166 0.495722413396477
vn -0.7502988871270133 -0.4510592276736744 -0.48331889380241877
vn -0.8015347153910028 -0.33436714683030166 -0.495722413396477
vn 0.6012452196516758 0.4138959557951984 0.6835161473018668
vn 0.6486558433859303 0.2962501529323748 0.7010573754899322
vn -0.6012452196516758 -0.4138959557951984 -0.6835161473018668
vn -0.6486558433859303 -0.2962501529323748 -0.7010573754899322
vn 0.4494202063109735 0.24657513715022888 0.8586164335130955
vn 0.4069946766003328 0.365463873633714 0.8371328988205106
vn -0.4069946766003328 -0.365463873633714 -0.8371328988205106
vn -0.4494202063109735 -0.24657513715022888 -0.8586164335130955
vn 0.2174053977466262 0.18872734005294373 0.9576621973050685
vn 0.18078516947100887 0.30906351156368117 0.9337004167929159
vn -0.18078516947100887 -0.30906351156368117 -0.9337004167929159
vn -0.2174053977466262 -0.18872734005294373 -0.9576621973050685
vn -0.03157714659221999 0.1266490117542082 0.9914448606124173
vn -0.061967596869535145 0.24853844477016512 0.9666378113903067
vn 0.061967596869535145 -0.24853844477016512 -0.9666378113903067
vn 0.03157714659221999 -0.1266490117542082 -0.9914448606124173
vn -0.2805596932623042 0.06457069280555988 0.9576621973050683
vn -0.30472036397871394 0.18801338105947454 0.9337004167929158
vn 0.30472036397871394 -0.18801338105947454 -0.9337004167929158
vn 0.2805596932623042 -0.06457069280555988 -0.9576621973050683
vn -0.5125745044693799 0.006722906307678961 0.8586164335130955
vn -0.5309298687044016 0.13161300934898365 0.8371328988205106
vn 0.5309298687044016 -0.13161300934898365 -0.8371328988205106
vn 0.5125745044693799 -0.006722906307678961 -0.8586164335130955
vn -0.7118101368713559 -0.042952128216768914 0.7010573754899322
vn 0.7118101368713559 0.042952128216768914 -0.7010573754899322
vn -0.10255044911804102 0.9670829965799688 0.23288169338012826
vn 0.10255044911804102 -0.9670829965799688 -0.23288169338012826
vn -0.08078100573255334 0.8675459268074657 0.49075298673835155
vn 0.08078100573255334 -0.8675459268074657 -0.49075298673835155
vn -0.16976059300558533 0.6808725188698077 0.7124562822449357
vn 0.16976059300558533 -0.6808725188698077 -0.7124562822449357
vn -0.33799261410187126 0.42625074337462204 0.8390895641021676
vn 0.33799261410187126 -0.42625074337462204 -0.8390895641021676
vn 0.019019356940108176 0.9973937484934203 0.06959866757222068
vn -0.019019356940108176 -0.9973937484934203 -0.06959866757222068
vn 0.28460131160287133 0.9586459687673679 0
vn -0.28460131160287133 -0.9586459687673679 0
vn 0.49797742507414755 0.8473583191172231 -0.18439729699579616
vn -0.49797742507414755 -0.8473583191172231 0.18439729699579616
vn 0.6101226470872215 0.6626424636981108 -0.43434470275966275
vn -0.6101226470872215 -0.6626424636981108 0.43434470275966275
vn 0.6943272931200221 0.6836370076381876 -0.2248333867914812
vn -0.6943272931200221 -0.6836370076381876 0.2248333867914812
vn 0.7230479357659856 0.6907978594238311 0
vn -0.7230479357659856 -0.6907978594238311 0
vn 0.6943272931200221 0.6836370076381875 0.2248333867914815
vn -0.6943272931200221 -0.6836370076381875 -0.2248333867914815
vn 0.6101226470872215 0.6626424636981106 0.434344702759663
vn -0.6101226470872215 -0.6626424636981106 -0.434344702759663
vn 0.4761724311999323 0.6292449075402329 0.6142561860492977
vn -0.4761724311999323 -0.6292449075402329 -0.6142561860492977
vn 0.30160508335079567 0.5857203969134627 0.7523071117146873
vn -0.30160508335079567 -0.5857203969134627 -0.7523071117146873
vn 0.09831715102366011 0.5350349906589522 0.8390895641021676
vn -0.09831715102366011 -0.5350349906589522 -0.8390895641021676
vn -0.11983772972017544 0.4806428597214563 0.8686894496506187
vn 0.11983772972017544 -0.4806428597214563 -0.8686894496506187
vn -0.04851196376974283 0.9805563072123568 0.19014709505345997
vn 0.04851196376974283 -0.9805563072123568 -0.19014709505345997
vn 0.03811476226635195 0.89718996380766 0.43999708378600577
vn -0.03811476226635195 -0.89718996380766 -0.43999708378600577
vn 0.009159318736945253 0.7254822791601708 0.6881798961789272
vn -0.009159318736945253 -0.7254822791601708 -0.6881798961789272
vn -0.007046764177923076 0.9908947398113649 0.13445429605924905
vn 0.007046764177923076 -0.9908947398113649 -0.13445429605924905
vn 0.2678036494463 0.9544578417913709 0.13149689572838535
vn -0.2678036494463 -0.9544578417913709 -0.13149689572838535
vn 0.5215327014050374 0.8532312941782926 0
vn -0.5215327014050374 -0.8532312941782926 0
vn 0.49797742507414755 0.8473583191172231 0.1843972969957965
vn -0.49797742507414755 -0.8473583191172231 -0.1843972969957965
vn 0.4289169872266089 0.8301395713153266 0.35622817154859426
vn -0.4289169872266089 -0.8301395713153266 -0.35622817154859426
vn 0.3190575981646671 0.8027485694372342 0.5037826746920421
vn -0.3190575981646671 -0.8027485694372342 -0.5037826746920421
vn 0.17588609737434482 0.7670518865190767 0.6170052545464649
vn -0.17588609737434482 -0.7670518865190767 -0.6170052545464649
vn 0.14021286163287144 0.922645845298441 0.3592561726487752
vn -0.14021286163287144 -0.922645845298441 -0.3592561726487752
vn 0.21855541547682128 0.9421788707419333 0.25403248983783416
vn -0.21855541547682128 -0.9421788707419333 -0.25403248983783416
usemtl material_0_0
f 1//1 2//2 3//3
f 4//4 5//5 6//6
f 1//1 3//3 7//7
f 8//8 4//4 6//6
f 1//1 9//9 2//2
f 5//5 10//10 6//6
f 3//3 11//11 12//12
f 11//11 3//3 2//2
f 5//5 4//4 13//13
f 14//14 13//13 4//4
f 1//1 7//7 15//15
f 16//16 8//8 6//6
f 7//7 12//12 17//17
f 12//12 7//7 3//3
f 4//4 8//8 14//14
f 18//18 14//14 8//8
f 1//1 19//19 9//9
f 10//10 20//20 6//6
f 2//2 21//21 11//11
f 21//21 2//2 9//9
f 10//10 5//5 22//22
f 13//13 22//22 5//5
f 12//12 23//23 24//24
f 23//23 12//12 11//11
f 13//13 14//14 25//25
f 26//26 25//25 14//14
f 1//1 15//15 27//27
f 28//28 16//16 6//6
f 15//15 17//17 29//29
f 17//17 15//15 7//7
f 8//8 16//16 18//18
f 30//30 18//18 16//16
f 17//17 24//24 31//31
f 24//24 17//17 12//12
f 14//14 18//18 26//26
f 32//32 26//26 18//18
f 33//33 19//19 1//1
f 6//6 20//20 34//34
f 9//9 35//35 21//21
f 35//35 9//9 19//19
f 20//20 10//10 36//36
f 22//22 36//36 10//10
f 11//11 37//37 23//23
f 37//37 11//11 21//21
f 22//22 13//13 38//38
f 25//25 38//38 13//13
f 23//23 39//39 24//24
f 39//39 23//23 40//40
f 41//41 25//25 42//42
f 26//26 42//42 25//25
f 1//1 27//27 43//43
f 44//44 28//28 6//6
f 45//45 15//15 29//29
f 15//15 45//45 27//27
f 28//28 46//46 16//16
f 30//30 16//16 46//46
f 29//29 31//31 47//47
f 31//31 29//29 17//17
f 18//18 30//30 32//32
f 48//48 32//32 30//30
f 24//24 49//49 31//31
f 49//49 24//24 39//39
f 42//42 26//26 50//50
f 32//32 50//50 26//26
f 51//51 33//33 1//1
f 6//6 34//34 52//52
f 19//19 53//53 35//35
f 53//53 19//19 33//33
f 34//34 20//20 54//54
f 36//36 54//54 20//20
f 21//21 55//55 37//37
f 55//55 21//21 35//35
f 36//36 22//22 56//56
f 38//38 56//56 22//22
f 23//23 57//57 40//40
f 57//57 23//23 37//37
f 38//38 25//25 58//58
f 41//41 58//58 25//25
f 40//40 59//59 39//39
f 59//59 40//40 60//60
f 61//61 41//41 62//62
f 42//42 62//62 41//41
f 1//1 43//43 63//63
f 64//64 44//44 6//6
f 65//65 27//27 45//45
f 27//27 65//65 43//43
f 44//44 66//66 28//28
f 46//46 28//28 66//66
f 67//67 29//29 47//47
f 29//29 67//67 45//45
f 46//46 68//68 30//30
f 48//48 30//30 68//68
f 31//31 69//69 47//47
f 69//69 31//31 49//49
f 50//50 32//32 70//70
f 48//48 70//70 32//32
f 39//39 71//71 49//49
f 71//71 39//39 59//59
f 62//62 42//42 72//72
f 50//50 72//72 42//42
f 73//73 51//51 1//1
f 6//6 52//52 74//74
f 33//33 75//75 53//53
f 75//75 33//33 51//51
f 52//52 34//34 76//76
f 54//54 76//76 34//34
f 35//35 77//77 55//55
f 77//77 35//35 53//53
f 54//54 36//36 78//78
f 56//56 78//78 36//36
f 37//37 79//79 57//57
f 79//79 37//37 55//55
f 56//56 38//38 80//80
f 58//58 80//80 38//38
f 40//40 81//81 60//60
f 81//81 40//40 57//57
f 58//58 41//41 82//82
f 61//61 82//82 41//41
f 60//60 83//83 59//59
f 83//83 60//60 84//84
f 85//85 61//61 86//86
f 62//62 86//86 61//61
f 1//1 63//63 87//87
f 88//88 64//64 6//6
f 89//89 43//43 65//65
f 43//43 89//89 63//63
f 64//64 90//90 44//44
f 66//66 44//44 90//90
f 91//91 45//45 67//67
f 45//45 91//91 65//65
f 66//66 92//92 46//46
f 68//68 46//46 92//92
f 67//67 69//69 93//93
f 69//69 67//67 47//47
f 48//48 68//68 70//70
f 94//94 70//70 68//68
f 69//69 71//71 95//95
f 71//71 69//69 49//49
f 50//50 70//70 72//72
f 96//96 72//72 70//70
f 59//59 97//97 71//71
f 97//97 59//59 83//83
f 86//86 62//62 98//98
f 72//72 98//98 62//62
f 99//99 73//73 1//1
f 6//6 74//74 100//100
f 73//73 75//75 51//51
f 75//75 73//73 101//101
f 102//102 74//74 76//76
f 52//52 76//76 74//74
f 75//75 77//77 53//53
f 77//77 75//75 103//103
f 104//104 76//76 78//78
f 54//54 78//78 76//76
f 79//79 77//77 105//105
f 77//77 79//79 55//55
f 56//56 80//80 78//78
f 106//106 78//78 80//80
f 81//81 79//79 107//107
f 79//79 81//81 57//57
f 58//58 82//82 80//80
f 108//108 80//80 82//82
f 60//60 109//109 84//84
f 109//109 60//60 81//81
f 82//82 61//61 110//110
f 85//85 110//110 61//61
f 111//111 112//112 113//111
f 112//112 111//111 114//112
f 115//113 116//114 117//113
f 118//114 117//113 116//114
f 1//1 87//87 119//115
f 120//116 88//88 6//6
f 121//117 63//63 89//89
f 63//63 121//117 87//87
f 88//88 122//118 64//64
f 90//90 64//64 122//118
f 123//119 65//65 91//91
f 65//65 123//119 89//89
f 90//90 124//120 66//66
f 92//92 66//66 124//120
f 91//91 93//93 125//121
f 93//93 91//91 67//67
f 68//68 92//92 94//94
f 126//122 94//94 92//92
f 93//93 95//95 127//123
f 95//95 93//93 69//69
f 70//70 94//94 96//96
f 128//124 96//96 94//94
f 71//71 129//125 95//95
f 129//125 71//71 97//97
f 98//98 72//72 130//126
f 96//96 130//126 72//72
f 131//127 113//111 132//127
f 113//111 131//127 111//111
f 116//114 133//128 118//114
f 134//128 118//114 133//128
f 135//129 99//99 1//1
f 6//6 100//100 136//130
f 99//99 101//101 73//73
f 101//101 99//99 137//131
f 138//132 100//100 102//102
f 74//74 102//102 100//100
f 101//101 103//103 75//75
f 103//103 101//101 139//133
f 140//134 102//102 104//104
f 76//76 104//104 102//102
f 77//77 141//135 105//105
f 141//135 77//77 103//103
f 104//104 78//78 142//136
f 106//106 142//136 78//78
f 79//79 143//137 107//107
f 143//137 79//79 105//105
f 106//106 80//80 144//138
f 108//108 144//138 80//80
f 81//81 145//139 109//109
f 145//139 81//81 107//107
f 108//108 82//82 146//140
f 110//110 146//140 82//82
f 114//112 147//141 112//112
f 147//141 114//112 148//141
f 149//142 115//113 150//142
f 117//113 150//142 115//113
f 151//143 152//143 153//143
f 152//143 151//143 154//143
f 152//143 154//143 155//143
f 155//143 154//143 156//143
f 155//143 156//143 157//143
f 157//143 156//143 158//143
f 157//143 158//143 159//143
f 159//143 158//143 160//143
f 159//143 160//143 161//143
f 161//143 160//143 162//143
f 161//143 162//143 163//143
f 163//143 162//143 164//143
f 163//143 164//143 165//143
f 165//143 164//143 166//143
f 165//143 166//143 167//143
f 167//143 166//143 168//143
f 167//143 168//143 169//143
f 169//143 168//143 170//143
f 169//143 170//143 171//143
f 171//143 170//143 172//143
f 171//143 172//143 173//143
f 173//143 172//143 174//143
f 175//144 176//144 177//144
f 177//144 176//144 178//144
f 176//144 179//144 178//144
f 178//144 179//144 180//144
f 179//144 181//144 180//144
f 180//144 181//144 182//144
f 181//144 183//144 182//144
f 182//144 183//144 184//144
f 183//144 185//144 184//144
f 184//144 185//144 186//144
f 185//144 187//144 186//144
f 186//144 187//144 188//144
f 187//144 189//144 188//144
f 188//144 189//144 190//144
f 189//144 191//144 190//144
f 190//144 191//144 192//144
f 191//144 193//144 192//144
f 192//144 193//144 194//144
f 193//144 195//144 194//144
f 194//144 195//144 196//144
f 195//144 197//144 196//144
f 198//144 196//144 197//144
f 1//1 119//115 199//145
f 200//146 120//116 6//6
f 201//147 87//87 121//117
f 87//87 201//147 119//115
f 120//116 202//148 88//88
f 122//118 88//88 202//148
f 203//149 89//89 123//119
f 89//89 203//149 121//117
f 122//118 204//150 90//90
f 124//120 90//90 204//150
f 123//119 125//121 205//151
f 125//121 123//119 91//91
f 92//92 124//120 126//122
f 206//152 126//122 124//120
f 125//121 127//123 207//153
f 127//123 125//121 93//93
f 94//94 126//122 128//124
f 208//154 128//124 126//122
f 127//123 129//125 209//155
f 129//125 127//123 95//95
f 96//96 128//124 130//126
f 210//156 130//126 128//124
f 131//127 211//157 212//157
f 211//157 131//127 132//127
f 134//128 133//128 213//158
f 214//158 213//158 133//128
f 215//159 135//129 1//1
f 6//6 136//130 216//160
f 135//129 137//131 99//99
f 137//131 135//129 217//161
f 218//162 136//130 138//132
f 100//100 138//132 136//130
f 137//131 139//133 101//101
f 139//133 137//131 219//163
f 220//164 138//132 140//134
f 102//102 140//134 138//132
f 103//103 221//165 141//135
f 221//165 103//103 139//133
f 140//134 104//104 222//166
f 142//136 222//166 104//104
f 105//105 223//167 143//137
f 223//167 105//105 141//135
f 142//136 106//106 224//168
f 144//138 224//168 106//106
f 107//107 225//169 145//139
f 225//169 107//107 143//137
f 144//138 108//108 226//170
f 146//140 226//170 108//108
f 148//141 227//171 147//141
f 227//171 148//141 228//171
f 229//172 149//142 230//172
f 150//142 230//172 149//142
f 231//173 232//174 233//174
f 232//174 231//173 234//173
f 235//175 236//175 237//176
f 238//176 237//176 236//175
f 212//157 234//173 231//173
f 234//173 212//157 211//157
f 213//158 214//158 235//175
f 236//175 235//175 214//158
f 228//171 239//177 227//171
f 239//177 228//171 240//178
f 241//179 229//172 242//180
f 230//172 242//180 229//172
f 239//177 243//181 244//181
f 243//181 239//177 240//178
f 241//179 242//180 245//182
f 246//182 245//182 242//180
f 243//181 247//183 244//181
f 247//183 243//181 248//183
f 249//184 245//182 250//184
f 246//182 250//184 245//182
f 248//183 251//185 247//183
f 251//185 248//183 252//185
f 253//186 249//184 254//186
f 250//184 254//186 249//184
f 251//185 255//187 256//187
f 255//187 251//185 252//185
f 253//186 254//186 257//188
f 258//188 257//188 254//186
f 256//187 259//189 260//189
f 259//189 256//187 255//187
f 257//188 258//188 261//190
f 262//190 261//190 258//188
f 260//189 263//191 264//191
f 263//191 260//189 259//189
f 261//190 262//190 265//192
f 266//192 265//192 262//190
f 267//193 263//191 268//193
f 263//191 267//193 264//191
f 266//192 269//194 265//192
f 270//194 265//192 269//194
f 271//195 268//193 272//195
f 268//193 271//195 267//193
f 269//194 273//196 270//194
f 274//196 270//194 273//196
f 275//197 272//195 276//197
f 272//195 275//197 271//195
f 273//196 277//198 274//196
f 278//198 274//196 277//198
f 275//197 279//199 280//199
f 279//199 275//197 276//197
f 278//198 277//198 281//200
f 282//200 281//200 277//198
f 279//199 283//201 280//199
f 283//201 279//199 284//201
f 285//202 281//200 286//202
f 282//200 286//202 281//200
f 284//201 287//203 283//201
f 287//203 284//201 288//204
f 289//205 285//202 290//206
f 286//202 290//206 285//202
f 287//203 291//207 292//207
f 291//207 287//203 288//204
f 289//205 290//206 293//208
f 294//208 293//208 290//206
f 291//207 295//209 292//207
f 295//209 291//207 296//209
f 297//210 293//208 298//210
f 294//208 298//210 293//208
f 295//209 299//211 300//211
f 299//211 295//209 296//209
f 297//210 298//210 301//212
f 302//212 301//212 298//210
f 233//174 300//211 299//211
f 300//211 233//174 232//174
f 237//176 238//176 302//212
f 301//212 302//212 238//176
f 303//213 1//1 199//145
f 200//146 6//6 304//214
f 305//215 119//115 201//147
f 119//115 305//215 199//145
f 200//146 306//216 120//116
f 202//148 120//116 306//216
f 307//217 121//117 203//149
f 121//117 307//217 201//147
f 202//148 308//218 122//118
f 204//150 122//118 308//218
f 309//219 123//119 205//151
f 123//119 309//219 203//149
f 204//150 310//220 124//120
f 206//152 124//120 310//220
f 205//151 207//153 311//221
f 207//153 205//151 125//121
f 126//122 206//152 208//154
f 312//222 208//154 206//152
f 207//153 209//155 313//223
f 209//155 207//153 127//123
f 128//124 208//154 210//156
f 314//224 210//156 208//154
f 315//225 215//159 1//1
f 6//6 216//160 316//226
f 215//159 217//161 135//129
f 217//161 215//159 317//227
f 318//228 216//160 218//162
f 136//130 218//162 216//160
f 217//161 219//163 137//131
f 219//163 217//161 319//229
f 320//230 218//162 220//164
f 138//132 220//164 218//162
f 139//133 321//231 221//165
f 321//231 139//133 219//163
f 220//164 140//134 322//232
f 222//166 322//232 140//134
f 141//135 323//233 223//167
f 323//233 141//135 221//165
f 222//166 142//136 324//234
f 224//168 324//234 142//136
f 143//137 325//235 225//169
f 325//235 143//137 223//167
f 224//168 144//138 326//236
f 226//170 326//236 144//138
f 223//167 327//237 325//235
f 327//237 223//167 323//233
f 324//234 224//168 328//238
f 326//236 328//238 224//168
f 323//233 329//239 327//237
f 329//239 323//233 330//240
f 331//241 324//234 332//242
f 328//238 332//242 324//234
f 333//243 330//240 334//244
f 330//240 333//243 329//239
f 332//242 335//245 331//241
f 336//246 331//241 335//245
f 337//247 334//244 338//248
f 334//244 337//247 333//243
f 335//245 339//249 336//246
f 340//250 336//246 339//249
f 337//247 341//251 342//252
f 341//251 337//247 338//248
f 340//250 339//249 343//253
f 344//254 343//253 339//249
f 342//252 345//255 346//256
f 345//255 342//252 341//251
f 343//253 344//254 347//257
f 348//258 347//257 344//254
f 346//256 349//259 350//260
f 349//259 346//256 345//255
f 347//257 348//258 351//261
f 352//262 351//261 348//258
f 350//260 353//263 354//264
f 353//263 350//260 349//259
f 351//261 352//262 355//265
f 356//266 355//265 352//262
f 353//263 357//267 354//264
f 357//267 353//263 358//268
f 359//269 355//265 360//270
f 356//266 360//270 355//265
f 358//268 361//271 357//267
f 361//271 358//268 362//272
f 363//273 359//269 364//274
f 360//270 364//274 359//269
f 362//272 365//275 361//271
f 365//275 362//272 366//276
f 367//277 363//273 368//278
f 364//274 368//278 363//273
f 366//276 369//279 365//275
f 369//279 366//276 370//280
f 371//281 367//277 372//282
f 368//278 372//282 367//277
f 370//280 373//283 369//279
f 373//283 370//280 374//284
f 375//285 371//281 376//286
f 372//282 376//286 371//281
f 374//284 377//287 373//283
f 377//287 374//284 311//221
f 312//222 375//285 378//288
f 376//286 378//288 375//285
f 311//221 313//223 377//287
f 313//223 311//221 207//153
f 208//154 312//222 314//224
f 378//288 314//224 312//222
f 379//289 1//1 303//213
f 304//214 6//6 380//290
f 381//291 199//145 305//215
f 199//145 381//291 303//213
f 304//214 382//292 200//146
f 306//216 200//146 382//292
f 383//293 201//147 307//217
f 201//147 383//293 305//215
f 306//216 384//294 202//148
f 308//218 202//148 384//294
f 385//295 203//149 309//219
f 203//149 385//295 307//217
f 308//218 386//296 204//150
f 310//220 204//150 386//296
f 309//219 311//221 374//284
f 311//221 309//219 205//151
f 206//152 310//220 312//222
f 375//285 312//222 310//220
f 315//225 1//1 387//297
f 388//298 6//6 316//226
f 315//225 317//227 215//159
f 317//227 315//225 389//299
f 390//300 316//226 318//228
f 216//160 318//228 316//226
f 317//227 319//229 217//161
f 319//229 317//227 391//301
f 392//302 318//228 320//230
f 218//162 320//230 318//228
f 393//303 219//163 319//229
f 219//163 393//303 321//231
f 322//232 394//304 220//164
f 320//230 220//164 394//304
f 221//165 330//240 323//233
f 330//240 221//165 321//231
f 322//232 222//166 331//241
f 324//234 331//241 222//166
f 334//244 321//231 393//303
f 321//231 334//244 330//240
f 331//241 336//246 322//232
f 394//304 322//232 336//246
f 338//248 393//303 395//305
f 393//303 338//248 334//244
f 336//246 340//250 394//304
f 396//306 394//304 340//250
f 338//248 397//307 341//251
f 397//307 338//248 395//305
f 396//306 340//250 398//308
f 343//253 398//308 340//250
f 341//251 399//309 345//255
f 399//309 341//251 397//307
f 398//308 343//253 400//310
f 347//257 400//310 343//253
f 345//255 401//311 349//259
f 401//311 345//255 399//309
f 400//310 347//257 402//312
f 351//261 402//312 347//257
f 349//259 403//313 353//263
f 403//313 349//259 401//311
f 402//312 351//261 404//314
f 355//265 404//314 351//261
f 403//313 358//268 353//263
f 358//268 403//313 405//315
f 406//316 404//314 359//269
f 355//265 359//269 404//314
f 405//315 362//272 358//268
f 362//272 405//315 407//317
f 408//318 406//316 363//273
f 359//269 363//273 406//316
f 362//272 409//319 366//276
f 409//319 362//272 407//317
f 408//318 363//273 410//320
f 367//277 410//320 363//273
f 366//276 385//295 370//280
f 385//295 366//276 409//319
f 410//320 367//277 386//296
f 371//281 386//296 367//277
f 385//295 374//284 370//280
f 374//284 385//295 309//219
f 310//220 386//296 375//285
f 371//281 375//285 386//296
f 411//321 1//1 379//289
f 380//290 6//6 412//322
f 381//291 379//289 303//213
f 379//289 381//291 413//323
f 414//324 382//292 380//290
f 304//214 380//290 382//292
f 383//293 381//291 305//215
f 381//291 383//293 415//325
f 416//326 384//294 382//292
f 306//216 382//292 384//294
f 383//293 385//295 409//319
f 385//295 383//293 307//217
f 308//218 384//294 386//296
f 410//320 386//296 384//294
f 387//297 1//1 417//327
f 418//328 6//6 388//298
f 419//329 315//225 387//297
f 315//225 419//329 389//299
f 390//300 420//330 316//226
f 388//298 316//226 420//330
f 389//299 391//301 317//227
f 391//301 389//299 421//331
f 422//332 390//300 392//302
f 318//228 392//302 390//300
f 395//305 319//229 391//301
f 319//229 395//305 393//303
f 394//304 396//306 320//230
f 392//302 320//230 396//306
f 395//305 421//331 397//307
f 421//331 395//305 391//301
f 392//302 396//306 422//332
f 398//308 422//332 396//306
f 397//307 423//333 399//309
f 423//333 397//307 421//331
f 422//332 398//308 424//334
f 400//310 424//334 398//308
f 399//309 425//335 401//311
f 425//335 399//309 423//333
f 424//334 400//310 426//336
f 402//312 426//336 400//310
f 401//311 427//337 403//313
f 427//337 401//311 425//335
f 426//336 402//312 428//338
f 404//314 428//338 402//312
f 403//313 429//339 405//315
f 429//339 403//313 427//337
f 428//338 404//314 430//340
f 406//316 430//340 404//314
f 429//339 407//317 405//315
f 407//317 429//339 415//325
f 416//326 430//340 408//318
f 406//316 408//318 430//340
f 415//325 409//319 407//317
f 409//319 415//325 383//293
f 384//294 416//326 410//320
f 408//318 410//320 416//326
f 417//327 1//1 411//321
f 412//322 6//6 418//328
f 413//323 411//321 379//289
f 411//321 413//323 431//341
f 432//342 414//324 412//322
f 380//290 412//322 414//324
f 415//325 413//323 381//291
f 413//323 415//325 429//339
f 430//340 416//326 414//324
f 382//292 414//324 416//326
f 433//343 387//297 417//327
f 387//297 433//343 419//329
f 420//330 434//344 388//298
f 418//328 388//298 434//344
f 423//333 389//299 419//329
f 389//299 423//333 421//331
f 422//332 424//334 390//300
f 420//330 390//300 424//334
f 425//335 419//329 433//343
f 419//329 425//335 423//333
f 424//334 426//336 420//330
f 434//344 420//330 426//336
f 427//337 433//343 431//341
f 433//343 427//337 425//335
f 426//336 428//338 434//344
f 432//342 434//344 428//338
f 429//339 431//341 413//323
f 431//341 429//339 427//337
f 428//338 430//340 432//342
f 414//324 432//342 430//340
f 431//341 417//327 411//321
f 417//327 431//341 433//343
f 434//344 432//342 418//328
f 412//322 418//328 432//342
