# SSTK version 0.8.0
# 20
mtllib original-20.mtl
o #ID111
v 0.371567 -0.343848 0.318103
v 0.364147 -0.343848 0.324531
v 0.367434 -0.343848 0.320829
v 0.376264 -0.343848 0.316541
v 0.361930 -0.343848 0.328957
v 0.381206 -0.343848 0.316247
v 0.370786 -0.343848 0.324698
v 0.373803 -0.343848 0.322708
v 0.386056 -0.343848 0.317243
v 0.377232 -0.343848 0.321567
v 0.380840 -0.343848 0.321353
v 0.384381 -0.343848 0.322080
v 0.390483 -0.343848 0.319459
v 0.387613 -0.343848 0.323698
v 0.394185 -0.343848 0.322746
v 0.390315 -0.343848 0.326098
v 0.396910 -0.343848 0.326879
v 0.392305 -0.343848 0.329115
v 0.393446 -0.343848 0.332545
v 0.398473 -0.343848 0.331577
v 0.393660 -0.343848 0.336153
v 0.398766 -0.343848 0.336519
v 0.392933 -0.343848 0.339693
v 0.391315 -0.343848 0.342925
v 0.388915 -0.343848 0.345628
v 0.397771 -0.343848 0.341368
v 0.360935 -0.343848 0.333807
v 0.368386 -0.343848 0.327401
v 0.361228 -0.343848 0.338749
v 0.366768 -0.343848 0.330632
v 0.366041 -0.343848 0.334173
v 0.366255 -0.343848 0.337781
v 0.362791 -0.343848 0.343446
v 0.367396 -0.343848 0.341210
v 0.365516 -0.343848 0.347579
v 0.369386 -0.343848 0.344228
v 0.369218 -0.343848 0.350866
v 0.372088 -0.343848 0.346627
v 0.375320 -0.343848 0.348246
v 0.373645 -0.343848 0.353083
v 0.378861 -0.343848 0.348972
v 0.378495 -0.343848 0.354078
v 0.382468 -0.343848 0.348758
v 0.385898 -0.343848 0.347617
v 0.383437 -0.343848 0.353785
v 0.395554 -0.343848 0.345795
v 0.388134 -0.343848 0.352222
v 0.392267 -0.343848 0.349497
v 0.397771 -0.343848 0.341368
v 0.395554 -0.263547 0.345795
v 0.395554 -0.343848 0.345795
v 0.397771 -0.263547 0.341368
v 0.392267 -0.263547 0.349497
v 0.392267 -0.343848 0.349497
v 0.388134 -0.263547 0.352222
v 0.388134 -0.343848 0.352222
v 0.383437 -0.263547 0.353785
v 0.383437 -0.343848 0.353785
v 0.378495 -0.263547 0.354078
v 0.378495 -0.343848 0.354078
v 0.373645 -0.343848 0.353083
v 0.373645 -0.263547 0.353083
v 0.369218 -0.343848 0.350866
v 0.369218 -0.263547 0.350866
v 0.365516 -0.343848 0.347579
v 0.365516 -0.263547 0.347579
v 0.362791 -0.343848 0.343446
v 0.362791 -0.263547 0.343446
v 0.361228 -0.343848 0.338749
v 0.361228 -0.263547 0.338749
v 0.360935 -0.343848 0.333807
v 0.360935 -0.263547 0.333807
v 0.361930 -0.263547 0.328957
v 0.361930 -0.343848 0.328957
v 0.364147 -0.263547 0.324531
v 0.364147 -0.343848 0.324531
v 0.367434 -0.263547 0.320829
v 0.367434 -0.343848 0.320829
v 0.371567 -0.263547 0.318103
v 0.371567 -0.343848 0.318103
v 0.376264 -0.263547 0.316541
v 0.376264 -0.343848 0.316541
v 0.381206 -0.263547 0.316247
v 0.381206 -0.343848 0.316247
v 0.386056 -0.343848 0.317243
v 0.386056 -0.263547 0.317243
v 0.390483 -0.343848 0.319459
v 0.390483 -0.263547 0.319459
v 0.394185 -0.343848 0.322746
v 0.394185 -0.263547 0.322746
v 0.396910 -0.343848 0.326879
v 0.396910 -0.263547 0.326879
v 0.398473 -0.343848 0.331577
v 0.398473 -0.263547 0.331577
v 0.398766 -0.343848 0.336519
v 0.398766 -0.263547 0.336519
v 0.364147 -0.263547 0.324531
v 0.371567 -0.263547 0.318103
v 0.367434 -0.263547 0.320829
v 0.361930 -0.263547 0.328957
v 0.376264 -0.263547 0.316541
v 0.360935 -0.263547 0.333807
v 0.370786 -0.263547 0.324698
v 0.368386 -0.263547 0.327401
v 0.361228 -0.263547 0.338749
v 0.366768 -0.263547 0.330632
v 0.366041 -0.263547 0.334173
v 0.366255 -0.263547 0.337781
v 0.362791 -0.263547 0.343446
v 0.367396 -0.263547 0.341210
v 0.365516 -0.263547 0.347579
v 0.369386 -0.263547 0.344228
v 0.369218 -0.263547 0.350866
v 0.372088 -0.263547 0.346627
v 0.375320 -0.263547 0.348246
v 0.373645 -0.263547 0.353083
v 0.378861 -0.263547 0.348972
v 0.378495 -0.263547 0.354078
v 0.382468 -0.263547 0.348758
v 0.385898 -0.263547 0.347617
v 0.388915 -0.263547 0.345628
v 0.383437 -0.263547 0.353785
v 0.381206 -0.263547 0.316247
v 0.373803 -0.263547 0.322708
v 0.386056 -0.263547 0.317243
v 0.377232 -0.263547 0.321567
v 0.380840 -0.263547 0.321353
v 0.384381 -0.263547 0.322080
v 0.390483 -0.263547 0.319459
v 0.387613 -0.263547 0.323698
v 0.394185 -0.263547 0.322746
v 0.390315 -0.263547 0.326098
v 0.392305 -0.263547 0.329115
v 0.396910 -0.263547 0.326879
v 0.393446 -0.263547 0.332545
v 0.398473 -0.263547 0.331577
v 0.393660 -0.263547 0.336153
v 0.398766 -0.263547 0.336519
v 0.392933 -0.263547 0.339693
v 0.391315 -0.263547 0.342925
v 0.397771 -0.263547 0.341368
v 0.388134 -0.263547 0.352222
v 0.395554 -0.263547 0.345795
v 0.392267 -0.263547 0.349497
vn 0 -1 0
vn 0.9449489027783908 0 0.32721792606444267
vn 0.8280602968819111 0 0.5606390503058464
vn 0.654740790621857 0 0.7558534891735735
vn 0.6547407906218565 0 0.7558534891735739
vn 0.4368017939504264 0 0.8995577762443552
vn 0.18909541112756736 0 0.9819587188321596
vn -0.07149747480999095 0 0.997440780746303
vn -0.32721792606444267 0 0.9449489027783908
vn -0.5606390503058464 0 0.8280602968819111
vn -0.7558534891735732 0 0.6547407906218573
vn -0.8995577762443552 0 0.4368017939504264
vn -0.9819587188321596 0 0.18909541112756736
vn -0.997440780746303 0 -0.07149747480999095
vn -0.9449489027783908 0 -0.32721792606444267
vn -0.8280602968819111 0 -0.5606390503058464
vn -0.6547407906218573 0 -0.7558534891735732
vn -0.6547407906218569 0 -0.7558534891735736
vn -0.4368017939504264 0 -0.8995577762443552
vn -0.18909541112756736 0 -0.9819587188321596
vn 0.07149747480999095 0 -0.997440780746303
vn 0.32721792606444267 0 -0.9449489027783908
vn 0.5606390503058464 0 -0.8280602968819111
vn 0.7558534891735754 0 -0.6547407906218549
vn 0.8995577762443552 0 -0.4368017939504264
vn 0.9819587188321596 0 -0.18909541112756736
vn 0.997440780746303 0 0.07149747480999095
vn 0 1 0
usemtl material_0_0
f 1//1 2//1 3//1
f 2//1 1//1 4//1
f 2//1 4//1 5//1
f 5//1 4//1 6//1
f 5//1 6//1 7//1
f 7//1 6//1 8//1
f 8//1 6//1 9//1
f 8//1 9//1 10//1
f 10//1 9//1 11//1
f 11//1 9//1 12//1
f 12//1 9//1 13//1
f 12//1 13//1 14//1
f 14//1 13//1 15//1
f 14//1 15//1 16//1
f 16//1 15//1 17//1
f 16//1 17//1 18//1
f 18//1 17//1 19//1
f 19//1 17//1 20//1
f 19//1 20//1 21//1
f 21//1 20//1 22//1
f 21//1 22//1 23//1
f 23//1 22//1 24//1
f 24//1 22//1 25//1
f 25//1 22//1 26//1
f 7//1 27//1 5//1
f 27//1 7//1 28//1
f 27//1 28//1 29//1
f 29//1 28//1 30//1
f 29//1 30//1 31//1
f 29//1 31//1 32//1
f 29//1 32//1 33//1
f 33//1 32//1 34//1
f 33//1 34//1 35//1
f 35//1 34//1 36//1
f 35//1 36//1 37//1
f 37//1 36//1 38//1
f 37//1 38//1 39//1
f 37//1 39//1 40//1
f 40//1 39//1 41//1
f 40//1 41//1 42//1
f 42//1 41//1 43//1
f 42//1 43//1 44//1
f 42//1 44//1 25//1
f 42//1 25//1 45//1
f 45//1 25//1 26//1
f 45//1 26//1 46//1
f 45//1 46//1 47//1
f 47//1 46//1 48//1
f 49//2 50//3 51//3
f 50//3 49//2 52//2
f 51//3 53//4 54//5
f 53//4 51//3 50//3
f 54//5 55//6 56//6
f 55//6 54//5 53//4
f 56//6 57//7 58//7
f 57//7 56//6 55//6
f 58//7 59//8 60//8
f 59//8 58//7 57//7
f 59//8 61//9 60//8
f 61//9 59//8 62//9
f 62//9 63//10 61//9
f 63//10 62//9 64//10
f 64//10 65//11 63//10
f 65//11 64//10 66//11
f 66//11 67//12 65//11
f 67//12 66//11 68//12
f 68//12 69//13 67//12
f 69//13 68//12 70//13
f 70//13 71//14 69//13
f 71//14 70//13 72//14
f 73//15 71//14 72//14
f 71//14 73//15 74//15
f 75//16 74//15 73//15
f 74//15 75//16 76//16
f 77//17 76//16 75//16
f 76//16 77//17 78//18
f 79//19 78//18 77//17
f 78//18 79//19 80//19
f 81//20 80//19 79//19
f 80//19 81//20 82//20
f 83//21 82//20 81//20
f 82//20 83//21 84//21
f 83//21 85//22 84//21
f 85//22 83//21 86//22
f 86//22 87//23 85//22
f 87//23 86//22 88//23
f 88//23 89//24 87//23
f 89//24 88//23 90//24
f 90//24 91//25 89//24
f 91//25 90//24 92//25
f 92//25 93//26 91//25
f 93//26 92//25 94//26
f 94//26 95//27 93//26
f 95//27 94//26 96//27
f 49//2 96//27 52//2
f 96//27 49//2 95//27
f 97//28 98//28 99//28
f 98//28 97//28 100//28
f 98//28 100//28 101//28
f 101//28 100//28 102//28
f 101//28 102//28 103//28
f 103//28 102//28 104//28
f 104//28 102//28 105//28
f 104//28 105//28 106//28
f 106//28 105//28 107//28
f 107//28 105//28 108//28
f 108//28 105//28 109//28
f 108//28 109//28 110//28
f 110//28 109//28 111//28
f 110//28 111//28 112//28
f 112//28 111//28 113//28
f 112//28 113//28 114//28
f 114//28 113//28 115//28
f 115//28 113//28 116//28
f 115//28 116//28 117//28
f 117//28 116//28 118//28
f 117//28 118//28 119//28
f 119//28 118//28 120//28
f 120//28 118//28 121//28
f 121//28 118//28 122//28
f 103//28 123//28 101//28
f 123//28 103//28 124//28
f 123//28 124//28 125//28
f 125//28 124//28 126//28
f 125//28 126//28 127//28
f 125//28 127//28 128//28
f 125//28 128//28 129//28
f 129//28 128//28 130//28
f 129//28 130//28 131//28
f 131//28 130//28 132//28
f 131//28 132//28 133//28
f 131//28 133//28 134//28
f 134//28 133//28 135//28
f 134//28 135//28 136//28
f 136//28 135//28 137//28
f 136//28 137//28 138//28
f 138//28 137//28 139//28
f 138//28 139//28 140//28
f 138//28 140//28 121//28
f 138//28 121//28 141//28
f 141//28 121//28 122//28
f 141//28 122//28 142//28
f 141//28 142//28 143//28
f 143//28 142//28 144//28
