# SSTK version 0.8.0
# 11
mtllib original-11.mtl
o #ID46
v -0.161219 -0.087374 0.253427
v -0.152154 -0.087414 0.245603
v -0.151742 -0.087410 0.245066
v -0.159146 -0.087529 0.256129
v -0.152413 -0.087426 0.246227
v -0.152501 -0.087445 0.246897
v -0.152414 -0.087470 0.247567
v -0.152155 -0.087498 0.248191
v -0.151744 -0.087529 0.248727
v -0.151208 -0.087560 0.249138
v -0.156444 -0.087685 0.258201
v -0.150584 -0.087589 0.249396
v -0.149915 -0.087614 0.249484
v -0.149245 -0.087632 0.249395
v -0.148620 -0.087644 0.249136
v -0.148084 -0.087648 0.248725
v -0.138607 -0.087685 0.240364
v -0.137305 -0.087830 0.243511
v -0.153298 -0.087830 0.259503
v -0.136863 -0.087954 0.246889
v -0.149920 -0.087954 0.259946
v -0.137309 -0.088049 0.250267
v -0.146542 -0.088049 0.259500
v -0.138614 -0.088109 0.253415
v -0.143394 -0.088109 0.258194
v -0.140690 -0.088130 0.256119
v -0.161212 -0.086949 0.240376
v -0.156432 -0.086949 0.235597
v -0.159136 -0.086929 0.237672
v -0.153284 -0.087009 0.234291
v -0.162517 -0.087009 0.243525
v -0.149906 -0.087105 0.233845
v -0.162964 -0.087105 0.246903
v -0.146529 -0.087229 0.234288
v -0.162521 -0.087229 0.250280
v -0.143382 -0.087374 0.235590
v -0.151206 -0.087414 0.244655
v -0.140680 -0.087529 0.237663
v -0.150582 -0.087426 0.244396
v -0.149912 -0.087445 0.244307
v -0.149242 -0.087470 0.244395
v -0.148618 -0.087498 0.244653
v -0.148082 -0.087529 0.245064
v -0.147671 -0.087560 0.245600
v -0.147413 -0.087589 0.246224
v -0.147325 -0.087614 0.246894
v -0.147413 -0.087632 0.247564
v -0.147672 -0.087644 0.248189
v -0.148084 -0.087648 0.248725
v -0.147672 -0.087644 0.248189
v -0.138607 -0.087685 0.240364
v -0.147413 -0.087632 0.247564
v -0.147325 -0.087614 0.246894
v -0.147413 -0.087589 0.246224
v -0.147671 -0.087560 0.245600
v -0.148082 -0.087529 0.245064
v -0.140680 -0.087529 0.237663
v -0.148618 -0.087498 0.244653
v -0.149242 -0.087470 0.244395
v -0.149912 -0.087445 0.244307
v -0.150582 -0.087426 0.244396
v -0.151206 -0.087414 0.244655
v -0.143382 -0.087374 0.235590
v -0.151742 -0.087410 0.245066
v -0.161219 -0.087374 0.253427
v -0.162521 -0.087229 0.250280
v -0.146529 -0.087229 0.234288
v -0.162964 -0.087105 0.246903
v -0.149906 -0.087105 0.233845
v -0.162517 -0.087009 0.243525
v -0.153284 -0.087009 0.234291
v -0.161212 -0.086949 0.240376
v -0.156432 -0.086949 0.235597
v -0.159136 -0.086929 0.237672
v -0.140690 -0.088130 0.256119
v -0.143394 -0.088109 0.258194
v -0.138614 -0.088109 0.253415
v -0.146542 -0.088049 0.259500
v -0.137309 -0.088049 0.250267
v -0.149920 -0.087954 0.259946
v -0.136863 -0.087954 0.246889
v -0.153298 -0.087830 0.259503
v -0.137305 -0.087830 0.243511
v -0.156444 -0.087685 0.258201
v -0.148620 -0.087644 0.249136
v -0.149245 -0.087632 0.249395
v -0.149915 -0.087614 0.249484
v -0.150584 -0.087589 0.249396
v -0.151208 -0.087560 0.249138
v -0.159146 -0.087529 0.256129
v -0.151744 -0.087529 0.248727
v -0.152155 -0.087498 0.248191
v -0.152414 -0.087470 0.247567
v -0.152501 -0.087445 0.246897
v -0.152413 -0.087426 0.246227
v -0.152154 -0.087414 0.245603
v -0.159146 -0.087529 0.256129
v -0.161556 -0.097721 0.253090
v -0.159483 -0.097877 0.255792
v -0.161219 -0.087374 0.253427
v -0.161219 -0.087374 0.253427
v -0.159146 -0.087529 0.256129
v -0.161556 -0.097721 0.253090
v -0.159483 -0.097877 0.255792
v -0.156444 -0.087685 0.258201
v -0.156781 -0.098032 0.257864
v -0.156444 -0.087685 0.258201
v -0.156781 -0.098032 0.257864
v -0.153298 -0.087830 0.259503
v -0.153635 -0.098177 0.259166
v -0.153298 -0.087830 0.259503
v -0.153635 -0.098177 0.259166
v -0.149920 -0.087954 0.259946
v -0.150257 -0.098302 0.259609
v -0.149920 -0.087954 0.259946
v -0.150257 -0.098302 0.259609
v -0.146879 -0.098397 0.259163
v -0.146542 -0.088049 0.259500
v -0.146542 -0.088049 0.259500
v -0.146879 -0.098397 0.259163
v -0.143731 -0.098457 0.257857
v -0.143394 -0.088109 0.258194
v -0.143394 -0.088109 0.258194
v -0.143731 -0.098457 0.257857
v -0.141027 -0.098477 0.255782
v -0.140690 -0.088130 0.256119
v -0.140690 -0.088130 0.256119
v -0.141027 -0.098477 0.255782
v -0.138951 -0.098457 0.253078
v -0.138614 -0.088109 0.253415
v -0.138614 -0.088109 0.253415
v -0.138951 -0.098457 0.253078
v -0.137646 -0.098397 0.249930
v -0.137309 -0.088049 0.250267
v -0.137309 -0.088049 0.250267
v -0.137646 -0.098397 0.249930
v -0.137199 -0.098302 0.246552
v -0.136863 -0.087954 0.246889
v -0.136863 -0.087954 0.246889
v -0.137199 -0.098302 0.246552
v -0.137642 -0.098177 0.243174
v -0.137305 -0.087830 0.243511
v -0.137305 -0.087830 0.243511
v -0.137642 -0.098177 0.243174
v -0.138944 -0.098032 0.240027
v -0.138607 -0.087685 0.240364
v -0.138607 -0.087685 0.240364
v -0.138944 -0.098032 0.240027
v -0.141017 -0.097877 0.237326
v -0.140680 -0.087529 0.237663
v -0.140680 -0.087529 0.237663
v -0.141017 -0.097877 0.237326
v -0.143719 -0.097721 0.235253
v -0.143382 -0.087374 0.235590
v -0.143382 -0.087374 0.235590
v -0.143719 -0.097721 0.235253
v -0.146866 -0.097577 0.233951
v -0.146529 -0.087229 0.234288
v -0.146529 -0.087229 0.234288
v -0.146866 -0.097577 0.233951
v -0.150243 -0.097452 0.233508
v -0.149906 -0.087105 0.233845
v -0.149906 -0.087105 0.233845
v -0.150243 -0.097452 0.233508
v -0.153284 -0.087009 0.234291
v -0.153621 -0.097357 0.233954
v -0.153284 -0.087009 0.234291
v -0.153621 -0.097357 0.233954
v -0.156432 -0.086949 0.235597
v -0.156769 -0.097297 0.235260
v -0.156432 -0.086949 0.235597
v -0.156769 -0.097297 0.235260
v -0.159136 -0.086929 0.237672
v -0.159473 -0.097276 0.237335
v -0.159136 -0.086929 0.237672
v -0.159473 -0.097276 0.237335
v -0.161212 -0.086949 0.240376
v -0.161549 -0.097297 0.240039
v -0.161212 -0.086949 0.240376
v -0.161549 -0.097297 0.240039
v -0.162517 -0.087009 0.243525
v -0.162854 -0.097357 0.243188
v -0.162517 -0.087009 0.243525
v -0.162854 -0.097357 0.243188
v -0.162964 -0.087105 0.246903
v -0.163301 -0.097452 0.246566
v -0.162964 -0.087105 0.246903
v -0.163301 -0.097452 0.246566
v -0.162521 -0.087229 0.250280
v -0.162858 -0.097577 0.249943
v -0.162521 -0.087229 0.250280
v -0.162858 -0.097577 0.249943
v -0.156769 -0.097297 0.235260
v -0.161549 -0.097297 0.240039
v -0.159473 -0.097276 0.237335
v -0.153621 -0.097357 0.233954
v -0.162854 -0.097357 0.243188
v -0.150243 -0.097452 0.233508
v -0.163301 -0.097452 0.246566
v -0.146866 -0.097577 0.233951
v -0.162858 -0.097577 0.249943
v -0.143719 -0.097721 0.235253
v -0.161556 -0.097721 0.253090
v -0.152079 -0.097758 0.244729
v -0.151543 -0.097762 0.244318
v -0.141017 -0.097877 0.237326
v -0.150919 -0.097774 0.244059
v -0.150249 -0.097793 0.243970
v -0.149579 -0.097817 0.244058
v -0.148955 -0.097846 0.244316
v -0.148419 -0.097877 0.244728
v -0.138944 -0.098032 0.240027
v -0.148008 -0.097908 0.245263
v -0.147750 -0.097936 0.245887
v -0.147662 -0.097961 0.246557
v -0.147750 -0.097980 0.247227
v -0.148009 -0.097992 0.247852
v -0.148421 -0.097996 0.248388
v -0.152491 -0.097762 0.245266
v -0.159483 -0.097877 0.255792
v -0.152750 -0.097774 0.245890
v -0.152838 -0.097793 0.246560
v -0.152751 -0.097817 0.247230
v -0.152492 -0.097846 0.247854
v -0.152081 -0.097877 0.248390
v -0.151545 -0.097908 0.248801
v -0.156781 -0.098032 0.257864
v -0.150921 -0.097936 0.249059
v -0.150251 -0.097961 0.249147
v -0.149582 -0.097980 0.249058
v -0.148957 -0.097992 0.248799
v -0.137642 -0.098177 0.243174
v -0.153635 -0.098177 0.259166
v -0.137199 -0.098302 0.246552
v -0.150257 -0.098302 0.259609
v -0.137646 -0.098397 0.249930
v -0.146879 -0.098397 0.259163
v -0.138951 -0.098457 0.253078
v -0.143731 -0.098457 0.257857
v -0.141027 -0.098477 0.255782
v -0.141027 -0.098477 0.255782
v -0.138951 -0.098457 0.253078
v -0.143731 -0.098457 0.257857
v -0.146879 -0.098397 0.259163
v -0.137646 -0.098397 0.249930
v -0.150257 -0.098302 0.259609
v -0.137199 -0.098302 0.246552
v -0.153635 -0.098177 0.259166
v -0.137642 -0.098177 0.243174
v -0.156781 -0.098032 0.257864
v -0.138944 -0.098032 0.240027
v -0.148421 -0.097996 0.248388
v -0.148957 -0.097992 0.248799
v -0.149582 -0.097980 0.249058
v -0.150251 -0.097961 0.249147
v -0.150921 -0.097936 0.249059
v -0.151545 -0.097908 0.248801
v -0.159483 -0.097877 0.255792
v -0.152081 -0.097877 0.248390
v -0.152492 -0.097846 0.247854
v -0.152751 -0.097817 0.247230
v -0.152838 -0.097793 0.246560
v -0.152750 -0.097774 0.245890
v -0.152491 -0.097762 0.245266
v -0.152079 -0.097758 0.244729
v -0.161556 -0.097721 0.253090
v -0.148009 -0.097992 0.247852
v -0.147750 -0.097980 0.247227
v -0.147662 -0.097961 0.246557
v -0.147750 -0.097936 0.245887
v -0.148008 -0.097908 0.245263
v -0.148419 -0.097877 0.244728
v -0.141017 -0.097877 0.237326
v -0.148955 -0.097846 0.244316
v -0.149579 -0.097817 0.244058
v -0.150249 -0.097793 0.243970
v -0.150919 -0.097774 0.244059
v -0.151543 -0.097762 0.244318
v -0.143719 -0.097721 0.235253
v -0.162858 -0.097577 0.249943
v -0.146866 -0.097577 0.233951
v -0.163301 -0.097452 0.246566
v -0.150243 -0.097452 0.233508
v -0.162854 -0.097357 0.243188
v -0.153621 -0.097357 0.233954
v -0.161549 -0.097297 0.240039
v -0.156769 -0.097297 0.235260
v -0.159473 -0.097276 0.237335
vn 0.032526489931166344 0.9989414672069248 0.03252648993103889
vn -0.032526489931166344 -0.9989414672069248 -0.03252648993103889
vn -0.7071067811865202 0 0.7071067811865749
vn -0.8658317148052604 0.011905520904577095 0.5001936627041297
vn -0.7071067811865096 0 0.7071067811865854
vn 0.8658317148052604 -0.011905520904577095 -0.5001936627041297
vn 0.7071067811865202 0 -0.7071067811865749
vn 0.7071067811865096 0 -0.7071067811865854
vn -0.5001936627041875 -0.011905520904577263 0.865831714805227
vn 0.5001936627041875 0.011905520904577263 -0.865831714805227
vn -0.25919324807688415 -0.02299970104806645 0.9655515904927372
vn 0.25919324807688415 0.02299970104806645 -0.9655515904927372
vn -0.000529184295594175 -0.0325264886786066 0.9994707336876962
vn 0.000529184295594175 0.0325264886786066 -0.9994707336876962
vn 0.2581709061193705 -0.03983664719815067 0.9652775894909781
vn -0.2581709061193705 0.03983664719815067 -0.9652775894909781
vn 0.4992770919158061 -0.04443200486727087 0.8653023647440071
vn -0.4992770919158061 0.04443200486727087 -0.8653023647440071
vn 0.7063582857763543 -0.04599939380284277 0.7063582857763199
vn 0.7063582857763575 -0.04599939380284277 0.7063582857763168
vn -0.7063582857763575 0.04599939380284277 -0.7063582857763168
vn -0.7063582857763543 0.04599939380284277 -0.7063582857763199
vn 0.8653023647439537 -0.044432004867271294 0.49927709191589814
vn -0.8653023647439537 0.044432004867271294 -0.49927709191589814
vn 0.9652775894909528 -0.039836647198151304 0.2581709061194652
vn -0.9652775894909528 0.039836647198151304 -0.2581709061194652
vn 0.9994707336876962 -0.03252648867860713 -0.0005291842955075738
vn -0.9994707336876962 0.03252648867860713 0.0005291842955075738
vn 0.9655515904927566 -0.022999701048066635 -0.2591932480768114
vn -0.9655515904927566 0.022999701048066635 0.2591932480768114
vn 0.7071067811865192 0 -0.7071067811865759
vn 0.7071067811865087 0 -0.7071067811865863
vn -0.7071067811865087 0 0.7071067811865863
vn -0.7071067811865192 0 0.7071067811865759
vn -0.706358285776353 0.04599939380284277 -0.7063582857763213
vn -0.7063582857763583 0.04599939380284277 -0.706358285776316
vn 0.706358285776353 -0.04599939380284277 0.7063582857763213
vn 0.7063582857763583 -0.04599939380284277 0.706358285776316
usemtl material_0_0
f 1//1 2//1 3//1
f 2//1 1//1 4//1
f 2//1 4//1 5//1
f 5//1 4//1 6//1
f 6//1 4//1 7//1
f 7//1 4//1 8//1
f 8//1 4//1 9//1
f 9//1 4//1 10//1
f 10//1 4//1 11//1
f 10//1 11//1 12//1
f 12//1 11//1 13//1
f 13//1 11//1 14//1
f 14//1 11//1 15//1
f 15//1 11//1 16//1
f 16//1 11//1 17//1
f 17//1 11//1 18//1
f 18//1 11//1 19//1
f 18//1 19//1 20//1
f 20//1 19//1 21//1
f 20//1 21//1 22//1
f 22//1 21//1 23//1
f 22//1 23//1 24//1
f 24//1 23//1 25//1
f 24//1 25//1 26//1
f 27//1 28//1 29//1
f 28//1 27//1 30//1
f 30//1 27//1 31//1
f 30//1 31//1 32//1
f 32//1 31//1 33//1
f 32//1 33//1 34//1
f 34//1 33//1 35//1
f 34//1 35//1 36//1
f 36//1 35//1 1//1
f 36//1 1//1 3//1
f 36//1 3//1 37//1
f 36//1 37//1 38//1
f 38//1 37//1 39//1
f 38//1 39//1 40//1
f 38//1 40//1 41//1
f 38//1 41//1 42//1
f 38//1 42//1 43//1
f 38//1 43//1 17//1
f 17//1 43//1 44//1
f 17//1 44//1 45//1
f 17//1 45//1 46//1
f 17//1 46//1 47//1
f 17//1 47//1 48//1
f 17//1 48//1 16//1
f 49//2 50//2 51//2
f 50//2 52//2 51//2
f 52//2 53//2 51//2
f 53//2 54//2 51//2
f 54//2 55//2 51//2
f 55//2 56//2 51//2
f 51//2 56//2 57//2
f 56//2 58//2 57//2
f 58//2 59//2 57//2
f 59//2 60//2 57//2
f 60//2 61//2 57//2
f 61//2 62//2 57//2
f 57//2 62//2 63//2
f 62//2 64//2 63//2
f 64//2 65//2 63//2
f 65//2 66//2 63//2
f 63//2 66//2 67//2
f 66//2 68//2 67//2
f 67//2 68//2 69//2
f 68//2 70//2 69//2
f 69//2 70//2 71//2
f 70//2 72//2 71//2
f 71//2 72//2 73//2
f 74//2 73//2 72//2
f 75//2 76//2 77//2
f 76//2 78//2 77//2
f 77//2 78//2 79//2
f 78//2 80//2 79//2
f 79//2 80//2 81//2
f 80//2 82//2 81//2
f 81//2 82//2 83//2
f 82//2 84//2 83//2
f 83//2 84//2 51//2
f 51//2 84//2 49//2
f 49//2 84//2 85//2
f 85//2 84//2 86//2
f 86//2 84//2 87//2
f 87//2 84//2 88//2
f 88//2 84//2 89//2
f 84//2 90//2 89//2
f 89//2 90//2 91//2
f 91//2 90//2 92//2
f 92//2 90//2 93//2
f 93//2 90//2 94//2
f 94//2 90//2 95//2
f 95//2 90//2 96//2
f 90//2 65//2 96//2
f 64//2 96//2 65//2
f 97//3 98//4 99//5
f 98//4 97//3 100//4
f 101//6 102//7 103//6
f 104//8 103//6 102//7
f 105//9 99//5 106//9
f 99//5 105//9 97//3
f 102//7 107//10 104//8
f 108//10 104//8 107//10
f 109//11 106//9 110//11
f 106//9 109//11 105//9
f 107//10 111//12 108//10
f 112//12 108//10 111//12
f 113//13 110//11 114//13
f 110//11 113//13 109//11
f 111//12 115//14 112//12
f 116//14 112//12 115//14
f 117//15 113//13 114//13
f 113//13 117//15 118//15
f 119//16 120//16 115//14
f 116//14 115//14 120//16
f 121//17 118//15 117//15
f 118//15 121//17 122//17
f 123//18 124//18 119//16
f 120//16 119//16 124//18
f 125//19 122//17 121//17
f 122//17 125//19 126//20
f 127//21 128//22 123//18
f 124//18 123//18 128//22
f 129//23 126//20 125//19
f 126//20 129//23 130//23
f 131//24 132//24 127//21
f 128//22 127//21 132//24
f 133//25 130//23 129//23
f 130//23 133//25 134//25
f 135//26 136//26 131//24
f 132//24 131//24 136//26
f 137//27 134//25 133//25
f 134//25 137//27 138//27
f 139//28 140//28 135//26
f 136//26 135//26 140//28
f 141//29 138//27 137//27
f 138//27 141//29 142//29
f 143//30 144//30 139//28
f 140//28 139//28 144//30
f 145//6 142//29 141//29
f 142//29 145//6 146//6
f 147//4 148//4 143//30
f 144//30 143//30 148//4
f 149//31 146//6 145//6
f 146//6 149//31 150//32
f 151//33 152//34 147//4
f 148//4 147//4 152//34
f 153//10 150//32 149//31
f 150//32 153//10 154//10
f 155//9 156//9 151//33
f 152//34 151//33 156//9
f 157//12 154//10 153//10
f 154//10 157//12 158//12
f 159//11 160//11 155//9
f 156//9 155//9 160//11
f 161//14 158//12 157//12
f 158//12 161//14 162//14
f 163//13 164//13 159//11
f 160//11 159//11 164//13
f 165//16 161//14 166//16
f 161//14 165//16 162//14
f 163//13 167//15 164//13
f 168//15 164//13 167//15
f 169//18 166//16 170//18
f 166//16 169//18 165//16
f 167//15 171//17 168//15
f 172//17 168//15 171//17
f 173//35 170//18 174//36
f 170//18 173//35 169//18
f 171//17 175//37 172//17
f 176//38 172//17 175//37
f 177//24 174//36 178//24
f 174//36 177//24 173//35
f 175//37 179//23 176//38
f 180//23 176//38 179//23
f 181//26 178//24 182//26
f 178//24 181//26 177//24
f 179//23 183//25 180//23
f 184//25 180//23 183//25
f 185//28 182//26 186//28
f 182//26 185//28 181//26
f 183//25 187//27 184//25
f 188//27 184//25 187//27
f 189//30 186//28 190//30
f 186//28 189//30 185//28
f 187//27 191//29 188//27
f 192//29 188//27 191//29
f 100//4 190//30 98//4
f 190//30 100//4 189//30
f 191//29 101//6 192//29
f 103//6 192//29 101//6
f 193//2 194//2 195//2
f 194//2 193//2 196//2
f 194//2 196//2 197//2
f 197//2 196//2 198//2
f 197//2 198//2 199//2
f 199//2 198//2 200//2
f 199//2 200//2 201//2
f 201//2 200//2 202//2
f 201//2 202//2 203//2
f 203//2 202//2 204//2
f 204//2 202//2 205//2
f 205//2 202//2 206//2
f 205//2 206//2 207//2
f 207//2 206//2 208//2
f 208//2 206//2 209//2
f 209//2 206//2 210//2
f 210//2 206//2 211//2
f 211//2 206//2 212//2
f 211//2 212//2 213//2
f 213//2 212//2 214//2
f 214//2 212//2 215//2
f 215//2 212//2 216//2
f 216//2 212//2 217//2
f 217//2 212//2 218//2
f 203//2 219//2 220//2
f 219//2 203//2 204//2
f 220//2 219//2 221//2
f 220//2 221//2 222//2
f 220//2 222//2 223//2
f 220//2 223//2 224//2
f 220//2 224//2 225//2
f 220//2 225//2 226//2
f 220//2 226//2 227//2
f 227//2 226//2 228//2
f 227//2 228//2 229//2
f 227//2 229//2 230//2
f 227//2 230//2 231//2
f 227//2 231//2 218//2
f 227//2 218//2 212//2
f 227//2 212//2 232//2
f 227//2 232//2 233//2
f 233//2 232//2 234//2
f 233//2 234//2 235//2
f 235//2 234//2 236//2
f 235//2 236//2 237//2
f 237//2 236//2 238//2
f 237//2 238//2 239//2
f 239//2 238//2 240//2
f 241//1 242//1 243//1
f 243//1 242//1 244//1
f 242//1 245//1 244//1
f 244//1 245//1 246//1
f 245//1 247//1 246//1
f 246//1 247//1 248//1
f 247//1 249//1 248//1
f 248//1 249//1 250//1
f 249//1 251//1 250//1
f 251//1 252//1 250//1
f 252//1 253//1 250//1
f 253//1 254//1 250//1
f 254//1 255//1 250//1
f 255//1 256//1 250//1
f 256//1 257//1 250//1
f 250//1 257//1 258//1
f 257//1 259//1 258//1
f 259//1 260//1 258//1
f 260//1 261//1 258//1
f 261//1 262//1 258//1
f 262//1 263//1 258//1
f 263//1 264//1 258//1
f 265//1 266//1 264//1
f 258//1 264//1 266//1
f 252//1 251//1 267//1
f 267//1 251//1 268//1
f 268//1 251//1 269//1
f 269//1 251//1 270//1
f 270//1 251//1 271//1
f 271//1 251//1 272//1
f 251//1 273//1 272//1
f 272//1 273//1 274//1
f 274//1 273//1 275//1
f 275//1 273//1 276//1
f 276//1 273//1 277//1
f 277//1 273//1 278//1
f 273//1 279//1 278//1
f 278//1 279//1 265//1
f 265//1 279//1 266//1
f 266//1 279//1 280//1
f 279//1 281//1 280//1
f 280//1 281//1 282//1
f 281//1 283//1 282//1
f 282//1 283//1 284//1
f 283//1 285//1 284//1
f 284//1 285//1 286//1
f 285//1 287//1 286//1
f 288//1 286//1 287//1
