# SSTK version 0.8.0
# 4
mtllib original-4.mtl
o #ID71
v -0.291434 -0.036183 0.412534
v -0.298280 -0.036139 0.405210
v -0.294735 -0.036799 0.408754
v -0.288602 -0.034334 0.416292
v -0.301826 -0.034249 0.402142
v -0.295443 -0.033091 0.409438
v -0.292796 -0.032597 0.412470
v -0.286431 -0.031377 0.419771
v -0.290525 -0.031114 0.415483
v -0.285070 -0.027514 0.422735
v -0.288784 -0.028743 0.418273
v -0.287693 -0.025645 0.420650
v -0.284611 -0.023007 0.424982
v -0.287325 -0.022031 0.422451
v -0.285086 -0.018166 0.426358
v -0.287705 -0.018149 0.423555
v -0.286461 -0.013318 0.426770
v -0.288808 -0.014261 0.423885
v -0.290559 -0.010634 0.423420
v -0.288645 -0.008795 0.426189
v -0.292838 -0.007514 0.422190
v -0.291487 -0.004904 0.424656
v -0.295490 -0.005115 0.420280
v -0.298334 -0.003598 0.417820
v -0.294793 -0.001912 0.422274
v -0.301176 -0.003069 0.414978
v -0.298286 -0.032562 0.406596
v -0.305133 -0.031256 0.399761
v -0.301130 -0.031046 0.404136
v -0.307975 -0.027366 0.398227
v -0.303782 -0.028646 0.402226
v -0.306061 -0.025526 0.400997
v -0.310159 -0.022843 0.397647
v -0.307811 -0.021899 0.400531
v -0.311534 -0.017995 0.398058
v -0.308915 -0.018012 0.400861
v -0.309295 -0.014129 0.401965
v -0.312009 -0.013153 0.399434
v -0.308927 -0.010515 0.403766
v -0.311550 -0.008647 0.401681
v -0.307836 -0.007417 0.406143
v -0.310189 -0.004783 0.404645
v -0.306095 -0.005046 0.408933
v -0.303823 -0.003563 0.411947
v -0.308018 -0.001826 0.408124
v -0.298340 -0.000021 0.419206
v -0.305185 0.000023 0.411882
v -0.301885 0.000639 0.415662
v -0.301885 0.000639 0.415662
v -0.298340 -0.000021 0.419206
v -0.305185 0.000023 0.411882
v -0.308018 -0.001826 0.408124
v -0.294793 -0.001912 0.422274
v -0.301176 -0.003069 0.414978
v -0.303823 -0.003563 0.411947
v -0.310189 -0.004783 0.404645
v -0.306095 -0.005046 0.408933
v -0.307836 -0.007417 0.406143
v -0.311550 -0.008647 0.401681
v -0.308927 -0.010515 0.403766
v -0.312009 -0.013153 0.399434
v -0.309295 -0.014129 0.401965
v -0.311534 -0.017995 0.398058
v -0.308915 -0.018012 0.400861
v -0.307811 -0.021899 0.400531
v -0.310159 -0.022843 0.397647
v -0.306061 -0.025526 0.400997
v -0.307975 -0.027366 0.398227
v -0.303782 -0.028646 0.402226
v -0.301130 -0.031046 0.404136
v -0.305133 -0.031256 0.399761
v -0.298286 -0.032562 0.406596
v -0.295443 -0.033091 0.409438
v -0.301826 -0.034249 0.402142
v -0.298334 -0.003598 0.417820
v -0.291487 -0.004904 0.424656
v -0.295490 -0.005115 0.420280
v -0.292838 -0.007514 0.422190
v -0.288645 -0.008795 0.426189
v -0.290559 -0.010634 0.423420
v -0.286461 -0.013318 0.426770
v -0.288808 -0.014261 0.423885
v -0.287705 -0.018149 0.423555
v -0.285086 -0.018166 0.426358
v -0.287325 -0.022031 0.422451
v -0.284611 -0.023007 0.424982
v -0.287693 -0.025645 0.420650
v -0.285070 -0.027514 0.422735
v -0.288784 -0.028743 0.418273
v -0.290525 -0.031114 0.415483
v -0.286431 -0.031377 0.419771
v -0.292796 -0.032597 0.412470
v -0.288602 -0.034334 0.416292
v -0.298280 -0.036139 0.405210
v -0.291434 -0.036183 0.412534
v -0.294735 -0.036799 0.408754
v -0.305185 0.000023 0.411882
v -0.307316 -0.001333 0.420726
v -0.310617 -0.001949 0.416946
v -0.301885 0.000639 0.415662
v -0.301885 0.000639 0.415662
v -0.305185 0.000023 0.411882
v -0.307316 -0.001333 0.420726
v -0.310617 -0.001949 0.416946
v -0.308018 -0.001826 0.408124
v -0.313449 -0.003798 0.413189
v -0.308018 -0.001826 0.408124
v -0.313449 -0.003798 0.413189
v -0.315620 -0.006755 0.409709
v -0.310189 -0.004783 0.404645
v -0.310189 -0.004783 0.404645
v -0.315620 -0.006755 0.409709
v -0.316981 -0.010618 0.406745
v -0.311550 -0.008647 0.401681
v -0.311550 -0.008647 0.401681
v -0.316981 -0.010618 0.406745
v -0.317440 -0.015124 0.404499
v -0.312009 -0.013153 0.399434
v -0.312009 -0.013153 0.399434
v -0.317440 -0.015124 0.404499
v -0.316966 -0.019966 0.403123
v -0.311534 -0.017995 0.398058
v -0.311534 -0.017995 0.398058
v -0.316966 -0.019966 0.403123
v -0.315590 -0.024814 0.402711
v -0.310159 -0.022843 0.397647
v -0.310159 -0.022843 0.397647
v -0.315590 -0.024814 0.402711
v -0.313407 -0.029337 0.403291
v -0.307975 -0.027366 0.398227
v -0.307975 -0.027366 0.398227
v -0.313407 -0.029337 0.403291
v -0.310565 -0.033228 0.404825
v -0.305133 -0.031256 0.399761
v -0.305133 -0.031256 0.399761
v -0.310565 -0.033228 0.404825
v -0.307258 -0.036220 0.407206
v -0.301826 -0.034249 0.402142
v -0.301826 -0.034249 0.402142
v -0.307258 -0.036220 0.407206
v -0.303711 -0.038111 0.410274
v -0.298280 -0.036139 0.405210
v -0.298280 -0.036139 0.405210
v -0.303711 -0.038111 0.410274
v -0.300167 -0.038771 0.413818
v -0.294735 -0.036799 0.408754
v -0.294735 -0.036799 0.408754
v -0.300167 -0.038771 0.413818
v -0.296866 -0.038155 0.417598
v -0.291434 -0.036183 0.412534
v -0.291434 -0.036183 0.412534
v -0.296866 -0.038155 0.417598
v -0.294033 -0.036306 0.421356
v -0.288602 -0.034334 0.416292
v -0.288602 -0.034334 0.416292
v -0.294033 -0.036306 0.421356
v -0.286431 -0.031377 0.419771
v -0.291863 -0.033348 0.424835
v -0.286431 -0.031377 0.419771
v -0.291863 -0.033348 0.424835
v -0.285070 -0.027514 0.422735
v -0.290501 -0.029485 0.427799
v -0.285070 -0.027514 0.422735
v -0.290501 -0.029485 0.427799
v -0.284611 -0.023007 0.424982
v -0.290042 -0.024979 0.430046
v -0.284611 -0.023007 0.424982
v -0.290042 -0.024979 0.430046
v -0.285086 -0.018166 0.426358
v -0.290517 -0.020137 0.431422
v -0.285086 -0.018166 0.426358
v -0.290517 -0.020137 0.431422
v -0.286461 -0.013318 0.426770
v -0.291893 -0.015289 0.431834
v -0.286461 -0.013318 0.426770
v -0.291893 -0.015289 0.431834
v -0.288645 -0.008795 0.426189
v -0.294076 -0.010766 0.431253
v -0.288645 -0.008795 0.426189
v -0.294076 -0.010766 0.431253
v -0.291487 -0.004904 0.424656
v -0.296918 -0.006876 0.429720
v -0.291487 -0.004904 0.424656
v -0.296918 -0.006876 0.429720
v -0.294793 -0.001912 0.422274
v -0.300225 -0.003883 0.427338
v -0.294793 -0.001912 0.422274
v -0.300225 -0.003883 0.427338
v -0.298340 -0.000021 0.419206
v -0.303771 -0.001993 0.424271
v -0.298340 -0.000021 0.419206
v -0.303771 -0.001993 0.424271
vn -0.7069006513812058 -0.2566048440677407 0.6591247401499942
vn 0.7069006513812058 0.2566048440677407 -0.6591247401499942
vn 0.3540950315693076 -0.9350772340515158 0.01572497937988131
vn 0.18348840136865077 -0.9664982044181641 -0.17948043742882241
vn 0.35233304512036623 -0.9357763994102849 0.01356302410722145
vn 0.18556871509385214 -0.9665117895734047 -0.17725465464701148
vn -0.18556871509385214 0.9665117895734047 0.17725465464701148
vn -0.3540950315693076 0.9350772340515158 -0.01572497937988131
vn -0.18348840136865077 0.9664982044181641 0.17948043742882241
vn -0.35233304512036623 0.9357763994102849 -0.01356302410722145
vn 0.499618659069513 -0.8407765100692987 0.2085091259999716
vn 0.49839676129753396 -0.8419360267614217 0.20674717693192252
vn -0.499618659069513 0.8407765100692987 -0.2085091259999716
vn -0.49839676129753396 0.8419360267614217 -0.20674717693192252
vn 0.6114109712165975 -0.6902108886850321 0.387021386252227
vn 0.6120711944701386 -0.688951596086174 0.3882197201974821
vn -0.6120711944701386 0.688951596086174 -0.3882197201974821
vn -0.6114109712165975 0.6902108886850321 -0.387021386252227
vn 0.6828723095206155 -0.49044267496510763 0.5414345680348186
vn 0.6830996616071358 -0.48941265071180523 0.5420794311126931
vn -0.6830996616071358 0.48941265071180523 -0.5420794311126931
vn -0.6828723095206155 0.49044267496510763 -0.5414345680348186
vn 0.7073128394459974 -0.2563794887441867 0.6587701457307473
vn 0.7073126805068592 -0.2558106939542597 0.6589913966455417
vn -0.7073126805068592 0.2558106939542597 -0.6589913966455417
vn -0.7073128394459974 0.2563794887441867 -0.6587701457307473
vn 0.6828015561139198 -0.004373984199861833 0.7305907905459998
vn 0.6828034765063837 -0.0043840739668517805 0.7305889352886817
vn -0.6828034765063837 0.0043840739668517805 -0.7305889352886817
vn -0.6828015561139198 0.004373984199861833 -0.7305907905459998
vn 0.6109967155930057 0.2479312226173167 0.7518065724546723
vn 0.611221540878362 0.24734146248761696 0.7518180823183009
vn -0.611221540878362 -0.24734146248761696 -0.7518180823183009
vn -0.6109967155930057 -0.2479312226173167 -0.7518065724546723
vn 0.49698750774914796 0.48287131871356775 0.72099840964118
vn 0.49761998920583256 0.48181809129805137 0.7212667143579342
vn -0.49761998920583256 -0.48181809129805137 -0.7212667143579342
vn -0.49698750774914796 -0.48287131871356775 -0.72099840964118
vn 0.34896991254675913 0.6840295624783194 0.6405650301045369
vn 0.3501260272814163 0.6827444897480438 0.6413047066245624
vn -0.3501260272814163 -0.6827444897480438 -0.6413047066245624
vn -0.34896991254675913 -0.6840295624783194 -0.6405650301045369
vn 0.17768815363188134 0.8375619263681447 0.5166400483483403
vn 0.1793685602107561 0.8363750939590234 0.517980329561804
vn -0.1793685602107561 -0.8363750939590234 -0.517980329561804
vn -0.17768815363188134 -0.8375619263681447 -0.5166400483483403
vn -0.004579119166918887 0.9335123722893293 0.35851594448560276
vn -0.0025378184410049433 0.9327857365330433 0.3604224315966865
vn 0.0025378184410049433 -0.9327857365330433 -0.3604224315966865
vn 0.004579119166918887 -0.9335123722893293 -0.35851594448560276
usemtl material_0_0
f 1//1 2//1 3//1
f 2//1 1//1 4//1
f 2//1 4//1 5//1
f 5//1 4//1 6//1
f 6//1 4//1 7//1
f 7//1 4//1 8//1
f 7//1 8//1 9//1
f 9//1 8//1 10//1
f 9//1 10//1 11//1
f 11//1 10//1 12//1
f 12//1 10//1 13//1
f 12//1 13//1 14//1
f 14//1 13//1 15//1
f 14//1 15//1 16//1
f 16//1 15//1 17//1
f 16//1 17//1 18//1
f 18//1 17//1 19//1
f 19//1 17//1 20//1
f 19//1 20//1 21//1
f 21//1 20//1 22//1
f 21//1 22//1 23//1
f 23//1 22//1 24//1
f 24//1 22//1 25//1
f 24//1 25//1 26//1
f 5//1 27//1 28//1
f 27//1 5//1 6//1
f 28//1 27//1 29//1
f 28//1 29//1 30//1
f 30//1 29//1 31//1
f 30//1 31//1 32//1
f 30//1 32//1 33//1
f 33//1 32//1 34//1
f 33//1 34//1 35//1
f 35//1 34//1 36//1
f 35//1 36//1 37//1
f 35//1 37//1 38//1
f 38//1 37//1 39//1
f 38//1 39//1 40//1
f 40//1 39//1 41//1
f 40//1 41//1 42//1
f 42//1 41//1 43//1
f 42//1 43//1 44//1
f 42//1 44//1 45//1
f 45//1 44//1 26//1
f 45//1 26//1 25//1
f 45//1 25//1 46//1
f 45//1 46//1 47//1
f 47//1 46//1 48//1
f 49//2 50//2 51//2
f 51//2 50//2 52//2
f 50//2 53//2 52//2
f 53//2 54//2 52//2
f 54//2 55//2 52//2
f 52//2 55//2 56//2
f 55//2 57//2 56//2
f 57//2 58//2 56//2
f 56//2 58//2 59//2
f 58//2 60//2 59//2
f 59//2 60//2 61//2
f 60//2 62//2 61//2
f 61//2 62//2 63//2
f 62//2 64//2 63//2
f 64//2 65//2 63//2
f 63//2 65//2 66//2
f 65//2 67//2 66//2
f 66//2 67//2 68//2
f 67//2 69//2 68//2
f 69//2 70//2 68//2
f 68//2 70//2 71//2
f 70//2 72//2 71//2
f 73//2 74//2 72//2
f 71//2 72//2 74//2
f 54//2 53//2 75//2
f 53//2 76//2 75//2
f 75//2 76//2 77//2
f 77//2 76//2 78//2
f 76//2 79//2 78//2
f 78//2 79//2 80//2
f 79//2 81//2 80//2
f 80//2 81//2 82//2
f 82//2 81//2 83//2
f 81//2 84//2 83//2
f 83//2 84//2 85//2
f 84//2 86//2 85//2
f 85//2 86//2 87//2
f 86//2 88//2 87//2
f 87//2 88//2 89//2
f 89//2 88//2 90//2
f 88//2 91//2 90//2
f 90//2 91//2 92//2
f 91//2 93//2 92//2
f 92//2 93//2 73//2
f 73//2 93//2 74//2
f 74//2 93//2 94//2
f 93//2 95//2 94//2
f 96//2 94//2 95//2
f 97//3 98//4 99//5
f 98//4 97//3 100//6
f 101//7 102//8 103//9
f 104//10 103//9 102//8
f 105//11 99//5 106//12
f 99//5 105//11 97//3
f 102//8 107//13 104//10
f 108//14 104//10 107//13
f 109//15 105//11 106//12
f 105//11 109//15 110//16
f 111//17 112//18 107//13
f 108//14 107//13 112//18
f 113//19 110//16 109//15
f 110//16 113//19 114//20
f 115//21 116//22 111//17
f 112//18 111//17 116//22
f 117//23 114//20 113//19
f 114//20 117//23 118//24
f 119//25 120//26 115//21
f 116//22 115//21 120//26
f 121//27 118//24 117//23
f 118//24 121//27 122//28
f 123//29 124//30 119//25
f 120//26 119//25 124//30
f 125//31 122//28 121//27
f 122//28 125//31 126//32
f 127//33 128//34 123//29
f 124//30 123//29 128//34
f 129//35 126//32 125//31
f 126//32 129//35 130//36
f 131//37 132//38 127//33
f 128//34 127//33 132//38
f 133//39 130//36 129//35
f 130//36 133//39 134//40
f 135//41 136//42 131//37
f 132//38 131//37 136//42
f 137//43 134//40 133//39
f 134//40 137//43 138//44
f 139//45 140//46 135//41
f 136//42 135//41 140//46
f 141//47 138//44 137//43
f 138//44 141//47 142//48
f 143//49 144//50 139//45
f 140//46 139//45 144//50
f 145//7 142//48 141//47
f 142//48 145//7 146//9
f 147//4 148//6 143//49
f 144//50 143//49 148//6
f 149//8 146//9 145//7
f 146//9 149//8 150//10
f 151//5 152//3 147//4
f 148//6 147//4 152//3
f 153//13 150//10 149//8
f 150//10 153//13 154//14
f 155//12 156//11 151//5
f 152//3 151//5 156//11
f 157//18 153//13 158//17
f 153//13 157//18 154//14
f 155//12 159//15 156//11
f 160//16 156//11 159//15
f 161//22 158//17 162//21
f 158//17 161//22 157//18
f 159//15 163//19 160//16
f 164//20 160//16 163//19
f 165//26 162//21 166//25
f 162//21 165//26 161//22
f 163//19 167//23 164//20
f 168//24 164//20 167//23
f 169//30 166//25 170//29
f 166//25 169//30 165//26
f 167//23 171//27 168//24
f 172//28 168//24 171//27
f 173//34 170//29 174//33
f 170//29 173//34 169//30
f 171//27 175//31 172//28
f 176//32 172//28 175//31
f 177//38 174//33 178//37
f 174//33 177//38 173//34
f 175//31 179//35 176//32
f 180//36 176//32 179//35
f 181//42 178//37 182//41
f 178//37 181//42 177//38
f 179//35 183//39 180//36
f 184//40 180//36 183//39
f 185//46 182//41 186//45
f 182//41 185//46 181//42
f 183//39 187//43 184//40
f 188//44 184//40 187//43
f 189//50 186//45 190//49
f 186//45 189//50 185//46
f 187//43 191//47 188//44
f 192//48 188//44 191//47
f 100//6 190//49 98//4
f 190//49 100//6 189//50
f 191//47 101//7 192//48
f 103//9 192//48 101//7
