# SSTK version 0.8.0
# 13
mtllib original-13.mtl
o #ID53
v -0.204607 -0.121950 0.167062
v -0.188933 -0.125878 0.182737
v -0.204607 -0.125878 0.167062
v -0.188933 -0.121950 0.182737
v -0.202952 -0.111113 0.168717
v -0.185421 -0.116485 0.186248
v -0.181703 -0.111459 0.189967
v -0.177794 -0.106897 0.193875
v -0.200606 -0.100676 0.171063
v -0.173715 -0.102822 0.197955
v -0.169484 -0.099252 0.202185
v -0.197600 -0.090773 0.174069
v -0.165122 -0.096205 0.206547
v -0.160651 -0.093695 0.211019
v -0.159623 -0.093253 0.212047
v -0.156091 -0.091735 0.215579
v -0.151464 -0.090334 0.220205
v -0.193971 -0.081534 0.177698
v -0.146793 -0.089499 0.224876
v -0.142101 -0.089233 0.229569
v -0.137409 -0.043390 0.234260
v -0.137409 -0.089539 0.234260
v -0.189767 -0.073077 0.181902
v -0.185043 -0.065512 0.186627
v -0.179859 -0.058937 0.191810
v -0.174282 -0.053438 0.197387
v -0.168386 -0.049085 0.203283
v -0.162246 -0.045935 0.209423
v -0.155941 -0.044029 0.215728
v -0.149554 -0.043390 0.222115
v -0.149554 -0.043390 0.222115
v -0.155941 -0.044029 0.215728
v -0.137409 -0.043390 0.234260
v -0.162246 -0.045935 0.209423
v -0.168386 -0.049085 0.203283
v -0.174282 -0.053438 0.197387
v -0.179859 -0.058937 0.191810
v -0.185043 -0.065512 0.186627
v -0.189767 -0.073077 0.181902
v -0.193971 -0.081534 0.177698
v -0.142101 -0.089233 0.229569
v -0.137409 -0.089539 0.234260
v -0.146793 -0.089499 0.224876
v -0.151464 -0.090334 0.220205
v -0.197600 -0.090773 0.174069
v -0.156091 -0.091735 0.215579
v -0.159623 -0.093253 0.212047
v -0.160651 -0.093695 0.211019
v -0.165122 -0.096205 0.206547
v -0.169484 -0.099252 0.202185
v -0.200606 -0.100676 0.171063
v -0.173715 -0.102822 0.197955
v -0.177794 -0.106897 0.193875
v -0.202952 -0.111113 0.168717
v -0.181703 -0.111459 0.189967
v -0.185421 -0.116485 0.186248
v -0.188933 -0.121950 0.182737
v -0.204607 -0.121950 0.167062
v -0.188933 -0.125878 0.182737
v -0.204607 -0.125878 0.167062
v -0.159623 -0.093253 0.212047
v -0.185790 -0.093695 0.236158
v -0.160651 -0.093695 0.211019
v -0.184762 -0.093253 0.237186
v -0.184762 -0.093253 0.237186
v -0.159623 -0.093253 0.212047
v -0.185790 -0.093695 0.236158
v -0.160651 -0.093695 0.211019
v -0.190262 -0.096205 0.231687
v -0.165122 -0.096205 0.206547
v -0.190262 -0.096205 0.231687
v -0.165122 -0.096205 0.206547
v -0.194623 -0.099252 0.227325
v -0.169484 -0.099252 0.202185
v -0.194623 -0.099252 0.227325
v -0.169484 -0.099252 0.202185
v -0.198854 -0.102822 0.223094
v -0.173715 -0.102822 0.197955
v -0.198854 -0.102822 0.223094
v -0.173715 -0.102822 0.197955
v -0.202934 -0.106897 0.219015
v -0.177794 -0.106897 0.193875
v -0.202934 -0.106897 0.219015
v -0.177794 -0.106897 0.193875
v -0.206842 -0.111459 0.215106
v -0.181703 -0.111459 0.189967
v -0.206842 -0.111459 0.215106
v -0.181703 -0.111459 0.189967
v -0.210561 -0.116485 0.211387
v -0.185421 -0.116485 0.186248
v -0.210561 -0.116485 0.211387
v -0.185421 -0.116485 0.186248
v -0.214072 -0.121950 0.207876
v -0.188933 -0.121950 0.182737
v -0.188933 -0.121950 0.182737
v -0.214072 -0.121950 0.207876
v -0.188933 -0.125878 0.182737
v -0.214072 -0.121950 0.207876
v -0.214072 -0.125878 0.207876
v -0.188933 -0.121950 0.182737
v -0.188933 -0.121950 0.182737
v -0.188933 -0.125878 0.182737
v -0.214072 -0.121950 0.207876
v -0.214072 -0.125878 0.207876
v -0.204607 -0.125878 0.167062
v -0.204607 -0.125878 0.170925
v -0.229746 -0.125878 0.192202
v -0.188933 -0.125878 0.182737
v -0.192796 -0.125878 0.182737
v -0.214072 -0.125878 0.204013
v -0.225883 -0.125878 0.192202
v -0.214072 -0.125878 0.207876
v -0.188933 -0.125878 0.182737
v -0.214072 -0.125878 0.204013
v -0.214072 -0.125878 0.207876
v -0.225883 -0.125878 0.192202
v -0.204607 -0.125878 0.170925
v -0.229746 -0.125878 0.192202
v -0.192796 -0.125878 0.182737
v -0.204607 -0.125878 0.167062
v -0.229746 -0.121950 0.192202
v -0.204607 -0.125878 0.167062
v -0.229746 -0.125878 0.192202
v -0.204607 -0.121950 0.167062
v -0.204607 -0.121950 0.167062
v -0.229746 -0.121950 0.192202
v -0.204607 -0.125878 0.167062
v -0.229746 -0.125878 0.192202
v -0.202952 -0.111113 0.168717
v -0.229746 -0.121950 0.192202
v -0.228092 -0.111113 0.193856
v -0.204607 -0.121950 0.167062
v -0.204607 -0.121950 0.167062
v -0.202952 -0.111113 0.168717
v -0.229746 -0.121950 0.192202
v -0.228092 -0.111113 0.193856
v -0.200606 -0.100676 0.171063
v -0.225746 -0.100676 0.196202
v -0.200606 -0.100676 0.171063
v -0.225746 -0.100676 0.196202
v -0.197600 -0.090773 0.174069
v -0.222739 -0.090773 0.199209
v -0.197600 -0.090773 0.174069
v -0.222739 -0.090773 0.199209
v -0.193971 -0.081534 0.177698
v -0.219110 -0.081534 0.202838
v -0.193971 -0.081534 0.177698
v -0.219110 -0.081534 0.202838
v -0.189767 -0.073077 0.181902
v -0.214907 -0.073077 0.207042
v -0.189767 -0.073077 0.181902
v -0.214907 -0.073077 0.207042
v -0.185043 -0.065512 0.186627
v -0.210182 -0.065512 0.211766
v -0.185043 -0.065512 0.186627
v -0.210182 -0.065512 0.211766
v -0.179859 -0.058937 0.191810
v -0.204998 -0.058937 0.216950
v -0.204998 -0.058937 0.216950
v -0.179859 -0.058937 0.191810
v -0.174282 -0.053438 0.197387
v -0.199422 -0.053438 0.222526
v -0.199422 -0.053438 0.222526
v -0.174282 -0.053438 0.197387
v -0.168386 -0.049085 0.203283
v -0.193526 -0.049085 0.228423
v -0.193526 -0.049085 0.228423
v -0.168386 -0.049085 0.203283
v -0.162246 -0.045935 0.209423
v -0.187386 -0.045935 0.234563
v -0.187386 -0.045935 0.234563
v -0.162246 -0.045935 0.209423
v -0.155941 -0.044029 0.215728
v -0.181081 -0.044029 0.240867
v -0.181081 -0.044029 0.240867
v -0.155941 -0.044029 0.215728
v -0.149554 -0.043390 0.222115
v -0.174694 -0.043390 0.247255
v -0.174694 -0.043390 0.247255
v -0.149554 -0.043390 0.222115
v -0.174694 -0.043390 0.247255
v -0.137409 -0.043390 0.234260
v -0.149554 -0.043390 0.222115
v -0.162548 -0.043390 0.259400
v -0.162548 -0.043390 0.259400
v -0.174694 -0.043390 0.247255
v -0.137409 -0.043390 0.234260
v -0.149554 -0.043390 0.222115
v -0.137409 -0.043390 0.234260
v -0.132717 -0.089233 0.238952
v -0.137409 -0.089539 0.234260
v -0.080847 -0.081534 0.290823
v -0.085050 -0.073077 0.286619
v -0.089775 -0.065512 0.281894
v -0.094959 -0.058937 0.276710
v -0.100535 -0.053438 0.271134
v -0.106431 -0.049085 0.265238
v -0.112572 -0.045935 0.259098
v -0.118876 -0.044029 0.252793
v -0.125263 -0.043390 0.246406
v -0.085885 -0.121950 0.285784
v -0.070211 -0.125878 0.301458
v -0.085885 -0.125878 0.285784
v -0.070211 -0.121950 0.301458
v -0.089396 -0.116485 0.282273
v -0.071865 -0.111113 0.299804
v -0.093115 -0.111459 0.278554
v -0.097024 -0.106897 0.274646
v -0.074211 -0.100676 0.297458
v -0.101103 -0.102822 0.270566
v -0.105334 -0.099252 0.266335
v -0.077218 -0.090773 0.294451
v -0.109695 -0.096205 0.261974
v -0.114167 -0.093695 0.257502
v -0.115195 -0.093253 0.256474
v -0.118727 -0.091735 0.252942
v -0.123354 -0.090334 0.248316
v -0.128024 -0.089499 0.243645
v -0.132717 -0.089233 0.238952
v -0.128024 -0.089499 0.243645
v -0.080847 -0.081534 0.290823
v -0.123354 -0.090334 0.248316
v -0.077218 -0.090773 0.294451
v -0.118727 -0.091735 0.252942
v -0.115195 -0.093253 0.256474
v -0.114167 -0.093695 0.257502
v -0.109695 -0.096205 0.261974
v -0.105334 -0.099252 0.266335
v -0.074211 -0.100676 0.297458
v -0.101103 -0.102822 0.270566
v -0.097024 -0.106897 0.274646
v -0.071865 -0.111113 0.299804
v -0.093115 -0.111459 0.278554
v -0.089396 -0.116485 0.282273
v -0.070211 -0.121950 0.301458
v -0.085885 -0.121950 0.285784
v -0.070211 -0.125878 0.301458
v -0.085885 -0.125878 0.285784
v -0.125263 -0.043390 0.246406
v -0.137409 -0.043390 0.234260
v -0.118876 -0.044029 0.252793
v -0.112572 -0.045935 0.259098
v -0.106431 -0.049085 0.265238
v -0.100535 -0.053438 0.271134
v -0.094959 -0.058937 0.276710
v -0.089775 -0.065512 0.281894
v -0.085050 -0.073077 0.286619
v -0.137409 -0.089539 0.234260
v -0.162548 -0.043390 0.259400
v -0.137409 -0.089539 0.234260
v -0.162548 -0.089539 0.259400
v -0.137409 -0.043390 0.234260
v -0.137409 -0.043390 0.234260
v -0.162548 -0.043390 0.259400
v -0.137409 -0.089539 0.234260
v -0.162548 -0.089539 0.259400
v -0.137409 -0.089539 0.234260
v -0.167240 -0.089233 0.254708
v -0.142101 -0.089233 0.229569
v -0.162548 -0.089539 0.259400
v -0.162548 -0.089539 0.259400
v -0.137409 -0.089539 0.234260
v -0.167240 -0.089233 0.254708
v -0.142101 -0.089233 0.229569
v -0.171933 -0.089499 0.250016
v -0.146793 -0.089499 0.224876
v -0.171933 -0.089499 0.250016
v -0.146793 -0.089499 0.224876
v -0.176604 -0.090334 0.245345
v -0.151464 -0.090334 0.220205
v -0.176604 -0.090334 0.245345
v -0.151464 -0.090334 0.220205
v -0.181230 -0.091735 0.240718
v -0.156091 -0.091735 0.215579
v -0.181230 -0.091735 0.240718
v -0.156091 -0.091735 0.215579
v -0.184762 -0.093253 0.237186
v -0.159623 -0.093253 0.212047
v -0.184762 -0.093253 0.237186
v -0.159623 -0.093253 0.212047
v -0.162548 -0.043390 0.259400
v -0.167240 -0.089233 0.254708
v -0.162548 -0.089539 0.259400
v -0.219110 -0.081534 0.202838
v -0.214907 -0.073077 0.207042
v -0.210182 -0.065512 0.211766
v -0.204998 -0.058937 0.216950
v -0.199422 -0.053438 0.222526
v -0.193526 -0.049085 0.228423
v -0.187386 -0.045935 0.234563
v -0.181081 -0.044029 0.240867
v -0.174694 -0.043390 0.247255
v -0.214072 -0.121950 0.207876
v -0.229746 -0.125878 0.192202
v -0.214072 -0.125878 0.207876
v -0.229746 -0.121950 0.192202
v -0.210561 -0.116485 0.211387
v -0.228092 -0.111113 0.193856
v -0.206842 -0.111459 0.215106
v -0.202934 -0.106897 0.219015
v -0.225746 -0.100676 0.196202
v -0.198854 -0.102822 0.223094
v -0.194623 -0.099252 0.227325
v -0.222739 -0.090773 0.199209
v -0.190262 -0.096205 0.231687
v -0.185790 -0.093695 0.236158
v -0.184762 -0.093253 0.237186
v -0.181230 -0.091735 0.240718
v -0.176604 -0.090334 0.245345
v -0.171933 -0.089499 0.250016
v -0.167240 -0.089233 0.254708
v -0.171933 -0.089499 0.250016
v -0.219110 -0.081534 0.202838
v -0.176604 -0.090334 0.245345
v -0.222739 -0.090773 0.199209
v -0.181230 -0.091735 0.240718
v -0.184762 -0.093253 0.237186
v -0.185790 -0.093695 0.236158
v -0.190262 -0.096205 0.231687
v -0.194623 -0.099252 0.227325
v -0.225746 -0.100676 0.196202
v -0.198854 -0.102822 0.223094
v -0.202934 -0.106897 0.219015
v -0.228092 -0.111113 0.193856
v -0.206842 -0.111459 0.215106
v -0.210561 -0.116485 0.211387
v -0.229746 -0.121950 0.192202
v -0.214072 -0.121950 0.207876
v -0.229746 -0.125878 0.192202
v -0.214072 -0.125878 0.207876
v -0.174694 -0.043390 0.247255
v -0.162548 -0.043390 0.259400
v -0.181081 -0.044029 0.240867
v -0.187386 -0.045935 0.234563
v -0.193526 -0.049085 0.228423
v -0.199422 -0.053438 0.222526
v -0.204998 -0.058937 0.216950
v -0.210182 -0.065512 0.211766
v -0.214907 -0.073077 0.207042
v -0.162548 -0.089539 0.259400
v -0.162548 -0.043390 0.259400
v -0.125263 -0.043390 0.246406
v -0.137409 -0.043390 0.234260
v -0.150403 -0.043390 0.271545
v -0.150403 -0.043390 0.271545
v -0.162548 -0.043390 0.259400
v -0.125263 -0.043390 0.246406
v -0.137409 -0.043390 0.234260
v -0.114167 -0.093695 0.257502
v -0.140335 -0.093253 0.281614
v -0.115195 -0.093253 0.256474
v -0.139307 -0.093695 0.282642
v -0.139307 -0.093695 0.282642
v -0.114167 -0.093695 0.257502
v -0.140335 -0.093253 0.281614
v -0.115195 -0.093253 0.256474
v -0.115195 -0.093253 0.256474
v -0.143867 -0.091735 0.278082
v -0.118727 -0.091735 0.252942
v -0.140335 -0.093253 0.281614
v -0.140335 -0.093253 0.281614
v -0.115195 -0.093253 0.256474
v -0.143867 -0.091735 0.278082
v -0.118727 -0.091735 0.252942
v -0.148493 -0.090334 0.273455
v -0.123354 -0.090334 0.248316
v -0.148493 -0.090334 0.273455
v -0.123354 -0.090334 0.248316
v -0.153164 -0.089499 0.268784
v -0.128024 -0.089499 0.243645
v -0.153164 -0.089499 0.268784
v -0.128024 -0.089499 0.243645
v -0.157857 -0.089233 0.264092
v -0.132717 -0.089233 0.238952
v -0.157857 -0.089233 0.264092
v -0.132717 -0.089233 0.238952
v -0.162548 -0.089539 0.259400
v -0.137409 -0.089539 0.234260
v -0.162548 -0.089539 0.259400
v -0.137409 -0.089539 0.234260
v -0.150403 -0.043390 0.271545
v -0.118876 -0.044029 0.252793
v -0.125263 -0.043390 0.246406
v -0.144016 -0.044029 0.277933
v -0.144016 -0.044029 0.277933
v -0.150403 -0.043390 0.271545
v -0.118876 -0.044029 0.252793
v -0.125263 -0.043390 0.246406
v -0.112572 -0.045935 0.259098
v -0.137711 -0.045935 0.284237
v -0.137711 -0.045935 0.284237
v -0.112572 -0.045935 0.259098
v -0.106431 -0.049085 0.265238
v -0.131571 -0.049085 0.290377
v -0.131571 -0.049085 0.290377
v -0.106431 -0.049085 0.265238
v -0.100535 -0.053438 0.271134
v -0.125675 -0.053438 0.296274
v -0.125675 -0.053438 0.296274
v -0.100535 -0.053438 0.271134
v -0.094959 -0.058937 0.276710
v -0.120098 -0.058937 0.301850
v -0.120098 -0.058937 0.301850
v -0.094959 -0.058937 0.276710
v -0.089775 -0.065512 0.281894
v -0.114915 -0.065512 0.307034
v -0.114915 -0.065512 0.307034
v -0.089775 -0.065512 0.281894
v -0.085050 -0.073077 0.286619
v -0.110190 -0.073077 0.311758
v -0.085050 -0.073077 0.286619
v -0.110190 -0.073077 0.311758
v -0.080847 -0.081534 0.290823
v -0.105986 -0.081534 0.315962
v -0.080847 -0.081534 0.290823
v -0.105986 -0.081534 0.315962
v -0.077218 -0.090773 0.294451
v -0.102357 -0.090773 0.319591
v -0.077218 -0.090773 0.294451
v -0.102357 -0.090773 0.319591
v -0.074211 -0.100676 0.297458
v -0.099351 -0.100676 0.322598
v -0.074211 -0.100676 0.297458
v -0.099351 -0.100676 0.322598
v -0.071865 -0.111113 0.299804
v -0.097005 -0.111113 0.324943
v -0.071865 -0.111113 0.299804
v -0.097005 -0.111113 0.324943
v -0.070211 -0.121950 0.301458
v -0.095350 -0.121950 0.326598
v -0.070211 -0.121950 0.301458
v -0.095350 -0.121950 0.326598
v -0.095350 -0.125878 0.326598
v -0.070211 -0.121950 0.301458
v -0.095350 -0.121950 0.326598
v -0.070211 -0.125878 0.301458
v -0.070211 -0.125878 0.301458
v -0.095350 -0.125878 0.326598
v -0.070211 -0.121950 0.301458
v -0.095350 -0.121950 0.326598
v -0.085885 -0.125878 0.285784
v -0.085885 -0.125878 0.289647
v -0.111025 -0.125878 0.310924
v -0.070211 -0.125878 0.301458
v -0.074074 -0.125878 0.301458
v -0.095350 -0.125878 0.322735
v -0.107162 -0.125878 0.310924
v -0.095350 -0.125878 0.326598
v -0.070211 -0.125878 0.301458
v -0.095350 -0.125878 0.322735
v -0.095350 -0.125878 0.326598
v -0.107162 -0.125878 0.310924
v -0.085885 -0.125878 0.289647
v -0.111025 -0.125878 0.310924
v -0.074074 -0.125878 0.301458
v -0.085885 -0.125878 0.285784
v -0.085885 -0.121950 0.285784
v -0.111025 -0.125878 0.310924
v -0.111025 -0.121950 0.310924
v -0.085885 -0.125878 0.285784
v -0.085885 -0.125878 0.285784
v -0.085885 -0.121950 0.285784
v -0.111025 -0.125878 0.310924
v -0.111025 -0.121950 0.310924
v -0.114536 -0.116485 0.307413
v -0.085885 -0.121950 0.285784
v -0.111025 -0.121950 0.310924
v -0.089396 -0.116485 0.282273
v -0.089396 -0.116485 0.282273
v -0.114536 -0.116485 0.307413
v -0.085885 -0.121950 0.285784
v -0.111025 -0.121950 0.310924
v -0.118255 -0.111459 0.303694
v -0.093115 -0.111459 0.278554
v -0.118255 -0.111459 0.303694
v -0.093115 -0.111459 0.278554
v -0.122163 -0.106897 0.299785
v -0.097024 -0.106897 0.274646
v -0.122163 -0.106897 0.299785
v -0.097024 -0.106897 0.274646
v -0.126243 -0.102822 0.295706
v -0.101103 -0.102822 0.270566
v -0.126243 -0.102822 0.295706
v -0.101103 -0.102822 0.270566
v -0.130473 -0.099252 0.291475
v -0.105334 -0.099252 0.266335
v -0.130473 -0.099252 0.291475
v -0.105334 -0.099252 0.266335
v -0.134835 -0.096205 0.287113
v -0.109695 -0.096205 0.261974
v -0.134835 -0.096205 0.287113
v -0.109695 -0.096205 0.261974
v -0.095350 -0.121950 0.326598
v -0.111025 -0.125878 0.310924
v -0.095350 -0.125878 0.326598
v -0.111025 -0.121950 0.310924
v -0.097005 -0.111113 0.324943
v -0.114536 -0.116485 0.307413
v -0.118255 -0.111459 0.303694
v -0.122163 -0.106897 0.299785
v -0.099351 -0.100676 0.322598
v -0.126243 -0.102822 0.295706
v -0.130473 -0.099252 0.291475
v -0.102357 -0.090773 0.319591
v -0.134835 -0.096205 0.287113
v -0.139307 -0.093695 0.282642
v -0.140335 -0.093253 0.281614
v -0.143867 -0.091735 0.278082
v -0.148493 -0.090334 0.273455
v -0.105986 -0.081534 0.315962
v -0.153164 -0.089499 0.268784
v -0.157857 -0.089233 0.264092
v -0.162548 -0.043390 0.259400
v -0.162548 -0.089539 0.259400
v -0.110190 -0.073077 0.311758
v -0.114915 -0.065512 0.307034
v -0.120098 -0.058937 0.301850
v -0.125675 -0.053438 0.296274
v -0.131571 -0.049085 0.290377
v -0.137711 -0.045935 0.284237
v -0.144016 -0.044029 0.277933
v -0.150403 -0.043390 0.271545
v -0.150403 -0.043390 0.271545
v -0.144016 -0.044029 0.277933
v -0.162548 -0.043390 0.259400
v -0.137711 -0.045935 0.284237
v -0.131571 -0.049085 0.290377
v -0.125675 -0.053438 0.296274
v -0.120098 -0.058937 0.301850
v -0.114915 -0.065512 0.307034
v -0.110190 -0.073077 0.311758
v -0.105986 -0.081534 0.315962
v -0.157857 -0.089233 0.264092
v -0.162548 -0.089539 0.259400
v -0.153164 -0.089499 0.268784
v -0.148493 -0.090334 0.273455
v -0.102357 -0.090773 0.319591
v -0.143867 -0.091735 0.278082
v -0.140335 -0.093253 0.281614
v -0.139307 -0.093695 0.282642
v -0.134835 -0.096205 0.287113
v -0.130473 -0.099252 0.291475
v -0.099351 -0.100676 0.322598
v -0.126243 -0.102822 0.295706
v -0.122163 -0.106897 0.299785
v -0.097005 -0.111113 0.324943
v -0.118255 -0.111459 0.303694
v -0.114536 -0.116485 0.307413
v -0.111025 -0.121950 0.310924
v -0.095350 -0.121950 0.326598
v -0.111025 -0.125878 0.310924
v -0.095350 -0.125878 0.326598
vn 0.7071067811866752 0 -0.7071067811864198
vn -0.7071067811866752 0 0.7071067811864198
vn 0.205624052435404 -0.9567849800869713 0.20562405243554568
vn 0.2334246597418145 -0.9439416594518791 0.2334246597419623
vn -0.205624052435404 0.9567849800869713 -0.20562405243554568
vn -0.2334246597418145 0.9439416594518791 -0.2334246597419623
vn 0.28723712479102254 -0.9137776908436123 0.28723712479117713
vn -0.28723712479102254 0.9137776908436123 -0.28723712479117713
vn 0.3380098622578781 -0.8783499678560441 0.33800986225803636
vn -0.3380098622578781 0.8783499678560441 -0.33800986225803636
vn 0.38543970272513783 -0.8383748989122868 0.3854397027253035
vn -0.38543970272513783 0.8383748989122868 -0.3854397027253035
vn 0.4293371607374263 -0.794568565209891 0.429337160737596
vn -0.4293371607374263 0.794568565209891 -0.429337160737596
vn 0.4696139651694816 -0.7476131669756949 0.4696139651696576
vn -0.4696139651694816 0.7476131669756949 -0.4696139651696576
vn 0.5062652242992992 -0.6981339737687702 0.5062652242994836
vn -0.5062652242992992 0.6981339737687702 -0.5062652242994836
vn 0.5233718418772358 -0.6724312829277539 0.5233718418774216
vn -0.5233718418772358 0.6724312829277539 -0.5233718418774216
vn 0.7071067811864801 0 0.7071067811866152
vn -0.7071067811864801 0 -0.7071067811866152
vn 0 -1 0
vn 0 1 0
vn -0.707106781186482 0 -0.7071067811866133
vn 0.707106781186482 0 0.7071067811866133
vn -0.6833057527696768 0.2572673637745662 -0.6833057527698347
vn -0.6911805529044784 0.2110423809880536 -0.6911805529046319
vn 0.6911805529044784 -0.2110423809880536 0.6911805529046319
vn 0.6833057527696768 -0.2572673637745662 0.6833057527698347
vn -0.662604959928331 0.34915517203176005 -0.6626049599284983
vn 0.662604959928331 -0.34915517203176005 0.6626049599284983
vn -0.6347631113112666 0.4406263553586659 -0.6347631113114398
vn 0.6347631113112666 -0.4406263553586659 0.6347631113114398
vn -0.5991502839232837 0.5310723816478177 -0.5991502839234603
vn 0.5991502839232837 -0.5310723816478177 0.5991502839234603
vn -0.555077429787522 0.6194982597883225 -0.5550774297876997
vn 0.555077429787522 -0.6194982597883225 0.5550774297876997
vn -0.5018885569802778 0.7044258319683733 -0.501888556980451
vn 0.5018885569802778 -0.7044258319683733 0.501888556980451
vn -0.43910061927066524 0.783824784191015 -0.4391006192708309
vn 0.43910061927066524 -0.783824784191015 0.4391006192708309
vn -0.36659032276230974 0.8551158228649156 -0.36659032276245923
vn 0.36659032276230974 -0.8551158228649156 0.36659032276245923
vn -0.28480679087471883 0.9152978661305894 -0.28480679087485555
vn 0.28480679087471883 -0.9152978661305894 0.28480679087485555
vn -0.1949582707053975 0.9612401080724151 -0.1949582707055349
vn 0.1949582707053975 -0.9612401080724151 0.1949582707055349
vn -0.09909296397937163 0.9901318947390501 -0.09909296397949673
vn 0.09909296397937163 -0.9901318947390501 0.09909296397949673
vn -0.049839726976018815 0.9975129088036407 -0.04983972697613001
vn 0.049839726976018815 -0.9975129088036407 0.04983972697613001
vn 0.7071067811866236 0 -0.7071067811864714
vn -0.7071067811866236 0 0.7071067811864714
vn -0.707106781186483 0 -0.707106781186612
vn 0.707106781186483 0 0.707106781186612
vn -0.032526489931150586 -0.9989414672069248 -0.03252648993105465
vn -0.002131807567318423 -0.9999954553861694 -0.002131807567213904
vn 0.032526489931150586 0.9989414672069248 0.03252648993105465
vn 0.002131807567318423 0.9999954553861694 0.002131807567213904
vn 0.05854071129521117 -0.9965670926947601 0.058540711295337625
vn -0.05854071129521117 0.9965670926947601 -0.058540711295337625
vn 0.11848756646846725 -0.9858607372163309 0.11848756646860935
vn -0.11848756646846725 0.9858607372163309 -0.11848756646860935
vn 0.1769952746342651 -0.9681659700248876 0.17699527463440853
vn -0.1769952746342651 0.9681659700248876 -0.17699527463440853
vn 0.20562405243540355 -0.9567849800869713 0.20562405243554613
vn -0.20562405243540355 0.9567849800869713 -0.20562405243554613
vn -0.7071067811866748 0 0.7071067811864202
vn 0.7071067811866748 0 -0.7071067811864202
vn -0.23342465974184928 -0.9439416594518791 -0.23342465974192797
vn -0.205624052435435 -0.9567849800869713 -0.20562405243551513
vn 0.23342465974184928 0.9439416594518791 0.23342465974192797
vn 0.205624052435435 0.9567849800869713 0.20562405243551513
vn -0.20562405243543466 -0.9567849800869713 -0.20562405243551546
vn -0.17699527463429165 -0.9681659700248875 -0.17699527463438233
vn 0.20562405243543466 0.9567849800869713 0.20562405243551546
vn 0.17699527463429165 0.9681659700248875 0.17699527463438233
vn -0.11848756646848475 -0.9858607372163307 -0.11848756646859224
vn 0.11848756646848475 0.9858607372163307 0.11848756646859224
vn -0.05854071129521971 -0.9965670926947601 -0.05854071129532953
vn 0.05854071129521971 0.9965670926947601 0.05854071129532953
vn 0.0021318075672891322 -0.9999954553861694 0.002131807567242751
vn -0.0021318075672891322 0.9999954553861694 -0.002131807567242751
vn 0.032526489931096164 -0.9989414672069248 0.03252648993110862
vn -0.032526489931096164 0.9989414672069248 -0.03252648993110862
vn 0.04983972697602618 0.9975129088036407 0.049839726976123086
vn 0.09909296397938641 0.9901318947390501 0.09909296397948239
vn -0.09909296397938641 -0.9901318947390501 -0.09909296397948239
vn -0.04983972697602618 -0.9975129088036407 -0.049839726976123086
vn 0.19495827070542687 0.9612401080724149 0.19495827070550592
vn -0.19495827070542687 -0.9612401080724149 -0.19495827070550592
vn 0.28480679087476163 0.9152978661305894 0.28480679087481314
vn -0.28480679087476163 -0.9152978661305894 -0.28480679087481314
vn 0.36659032276236375 0.8551158228649153 0.36659032276240555
vn -0.36659032276236375 -0.8551158228649153 -0.36659032276240555
vn 0.43910061927072963 0.7838247841910148 0.4391006192707668
vn -0.43910061927072963 -0.7838247841910148 -0.4391006192707668
vn 0.5018885569803523 0.7044258319683732 0.5018885569803769
vn -0.5018885569803523 -0.7044258319683732 -0.5018885569803769
vn 0.555077429787604 0.6194982597883223 0.555077429787618
vn -0.555077429787604 -0.6194982597883223 -0.555077429787618
vn 0.5991502839233722 0.5310723816478174 0.599150283923372
vn -0.5991502839233722 -0.5310723816478174 -0.599150283923372
vn 0.6347631113113622 0.44062635535866557 0.6347631113113442
vn -0.6347631113113622 -0.44062635535866557 -0.6347631113113442
vn 0.6626049599284315 0.3491551720317597 0.6626049599283979
vn -0.6626049599284315 -0.3491551720317597 -0.6626049599283979
vn 0.6833057527697806 0.2572673637745659 0.6833057527697309
vn -0.6833057527697806 -0.2572673637745659 -0.6833057527697309
vn 0.6911805529045838 0.21104238098805328 0.6911805529045264
vn -0.6911805529045838 -0.21104238098805328 -0.6911805529045264
vn 0.7071067811865889 0 0.707106781186506
vn -0.7071067811865889 0 -0.707106781186506
vn -0.7071067811865855 0 -0.7071067811865096
vn 0.7071067811865855 0 0.7071067811865096
vn -0.5062652242993737 -0.69813397376877 -0.5062652242994095
vn -0.5233718418773132 -0.6724312829277536 -0.5233718418773446
vn 0.5062652242993737 0.69813397376877 0.5062652242994095
vn 0.5233718418773132 0.6724312829277536 0.5233718418773446
vn -0.4696139651695502 -0.7476131669756947 -0.46961396516958936
vn 0.4696139651695502 0.7476131669756947 0.46961396516958936
vn -0.42933716073748934 -0.7945685652098909 -0.42933716073753353
vn 0.42933716073748934 0.7945685652098909 0.42933716073753353
vn -0.3854397027251952 -0.8383748989122866 -0.38543970272524647
vn 0.3854397027251952 0.8383748989122866 0.38543970272524647
vn -0.3380098622579287 -0.8783499678560438 -0.3380098622579862
vn 0.3380098622579287 0.8783499678560438 0.3380098622579862
vn -0.28723712479106517 -0.9137776908436122 -0.287237124791135
vn 0.28723712479106517 0.9137776908436122 0.287237124791135
vn -0.7071067811866251 0 0.70710678118647
vn 0.7071067811866251 0 -0.70710678118647
usemtl material_0_0
f 1//1 2//1 3//1
f 2//1 1//1 4//1
f 4//1 1//1 5//1
f 4//1 5//1 6//1
f 6//1 5//1 7//1
f 7//1 5//1 8//1
f 8//1 5//1 9//1
f 8//1 9//1 10//1
f 10//1 9//1 11//1
f 11//1 9//1 12//1
f 11//1 12//1 13//1
f 13//1 12//1 14//1
f 14//1 12//1 15//1
f 15//1 12//1 16//1
f 16//1 12//1 17//1
f 17//1 12//1 18//1
f 17//1 18//1 19//1
f 19//1 18//1 20//1
f 20//1 21//1 22//1
f 21//1 20//1 18//1
f 21//1 18//1 23//1
f 21//1 23//1 24//1
f 21//1 24//1 25//1
f 21//1 25//1 26//1
f 21//1 26//1 27//1
f 21//1 27//1 28//1
f 21//1 28//1 29//1
f 21//1 29//1 30//1
f 31//2 32//2 33//2
f 32//2 34//2 33//2
f 34//2 35//2 33//2
f 35//2 36//2 33//2
f 36//2 37//2 33//2
f 37//2 38//2 33//2
f 38//2 39//2 33//2
f 39//2 40//2 33//2
f 40//2 41//2 33//2
f 42//2 33//2 41//2
f 41//2 40//2 43//2
f 43//2 40//2 44//2
f 40//2 45//2 44//2
f 44//2 45//2 46//2
f 46//2 45//2 47//2
f 47//2 45//2 48//2
f 48//2 45//2 49//2
f 49//2 45//2 50//2
f 45//2 51//2 50//2
f 50//2 51//2 52//2
f 52//2 51//2 53//2
f 51//2 54//2 53//2
f 53//2 54//2 55//2
f 55//2 54//2 56//2
f 56//2 54//2 57//2
f 54//2 58//2 57//2
f 57//2 58//2 59//2
f 60//2 59//2 58//2
f 61//3 62//4 63//4
f 62//4 61//3 64//3
f 65//5 66//5 67//6
f 68//6 67//6 66//5
f 63//4 69//7 70//7
f 69//7 63//4 62//4
f 67//6 68//6 71//8
f 72//8 71//8 68//6
f 70//7 73//9 74//9
f 73//9 70//7 69//7
f 71//8 72//8 75//10
f 76//10 75//10 72//8
f 74//9 77//11 78//11
f 77//11 74//9 73//9
f 75//10 76//10 79//12
f 80//12 79//12 76//10
f 78//11 81//13 82//13
f 81//13 78//11 77//11
f 79//12 80//12 83//14
f 84//14 83//14 80//12
f 82//13 85//15 86//15
f 85//15 82//13 81//13
f 83//14 84//14 87//16
f 88//16 87//16 84//14
f 86//15 89//17 90//17
f 89//17 86//15 85//15
f 87//16 88//16 91//18
f 92//18 91//18 88//16
f 93//19 90//17 89//17
f 90//17 93//19 94//19
f 95//20 96//20 92//18
f 91//18 92//18 96//20
f 97//21 98//21 99//21
f 98//21 97//21 100//21
f 101//22 102//22 103//22
f 104//22 103//22 102//22
f 105//23 106//23 107//23
f 106//23 105//23 108//23
f 106//23 108//23 109//23
f 109//23 108//23 110//23
f 107//23 111//23 112//23
f 111//23 107//23 106//23
f 112//23 111//23 110//23
f 112//23 110//23 108//23
f 113//24 114//24 115//24
f 114//24 116//24 115//24
f 117//24 118//24 116//24
f 115//24 116//24 118//24
f 114//24 113//24 119//24
f 119//24 113//24 117//24
f 113//24 120//24 117//24
f 118//24 117//24 120//24
f 121//25 122//25 123//25
f 122//25 121//25 124//25
f 125//26 126//26 127//26
f 128//26 127//26 126//26
f 129//27 130//28 131//27
f 130//28 129//27 132//28
f 133//29 134//30 135//29
f 136//30 135//29 134//30
f 137//31 131//27 138//31
f 131//27 137//31 129//27
f 134//30 139//32 136//30
f 140//32 136//30 139//32
f 141//33 138//31 142//33
f 138//31 141//33 137//31
f 139//32 143//34 140//32
f 144//34 140//32 143//34
f 145//35 142//33 146//35
f 142//33 145//35 141//33
f 143//34 147//36 144//34
f 148//36 144//34 147//36
f 149//37 146//35 150//37
f 146//35 149//37 145//35
f 147//36 151//38 148//36
f 152//38 148//36 151//38
f 153//39 150//37 154//39
f 150//37 153//39 149//37
f 151//38 155//40 152//38
f 156//40 152//38 155//40
f 154//39 157//41 153//39
f 157//41 154//39 158//41
f 159//42 156//40 160//42
f 155//40 160//42 156//40
f 158//41 161//43 157//41
f 161//43 158//41 162//43
f 163//44 159//42 164//44
f 160//42 164//44 159//42
f 162//43 165//45 161//43
f 165//45 162//43 166//45
f 167//46 163//44 168//46
f 164//44 168//46 163//44
f 166//45 169//47 165//45
f 169//47 166//45 170//47
f 171//48 167//46 172//48
f 168//46 172//48 167//46
f 170//47 173//49 169//47
f 173//49 170//47 174//49
f 175//50 171//48 176//50
f 172//48 176//50 171//48
f 174//49 177//51 173//49
f 177//51 174//49 178//51
f 179//52 175//50 180//52
f 176//50 180//52 175//50
f 181//24 182//24 183//24
f 182//24 181//24 184//24
f 185//23 186//23 187//23
f 188//23 187//23 186//23
f 189//53 190//53 191//53
f 190//53 189//53 192//53
f 192//53 189//53 193//53
f 193//53 189//53 194//53
f 194//53 189//53 195//53
f 195//53 189//53 196//53
f 196//53 189//53 197//53
f 197//53 189//53 198//53
f 198//53 189//53 199//53
f 199//53 189//53 200//53
f 201//53 202//53 203//53
f 202//53 201//53 204//53
f 204//53 201//53 205//53
f 204//53 205//53 206//53
f 206//53 205//53 207//53
f 206//53 207//53 208//53
f 206//53 208//53 209//53
f 209//53 208//53 210//53
f 209//53 210//53 211//53
f 209//53 211//53 212//53
f 212//53 211//53 213//53
f 212//53 213//53 214//53
f 212//53 214//53 215//53
f 212//53 215//53 216//53
f 212//53 216//53 217//53
f 212//53 217//53 192//53
f 192//53 217//53 218//53
f 192//53 218//53 190//53
f 219//54 220//54 221//54
f 220//54 222//54 221//54
f 221//54 222//54 223//54
f 222//54 224//54 223//54
f 224//54 225//54 223//54
f 225//54 226//54 223//54
f 226//54 227//54 223//54
f 227//54 228//54 223//54
f 223//54 228//54 229//54
f 228//54 230//54 229//54
f 230//54 231//54 229//54
f 229//54 231//54 232//54
f 231//54 233//54 232//54
f 233//54 234//54 232//54
f 232//54 234//54 235//54
f 234//54 236//54 235//54
f 235//54 236//54 237//54
f 238//54 237//54 236//54
f 239//54 240//54 241//54
f 241//54 240//54 242//54
f 242//54 240//54 243//54
f 243//54 240//54 244//54
f 244//54 240//54 245//54
f 245//54 240//54 246//54
f 246//54 240//54 247//54
f 247//54 240//54 221//54
f 221//54 240//54 219//54
f 248//54 219//54 240//54
f 249//55 250//55 251//55
f 250//55 249//55 252//55
f 253//56 254//56 255//56
f 256//56 255//56 254//56
f 257//57 258//58 259//58
f 258//58 257//57 260//57
f 261//59 262//59 263//60
f 264//60 263//60 262//59
f 259//58 265//61 266//61
f 265//61 259//58 258//58
f 263//60 264//60 267//62
f 268//62 267//62 264//60
f 266//61 269//63 270//63
f 269//63 266//61 265//61
f 267//62 268//62 271//64
f 272//64 271//64 268//62
f 270//63 273//65 274//65
f 273//65 270//63 269//63
f 271//64 272//64 275//66
f 276//66 275//66 272//64
f 274//65 277//67 278//67
f 277//67 274//65 273//65
f 275//66 276//66 279//68
f 280//68 279//68 276//66
f 281//69 282//69 283//69
f 282//69 281//69 284//69
f 284//69 281//69 285//69
f 285//69 281//69 286//69
f 286//69 281//69 287//69
f 287//69 281//69 288//69
f 288//69 281//69 289//69
f 289//69 281//69 290//69
f 290//69 281//69 291//69
f 291//69 281//69 292//69
f 293//69 294//69 295//69
f 294//69 293//69 296//69
f 296//69 293//69 297//69
f 296//69 297//69 298//69
f 298//69 297//69 299//69
f 298//69 299//69 300//69
f 298//69 300//69 301//69
f 301//69 300//69 302//69
f 301//69 302//69 303//69
f 301//69 303//69 304//69
f 304//69 303//69 305//69
f 304//69 305//69 306//69
f 304//69 306//69 307//69
f 304//69 307//69 308//69
f 304//69 308//69 309//69
f 304//69 309//69 284//69
f 284//69 309//69 310//69
f 284//69 310//69 282//69
f 311//70 312//70 313//70
f 312//70 314//70 313//70
f 313//70 314//70 315//70
f 314//70 316//70 315//70
f 316//70 317//70 315//70
f 317//70 318//70 315//70
f 318//70 319//70 315//70
f 319//70 320//70 315//70
f 315//70 320//70 321//70
f 320//70 322//70 321//70
f 322//70 323//70 321//70
f 321//70 323//70 324//70
f 323//70 325//70 324//70
f 325//70 326//70 324//70
f 324//70 326//70 327//70
f 326//70 328//70 327//70
f 327//70 328//70 329//70
f 330//70 329//70 328//70
f 331//70 332//70 333//70
f 333//70 332//70 334//70
f 334//70 332//70 335//70
f 335//70 332//70 336//70
f 336//70 332//70 337//70
f 337//70 332//70 338//70
f 338//70 332//70 339//70
f 339//70 332//70 313//70
f 313//70 332//70 311//70
f 340//70 311//70 332//70
f 341//24 342//24 343//24
f 342//24 341//24 344//24
f 345//23 346//23 347//23
f 348//23 347//23 346//23
f 349//71 350//72 351//72
f 350//72 349//71 352//71
f 353//73 354//73 355//74
f 356//74 355//74 354//73
f 357//75 358//76 359//76
f 358//76 357//75 360//75
f 361//77 362//77 363//78
f 364//78 363//78 362//77
f 359//76 365//79 366//79
f 365//79 359//76 358//76
f 363//78 364//78 367//80
f 368//80 367//80 364//78
f 366//79 369//81 370//81
f 369//81 366//79 365//79
f 367//80 368//80 371//82
f 372//82 371//82 368//80
f 370//81 373//83 374//83
f 373//83 370//81 369//81
f 371//82 372//82 375//84
f 376//84 375//84 372//82
f 374//83 377//85 378//85
f 377//85 374//83 373//83
f 375//84 376//84 379//86
f 380//86 379//86 376//84
f 381//87 382//88 383//87
f 382//88 381//87 384//88
f 385//89 386//90 387//89
f 388//90 387//89 386//90
f 384//88 389//91 382//88
f 389//91 384//88 390//91
f 391//92 385//89 392//92
f 387//89 392//92 385//89
f 390//91 393//93 389//91
f 393//93 390//91 394//93
f 395//94 391//92 396//94
f 392//92 396//94 391//92
f 394//93 397//95 393//93
f 397//95 394//93 398//95
f 399//96 395//94 400//96
f 396//94 400//96 395//94
f 398//95 401//97 397//95
f 401//97 398//95 402//97
f 403//98 399//96 404//98
f 400//96 404//98 399//96
f 402//97 405//99 401//97
f 405//99 402//97 406//99
f 407//100 403//98 408//100
f 404//98 408//100 403//98
f 409//101 406//99 410//101
f 406//99 409//101 405//99
f 408//100 411//102 407//100
f 412//102 407//100 411//102
f 413//103 410//101 414//103
f 410//101 413//103 409//101
f 411//102 415//104 412//102
f 416//104 412//102 415//104
f 417//105 414//103 418//105
f 414//103 417//105 413//103
f 415//104 419//106 416//104
f 420//106 416//104 419//106
f 421//107 418//105 422//107
f 418//105 421//107 417//105
f 419//106 423//108 420//106
f 424//108 420//106 423//108
f 425//109 422//107 426//109
f 422//107 425//109 421//107
f 423//108 427//110 424//108
f 428//110 424//108 427//110
f 429//111 426//109 430//111
f 426//109 429//111 425//109
f 427//110 431//112 428//110
f 432//112 428//110 431//112
f 433//113 434//113 435//113
f 434//113 433//113 436//113
f 437//114 438//114 439//114
f 440//114 439//114 438//114
f 441//23 442//23 443//23
f 442//23 441//23 444//23
f 442//23 444//23 445//23
f 445//23 444//23 446//23
f 443//23 447//23 448//23
f 447//23 443//23 442//23
f 448//23 447//23 446//23
f 448//23 446//23 444//23
f 449//24 450//24 451//24
f 450//24 452//24 451//24
f 453//24 454//24 452//24
f 451//24 452//24 454//24
f 450//24 449//24 455//24
f 455//24 449//24 453//24
f 449//24 456//24 453//24
f 454//24 453//24 456//24
f 457//115 458//115 459//115
f 458//115 457//115 460//115
f 461//116 462//116 463//116
f 464//116 463//116 462//116
f 465//117 466//118 467//118
f 466//118 465//117 468//117
f 469//119 470//119 471//120
f 472//120 471//120 470//119
f 468//117 473//121 474//121
f 473//121 468//117 465//117
f 470//119 469//119 475//122
f 476//122 475//122 469//119
f 474//121 477//123 478//123
f 477//123 474//121 473//121
f 475//122 476//122 479//124
f 480//124 479//124 476//122
f 478//123 481//125 482//125
f 481//125 478//123 477//123
f 479//124 480//124 483//126
f 484//126 483//126 480//124
f 482//125 485//127 486//127
f 485//127 482//125 481//125
f 483//126 484//126 487//128
f 488//128 487//128 484//126
f 486//127 489//129 490//129
f 489//129 486//127 485//127
f 487//128 488//128 491//130
f 492//130 491//130 488//128
f 490//129 352//71 349//71
f 352//71 490//129 489//129
f 491//130 492//130 353//73
f 354//73 353//73 492//130
f 493//131 494//131 495//131
f 494//131 493//131 496//131
f 496//131 493//131 497//131
f 496//131 497//131 498//131
f 498//131 497//131 499//131
f 499//131 497//131 500//131
f 500//131 497//131 501//131
f 500//131 501//131 502//131
f 502//131 501//131 503//131
f 503//131 501//131 504//131
f 503//131 504//131 505//131
f 505//131 504//131 506//131
f 506//131 504//131 507//131
f 507//131 504//131 508//131
f 508//131 504//131 509//131
f 509//131 504//131 510//131
f 509//131 510//131 511//131
f 511//131 510//131 512//131
f 512//131 513//131 514//131
f 513//131 512//131 510//131
f 513//131 510//131 515//131
f 513//131 515//131 516//131
f 513//131 516//131 517//131
f 513//131 517//131 518//131
f 513//131 518//131 519//131
f 513//131 519//131 520//131
f 513//131 520//131 521//131
f 513//131 521//131 522//131
f 523//132 524//132 525//132
f 524//132 526//132 525//132
f 526//132 527//132 525//132
f 527//132 528//132 525//132
f 528//132 529//132 525//132
f 529//132 530//132 525//132
f 530//132 531//132 525//132
f 531//132 532//132 525//132
f 532//132 533//132 525//132
f 534//132 525//132 533//132
f 533//132 532//132 535//132
f 535//132 532//132 536//132
f 532//132 537//132 536//132
f 536//132 537//132 538//132
f 538//132 537//132 539//132
f 539//132 537//132 540//132
f 540//132 537//132 541//132
f 541//132 537//132 542//132
f 537//132 543//132 542//132
f 542//132 543//132 544//132
f 544//132 543//132 545//132
f 543//132 546//132 545//132
f 545//132 546//132 547//132
f 547//132 546//132 548//132
f 548//132 546//132 549//132
f 546//132 550//132 549//132
f 549//132 550//132 551//132
f 552//132 551//132 550//132
