# SSTK version 0.8.0
# 49
mtllib original-49.mtl
o #ID336
v 0.074778 0.472093 -0.641952
v 0.089817 -0.097628 -0.614097
v 0.069190 -0.097628 -0.621099
v 0.098079 0.472093 -0.634042
v 0.075021 0.496928 -0.642861
v 0.098439 0.496928 -0.634912
v 0.076256 0.622843 -0.647469
v 0.100265 0.622843 -0.639319
v 0.100265 0.622843 -0.639319
v 0.076256 0.622843 -0.647469
v 0.098439 0.496928 -0.634912
v 0.075021 0.496928 -0.642861
v 0.098079 0.472093 -0.634042
v 0.074778 0.472093 -0.641952
v 0.089817 -0.097628 -0.614097
v 0.069190 -0.097628 -0.621099
v 0.050643 0.472093 -0.646752
v 0.047826 -0.097628 -0.625348
v 0.050766 0.496928 -0.647686
v 0.051389 0.622843 -0.652416
v 0.051389 0.622843 -0.652416
v 0.050766 0.496928 -0.647686
v 0.050643 0.472093 -0.646752
v 0.047826 -0.097628 -0.625348
v 0.109354 -0.097628 -0.604462
v 0.120148 0.472093 -0.623158
v 0.120619 0.496928 -0.623973
v 0.123004 0.622843 -0.628106
v 0.123004 0.622843 -0.628106
v 0.120619 0.496928 -0.623973
v 0.120148 0.472093 -0.623158
v 0.109354 -0.097628 -0.604462
v 0.026089 0.472093 -0.648361
v 0.026089 -0.097628 -0.626773
v 0.026089 0.496928 -0.649302
v 0.026089 0.622843 -0.654074
v 0.026089 0.622843 -0.654074
v 0.026089 0.496928 -0.649302
v 0.026089 0.472093 -0.648361
v 0.026089 -0.097628 -0.626773
v 0.127466 -0.097628 -0.592360
v 0.140608 0.472093 -0.609487
v 0.141181 0.496928 -0.610234
v 0.144086 0.622843 -0.614020
v 0.144086 0.622843 -0.614020
v 0.141181 0.496928 -0.610234
v 0.140608 0.472093 -0.609487
v 0.127466 -0.097628 -0.592360
v 0.001535 0.472093 -0.646752
v 0.004353 -0.097628 -0.625348
v 0.001412 0.496928 -0.647686
v 0.000789 0.622843 -0.652416
v 0.000789 0.622843 -0.652416
v 0.001412 0.496928 -0.647686
v 0.001535 0.472093 -0.646752
v 0.004353 -0.097628 -0.625348
v 0.143843 -0.097628 -0.577998
v 0.159109 0.472093 -0.593263
v 0.159774 0.496928 -0.593929
v 0.163148 0.622843 -0.597303
v 0.163148 0.622843 -0.597303
v 0.159774 0.496928 -0.593929
v 0.159109 0.472093 -0.593263
v 0.143843 -0.097628 -0.577998
v -0.022599 0.472093 -0.641952
v -0.017012 -0.097628 -0.621099
v -0.022843 0.496928 -0.642861
v -0.024078 0.622843 -0.647469
v -0.024078 0.622843 -0.647469
v -0.022843 0.496928 -0.642861
v -0.022599 0.472093 -0.641952
v -0.017012 -0.097628 -0.621099
v 0.175333 0.472093 -0.574763
v 0.158206 -0.097628 -0.561620
v 0.176080 0.496928 -0.575335
v 0.179865 0.622843 -0.578240
v 0.179865 0.622843 -0.578240
v 0.176080 0.496928 -0.575335
v 0.175333 0.472093 -0.574763
v 0.158206 -0.097628 -0.561620
v -0.045901 0.472093 -0.634042
v -0.037639 -0.097628 -0.614097
v -0.046261 0.496928 -0.634912
v -0.048087 0.622843 -0.639319
v -0.048087 0.622843 -0.639319
v -0.046261 0.496928 -0.634912
v -0.045901 0.472093 -0.634042
v -0.037639 -0.097628 -0.614097
v 0.189004 0.472093 -0.554302
v 0.170308 -0.097628 -0.543508
v 0.189819 0.496928 -0.554773
v 0.193951 0.622843 -0.557159
v 0.193951 0.622843 -0.557159
v 0.189819 0.496928 -0.554773
v 0.189004 0.472093 -0.554302
v 0.170308 -0.097628 -0.543508
v -0.067970 0.472093 -0.623158
v -0.057176 -0.097628 -0.604462
v -0.068441 0.496928 -0.623973
v -0.070826 0.622843 -0.628106
v -0.070826 0.622843 -0.628106
v -0.068441 0.496928 -0.623973
v -0.067970 0.472093 -0.623158
v -0.057176 -0.097628 -0.604462
v 0.199888 0.472093 -0.532233
v 0.179942 -0.097628 -0.523971
v 0.200757 0.496928 -0.532594
v 0.205165 0.622843 -0.534419
v 0.205165 0.622843 -0.534419
v 0.200757 0.496928 -0.532594
v 0.199888 0.472093 -0.532233
v 0.179942 -0.097628 -0.523971
v -0.088430 0.472093 -0.609487
v -0.075288 -0.097628 -0.592360
v -0.089003 0.496928 -0.610234
v -0.091908 0.622843 -0.614020
v -0.091908 0.622843 -0.614020
v -0.089003 0.496928 -0.610234
v -0.088430 0.472093 -0.609487
v -0.075288 -0.097628 -0.592360
v 0.207797 0.472093 -0.508932
v 0.186944 -0.097628 -0.503345
v 0.208706 0.496928 -0.509175
v 0.213315 0.622843 -0.510411
v 0.213315 0.622843 -0.510411
v 0.208706 0.496928 -0.509175
v 0.207797 0.472093 -0.508932
v 0.186944 -0.097628 -0.503345
v -0.106931 0.472093 -0.593263
v -0.091665 -0.097628 -0.577998
v -0.107596 0.496928 -0.593929
v -0.110970 0.622843 -0.597303
v -0.110970 0.622843 -0.597303
v -0.107596 0.496928 -0.593929
v -0.106931 0.472093 -0.593263
v -0.091665 -0.097628 -0.577998
v 0.212598 0.472093 -0.484798
v 0.191194 -0.097628 -0.481980
v 0.213531 0.496928 -0.484921
v 0.218261 0.622843 -0.485544
v 0.218261 0.622843 -0.485544
v 0.213531 0.496928 -0.484921
v 0.212598 0.472093 -0.484798
v 0.191194 -0.097628 -0.481980
v -0.123155 0.472093 -0.574763
v -0.106028 -0.097628 -0.561620
v -0.123902 0.496928 -0.575335
v -0.127687 0.622843 -0.578240
v -0.127687 0.622843 -0.578240
v -0.123902 0.496928 -0.575335
v -0.123155 0.472093 -0.574763
v -0.106028 -0.097628 -0.561620
v 0.214207 0.472093 -0.460243
v 0.192619 -0.097628 -0.460243
v 0.215148 0.496928 -0.460243
v 0.219920 0.622843 -0.460243
v 0.215148 0.496928 -0.460243
v 0.219920 0.622843 -0.460243
v 0.214207 0.472093 -0.460243
v 0.192619 -0.097628 -0.460243
v -0.136826 0.472093 -0.554302
v -0.118130 -0.097628 -0.543508
v -0.137641 0.496928 -0.554773
v -0.141773 0.622843 -0.557159
v -0.141773 0.622843 -0.557159
v -0.137641 0.496928 -0.554773
v -0.136826 0.472093 -0.554302
v -0.118130 -0.097628 -0.543508
v 0.217710 0.608167 -0.435016
v 0.218261 0.622843 -0.434944
v 0.219239 0.608167 -0.458348
v 0.192495 -0.097628 -0.458348
v 0.192495 -0.097628 -0.458348
v 0.219239 0.608167 -0.458348
v 0.217710 0.608167 -0.435016
v 0.218261 0.622843 -0.434944
v -0.147709 0.472093 -0.532233
v -0.127764 -0.097628 -0.523971
v -0.148579 0.496928 -0.532594
v -0.152987 0.622843 -0.534419
v -0.152987 0.622843 -0.534419
v -0.148579 0.496928 -0.532594
v -0.147709 0.472093 -0.532233
v -0.127764 -0.097628 -0.523971
v 0.212525 0.601245 -0.410288
v 0.213315 0.622843 -0.410076
v 0.215743 0.608167 -0.425129
v 0.215477 0.601245 -0.425129
v 0.215743 0.608167 -0.425129
v 0.215477 0.601245 -0.425129
v 0.212525 0.601245 -0.410288
v 0.213315 0.622843 -0.410076
v -0.155619 0.472093 -0.508932
v -0.134766 -0.097628 -0.503345
v -0.156528 0.496928 -0.509175
v -0.161137 0.622843 -0.510411
v -0.161137 0.622843 -0.510411
v -0.156528 0.496928 -0.509175
v -0.155619 0.472093 -0.508932
v -0.134766 -0.097628 -0.503345
v 0.204409 0.601245 -0.386381
v 0.205165 0.622843 -0.386067
v 0.204409 0.601245 -0.386381
v 0.205165 0.622843 -0.386067
v -0.160420 0.472093 -0.484798
v -0.139016 -0.097628 -0.481980
v -0.161353 0.496928 -0.484921
v -0.166083 0.622843 -0.485544
v -0.166083 0.622843 -0.485544
v -0.161353 0.496928 -0.484921
v -0.160420 0.472093 -0.484798
v -0.139016 -0.097628 -0.481980
v 0.193242 0.601245 -0.363738
v 0.193951 0.622843 -0.363329
v 0.193242 0.601245 -0.363738
v 0.193951 0.622843 -0.363329
v -0.162970 0.496928 -0.460243
v -0.167742 0.622843 -0.460243
v -0.162029 0.472093 -0.460243
v -0.140441 -0.097628 -0.460243
v -0.140441 -0.097628 -0.460243
v -0.162029 0.472093 -0.460243
v -0.162970 0.496928 -0.460243
v -0.167742 0.622843 -0.460243
v 0.179216 0.601245 -0.342745
v 0.179865 0.622843 -0.342247
v 0.179216 0.601245 -0.342745
v 0.179865 0.622843 -0.342247
v -0.165532 0.608167 -0.435016
v -0.166083 0.622843 -0.434944
v -0.167061 0.608167 -0.458348
v -0.140316 -0.097628 -0.458348
v -0.167061 0.608167 -0.458348
v -0.140316 -0.097628 -0.458348
v -0.165532 0.608167 -0.435016
v -0.166083 0.622843 -0.434944
v 0.162569 0.601245 -0.323763
v 0.163148 0.622843 -0.323185
v 0.162569 0.601245 -0.323763
v 0.163148 0.622843 -0.323185
v -0.160346 0.601245 -0.410288
v -0.161137 0.622843 -0.410076
v -0.163565 0.608167 -0.425129
v -0.163298 0.601245 -0.425129
v -0.163565 0.608167 -0.425129
v -0.160346 0.601245 -0.410288
v -0.163298 0.601245 -0.425129
v -0.161137 0.622843 -0.410076
v 0.143587 0.601245 -0.307116
v 0.144086 0.622843 -0.306468
v 0.144086 0.622843 -0.306468
v 0.143587 0.601245 -0.307116
v -0.152231 0.601245 -0.386381
v -0.152987 0.622843 -0.386067
v -0.152231 0.601245 -0.386381
v -0.152987 0.622843 -0.386067
v 0.122595 0.601245 -0.293090
v 0.123004 0.622843 -0.292381
v 0.123004 0.622843 -0.292381
v 0.122595 0.601245 -0.293090
v -0.141064 0.601245 -0.363738
v -0.141773 0.622843 -0.363329
v -0.141064 0.601245 -0.363738
v -0.141773 0.622843 -0.363329
v 0.100265 0.622843 -0.281167
v 0.099952 0.601245 -0.281923
v 0.100265 0.622843 -0.281167
v 0.099952 0.601245 -0.281923
v -0.127038 0.601245 -0.342745
v -0.127687 0.622843 -0.342247
v -0.127038 0.601245 -0.342745
v -0.127687 0.622843 -0.342247
v 0.076044 0.601245 -0.273808
v 0.076256 0.622843 -0.273017
v 0.076256 0.622843 -0.273017
v 0.076044 0.601245 -0.273808
v -0.110391 0.601245 -0.323763
v -0.110970 0.622843 -0.323185
v -0.110391 0.601245 -0.323763
v -0.110970 0.622843 -0.323185
v 0.051282 0.601245 -0.268883
v 0.051389 0.622843 -0.268071
v 0.051389 0.622843 -0.268071
v 0.051282 0.601245 -0.268883
v -0.091908 0.622843 -0.306468
v -0.091409 0.601245 -0.307116
v -0.091908 0.622843 -0.306468
v -0.091409 0.601245 -0.307116
v 0.026089 0.601245 -0.267231
v 0.026089 0.622843 -0.266413
v 0.026089 0.622843 -0.266413
v 0.026089 0.601245 -0.267231
v -0.070826 0.622843 -0.292381
v -0.070417 0.601245 -0.293090
v -0.070826 0.622843 -0.292381
v -0.070417 0.601245 -0.293090
v 0.000896 0.601245 -0.268883
v 0.000789 0.622843 -0.268071
v 0.000789 0.622843 -0.268071
v 0.000896 0.601245 -0.268883
v -0.048087 0.622843 -0.281167
v -0.047773 0.601245 -0.281923
v -0.048087 0.622843 -0.281167
v -0.047773 0.601245 -0.281923
v -0.023866 0.601245 -0.273808
v -0.024078 0.622843 -0.273017
v -0.024078 0.622843 -0.273017
v -0.023866 0.601245 -0.273808
vn 0.2586333994031763 -0.03786596991262007 -0.9652330977726229
vn 0.38240898010440083 -0.03786596802994635 -0.923216951967774
vn -0.38240898010440083 0.03786596802994635 0.923216951967774
vn -0.2586333994031763 0.03786596991262007 0.9652330977726229
vn 0.1304326027854379 -0.03786597080864196 -0.9907338211574969
vn -0.1304326027854379 0.03786597080864196 0.9907338211574969
vn 0.4996414093091963 -0.03786597070550928 -0.8654043161240008
vn -0.4996414093091963 0.03786597070550928 0.8654043161240008
vn 0 -0.03786597102124729 -0.9992828269507178
vn 0 0.03786597102124729 0.9992828269507178
vn 0.6083248003460029 -0.037865970021537215 -0.7927844004509195
vn -0.6083248003460029 0.037865970021537215 0.7927844004509195
vn -0.13043260278543764 -0.037865970808641965 -0.9907338211574971
vn 0.13043260278543764 0.037865970808641965 0.9907338211574971
vn 0.7065996633401194 -0.03786596803543355 -0.706599663340119
vn -0.7065996633401194 0.03786596803543355 0.706599663340119
vn -0.25863339940317603 -0.03786596991262007 -0.9652330977726229
vn 0.25863339940317603 0.03786596991262007 0.9652330977726229
vn 0.7927844004509196 -0.03786597002153725 -0.6083248003460026
vn -0.7927844004509196 0.03786597002153725 0.6083248003460026
vn -0.38240898010440055 -0.03786596802994635 -0.923216951967774
vn 0.38240898010440055 0.03786596802994635 0.923216951967774
vn 0.8654043161240008 -0.037865970705509365 -0.49964140930919604
vn -0.8654043161240008 0.037865970705509365 0.49964140930919604
vn -0.49964140930919604 -0.03786597070550928 -0.8654043161240008
vn 0.49964140930919604 0.03786597070550928 0.8654043161240008
vn 0.923216951967774 -0.037865968029946476 -0.38240898010440055
vn -0.923216951967774 0.037865968029946476 0.38240898010440055
vn -0.6083248003460026 -0.03786597002153721 -0.7927844004509196
vn 0.6083248003460026 0.03786597002153721 0.7927844004509196
vn 0.9652330977726229 -0.03786596991262023 -0.25863339940317603
vn -0.9652330977726229 0.03786596991262023 0.25863339940317603
vn -0.706599663340119 -0.03786596803543355 -0.7065996633401194
vn 0.706599663340119 0.03786596803543355 0.7065996633401194
vn 0.9907338211574969 -0.03786597080864215 -0.1304326027854376
vn -0.9907338211574969 0.03786597080864215 0.1304326027854376
vn -0.7927844004509195 -0.03786597002153726 -0.6083248003460029
vn 0.7927844004509195 0.03786597002153726 0.6083248003460029
vn 0.9992828269507176 -0.0378659710212475 0
vn -0.9992828269507176 0.0378659710212475 0
vn -0.8654043161240008 -0.037865970705509365 -0.4996414093091963
vn 0.8654043161240008 0.037865970705509365 0.4996414093091963
vn 0.9907338211574969 -0.03786597080864221 0.1304326027854379
vn 0.9971463437649503 -0.03778501165839165 0.06535642286850644
vn -0.9971463437649503 0.03778501165839165 -0.06535642286850644
vn -0.9907338211574969 0.03786597080864221 -0.1304326027854379
vn -0.923216951967774 -0.037865968029946476 -0.38240898010440083
vn 0.923216951967774 0.037865968029946476 0.38240898010440083
vn 0.9652330977726229 -0.03786596991262034 0.2586333994031763
vn 0.9800848948105925 -0.03778500979993389 0.19495099896776283
vn -0.9800848948105925 0.03778500979993389 -0.19495099896776283
vn -0.9652330977726229 0.03786596991262034 -0.2586333994031763
vn -0.9652330977726229 -0.03786596991262023 -0.2586333994031763
vn 0.9652330977726229 0.03786596991262023 0.2586333994031763
vn 0.923216951967774 -0.03786596802994664 0.38240898010440083
vn -0.923216951967774 0.03786596802994664 -0.38240898010440083
vn -0.9907338211574969 -0.03786597080864215 -0.1304326027854379
vn 0.9907338211574969 0.03786597080864215 0.1304326027854379
vn 0.8654043161240008 -0.03786597070550959 0.4996414093091963
vn -0.8654043161240008 0.03786597070550959 -0.4996414093091963
vn -0.9992828269507176 -0.0378659710212475 0
vn 0.9992828269507176 0.0378659710212475 0
vn 0.7927844004509195 -0.03786597002153753 0.6083248003460029
vn -0.7927844004509195 0.03786597002153753 -0.6083248003460029
vn -0.9907338211574969 -0.03786597080864221 0.1304326027854376
vn -0.9971463437649503 -0.03778501165839165 0.06535642286850618
vn 0.9971463437649503 0.03778501165839165 -0.06535642286850618
vn 0.9907338211574969 0.03786597080864221 -0.1304326027854376
vn 0.706599663340119 -0.03786596803543387 0.7065996633401194
vn -0.706599663340119 0.03786596803543387 -0.7065996633401194
vn -0.9652330977726229 -0.03786596991262034 0.25863339940317603
vn -0.9800848948105927 -0.0377850097999339 0.1949509989677626
vn 0.9800848948105927 0.0377850097999339 -0.1949509989677626
vn 0.9652330977726229 0.03786596991262034 -0.25863339940317603
vn 0.6083248003460026 -0.03786597002153756 0.7927844004509196
vn -0.6083248003460026 0.03786597002153756 -0.7927844004509196
vn -0.923216951967774 -0.03786596802994664 0.38240898010440055
vn 0.923216951967774 0.03786596802994664 -0.38240898010440055
vn 0.49964140930919604 -0.03786597070550966 0.8654043161240008
vn -0.49964140930919604 0.03786597070550966 -0.8654043161240008
vn -0.8654043161240008 -0.03786597070550959 0.49964140930919604
vn 0.8654043161240008 0.03786597070550959 -0.49964140930919604
vn 0.38240898010440055 -0.03786596802994676 0.923216951967774
vn -0.38240898010440055 0.03786596802994676 -0.923216951967774
vn -0.7927844004509196 -0.03786597002153752 0.6083248003460026
vn 0.7927844004509196 0.03786597002153752 -0.6083248003460026
vn 0.25863339940317603 -0.0378659699126205 0.9652330977726229
vn -0.25863339940317603 0.0378659699126205 -0.9652330977726229
vn -0.7065996633401194 -0.03786596803543387 0.706599663340119
vn 0.7065996633401194 0.03786596803543387 -0.706599663340119
vn 0.1304326027854376 -0.0378659708086424 0.9907338211574969
vn -0.1304326027854376 0.0378659708086424 -0.9907338211574969
vn -0.6083248003460029 -0.03786597002153757 0.7927844004509195
vn 0.6083248003460029 0.03786597002153757 -0.7927844004509195
vn 0 -0.037865971021247724 0.9992828269507176
vn 0 0.037865971021247724 -0.9992828269507176
vn -0.4996414093091963 -0.03786597070550966 0.8654043161240008
vn 0.4996414093091963 0.03786597070550966 -0.8654043161240008
vn -0.1304326027854379 -0.0378659708086424 0.9907338211574969
vn 0.1304326027854379 0.0378659708086424 -0.9907338211574969
vn -0.38240898010440083 -0.03786596802994676 0.923216951967774
vn 0.38240898010440083 0.03786596802994676 -0.923216951967774
vn -0.2586333994031763 -0.0378659699126205 0.9652330977726229
vn 0.2586333994031763 0.0378659699126205 -0.9652330977726229
usemtl material_0_0
f 1//1 2//2 3//1
f 2//2 1//1 4//2
f 4//2 1//1 5//1
f 4//2 5//1 6//2
f 6//2 5//1 7//1
f 6//2 7//1 8//2
f 9//3 10//4 11//3
f 10//4 12//4 11//3
f 11//3 12//4 13//3
f 12//4 14//4 13//3
f 13//3 14//4 15//3
f 16//4 15//3 14//4
f 17//5 3//1 18//5
f 3//1 17//5 1//1
f 1//1 17//5 19//5
f 1//1 19//5 5//1
f 5//1 19//5 20//5
f 5//1 20//5 7//1
f 10//4 21//6 12//4
f 21//6 22//6 12//4
f 12//4 22//6 14//4
f 22//6 23//6 14//4
f 14//4 23//6 16//4
f 24//6 16//4 23//6
f 4//2 25//7 2//2
f 25//7 4//2 26//7
f 26//7 4//2 6//2
f 26//7 6//2 27//7
f 27//7 6//2 8//2
f 27//7 8//2 28//7
f 29//8 9//3 30//8
f 9//3 11//3 30//8
f 30//8 11//3 31//8
f 11//3 13//3 31//8
f 31//8 13//3 32//8
f 15//3 32//8 13//3
f 33//9 18//5 34//9
f 18//5 33//9 17//5
f 17//5 33//9 35//9
f 17//5 35//9 19//5
f 19//5 35//9 36//9
f 19//5 36//9 20//5
f 21//6 37//10 22//6
f 37//10 38//10 22//6
f 22//6 38//10 23//6
f 38//10 39//10 23//6
f 23//6 39//10 24//6
f 40//10 24//6 39//10
f 26//7 41//11 25//7
f 41//11 26//7 42//11
f 42//11 26//7 27//7
f 42//11 27//7 43//11
f 43//11 27//7 28//7
f 43//11 28//7 44//11
f 45//12 29//8 46//12
f 29//8 30//8 46//12
f 46//12 30//8 47//12
f 30//8 31//8 47//12
f 47//12 31//8 48//12
f 32//8 48//12 31//8
f 49//13 34//9 50//13
f 34//9 49//13 33//9
f 33//9 49//13 51//13
f 33//9 51//13 35//9
f 35//9 51//13 52//13
f 35//9 52//13 36//9
f 37//10 53//14 38//10
f 53//14 54//14 38//10
f 38//10 54//14 39//10
f 54//14 55//14 39//10
f 39//10 55//14 40//10
f 56//14 40//10 55//14
f 42//11 57//15 41//11
f 57//15 42//11 58//15
f 58//15 42//11 43//11
f 58//15 43//11 59//15
f 59//15 43//11 44//11
f 59//15 44//11 60//15
f 61//16 45//12 62//16
f 45//12 46//12 62//16
f 62//16 46//12 63//16
f 46//12 47//12 63//16
f 63//16 47//12 64//16
f 48//12 64//16 47//12
f 65//17 50//13 66//17
f 50//13 65//17 49//13
f 49//13 65//17 67//17
f 49//13 67//17 51//13
f 51//13 67//17 68//17
f 51//13 68//17 52//13
f 53//14 69//18 54//14
f 69//18 70//18 54//14
f 54//14 70//18 55//14
f 70//18 71//18 55//14
f 55//14 71//18 56//14
f 72//18 56//14 71//18
f 57//15 73//19 74//19
f 73//19 57//15 75//19
f 75//19 57//15 76//19
f 76//19 57//15 58//15
f 76//19 58//15 60//15
f 60//15 58//15 59//15
f 62//16 63//16 61//16
f 61//16 63//16 77//20
f 63//16 64//16 77//20
f 77//20 64//16 78//20
f 78//20 64//16 79//20
f 80//20 79//20 64//16
f 81//21 66//17 82//21
f 66//17 81//21 65//17
f 65//17 81//21 83//21
f 65//17 83//21 67//17
f 67//17 83//21 84//21
f 67//17 84//21 68//17
f 69//18 85//22 70//18
f 85//22 86//22 70//18
f 70//18 86//22 71//18
f 86//22 87//22 71//18
f 71//18 87//22 72//18
f 88//22 72//18 87//22
f 74//19 89//23 90//23
f 89//23 74//19 91//23
f 91//23 74//19 92//23
f 92//23 74//19 76//19
f 76//19 74//19 75//19
f 75//19 74//19 73//19
f 79//20 80//20 78//20
f 78//20 80//20 77//20
f 77//20 80//20 93//24
f 93//24 80//20 94//24
f 94//24 80//20 95//24
f 96//24 95//24 80//20
f 97//25 82//21 98//25
f 82//21 97//25 81//21
f 81//21 97//25 99//25
f 81//21 99//25 83//21
f 83//21 99//25 100//25
f 83//21 100//25 84//21
f 85//22 101//26 86//22
f 101//26 102//26 86//22
f 86//22 102//26 87//22
f 102//26 103//26 87//22
f 87//22 103//26 88//22
f 104//26 88//22 103//26
f 90//23 105//27 106//27
f 105//27 90//23 107//27
f 107//27 90//23 108//27
f 108//27 90//23 89//23
f 108//27 89//23 92//23
f 92//23 89//23 91//23
f 94//24 95//24 93//24
f 93//24 95//24 109//28
f 95//24 96//24 109//28
f 109//28 96//24 110//28
f 110//28 96//24 111//28
f 112//28 111//28 96//24
f 113//29 98//25 114//29
f 98//25 113//29 97//25
f 97//25 113//29 115//29
f 97//25 115//29 99//25
f 99//25 115//29 116//29
f 99//25 116//29 100//25
f 101//26 117//30 102//26
f 117//30 118//30 102//26
f 102//26 118//30 103//26
f 118//30 119//30 103//26
f 103//26 119//30 104//26
f 120//30 104//26 119//30
f 106//27 121//31 122//31
f 121//31 106//27 123//31
f 123//31 106//27 124//31
f 124//31 106//27 105//27
f 124//31 105//27 107//27
f 124//31 107//27 108//27
f 109//28 110//28 125//32
f 110//28 111//28 125//32
f 111//28 112//28 125//32
f 125//32 112//28 126//32
f 126//32 112//28 127//32
f 128//32 127//32 112//28
f 129//33 114//29 130//33
f 114//29 129//33 113//29
f 113//29 129//33 131//33
f 113//29 131//33 115//29
f 115//29 131//33 132//33
f 115//29 132//33 116//29
f 117//30 133//34 118//30
f 133//34 134//34 118//30
f 118//30 134//34 119//30
f 134//34 135//34 119//30
f 119//30 135//34 120//30
f 136//34 120//30 135//34
f 122//31 137//35 138//35
f 137//35 122//31 139//35
f 139//35 122//31 140//35
f 140//35 122//31 124//31
f 124//31 122//31 123//31
f 123//31 122//31 121//31
f 127//32 128//32 126//32
f 126//32 128//32 125//32
f 125//32 128//32 141//36
f 141//36 128//32 142//36
f 142//36 128//32 143//36
f 144//36 143//36 128//32
f 145//37 130//33 146//37
f 130//33 145//37 147//37
f 130//33 147//37 148//37
f 130//33 148//37 129//33
f 129//33 148//37 132//33
f 129//33 132//33 131//33
f 134//34 133//34 135//34
f 133//34 149//38 135//34
f 135//34 149//38 136//34
f 149//38 150//38 136//34
f 150//38 151//38 136//34
f 152//38 136//34 151//38
f 138//35 153//39 154//39
f 153//39 138//35 155//39
f 155//39 140//35 156//39
f 140//35 155//39 138//35
f 140//35 138//35 137//35
f 140//35 137//35 139//35
f 142//36 143//36 141//36
f 143//36 144//36 141//36
f 144//36 157//40 141//36
f 158//40 141//36 157//40
f 157//40 144//36 159//40
f 160//40 159//40 144//36
f 161//41 146//37 162//41
f 146//37 161//41 163//41
f 146//37 163//41 164//41
f 146//37 164//41 148//37
f 146//37 148//37 145//37
f 145//37 148//37 147//37
f 150//38 149//38 151//38
f 151//38 149//38 152//38
f 149//38 165//42 152//38
f 165//42 166//42 152//38
f 166//42 167//42 152//38
f 168//42 152//38 167//42
f 169//43 156//39 170//43
f 156//39 169//43 171//44
f 156//39 171//44 172//44
f 156//39 172//44 154//39
f 156//39 154//39 153//39
f 156//39 153//39 155//39
f 157//40 159//40 158//40
f 159//40 160//40 158//40
f 160//40 173//45 158//40
f 173//45 174//45 158//40
f 174//45 175//46 158//40
f 176//46 158//40 175//46
f 177//47 162//41 178//47
f 162//41 177//47 179//47
f 162//41 179//47 180//47
f 162//41 180//47 164//41
f 162//41 164//41 163//41
f 162//41 163//41 161//41
f 167//42 166//42 168//42
f 166//42 165//42 168//42
f 165//42 181//48 168//42
f 181//48 182//48 168//42
f 182//48 183//48 168//42
f 184//48 168//42 183//48
f 185//49 170//43 186//49
f 170//43 185//49 187//50
f 187//50 185//49 188//50
f 170//43 187//50 169//43
f 175//46 189//51 176//46
f 190//51 191//52 189//51
f 189//51 191//52 176//46
f 192//52 176//46 191//52
f 193//53 178//47 194//53
f 178//47 193//53 195//53
f 178//47 195//53 196//53
f 178//47 196//53 180//47
f 178//47 180//47 177//47
f 177//47 180//47 179//47
f 182//48 181//48 183//48
f 183//48 181//48 184//48
f 181//48 197//54 184//48
f 197//54 198//54 184//48
f 198//54 199//54 184//48
f 200//54 184//48 199//54
f 201//55 186//49 202//55
f 186//49 201//55 185//49
f 191//52 203//56 192//52
f 204//56 192//52 203//56
f 205//57 194//53 206//57
f 194//53 205//57 207//57
f 194//53 207//57 208//57
f 194//53 208//57 195//53
f 195//53 208//57 196//53
f 194//53 195//53 193//53
f 199//54 198//54 200//54
f 197//54 209//58 198//54
f 198//54 209//58 200//54
f 209//58 210//58 200//54
f 210//58 211//58 200//54
f 212//58 200//54 211//58
f 213//59 202//55 214//59
f 202//55 213//59 201//55
f 203//56 215//60 204//56
f 216//60 204//56 215//60
f 208//57 217//61 218//61
f 217//61 208//57 219//61
f 219//61 208//57 220//61
f 220//61 208//57 206//57
f 206//57 208//57 207//57
f 206//57 207//57 205//57
f 211//58 210//58 212//58
f 210//58 209//58 212//58
f 212//58 209//58 221//62
f 221//62 209//58 222//62
f 222//62 209//58 223//62
f 224//62 223//62 209//58
f 225//63 214//59 226//63
f 214//59 225//63 213//59
f 215//60 227//64 216//60
f 228//64 216//60 227//64
f 218//61 229//65 230//65
f 229//65 218//61 231//66
f 231//66 220//61 232//66
f 220//61 231//66 218//61
f 220//61 218//61 217//61
f 220//61 217//61 219//61
f 222//62 223//62 221//62
f 223//62 224//62 221//62
f 224//62 233//67 221//62
f 234//67 221//62 233//67
f 233//67 224//62 235//68
f 236//68 235//68 224//62
f 237//69 226//63 238//69
f 226//63 237//69 225//63
f 227//64 239//70 228//64
f 240//70 228//64 239//70
f 230//65 241//71 242//71
f 241//71 230//65 243//72
f 243//72 230//65 229//65
f 244//72 241//71 243//72
f 245//73 246//74 247//73
f 235//68 236//68 245//73
f 245//73 236//68 246//74
f 248//74 246//74 236//68
f 238//69 249//75 237//69
f 249//75 238//69 250//75
f 251//76 240//70 252//76
f 239//70 252//76 240//70
f 242//71 253//77 254//77
f 253//77 242//71 241//71
f 246//74 248//74 255//78
f 256//78 255//78 248//74
f 250//75 257//79 249//75
f 257//79 250//75 258//79
f 259//80 251//76 260//80
f 252//76 260//80 251//76
f 254//77 261//81 262//81
f 261//81 254//77 253//77
f 255//78 256//78 263//82
f 264//82 263//82 256//78
f 257//79 265//83 266//83
f 265//83 257//79 258//79
f 259//80 260//80 267//84
f 268//84 267//84 260//80
f 262//81 269//85 270//85
f 269//85 262//81 261//81
f 263//82 264//82 271//86
f 272//86 271//86 264//82
f 265//83 273//87 266//83
f 273//87 265//83 274//87
f 275//88 267//84 276//88
f 268//84 276//88 267//84
f 270//85 277//89 278//89
f 277//89 270//85 269//85
f 271//86 272//86 279//90
f 280//90 279//90 272//86
f 274//87 281//91 273//87
f 281//91 274//87 282//91
f 283//92 275//88 284//92
f 276//88 284//92 275//88
f 285//93 277//89 286//93
f 277//89 285//93 278//89
f 280//90 287//94 279//90
f 288//94 279//90 287//94
f 282//91 289//95 281//91
f 289//95 282//91 290//95
f 291//96 283//92 292//96
f 284//92 292//96 283//92
f 293//97 286//93 294//97
f 286//93 293//97 285//93
f 287//94 295//98 288//94
f 296//98 288//94 295//98
f 290//95 297//99 289//95
f 297//99 290//95 298//99
f 299//100 291//96 300//100
f 292//96 300//100 291//96
f 301//101 294//97 302//101
f 294//97 301//101 293//97
f 295//98 303//102 296//98
f 304//102 296//98 303//102
f 298//99 305//103 297//99
f 305//103 298//99 306//103
f 307//104 299//100 308//104
f 300//100 308//104 299//100
f 306//103 302//101 305//103
f 302//101 306//103 301//101
f 303//102 307//104 304//102
f 308//104 304//102 307//104
