# SSTK version 0.8.0
# 16
mtllib original-16.mtl
o group_7/ID90#ID90
v 0.093589 0.602454 -0.297284
v 0.114282 0.590989 -0.307489
v 0.093589 0.590989 -0.297284
v 0.114282 0.602454 -0.307489
v 0.114282 0.602454 -0.307489
v 0.093589 0.602454 -0.297284
v 0.114282 0.590989 -0.307489
v 0.093589 0.590989 -0.297284
v 0.111683 0.453806 -0.311991
v 0.084082 -0.064640 -0.320237
v 0.101860 -0.064640 -0.329004
v 0.091600 0.453806 -0.302087
v 0.112111 0.476406 -0.311249
v 0.091928 0.476406 -0.301296
v 0.114282 0.590989 -0.307489
v 0.093589 0.590989 -0.297284
v 0.093589 0.590989 -0.297284
v 0.114282 0.590989 -0.307489
v 0.091928 0.476406 -0.301296
v 0.112111 0.476406 -0.311249
v 0.091600 0.453806 -0.302087
v 0.111683 0.453806 -0.311991
v 0.084082 -0.064640 -0.320237
v 0.101860 -0.064640 -0.329004
v 0.071741 0.602454 -0.289868
v 0.071741 0.590989 -0.289868
v 0.071741 0.602454 -0.289868
v 0.071741 0.590989 -0.289868
v -0.148788 0.602454 -0.437221
v -0.148788 0.602454 -0.483267
v -0.150297 0.602454 -0.460244
v -0.144286 0.602454 -0.414592
v -0.144286 0.602454 -0.505896
v -0.136870 0.602454 -0.392744
v -0.136870 0.602454 -0.527743
v -0.126665 0.602454 -0.548437
v -0.126665 0.602454 -0.372051
v -0.113847 0.602454 -0.352867
v -0.113847 0.602454 -0.567620
v -0.098634 0.602454 -0.335520
v -0.098634 0.602454 -0.584967
v -0.081288 0.602454 -0.320307
v -0.081288 0.602454 -0.600180
v -0.062104 0.602454 -0.307489
v -0.062104 0.602454 -0.612998
v -0.041411 0.602454 -0.297284
v -0.041411 0.602454 -0.623203
v -0.019563 0.602454 -0.289868
v -0.019563 0.602454 -0.630619
v 0.003066 0.602454 -0.635120
v 0.003066 0.602454 -0.285367
v 0.026089 0.602454 -0.283858
v 0.026089 0.602454 -0.636629
v 0.049112 0.602454 -0.285367
v 0.049112 0.602454 -0.635120
v 0.071741 0.602454 -0.289868
v 0.071741 0.602454 -0.630619
v 0.093589 0.602454 -0.623203
v 0.093589 0.602454 -0.297284
v 0.114282 0.602454 -0.307489
v 0.114282 0.602454 -0.612998
v 0.133466 0.602454 -0.600180
v 0.133466 0.602454 -0.320307
v 0.150813 0.602454 -0.335520
v 0.150813 0.602454 -0.584967
v 0.166025 0.602454 -0.567620
v 0.166025 0.602454 -0.352867
v 0.178844 0.602454 -0.372051
v 0.178844 0.602454 -0.548437
v 0.189048 0.602454 -0.527743
v 0.189048 0.602454 -0.392744
v 0.196465 0.602454 -0.414592
v 0.196465 0.602454 -0.505896
v 0.200966 0.602454 -0.437221
v 0.200966 0.602454 -0.483267
v 0.202475 0.602454 -0.460244
v 0.202475 0.602454 -0.460244
v 0.200966 0.602454 -0.437221
v 0.200966 0.602454 -0.483267
v 0.196465 0.602454 -0.505896
v 0.196465 0.602454 -0.414592
v 0.189048 0.602454 -0.527743
v 0.189048 0.602454 -0.392744
v 0.178844 0.602454 -0.372051
v 0.178844 0.602454 -0.548437
v 0.166025 0.602454 -0.567620
v 0.166025 0.602454 -0.352867
v 0.150813 0.602454 -0.335520
v 0.150813 0.602454 -0.584967
v 0.133466 0.602454 -0.600180
v 0.133466 0.602454 -0.320307
v 0.114282 0.602454 -0.307489
v 0.114282 0.602454 -0.612998
v 0.093589 0.602454 -0.623203
v 0.093589 0.602454 -0.297284
v 0.071741 0.602454 -0.289868
v 0.071741 0.602454 -0.630619
v 0.049112 0.602454 -0.635120
v 0.049112 0.602454 -0.285367
v 0.026089 0.602454 -0.636629
v 0.026089 0.602454 -0.283858
v 0.003066 0.602454 -0.635120
v 0.003066 0.602454 -0.285367
v -0.019563 0.602454 -0.289868
v -0.019563 0.602454 -0.630619
v -0.041411 0.602454 -0.623203
v -0.041411 0.602454 -0.297284
v -0.062104 0.602454 -0.612998
v -0.062104 0.602454 -0.307489
v -0.081288 0.602454 -0.600180
v -0.081288 0.602454 -0.320307
v -0.098634 0.602454 -0.584967
v -0.098634 0.602454 -0.335520
v -0.113847 0.602454 -0.567620
v -0.113847 0.602454 -0.352867
v -0.126665 0.602454 -0.548437
v -0.126665 0.602454 -0.372051
v -0.136870 0.602454 -0.392744
v -0.136870 0.602454 -0.527743
v -0.144286 0.602454 -0.505896
v -0.144286 0.602454 -0.414592
v -0.148788 0.602454 -0.483267
v -0.148788 0.602454 -0.437221
v -0.150297 0.602454 -0.460244
v 0.133466 0.602454 -0.320307
v 0.133466 0.590989 -0.320307
v 0.133466 0.602454 -0.320307
v 0.133466 0.590989 -0.320307
v 0.130302 0.453806 -0.324431
v 0.118342 -0.064640 -0.340017
v 0.130823 0.476406 -0.323752
v 0.133466 0.590989 -0.320307
v 0.133466 0.590989 -0.320307
v 0.130823 0.476406 -0.323752
v 0.130302 0.453806 -0.324431
v 0.118342 -0.064640 -0.340017
v 0.065311 -0.064640 -0.313865
v 0.070396 0.453806 -0.294889
v 0.070617 0.476406 -0.294062
v 0.071741 0.590989 -0.289868
v 0.071741 0.590989 -0.289868
v 0.070617 0.476406 -0.294062
v 0.070396 0.453806 -0.294889
v 0.065311 -0.064640 -0.313865
v -0.124156 -0.064640 -0.480024
v -0.124156 -0.064640 -0.440463
v -0.125453 -0.064640 -0.460244
v -0.120289 -0.064640 -0.499466
v -0.120289 -0.064640 -0.421022
v -0.113917 -0.064640 -0.518236
v -0.113917 -0.064640 -0.402251
v -0.105150 -0.064640 -0.536015
v -0.105150 -0.064640 -0.384473
v -0.094137 -0.064640 -0.552497
v -0.094137 -0.064640 -0.367991
v -0.081067 -0.064640 -0.353087
v -0.081067 -0.064640 -0.567400
v -0.066164 -0.064640 -0.580470
v -0.066164 -0.064640 -0.340017
v -0.049682 -0.064640 -0.591483
v -0.049682 -0.064640 -0.329004
v -0.031903 -0.064640 -0.600250
v -0.031903 -0.064640 -0.320237
v -0.013133 -0.064640 -0.606622
v -0.013133 -0.064640 -0.313865
v 0.006309 -0.064640 -0.610489
v 0.006309 -0.064640 -0.309998
v 0.026089 -0.064640 -0.611786
v 0.026089 -0.064640 -0.308702
v 0.045869 -0.064640 -0.309998
v 0.045869 -0.064640 -0.610489
v 0.065311 -0.064640 -0.313865
v 0.065311 -0.064640 -0.606622
v 0.084082 -0.064640 -0.600250
v 0.084082 -0.064640 -0.320237
v 0.101860 -0.064640 -0.591483
v 0.101860 -0.064640 -0.329004
v 0.118342 -0.064640 -0.580470
v 0.118342 -0.064640 -0.340017
v 0.133246 -0.064640 -0.567400
v 0.133246 -0.064640 -0.353087
v 0.146315 -0.064640 -0.552497
v 0.146315 -0.064640 -0.367991
v 0.157328 -0.064640 -0.536015
v 0.157328 -0.064640 -0.384473
v 0.166096 -0.064640 -0.518236
v 0.166096 -0.064640 -0.402251
v 0.172467 -0.064640 -0.499466
v 0.172467 -0.064640 -0.421022
v 0.176335 -0.064640 -0.480024
v 0.176335 -0.064640 -0.440463
v 0.177631 -0.064640 -0.460244
v 0.177631 -0.064640 -0.460244
v 0.176335 -0.064640 -0.480024
v 0.176335 -0.064640 -0.440463
v 0.172467 -0.064640 -0.421022
v 0.172467 -0.064640 -0.499466
v 0.166096 -0.064640 -0.402251
v 0.166096 -0.064640 -0.518236
v 0.157328 -0.064640 -0.384473
v 0.157328 -0.064640 -0.536015
v 0.146315 -0.064640 -0.367991
v 0.146315 -0.064640 -0.552497
v 0.133246 -0.064640 -0.353087
v 0.133246 -0.064640 -0.567400
v 0.118342 -0.064640 -0.340017
v 0.118342 -0.064640 -0.580470
v 0.101860 -0.064640 -0.329004
v 0.101860 -0.064640 -0.591483
v 0.084082 -0.064640 -0.320237
v 0.084082 -0.064640 -0.600250
v 0.065311 -0.064640 -0.313865
v 0.065311 -0.064640 -0.606622
v 0.045869 -0.064640 -0.610489
v 0.045869 -0.064640 -0.309998
v 0.026089 -0.064640 -0.611786
v 0.026089 -0.064640 -0.308702
v 0.006309 -0.064640 -0.309998
v 0.006309 -0.064640 -0.610489
v -0.013133 -0.064640 -0.313865
v -0.013133 -0.064640 -0.606622
v -0.031903 -0.064640 -0.320237
v -0.031903 -0.064640 -0.600250
v -0.049682 -0.064640 -0.329004
v -0.049682 -0.064640 -0.591483
v -0.066164 -0.064640 -0.340017
v -0.066164 -0.064640 -0.580470
v -0.081067 -0.064640 -0.353087
v -0.081067 -0.064640 -0.567400
v -0.094137 -0.064640 -0.552497
v -0.094137 -0.064640 -0.367991
v -0.105150 -0.064640 -0.384473
v -0.105150 -0.064640 -0.536015
v -0.113917 -0.064640 -0.402251
v -0.113917 -0.064640 -0.518236
v -0.120289 -0.064640 -0.421022
v -0.120289 -0.064640 -0.499466
v -0.124156 -0.064640 -0.440463
v -0.124156 -0.064640 -0.480024
v -0.125453 -0.064640 -0.460244
v 0.049112 0.602454 -0.285367
v 0.049112 0.590989 -0.285367
v 0.049112 0.602454 -0.285367
v 0.049112 0.590989 -0.285367
v 0.200966 0.590989 -0.483267
v 0.202475 0.602454 -0.460244
v 0.202475 0.590989 -0.460244
v 0.200966 0.602454 -0.483267
v 0.200966 0.602454 -0.483267
v 0.200966 0.590989 -0.483267
v 0.202475 0.602454 -0.460244
v 0.202475 0.590989 -0.460244
v 0.196465 0.590989 -0.505896
v 0.196465 0.602454 -0.505896
v 0.196465 0.602454 -0.505896
v 0.196465 0.590989 -0.505896
v 0.189048 0.590989 -0.527743
v 0.189048 0.602454 -0.527743
v 0.189048 0.602454 -0.527743
v 0.189048 0.590989 -0.527743
v 0.178844 0.590989 -0.548437
v 0.178844 0.602454 -0.548437
v 0.178844 0.602454 -0.548437
v 0.178844 0.590989 -0.548437
v 0.166025 0.590989 -0.567620
v 0.166025 0.602454 -0.567620
v 0.166025 0.602454 -0.567620
v 0.166025 0.590989 -0.567620
v 0.150813 0.590989 -0.584967
v 0.150813 0.602454 -0.584967
v 0.150813 0.602454 -0.584967
v 0.150813 0.590989 -0.584967
v 0.133466 0.602454 -0.600180
v 0.133466 0.590989 -0.600180
v 0.133466 0.602454 -0.600180
v 0.133466 0.590989 -0.600180
v 0.114282 0.602454 -0.612998
v 0.114282 0.590989 -0.612998
v 0.114282 0.602454 -0.612998
v 0.114282 0.590989 -0.612998
v 0.093589 0.602454 -0.623203
v 0.093589 0.590989 -0.623203
v 0.093589 0.602454 -0.623203
v 0.093589 0.590989 -0.623203
v 0.071741 0.602454 -0.630619
v 0.071741 0.590989 -0.630619
v 0.071741 0.602454 -0.630619
v 0.071741 0.590989 -0.630619
v 0.049112 0.602454 -0.635120
v 0.049112 0.590989 -0.635120
v 0.049112 0.602454 -0.635120
v 0.049112 0.590989 -0.635120
v 0.026089 0.602454 -0.636629
v 0.026089 0.590989 -0.636629
v 0.026089 0.602454 -0.636629
v 0.026089 0.590989 -0.636629
v 0.003066 0.602454 -0.635120
v 0.003066 0.590989 -0.635120
v 0.003066 0.602454 -0.635120
v 0.003066 0.590989 -0.635120
v -0.019563 0.602454 -0.630619
v -0.019563 0.590989 -0.630619
v -0.019563 0.602454 -0.630619
v -0.019563 0.590989 -0.630619
v -0.041411 0.602454 -0.623203
v -0.041411 0.590989 -0.623203
v -0.041411 0.602454 -0.623203
v -0.041411 0.590989 -0.623203
v -0.062104 0.602454 -0.612998
v -0.062104 0.590989 -0.612998
v -0.062104 0.602454 -0.612998
v -0.062104 0.590989 -0.612998
v -0.081288 0.602454 -0.600180
v -0.081288 0.590989 -0.600180
v -0.081288 0.602454 -0.600180
v -0.081288 0.590989 -0.600180
v -0.098634 0.602454 -0.584967
v -0.098634 0.590989 -0.584967
v -0.098634 0.602454 -0.584967
v -0.098634 0.590989 -0.584967
v -0.113847 0.590989 -0.567620
v -0.113847 0.602454 -0.567620
v -0.113847 0.590989 -0.567620
v -0.113847 0.602454 -0.567620
v -0.126665 0.590989 -0.548437
v -0.126665 0.602454 -0.548437
v -0.126665 0.590989 -0.548437
v -0.126665 0.602454 -0.548437
v -0.136870 0.590989 -0.527743
v -0.136870 0.602454 -0.527743
v -0.136870 0.590989 -0.527743
v -0.136870 0.602454 -0.527743
v -0.144286 0.590989 -0.505896
v -0.144286 0.602454 -0.505896
v -0.144286 0.590989 -0.505896
v -0.144286 0.602454 -0.505896
v -0.148788 0.590989 -0.483267
v -0.148788 0.602454 -0.483267
v -0.148788 0.590989 -0.483267
v -0.148788 0.602454 -0.483267
v -0.150297 0.602454 -0.460244
v -0.150297 0.590989 -0.460244
v -0.150297 0.602454 -0.460244
v -0.150297 0.590989 -0.460244
v -0.148788 0.602454 -0.437221
v -0.148788 0.590989 -0.437221
v -0.148788 0.602454 -0.437221
v -0.148788 0.590989 -0.437221
v -0.144286 0.602454 -0.414592
v -0.144286 0.590989 -0.414592
v -0.144286 0.602454 -0.414592
v -0.144286 0.590989 -0.414592
v -0.136870 0.602454 -0.392744
v -0.136870 0.590989 -0.392744
v -0.136870 0.602454 -0.392744
v -0.136870 0.590989 -0.392744
v -0.126665 0.602454 -0.372051
v -0.126665 0.590989 -0.372051
v -0.126665 0.602454 -0.372051
v -0.126665 0.590989 -0.372051
v -0.113847 0.602454 -0.352867
v -0.113847 0.590989 -0.352867
v -0.113847 0.602454 -0.352867
v -0.113847 0.590989 -0.352867
v -0.098634 0.590989 -0.335520
v -0.098634 0.602454 -0.335520
v -0.098634 0.590989 -0.335520
v -0.098634 0.602454 -0.335520
v -0.081288 0.602454 -0.320307
v -0.081288 0.590989 -0.320307
v -0.081288 0.602454 -0.320307
v -0.081288 0.590989 -0.320307
v -0.062104 0.602454 -0.307489
v -0.062104 0.590989 -0.307489
v -0.062104 0.602454 -0.307489
v -0.062104 0.590989 -0.307489
v -0.041411 0.602454 -0.297284
v -0.041411 0.590989 -0.297284
v -0.041411 0.602454 -0.297284
v -0.041411 0.590989 -0.297284
v -0.019563 0.602454 -0.289868
v -0.019563 0.590989 -0.289868
v -0.019563 0.602454 -0.289868
v -0.019563 0.590989 -0.289868
v 0.003066 0.602454 -0.285367
v 0.003066 0.590989 -0.285367
v 0.003066 0.602454 -0.285367
v 0.003066 0.590989 -0.285367
v 0.026089 0.602454 -0.283858
v 0.026089 0.590989 -0.283858
v 0.026089 0.602454 -0.283858
v 0.026089 0.590989 -0.283858
v 0.150813 0.602454 -0.335520
v 0.150813 0.590989 -0.335520
v 0.150813 0.602454 -0.335520
v 0.150813 0.590989 -0.335520
v 0.166025 0.590989 -0.352867
v 0.166025 0.602454 -0.352867
v 0.166025 0.602454 -0.352867
v 0.166025 0.590989 -0.352867
v 0.178844 0.590989 -0.372051
v 0.178844 0.602454 -0.372051
v 0.178844 0.602454 -0.372051
v 0.178844 0.590989 -0.372051
v 0.189048 0.590989 -0.392744
v 0.189048 0.602454 -0.392744
v 0.189048 0.602454 -0.392744
v 0.189048 0.590989 -0.392744
v 0.196465 0.590989 -0.414592
v 0.196465 0.602454 -0.414592
v 0.196465 0.602454 -0.414592
v 0.196465 0.590989 -0.414592
v 0.200966 0.590989 -0.437221
v 0.200966 0.602454 -0.437221
v 0.200966 0.602454 -0.437221
v 0.200966 0.590989 -0.437221
v 0.147137 0.453806 -0.339196
v 0.133246 -0.064640 -0.353087
v 0.147743 0.476406 -0.338590
v 0.150813 0.590989 -0.335520
v 0.150813 0.590989 -0.335520
v 0.147743 0.476406 -0.338590
v 0.147137 0.453806 -0.339196
v 0.133246 -0.064640 -0.353087
v 0.045869 -0.064640 -0.309998
v 0.048434 0.453806 -0.290521
v 0.048545 0.476406 -0.289672
v 0.049112 0.590989 -0.285367
v 0.049112 0.590989 -0.285367
v 0.048545 0.476406 -0.289672
v 0.048434 0.453806 -0.290521
v 0.045869 -0.064640 -0.309998
v 0.026089 -0.064640 -0.308702
v 0.026089 0.453806 -0.289056
v 0.026089 0.476406 -0.288200
v 0.026089 0.590989 -0.283858
v 0.026089 0.590989 -0.283858
v 0.026089 0.476406 -0.288200
v 0.026089 0.453806 -0.289056
v 0.026089 -0.064640 -0.308702
v 0.006309 -0.064640 -0.309998
v 0.003745 0.453806 -0.290521
v 0.003633 0.476406 -0.289672
v 0.003066 0.590989 -0.285367
v 0.003066 0.590989 -0.285367
v 0.003633 0.476406 -0.289672
v 0.003745 0.453806 -0.290521
v 0.006309 -0.064640 -0.309998
v -0.013133 -0.064640 -0.313865
v -0.018217 0.453806 -0.294889
v -0.018439 0.476406 -0.294062
v -0.019563 0.590989 -0.289868
v -0.019563 0.590989 -0.289868
v -0.018439 0.476406 -0.294062
v -0.018217 0.453806 -0.294889
v -0.013133 -0.064640 -0.313865
v -0.031903 -0.064640 -0.320237
v -0.039422 0.453806 -0.302087
v -0.039749 0.476406 -0.301296
v -0.041411 0.590989 -0.297284
v -0.041411 0.590989 -0.297284
v -0.039749 0.476406 -0.301296
v -0.039422 0.453806 -0.302087
v -0.031903 -0.064640 -0.320237
v -0.049682 -0.064640 -0.329004
v -0.059505 0.453806 -0.311991
v -0.059933 0.476406 -0.311249
v -0.062104 0.590989 -0.307489
v -0.062104 0.590989 -0.307489
v -0.059933 0.476406 -0.311249
v -0.059505 0.453806 -0.311991
v -0.049682 -0.064640 -0.329004
v -0.066164 -0.064640 -0.340017
v -0.078123 0.453806 -0.324431
v -0.078645 0.476406 -0.323752
v -0.081288 0.590989 -0.320307
v -0.081288 0.590989 -0.320307
v -0.078645 0.476406 -0.323752
v -0.078123 0.453806 -0.324431
v -0.066164 -0.064640 -0.340017
v -0.081067 -0.064640 -0.353087
v -0.094959 0.453806 -0.339196
v -0.095564 0.476406 -0.338590
v -0.098634 0.590989 -0.335520
v -0.098634 0.590989 -0.335520
v -0.095564 0.476406 -0.338590
v -0.094959 0.453806 -0.339196
v -0.081067 -0.064640 -0.353087
v -0.113847 0.590989 -0.352867
v -0.110402 0.476406 -0.355510
v -0.109723 0.453806 -0.356031
v -0.094137 -0.064640 -0.367991
v -0.094137 -0.064640 -0.367991
v -0.109723 0.453806 -0.356031
v -0.110402 0.476406 -0.355510
v -0.113847 0.590989 -0.352867
v -0.126665 0.590989 -0.372051
v -0.122164 0.453806 -0.374650
v -0.105150 -0.064640 -0.384473
v -0.122905 0.476406 -0.374222
v -0.122905 0.476406 -0.374222
v -0.126665 0.590989 -0.372051
v -0.122164 0.453806 -0.374650
v -0.105150 -0.064640 -0.384473
v -0.136870 0.590989 -0.392744
v -0.132859 0.476406 -0.394405
v -0.113917 -0.064640 -0.402251
v -0.132068 0.453806 -0.394733
v -0.132068 0.453806 -0.394733
v -0.132859 0.476406 -0.394405
v -0.113917 -0.064640 -0.402251
v -0.136870 0.590989 -0.392744
v -0.144286 0.590989 -0.414592
v -0.139265 0.453806 -0.415937
v -0.120289 -0.064640 -0.421022
v -0.140093 0.476406 -0.415715
v -0.140093 0.476406 -0.415715
v -0.144286 0.590989 -0.414592
v -0.139265 0.453806 -0.415937
v -0.120289 -0.064640 -0.421022
v -0.148788 0.590989 -0.437221
v -0.144483 0.476406 -0.437787
v -0.124156 -0.064640 -0.440463
v -0.143634 0.453806 -0.437899
v -0.143634 0.453806 -0.437899
v -0.144483 0.476406 -0.437787
v -0.124156 -0.064640 -0.440463
v -0.148788 0.590989 -0.437221
v -0.150297 0.590989 -0.460244
v -0.145955 0.476406 -0.460244
v -0.125453 -0.064640 -0.460244
v -0.145098 0.453806 -0.460244
v -0.145098 0.453806 -0.460244
v -0.145955 0.476406 -0.460244
v -0.125453 -0.064640 -0.460244
v -0.150297 0.590989 -0.460244
v -0.148788 0.590989 -0.483267
v -0.143634 0.453806 -0.482588
v -0.124156 -0.064640 -0.480024
v -0.144483 0.476406 -0.482700
v -0.144483 0.476406 -0.482700
v -0.148788 0.590989 -0.483267
v -0.143634 0.453806 -0.482588
v -0.124156 -0.064640 -0.480024
v -0.120289 -0.064640 -0.499466
v -0.140093 0.476406 -0.504772
v -0.144286 0.590989 -0.505896
v -0.139265 0.453806 -0.504550
v -0.139265 0.453806 -0.504550
v -0.140093 0.476406 -0.504772
v -0.120289 -0.064640 -0.499466
v -0.144286 0.590989 -0.505896
v -0.113917 -0.064640 -0.518236
v -0.136870 0.590989 -0.527743
v -0.132068 0.453806 -0.525754
v -0.132859 0.476406 -0.526082
v -0.132859 0.476406 -0.526082
v -0.136870 0.590989 -0.527743
v -0.132068 0.453806 -0.525754
v -0.113917 -0.064640 -0.518236
v -0.105150 -0.064640 -0.536015
v -0.122905 0.476406 -0.546266
v -0.126665 0.590989 -0.548437
v -0.122164 0.453806 -0.545837
v -0.122164 0.453806 -0.545837
v -0.122905 0.476406 -0.546266
v -0.105150 -0.064640 -0.536015
v -0.126665 0.590989 -0.548437
v -0.094137 -0.064640 -0.552497
v -0.109723 0.453806 -0.564456
v -0.113847 0.590989 -0.567620
v -0.110402 0.476406 -0.564977
v -0.110402 0.476406 -0.564977
v -0.113847 0.590989 -0.567620
v -0.109723 0.453806 -0.564456
v -0.094137 -0.064640 -0.552497
v -0.081067 -0.064640 -0.567400
v -0.094959 0.453806 -0.581291
v -0.098634 0.590989 -0.584967
v -0.095564 0.476406 -0.581897
v -0.095564 0.476406 -0.581897
v -0.098634 0.590989 -0.584967
v -0.094959 0.453806 -0.581291
v -0.081067 -0.064640 -0.567400
v -0.066164 -0.064640 -0.580470
v -0.078123 0.453806 -0.596056
v -0.078645 0.476406 -0.596735
v -0.081288 0.590989 -0.600180
v -0.081288 0.590989 -0.600180
v -0.078645 0.476406 -0.596735
v -0.078123 0.453806 -0.596056
v -0.066164 -0.064640 -0.580470
v -0.049682 -0.064640 -0.591483
v -0.059505 0.453806 -0.608496
v -0.059933 0.476406 -0.609238
v -0.062104 0.590989 -0.612998
v -0.062104 0.590989 -0.612998
v -0.059933 0.476406 -0.609238
v -0.059505 0.453806 -0.608496
v -0.049682 -0.064640 -0.591483
v -0.031903 -0.064640 -0.600250
v -0.039422 0.453806 -0.618400
v -0.039749 0.476406 -0.619191
v -0.041411 0.590989 -0.623203
v -0.041411 0.590989 -0.623203
v -0.039749 0.476406 -0.619191
v -0.039422 0.453806 -0.618400
v -0.031903 -0.064640 -0.600250
v -0.013133 -0.064640 -0.606622
v -0.018217 0.453806 -0.625598
v -0.018439 0.476406 -0.626425
v -0.019563 0.590989 -0.630619
v -0.019563 0.590989 -0.630619
v -0.018439 0.476406 -0.626425
v -0.018217 0.453806 -0.625598
v -0.013133 -0.064640 -0.606622
v 0.006309 -0.064640 -0.610489
v 0.003745 0.453806 -0.629967
v 0.003633 0.476406 -0.630816
v 0.003066 0.590989 -0.635120
v 0.003066 0.590989 -0.635120
v 0.003633 0.476406 -0.630816
v 0.003745 0.453806 -0.629967
v 0.006309 -0.064640 -0.610489
v 0.026089 -0.064640 -0.611786
v 0.026089 0.453806 -0.631431
v 0.026089 0.476406 -0.632287
v 0.026089 0.590989 -0.636629
v 0.026089 0.590989 -0.636629
v 0.026089 0.476406 -0.632287
v 0.026089 0.453806 -0.631431
v 0.026089 -0.064640 -0.611786
v 0.045869 -0.064640 -0.610489
v 0.048434 0.453806 -0.629967
v 0.048545 0.476406 -0.630816
v 0.049112 0.590989 -0.635120
v 0.049112 0.590989 -0.635120
v 0.048545 0.476406 -0.630816
v 0.048434 0.453806 -0.629967
v 0.045869 -0.064640 -0.610489
v 0.065311 -0.064640 -0.606622
v 0.070396 0.453806 -0.625598
v 0.070617 0.476406 -0.626425
v 0.071741 0.590989 -0.630619
v 0.071741 0.590989 -0.630619
v 0.070617 0.476406 -0.626425
v 0.070396 0.453806 -0.625598
v 0.065311 -0.064640 -0.606622
v 0.084082 -0.064640 -0.600250
v 0.091600 0.453806 -0.618400
v 0.091928 0.476406 -0.619191
v 0.093589 0.590989 -0.623203
v 0.093589 0.590989 -0.623203
v 0.091928 0.476406 -0.619191
v 0.091600 0.453806 -0.618400
v 0.084082 -0.064640 -0.600250
v 0.101860 -0.064640 -0.591483
v 0.111683 0.453806 -0.608496
v 0.112111 0.476406 -0.609238
v 0.114282 0.590989 -0.612998
v 0.114282 0.590989 -0.612998
v 0.112111 0.476406 -0.609238
v 0.111683 0.453806 -0.608496
v 0.101860 -0.064640 -0.591483
v 0.118342 -0.064640 -0.580470
v 0.130302 0.453806 -0.596056
v 0.130823 0.476406 -0.596735
v 0.133466 0.590989 -0.600180
v 0.133466 0.590989 -0.600180
v 0.130823 0.476406 -0.596735
v 0.130302 0.453806 -0.596056
v 0.118342 -0.064640 -0.580470
v 0.133246 -0.064640 -0.567400
v 0.147137 0.453806 -0.581291
v 0.147743 0.476406 -0.581897
v 0.150813 0.590989 -0.584967
v 0.150813 0.590989 -0.584967
v 0.147743 0.476406 -0.581897
v 0.147137 0.453806 -0.581291
v 0.133246 -0.064640 -0.567400
v 0.161901 0.453806 -0.564456
v 0.146315 -0.064640 -0.552497
v 0.162581 0.476406 -0.564977
v 0.166025 0.590989 -0.567620
v 0.166025 0.590989 -0.567620
v 0.162581 0.476406 -0.564977
v 0.161901 0.453806 -0.564456
v 0.146315 -0.064640 -0.552497
v 0.174342 0.453806 -0.545837
v 0.157328 -0.064640 -0.536015
v 0.175084 0.476406 -0.546266
v 0.178844 0.590989 -0.548437
v 0.178844 0.590989 -0.548437
v 0.175084 0.476406 -0.546266
v 0.174342 0.453806 -0.545837
v 0.157328 -0.064640 -0.536015
v 0.184246 0.453806 -0.525754
v 0.166096 -0.064640 -0.518236
v 0.185037 0.476406 -0.526082
v 0.189048 0.590989 -0.527743
v 0.189048 0.590989 -0.527743
v 0.185037 0.476406 -0.526082
v 0.184246 0.453806 -0.525754
v 0.166096 -0.064640 -0.518236
v 0.191444 0.453806 -0.504550
v 0.172467 -0.064640 -0.499466
v 0.192271 0.476406 -0.504772
v 0.196465 0.590989 -0.505896
v 0.196465 0.590989 -0.505896
v 0.192271 0.476406 -0.504772
v 0.191444 0.453806 -0.504550
v 0.172467 -0.064640 -0.499466
v 0.195812 0.453806 -0.482588
v 0.176335 -0.064640 -0.480024
v 0.196661 0.476406 -0.482700
v 0.200966 0.590989 -0.483267
v 0.200966 0.590989 -0.483267
v 0.196661 0.476406 -0.482700
v 0.195812 0.453806 -0.482588
v 0.176335 -0.064640 -0.480024
v 0.197277 0.453806 -0.460244
v 0.177631 -0.064640 -0.460244
v 0.198133 0.476406 -0.460244
v 0.202475 0.590989 -0.460244
v 0.198133 0.476406 -0.460244
v 0.202475 0.590989 -0.460244
v 0.197277 0.453806 -0.460244
v 0.177631 -0.064640 -0.460244
v 0.196661 0.476406 -0.437787
v 0.200966 0.590989 -0.437221
v 0.195812 0.453806 -0.437899
v 0.176335 -0.064640 -0.440463
v 0.176335 -0.064640 -0.440463
v 0.195812 0.453806 -0.437899
v 0.196661 0.476406 -0.437787
v 0.200966 0.590989 -0.437221
v 0.192271 0.476406 -0.415715
v 0.196465 0.590989 -0.414592
v 0.191444 0.453806 -0.415937
v 0.172467 -0.064640 -0.421022
v 0.172467 -0.064640 -0.421022
v 0.191444 0.453806 -0.415937
v 0.192271 0.476406 -0.415715
v 0.196465 0.590989 -0.414592
v 0.185037 0.476406 -0.394405
v 0.189048 0.590989 -0.392744
v 0.184246 0.453806 -0.394733
v 0.166096 -0.064640 -0.402251
v 0.166096 -0.064640 -0.402251
v 0.184246 0.453806 -0.394733
v 0.185037 0.476406 -0.394405
v 0.189048 0.590989 -0.392744
v 0.175084 0.476406 -0.374222
v 0.178844 0.590989 -0.372051
v 0.174342 0.453806 -0.374650
v 0.157328 -0.064640 -0.384473
v 0.157328 -0.064640 -0.384473
v 0.174342 0.453806 -0.374650
v 0.175084 0.476406 -0.374222
v 0.178844 0.590989 -0.372051
v 0.162581 0.476406 -0.355510
v 0.166025 0.590989 -0.352867
v 0.161901 0.453806 -0.356031
v 0.146315 -0.064640 -0.367991
v 0.146315 -0.064640 -0.367991
v 0.161901 0.453806 -0.356031
v 0.162581 0.476406 -0.355510
v 0.166025 0.590989 -0.352867
vn -0.38268341623423263 0 -0.9238795391929064
vn -0.5280975916900015 0 -0.8491836866374791
vn 0.5280975916900015 0 0.8491836866374791
vn 0.38268341623423263 0 0.9238795391929064
vn 0.4996414093091962 -0.03786597070550966 0.8654043161240009
vn 0.3824089801044007 -0.03786596802994676 0.923216951967774
vn -0.3824089801044007 0.03786596802994676 -0.923216951967774
vn -0.4996414093091962 0.03786597070550966 -0.8654043161240009
vn -0.25881900959356163 0 -0.9659258358036645
vn 0.25881900959356163 0 0.9659258358036645
vn 0 1 0
vn 0 -1 0
vn 0.6087614302095279 0 0.7933533393698231
vn -0.6087614302095279 0 -0.7933533393698231
vn 0.6083248003460027 -0.03786597002153756 0.7927844004509195
vn -0.6083248003460027 0.03786597002153756 -0.7927844004509195
vn 0.2586333994031762 -0.037865969912620506 0.965233097772623
vn -0.2586333994031762 0.037865969912620506 -0.965233097772623
vn -0.13052619486885547 0 -0.9914448610250888
vn 0.13052619486885547 0 0.9914448610250888
vn 0.9914448610250888 0 -0.13052619486885547
vn 1 0 0
vn -0.9914448610250888 0 0.13052619486885547
vn -1 0 0
vn 0.9659258358036645 0 -0.25881900959356163
vn -0.9659258358036645 0 0.25881900959356163
vn 0.9238795391929064 0 -0.38268341623423263
vn -0.9238795391929064 0 0.38268341623423263
vn 0.866025402838329 0 -0.5000000016387101
vn -0.866025402838329 0 0.5000000016387101
vn 0.7933533393698231 0 -0.6087614302095279
vn -0.7933533393698231 0 0.6087614302095279
vn 0.7071067811865476 0 -0.7071067811865476
vn -0.7071067811865476 0 0.7071067811865476
vn 0.6087614302095279 0 -0.7933533393698231
vn -0.6087614302095279 0 0.7933533393698231
vn 0.5000000016387101 0 -0.866025402838329
vn -0.5000000016387101 0 0.866025402838329
vn 0.38268341623423263 0 -0.9238795391929064
vn -0.38268341623423263 0 0.9238795391929064
vn 0.25881900959356163 0 -0.9659258358036645
vn -0.25881900959356163 0 0.9659258358036645
vn 0.13052619486885547 0 -0.9914448610250888
vn -0.13052619486885547 0 0.9914448610250888
vn 0 0 -1
vn 0 0 1
vn -0.5000000016387101 0 -0.866025402838329
vn 0.5000000016387101 0 0.866025402838329
vn -0.7071067811865476 0 -0.7071067811865476
vn 0.7071067811865476 0 0.7071067811865476
vn -0.7933533393698231 0 -0.6087614302095279
vn 0.7933533393698231 0 0.6087614302095279
vn -0.866025402838329 0 -0.5000000016387101
vn 0.866025402838329 0 0.5000000016387101
vn -0.9238795391929064 0 -0.38268341623423263
vn 0.9238795391929064 0 0.38268341623423263
vn -0.9659258358036645 0 -0.25881900959356163
vn 0.9659258358036645 0 0.25881900959356163
vn -0.9866376141978287 0 -0.16293010234458288
vn 0.9866376141978287 0 0.16293010234458288
vn 0.7729881995070655 0 -0.6344203995954302
vn -0.7729881995070655 0 0.6344203995954302
vn -0.032754151272797155 0 0.999463438838259
vn 0.032754151272797155 0 -0.999463438838259
vn 0.9914448610250888 0 0.13052619486885547
vn -0.9914448610250888 0 -0.13052619486885547
vn 0.7065996633401193 -0.03786596803543387 0.7065996633401193
vn -0.7065996633401193 0.03786596803543387 -0.7065996633401193
vn 0.1304326027854378 -0.037865970808642416 0.9907338211574971
vn -0.1304326027854378 0.037865970808642416 -0.9907338211574971
vn 0 -0.037865971021247724 0.9992828269507178
vn 0 0.037865971021247724 -0.9992828269507178
vn -0.1304326027854378 -0.037865970808642416 0.9907338211574971
vn 0.1304326027854378 0.037865970808642416 -0.9907338211574971
vn -0.2586333994031762 -0.037865969912620506 0.965233097772623
vn 0.2586333994031762 0.037865969912620506 -0.965233097772623
vn -0.3824089801044007 -0.03786596802994676 0.923216951967774
vn 0.3824089801044007 0.03786596802994676 -0.923216951967774
vn -0.4996414093091962 -0.03786597070550966 0.8654043161240009
vn 0.4996414093091962 0.03786597070550966 -0.8654043161240009
vn -0.6083248003460027 -0.03786597002153756 0.7927844004509195
vn 0.6083248003460027 0.03786597002153756 -0.7927844004509195
vn -0.7065996633401193 -0.03786596803543387 0.7065996633401193
vn 0.7065996633401193 0.03786596803543387 -0.7065996633401193
vn -0.7927844004509195 -0.03786597002153752 0.6083248003460027
vn 0.7927844004509195 0.03786597002153752 -0.6083248003460027
vn -0.8654043161240009 -0.03786597070550959 0.4996414093091962
vn 0.8654043161240009 0.03786597070550959 -0.4996414093091962
vn -0.923216951967774 -0.03786596802994664 0.3824089801044007
vn 0.923216951967774 0.03786596802994664 -0.3824089801044007
vn -0.965233097772623 -0.03786596991262035 0.2586333994031762
vn 0.965233097772623 0.03786596991262035 -0.2586333994031762
vn -0.9907338211574971 -0.03786597080864222 0.1304326027854378
vn 0.9907338211574971 0.03786597080864222 -0.1304326027854378
vn -0.9992828269507178 -0.03786597102124751 0
vn 0.9992828269507178 0.03786597102124751 0
vn -0.9907338211574971 -0.03786597080864216 -0.1304326027854378
vn 0.9907338211574971 0.03786597080864216 0.1304326027854378
vn -0.965233097772623 -0.03786596991262023 -0.2586333994031762
vn 0.965233097772623 0.03786596991262023 0.2586333994031762
vn -0.923216951967774 -0.037865968029946476 -0.3824089801044007
vn 0.923216951967774 0.037865968029946476 0.3824089801044007
vn -0.8654043161240009 -0.037865970705509365 -0.4996414093091962
vn 0.8654043161240009 0.037865970705509365 0.4996414093091962
vn -0.7927844004509195 -0.03786597002153726 -0.6083248003460027
vn 0.7927844004509195 0.03786597002153726 0.6083248003460027
vn -0.7065996633401193 -0.03786596803543356 -0.7065996633401193
vn 0.7065996633401193 0.03786596803543356 0.7065996633401193
vn -0.6083248003460027 -0.03786597002153721 -0.7927844004509195
vn 0.6083248003460027 0.03786597002153721 0.7927844004509195
vn -0.4996414093091962 -0.03786597070550929 -0.8654043161240009
vn 0.4996414093091962 0.03786597070550929 0.8654043161240009
vn -0.3824089801044007 -0.03786596802994636 -0.923216951967774
vn 0.3824089801044007 0.03786596802994636 0.923216951967774
vn -0.2586333994031762 -0.037865969912620076 -0.965233097772623
vn 0.2586333994031762 0.037865969912620076 0.965233097772623
vn -0.1304326027854378 -0.03786597080864197 -0.9907338211574971
vn 0.1304326027854378 0.03786597080864197 0.9907338211574971
vn 0 -0.03786597102124729 -0.9992828269507178
vn 0 0.03786597102124729 0.9992828269507178
vn 0.1304326027854378 -0.03786597080864197 -0.9907338211574971
vn -0.1304326027854378 0.03786597080864197 0.9907338211574971
vn 0.2586333994031762 -0.037865969912620076 -0.965233097772623
vn -0.2586333994031762 0.037865969912620076 0.965233097772623
vn 0.3824089801044007 -0.03786596802994636 -0.923216951967774
vn -0.3824089801044007 0.03786596802994636 0.923216951967774
vn 0.4996414093091962 -0.03786597070550929 -0.8654043161240009
vn -0.4996414093091962 0.03786597070550929 0.8654043161240009
vn 0.6083248003460027 -0.03786597002153721 -0.7927844004509195
vn -0.6083248003460027 0.03786597002153721 0.7927844004509195
vn 0.7065996633401193 -0.03786596803543356 -0.7065996633401193
vn -0.7065996633401193 0.03786596803543356 0.7065996633401193
vn 0.7927844004509195 -0.03786597002153726 -0.6083248003460027
vn -0.7927844004509195 0.03786597002153726 0.6083248003460027
vn 0.8654043161240009 -0.037865970705509365 -0.4996414093091962
vn -0.8654043161240009 0.037865970705509365 0.4996414093091962
vn 0.923216951967774 -0.037865968029946476 -0.3824089801044007
vn -0.923216951967774 0.037865968029946476 0.3824089801044007
vn 0.965233097772623 -0.03786596991262023 -0.2586333994031762
vn -0.965233097772623 0.03786596991262023 0.2586333994031762
vn 0.9907338211574971 -0.03786597080864216 -0.1304326027854378
vn -0.9907338211574971 0.03786597080864216 0.1304326027854378
vn 0.9992828269507178 -0.03786597102124751 0
vn -0.9992828269507178 0.03786597102124751 0
vn 0.9907338211574971 -0.03786597080864222 0.1304326027854378
vn -0.9907338211574971 0.03786597080864222 -0.1304326027854378
vn 0.965233097772623 -0.03786596991262035 0.2586333994031762
vn -0.965233097772623 0.03786596991262035 -0.2586333994031762
vn 0.923216951967774 -0.03786596802994664 0.3824089801044007
vn -0.923216951967774 0.03786596802994664 -0.3824089801044007
vn 0.8654043161240009 -0.03786597070550959 0.4996414093091962
vn -0.8654043161240009 0.03786597070550959 -0.4996414093091962
vn 0.7927844004509195 -0.03786597002153752 0.6083248003460027
vn -0.7927844004509195 0.03786597002153752 -0.6083248003460027
usemtl material_0_0
f 1//1 2//2 3//1
f 2//2 1//1 4//2
f 5//3 6//4 7//3
f 8//4 7//3 6//4
f 9//5 10//6 11//5
f 10//6 9//5 12//6
f 12//6 9//5 13//5
f 12//6 13//5 14//6
f 14//6 13//5 15//5
f 14//6 15//5 16//6
f 17//7 18//8 19//7
f 18//8 20//8 19//7
f 19//7 20//8 21//7
f 20//8 22//8 21//7
f 21//7 22//8 23//7
f 24//8 23//7 22//8
f 25//9 3//1 26//9
f 3//1 25//9 1//1
f 6//4 27//10 8//4
f 28//10 8//4 27//10
f 29//11 30//11 31//11
f 30//11 29//11 32//11
f 30//11 32//11 33//11
f 33//11 32//11 34//11
f 33//11 34//11 35//11
f 35//11 34//11 36//11
f 36//11 34//11 37//11
f 36//11 37//11 38//11
f 36//11 38//11 39//11
f 39//11 38//11 40//11
f 39//11 40//11 41//11
f 41//11 40//11 42//11
f 41//11 42//11 43//11
f 43//11 42//11 44//11
f 43//11 44//11 45//11
f 45//11 44//11 46//11
f 45//11 46//11 47//11
f 47//11 46//11 48//11
f 47//11 48//11 49//11
f 49//11 48//11 50//11
f 50//11 48//11 51//11
f 50//11 51//11 52//11
f 50//11 52//11 53//11
f 53//11 52//11 54//11
f 53//11 54//11 55//11
f 55//11 54//11 56//11
f 55//11 56//11 57//11
f 57//11 56//11 58//11
f 58//11 56//11 59//11
f 58//11 59//11 60//11
f 58//11 60//11 61//11
f 61//11 60//11 62//11
f 62//11 60//11 63//11
f 62//11 63//11 64//11
f 62//11 64//11 65//11
f 65//11 64//11 66//11
f 66//11 64//11 67//11
f 66//11 67//11 68//11
f 66//11 68//11 69//11
f 69//11 68//11 70//11
f 70//11 68//11 71//11
f 70//11 71//11 72//11
f 70//11 72//11 73//11
f 73//11 72//11 74//11
f 73//11 74//11 75//11
f 75//11 74//11 76//11
f 77//12 78//12 79//12
f 79//12 78//12 80//12
f 78//12 81//12 80//12
f 80//12 81//12 82//12
f 81//12 83//12 82//12
f 83//12 84//12 82//12
f 82//12 84//12 85//12
f 85//12 84//12 86//12
f 84//12 87//12 86//12
f 87//12 88//12 86//12
f 86//12 88//12 89//12
f 89//12 88//12 90//12
f 88//12 91//12 90//12
f 91//12 92//12 90//12
f 90//12 92//12 93//12
f 93//12 92//12 94//12
f 92//12 95//12 94//12
f 95//12 96//12 94//12
f 94//12 96//12 97//12
f 97//12 96//12 98//12
f 96//12 99//12 98//12
f 98//12 99//12 100//12
f 99//12 101//12 100//12
f 100//12 101//12 102//12
f 101//12 103//12 102//12
f 103//12 104//12 102//12
f 102//12 104//12 105//12
f 105//12 104//12 106//12
f 104//12 107//12 106//12
f 106//12 107//12 108//12
f 107//12 109//12 108//12
f 108//12 109//12 110//12
f 109//12 111//12 110//12
f 110//12 111//12 112//12
f 111//12 113//12 112//12
f 112//12 113//12 114//12
f 113//12 115//12 114//12
f 114//12 115//12 116//12
f 115//12 117//12 116//12
f 117//12 118//12 116//12
f 116//12 118//12 119//12
f 119//12 118//12 120//12
f 118//12 121//12 120//12
f 120//12 121//12 122//12
f 121//12 123//12 122//12
f 124//12 122//12 123//12
f 125//13 7//3 126//13
f 7//3 125//13 5//3
f 4//2 127//14 2//2
f 128//14 2//2 127//14
f 129//15 11//5 130//15
f 11//5 129//15 9//5
f 9//5 129//15 131//15
f 9//5 131//15 13//5
f 13//5 131//15 132//15
f 13//5 132//15 15//5
f 18//8 133//16 20//8
f 133//16 134//16 20//8
f 20//8 134//16 22//8
f 134//16 135//16 22//8
f 22//8 135//16 24//8
f 136//16 24//8 135//16
f 12//6 137//17 10//6
f 137//17 12//6 138//17
f 138//17 12//6 14//6
f 138//17 14//6 139//17
f 139//17 14//6 16//6
f 139//17 16//6 140//17
f 141//18 17//7 142//18
f 17//7 19//7 142//18
f 142//18 19//7 143//18
f 19//7 21//7 143//18
f 143//18 21//7 144//18
f 23//7 144//18 21//7
f 145//12 146//12 147//12
f 146//12 145//12 148//12
f 146//12 148//12 149//12
f 149//12 148//12 150//12
f 149//12 150//12 151//12
f 151//12 150//12 152//12
f 151//12 152//12 153//12
f 153//12 152//12 154//12
f 153//12 154//12 155//12
f 155//12 154//12 156//12
f 156//12 154//12 157//12
f 156//12 157//12 158//12
f 156//12 158//12 159//12
f 159//12 158//12 160//12
f 159//12 160//12 161//12
f 161//12 160//12 162//12
f 161//12 162//12 163//12
f 163//12 162//12 164//12
f 163//12 164//12 165//12
f 165//12 164//12 166//12
f 165//12 166//12 167//12
f 167//12 166//12 168//12
f 167//12 168//12 169//12
f 169//12 168//12 170//12
f 170//12 168//12 171//12
f 170//12 171//12 172//12
f 172//12 171//12 173//12
f 172//12 173//12 174//12
f 172//12 174//12 175//12
f 175//12 174//12 176//12
f 175//12 176//12 177//12
f 177//12 176//12 178//12
f 177//12 178//12 179//12
f 179//12 178//12 180//12
f 179//12 180//12 181//12
f 181//12 180//12 182//12
f 181//12 182//12 183//12
f 183//12 182//12 184//12
f 183//12 184//12 185//12
f 185//12 184//12 186//12
f 185//12 186//12 187//12
f 187//12 186//12 188//12
f 187//12 188//12 189//12
f 189//12 188//12 190//12
f 189//12 190//12 191//12
f 191//12 190//12 192//12
f 193//11 194//11 195//11
f 195//11 194//11 196//11
f 194//11 197//11 196//11
f 196//11 197//11 198//11
f 197//11 199//11 198//11
f 198//11 199//11 200//11
f 199//11 201//11 200//11
f 200//11 201//11 202//11
f 201//11 203//11 202//11
f 202//11 203//11 204//11
f 203//11 205//11 204//11
f 204//11 205//11 206//11
f 205//11 207//11 206//11
f 206//11 207//11 208//11
f 207//11 209//11 208//11
f 208//11 209//11 210//11
f 209//11 211//11 210//11
f 210//11 211//11 212//11
f 211//11 213//11 212//11
f 213//11 214//11 212//11
f 212//11 214//11 215//11
f 214//11 216//11 215//11
f 215//11 216//11 217//11
f 217//11 216//11 218//11
f 216//11 219//11 218//11
f 218//11 219//11 220//11
f 219//11 221//11 220//11
f 220//11 221//11 222//11
f 221//11 223//11 222//11
f 222//11 223//11 224//11
f 223//11 225//11 224//11
f 224//11 225//11 226//11
f 225//11 227//11 226//11
f 226//11 227//11 228//11
f 227//11 229//11 228//11
f 229//11 230//11 228//11
f 228//11 230//11 231//11
f 231//11 230//11 232//11
f 230//11 233//11 232//11
f 232//11 233//11 234//11
f 233//11 235//11 234//11
f 234//11 235//11 236//11
f 235//11 237//11 236//11
f 236//11 237//11 238//11
f 237//11 239//11 238//11
f 240//11 238//11 239//11
f 241//19 26//9 242//19
f 26//9 241//19 25//9
f 27//10 243//20 28//10
f 244//20 28//10 243//20
f 245//21 246//22 247//22
f 246//22 245//21 248//21
f 249//23 250//23 251//24
f 252//24 251//24 250//23
f 253//25 248//21 245//21
f 248//21 253//25 254//25
f 255//26 256//26 249//23
f 250//23 249//23 256//26
f 257//27 254//25 253//25
f 254//25 257//27 258//27
f 259//28 260//28 255//26
f 256//26 255//26 260//28
f 261//29 258//27 257//27
f 258//27 261//29 262//29
f 263//30 264//30 259//28
f 260//28 259//28 264//30
f 265//31 262//29 261//29
f 262//29 265//31 266//31
f 267//32 268//32 263//30
f 264//30 263//30 268//32
f 269//33 266//31 265//31
f 266//31 269//33 270//33
f 271//34 272//34 267//32
f 268//32 267//32 272//34
f 273//35 269//33 274//35
f 269//33 273//35 270//33
f 271//34 275//36 272//34
f 276//36 272//34 275//36
f 277//37 274//35 278//37
f 274//35 277//37 273//35
f 275//36 279//38 276//36
f 280//38 276//36 279//38
f 281//39 278//37 282//39
f 278//37 281//39 277//37
f 279//38 283//40 280//38
f 284//40 280//38 283//40
f 285//41 282//39 286//41
f 282//39 285//41 281//39
f 283//40 287//42 284//40
f 288//42 284//40 287//42
f 289//43 286//41 290//43
f 286//41 289//43 285//41
f 287//42 291//44 288//42
f 292//44 288//42 291//44
f 293//45 290//43 294//45
f 290//43 293//45 289//43
f 291//44 295//46 292//44
f 296//46 292//44 295//46
f 297//19 294//45 298//19
f 294//45 297//19 293//45
f 295//46 299//20 296//46
f 300//20 296//46 299//20
f 301//9 298//19 302//9
f 298//19 301//9 297//19
f 299//20 303//10 300//20
f 304//10 300//20 303//10
f 305//1 302//9 306//1
f 302//9 305//1 301//9
f 303//10 307//4 304//10
f 308//4 304//10 307//4
f 309//47 306//1 310//47
f 306//1 309//47 305//1
f 307//4 311//48 308//4
f 312//48 308//4 311//48
f 313//14 310//47 314//14
f 310//47 313//14 309//47
f 311//48 315//13 312//48
f 316//13 312//48 315//13
f 317//49 314//14 318//49
f 314//14 317//49 313//14
f 315//13 319//50 316//13
f 320//50 316//13 319//50
f 317//49 321//51 322//51
f 321//51 317//49 318//49
f 320//50 319//50 323//52
f 324//52 323//52 319//50
f 322//51 325//53 326//53
f 325//53 322//51 321//51
f 323//52 324//52 327//54
f 328//54 327//54 324//52
f 326//53 329//55 330//55
f 329//55 326//53 325//53
f 327//54 328//54 331//56
f 332//56 331//56 328//54
f 330//55 333//57 334//57
f 333//57 330//55 329//55
f 331//56 332//56 335//58
f 336//58 335//58 332//56
f 334//57 337//59 338//59
f 337//59 334//57 333//57
f 335//58 336//58 339//60
f 340//60 339//60 336//58
f 339//60 341//22 342//22
f 341//22 339//60 340//60
f 338//59 337//59 343//24
f 344//24 343//24 337//59
f 342//22 345//21 346//21
f 345//21 342//22 341//22
f 343//24 344//24 347//23
f 348//23 347//23 344//24
f 346//21 349//25 350//25
f 349//25 346//21 345//21
f 347//23 348//23 351//26
f 352//26 351//26 348//23
f 350//25 353//27 354//27
f 353//27 350//25 349//25
f 351//26 352//26 355//28
f 356//28 355//28 352//26
f 354//27 357//29 358//29
f 357//29 354//27 353//27
f 355//28 356//28 359//30
f 360//30 359//30 356//28
f 358//29 361//61 362//61
f 361//61 358//29 357//29
f 359//30 360//30 363//62
f 364//62 363//62 360//30
f 363//62 365//34 366//34
f 365//34 363//62 364//62
f 362//61 361//61 367//33
f 368//33 367//33 361//61
f 369//36 365//34 370//36
f 365//34 369//36 366//34
f 368//33 371//35 367//33
f 372//35 367//33 371//35
f 373//38 370//36 374//38
f 370//36 373//38 369//36
f 371//35 375//37 372//35
f 376//37 372//35 375//37
f 377//40 374//38 378//40
f 374//38 377//40 373//38
f 375//37 379//39 376//37
f 380//39 376//37 379//39
f 381//42 378//40 382//42
f 378//40 381//42 377//40
f 379//39 383//41 380//39
f 384//41 380//39 383//41
f 385//44 382//42 386//44
f 382//42 385//44 381//42
f 383//41 387//43 384//41
f 388//43 384//41 387//43
f 389//63 386//44 390//63
f 386//44 389//63 385//44
f 387//43 391//64 388//43
f 392//64 388//43 391//64
f 391//64 242//19 392//64
f 242//19 391//64 241//19
f 243//20 389//63 244//20
f 390//63 244//20 389//63
f 393//50 126//13 394//50
f 126//13 393//50 125//13
f 127//14 395//49 128//14
f 396//49 128//14 395//49
f 397//52 393//50 394//50
f 393//50 397//52 398//52
f 399//51 400//51 395//49
f 396//49 395//49 400//51
f 401//54 398//52 397//52
f 398//52 401//54 402//54
f 403//53 404//53 399//51
f 400//51 399//51 404//53
f 405//56 402//54 401//54
f 402//54 405//56 406//56
f 407//55 408//55 403//53
f 404//53 403//53 408//55
f 409//58 406//56 405//56
f 406//56 409//58 410//58
f 411//57 412//57 407//55
f 408//55 407//55 412//57
f 413//65 410//58 409//58
f 410//58 413//65 414//65
f 415//66 416//66 411//57
f 412//57 411//57 416//66
f 247//22 414//65 413//65
f 414//65 247//22 246//22
f 251//24 252//24 415//66
f 416//66 415//66 252//24
f 417//67 130//15 418//67
f 130//15 417//67 129//15
f 129//15 417//67 419//67
f 129//15 419//67 131//15
f 131//15 419//67 420//67
f 131//15 420//67 132//15
f 133//16 421//68 134//16
f 421//68 422//68 134//16
f 134//16 422//68 135//16
f 422//68 423//68 135//16
f 135//16 423//68 136//16
f 424//68 136//16 423//68
f 138//17 425//69 137//17
f 425//69 138//17 426//69
f 426//69 138//17 139//17
f 426//69 139//17 427//69
f 427//69 139//17 140//17
f 427//69 140//17 428//69
f 429//70 141//18 430//70
f 141//18 142//18 430//70
f 430//70 142//18 431//70
f 142//18 143//18 431//70
f 431//70 143//18 432//70
f 144//18 432//70 143//18
f 426//69 433//71 425//69
f 433//71 426//69 434//71
f 434//71 426//69 427//69
f 434//71 427//69 435//71
f 435//71 427//69 428//69
f 435//71 428//69 436//71
f 437//72 429//70 438//72
f 429//70 430//70 438//72
f 438//72 430//70 439//72
f 430//70 431//70 439//72
f 439//72 431//70 440//72
f 432//70 440//72 431//70
f 434//71 441//73 433//71
f 441//73 434//71 442//73
f 442//73 434//71 435//71
f 442//73 435//71 443//73
f 443//73 435//71 436//71
f 443//73 436//71 444//73
f 445//74 437//72 446//74
f 437//72 438//72 446//74
f 446//74 438//72 447//74
f 438//72 439//72 447//74
f 447//74 439//72 448//74
f 440//72 448//74 439//72
f 442//73 449//75 441//73
f 449//75 442//73 450//75
f 450//75 442//73 443//73
f 450//75 443//73 451//75
f 451//75 443//73 444//73
f 451//75 444//73 452//75
f 453//76 445//74 454//76
f 445//74 446//74 454//76
f 454//76 446//74 455//76
f 446//74 447//74 455//76
f 455//76 447//74 456//76
f 448//74 456//76 447//74
f 450//75 457//77 449//75
f 457//77 450//75 458//77
f 458//77 450//75 451//75
f 458//77 451//75 459//77
f 459//77 451//75 452//75
f 459//77 452//75 460//77
f 461//78 453//76 462//78
f 453//76 454//76 462//78
f 462//78 454//76 463//78
f 454//76 455//76 463//78
f 463//78 455//76 464//78
f 456//76 464//78 455//76
f 458//77 465//79 457//77
f 465//79 458//77 466//79
f 466//79 458//77 459//77
f 466//79 459//77 467//79
f 467//79 459//77 460//77
f 467//79 460//77 468//79
f 469//80 461//78 470//80
f 461//78 462//78 470//80
f 470//80 462//78 471//80
f 462//78 463//78 471//80
f 471//80 463//78 472//80
f 464//78 472//80 463//78
f 466//79 473//81 465//79
f 473//81 466//79 474//81
f 474//81 466//79 467//79
f 474//81 467//79 475//81
f 475//81 467//79 468//79
f 475//81 468//79 476//81
f 477//82 469//80 478//82
f 469//80 470//80 478//82
f 478//82 470//80 479//82
f 470//80 471//80 479//82
f 479//82 471//80 480//82
f 472//80 480//82 471//80
f 474//81 481//83 473//81
f 481//83 474//81 482//83
f 482//83 474//81 475//81
f 482//83 475//81 483//83
f 483//83 475//81 476//81
f 483//83 476//81 484//83
f 485//84 477//82 486//84
f 477//82 478//82 486//84
f 486//84 478//82 487//84
f 478//82 479//82 487//84
f 487//84 479//82 488//84
f 480//82 488//84 479//82
f 489//85 483//83 484//83
f 483//83 489//85 482//83
f 482//83 489//85 481//83
f 481//83 489//85 490//85
f 481//83 490//85 491//85
f 481//83 491//85 492//85
f 493//86 494//86 488//84
f 494//86 495//86 488//84
f 495//86 496//86 488//84
f 488//84 496//86 487//84
f 487//84 496//86 486//84
f 485//84 486//84 496//86
f 497//87 490//85 489//85
f 490//85 497//87 491//85
f 491//85 497//87 492//85
f 492//85 497//87 498//87
f 492//85 498//87 499//87
f 498//87 497//87 500//87
f 501//88 502//88 503//88
f 504//88 503//88 493//86
f 503//88 502//88 493//86
f 493//86 502//88 494//86
f 494//86 502//88 495//86
f 496//86 495//86 502//88
f 505//89 500//87 497//87
f 500//87 505//89 498//87
f 498//87 505//89 499//87
f 499//87 505//89 506//89
f 499//87 506//89 507//89
f 507//89 506//89 508//89
f 509//90 510//90 511//90
f 511//90 510//90 504//88
f 510//90 512//90 504//88
f 504//88 512//90 503//88
f 503//88 512//90 501//88
f 502//88 501//88 512//90
f 513//91 506//89 505//89
f 506//89 513//91 508//89
f 508//89 513//91 507//89
f 507//89 513//91 514//91
f 507//89 514//91 515//91
f 514//91 513//91 516//91
f 517//92 518//92 519//92
f 520//92 519//92 511//90
f 519//92 518//92 511//90
f 511//90 518//92 509//90
f 509//90 518//92 510//90
f 512//90 510//90 518//92
f 521//93 516//91 513//91
f 516//91 521//93 514//91
f 514//91 521//93 515//91
f 515//91 521//93 522//93
f 515//91 522//93 523//93
f 523//93 522//93 524//93
f 525//94 526//94 527//94
f 527//94 526//94 520//92
f 526//94 528//94 520//92
f 520//92 528//94 519//92
f 519//92 528//94 517//92
f 518//92 517//92 528//94
f 529//95 522//93 521//93
f 522//93 529//95 524//93
f 524//93 529//95 523//93
f 523//93 529//95 530//95
f 530//95 531//95 523//93
f 531//95 530//95 532//95
f 533//96 534//96 535//96
f 527//94 535//96 534//96
f 534//96 536//96 527//94
f 527//94 536//96 525//94
f 525//94 536//96 526//94
f 528//94 526//94 536//96
f 529//95 532//95 530//95
f 532//95 529//95 537//97
f 532//95 537//97 531//95
f 531//95 537//97 538//97
f 531//95 538//97 539//97
f 538//97 537//97 540//97
f 541//98 542//98 543//98
f 544//98 543//98 535//96
f 543//98 542//98 535//96
f 535//96 542//98 533//96
f 542//98 536//96 533//96
f 534//96 533//96 536//96
f 538//97 545//99 539//97
f 545//99 538//97 540//97
f 545//99 540//97 537//97
f 545//99 537//97 546//99
f 546//99 537//97 547//99
f 545//99 546//99 548//99
f 549//100 550//100 551//100
f 552//100 542//98 550//100
f 550//100 542//98 551//100
f 542//98 541//98 551//100
f 541//98 543//98 551//100
f 544//98 551//100 543//98
f 548//99 553//101 545//99
f 553//101 548//99 546//99
f 553//101 546//99 547//99
f 553//101 547//99 554//101
f 553//101 554//101 555//101
f 555//101 554//101 556//101
f 557//102 558//102 559//102
f 559//102 558//102 560//102
f 558//102 552//100 560//102
f 552//100 550//100 560//102
f 550//100 549//100 560//102
f 551//100 560//102 549//100
f 555//101 561//103 553//101
f 561//103 555//101 556//101
f 561//103 556//101 554//101
f 561//103 554//101 562//103
f 562//103 554//101 563//103
f 561//103 562//103 564//103
f 565//104 566//104 567//104
f 568//104 558//102 566//104
f 566//104 558//102 567//104
f 558//102 557//102 567//104
f 557//102 559//102 567//104
f 560//102 567//104 559//102
f 564//103 569//105 561//103
f 569//105 564//103 562//103
f 569//105 562//103 563//103
f 569//105 563//103 570//105
f 570//105 563//103 571//105
f 570//105 571//105 572//105
f 573//106 574//106 575//106
f 574//106 568//104 575//106
f 575//106 568//104 576//106
f 568//104 566//104 576//106
f 566//104 565//104 576//106
f 567//104 576//106 565//104
f 570//105 577//107 569//105
f 577//107 570//105 572//105
f 577//107 572//105 571//105
f 577//107 571//105 578//107
f 578//107 571//105 579//107
f 578//107 579//107 580//107
f 581//108 582//108 583//108
f 582//108 574//106 583//108
f 583//108 574//106 584//108
f 574//106 573//106 584//108
f 573//106 575//106 584//108
f 576//106 584//108 575//106
f 578//107 585//109 577//107
f 585//109 578//107 586//109
f 586//109 578//107 580//107
f 586//109 580//107 587//109
f 587//109 580//107 579//107
f 587//109 579//107 588//109
f 589//110 582//108 590//110
f 582//108 581//108 590//110
f 590//110 581//108 591//110
f 581//108 583//108 591//110
f 591//110 583//108 592//110
f 584//108 592//110 583//108
f 586//109 593//111 585//109
f 593//111 586//109 594//111
f 594//111 586//109 587//109
f 594//111 587//109 595//111
f 595//111 587//109 588//109
f 595//111 588//109 596//111
f 597//112 589//110 598//112
f 589//110 590//110 598//112
f 598//112 590//110 599//112
f 590//110 591//110 599//112
f 599//112 591//110 600//112
f 592//110 600//112 591//110
f 594//111 601//113 593//111
f 601//113 594//111 602//113
f 602//113 594//111 595//111
f 602//113 595//111 603//113
f 603//113 595//111 596//111
f 603//113 596//111 604//113
f 605//114 597//112 606//114
f 597//112 598//112 606//114
f 606//114 598//112 607//114
f 598//112 599//112 607//114
f 607//114 599//112 608//114
f 600//112 608//114 599//112
f 602//113 609//115 601//113
f 609//115 602//113 610//115
f 610//115 602//113 603//113
f 610//115 603//113 611//115
f 611//115 603//113 604//113
f 611//115 604//113 612//115
f 613//116 605//114 614//116
f 605//114 606//114 614//116
f 614//116 606//114 615//116
f 606//114 607//114 615//116
f 615//116 607//114 616//116
f 608//114 616//116 607//114
f 610//115 617//117 609//115
f 617//117 610//115 618//117
f 618//117 610//115 611//115
f 618//117 611//115 619//117
f 619//117 611//115 612//115
f 619//117 612//115 620//117
f 621//118 613//116 622//118
f 613//116 614//116 622//118
f 622//118 614//116 623//118
f 614//116 615//116 623//118
f 623//118 615//116 624//118
f 616//116 624//118 615//116
f 618//117 625//119 617//117
f 625//119 618//117 626//119
f 626//119 618//117 619//117
f 626//119 619//117 627//119
f 627//119 619//117 620//117
f 627//119 620//117 628//119
f 629//120 621//118 630//120
f 621//118 622//118 630//120
f 630//120 622//118 631//120
f 622//118 623//118 631//120
f 631//120 623//118 632//120
f 624//118 632//120 623//118
f 626//119 633//121 625//119
f 633//121 626//119 634//121
f 634//121 626//119 627//119
f 634//121 627//119 635//121
f 635//121 627//119 628//119
f 635//121 628//119 636//121
f 637//122 629//120 638//122
f 629//120 630//120 638//122
f 638//122 630//120 639//122
f 630//120 631//120 639//122
f 639//122 631//120 640//122
f 632//120 640//122 631//120
f 634//121 641//123 633//121
f 641//123 634//121 642//123
f 642//123 634//121 635//121
f 642//123 635//121 643//123
f 643//123 635//121 636//121
f 643//123 636//121 644//123
f 645//124 637//122 646//124
f 637//122 638//122 646//124
f 646//124 638//122 647//124
f 638//122 639//122 647//124
f 647//124 639//122 648//124
f 640//122 648//124 639//122
f 642//123 649//125 641//123
f 649//125 642//123 650//125
f 650//125 642//123 643//123
f 650//125 643//123 651//125
f 651//125 643//123 644//123
f 651//125 644//123 652//125
f 653//126 645//124 654//126
f 645//124 646//124 654//126
f 654//126 646//124 655//126
f 646//124 647//124 655//126
f 655//126 647//124 656//126
f 648//124 656//126 647//124
f 650//125 657//127 649//125
f 657//127 650//125 658//127
f 658//127 650//125 651//125
f 658//127 651//125 659//127
f 659//127 651//125 652//125
f 659//127 652//125 660//127
f 661//128 653//126 662//128
f 653//126 654//126 662//128
f 662//128 654//126 663//128
f 654//126 655//126 663//128
f 663//128 655//126 664//128
f 656//126 664//128 655//126
f 658//127 665//129 657//127
f 665//129 658//127 666//129
f 666//129 658//127 659//127
f 666//129 659//127 667//129
f 667//129 659//127 660//127
f 667//129 660//127 668//129
f 669//130 661//128 670//130
f 661//128 662//128 670//130
f 670//130 662//128 671//130
f 662//128 663//128 671//130
f 671//130 663//128 672//130
f 664//128 672//130 663//128
f 666//129 673//131 665//129
f 673//131 666//129 674//131
f 674//131 666//129 667//129
f 674//131 667//129 675//131
f 675//131 667//129 668//129
f 675//131 668//129 676//131
f 677//132 669//130 678//132
f 669//130 670//130 678//132
f 678//132 670//130 679//132
f 670//130 671//130 679//132
f 679//132 671//130 680//132
f 672//130 680//132 671//130
f 673//131 681//133 682//133
f 681//133 673//131 683//133
f 683//133 673//131 684//133
f 684//133 673//131 674//131
f 684//133 674//131 676//131
f 676//131 674//131 675//131
f 678//132 679//132 677//132
f 677//132 679//132 685//134
f 679//132 680//132 685//134
f 685//134 680//132 686//134
f 686//134 680//132 687//134
f 688//134 687//134 680//132
f 682//133 689//135 690//135
f 689//135 682//133 691//135
f 691//135 682//133 692//135
f 692//135 682//133 681//133
f 692//135 681//133 684//133
f 684//133 681//133 683//133
f 686//134 687//134 685//134
f 685//134 687//134 693//136
f 687//134 688//134 693//136
f 693//136 688//134 694//136
f 694//136 688//134 695//136
f 696//136 695//136 688//134
f 690//135 697//137 698//137
f 697//137 690//135 699//137
f 699//137 690//135 700//137
f 700//137 690//135 689//135
f 700//137 689//135 692//135
f 692//135 689//135 691//135
f 694//136 695//136 693//136
f 693//136 695//136 701//138
f 695//136 696//136 701//138
f 701//138 696//136 702//138
f 702//138 696//136 703//138
f 704//138 703//138 696//136
f 698//137 705//139 706//139
f 705//139 698//137 707//139
f 707//139 698//137 708//139
f 708//139 698//137 697//137
f 708//139 697//137 700//137
f 700//137 697//137 699//137
f 702//138 703//138 701//138
f 701//138 703//138 709//140
f 703//138 704//138 709//140
f 709//140 704//138 710//140
f 710//140 704//138 711//140
f 712//140 711//140 704//138
f 706//139 713//141 714//141
f 713//141 706//139 715//141
f 715//141 706//139 716//141
f 716//141 706//139 707//139
f 716//141 707//139 708//139
f 707//139 706//139 705//139
f 711//140 712//140 710//140
f 709//140 710//140 717//142
f 710//140 712//140 717//142
f 717//142 712//140 718//142
f 718//142 712//140 719//142
f 720//142 719//142 712//140
f 714//141 721//143 722//143
f 721//143 714//141 723//143
f 723//143 716//141 724//143
f 716//141 723//143 714//141
f 716//141 714//141 713//141
f 716//141 713//141 715//141
f 718//142 719//142 717//142
f 719//142 720//142 717//142
f 720//142 725//144 717//142
f 726//144 717//142 725//144
f 725//144 720//142 727//144
f 728//144 727//144 720//142
f 729//145 724//143 730//145
f 724//143 729//145 731//145
f 724//143 731//145 732//145
f 724//143 732//145 722//143
f 724//143 722//143 723//143
f 723//143 722//143 721//143
f 727//144 728//144 725//144
f 725//144 728//144 726//144
f 728//144 733//146 726//144
f 733//146 734//146 726//144
f 734//146 735//146 726//144
f 736//146 726//144 735//146
f 737//147 730//145 738//147
f 730//145 737//147 739//147
f 730//145 739//147 740//147
f 730//145 740//147 732//145
f 730//145 732//145 731//145
f 730//145 731//145 729//145
f 735//146 734//146 736//146
f 734//146 733//146 736//146
f 733//146 741//148 736//146
f 741//148 742//148 736//146
f 742//148 743//148 736//146
f 744//148 736//146 743//148
f 745//149 738//147 746//149
f 738//147 745//149 747//149
f 738//147 747//149 748//149
f 738//147 748//149 739//147
f 739//147 748//149 740//147
f 738//147 739//147 737//147
f 743//148 742//148 744//148
f 741//148 749//150 742//148
f 742//148 749//150 744//148
f 749//150 750//150 744//148
f 750//150 751//150 744//148
f 752//150 744//148 751//150
f 753//151 746//149 754//151
f 746//149 753//151 755//151
f 746//149 755//151 756//151
f 746//149 756//151 748//149
f 746//149 748//149 747//149
f 746//149 747//149 745//149
f 751//150 750//150 752//150
f 750//150 749//150 752//150
f 749//150 757//152 752//150
f 757//152 758//152 752//150
f 758//152 759//152 752//150
f 760//152 752//150 759//152
f 761//153 754//151 762//153
f 754//151 761//153 763//153
f 754//151 763//153 764//153
f 754//151 764//153 755//151
f 755//151 764//153 756//151
f 754//151 755//151 753//151
f 759//152 758//152 760//152
f 757//152 765//154 758//152
f 758//152 765//154 760//152
f 765//154 766//154 760//152
f 766//154 767//154 760//152
f 768//154 760//152 767//154
f 419//67 762//153 420//67
f 762//153 419//67 417//67
f 762//153 417//67 418//67
f 762//153 418//67 761//153
f 761//153 418//67 764//153
f 761//153 764//153 763//153
f 766//154 765//154 767//154
f 765//154 424//68 767//154
f 767//154 424//68 768//154
f 424//68 423//68 768//154
f 423//68 422//68 768//154
f 421//68 768//154 422//68
