# SSTK version 0.8.0
# 51
mtllib original-51.mtl
o #ID348
v -0.336971 0.124975 0.133527
v 0.389149 0.124975 0.500741
v -0.336971 0.124975 0.500741
v -0.298122 0.124975 0.133527
v -0.296239 0.124975 0.133527
v -0.296224 0.124975 0.132135
v -0.296073 0.124975 0.124970
v -0.295153 0.124975 0.118060
v -0.293479 0.124975 0.111374
v -0.291083 0.124975 0.105038
v -0.288009 0.124975 0.099173
v -0.284317 0.124975 0.093890
v -0.280076 0.124975 0.089291
v -0.275368 0.124975 0.085462
v -0.270282 0.124975 0.082477
v -0.264915 0.124975 0.080391
v -0.259368 0.124975 0.079246
v -0.253641 0.124975 0.079058
v -0.144644 0.124975 0.079058
v 0.006951 0.124975 0.133527
v -0.035646 0.124975 0.079058
v -0.029920 0.124975 0.079246
v -0.024373 0.124975 0.080391
v -0.019005 0.124975 0.082477
v -0.013919 0.124975 0.085462
v -0.009211 0.124975 0.089291
v -0.004970 0.124975 0.093890
v -0.001278 0.124975 0.099173
v 0.001795 0.124975 0.105038
v 0.004192 0.124975 0.111374
v 0.005866 0.124975 0.118060
v 0.006786 0.124975 0.124970
v 0.006937 0.124975 0.132135
v 0.008835 0.124975 0.133527
v 0.389149 0.124975 0.133527
v 0.389149 0.124975 0.133527
v 0.008835 0.124975 0.133527
v 0.389149 0.124975 0.500741
v 0.006951 0.124975 0.133527
v 0.006937 0.124975 0.132135
v 0.006786 0.124975 0.124970
v 0.005866 0.124975 0.118060
v 0.004192 0.124975 0.111374
v 0.001795 0.124975 0.105038
v -0.001278 0.124975 0.099173
v -0.004970 0.124975 0.093890
v -0.009211 0.124975 0.089291
v -0.013919 0.124975 0.085462
v -0.019005 0.124975 0.082477
v -0.024373 0.124975 0.080391
v -0.029920 0.124975 0.079246
v -0.035646 0.124975 0.079058
v -0.144644 0.124975 0.079058
v -0.253641 0.124975 0.079058
v -0.259368 0.124975 0.079246
v -0.264915 0.124975 0.080391
v -0.270282 0.124975 0.082477
v -0.275368 0.124975 0.085462
v -0.280076 0.124975 0.089291
v -0.284317 0.124975 0.093890
v -0.288009 0.124975 0.099173
v -0.291083 0.124975 0.105038
v -0.293479 0.124975 0.111374
v -0.295153 0.124975 0.118060
v -0.296073 0.124975 0.124970
v -0.296224 0.124975 0.132135
v -0.296239 0.124975 0.133527
v -0.298122 0.124975 0.133527
v -0.336971 0.124975 0.133527
v -0.336971 0.124975 0.500741
vn 0 -1 0
vn 0 1 0
usemtl material_0_0
f 36//2 37//2 38//2
f 37//2 39//2 38//2
f 40//2 41//2 39//2
f 41//2 42//2 39//2
f 42//2 43//2 39//2
f 43//2 44//2 39//2
f 44//2 45//2 39//2
f 45//2 46//2 39//2
f 46//2 47//2 39//2
f 47//2 48//2 39//2
f 48//2 49//2 39//2
f 49//2 50//2 39//2
f 50//2 51//2 39//2
f 51//2 52//2 39//2
f 52//2 53//2 39//2
f 39//2 53//2 38//2
f 53//2 54//2 38//2
f 54//2 55//2 38//2
f 55//2 56//2 38//2
f 56//2 57//2 38//2
f 57//2 58//2 38//2
f 58//2 59//2 38//2
f 59//2 60//2 38//2
f 60//2 61//2 38//2
f 61//2 62//2 38//2
f 62//2 63//2 38//2
f 63//2 64//2 38//2
f 64//2 65//2 38//2
f 65//2 66//2 38//2
f 66//2 67//2 38//2
f 67//2 68//2 38//2
f 68//2 69//2 38//2
f 70//2 38//2 69//2
usemtl material_1_0
f 1//1 2//1 3//1
f 2//1 1//1 4//1
f 2//1 4//1 5//1
f 2//1 5//1 6//1
f 2//1 6//1 7//1
f 2//1 7//1 8//1
f 2//1 8//1 9//1
f 2//1 9//1 10//1
f 2//1 10//1 11//1
f 2//1 11//1 12//1
f 2//1 12//1 13//1
f 2//1 13//1 14//1
f 2//1 14//1 15//1
f 2//1 15//1 16//1
f 2//1 16//1 17//1
f 2//1 17//1 18//1
f 2//1 18//1 19//1
f 2//1 19//1 20//1
f 20//1 19//1 21//1
f 20//1 21//1 22//1
f 20//1 22//1 23//1
f 20//1 23//1 24//1
f 20//1 24//1 25//1
f 20//1 25//1 26//1
f 20//1 26//1 27//1
f 20//1 27//1 28//1
f 20//1 28//1 29//1
f 20//1 29//1 30//1
f 20//1 30//1 31//1
f 20//1 31//1 32//1
f 20//1 32//1 33//1
f 2//1 20//1 34//1
f 2//1 34//1 35//1
