# SSTK version 0.8.0
# 48
mtllib original-48.mtl
o #ID330
v 0.051389 0.627135 -0.652416
v 0.076256 0.622843 -0.647469
v 0.051389 0.622843 -0.652416
v 0.076256 0.627135 -0.647469
v 0.076256 0.627135 -0.647469
v 0.051389 0.627135 -0.652416
v 0.076256 0.622843 -0.647469
v 0.051389 0.622843 -0.652416
v 0.026089 0.627135 -0.654074
v 0.026089 0.622843 -0.654074
v 0.026089 0.627135 -0.654074
v 0.026089 0.622843 -0.654074
v -0.166083 0.627135 -0.434944
v -0.166083 0.627135 -0.485544
v -0.167742 0.627135 -0.460243
v -0.161137 0.627135 -0.410076
v -0.161137 0.627135 -0.510411
v -0.152987 0.627135 -0.534419
v -0.152987 0.627135 -0.386067
v -0.141773 0.627135 -0.557159
v -0.141773 0.627135 -0.363329
v -0.127687 0.627135 -0.578240
v -0.127687 0.627135 -0.342247
v -0.110970 0.627135 -0.597303
v -0.110970 0.627135 -0.323185
v -0.091908 0.627135 -0.306468
v -0.091908 0.627135 -0.614020
v -0.070826 0.627135 -0.292381
v -0.070826 0.627135 -0.628106
v -0.048087 0.627135 -0.639319
v -0.048087 0.627135 -0.281167
v -0.024078 0.627135 -0.647469
v -0.024078 0.627135 -0.273017
v 0.000789 0.627135 -0.652416
v 0.000789 0.627135 -0.268071
v 0.026089 0.627135 -0.654074
v 0.026089 0.627135 -0.266413
v 0.051389 0.627135 -0.652416
v 0.051389 0.627135 -0.268071
v 0.076256 0.627135 -0.273017
v 0.076256 0.627135 -0.647469
v 0.100265 0.627135 -0.639319
v 0.100265 0.627135 -0.281167
v 0.123004 0.627135 -0.628106
v 0.123004 0.627135 -0.292381
v 0.144086 0.627135 -0.306468
v 0.144086 0.627135 -0.614020
v 0.163148 0.627135 -0.323185
v 0.163148 0.627135 -0.597303
v 0.179865 0.627135 -0.578240
v 0.179865 0.627135 -0.342247
v 0.193951 0.627135 -0.557159
v 0.193951 0.627135 -0.363329
v 0.205165 0.627135 -0.386067
v 0.205165 0.627135 -0.534419
v 0.213315 0.627135 -0.410076
v 0.213315 0.627135 -0.510411
v 0.218261 0.627135 -0.434944
v 0.218261 0.627135 -0.485544
v 0.219920 0.627135 -0.460243
v 0.219920 0.627135 -0.460243
v 0.218261 0.627135 -0.434944
v 0.218261 0.627135 -0.485544
v 0.213315 0.627135 -0.510411
v 0.213315 0.627135 -0.410076
v 0.205165 0.627135 -0.534419
v 0.205165 0.627135 -0.386067
v 0.193951 0.627135 -0.557159
v 0.193951 0.627135 -0.363329
v 0.179865 0.627135 -0.342247
v 0.179865 0.627135 -0.578240
v 0.163148 0.627135 -0.323185
v 0.163148 0.627135 -0.597303
v 0.144086 0.627135 -0.614020
v 0.144086 0.627135 -0.306468
v 0.123004 0.627135 -0.628106
v 0.123004 0.627135 -0.292381
v 0.100265 0.627135 -0.281167
v 0.100265 0.627135 -0.639319
v 0.076256 0.627135 -0.273017
v 0.076256 0.627135 -0.647469
v 0.051389 0.627135 -0.652416
v 0.051389 0.627135 -0.268071
v 0.026089 0.627135 -0.266413
v 0.026089 0.627135 -0.654074
v 0.000789 0.627135 -0.268071
v 0.000789 0.627135 -0.652416
v -0.024078 0.627135 -0.273017
v -0.024078 0.627135 -0.647469
v -0.048087 0.627135 -0.281167
v -0.048087 0.627135 -0.639319
v -0.070826 0.627135 -0.292381
v -0.070826 0.627135 -0.628106
v -0.091908 0.627135 -0.614020
v -0.091908 0.627135 -0.306468
v -0.110970 0.627135 -0.597303
v -0.110970 0.627135 -0.323185
v -0.127687 0.627135 -0.342247
v -0.127687 0.627135 -0.578240
v -0.141773 0.627135 -0.363329
v -0.141773 0.627135 -0.557159
v -0.152987 0.627135 -0.386067
v -0.152987 0.627135 -0.534419
v -0.161137 0.627135 -0.410076
v -0.161137 0.627135 -0.510411
v -0.166083 0.627135 -0.485544
v -0.166083 0.627135 -0.434944
v -0.167742 0.627135 -0.460243
v 0.051389 0.635442 -0.652416
v 0.076256 0.627135 -0.647469
v 0.051389 0.627135 -0.652416
v 0.076256 0.635442 -0.647469
v 0.076256 0.635442 -0.647469
v 0.051389 0.635442 -0.652416
v 0.076256 0.627135 -0.647469
v 0.051389 0.627135 -0.652416
v 0.100265 0.622843 -0.639319
v 0.100265 0.627135 -0.639319
v 0.100265 0.627135 -0.639319
v 0.100265 0.622843 -0.639319
v 0.000789 0.627135 -0.652416
v 0.000789 0.622843 -0.652416
v 0.000789 0.627135 -0.652416
v 0.000789 0.622843 -0.652416
v 0.026089 0.635442 -0.654074
v 0.026089 0.627135 -0.654074
v 0.026089 0.635442 -0.654074
v 0.026089 0.627135 -0.654074
v 0.218261 0.627135 -0.485544
v 0.219920 0.622843 -0.460243
v 0.219920 0.627135 -0.460243
v 0.218261 0.622843 -0.485544
v 0.218261 0.622843 -0.485544
v 0.218261 0.627135 -0.485544
v 0.219920 0.622843 -0.460243
v 0.219920 0.627135 -0.460243
v 0.218261 0.635442 -0.485544
v 0.219920 0.627135 -0.460243
v 0.219920 0.635442 -0.460243
v 0.218261 0.627135 -0.485544
v 0.218261 0.627135 -0.485544
v 0.218261 0.635442 -0.485544
v 0.219920 0.627135 -0.460243
v 0.219920 0.635442 -0.460243
v 0.213315 0.627135 -0.510411
v 0.213315 0.622843 -0.510411
v 0.213315 0.622843 -0.510411
v 0.213315 0.627135 -0.510411
v 0.213315 0.635442 -0.510411
v 0.213315 0.627135 -0.510411
v 0.213315 0.627135 -0.510411
v 0.213315 0.635442 -0.510411
v 0.205165 0.622843 -0.534419
v 0.205165 0.627135 -0.534419
v 0.205165 0.627135 -0.534419
v 0.205165 0.622843 -0.534419
v 0.205165 0.627135 -0.534419
v 0.205165 0.635442 -0.534419
v 0.205165 0.635442 -0.534419
v 0.205165 0.627135 -0.534419
v 0.193951 0.622843 -0.557159
v 0.193951 0.627135 -0.557159
v 0.193951 0.627135 -0.557159
v 0.193951 0.622843 -0.557159
v 0.193951 0.627135 -0.557159
v 0.193951 0.635442 -0.557159
v 0.193951 0.635442 -0.557159
v 0.193951 0.627135 -0.557159
v 0.179865 0.622843 -0.578240
v 0.179865 0.627135 -0.578240
v 0.179865 0.627135 -0.578240
v 0.179865 0.622843 -0.578240
v 0.179865 0.627135 -0.578240
v 0.179865 0.635442 -0.578240
v 0.179865 0.635442 -0.578240
v 0.179865 0.627135 -0.578240
v 0.163148 0.622843 -0.597303
v 0.163148 0.627135 -0.597303
v 0.163148 0.627135 -0.597303
v 0.163148 0.622843 -0.597303
v 0.163148 0.627135 -0.597303
v 0.163148 0.635442 -0.597303
v 0.163148 0.635442 -0.597303
v 0.163148 0.627135 -0.597303
v 0.144086 0.627135 -0.614020
v 0.144086 0.622843 -0.614020
v 0.144086 0.627135 -0.614020
v 0.144086 0.622843 -0.614020
v 0.144086 0.635442 -0.614020
v 0.144086 0.627135 -0.614020
v 0.144086 0.635442 -0.614020
v 0.144086 0.627135 -0.614020
v 0.123004 0.627135 -0.628106
v 0.123004 0.622843 -0.628106
v 0.123004 0.627135 -0.628106
v 0.123004 0.622843 -0.628106
v 0.123004 0.635442 -0.628106
v 0.123004 0.627135 -0.628106
v 0.123004 0.635442 -0.628106
v 0.123004 0.627135 -0.628106
v 0.100265 0.635442 -0.639319
v 0.100265 0.627135 -0.639319
v 0.100265 0.635442 -0.639319
v 0.100265 0.627135 -0.639319
v 0.000789 0.635442 -0.652416
v 0.000789 0.627135 -0.652416
v 0.000789 0.635442 -0.652416
v 0.000789 0.627135 -0.652416
v -0.024078 0.622843 -0.647469
v -0.024078 0.627135 -0.647469
v -0.024078 0.627135 -0.647469
v -0.024078 0.622843 -0.647469
v -0.024078 0.627135 -0.647469
v -0.024078 0.635442 -0.647469
v -0.024078 0.635442 -0.647469
v -0.024078 0.627135 -0.647469
v -0.048087 0.622843 -0.639319
v -0.048087 0.627135 -0.639319
v -0.048087 0.627135 -0.639319
v -0.048087 0.622843 -0.639319
v -0.048087 0.627135 -0.639319
v -0.048087 0.635442 -0.639319
v -0.048087 0.635442 -0.639319
v -0.048087 0.627135 -0.639319
v -0.070826 0.622843 -0.628106
v -0.070826 0.627135 -0.628106
v -0.070826 0.627135 -0.628106
v -0.070826 0.622843 -0.628106
v -0.070826 0.627135 -0.628106
v -0.070826 0.635442 -0.628106
v -0.070826 0.635442 -0.628106
v -0.070826 0.627135 -0.628106
v -0.091908 0.622843 -0.614020
v -0.091908 0.627135 -0.614020
v -0.091908 0.627135 -0.614020
v -0.091908 0.622843 -0.614020
v -0.091908 0.627135 -0.614020
v -0.091908 0.635442 -0.614020
v -0.091908 0.635442 -0.614020
v -0.091908 0.627135 -0.614020
v -0.110970 0.622843 -0.597303
v -0.110970 0.627135 -0.597303
v -0.110970 0.627135 -0.597303
v -0.110970 0.622843 -0.597303
v -0.110970 0.627135 -0.597303
v -0.110970 0.635442 -0.597303
v -0.110970 0.635442 -0.597303
v -0.110970 0.627135 -0.597303
v -0.127687 0.627135 -0.578240
v -0.127687 0.622843 -0.578240
v -0.127687 0.627135 -0.578240
v -0.127687 0.622843 -0.578240
v -0.127687 0.635442 -0.578240
v -0.127687 0.627135 -0.578240
v -0.127687 0.635442 -0.578240
v -0.127687 0.627135 -0.578240
v -0.141773 0.627135 -0.557159
v -0.141773 0.622843 -0.557159
v -0.141773 0.627135 -0.557159
v -0.141773 0.622843 -0.557159
v -0.141773 0.635442 -0.557159
v -0.141773 0.627135 -0.557159
v -0.141773 0.635442 -0.557159
v -0.141773 0.627135 -0.557159
v -0.152987 0.627135 -0.534419
v -0.152987 0.622843 -0.534419
v -0.152987 0.627135 -0.534419
v -0.152987 0.622843 -0.534419
v -0.152987 0.635442 -0.534419
v -0.152987 0.627135 -0.534419
v -0.152987 0.635442 -0.534419
v -0.152987 0.627135 -0.534419
v -0.161137 0.627135 -0.510411
v -0.161137 0.622843 -0.510411
v -0.161137 0.627135 -0.510411
v -0.161137 0.622843 -0.510411
v -0.161137 0.635442 -0.510411
v -0.161137 0.627135 -0.510411
v -0.161137 0.635442 -0.510411
v -0.161137 0.627135 -0.510411
v -0.166083 0.627135 -0.485544
v -0.166083 0.622843 -0.485544
v -0.166083 0.627135 -0.485544
v -0.166083 0.622843 -0.485544
v -0.166083 0.635442 -0.485544
v -0.166083 0.627135 -0.485544
v -0.166083 0.635442 -0.485544
v -0.166083 0.627135 -0.485544
v -0.167742 0.627135 -0.460243
v -0.167742 0.622843 -0.460243
v -0.167742 0.627135 -0.460243
v -0.167742 0.622843 -0.460243
v -0.167742 0.635442 -0.460243
v -0.167742 0.627135 -0.460243
v -0.167742 0.635442 -0.460243
v -0.167742 0.627135 -0.460243
v -0.166083 0.627135 -0.434944
v -0.166083 0.622843 -0.434944
v -0.166083 0.627135 -0.434944
v -0.166083 0.622843 -0.434944
v -0.166083 0.635442 -0.434944
v -0.166083 0.627135 -0.434944
v -0.166083 0.635442 -0.434944
v -0.166083 0.627135 -0.434944
v -0.161137 0.627135 -0.410076
v -0.161137 0.622843 -0.410076
v -0.161137 0.627135 -0.410076
v -0.161137 0.622843 -0.410076
v -0.161137 0.635442 -0.410076
v -0.161137 0.627135 -0.410076
v -0.161137 0.635442 -0.410076
v -0.161137 0.627135 -0.410076
v -0.152987 0.627135 -0.386067
v -0.152987 0.622843 -0.386067
v -0.152987 0.627135 -0.386067
v -0.152987 0.622843 -0.386067
v -0.152987 0.635442 -0.386067
v -0.152987 0.627135 -0.386067
v -0.152987 0.635442 -0.386067
v -0.152987 0.627135 -0.386067
v -0.141773 0.627135 -0.363329
v -0.141773 0.622843 -0.363329
v -0.141773 0.627135 -0.363329
v -0.141773 0.622843 -0.363329
v -0.141773 0.635442 -0.363329
v -0.141773 0.627135 -0.363329
v -0.141773 0.635442 -0.363329
v -0.141773 0.627135 -0.363329
v -0.127687 0.627135 -0.342247
v -0.127687 0.622843 -0.342247
v -0.127687 0.627135 -0.342247
v -0.127687 0.622843 -0.342247
v -0.127687 0.635442 -0.342247
v -0.127687 0.627135 -0.342247
v -0.127687 0.635442 -0.342247
v -0.127687 0.627135 -0.342247
v -0.110970 0.627135 -0.323185
v -0.110970 0.622843 -0.323185
v -0.110970 0.627135 -0.323185
v -0.110970 0.622843 -0.323185
v -0.110970 0.635442 -0.323185
v -0.110970 0.627135 -0.323185
v -0.110970 0.635442 -0.323185
v -0.110970 0.627135 -0.323185
v -0.091908 0.622843 -0.306468
v -0.091908 0.627135 -0.306468
v -0.091908 0.627135 -0.306468
v -0.091908 0.622843 -0.306468
v -0.091908 0.627135 -0.306468
v -0.091908 0.635442 -0.306468
v -0.091908 0.635442 -0.306468
v -0.091908 0.627135 -0.306468
v -0.070826 0.622843 -0.292381
v -0.070826 0.627135 -0.292381
v -0.070826 0.627135 -0.292381
v -0.070826 0.622843 -0.292381
v -0.070826 0.627135 -0.292381
v -0.070826 0.635442 -0.292381
v -0.070826 0.635442 -0.292381
v -0.070826 0.627135 -0.292381
v -0.048087 0.622843 -0.281167
v -0.048087 0.627135 -0.281167
v -0.048087 0.627135 -0.281167
v -0.048087 0.622843 -0.281167
v -0.048087 0.627135 -0.281167
v -0.048087 0.635442 -0.281167
v -0.048087 0.635442 -0.281167
v -0.048087 0.627135 -0.281167
v -0.024078 0.622843 -0.273017
v -0.024078 0.627135 -0.273017
v -0.024078 0.627135 -0.273017
v -0.024078 0.622843 -0.273017
v -0.024078 0.627135 -0.273017
v -0.024078 0.635442 -0.273017
v -0.024078 0.635442 -0.273017
v -0.024078 0.627135 -0.273017
v 0.000789 0.622843 -0.268071
v 0.000789 0.627135 -0.268071
v 0.000789 0.627135 -0.268071
v 0.000789 0.622843 -0.268071
v 0.000789 0.627135 -0.268071
v 0.000789 0.635442 -0.268071
v 0.000789 0.635442 -0.268071
v 0.000789 0.627135 -0.268071
v 0.026089 0.622843 -0.266413
v 0.026089 0.627135 -0.266413
v 0.026089 0.627135 -0.266413
v 0.026089 0.622843 -0.266413
v 0.026089 0.627135 -0.266413
v 0.026089 0.635442 -0.266413
v 0.026089 0.635442 -0.266413
v 0.026089 0.627135 -0.266413
v 0.051389 0.622843 -0.268071
v 0.051389 0.627135 -0.268071
v 0.051389 0.627135 -0.268071
v 0.051389 0.622843 -0.268071
v 0.051389 0.627135 -0.268071
v 0.051389 0.635442 -0.268071
v 0.051389 0.635442 -0.268071
v 0.051389 0.627135 -0.268071
v 0.076256 0.622843 -0.273017
v 0.076256 0.627135 -0.273017
v 0.076256 0.627135 -0.273017
v 0.076256 0.622843 -0.273017
v 0.076256 0.627135 -0.273017
v 0.076256 0.635442 -0.273017
v 0.076256 0.635442 -0.273017
v 0.076256 0.627135 -0.273017
v 0.100265 0.622843 -0.281167
v 0.100265 0.627135 -0.281167
v 0.100265 0.627135 -0.281167
v 0.100265 0.622843 -0.281167
v 0.100265 0.627135 -0.281167
v 0.100265 0.635442 -0.281167
v 0.100265 0.635442 -0.281167
v 0.100265 0.627135 -0.281167
v 0.123004 0.622843 -0.292381
v 0.123004 0.627135 -0.292381
v 0.123004 0.627135 -0.292381
v 0.123004 0.622843 -0.292381
v 0.123004 0.627135 -0.292381
v 0.123004 0.635442 -0.292381
v 0.123004 0.635442 -0.292381
v 0.123004 0.627135 -0.292381
v 0.144086 0.622843 -0.306468
v 0.144086 0.627135 -0.306468
v 0.144086 0.627135 -0.306468
v 0.144086 0.622843 -0.306468
v 0.144086 0.627135 -0.306468
v 0.144086 0.635442 -0.306468
v 0.144086 0.635442 -0.306468
v 0.144086 0.627135 -0.306468
v 0.163148 0.622843 -0.323185
v 0.163148 0.627135 -0.323185
v 0.163148 0.627135 -0.323185
v 0.163148 0.622843 -0.323185
v 0.163148 0.627135 -0.323185
v 0.163148 0.635442 -0.323185
v 0.163148 0.635442 -0.323185
v 0.163148 0.627135 -0.323185
v 0.179865 0.627135 -0.342247
v 0.179865 0.622843 -0.342247
v 0.179865 0.622843 -0.342247
v 0.179865 0.627135 -0.342247
v 0.179865 0.635442 -0.342247
v 0.179865 0.627135 -0.342247
v 0.179865 0.627135 -0.342247
v 0.179865 0.635442 -0.342247
v 0.193951 0.627135 -0.363329
v 0.193951 0.622843 -0.363329
v 0.193951 0.622843 -0.363329
v 0.193951 0.627135 -0.363329
v 0.193951 0.635442 -0.363329
v 0.193951 0.627135 -0.363329
v 0.193951 0.627135 -0.363329
v 0.193951 0.635442 -0.363329
v 0.205165 0.627135 -0.386067
v 0.205165 0.622843 -0.386067
v 0.205165 0.622843 -0.386067
v 0.205165 0.627135 -0.386067
v 0.205165 0.635442 -0.386067
v 0.205165 0.627135 -0.386067
v 0.205165 0.627135 -0.386067
v 0.205165 0.635442 -0.386067
v 0.213315 0.627135 -0.410076
v 0.213315 0.622843 -0.410076
v 0.213315 0.622843 -0.410076
v 0.213315 0.627135 -0.410076
v 0.213315 0.635442 -0.410076
v 0.213315 0.627135 -0.410076
v 0.213315 0.627135 -0.410076
v 0.213315 0.635442 -0.410076
v 0.218261 0.627135 -0.434944
v 0.218261 0.622843 -0.434944
v 0.218261 0.622843 -0.434944
v 0.218261 0.627135 -0.434944
v 0.218261 0.635442 -0.434944
v 0.218261 0.627135 -0.434944
v 0.218261 0.627135 -0.434944
v 0.218261 0.635442 -0.434944
vn 0.13052619486885564 0 -0.9914448610250888
vn 0.2588190095935618 0 -0.9659258358036646
vn -0.2588190095935618 0 0.9659258358036646
vn -0.13052619486885564 0 0.9914448610250888
vn 0 0 -1
vn 0 0 1
vn 0 1 0
vn 0 -1 0
vn 0.3826834162342327 0 -0.9238795391929062
vn -0.3826834162342327 0 0.9238795391929062
vn -0.16293010234458274 0 -0.9866376141978287
vn 0.16293010234458274 0 0.9866376141978287
vn -0.9914448610250888 0 0.13052619486885536
vn -1 0 0
vn 0.9914448610250888 0 -0.13052619486885536
vn 1 0 0
vn -0.9738849420618871 0 0.22704210980590112
vn 0.9738849420618871 0 -0.22704210980590112
vn -0.9569301689364779 0 0.2903181905757955
vn 0.9569301689364779 0 -0.2903181905757955
vn 0.9238795391929064 0 -0.38268341623423247
vn -0.9238795391929064 0 0.38268341623423247
vn 0.866025402838329 0 -0.5000000016387098
vn -0.866025402838329 0 0.5000000016387098
vn 0.7933533393698234 0 -0.6087614302095279
vn -0.7933533393698234 0 0.6087614302095279
vn 0.7071067811865477 0 -0.7071067811865475
vn -0.7071067811865477 0 0.7071067811865475
vn 0.6087614302095281 0 -0.7933533393698231
vn -0.6087614302095281 0 0.7933533393698231
vn 0.5000000016387101 0 -0.8660254028383289
vn -0.5000000016387101 0 0.8660254028383289
vn 0.2588190095935615 0 0.9659258358036646
vn -0.2588190095935615 0 -0.9659258358036646
vn 0.38268341623423247 0 0.9238795391929064
vn -0.38268341623423247 0 -0.9238795391929064
vn 0.5000000016387098 0 0.866025402838329
vn -0.5000000016387098 0 -0.866025402838329
vn 0.6087614302095279 0 0.7933533393698234
vn -0.6087614302095279 0 -0.7933533393698234
vn 0.7071067811865475 0 0.7071067811865477
vn -0.7071067811865475 0 -0.7071067811865477
vn 0.7933533393698231 0 0.6087614302095281
vn -0.7933533393698231 0 -0.6087614302095281
vn 0.8660254028383289 0 0.5000000016387101
vn -0.8660254028383289 0 -0.5000000016387101
vn 0.9238795391929062 0 0.3826834162342327
vn -0.9238795391929062 0 -0.3826834162342327
vn 0.9659258358036646 0 0.2588190095935618
vn -0.9659258358036646 0 -0.2588190095935618
vn 0.9914448610250888 0 0.13052619486885564
vn -0.9914448610250888 0 -0.13052619486885564
vn 0.9659258358036646 0 -0.2588190095935615
vn -0.9659258358036646 0 0.2588190095935615
vn -0.13052619486885536 0 -0.9914448610250888
vn 0.13052619486885536 0 0.9914448610250888
usemtl material_0_0
f 1//1 2//2 3//1
f 2//2 1//1 4//2
f 5//3 6//4 7//3
f 8//4 7//3 6//4
f 9//5 3//1 10//5
f 3//1 9//5 1//1
f 6//4 11//6 8//4
f 12//6 8//4 11//6
f 13//7 14//7 15//7
f 14//7 13//7 16//7
f 14//7 16//7 17//7
f 17//7 16//7 18//7
f 18//7 16//7 19//7
f 18//7 19//7 20//7
f 20//7 19//7 21//7
f 20//7 21//7 22//7
f 22//7 21//7 23//7
f 22//7 23//7 24//7
f 24//7 23//7 25//7
f 24//7 25//7 26//7
f 24//7 26//7 27//7
f 27//7 26//7 28//7
f 27//7 28//7 29//7
f 29//7 28//7 30//7
f 30//7 28//7 31//7
f 30//7 31//7 32//7
f 32//7 31//7 33//7
f 32//7 33//7 34//7
f 34//7 33//7 35//7
f 34//7 35//7 36//7
f 36//7 35//7 37//7
f 36//7 37//7 38//7
f 38//7 37//7 39//7
f 38//7 39//7 40//7
f 38//7 40//7 41//7
f 41//7 40//7 42//7
f 42//7 40//7 43//7
f 42//7 43//7 44//7
f 44//7 43//7 45//7
f 44//7 45//7 46//7
f 44//7 46//7 47//7
f 47//7 46//7 48//7
f 47//7 48//7 49//7
f 49//7 48//7 50//7
f 50//7 48//7 51//7
f 50//7 51//7 52//7
f 52//7 51//7 53//7
f 52//7 53//7 54//7
f 52//7 54//7 55//7
f 55//7 54//7 56//7
f 55//7 56//7 57//7
f 57//7 56//7 58//7
f 57//7 58//7 59//7
f 59//7 58//7 60//7
f 61//8 62//8 63//8
f 63//8 62//8 64//8
f 62//8 65//8 64//8
f 64//8 65//8 66//8
f 65//8 67//8 66//8
f 66//8 67//8 68//8
f 67//8 69//8 68//8
f 69//8 70//8 68//8
f 68//8 70//8 71//8
f 70//8 72//8 71//8
f 71//8 72//8 73//8
f 73//8 72//8 74//8
f 72//8 75//8 74//8
f 74//8 75//8 76//8
f 75//8 77//8 76//8
f 77//8 78//8 76//8
f 76//8 78//8 79//8
f 78//8 80//8 79//8
f 79//8 80//8 81//8
f 81//8 80//8 82//8
f 80//8 83//8 82//8
f 83//8 84//8 82//8
f 82//8 84//8 85//8
f 84//8 86//8 85//8
f 85//8 86//8 87//8
f 86//8 88//8 87//8
f 87//8 88//8 89//8
f 88//8 90//8 89//8
f 89//8 90//8 91//8
f 90//8 92//8 91//8
f 91//8 92//8 93//8
f 93//8 92//8 94//8
f 92//8 95//8 94//8
f 94//8 95//8 96//8
f 95//8 97//8 96//8
f 97//8 98//8 96//8
f 96//8 98//8 99//8
f 98//8 100//8 99//8
f 99//8 100//8 101//8
f 100//8 102//8 101//8
f 101//8 102//8 103//8
f 102//8 104//8 103//8
f 103//8 104//8 105//8
f 105//8 104//8 106//8
f 104//8 107//8 106//8
f 108//8 106//8 107//8
f 109//1 110//2 111//1
f 110//2 109//1 112//2
f 113//3 114//4 115//3
f 116//4 115//3 114//4
f 4//2 117//9 2//2
f 117//9 4//2 118//9
f 119//10 5//3 120//10
f 7//3 120//10 5//3
f 121//11 10//5 122//11
f 10//5 121//11 9//5
f 11//6 123//12 12//6
f 124//12 12//6 123//12
f 125//5 111//1 126//5
f 111//1 125//5 109//1
f 114//4 127//6 116//4
f 128//6 116//4 127//6
f 129//13 130//14 131//14
f 130//14 129//13 132//13
f 133//15 134//15 135//16
f 136//16 135//16 134//15
f 137//13 138//14 139//14
f 138//14 137//13 140//13
f 141//15 142//15 143//16
f 144//16 143//16 142//15
f 145//17 132//13 129//13
f 132//13 145//17 146//17
f 147//18 148//18 133//15
f 134//15 133//15 148//18
f 149//19 140//13 137//13
f 140//13 149//19 150//19
f 151//20 152//20 141//15
f 142//15 141//15 152//20
f 153//21 148//18 147//18
f 148//18 153//21 154//21
f 155//22 156//22 145//17
f 146//17 145//17 156//22
f 157//21 152//20 151//20
f 152//20 157//21 158//21
f 159//22 160//22 149//19
f 150//19 149//19 160//22
f 161//23 154//21 153//21
f 154//21 161//23 162//23
f 163//24 164//24 155//22
f 156//22 155//22 164//24
f 165//23 158//21 157//21
f 158//21 165//23 166//23
f 167//24 168//24 159//22
f 160//22 159//22 168//24
f 169//25 162//23 161//23
f 162//23 169//25 170//25
f 171//26 172//26 163//24
f 164//24 163//24 172//26
f 173//25 166//23 165//23
f 166//23 173//25 174//25
f 175//26 176//26 167//24
f 168//24 167//24 176//26
f 177//27 170//25 169//25
f 170//25 177//27 178//27
f 179//28 180//28 171//26
f 172//26 171//26 180//28
f 181//27 174//25 173//25
f 174//25 181//27 182//27
f 183//28 184//28 175//26
f 176//26 175//26 184//28
f 185//29 177//27 186//29
f 177//27 185//29 178//27
f 179//28 187//30 180//28
f 188//30 180//28 187//30
f 189//29 181//27 190//29
f 181//27 189//29 182//27
f 183//28 191//30 184//28
f 192//30 184//28 191//30
f 193//31 186//29 194//31
f 186//29 193//31 185//29
f 187//30 195//32 188//30
f 196//32 188//30 195//32
f 197//31 190//29 198//31
f 190//29 197//31 189//29
f 191//30 199//32 192//30
f 200//32 192//30 199//32
f 118//9 194//31 117//9
f 194//31 118//9 193//31
f 195//32 119//10 196//32
f 120//10 196//32 119//10
f 201//9 198//31 202//9
f 198//31 201//9 197//31
f 199//32 203//10 200//32
f 204//10 200//32 203//10
f 112//2 202//9 110//2
f 202//9 112//2 201//9
f 203//10 113//3 204//10
f 115//3 204//10 113//3
f 205//11 126//5 206//11
f 126//5 205//11 125//5
f 127//6 207//12 128//6
f 208//12 128//6 207//12
f 123//12 209//33 124//12
f 209//33 123//12 210//33
f 211//34 121//11 212//34
f 122//11 212//34 121//11
f 207//12 213//33 208//12
f 213//33 207//12 214//33
f 215//34 205//11 216//34
f 206//11 216//34 205//11
f 210//33 217//35 209//33
f 217//35 210//33 218//35
f 219//36 211//34 220//36
f 212//34 220//36 211//34
f 214//33 221//35 213//33
f 221//35 214//33 222//35
f 223//36 215//34 224//36
f 216//34 224//36 215//34
f 218//35 225//37 217//35
f 225//37 218//35 226//37
f 227//38 219//36 228//38
f 220//36 228//38 219//36
f 222//35 229//37 221//35
f 229//37 222//35 230//37
f 231//38 223//36 232//38
f 224//36 232//38 223//36
f 226//37 233//39 225//37
f 233//39 226//37 234//39
f 235//40 227//38 236//40
f 228//38 236//40 227//38
f 230//37 237//39 229//37
f 237//39 230//37 238//39
f 239//40 231//38 240//40
f 232//38 240//40 231//38
f 234//39 241//41 233//39
f 241//41 234//39 242//41
f 243//42 235//40 244//42
f 236//40 244//42 235//40
f 238//39 245//41 237//39
f 245//41 238//39 246//41
f 247//42 239//40 248//42
f 240//40 248//42 239//40
f 241//41 249//43 250//43
f 249//43 241//41 242//41
f 243//42 244//42 251//44
f 252//44 251//44 244//42
f 245//41 253//43 254//43
f 253//43 245//41 246//41
f 247//42 248//42 255//44
f 256//44 255//44 248//42
f 250//43 257//45 258//45
f 257//45 250//43 249//43
f 251//44 252//44 259//46
f 260//46 259//46 252//44
f 254//43 261//45 262//45
f 261//45 254//43 253//43
f 255//44 256//44 263//46
f 264//46 263//46 256//44
f 258//45 265//47 266//47
f 265//47 258//45 257//45
f 259//46 260//46 267//48
f 268//48 267//48 260//46
f 262//45 269//47 270//47
f 269//47 262//45 261//45
f 263//46 264//46 271//48
f 272//48 271//48 264//46
f 266//47 273//49 274//49
f 273//49 266//47 265//47
f 267//48 268//48 275//50
f 276//50 275//50 268//48
f 270//47 277//49 278//49
f 277//49 270//47 269//47
f 271//48 272//48 279//50
f 280//50 279//50 272//48
f 274//49 281//51 282//51
f 281//51 274//49 273//49
f 275//50 276//50 283//52
f 284//52 283//52 276//50
f 278//49 285//51 286//51
f 285//51 278//49 277//49
f 279//50 280//50 287//52
f 288//52 287//52 280//50
f 282//51 289//16 290//16
f 289//16 282//51 281//51
f 283//52 284//52 291//14
f 292//14 291//14 284//52
f 286//51 293//16 294//16
f 293//16 286//51 285//51
f 287//52 288//52 295//14
f 296//14 295//14 288//52
f 290//16 297//15 298//15
f 297//15 290//16 289//16
f 291//14 292//14 299//13
f 300//13 299//13 292//14
f 294//16 301//15 302//15
f 301//15 294//16 293//16
f 295//14 296//14 303//13
f 304//13 303//13 296//14
f 298//15 305//53 306//53
f 305//53 298//15 297//15
f 299//13 300//13 307//54
f 308//54 307//54 300//13
f 302//15 309//53 310//53
f 309//53 302//15 301//15
f 303//13 304//13 311//54
f 312//54 311//54 304//13
f 306//53 313//21 314//21
f 313//21 306//53 305//53
f 307//54 308//54 315//22
f 316//22 315//22 308//54
f 310//53 317//21 318//21
f 317//21 310//53 309//53
f 311//54 312//54 319//22
f 320//22 319//22 312//54
f 314//21 321//23 322//23
f 321//23 314//21 313//21
f 315//22 316//22 323//24
f 324//24 323//24 316//22
f 318//21 325//23 326//23
f 325//23 318//21 317//21
f 319//22 320//22 327//24
f 328//24 327//24 320//22
f 322//23 329//25 330//25
f 329//25 322//23 321//23
f 323//24 324//24 331//26
f 332//26 331//26 324//24
f 326//23 333//25 334//25
f 333//25 326//23 325//23
f 327//24 328//24 335//26
f 336//26 335//26 328//24
f 330//25 337//27 338//27
f 337//27 330//25 329//25
f 331//26 332//26 339//28
f 340//28 339//28 332//26
f 334//25 341//27 342//27
f 341//27 334//25 333//25
f 335//26 336//26 343//28
f 344//28 343//28 336//26
f 337//27 345//29 338//27
f 345//29 337//27 346//29
f 347//30 339//28 348//30
f 340//28 348//30 339//28
f 341//27 349//29 342//27
f 349//29 341//27 350//29
f 351//30 343//28 352//30
f 344//28 352//30 343//28
f 346//29 353//31 345//29
f 353//31 346//29 354//31
f 355//32 347//30 356//32
f 348//30 356//32 347//30
f 350//29 357//31 349//29
f 357//31 350//29 358//31
f 359//32 351//30 360//32
f 352//30 360//32 351//30
f 354//31 361//9 353//31
f 361//9 354//31 362//9
f 363//10 355//32 364//10
f 356//32 364//10 355//32
f 358//31 365//9 357//31
f 365//9 358//31 366//9
f 367//10 359//32 368//10
f 360//32 368//10 359//32
f 362//9 369//2 361//9
f 369//2 362//9 370//2
f 371//3 363//10 372//3
f 364//10 372//3 363//10
f 366//9 373//2 365//9
f 373//2 366//9 374//2
f 375//3 367//10 376//3
f 368//10 376//3 367//10
f 370//2 377//1 369//2
f 377//1 370//2 378//1
f 379//4 371//3 380//4
f 372//3 380//4 371//3
f 374//2 381//1 373//2
f 381//1 374//2 382//1
f 383//4 375//3 384//4
f 376//3 384//4 375//3
f 378//1 385//5 377//1
f 385//5 378//1 386//5
f 387//6 379//4 388//6
f 380//4 388//6 379//4
f 382//1 389//5 381//1
f 389//5 382//1 390//5
f 391//6 383//4 392//6
f 384//4 392//6 383//4
f 386//5 393//55 385//5
f 393//55 386//5 394//55
f 395//56 387//6 396//56
f 388//6 396//56 387//6
f 390//5 397//55 389//5
f 397//55 390//5 398//55
f 399//56 391//6 400//56
f 392//6 400//56 391//6
f 394//55 401//34 393//55
f 401//34 394//55 402//34
f 403//33 395//56 404//33
f 396//56 404//33 395//56
f 398//55 405//34 397//55
f 405//34 398//55 406//34
f 407//33 399//56 408//33
f 400//56 408//33 399//56
f 402//34 409//36 401//34
f 409//36 402//34 410//36
f 411//35 403//33 412//35
f 404//33 412//35 403//33
f 406//34 413//36 405//34
f 413//36 406//34 414//36
f 415//35 407//33 416//35
f 408//33 416//35 407//33
f 410//36 417//38 409//36
f 417//38 410//36 418//38
f 419//37 411//35 420//37
f 412//35 420//37 411//35
f 414//36 421//38 413//36
f 421//38 414//36 422//38
f 423//37 415//35 424//37
f 416//35 424//37 415//35
f 418//38 425//40 417//38
f 425//40 418//38 426//40
f 427//39 419//37 428//39
f 420//37 428//39 419//37
f 422//38 429//40 421//38
f 429//40 422//38 430//40
f 431//39 423//37 432//39
f 424//37 432//39 423//37
f 426//40 433//42 425//40
f 433//42 426//40 434//42
f 435//41 427//39 436//41
f 428//39 436//41 427//39
f 430//40 437//42 429//40
f 437//42 430//40 438//42
f 439//41 431//39 440//41
f 432//39 440//41 431//39
f 441//44 433//42 434//42
f 433//42 441//44 442//44
f 443//43 444//43 436//41
f 435//41 436//41 444//43
f 445//44 437//42 438//42
f 437//42 445//44 446//44
f 447//43 448//43 440//41
f 439//41 440//41 448//43
f 449//46 442//44 441//44
f 442//44 449//46 450//46
f 451//45 452//45 443//43
f 444//43 443//43 452//45
f 453//46 446//44 445//44
f 446//44 453//46 454//46
f 455//45 456//45 447//43
f 448//43 447//43 456//45
f 457//48 450//46 449//46
f 450//46 457//48 458//48
f 459//47 460//47 451//45
f 452//45 451//45 460//47
f 461//48 454//46 453//46
f 454//46 461//48 462//48
f 463//47 464//47 455//45
f 456//45 455//45 464//47
f 465//50 458//48 457//48
f 458//48 465//50 466//50
f 467//49 468//49 459//47
f 460//47 459//47 468//49
f 469//50 462//48 461//48
f 462//48 469//50 470//50
f 471//49 472//49 463//47
f 464//47 463//47 472//49
f 473//52 466//50 465//50
f 466//50 473//52 474//52
f 475//51 476//51 467//49
f 468//49 467//49 476//51
f 477//52 470//50 469//50
f 470//50 477//52 478//52
f 479//51 480//51 471//49
f 472//49 471//49 480//51
f 131//14 474//52 473//52
f 474//52 131//14 130//14
f 135//16 136//16 475//51
f 476//51 475//51 136//16
f 139//14 478//52 477//52
f 478//52 139//14 138//14
f 143//16 144//16 479//51
f 480//51 479//51 144//16
