# SSTK version 0.8.0
# 76
mtllib original-76.mtl
o #ID447
v 0.147932 0.383756 0.640679
v 0.144676 0.379031 0.637421
v 0.147200 0.383024 0.642029
v 0.147200 0.383024 0.642029
v 0.144676 0.379031 0.637421
v 0.147932 0.383756 0.640679
v 0.146245 0.382069 0.643065
v 0.146245 0.382069 0.643065
v 0.151009 0.385757 0.646655
v 0.152477 0.387224 0.643951
v 0.152477 0.387224 0.643951
v 0.151009 0.385757 0.646655
v 0.148392 0.384216 0.639108
v 0.148392 0.384216 0.639108
v 0.145134 0.380958 0.643716
v 0.145134 0.380958 0.643716
v 0.149097 0.383844 0.648731
v 0.149097 0.383844 0.648731
v 0.153399 0.388147 0.640801
v 0.153399 0.388147 0.640801
v 0.148549 0.384373 0.637421
v 0.148549 0.384373 0.637421
v 0.143941 0.379765 0.643938
v 0.143941 0.379765 0.643938
v 0.146869 0.381617 0.650035
v 0.146869 0.381617 0.650035
v 0.153714 0.388462 0.637421
v 0.153714 0.388462 0.637421
v 0.148392 0.384216 0.635734
v 0.148392 0.384216 0.635734
v 0.142749 0.378572 0.643716
v 0.142749 0.378572 0.643716
v 0.144479 0.379227 0.650480
v 0.144479 0.379227 0.650480
v 0.153399 0.388147 0.634041
v 0.153399 0.388147 0.634041
v 0.147932 0.383756 0.634162
v 0.147932 0.383756 0.634162
v 0.141637 0.377461 0.643065
v 0.141637 0.377461 0.643065
v 0.142089 0.376837 0.650035
v 0.142089 0.376837 0.650035
v 0.152477 0.387224 0.630891
v 0.152477 0.387224 0.630891
v 0.147200 0.383024 0.632813
v 0.147200 0.383024 0.632813
v 0.140683 0.376507 0.642029
v 0.140683 0.376507 0.642029
v 0.139862 0.374610 0.648731
v 0.139862 0.374610 0.648731
v 0.151009 0.385757 0.628186
v 0.151009 0.385757 0.628186
v 0.146245 0.382069 0.631777
v 0.146245 0.382069 0.631777
v 0.139950 0.375774 0.640679
v 0.139950 0.375774 0.640679
v 0.137949 0.372697 0.646655
v 0.137949 0.372697 0.646655
v 0.149097 0.383844 0.626111
v 0.149097 0.383844 0.626111
v 0.145134 0.380958 0.631126
v 0.145134 0.380958 0.631126
v 0.139490 0.375314 0.639108
v 0.139490 0.375314 0.639108
v 0.136482 0.371230 0.643951
v 0.136482 0.371230 0.643951
v 0.146869 0.381617 0.624806
v 0.146869 0.381617 0.624806
v 0.143941 0.379765 0.630904
v 0.143941 0.379765 0.630904
v 0.139333 0.375157 0.637421
v 0.139333 0.375157 0.637421
v 0.135559 0.370307 0.640801
v 0.135559 0.370307 0.640801
v 0.144479 0.379227 0.624361
v 0.144479 0.379227 0.624361
v 0.142749 0.378572 0.631126
v 0.142749 0.378572 0.631126
v 0.139490 0.375314 0.635734
v 0.139490 0.375314 0.635734
v 0.135245 0.369993 0.637421
v 0.135245 0.369993 0.637421
v 0.142089 0.376837 0.624806
v 0.142089 0.376837 0.624806
v 0.141637 0.377461 0.631777
v 0.141637 0.377461 0.631777
v 0.139950 0.375774 0.634162
v 0.139950 0.375774 0.634162
v 0.135559 0.370307 0.634041
v 0.135559 0.370307 0.634041
v 0.139862 0.374610 0.626111
v 0.139862 0.374610 0.626111
v 0.140683 0.376507 0.632813
v 0.140683 0.376507 0.632813
v 0.136482 0.371230 0.630891
v 0.136482 0.371230 0.630891
v 0.137949 0.372697 0.628186
v 0.137949 0.372697 0.628186
vn -0.7130996676999496 0.701045395355396 -0.0049211357650748725
vn -0.7071067811865361 0.7071067811865589 0
vn -0.7119936678362397 0.7021513952085277 -0.006959537902482741
vn 0.7119936678362397 -0.7021513952085277 0.006959537902482741
vn 0.7071067811865361 -0.7071067811865589 0
vn 0.7130996676999496 -0.701045395355396 0.0049211357650748725
vn -0.7105522999048162 0.7035927631487069 -0.008523657943848614
vn 0.7105522999048162 -0.7035927631487069 0.008523657943848614
vn -0.6446143771799525 0.7601316859988642 0.08168307458357733
vn -0.6316334189259142 0.7731126453805774 0.05775864998946906
vn 0.6316334189259142 -0.7731126453805774 -0.05775864998946906
vn 0.6446143771799525 -0.7601316859988642 -0.08168307458357733
vn -0.7137949283180033 0.7003501347387234 -0.002547367061911254
vn 0.7137949283180033 -0.7003501347387234 0.002547367061911254
vn -0.708873792002524 0.7052712710510468 -0.009506904964457719
vn 0.708873792002524 -0.7052712710510468 0.009506904964457719
vn -0.6615315000427331 0.7432145640143863 0.10004092306709826
vn 0.6615315000427331 -0.7432145640143863 -0.10004092306709826
vn -0.6234732469893666 0.7812728175338797 0.02989807470740213
vn 0.6234732469893666 -0.7812728175338797 -0.02989807470740213
vn -0.7140320682889235 0.7001129947765874 0
vn 0.7140320682889235 -0.7001129947765874 0
vn -0.707072531530977 0.7070725315308897 -0.009842271530221235
vn 0.707072531530977 -0.7070725315308897 0.009842271530221235
vn -0.6812319012446378 0.7235141628466826 0.11158114933482212
vn 0.6812319012446378 -0.7235141628466826 -0.11158114933482212
vn -0.6206899686398661 0.7840560967366059 0
vn 0.6206899686398661 -0.7840560967366059 0
vn -0.7137949283180033 0.7003501347387235 0.002547367061963362
vn 0.7137949283180033 -0.7003501347387235 -0.002547367061963362
vn -0.7052712710510473 0.7088737920025235 -0.009506904964457753
vn 0.7052712710510473 -0.7088737920025235 0.009506904964457753
vn -0.7023730324387957 0.7023730324389306 0.11551730002588849
vn 0.7023730324387957 -0.7023730324389306 -0.11551730002588849
vn -0.6234732469893681 0.7812728175338803 -0.029898074707352
vn 0.6234732469893681 -0.7812728175338803 0.029898074707352
vn -0.7130996676999495 0.7010453953553958 0.004921135765126968
vn 0.7130996676999495 -0.7010453953553958 -0.004921135765126968
vn -0.7035927631487073 0.7105522999048159 -0.008523657943848682
vn 0.7035927631487073 -0.7105522999048159 0.008523657943848682
vn -0.7235141628466817 0.6812319012446387 0.11158114933482252
vn 0.7235141628466817 -0.6812319012446387 -0.11158114933482252
vn -0.6316334189259167 0.773112645380579 -0.057758649989418764
vn 0.6316334189259167 -0.773112645380579 0.057758649989418764
vn -0.7119936678362393 0.7021513952085275 0.006959537902534815
vn 0.7119936678362393 -0.7021513952085275 -0.006959537902534815
vn -0.702151395208528 0.7119936678362393 -0.006959537902482835
vn 0.702151395208528 -0.7119936678362393 0.006959537902482835
vn -0.7432145640143856 0.6615315000427336 0.10004092306709902
vn 0.7432145640143856 -0.6615315000427336 -0.10004092306709902
vn -0.6446143771799561 0.7601316859988663 -0.08168307458352678
vn 0.6446143771799561 -0.7601316859988663 0.08168307458352678
vn -0.7105522999048158 0.7035927631487067 0.008523657943900661
vn 0.7105522999048158 -0.7035927631487067 -0.008523657943900661
vn -0.7010453953553962 0.7130996676999494 -0.004921135765074988
vn 0.7010453953553962 -0.7130996676999494 0.004921135765074988
vn -0.7601316859988635 0.6446143771799528 0.0816830745835784
vn 0.7601316859988635 -0.6446143771799528 -0.0816830745835784
vn -0.6615315000427376 0.7432145640143891 -0.1000409230670474
vn 0.6615315000427376 -0.7432145640143891 0.1000409230670474
vn -0.7088737920025234 0.7052712710510466 0.009506904964509733
vn 0.7088737920025234 -0.7052712710510466 -0.009506904964509733
vn -0.7003501347387239 0.7137949283180032 -0.0025473670619113827
vn 0.7003501347387239 -0.7137949283180032 0.0025473670619113827
vn -0.7731126453805771 0.6316334189259144 0.05775864998947041
vn 0.7731126453805771 -0.6316334189259144 -0.05775864998947041
vn -0.6812319012446431 0.7235141628466856 -0.1115811493347709
vn 0.6812319012446431 -0.7235141628466856 0.1115811493347709
vn -0.7070725315308505 0.7070725315310156 0.009842271530273216
vn 0.7070725315308505 -0.7070725315310156 -0.009842271530273216
vn -0.7001129947765876 0.7140320682889233 0
vn 0.7001129947765876 -0.7140320682889233 0
vn -0.7812728175338796 0.6234732469893667 0.029898074707403632
vn 0.7812728175338796 -0.6234732469893667 -0.029898074707403632
vn -0.7023730324389502 0.7023730324387848 -0.11551730002583688
vn 0.7023730324389502 -0.7023730324387848 0.11551730002583688
vn -0.7052712710510467 0.7088737920025233 0.009506904964509698
vn 0.7052712710510467 -0.7088737920025233 -0.009506904964509698
vn -0.7003501347387238 0.7137949283180032 0.0025473670619632345
vn 0.7003501347387238 -0.7137949283180032 -0.0025473670619632345
vn -0.7840560967366061 0.6206899686398658 0
vn 0.7840560967366061 -0.6206899686398658 0
vn -0.723514162846687 0.6812319012446416 -0.1115811493347705
vn 0.723514162846687 -0.6812319012446416 0.1115811493347705
vn -0.7035927631487069 0.7105522999048157 0.008523657943900597
vn 0.7035927631487069 -0.7105522999048157 -0.008523657943900597
vn -0.7010453953553961 0.7130996676999491 0.004921135765126853
vn 0.7010453953553961 -0.7130996676999491 -0.004921135765126853
vn -0.781272817533881 0.6234732469893675 -0.029898074707350494
vn 0.781272817533881 -0.6234732469893675 0.029898074707350494
vn -0.7432145640143902 0.6615315000427364 -0.10004092306704661
vn 0.7432145640143902 -0.6615315000427364 0.10004092306704661
vn -0.7021513952085277 0.7119936678362392 0.0069595379025347215
vn 0.7021513952085277 -0.7119936678362392 -0.0069595379025347215
vn -0.7731126453805799 0.6316334189259161 -0.05775864998941742
vn 0.7731126453805799 -0.6316334189259161 0.05775864998941742
vn -0.7601316859988675 0.6446143771799553 -0.0816830745835257
vn 0.7601316859988675 -0.6446143771799553 0.0816830745835257
usemtl material_0_0
f 1//1 2//2 3//3
f 4//4 5//5 6//6
f 3//3 2//2 7//7
f 8//8 5//5 4//4
f 9//9 1//1 3//3
f 1//1 9//9 10//10
f 11//11 12//12 6//6
f 4//4 6//6 12//12
f 13//13 2//2 1//1
f 6//6 5//5 14//14
f 7//7 2//2 15//15
f 16//16 5//5 8//8
f 17//17 3//3 7//7
f 3//3 17//17 9//9
f 12//12 18//18 4//4
f 8//8 4//4 18//18
f 10//10 13//13 1//1
f 13//13 10//10 19//19
f 20//20 11//11 14//14
f 6//6 14//14 11//11
f 21//21 2//2 13//13
f 14//14 5//5 22//22
f 15//15 2//2 23//23
f 24//24 5//5 16//16
f 25//25 7//7 15//15
f 7//7 25//25 17//17
f 18//18 26//26 8//8
f 16//16 8//8 26//26
f 19//19 21//21 13//13
f 21//21 19//19 27//27
f 28//28 20//20 22//22
f 14//14 22//22 20//20
f 21//21 29//29 2//2
f 5//5 30//30 22//22
f 2//2 31//31 23//23
f 24//24 32//32 5//5
f 33//33 15//15 23//23
f 15//15 33//33 25//25
f 26//26 34//34 16//16
f 24//24 16//16 34//34
f 21//21 35//35 29//29
f 35//35 21//21 27//27
f 28//28 22//22 36//36
f 30//30 36//36 22//22
f 29//29 37//37 2//2
f 5//5 38//38 30//30
f 2//2 39//39 31//31
f 32//32 40//40 5//5
f 33//33 31//31 41//41
f 31//31 33//33 23//23
f 24//24 34//34 32//32
f 42//42 32//32 34//34
f 29//29 43//43 37//37
f 43//43 29//29 35//35
f 36//36 30//30 44//44
f 38//38 44//44 30//30
f 37//37 45//45 2//2
f 5//5 46//46 38//38
f 2//2 47//47 39//39
f 40//40 48//48 5//5
f 41//41 39//39 49//49
f 39//39 41//41 31//31
f 32//32 42//42 40//40
f 50//50 40//40 42//42
f 37//37 51//51 45//45
f 51//51 37//37 43//43
f 44//44 38//38 52//52
f 46//46 52//52 38//38
f 45//45 53//53 2//2
f 5//5 54//54 46//46
f 2//2 55//55 47//47
f 48//48 56//56 5//5
f 49//49 47//47 57//57
f 47//47 49//49 39//39
f 40//40 50//50 48//48
f 58//58 48//48 50//50
f 45//45 59//59 53//53
f 59//59 45//45 51//51
f 52//52 46//46 60//60
f 54//54 60//60 46//46
f 53//53 61//61 2//2
f 5//5 62//62 54//54
f 2//2 63//63 55//55
f 56//56 64//64 5//5
f 57//57 55//55 65//65
f 55//55 57//57 47//47
f 48//48 58//58 56//56
f 66//66 56//56 58//58
f 53//53 67//67 61//61
f 67//67 53//53 59//59
f 60//60 54//54 68//68
f 62//62 68//68 54//54
f 61//61 69//69 2//2
f 5//5 70//70 62//62
f 2//2 71//71 63//63
f 64//64 72//72 5//5
f 65//65 63//63 73//73
f 63//63 65//65 55//55
f 56//56 66//66 64//64
f 74//74 64//64 66//66
f 69//69 67//67 75//75
f 67//67 69//69 61//61
f 62//62 70//70 68//68
f 76//76 68//68 70//70
f 2//2 69//69 77//77
f 78//78 70//70 5//5
f 2//2 79//79 71//71
f 72//72 80//80 5//5
f 73//73 71//71 81//81
f 71//71 73//73 63//63
f 64//64 74//74 72//72
f 82//82 72//72 74//74
f 77//77 75//75 83//83
f 75//75 77//77 69//69
f 70//70 78//78 76//76
f 84//84 76//76 78//78
f 2//2 77//77 85//85
f 86//86 78//78 5//5
f 2//2 87//87 79//79
f 80//80 88//88 5//5
f 71//71 89//89 81//81
f 89//89 71//71 79//79
f 80//80 72//72 90//90
f 82//82 90//90 72//72
f 85//85 83//83 91//91
f 83//83 85//85 77//77
f 78//78 86//86 84//84
f 92//92 84//84 86//86
f 2//2 85//85 93//93
f 94//94 86//86 5//5
f 2//2 93//93 87//87
f 88//88 94//94 5//5
f 79//79 95//95 89//89
f 95//95 79//79 87//87
f 88//88 80//80 96//96
f 90//90 96//96 80//80
f 93//93 91//91 97//97
f 91//91 93//93 85//85
f 86//86 94//94 92//92
f 98//98 92//92 94//94
f 87//87 97//97 95//95
f 97//97 87//87 93//93
f 94//94 88//88 98//98
f 96//96 98//98 88//88
