# SSTK version 0.8.0
# 5
mtllib original-5.mtl
o #ID77
v -0.289839 -0.056657 0.417932
v -0.303680 -0.056567 0.403122
v -0.296513 -0.057902 0.410289
v -0.284112 -0.052917 0.425530
v -0.310852 -0.052745 0.396919
v -0.279722 -0.046938 0.432565
v -0.317538 -0.046694 0.392103
v -0.276970 -0.039126 0.438558
v -0.323285 -0.038827 0.389003
v -0.300167 -0.038771 0.413818
v -0.296866 -0.038155 0.417598
v -0.276042 -0.030015 0.443101
v -0.294033 -0.036306 0.421356
v -0.291863 -0.033348 0.424835
v -0.290501 -0.029485 0.427799
v -0.277001 -0.020224 0.445883
v -0.290042 -0.024979 0.430046
v -0.290517 -0.020137 0.431422
v -0.279783 -0.010422 0.446716
v -0.291893 -0.015289 0.431834
v -0.294076 -0.010766 0.431253
v -0.296918 -0.006876 0.429720
v -0.284198 -0.001276 0.445542
v -0.300225 -0.003883 0.427338
v -0.303771 -0.001993 0.424271
v -0.307316 -0.001333 0.420726
v -0.303711 -0.038111 0.410274
v -0.327699 -0.029681 0.387829
v -0.307258 -0.036220 0.407206
v -0.310565 -0.033228 0.404825
v -0.313407 -0.029337 0.403291
v -0.330481 -0.019879 0.388661
v -0.315590 -0.024814 0.402711
v -0.316966 -0.019966 0.403123
v -0.317440 -0.015124 0.404499
v -0.331441 -0.010089 0.391444
v -0.316981 -0.010618 0.406745
v -0.315620 -0.006755 0.409709
v -0.330513 -0.000977 0.395986
v -0.313449 -0.003798 0.413189
v -0.310617 -0.001949 0.416946
v -0.289944 0.006590 0.442442
v -0.327760 0.006834 0.401980
v -0.296631 0.012641 0.437626
v -0.323371 0.012814 0.409015
v -0.303802 0.016464 0.431423
v -0.317644 0.016553 0.416613
v -0.310969 0.017798 0.424256
v -0.310969 0.017798 0.424256
v -0.303802 0.016464 0.431423
v -0.317644 0.016553 0.416613
v -0.323371 0.012814 0.409015
v -0.296631 0.012641 0.437626
v -0.327760 0.006834 0.401980
v -0.289944 0.006590 0.442442
v -0.330513 -0.000977 0.395986
v -0.284198 -0.001276 0.445542
v -0.307316 -0.001333 0.420726
v -0.310617 -0.001949 0.416946
v -0.313449 -0.003798 0.413189
v -0.315620 -0.006755 0.409709
v -0.331441 -0.010089 0.391444
v -0.316981 -0.010618 0.406745
v -0.317440 -0.015124 0.404499
v -0.330481 -0.019879 0.388661
v -0.316966 -0.019966 0.403123
v -0.315590 -0.024814 0.402711
v -0.313407 -0.029337 0.403291
v -0.327699 -0.029681 0.387829
v -0.310565 -0.033228 0.404825
v -0.307258 -0.036220 0.407206
v -0.303711 -0.038111 0.410274
v -0.300167 -0.038771 0.413818
v -0.323285 -0.038827 0.389003
v -0.303771 -0.001993 0.424271
v -0.300225 -0.003883 0.427338
v -0.296918 -0.006876 0.429720
v -0.279783 -0.010422 0.446716
v -0.294076 -0.010766 0.431253
v -0.291893 -0.015289 0.431834
v -0.290517 -0.020137 0.431422
v -0.277001 -0.020224 0.445883
v -0.290042 -0.024979 0.430046
v -0.290501 -0.029485 0.427799
v -0.276042 -0.030015 0.443101
v -0.291863 -0.033348 0.424835
v -0.294033 -0.036306 0.421356
v -0.296866 -0.038155 0.417598
v -0.276970 -0.039126 0.438558
v -0.317538 -0.046694 0.392103
v -0.279722 -0.046938 0.432565
v -0.310852 -0.052745 0.396919
v -0.284112 -0.052917 0.425530
v -0.303680 -0.056567 0.403122
v -0.289839 -0.056657 0.417932
v -0.296513 -0.057902 0.410289
v -0.289944 0.006590 0.442442
v -0.286497 0.016320 0.428177
v -0.296631 0.012641 0.437626
v -0.279810 0.010269 0.432993
v -0.279810 0.010269 0.432993
v -0.289944 0.006590 0.442442
v -0.286497 0.016320 0.428177
v -0.296631 0.012641 0.437626
v -0.293668 0.020143 0.421974
v -0.303802 0.016464 0.431423
v -0.293668 0.020143 0.421974
v -0.303802 0.016464 0.431423
v -0.300835 0.021477 0.414807
v -0.310969 0.017798 0.424256
v -0.296167 0.020608 0.419475
v -0.296167 0.020608 0.419475
v -0.300835 0.021477 0.414807
v -0.310969 0.017798 0.424256
v -0.307510 0.020232 0.407164
v -0.317644 0.016553 0.416613
v -0.307510 0.020232 0.407164
v -0.317644 0.016553 0.416613
v -0.313237 0.016492 0.399566
v -0.323371 0.012814 0.409015
v -0.313237 0.016492 0.399566
v -0.323371 0.012814 0.409015
v -0.327760 0.006834 0.401980
v -0.317626 0.010513 0.392531
v -0.317626 0.010513 0.392531
v -0.327760 0.006834 0.401980
v -0.330513 -0.000977 0.395986
v -0.320379 0.002701 0.386537
v -0.320379 0.002701 0.386537
v -0.330513 -0.000977 0.395986
v -0.331441 -0.010089 0.391444
v -0.321307 -0.006410 0.381995
v -0.321307 -0.006410 0.381995
v -0.331441 -0.010089 0.391444
v -0.330481 -0.019879 0.388661
v -0.320347 -0.016200 0.379212
v -0.320347 -0.016200 0.379212
v -0.330481 -0.019879 0.388661
v -0.327699 -0.029681 0.387829
v -0.317566 -0.026003 0.378380
v -0.317566 -0.026003 0.378380
v -0.327699 -0.029681 0.387829
v -0.323285 -0.038827 0.389003
v -0.313151 -0.035149 0.379554
v -0.313151 -0.035149 0.379554
v -0.323285 -0.038827 0.389003
v -0.317538 -0.046694 0.392103
v -0.307405 -0.043015 0.382654
v -0.307405 -0.043015 0.382654
v -0.317538 -0.046694 0.392103
v -0.310852 -0.052745 0.396919
v -0.300718 -0.049066 0.387470
v -0.300718 -0.049066 0.387470
v -0.310852 -0.052745 0.396919
v -0.303680 -0.056567 0.403122
v -0.293547 -0.052889 0.393673
v -0.293547 -0.052889 0.393673
v -0.303680 -0.056567 0.403122
v -0.296513 -0.057902 0.410289
v -0.286380 -0.054223 0.400840
v -0.286380 -0.054223 0.400840
v -0.296513 -0.057902 0.410289
v -0.289839 -0.056657 0.417932
v -0.279705 -0.052978 0.408483
v -0.279705 -0.052978 0.408483
v -0.289839 -0.056657 0.417932
v -0.284112 -0.052917 0.425530
v -0.276841 -0.051108 0.412282
v -0.273978 -0.049239 0.416081
v -0.273978 -0.049239 0.416081
v -0.276841 -0.051108 0.412282
v -0.284112 -0.052917 0.425530
v -0.269589 -0.043259 0.423116
v -0.279722 -0.046938 0.432565
v -0.269589 -0.043259 0.423116
v -0.279722 -0.046938 0.432565
v -0.266836 -0.035448 0.429109
v -0.276970 -0.039126 0.438558
v -0.266836 -0.035448 0.429109
v -0.276970 -0.039126 0.438558
v -0.265908 -0.026336 0.433652
v -0.276042 -0.030015 0.443101
v -0.265908 -0.026336 0.433652
v -0.276042 -0.030015 0.443101
v -0.266867 -0.016546 0.436434
v -0.277001 -0.020224 0.445883
v -0.266867 -0.016546 0.436434
v -0.277001 -0.020224 0.445883
v -0.269649 -0.006744 0.437267
v -0.279783 -0.010422 0.446716
v -0.269649 -0.006744 0.437267
v -0.279783 -0.010422 0.446716
v -0.274064 0.002402 0.436093
v -0.284198 -0.001276 0.445542
v -0.274064 0.002402 0.436093
v -0.284198 -0.001276 0.445542
v -0.280823 -0.037779 0.413202
v -0.273978 -0.049239 0.416081
v -0.276841 -0.051108 0.412282
v -0.269589 -0.043259 0.423116
v -0.266836 -0.035448 0.429109
v -0.277964 -0.033884 0.417784
v -0.265908 -0.026336 0.433652
v -0.276171 -0.028797 0.421687
v -0.275567 -0.022862 0.424646
v -0.266867 -0.016546 0.436434
v -0.276192 -0.016486 0.426458
v -0.269649 -0.006744 0.437267
v -0.278003 -0.010101 0.427000
v -0.280879 -0.004145 0.426236
v -0.274064 0.002402 0.436093
v -0.284621 0.000979 0.424216
v -0.288976 0.004920 0.421080
v -0.279810 0.010269 0.432993
v -0.293647 0.007410 0.417040
v -0.296167 0.020608 0.419475
v -0.286497 0.016320 0.428177
v -0.293668 0.020143 0.421974
v -0.293668 0.020143 0.421974
v -0.296167 0.020608 0.419475
v -0.286497 0.016320 0.428177
v -0.279810 0.010269 0.432993
v -0.293647 0.007410 0.417040
v -0.288976 0.004920 0.421080
v -0.274064 0.002402 0.436093
v -0.284621 0.000979 0.424216
v -0.280879 -0.004145 0.426236
v -0.269649 -0.006744 0.437267
v -0.278003 -0.010101 0.427000
v -0.276192 -0.016486 0.426458
v -0.266867 -0.016546 0.436434
v -0.275567 -0.022862 0.424646
v -0.265908 -0.026336 0.433652
v -0.276171 -0.028797 0.421687
v -0.277964 -0.033884 0.417784
v -0.266836 -0.035448 0.429109
v -0.280823 -0.037779 0.413202
v -0.269589 -0.043259 0.423116
v -0.273978 -0.049239 0.416081
v -0.276841 -0.051108 0.412282
v -0.307405 -0.043015 0.382654
v -0.293568 -0.040156 0.398607
v -0.288900 -0.041025 0.403275
v -0.313151 -0.035149 0.379554
v -0.298239 -0.037666 0.394567
v -0.302594 -0.033725 0.391431
v -0.317566 -0.026003 0.378380
v -0.306336 -0.028602 0.389411
v -0.309211 -0.022645 0.388647
v -0.320347 -0.016200 0.379212
v -0.311023 -0.016261 0.389189
v -0.311648 -0.009884 0.391001
v -0.321307 -0.006410 0.381995
v -0.311044 -0.003950 0.393960
v -0.320379 0.002701 0.386537
v -0.309251 0.001138 0.397863
v -0.306392 0.005032 0.402445
v -0.317626 0.010513 0.392531
v -0.302662 0.007468 0.407394
v -0.298315 0.008279 0.412372
v -0.296167 0.020608 0.419475
v -0.293647 0.007410 0.417040
v -0.313237 0.016492 0.399566
v -0.307510 0.020232 0.407164
v -0.300835 0.021477 0.414807
v -0.293547 -0.052889 0.393673
v -0.279705 -0.052978 0.408483
v -0.286380 -0.054223 0.400840
v -0.276841 -0.051108 0.412282
v -0.300718 -0.049066 0.387470
v -0.284553 -0.040214 0.408253
v -0.280823 -0.037779 0.413202
v -0.307405 -0.043015 0.382654
v -0.300718 -0.049066 0.387470
v -0.288900 -0.041025 0.403275
v -0.284553 -0.040214 0.408253
v -0.280823 -0.037779 0.413202
v -0.276841 -0.051108 0.412282
v -0.293547 -0.052889 0.393673
v -0.279705 -0.052978 0.408483
v -0.286380 -0.054223 0.400840
v -0.300835 0.021477 0.414807
v -0.307510 0.020232 0.407164
v -0.296167 0.020608 0.419475
v -0.313237 0.016492 0.399566
v -0.317626 0.010513 0.392531
v -0.298315 0.008279 0.412372
v -0.293647 0.007410 0.417040
v -0.302662 0.007468 0.407394
v -0.306392 0.005032 0.402445
v -0.320379 0.002701 0.386537
v -0.309251 0.001138 0.397863
v -0.311044 -0.003950 0.393960
v -0.321307 -0.006410 0.381995
v -0.311648 -0.009884 0.391001
v -0.320347 -0.016200 0.379212
v -0.311023 -0.016261 0.389189
v -0.309211 -0.022645 0.388647
v -0.317566 -0.026003 0.378380
v -0.306336 -0.028602 0.389411
v -0.302594 -0.033725 0.391431
v -0.313151 -0.035149 0.379554
v -0.298239 -0.037666 0.394567
v -0.293568 -0.040156 0.398607
vn -0.7069006513812058 -0.2566048440677407 0.6591247401499942
vn 0.7069006513812058 0.2566048440677407 -0.6591247401499942
vn 0.3501260272814163 0.6827444897480438 0.6413047066245624
vn 0.17768815363188134 0.8375619263681447 0.5166400483483403
vn 0.1793685602107561 0.8363750939590234 0.517980329561804
vn 0.34896991254675913 0.6840295624783194 0.6405650301045369
vn -0.34896991254675913 -0.6840295624783194 -0.6405650301045369
vn -0.3501260272814163 -0.6827444897480438 -0.6413047066245624
vn -0.17768815363188134 -0.8375619263681447 -0.5166400483483403
vn -0.1793685602107561 -0.8363750939590234 -0.517980329561804
vn -0.004579119166918887 0.9335123722893293 0.35851594448560276
vn -0.0025378184410049433 0.9327857365330433 0.3604224315966865
vn 0.004579119166918887 -0.9335123722893293 -0.35851594448560276
vn 0.0025378184410049433 -0.9327857365330433 -0.3604224315966865
vn -0.18556871509385214 0.9665117895734047 0.17725465464701148
vn -0.18348840136865077 0.9664982044181641 0.17948043742882241
vn -0.09386165507133587 0.9576622032778961 0.2721637266797236
vn 0.09386165507133587 -0.9576622032778961 -0.2721637266797236
vn 0.18556871509385214 -0.9665117895734047 -0.17725465464701148
vn 0.18348840136865077 -0.9664982044181641 -0.17948043742882241
vn -0.3540950315693076 0.9350772340515158 -0.01572497937988131
vn -0.35233304512036623 0.9357763994102849 -0.01356302410722145
vn 0.3540950315693076 -0.9350772340515158 0.01572497937988131
vn 0.35233304512036623 -0.9357763994102849 0.01356302410722145
vn -0.499618659069513 0.8407765100692987 -0.2085091259999716
vn -0.49839676129753396 0.8419360267614217 -0.20674717693192252
vn 0.499618659069513 -0.8407765100692987 0.2085091259999716
vn 0.49839676129753396 -0.8419360267614217 0.20674717693192252
vn -0.6114109712165975 0.6902108886850321 -0.387021386252227
vn -0.6120711944701386 0.688951596086174 -0.3882197201974821
vn 0.6120711944701386 -0.688951596086174 0.3882197201974821
vn 0.6114109712165975 -0.6902108886850321 0.387021386252227
vn -0.6828723095206155 0.49044267496510763 -0.5414345680348186
vn -0.6830996616071358 0.48941265071180523 -0.5420794311126931
vn 0.6830996616071358 -0.48941265071180523 0.5420794311126931
vn 0.6828723095206155 -0.49044267496510763 0.5414345680348186
vn -0.7073128394459974 0.2563794887441867 -0.6587701457307473
vn -0.7073126805068592 0.2558106939542597 -0.6589913966455417
vn 0.7073126805068592 -0.2558106939542597 0.6589913966455417
vn 0.7073128394459974 -0.2563794887441867 0.6587701457307473
vn -0.6828015561139198 0.004373984199861833 -0.7305907905459998
vn -0.6828034765063837 0.0043840739668517805 -0.7305889352886817
vn 0.6828034765063837 -0.0043840739668517805 0.7305889352886817
vn 0.6828015561139198 -0.004373984199861833 0.7305907905459998
vn -0.6109967155930057 -0.2479312226173167 -0.7518065724546723
vn -0.611221540878362 -0.24734146248761696 -0.7518180823183009
vn 0.611221540878362 0.24734146248761696 0.7518180823183009
vn 0.6109967155930057 0.2479312226173167 0.7518065724546723
vn -0.49698750774914796 -0.48287131871356775 -0.72099840964118
vn -0.49761998920583256 -0.48181809129805137 -0.7212667143579342
vn 0.49761998920583256 0.48181809129805137 0.7212667143579342
vn 0.49698750774914796 0.48287131871356775 0.72099840964118
vn 0.4318152491714654 -0.8946228924695324 0.11482800552318546
vn -0.4318152491714654 0.8946228924695324 -0.11482800552318546
usemtl material_0_0
f 1//1 2//1 3//1
f 2//1 1//1 4//1
f 2//1 4//1 5//1
f 5//1 4//1 6//1
f 5//1 6//1 7//1
f 7//1 6//1 8//1
f 7//1 8//1 9//1
f 9//1 8//1 10//1
f 10//1 8//1 11//1
f 11//1 8//1 12//1
f 11//1 12//1 13//1
f 13//1 12//1 14//1
f 14//1 12//1 15//1
f 15//1 12//1 16//1
f 15//1 16//1 17//1
f 17//1 16//1 18//1
f 18//1 16//1 19//1
f 18//1 19//1 20//1
f 20//1 19//1 21//1
f 21//1 19//1 22//1
f 22//1 19//1 23//1
f 22//1 23//1 24//1
f 24//1 23//1 25//1
f 25//1 23//1 26//1
f 9//1 27//1 28//1
f 27//1 9//1 10//1
f 28//1 27//1 29//1
f 28//1 29//1 30//1
f 28//1 30//1 31//1
f 28//1 31//1 32//1
f 32//1 31//1 33//1
f 32//1 33//1 34//1
f 32//1 34//1 35//1
f 32//1 35//1 36//1
f 36//1 35//1 37//1
f 36//1 37//1 38//1
f 36//1 38//1 39//1
f 39//1 38//1 40//1
f 39//1 40//1 41//1
f 39//1 41//1 26//1
f 39//1 26//1 23//1
f 39//1 23//1 42//1
f 39//1 42//1 43//1
f 43//1 42//1 44//1
f 43//1 44//1 45//1
f 45//1 44//1 46//1
f 45//1 46//1 47//1
f 47//1 46//1 48//1
f 49//2 50//2 51//2
f 51//2 50//2 52//2
f 50//2 53//2 52//2
f 52//2 53//2 54//2
f 53//2 55//2 54//2
f 54//2 55//2 56//2
f 55//2 57//2 56//2
f 57//2 58//2 56//2
f 58//2 59//2 56//2
f 59//2 60//2 56//2
f 60//2 61//2 56//2
f 56//2 61//2 62//2
f 61//2 63//2 62//2
f 63//2 64//2 62//2
f 62//2 64//2 65//2
f 64//2 66//2 65//2
f 66//2 67//2 65//2
f 67//2 68//2 65//2
f 65//2 68//2 69//2
f 68//2 70//2 69//2
f 70//2 71//2 69//2
f 71//2 72//2 69//2
f 73//2 74//2 72//2
f 69//2 72//2 74//2
f 58//2 57//2 75//2
f 75//2 57//2 76//2
f 76//2 57//2 77//2
f 57//2 78//2 77//2
f 77//2 78//2 79//2
f 79//2 78//2 80//2
f 80//2 78//2 81//2
f 78//2 82//2 81//2
f 81//2 82//2 83//2
f 83//2 82//2 84//2
f 82//2 85//2 84//2
f 84//2 85//2 86//2
f 86//2 85//2 87//2
f 87//2 85//2 88//2
f 85//2 89//2 88//2
f 88//2 89//2 73//2
f 73//2 89//2 74//2
f 74//2 89//2 90//2
f 89//2 91//2 90//2
f 90//2 91//2 92//2
f 91//2 93//2 92//2
f 92//2 93//2 94//2
f 93//2 95//2 94//2
f 96//2 94//2 95//2
f 97//3 98//4 99//5
f 98//4 97//3 100//6
f 101//7 102//8 103//9
f 104//10 103//9 102//8
f 99//5 105//11 106//12
f 105//11 99//5 98//4
f 103//9 104//10 107//13
f 108//14 107//13 104//10
f 106//12 109//15 110//16
f 109//15 106//12 111//17
f 111//17 106//12 105//11
f 107//13 108//14 112//18
f 112//18 108//14 113//19
f 114//20 113//19 108//14
f 110//16 115//21 116//22
f 115//21 110//16 109//15
f 113//19 114//20 117//23
f 118//24 117//23 114//20
f 116//22 119//25 120//26
f 119//25 116//22 115//21
f 117//23 118//24 121//27
f 122//28 121//27 118//24
f 119//25 123//29 120//26
f 123//29 119//25 124//30
f 125//31 121//27 126//32
f 122//28 126//32 121//27
f 124//30 127//33 123//29
f 127//33 124//30 128//34
f 129//35 125//31 130//36
f 126//32 130//36 125//31
f 128//34 131//37 127//33
f 131//37 128//34 132//38
f 133//39 129//35 134//40
f 130//36 134//40 129//35
f 132//38 135//41 131//37
f 135//41 132//38 136//42
f 137//43 133//39 138//44
f 134//40 138//44 133//39
f 136//42 139//45 135//41
f 139//45 136//42 140//46
f 141//47 137//43 142//48
f 138//44 142//48 137//43
f 140//46 143//49 139//45
f 143//49 140//46 144//50
f 145//51 141//47 146//52
f 142//48 146//52 141//47
f 144//50 147//7 143//49
f 147//7 144//50 148//8
f 149//3 145//51 150//6
f 146//52 150//6 145//51
f 148//8 151//9 147//7
f 151//9 148//8 152//10
f 153//5 149//3 154//4
f 150//6 154//4 149//3
f 152//10 155//13 151//9
f 155//13 152//10 156//14
f 157//12 153//5 158//11
f 154//4 158//11 153//5
f 156//14 159//19 155//13
f 159//19 156//14 160//20
f 161//16 157//12 162//15
f 158//11 162//15 157//12
f 160//20 163//23 159//19
f 163//23 160//20 164//24
f 165//22 161//16 166//21
f 162//15 166//21 161//16
f 164//24 167//27 163//23
f 167//27 164//24 168//53
f 167//27 168//53 169//28
f 170//26 171//54 172//25
f 171//54 165//22 172//25
f 166//21 172//25 165//22
f 167//27 173//32 174//31
f 173//32 167//27 169//28
f 170//26 172//25 175//29
f 176//30 175//29 172//25
f 174//31 177//36 178//35
f 177//36 174//31 173//32
f 175//29 176//30 179//33
f 180//34 179//33 176//30
f 178//35 181//40 182//39
f 181//40 178//35 177//36
f 179//33 180//34 183//37
f 184//38 183//37 180//34
f 182//39 185//44 186//43
f 185//44 182//39 181//40
f 183//37 184//38 187//41
f 188//42 187//41 184//38
f 186//43 189//48 190//47
f 189//48 186//43 185//44
f 187//41 188//42 191//45
f 192//46 191//45 188//42
f 190//47 193//52 194//51
f 193//52 190//47 189//48
f 191//45 192//46 195//49
f 196//50 195//49 192//46
f 194//51 100//6 97//3
f 100//6 194//51 193//52
f 195//49 196//50 101//7
f 102//8 101//7 196//50
f 197//2 198//2 199//2
f 198//2 197//2 200//2
f 200//2 197//2 201//2
f 201//2 197//2 202//2
f 201//2 202//2 203//2
f 203//2 202//2 204//2
f 203//2 204//2 205//2
f 203//2 205//2 206//2
f 206//2 205//2 207//2
f 206//2 207//2 208//2
f 208//2 207//2 209//2
f 208//2 209//2 210//2
f 208//2 210//2 211//2
f 211//2 210//2 212//2
f 211//2 212//2 213//2
f 211//2 213//2 214//2
f 214//2 213//2 215//2
f 214//2 215//2 216//2
f 214//2 216//2 217//2
f 217//2 216//2 218//2
f 219//1 220//1 221//1
f 221//1 220//1 222//1
f 220//1 223//1 222//1
f 223//1 224//1 222//1
f 222//1 224//1 225//1
f 224//1 226//1 225//1
f 226//1 227//1 225//1
f 225//1 227//1 228//1
f 227//1 229//1 228//1
f 229//1 230//1 228//1
f 228//1 230//1 231//1
f 230//1 232//1 231//1
f 231//1 232//1 233//1
f 232//1 234//1 233//1
f 234//1 235//1 233//1
f 233//1 235//1 236//1
f 235//1 237//1 236//1
f 236//1 237//1 238//1
f 238//1 237//1 239//1
f 240//1 239//1 237//1
f 241//2 242//2 243//2
f 242//2 241//2 244//2
f 242//2 244//2 245//2
f 245//2 244//2 246//2
f 246//2 244//2 247//2
f 246//2 247//2 248//2
f 248//2 247//2 249//2
f 249//2 247//2 250//2
f 249//2 250//2 251//2
f 251//2 250//2 252//2
f 252//2 250//2 253//2
f 252//2 253//2 254//2
f 254//2 253//2 255//2
f 254//2 255//2 256//2
f 256//2 255//2 257//2
f 257//2 255//2 258//2
f 257//2 258//2 259//2
f 259//2 258//2 260//2
f 260//2 261//2 262//2
f 261//2 260//2 258//2
f 261//2 258//2 263//2
f 261//2 263//2 264//2
f 261//2 264//2 265//2
f 266//2 267//2 268//2
f 267//2 266//2 269//2
f 269//2 266//2 270//2
f 269//2 270//2 271//2
f 269//2 271//2 272//2
f 271//2 270//2 243//2
f 243//2 270//2 241//2
f 273//1 274//1 275//1
f 275//1 274//1 276//1
f 277//1 276//1 278//1
f 276//1 274//1 278//1
f 274//1 279//1 278//1
f 278//1 279//1 280//1
f 281//1 280//1 279//1
f 282//1 283//1 284//1
f 283//1 285//1 284//1
f 285//1 286//1 284//1
f 286//1 287//1 284//1
f 288//1 284//1 287//1
f 287//1 286//1 289//1
f 289//1 286//1 290//1
f 286//1 291//1 290//1
f 290//1 291//1 292//1
f 292//1 291//1 293//1
f 291//1 294//1 293//1
f 293//1 294//1 295//1
f 294//1 296//1 295//1
f 295//1 296//1 297//1
f 297//1 296//1 298//1
f 296//1 299//1 298//1
f 298//1 299//1 300//1
f 300//1 299//1 301//1
f 299//1 302//1 301//1
f 301//1 302//1 303//1
f 303//1 302//1 304//1
f 302//1 273//1 304//1
f 275//1 304//1 273//1
