# SSTK version 0.8.0
# 68
mtllib original-68.mtl
o #ID415
v -0.301759 0.612778 -0.076193
v -0.300630 0.612778 -0.080944
v -0.301311 0.612778 -0.089483
v -0.297829 0.612778 -0.068297
v -0.297761 0.612778 -0.072873
v -0.292058 0.612778 -0.061626
v -0.292902 0.612778 -0.065819
v -0.286382 0.612778 -0.060263
v -0.284809 0.612778 -0.056600
v -0.278647 0.612778 -0.056584
v -0.276539 0.612778 -0.053535
v -0.270223 0.612778 -0.055032
v -0.267766 0.612778 -0.052623
v -0.261684 0.612778 -0.055714
v -0.259041 0.612778 -0.053921
v -0.253612 0.612778 -0.058582
v -0.250914 0.612778 -0.057348
v -0.246559 0.612778 -0.063442
v -0.243894 0.612778 -0.062688
v -0.241003 0.612778 -0.069961
v -0.238423 0.612778 -0.069607
v -0.237324 0.612778 -0.077697
v -0.234844 0.612778 -0.077669
v -0.235772 0.612778 -0.086121
v -0.303243 0.612778 -0.093632
v -0.303603 0.612778 -0.084819
v -0.300703 0.612778 -0.102078
v -0.299760 0.612778 -0.097907
v -0.296142 0.612778 -0.109628
v -0.296080 0.612778 -0.105643
v -0.289847 0.612778 -0.115806
v -0.290525 0.612778 -0.112162
v -0.283471 0.612778 -0.117022
v -0.282213 0.612778 -0.120225
v -0.275399 0.612778 -0.119890
v -0.273720 0.612778 -0.122607
v -0.266861 0.612778 -0.120572
v -0.264902 0.612778 -0.122801
v -0.258436 0.612778 -0.119020
v -0.256313 0.612778 -0.120796
v -0.250701 0.612778 -0.115341
v -0.248491 0.612778 -0.116719
v -0.244181 0.612778 -0.109785
v -0.241930 0.612778 -0.110824
v -0.239322 0.612778 -0.102731
v -0.237041 0.612778 -0.103483
v -0.236453 0.612778 -0.094660
v -0.234131 0.612778 -0.095156
v -0.236113 0.612778 -0.090390
v -0.233383 0.612778 -0.086367
v -0.233383 0.612778 -0.086367
v -0.234844 0.612778 -0.077669
v -0.234131 0.612778 -0.095156
v -0.235772 0.612778 -0.086121
v -0.236113 0.612778 -0.090390
v -0.236453 0.612778 -0.094660
v -0.237041 0.612778 -0.103483
v -0.239322 0.612778 -0.102731
v -0.241930 0.612778 -0.110824
v -0.244181 0.612778 -0.109785
v -0.248491 0.612778 -0.116719
v -0.250701 0.612778 -0.115341
v -0.256313 0.612778 -0.120796
v -0.258436 0.612778 -0.119020
v -0.264902 0.612778 -0.122801
v -0.266861 0.612778 -0.120572
v -0.273720 0.612778 -0.122607
v -0.275399 0.612778 -0.119890
v -0.282213 0.612778 -0.120225
v -0.283471 0.612778 -0.117022
v -0.289847 0.612778 -0.115806
v -0.290525 0.612778 -0.112162
v -0.296080 0.612778 -0.105643
v -0.296142 0.612778 -0.109628
v -0.299760 0.612778 -0.097907
v -0.300703 0.612778 -0.102078
v -0.301311 0.612778 -0.089483
v -0.303243 0.612778 -0.093632
v -0.301759 0.612778 -0.076193
v -0.303603 0.612778 -0.084819
v -0.237324 0.612778 -0.077697
v -0.238423 0.612778 -0.069607
v -0.241003 0.612778 -0.069961
v -0.243894 0.612778 -0.062688
v -0.246559 0.612778 -0.063442
v -0.250914 0.612778 -0.057348
v -0.253612 0.612778 -0.058582
v -0.259041 0.612778 -0.053921
v -0.261684 0.612778 -0.055714
v -0.267766 0.612778 -0.052623
v -0.270223 0.612778 -0.055032
v -0.276539 0.612778 -0.053535
v -0.278647 0.612778 -0.056584
v -0.284809 0.612778 -0.056600
v -0.286382 0.612778 -0.060263
v -0.292058 0.612778 -0.061626
v -0.292902 0.612778 -0.065819
v -0.297761 0.612778 -0.072873
v -0.297829 0.612778 -0.068297
v -0.300630 0.612778 -0.080944
v -0.234131 0.607060 -0.095156
v -0.233383 0.612778 -0.086367
v -0.233383 0.607060 -0.086367
v -0.234131 0.612778 -0.095156
v -0.234131 0.612778 -0.095156
v -0.234131 0.607060 -0.095156
v -0.233383 0.612778 -0.086367
v -0.233383 0.607060 -0.086367
v -0.237041 0.607060 -0.103483
v -0.237041 0.612778 -0.103483
v -0.237041 0.612778 -0.103483
v -0.237041 0.607060 -0.103483
v -0.241930 0.607060 -0.110824
v -0.241930 0.612778 -0.110824
v -0.241930 0.612778 -0.110824
v -0.241930 0.607060 -0.110824
v -0.248491 0.612778 -0.116719
v -0.248491 0.607060 -0.116719
v -0.248491 0.612778 -0.116719
v -0.248491 0.607060 -0.116719
v -0.256313 0.612778 -0.120796
v -0.256313 0.607060 -0.120796
v -0.256313 0.612778 -0.120796
v -0.256313 0.607060 -0.120796
v -0.264902 0.612778 -0.122801
v -0.264902 0.607060 -0.122801
v -0.264902 0.612778 -0.122801
v -0.264902 0.607060 -0.122801
v -0.273720 0.612778 -0.122607
v -0.273720 0.607060 -0.122607
v -0.273720 0.612778 -0.122607
v -0.273720 0.607060 -0.122607
v -0.282213 0.612778 -0.120225
v -0.282213 0.607060 -0.120225
v -0.282213 0.612778 -0.120225
v -0.282213 0.607060 -0.120225
v -0.289847 0.612778 -0.115806
v -0.289847 0.607060 -0.115806
v -0.289847 0.612778 -0.115806
v -0.289847 0.607060 -0.115806
v -0.296142 0.612778 -0.109628
v -0.296142 0.607060 -0.109628
v -0.296142 0.612778 -0.109628
v -0.296142 0.607060 -0.109628
v -0.300703 0.607060 -0.102078
v -0.300703 0.612778 -0.102078
v -0.300703 0.607060 -0.102078
v -0.300703 0.612778 -0.102078
v -0.303243 0.607060 -0.093632
v -0.303243 0.612778 -0.093632
v -0.303243 0.607060 -0.093632
v -0.303243 0.612778 -0.093632
v -0.303603 0.607060 -0.084819
v -0.303603 0.612778 -0.084819
v -0.303603 0.607060 -0.084819
v -0.303603 0.612778 -0.084819
v -0.301759 0.607060 -0.076193
v -0.301759 0.612778 -0.076193
v -0.301759 0.607060 -0.076193
v -0.301759 0.612778 -0.076193
v -0.297829 0.607060 -0.068297
v -0.297829 0.612778 -0.068297
v -0.297829 0.607060 -0.068297
v -0.297829 0.612778 -0.068297
v -0.292058 0.607060 -0.061626
v -0.292058 0.612778 -0.061626
v -0.292058 0.607060 -0.061626
v -0.292058 0.612778 -0.061626
v -0.284809 0.612778 -0.056600
v -0.284809 0.607060 -0.056600
v -0.284809 0.612778 -0.056600
v -0.284809 0.607060 -0.056600
v -0.276539 0.612778 -0.053535
v -0.276539 0.607060 -0.053535
v -0.276539 0.612778 -0.053535
v -0.276539 0.607060 -0.053535
v -0.267766 0.612778 -0.052623
v -0.267766 0.607060 -0.052623
v -0.267766 0.612778 -0.052623
v -0.267766 0.607060 -0.052623
v -0.259041 0.612778 -0.053921
v -0.259041 0.607060 -0.053921
v -0.259041 0.612778 -0.053921
v -0.259041 0.607060 -0.053921
v -0.250914 0.612778 -0.057348
v -0.250914 0.607060 -0.057348
v -0.250914 0.612778 -0.057348
v -0.250914 0.607060 -0.057348
v -0.243894 0.612778 -0.062688
v -0.243894 0.607060 -0.062688
v -0.243894 0.612778 -0.062688
v -0.243894 0.607060 -0.062688
v -0.238423 0.607060 -0.069607
v -0.238423 0.612778 -0.069607
v -0.238423 0.612778 -0.069607
v -0.238423 0.607060 -0.069607
v -0.234844 0.607060 -0.077669
v -0.234844 0.612778 -0.077669
v -0.234844 0.612778 -0.077669
v -0.234844 0.607060 -0.077669
vn 0 1 0
vn 0.9779168152787329 0 -0.20899450326527894
vn 0.9991685795619866 0 0.04076946916605969
vn 0.8952189243746764 0 -0.4456266121333499
vn 0.7562711806892471 0 -0.6542582832940612
vn 0.5698040809363017 0 -0.8217805725060289
vn 0.34753411457000316 0 -0.9376673393107194
vn 0.10342730164685796 0 -0.9946370158374611
vn -0.14717819892153408 0 -0.9891099927521778
vn -0.388535980086568 0 -0.9214335527742464
vn -0.6054805831227226 0 -0.7958600778160493
vn -0.7843807044064233 0 -0.6202797034845514
vn -0.9139951994296488 0 -0.40572499974681947
vn -0.9861800714180315 0 -0.16567699519826573
vn -0.9963996061658993 0 0.08478104052464026
vn -0.9440116917489176 0 0.3299119971164223
vn -0.832308050583721 0 0.5543133670889834
vn -0.6683074094653046 0 0.7438852105357207
vn -0.46231458751076576 0 0.8867159760457407
vn -0.2272728071651106 0 0.9738311307014633
vn 0.02204929966123346 0 0.9997568846396853
vn 0.26998601244127435 0 0.9628642443699216
vn 0.5009585025433814 0 0.8654713043940239
vn 0.7004539244209868 0 0.713697624882722
vn 0.8559372667539505 0 0.5170796799157517
vn 0.9576389178149091 0 0.2879717053571233
vn 0 -1 0
vn -0.9779168152787329 0 0.20899450326527894
vn -0.9991685795619866 0 -0.04076946916605969
vn -0.8952189243746764 0 0.4456266121333499
vn -0.7562711806892471 0 0.6542582832940612
vn -0.5698040809363017 0 0.8217805725060289
vn -0.34753411457000316 0 0.9376673393107194
vn -0.10342730164685796 0 0.9946370158374611
vn 0.14717819892153408 0 0.9891099927521778
vn 0.388535980086568 0 0.9214335527742464
vn 0.6054805831227226 0 0.7958600778160493
vn 0.7843807044064233 0 0.6202797034845514
vn 0.9139951994296488 0 0.40572499974681947
vn 0.9861800714180315 0 0.16567699519826573
vn 0.9963996061658993 0 -0.08478104052464026
vn 0.9440116917489176 0 -0.3299119971164223
vn 0.832308050583721 0 -0.5543133670889834
vn 0.6683074094653046 0 -0.7438852105357207
vn 0.46231458751076576 0 -0.8867159760457407
vn 0.2272728071651106 0 -0.9738311307014633
vn -0.02204929966123346 0 -0.9997568846396853
vn -0.26998601244127435 0 -0.9628642443699216
vn -0.5009585025433814 0 -0.8654713043940239
vn -0.7004539244209868 0 -0.713697624882722
vn -0.8559372667539505 0 -0.5170796799157517
vn -0.9576389178149091 0 -0.2879717053571233
usemtl material_0_0
f 1//1 2//1 3//1
f 2//1 1//1 4//1
f 2//1 4//1 5//1
f 5//1 4//1 6//1
f 5//1 6//1 7//1
f 7//1 6//1 8//1
f 8//1 6//1 9//1
f 8//1 9//1 10//1
f 10//1 9//1 11//1
f 10//1 11//1 12//1
f 12//1 11//1 13//1
f 12//1 13//1 14//1
f 14//1 13//1 15//1
f 14//1 15//1 16//1
f 16//1 15//1 17//1
f 16//1 17//1 18//1
f 18//1 17//1 19//1
f 18//1 19//1 20//1
f 20//1 19//1 21//1
f 20//1 21//1 22//1
f 22//1 21//1 23//1
f 22//1 23//1 24//1
f 1//1 25//1 26//1
f 25//1 1//1 3//1
f 25//1 3//1 27//1
f 27//1 3//1 28//1
f 27//1 28//1 29//1
f 29//1 28//1 30//1
f 29//1 30//1 31//1
f 31//1 30//1 32//1
f 31//1 32//1 33//1
f 31//1 33//1 34//1
f 34//1 33//1 35//1
f 34//1 35//1 36//1
f 36//1 35//1 37//1
f 36//1 37//1 38//1
f 38//1 37//1 39//1
f 38//1 39//1 40//1
f 40//1 39//1 41//1
f 40//1 41//1 42//1
f 42//1 41//1 43//1
f 42//1 43//1 44//1
f 44//1 43//1 45//1
f 44//1 45//1 46//1
f 46//1 45//1 47//1
f 46//1 47//1 48//1
f 48//1 47//1 49//1
f 48//1 49//1 24//1
f 48//1 24//1 23//1
f 48//1 23//1 50//1
f 101//2 102//3 103//3
f 102//3 101//2 104//2
f 109//4 104//2 101//2
f 104//2 109//4 110//4
f 113//5 110//4 109//4
f 110//4 113//5 114//5
f 117//6 113//5 118//6
f 113//5 117//6 114//5
f 121//7 118//6 122//7
f 118//6 121//7 117//6
f 125//8 122//7 126//8
f 122//7 125//8 121//7
f 129//9 126//8 130//9
f 126//8 129//9 125//8
f 133//10 130//9 134//10
f 130//9 133//10 129//9
f 137//11 134//10 138//11
f 134//10 137//11 133//10
f 141//12 138//11 142//12
f 138//11 141//12 137//11
f 141//12 145//13 146//13
f 145//13 141//12 142//12
f 146//13 149//14 150//14
f 149//14 146//13 145//13
f 150//14 153//15 154//15
f 153//15 150//14 149//14
f 154//15 157//16 158//16
f 157//16 154//15 153//15
f 158//16 161//17 162//17
f 161//17 158//16 157//16
f 162//17 165//18 166//18
f 165//18 162//17 161//17
f 169//19 165//18 170//19
f 165//18 169//19 166//18
f 173//20 170//19 174//20
f 170//19 173//20 169//19
f 177//21 174//20 178//21
f 174//20 177//21 173//20
f 181//22 178//21 182//22
f 178//21 181//22 177//21
f 185//23 182//22 186//23
f 182//22 185//23 181//22
f 189//24 186//23 190//24
f 186//23 189//24 185//23
f 193//25 189//24 190//24
f 189//24 193//25 194//25
f 197//26 194//25 193//25
f 194//25 197//26 198//26
f 103//3 198//26 197//26
f 198//26 103//3 102//3
usemtl material_1_0
f 51//27 52//27 53//27
f 52//27 54//27 53//27
f 54//27 55//27 53//27
f 55//27 56//27 53//27
f 53//27 56//27 57//27
f 56//27 58//27 57//27
f 57//27 58//27 59//27
f 58//27 60//27 59//27
f 59//27 60//27 61//27
f 60//27 62//27 61//27
f 61//27 62//27 63//27
f 62//27 64//27 63//27
f 63//27 64//27 65//27
f 64//27 66//27 65//27
f 65//27 66//27 67//27
f 66//27 68//27 67//27
f 67//27 68//27 69//27
f 68//27 70//27 69//27
f 69//27 70//27 71//27
f 70//27 72//27 71//27
f 72//27 73//27 71//27
f 71//27 73//27 74//27
f 73//27 75//27 74//27
f 74//27 75//27 76//27
f 75//27 77//27 76//27
f 76//27 77//27 78//27
f 77//27 79//27 78//27
f 80//27 78//27 79//27
f 54//27 52//27 81//27
f 52//27 82//27 81//27
f 81//27 82//27 83//27
f 82//27 84//27 83//27
f 83//27 84//27 85//27
f 84//27 86//27 85//27
f 85//27 86//27 87//27
f 86//27 88//27 87//27
f 87//27 88//27 89//27
f 88//27 90//27 89//27
f 89//27 90//27 91//27
f 90//27 92//27 91//27
f 91//27 92//27 93//27
f 92//27 94//27 93//27
f 93//27 94//27 95//27
f 94//27 96//27 95//27
f 95//27 96//27 97//27
f 97//27 96//27 98//27
f 96//27 99//27 98//27
f 98//27 99//27 100//27
f 99//27 79//27 100//27
f 77//27 100//27 79//27
f 105//28 106//28 107//29
f 108//29 107//29 106//28
f 111//30 112//30 105//28
f 106//28 105//28 112//30
f 115//31 116//31 111//30
f 112//30 111//30 116//31
f 115//31 119//32 116//31
f 120//32 116//31 119//32
f 119//32 123//33 120//32
f 124//33 120//32 123//33
f 123//33 127//34 124//33
f 128//34 124//33 127//34
f 127//34 131//35 128//34
f 132//35 128//34 131//35
f 131//35 135//36 132//35
f 136//36 132//35 135//36
f 135//36 139//37 136//36
f 140//37 136//36 139//37
f 139//37 143//38 140//37
f 144//38 140//37 143//38
f 144//38 143//38 147//39
f 148//39 147//39 143//38
f 147//39 148//39 151//40
f 152//40 151//40 148//39
f 151//40 152//40 155//41
f 156//41 155//41 152//40
f 155//41 156//41 159//42
f 160//42 159//42 156//41
f 159//42 160//42 163//43
f 164//43 163//43 160//42
f 163//43 164//43 167//44
f 168//44 167//44 164//43
f 168//44 171//45 167//44
f 172//45 167//44 171//45
f 171//45 175//46 172//45
f 176//46 172//45 175//46
f 175//46 179//47 176//46
f 180//47 176//46 179//47
f 179//47 183//48 180//47
f 184//48 180//47 183//48
f 183//48 187//49 184//48
f 188//49 184//48 187//49
f 187//49 191//50 188//49
f 192//50 188//49 191//50
f 195//51 196//51 191//50
f 192//50 191//50 196//51
f 199//52 200//52 195//51
f 196//51 195//51 200//52
f 107//29 108//29 199//52
f 200//52 199//52 108//29
