# SSTK version 0.8.0
# 81
mtllib original-81.mtl
o #ID467
v 0.315506 0.179297 0.663094
v 0.315409 0.190485 0.668303
v 0.310187 0.185263 0.662636
v 0.320823 0.184614 0.668864
v 0.320823 0.184614 0.668864
v 0.315506 0.179297 0.663094
v 0.315409 0.190485 0.668303
v 0.310187 0.185263 0.662636
v 0.321491 0.196567 0.671866
v 0.327015 0.190806 0.672491
v 0.327015 0.190806 0.672491
v 0.321491 0.196567 0.671866
v 0.310187 0.185263 0.662636
v 0.260625 0.252417 0.659550
v 0.256883 0.248675 0.655489
v 0.315409 0.190485 0.668303
v 0.315409 0.190485 0.668303
v 0.310187 0.185263 0.662636
v 0.260625 0.252417 0.659550
v 0.256883 0.248675 0.655489
v 0.311426 0.175217 0.655575
v 0.306180 0.181256 0.655251
v 0.306180 0.181256 0.655251
v 0.311426 0.175217 0.655575
v 0.321544 0.174087 0.662509
v 0.326740 0.179283 0.668147
v 0.326740 0.179283 0.668147
v 0.321544 0.174087 0.662509
v 0.328017 0.203093 0.673081
v 0.333659 0.197451 0.673728
v 0.333659 0.197451 0.673728
v 0.328017 0.203093 0.673081
v 0.264983 0.256775 0.662103
v 0.321491 0.196567 0.671866
v 0.321491 0.196567 0.671866
v 0.264983 0.256775 0.662103
v 0.332791 0.185333 0.671692
v 0.332791 0.185333 0.671692
v 0.306180 0.181256 0.655251
v 0.254011 0.245803 0.650197
v 0.254011 0.245803 0.650197
v 0.306180 0.181256 0.655251
v 0.308861 0.172653 0.646818
v 0.303661 0.178737 0.646650
v 0.303661 0.178737 0.646650
v 0.308861 0.172653 0.646818
v 0.317557 0.170100 0.655161
v 0.317557 0.170100 0.655161
v 0.327998 0.169893 0.660910
v 0.332863 0.174758 0.666189
v 0.332863 0.174758 0.666189
v 0.327998 0.169893 0.660910
v 0.334543 0.209619 0.671866
v 0.340304 0.204096 0.672491
v 0.340304 0.204096 0.672491
v 0.334543 0.209619 0.671866
v 0.269659 0.261451 0.662974
v 0.328017 0.203093 0.673081
v 0.328017 0.203093 0.673081
v 0.269659 0.261451 0.662974
v 0.339284 0.191826 0.672901
v 0.339284 0.191826 0.672901
v 0.338528 0.180423 0.669508
v 0.338528 0.180423 0.669508
v 0.303661 0.178737 0.646650
v 0.252206 0.243998 0.644034
v 0.252206 0.243998 0.644034
v 0.303661 0.178737 0.646650
v 0.307986 0.171778 0.637421
v 0.302802 0.177878 0.637421
v 0.302802 0.177878 0.637421
v 0.307986 0.171778 0.637421
v 0.315051 0.167593 0.646604
v 0.315051 0.167593 0.646604
v 0.324265 0.166161 0.654030
v 0.324265 0.166161 0.654030
v 0.334543 0.166929 0.658378
v 0.338883 0.171269 0.663088
v 0.338883 0.171269 0.663088
v 0.334543 0.166929 0.658378
v 0.340625 0.215701 0.668303
v 0.346496 0.210288 0.668864
v 0.346496 0.210288 0.668864
v 0.340625 0.215701 0.668303
v 0.274336 0.266128 0.662103
v 0.334543 0.209619 0.671866
v 0.334543 0.209619 0.671866
v 0.274336 0.266128 0.662103
v 0.345777 0.198320 0.671692
v 0.345777 0.198320 0.671692
v 0.344608 0.186503 0.670640
v 0.344608 0.186503 0.670640
v 0.343938 0.176324 0.666049
v 0.343938 0.176324 0.666049
v 0.302802 0.177878 0.637421
v 0.251591 0.243383 0.637421
v 0.251591 0.243383 0.637421
v 0.302802 0.177878 0.637421
v 0.303661 0.178737 0.628191
v 0.308861 0.172653 0.628024
v 0.308861 0.172653 0.628024
v 0.303661 0.178737 0.628191
v 0.314196 0.166739 0.637421
v 0.314196 0.166739 0.637421
v 0.321919 0.163814 0.646018
v 0.321919 0.163814 0.646018
v 0.331213 0.163599 0.652240
v 0.331213 0.163599 0.652240
v 0.343744 0.169298 0.659550
v 0.340849 0.165343 0.655041
v 0.344498 0.168992 0.659001
v 0.340002 0.165556 0.655489
v 0.340002 0.165556 0.655489
v 0.340849 0.165343 0.655041
v 0.343744 0.169298 0.659550
v 0.344498 0.168992 0.659001
v 0.345847 0.220923 0.662636
v 0.351813 0.215605 0.663094
v 0.351813 0.215605 0.663094
v 0.345847 0.220923 0.662636
v 0.278693 0.270486 0.659550
v 0.340625 0.215701 0.668303
v 0.340625 0.215701 0.668303
v 0.278693 0.270486 0.659550
v 0.351828 0.204370 0.668147
v 0.351828 0.204370 0.668147
v 0.350687 0.192582 0.669508
v 0.350687 0.192582 0.669508
v 0.349362 0.181748 0.667059
v 0.349362 0.181748 0.667059
v 0.348102 0.173656 0.662103
v 0.348748 0.173242 0.661491
v 0.348102 0.173656 0.662103
v 0.348748 0.173242 0.661491
v 0.303661 0.178737 0.628191
v 0.252206 0.243998 0.630807
v 0.252206 0.243998 0.630807
v 0.303661 0.178737 0.628191
v 0.306180 0.181256 0.619591
v 0.311426 0.175217 0.619267
v 0.311426 0.175217 0.619267
v 0.306180 0.181256 0.619591
v 0.315051 0.167593 0.628238
v 0.315051 0.167593 0.628238
v 0.321118 0.163014 0.637421
v 0.321118 0.163014 0.637421
v 0.329119 0.161505 0.645092
v 0.329119 0.161505 0.645092
v 0.338049 0.162542 0.649880
v 0.337130 0.162684 0.650197
v 0.337130 0.162684 0.650197
v 0.338049 0.162542 0.649880
v 0.346598 0.165214 0.651067
v 0.349424 0.168041 0.654134
v 0.346598 0.165214 0.651067
v 0.349424 0.168041 0.654134
v 0.355893 0.219685 0.655575
v 0.349854 0.224931 0.655251
v 0.349854 0.224931 0.655251
v 0.355893 0.219685 0.655575
v 0.282436 0.274228 0.655489
v 0.345847 0.220923 0.662636
v 0.345847 0.220923 0.662636
v 0.282436 0.274228 0.655489
v 0.357024 0.209566 0.662509
v 0.357024 0.209566 0.662509
v 0.356352 0.198247 0.666189
v 0.356352 0.198247 0.666189
v 0.354786 0.187172 0.666049
v 0.354786 0.187172 0.666049
v 0.352778 0.178332 0.662974
v 0.353308 0.177802 0.662340
v 0.353308 0.177802 0.662340
v 0.352778 0.178332 0.662974
v 0.352715 0.171332 0.656062
v 0.352715 0.171332 0.656062
v 0.254011 0.245803 0.624644
v 0.306180 0.181256 0.619591
v 0.306180 0.181256 0.619591
v 0.254011 0.245803 0.624644
v 0.310187 0.185263 0.612205
v 0.315506 0.179297 0.611748
v 0.315506 0.179297 0.611748
v 0.310187 0.185263 0.612205
v 0.317557 0.170100 0.619681
v 0.317557 0.170100 0.619681
v 0.321919 0.163814 0.628823
v 0.321919 0.163814 0.628823
v 0.328405 0.160791 0.637421
v 0.328405 0.160791 0.637421
v 0.336288 0.160782 0.643870
v 0.335325 0.160879 0.644034
v 0.335325 0.160879 0.644034
v 0.336288 0.160782 0.643870
v 0.344429 0.163046 0.647070
v 0.344429 0.163046 0.647070
v 0.350961 0.166403 0.647141
v 0.352974 0.168417 0.649325
v 0.350961 0.166403 0.647141
v 0.352974 0.168417 0.649325
v 0.358458 0.222249 0.646818
v 0.352374 0.227450 0.646650
v 0.352374 0.227450 0.646650
v 0.358458 0.222249 0.646818
v 0.349854 0.224931 0.655251
v 0.285307 0.277099 0.650197
v 0.285307 0.277099 0.650197
v 0.349854 0.224931 0.655251
v 0.361011 0.213553 0.655161
v 0.361011 0.213553 0.655161
v 0.361217 0.203112 0.660910
v 0.361217 0.203112 0.660910
v 0.359841 0.192227 0.663088
v 0.359841 0.192227 0.663088
v 0.357455 0.183009 0.662103
v 0.357869 0.182363 0.661491
v 0.357869 0.182363 0.661491
v 0.357455 0.183009 0.662103
v 0.356247 0.174864 0.656719
v 0.356247 0.174864 0.656719
v 0.355318 0.170761 0.650699
v 0.355318 0.170761 0.650699
v 0.256883 0.248675 0.619352
v 0.310187 0.185263 0.612205
v 0.310187 0.185263 0.612205
v 0.256883 0.248675 0.619352
v 0.320823 0.184614 0.605978
v 0.315409 0.190485 0.606538
v 0.320823 0.184614 0.605978
v 0.315409 0.190485 0.606538
v 0.321544 0.174087 0.612333
v 0.321544 0.174087 0.612333
v 0.324265 0.166161 0.620812
v 0.324265 0.166161 0.620812
v 0.329119 0.161505 0.629750
v 0.329119 0.161505 0.629750
v 0.335688 0.160182 0.637421
v 0.334710 0.160264 0.637421
v 0.334710 0.160264 0.637421
v 0.335688 0.160182 0.637421
v 0.343066 0.161683 0.642416
v 0.343066 0.161683 0.642416
v 0.349416 0.164859 0.644294
v 0.349416 0.164859 0.644294
v 0.359333 0.223124 0.637421
v 0.353233 0.228309 0.637421
v 0.353233 0.228309 0.637421
v 0.359333 0.223124 0.637421
v 0.352374 0.227450 0.646650
v 0.287112 0.278904 0.644034
v 0.287112 0.278904 0.644034
v 0.352374 0.227450 0.646650
v 0.363517 0.216059 0.646604
v 0.363517 0.216059 0.646604
v 0.364950 0.206845 0.654030
v 0.364950 0.206845 0.654030
v 0.364181 0.196567 0.658378
v 0.364181 0.196567 0.658378
v 0.361813 0.187366 0.659550
v 0.362118 0.186612 0.659001
v 0.362118 0.186612 0.659001
v 0.361813 0.187366 0.659550
v 0.359779 0.178395 0.656062
v 0.359779 0.178395 0.656062
v 0.357834 0.173277 0.651167
v 0.357834 0.173277 0.651167
v 0.315409 0.190485 0.606538
v 0.260625 0.252417 0.615291
v 0.315409 0.190485 0.606538
v 0.260625 0.252417 0.615291
v 0.327015 0.190806 0.602351
v 0.321491 0.196567 0.602976
v 0.327015 0.190806 0.602351
v 0.321491 0.196567 0.602976
v 0.326740 0.179283 0.606695
v 0.326740 0.179283 0.606695
v 0.327998 0.169893 0.613932
v 0.327998 0.169893 0.613932
v 0.331213 0.163599 0.622602
v 0.331213 0.163599 0.622602
v 0.335325 0.160879 0.630807
v 0.336288 0.160782 0.630971
v 0.335325 0.160879 0.630807
v 0.336288 0.160782 0.630971
v 0.342601 0.161218 0.637421
v 0.342601 0.161218 0.637421
v 0.348445 0.163888 0.640979
v 0.348445 0.163888 0.640979
v 0.352374 0.227450 0.628191
v 0.358458 0.222249 0.628024
v 0.358458 0.222249 0.628024
v 0.352374 0.227450 0.628191
v 0.353233 0.228309 0.637421
v 0.287728 0.279520 0.637421
v 0.287728 0.279520 0.637421
v 0.353233 0.228309 0.637421
v 0.364372 0.216914 0.637421
v 0.364372 0.216914 0.637421
v 0.367296 0.209192 0.646018
v 0.367296 0.209192 0.646018
v 0.367512 0.199898 0.652240
v 0.367512 0.199898 0.652240
v 0.365555 0.191109 0.655489
v 0.365768 0.190262 0.655041
v 0.365768 0.190262 0.655041
v 0.365555 0.191109 0.655489
v 0.363070 0.181687 0.654134
v 0.363070 0.181687 0.654134
v 0.360350 0.175792 0.650699
v 0.360350 0.175792 0.650699
v 0.321491 0.196567 0.602976
v 0.264983 0.256775 0.612739
v 0.321491 0.196567 0.602976
v 0.264983 0.256775 0.612739
v 0.333659 0.197451 0.601113
v 0.328017 0.203093 0.601761
v 0.333659 0.197451 0.601113
v 0.328017 0.203093 0.601761
v 0.332791 0.185333 0.603150
v 0.332791 0.185333 0.603150
v 0.332863 0.174758 0.608653
v 0.332863 0.174758 0.608653
v 0.334543 0.166929 0.616463
v 0.334543 0.166929 0.616463
v 0.337130 0.162684 0.624644
v 0.338049 0.162542 0.624961
v 0.337130 0.162684 0.624644
v 0.338049 0.162542 0.624961
v 0.343066 0.161683 0.632426
v 0.343066 0.161683 0.632426
v 0.348114 0.163557 0.637421
v 0.348114 0.163557 0.637421
v 0.349854 0.224931 0.619591
v 0.355893 0.219685 0.619267
v 0.355893 0.219685 0.619267
v 0.349854 0.224931 0.619591
v 0.287112 0.278904 0.630807
v 0.352374 0.227450 0.628191
v 0.352374 0.227450 0.628191
v 0.287112 0.278904 0.630807
v 0.363517 0.216059 0.628238
v 0.363517 0.216059 0.628238
v 0.368097 0.209992 0.637421
v 0.368097 0.209992 0.637421
v 0.369606 0.201992 0.645092
v 0.369606 0.201992 0.645092
v 0.368426 0.193980 0.650197
v 0.368568 0.193062 0.649880
v 0.368568 0.193062 0.649880
v 0.368426 0.193980 0.650197
v 0.365896 0.184513 0.651067
v 0.365896 0.184513 0.651067
v 0.362694 0.178137 0.649325
v 0.362694 0.178137 0.649325
v 0.328017 0.203093 0.601761
v 0.269659 0.261451 0.611868
v 0.328017 0.203093 0.601761
v 0.269659 0.261451 0.611868
v 0.340304 0.204096 0.602351
v 0.334543 0.209619 0.602976
v 0.340304 0.204096 0.602351
v 0.334543 0.209619 0.602976
v 0.339284 0.191826 0.601941
v 0.339284 0.191826 0.601941
v 0.338528 0.180423 0.605334
v 0.338528 0.180423 0.605334
v 0.338883 0.171269 0.611753
v 0.338883 0.171269 0.611753
v 0.340002 0.165556 0.619352
v 0.340849 0.165343 0.619800
v 0.340002 0.165556 0.619352
v 0.340849 0.165343 0.619800
v 0.344429 0.163046 0.627772
v 0.344429 0.163046 0.627772
v 0.348445 0.163888 0.633863
v 0.348445 0.163888 0.633863
v 0.345847 0.220923 0.612205
v 0.351813 0.215605 0.611748
v 0.351813 0.215605 0.611748
v 0.345847 0.220923 0.612205
v 0.285307 0.277099 0.624644
v 0.349854 0.224931 0.619591
v 0.349854 0.224931 0.619591
v 0.285307 0.277099 0.624644
v 0.361011 0.213553 0.619681
v 0.361011 0.213553 0.619681
v 0.367296 0.209192 0.628823
v 0.367296 0.209192 0.628823
v 0.370320 0.202706 0.637421
v 0.370320 0.202706 0.637421
v 0.370231 0.195785 0.644034
v 0.370328 0.194822 0.643870
v 0.370328 0.194822 0.643870
v 0.370231 0.195785 0.644034
v 0.368065 0.186681 0.647070
v 0.368065 0.186681 0.647070
v 0.364707 0.180150 0.647141
v 0.364707 0.180150 0.647141
v 0.334543 0.209619 0.602976
v 0.274336 0.266128 0.612739
v 0.334543 0.209619 0.602976
v 0.274336 0.266128 0.612739
v 0.346496 0.210288 0.605978
v 0.340625 0.215701 0.606538
v 0.346496 0.210288 0.605978
v 0.340625 0.215701 0.606538
v 0.345777 0.198320 0.603150
v 0.345777 0.198320 0.603150
v 0.344608 0.186503 0.604202
v 0.344608 0.186503 0.604202
v 0.343938 0.176324 0.608792
v 0.343938 0.176324 0.608792
v 0.343744 0.169298 0.615291
v 0.344498 0.168992 0.615840
v 0.343744 0.169298 0.615291
v 0.344498 0.168992 0.615840
v 0.346598 0.165214 0.623775
v 0.346598 0.165214 0.623775
v 0.349416 0.164859 0.630548
v 0.349416 0.164859 0.630548
v 0.282436 0.274228 0.619352
v 0.345847 0.220923 0.612205
v 0.345847 0.220923 0.612205
v 0.282436 0.274228 0.619352
v 0.357024 0.209566 0.612333
v 0.357024 0.209566 0.612333
v 0.364950 0.206845 0.620812
v 0.364950 0.206845 0.620812
v 0.369606 0.201992 0.629750
v 0.369606 0.201992 0.629750
v 0.370847 0.196401 0.637421
v 0.370929 0.195423 0.637421
v 0.370929 0.195423 0.637421
v 0.370847 0.196401 0.637421
v 0.369428 0.188045 0.642416
v 0.369428 0.188045 0.642416
v 0.366252 0.181694 0.644294
v 0.366252 0.181694 0.644294
v 0.340625 0.215701 0.606538
v 0.278693 0.270486 0.615291
v 0.340625 0.215701 0.606538
v 0.278693 0.270486 0.615291
v 0.351828 0.204370 0.606695
v 0.351828 0.204370 0.606695
v 0.350687 0.192582 0.605334
v 0.350687 0.192582 0.605334
v 0.349362 0.181748 0.607783
v 0.349362 0.181748 0.607783
v 0.348102 0.173656 0.612739
v 0.348748 0.173242 0.613351
v 0.348102 0.173656 0.612739
v 0.348748 0.173242 0.613351
v 0.349424 0.168041 0.620708
v 0.349424 0.168041 0.620708
v 0.350961 0.166403 0.627701
v 0.350961 0.166403 0.627701
v 0.361217 0.203112 0.613932
v 0.361217 0.203112 0.613932
v 0.367512 0.199898 0.622602
v 0.367512 0.199898 0.622602
v 0.370231 0.195785 0.630807
v 0.370328 0.194822 0.630971
v 0.370328 0.194822 0.630971
v 0.370231 0.195785 0.630807
v 0.369893 0.188510 0.637421
v 0.369893 0.188510 0.637421
v 0.367223 0.182665 0.640979
v 0.367223 0.182665 0.640979
v 0.356352 0.198247 0.608653
v 0.356352 0.198247 0.608653
v 0.354786 0.187172 0.608792
v 0.354786 0.187172 0.608792
v 0.352778 0.178332 0.611868
v 0.353308 0.177802 0.612502
v 0.352778 0.178332 0.611868
v 0.353308 0.177802 0.612502
v 0.352715 0.171332 0.618780
v 0.352715 0.171332 0.618780
v 0.352974 0.168417 0.625516
v 0.352974 0.168417 0.625516
v 0.364181 0.196567 0.616463
v 0.364181 0.196567 0.616463
v 0.368426 0.193980 0.624644
v 0.368568 0.193062 0.624961
v 0.368568 0.193062 0.624961
v 0.368426 0.193980 0.624644
v 0.369428 0.188045 0.632426
v 0.369428 0.188045 0.632426
v 0.367554 0.182997 0.637421
v 0.367554 0.182997 0.637421
v 0.359841 0.192227 0.611753
v 0.359841 0.192227 0.611753
v 0.357455 0.183009 0.612739
v 0.357869 0.182363 0.613351
v 0.357869 0.182363 0.613351
v 0.357455 0.183009 0.612739
v 0.356247 0.174864 0.618122
v 0.356247 0.174864 0.618122
v 0.355318 0.170761 0.624143
v 0.355318 0.170761 0.624143
v 0.365768 0.190262 0.619800
v 0.365555 0.191109 0.619352
v 0.365555 0.191109 0.619352
v 0.365768 0.190262 0.619800
v 0.368065 0.186681 0.627772
v 0.368065 0.186681 0.627772
v 0.367223 0.182665 0.633863
v 0.367223 0.182665 0.633863
v 0.361813 0.187366 0.615291
v 0.362118 0.186612 0.615840
v 0.362118 0.186612 0.615840
v 0.361813 0.187366 0.615291
v 0.359779 0.178395 0.618780
v 0.359779 0.178395 0.618780
v 0.357834 0.173277 0.623675
v 0.357834 0.173277 0.623675
v 0.365896 0.184513 0.623775
v 0.365896 0.184513 0.623775
v 0.366252 0.181694 0.630548
v 0.366252 0.181694 0.630548
v 0.363070 0.181687 0.620708
v 0.363070 0.181687 0.620708
v 0.360350 0.175792 0.624143
v 0.360350 0.175792 0.624143
v 0.364707 0.180150 0.627701
v 0.364707 0.180150 0.627701
v 0.362694 0.178137 0.625516
v 0.362694 0.178137 0.625516
vn -0.49203199510275586 -0.5079050015278196 0.7070622498890935
vn -0.40956369898699335 -0.29522835404055064 0.8631904746014051
vn -0.5555309171937975 -0.44119556866158754 0.7047920758884826
vn -0.34559460071617754 -0.3614676076513233 0.8659708658925283
vn 0.34559460071617754 0.3614676076513233 -0.8659708658925283
vn 0.49203199510275586 0.5079050015278196 -0.7070622498890935
vn 0.40956369898699335 0.29522835404055064 -0.8631904746014051
vn 0.5555309171937975 0.44119556866158754 -0.7047920758884826
vn -0.2395812693305202 -0.12524591893693832 0.9627638730112481
vn -0.17506467388122882 -0.19093767982221302 0.9658649814456308
vn 0.17506467388122882 0.19093767982221302 -0.9658649814456308
vn 0.2395812693305202 0.12524591893693832 -0.9627638730112481
vn -0.5822475423592239 -0.4103366044519047 0.7018629997823826
vn -0.4368869932818006 -0.26497604633422156 0.8596030769897652
vn 0.4368869932818006 0.26497604633422156 -0.8596030769897652
vn 0.5822475423592239 0.4103366044519047 -0.7018629997823826
vn -0.6043973598624565 -0.6202703670087397 0.49996850221002465
vn -0.6675355031021574 -0.5532001566446432 0.49836325986823266
vn 0.6675355031021574 0.5532001566446432 -0.49836325986823266
vn 0.6043973598624565 0.6202703670087397 -0.49996850221002465
vn -0.3534421878239755 -0.6275887967976344 0.6936936802366729
vn -0.20977356311181294 -0.4839201662550768 0.8495977430001995
vn 0.20977356311181294 0.4839201662550768 -0.8495977430001995
vn 0.3534421878239755 0.6275887967976344 -0.6936936802366729
vn -0.05716767206053471 0.057167672060503896 0.9967264993679871
vn 0.007936503616934733 -0.007936503616753276 0.9999370099264653
vn -0.007936503616934733 0.007936503616753276 -0.9999370099264653
vn 0.05716767206053471 -0.057167672060503896 -0.9967264993679871
vn -0.2676110097301154 -0.0957000635279998 0.95876266370357
vn 0.2676110097301154 0.0957000635279998 -0.95876266370357
vn -0.04246785257996178 -0.31661444525852833 0.9476031735652223
vn 0.04246785257996178 0.31661444525852833 -0.9476031735652223
vn -0.6937866312630971 -0.5218756820623637 0.4962921344858754
vn 0.6937866312630971 0.5218756820623637 -0.4962921344858754
vn -0.6750331725010031 -0.6909061788076887 0.2588027590822575
vn -0.7379445372638861 -0.6236091842530521 0.25797179155410005
vn 0.7379445372638861 0.6236091842530521 -0.25797179155410005
vn 0.6750331725010031 0.6909061788076887 -0.2588027590822575
vn -0.46368301373733883 -0.7378296203905627 0.49051555943290637
vn 0.46368301373733883 0.7378296203905627 -0.49051555943290637
vn -0.1975497008549761 -0.7291198956788603 0.6552543730623684
vn -0.0618420524633424 -0.5934122514153736 0.8025194455072466
vn 0.0618420524633424 0.5934122514153736 -0.8025194455072466
vn 0.1975497008549761 0.7291198956788603 -0.6552543730623684
vn 0.12524591893697334 0.23958126933055524 0.9627638730112348
vn 0.1909376798222482 0.17506467388126407 0.9658649814456176
vn -0.1909376798222482 -0.17506467388126407 -0.9658649814456176
vn -0.12524591893697334 -0.23958126933055524 -0.9627638730112348
vn -0.08595547378334432 0.08595547378374618 0.9925841591791059
vn -0.08595547378335215 0.08595547378373836 0.9925841591791059
vn 0.08595547378335215 -0.08595547378373836 -0.9925841591791059
vn 0.08595547378334432 -0.08595547378374618 -0.9925841591791059
vn 0.1370733006431739 -0.13707330064304776 0.9810309987465262
vn -0.1370733006431739 0.13707330064304776 -0.9810309987465262
vn 0.09619283536314925 -0.43537738784917523 0.8950941115739881
vn -0.09619283536314925 0.43537738784917523 -0.8950941115739881
vn -0.7639030534581964 -0.5919921033535032 0.2568997362480917
vn 0.7639030534581964 0.5919921033535032 -0.2568997362480917
vn -0.699125736648051 -0.7149987443040164 0
vn -0.761959740140455 -0.6476243929972759 0
vn 0.761959740140455 0.6476243929972759 0
vn 0.699125736648051 0.7149987443040164 0
vn -0.5329833275542171 -0.8071299263122143 0.2539095401919225
vn 0.5329833275542171 0.8071299263122143 -0.2539095401919225
vn -0.30168183082434086 -0.8332520358488265 0.46333477929490646
vn 0.30168183082434086 0.8332520358488265 -0.46333477929490646
vn -0.023896471737093854 -0.808220188089469 0.5883953485566836
vn 0.09796418403282409 -0.6863595236706463 0.7206341810609502
vn -0.09796418403282409 0.6863595236706463 -0.7206341810609502
vn 0.023896471737093854 0.808220188089469 -0.5883953485566836
vn 0.295228354040582 0.4095636989870248 0.8631904746013794
vn 0.3614676076513548 0.3455946007162091 0.8659708658925024
vn -0.3614676076513548 -0.3455946007162091 -0.8659708658925024
vn -0.295228354040582 -0.4095636989870248 -0.8631904746013794
vn 0.0957000635280347 0.2676110097301504 0.9587626637035569
vn -0.0957000635280347 -0.2676110097301504 -0.9587626637035569
vn 0.3166144452585629 0.04246785257999635 0.9476031735652093
vn -0.3166144452585629 -0.04246785257999635 -0.9476031735652093
vn 0.2657851141734003 -0.26578511417323547 0.9266695992465452
vn -0.2657851141734003 0.26578511417323547 -0.9266695992465452
vn 0.23987393299134993 -0.5444497728480145 0.8037629881482519
vn -0.23987393299134993 0.5444497728480145 -0.8037629881482519
vn -0.7878184656146539 -0.6159075135412561 0
vn 0.7878184656146539 0.6159075135412561 0
vn -0.7379445372638931 -0.623609184253064 -0.25797179155405164
vn -0.6750331725010101 -0.6909061788077006 -0.2588027590822076
vn 0.6750331725010101 0.6909061788077006 0.2588027590822076
vn 0.7379445372638931 0.623609184253064 0.25797179155405164
vn -0.5566203669212416 -0.8307669752273872 0
vn 0.5566203669212416 0.8307669752273872 0
vn -0.3671419949125004 -0.8987122286426243 0.23983970826340817
vn 0.3671419949125004 0.8987122286426243 -0.23983970826340817
vn -0.11740344985508207 -0.9017271647832131 0.4160583495787018
vn 0.11740344985508207 0.9017271647832131 -0.4160583495787018
vn 0.18664329135505475 -0.7265631700980286 0.6612641239695795
vn 0.16561397749587253 -0.8566322747666221 0.48862373692459854
vn 0.2668112956344802 -0.7554349765038899 0.5984394111323361
vn 0.07482217969270531 -0.8383842326498085 0.53991991986796
vn -0.07482217969270531 0.8383842326498085 -0.53991991986796
vn -0.16561397749587253 0.8566322747666221 -0.48862373692459854
vn -0.18664329135505475 0.7265631700980286 -0.6612641239695795
vn -0.2668112956344802 0.7554349765038899 -0.5984394111323361
vn 0.4411955686616131 0.5555309171938233 0.7047920758884461
vn 0.5079050015278453 0.49203199510278184 0.7070622498890572
vn -0.5079050015278453 -0.49203199510278184 -0.7070622498890572
vn -0.4411955686616131 -0.5555309171938233 -0.7047920758884461
vn 0.2649760463342528 0.43688699328183195 0.8596030769897398
vn -0.2649760463342528 -0.43688699328183195 -0.8596030769897398
vn 0.4839201662551077 0.20977356311184395 0.8495977430001742
vn -0.4839201662551077 -0.20977356311184395 -0.8495977430001742
vn 0.4353773878492077 -0.09619283536311657 0.8950941115739757
vn -0.4353773878492077 0.09619283536311657 -0.8950941115739757
vn 0.3921618484609267 -0.39216184846074664 0.8321166800536808
vn -0.3921618484609267 0.39216184846074664 -0.8321166800536808
vn 0.31686171830711757 -0.5963447463184979 0.7375443003710269
vn 0.3846580482029628 -0.6375882401817125 0.6674724128641379
vn -0.31686171830711757 0.5963447463184979 -0.7375443003710269
vn -0.3846580482029628 0.6375882401817125 -0.6674724128641379
vn -0.7639030534582034 -0.5919921033535148 -0.25689973624804396
vn 0.7639030534582034 0.5919921033535148 0.25689973624804396
vn -0.6675355031021709 -0.553200156644666 -0.49836325986818925
vn -0.60439735986247 -0.6202703670087627 -0.4999685022099798
vn 0.60439735986247 0.6202703670087627 0.4999685022099798
vn 0.6675355031021709 0.553200156644666 0.49836325986818925
vn -0.5329833275542241 -0.807129926312226 -0.2539095401918712
vn 0.5329833275542241 0.807129926312226 0.2539095401918712
vn -0.38946923483776275 -0.9210394753293083 0
vn 0.38946923483776275 0.9210394753293083 0
vn -0.1761843941560694 -0.960508112508914 0.21536765091448185
vn 0.1761843941560694 0.960508112508914 -0.21536765091448185
vn 0.08796258214572121 -0.9342836964862907 0.34550912957861124
vn -0.010981103132220994 -0.9241875716682072 0.3817810206754939
vn 0.010981103132220994 0.9241875716682072 -0.3817810206754939
vn -0.08796258214572121 0.9342836964862907 -0.34550912957861124
vn 0.3633979641565448 -0.8622680687549171 0.35275444327824435
vn 0.4364557842539911 -0.7892102606142474 0.4320341571362444
vn -0.3633979641565448 0.8622680687549171 -0.35275444327824435
vn -0.4364557842539911 0.7892102606142474 -0.4320341571362444
vn 0.6202703670087578 0.6043973598624748 0.49996850220997996
vn 0.5532001566446613 0.6675355031021757 0.49836325986818825
vn -0.5532001566446613 -0.6675355031021757 -0.49836325986818825
vn -0.6202703670087578 -0.6043973598624748 -0.49996850220997996
vn 0.41033660445193015 0.5822475423592495 0.7018629997823465
vn -0.41033660445193015 -0.5822475423592495 -0.7018629997823465
vn 0.6275887967976597 0.3534421878240009 0.6936936802366371
vn -0.6275887967976597 -0.3534421878240009 -0.6936936802366371
vn 0.5934122514154028 0.061842052463371745 0.8025194455072228
vn -0.5934122514154028 -0.061842052463371745 -0.8025194455072228
vn 0.5444497728480437 -0.23987393299132048 0.8037629881482407
vn -0.5444497728480437 0.23987393299132048 -0.8037629881482407
vn 0.4566032301404165 -0.4566032301401755 0.7635620344483451
vn 0.5111231491354503 -0.5111231491353798 0.6910182724326415
vn -0.5111231491354503 0.5111231491353798 -0.6910182724326415
vn -0.4566032301404165 0.4566032301401755 -0.7635620344483451
vn 0.5215334322759527 -0.7041326323473919 0.481871471537792
vn -0.5215334322759527 0.7041326323473919 -0.481871471537792
vn -0.6937866312631104 -0.5218756820623864 -0.4962921344858327
vn 0.6937866312631104 0.5218756820623864 0.4962921344858327
vn -0.5555309171938166 -0.44119556866161996 -0.7047920758884473
vn -0.49203199510277507 -0.5079050015278521 -0.7070622498890571
vn 0.49203199510277507 0.5079050015278521 0.7070622498890571
vn 0.5555309171938166 0.44119556866161996 0.7047920758884473
vn -0.46368301373735205 -0.7378296203905852 -0.4905155594328598
vn 0.46368301373735205 0.7378296203905852 0.4905155594328598
vn -0.36714199491250693 -0.8987122286426353 -0.23983970826335702
vn 0.36714199491250693 0.8987122286426353 0.23983970826335702
vn -0.1962334867037033 -0.9805571980747007 0
vn 0.1962334867037033 0.9805571980747007 0
vn 0.039148887789368675 -0.9830974118426236 0.17884866064130933
vn -0.06491933090138743 -0.9781258077949516 0.1976243522463498
vn 0.06491933090138743 0.9781258077949516 -0.1976243522463498
vn -0.039148887789368675 0.9830974118426236 -0.17884866064130933
vn 0.3073387493644606 -0.9183272995616716 0.2494350897906254
vn -0.3073387493644606 0.9183272995616716 -0.2494350897906254
vn 0.46818793370385153 -0.8429558472851354 0.2650009401151581
vn 0.5230714025111669 -0.7880723617721239 0.32455856249051207
vn -0.46818793370385153 0.8429558472851354 -0.2650009401151581
vn -0.5230714025111669 0.7880723617721239 -0.32455856249051207
vn 0.690906178807698 0.6750331725010127 0.25880275908220773
vn 0.6236091842530613 0.7379445372638955 0.2579717915540504
vn -0.6236091842530613 -0.7379445372638955 -0.2579717915540504
vn -0.690906178807698 -0.6750331725010127 -0.25880275908220773
vn 0.5218756820623816 0.6937866312631152 0.49629213448583115
vn -0.5218756820623816 -0.6937866312631152 -0.49629213448583115
vn 0.7378296203905805 0.4636830137373569 0.4905155594328625
vn -0.7378296203905805 -0.4636830137373569 -0.4905155594328625
vn 0.729119895678884 0.19754970085500007 0.6552543730623347
vn -0.729119895678884 -0.19754970085500007 -0.6552543730623347
vn 0.6863595236706727 -0.09796418403279766 0.7206341810609287
vn -0.6863595236706727 0.09796418403279766 -0.7206341810609287
vn 0.5963447463185245 -0.31686171830709053 0.7375443003710166
vn 0.6375882401817368 -0.3846580482029383 0.6674724128641286
vn -0.6375882401817368 0.3846580482029383 -0.6674724128641286
vn -0.5963447463185245 0.31686171830709053 -0.7375443003710166
vn 0.6128330332964589 -0.6128330332962524 0.4988700698594533
vn -0.6128330332964589 0.6128330332962524 -0.4988700698594533
vn 0.5869845783535826 -0.7241591742118051 0.3619980596356053
vn -0.5869845783535826 0.7241591742118051 -0.3619980596356053
vn -0.5822475423592428 -0.410336604451937 -0.7018629997823481
vn 0.5822475423592428 0.410336604451937 0.7018629997823481
vn -0.3455946007162009 -0.36146760765136304 -0.8659708658925022
vn -0.40956369898701667 -0.2952283540405902 -0.8631904746013804
vn 0.3455946007162009 0.36146760765136304 0.8659708658925022
vn 0.40956369898701667 0.2952283540405902 0.8631904746013804
vn -0.3534421878239941 -0.6275887967976662 -0.6936936802366345
vn 0.3534421878239941 0.6275887967976662 0.6936936802366345
vn -0.30168183082435346 -0.8332520358488479 -0.46333477929486017
vn 0.30168183082435346 0.8332520358488479 0.46333477929486017
vn -0.17618439415607512 -0.9605081125089239 -0.21536765091443308
vn 0.17618439415607512 0.9605081125089239 0.21536765091443308
vn 0.022499456060774622 -0.999746855197339 0
vn -0.08331664920190143 -0.9965231236483011 0
vn 0.08331664920190143 0.9965231236483011 0
vn -0.022499456060774622 0.999746855197339 0
vn 0.2720984577529603 -0.9535676138988627 0.12911713678551673
vn -0.2720984577529603 0.9535676138988627 -0.12911713678551673
vn 0.4260743286146181 -0.8850694381184627 0.18738398065008371
vn -0.4260743286146181 0.8850694381184627 -0.18738398065008371
vn 0.7149987443040163 0.6991257366480511 0
vn 0.6476243929972758 0.7619597401404551 0
vn -0.6476243929972758 -0.7619597401404551 0
vn -0.7149987443040163 -0.6991257366480511 0
vn 0.5919921033535123 0.7639030534582059 0.25689973624804235
vn -0.5919921033535123 -0.7639030534582059 -0.25689973624804235
vn 0.8071299263122236 0.5329833275542265 0.2539095401918738
vn -0.8071299263122236 -0.5329833275542265 -0.2539095401918738
vn 0.8332520358488433 0.30168183082435784 0.46333477929486516
vn -0.8332520358488433 -0.30168183082435784 -0.46333477929486516
vn 0.8082201880894906 0.023896471737115448 0.5883953485566533
vn -0.8082201880894906 -0.023896471737115448 -0.5883953485566533
vn 0.7265631700980527 -0.18664329135503052 0.6612641239695599
vn 0.7554349765039118 -0.26681129563445827 0.5984394111323181
vn -0.7554349765039118 0.26681129563445827 -0.5984394111323181
vn -0.7265631700980527 0.18664329135503052 -0.6612641239695599
vn 0.7041326323474094 -0.5215334322759351 0.4818714715377852
vn -0.7041326323474094 0.5215334322759351 -0.4818714715377852
vn 0.6555718789945992 -0.6555718789940884 0.37476795880071023
vn -0.6555718789945992 0.6555718789940884 -0.37476795880071023
vn -0.43688699328182373 -0.26497604633426103 -0.8596030769897415
vn 0.43688699328182373 0.26497604633426103 0.8596030769897415
vn -0.1750646738812549 -0.19093767982225737 -0.9658649814456176
vn -0.23958126933054605 -0.12524591893698245 -0.9627638730112358
vn 0.1750646738812549 0.19093767982225737 0.9658649814456176
vn 0.23958126933054605 0.12524591893698245 0.9627638730112358
vn -0.2097735631118358 -0.48392016625511575 -0.8495977430001715
vn 0.2097735631118358 0.48392016625511575 0.8495977430001715
vn -0.19754970085499376 -0.7291198956788901 -0.6552543730623296
vn 0.19754970085499376 0.7291198956788901 0.6552543730623296
vn -0.11740344985509328 -0.9017271647832322 -0.41605834957865717
vn 0.11740344985509328 0.9017271647832322 0.41605834957865717
vn -0.06491932949384012 -0.978125786587662 -0.19762445767246944
vn 0.039148887789363866 -0.9830974118426318 -0.17884866064126528
vn 0.06491932949384012 0.978125786587662 0.19762445767246944
vn -0.039148887789363866 0.9830974118426318 0.17884866064126528
vn 0.26007863507532264 -0.9655874396331784 0
vn -0.26007863507532264 0.9655874396331784 0
vn 0.399600601641626 -0.9115431551669237 0.09699708983253055
vn -0.399600601641626 0.9115431551669237 -0.09699708983253055
vn 0.6236091842530546 0.7379445372638838 -0.2579717915541012
vn 0.6909061788076911 0.6750331725010008 -0.2588027590822574
vn -0.6909061788076911 -0.6750331725010008 0.2588027590822574
vn -0.6236091842530546 -0.7379445372638838 0.2579717915541012
vn 0.615907513541256 0.7878184656146539 0
vn -0.615907513541256 -0.7878184656146539 0
vn 0.8307669752273873 0.5566203669212418 0
vn -0.8307669752273873 -0.5566203669212418 0
vn 0.898712228642633 0.36714199491250926 0.23983970826336207
vn -0.898712228642633 -0.36714199491250926 -0.23983970826336207
vn 0.9017271647832283 0.11740344985509735 0.41605834957866467
vn -0.9017271647832283 -0.11740344985509735 -0.41605834957866467
vn 0.8383842326498282 -0.07482217969268558 0.5399199198679321
vn 0.8566322747666398 -0.1656139774958546 0.4886237369245733
vn -0.8566322747666398 0.1656139774958546 -0.4886237369245733
vn -0.8383842326498282 0.07482217969268558 -0.5399199198679321
vn 0.7892102606142632 -0.43645578425397547 0.43203415713623167
vn -0.7892102606142632 0.43645578425397547 -0.43203415713623167
vn 0.7241591742118184 -0.5869845783535693 0.3619980596356003
vn -0.7241591742118184 0.5869845783535693 -0.3619980596356003
vn -0.26761100973014124 -0.09570006352804379 -0.9587626637035582
vn 0.26761100973014124 0.09570006352804379 0.9587626637035582
vn 0.007936503616843088 -0.00793650361686385 -0.9999370099264651
vn -0.05716767206040302 0.05716767206061672 -0.9967264993679883
vn -0.007936503616843088 0.00793650361686385 0.9999370099264651
vn 0.05716767206040302 -0.05716767206061672 0.9967264993679883
vn -0.04246785257998732 -0.31661444525857185 -0.9476031735652065
vn 0.04246785257998732 0.31661444525857185 0.9476031735652065
vn -0.06184205246336402 -0.5934122514154105 -0.8025194455072178
vn 0.06184205246336402 0.5934122514154105 0.8025194455072178
vn -0.02389647173710968 -0.8082201880894962 -0.588395348556646
vn 0.02389647173710968 0.8082201880894962 0.588395348556646
vn -0.010981103132231334 -0.9241875716682247 -0.3817810206754512
vn 0.08796258214571191 -0.9342836964863066 -0.3455091295785707
vn 0.010981103132231334 0.9241875716682247 0.3817810206754512
vn -0.08796258214571191 0.9342836964863066 0.3455091295785707
vn 0.2720984577529568 -0.9535676138988686 -0.1291171367854803
vn -0.2720984577529568 0.9535676138988686 0.1291171367854803
vn 0.3905709224651203 -0.9205728404231492 0
vn -0.3905709224651203 0.9205728404231492 0
vn 0.5532001566446478 0.6675355031021527 -0.49836325986823365
vn 0.6202703670087444 0.6043973598624519 -0.4999685022100244
vn -0.6202703670087444 -0.6043973598624519 0.4999685022100244
vn -0.5532001566446478 -0.6675355031021527 0.49836325986823365
vn 0.5919921033535053 0.7639030534581941 -0.25689973624809337
vn -0.5919921033535053 -0.7639030534581941 0.25689973624809337
vn 0.8071299263122167 0.532983327554215 -0.25390954019191997
vn -0.8071299263122167 -0.532983327554215 0.25390954019191997
vn 0.9210394753293082 0.38946923483776286 0
vn -0.9210394753293082 -0.38946923483776286 0
vn 0.9605081125089219 0.17618439415607745 0.21536765091444054
vn -0.9605081125089219 -0.17618439415607745 -0.21536765091444054
vn 0.9241875716682212 0.010981103132235043 0.3817810206754599
vn 0.9342836964863034 -0.08796258214570847 0.3455091295785803
vn -0.9342836964863034 0.08796258214570847 -0.3455091295785803
vn -0.9241875716682212 -0.010981103132235043 -0.3817810206754599
vn 0.8622680687549299 -0.3633979641565319 0.35275444327822614
vn -0.8622680687549299 0.3633979641565319 -0.35275444327822614
vn 0.7880723617721358 -0.5230714025111549 0.3245585624905024
vn -0.7880723617721358 0.5230714025111549 -0.3245585624905024
vn -0.0859554737836004 0.08595547378347128 -0.9925841591791074
vn -0.08595547378360707 0.0859554737834646 -0.9925841591791074
vn 0.0859554737836004 -0.08595547378347128 0.9925841591791074
vn 0.08595547378360707 -0.0859554737834646 0.9925841591791074
vn 0.19093767982222215 0.1750646738812197 -0.9658649814456308
vn 0.12524591893694736 0.23958126933051105 -0.9627638730112491
vn -0.19093767982222215 -0.1750646738812197 0.9658649814456308
vn -0.12524591893694736 -0.23958126933051105 0.9627638730112491
vn 0.13707330064307632 -0.13707330064316395 -0.9810309987465237
vn -0.13707330064307632 0.13707330064316395 0.9810309987465237
vn 0.09619283536312515 -0.43537738784921626 -0.8950941115739708
vn -0.09619283536312515 0.43537738784921626 0.8950941115739708
vn 0.09796418403280464 -0.6863595236706794 -0.7206341810609213
vn -0.09796418403280464 0.6863595236706794 0.7206341810609213
vn 0.07482217969269081 -0.8383842326498332 -0.5399199198679235
vn 0.16561397749585935 -0.8566322747666445 -0.48862373692456373
vn -0.07482217969269081 0.8383842326498332 0.5399199198679235
vn -0.16561397749585935 0.8566322747666445 0.48862373692456373
vn 0.30733874936445393 -0.918327299561683 -0.24943508979059148
vn -0.30733874936445393 0.918327299561683 0.24943508979059148
vn 0.39960060164162337 -0.9115431551669282 -0.0969970898324995
vn -0.39960060164162337 0.9115431551669282 0.0969970898324995
vn 0.4411955686615941 0.555530917193791 -0.7047920758884836
vn 0.5079050015278262 0.4920319951027494 -0.7070622498890935
vn -0.5079050015278262 -0.4920319951027494 0.7070622498890935
vn -0.4411955686615941 -0.555530917193791 0.7047920758884836
vn 0.5218756820623682 0.6937866312630925 -0.496292134485877
vn -0.5218756820623682 -0.6937866312630925 0.496292134485877
vn 0.7378296203905673 0.46368301373733434 -0.49051555943290365
vn -0.7378296203905673 -0.46368301373733434 0.49051555943290365
vn 0.8987122286426266 0.3671419949124983 -0.2398397082634031
vn -0.8987122286426266 -0.3671419949124983 0.2398397082634031
vn 0.9805571980747005 0.1962334867037035 0
vn -0.9805571980747005 -0.1962334867037035 0
vn 0.978125807794959 0.06491933090139469 0.1976243522463118
vn 0.9830974118426301 -0.03914888778936203 0.17884866064127497
vn -0.9830974118426301 0.03914888778936203 -0.17884866064127497
vn -0.978125807794959 -0.06491933090139469 -0.1976243522463118
vn 0.9183272995616806 -0.30733874936445144 0.2494350897906031
vn -0.9183272995616806 0.30733874936445144 -0.2494350897906031
vn 0.842955847285145 -0.46818793370384176 0.2650009401151444
vn -0.842955847285145 0.46818793370384176 -0.2650009401151444
vn 0.09570006352800883 0.2676110097301064 -0.9587626637035717
vn -0.09570006352800883 -0.2676110097301064 0.9587626637035717
vn 0.36146760765133146 0.3455946007161694 -0.865970865892528
vn 0.29522835404055875 0.40956369898698525 -0.8631904746014061
vn -0.36146760765133146 -0.3455946007161694 0.865970865892528
vn -0.29522835404055875 -0.40956369898698525 0.8631904746014061
vn 0.3166144452585373 0.042467852579952864 -0.9476031735652198
vn -0.3166144452585373 -0.042467852579952864 0.9476031735652198
vn 0.26578511417322964 -0.26578511417342376 -0.9266695992465402
vn -0.26578511417322964 0.26578511417342376 0.9266695992465402
vn 0.23987393299132828 -0.5444497728480513 -0.8037629881482333
vn -0.23987393299132828 0.5444497728480513 0.8037629881482333
vn 0.18664329135503685 -0.7265631700980588 -0.6612641239695513
vn 0.2668112956344641 -0.7554349765039176 -0.5984394111323087
vn -0.18664329135503685 0.7265631700980588 0.6612641239695513
vn -0.2668112956344641 0.7554349765039176 0.5984394111323087
vn 0.3633979641565353 -0.8622680687549333 -0.35275444327821454
vn -0.3633979641565353 0.8622680687549333 0.35275444327821454
vn 0.42607432861461303 -0.8850694381184714 -0.1873839806500546
vn -0.42607432861461303 0.8850694381184714 0.1873839806500546
vn 0.4103366044519113 0.5822475423592172 -0.7018629997823843
vn -0.4103366044519113 -0.5822475423592172 0.7018629997823843
vn 0.627588796797641 0.353442187823969 -0.6936936802366702
vn -0.627588796797641 -0.353442187823969 0.6936936802366702
vn 0.833252035848831 0.30168183082433675 -0.4633347792949015
vn -0.833252035848831 -0.30168183082433675 0.4633347792949015
vn 0.960508112508916 0.17618439415606754 -0.21536765091447443
vn -0.960508112508916 -0.17618439415606754 0.21536765091447443
vn 0.9965231236483011 0.0833166492019016 0
vn 0.9997468551973391 -0.02249945606077445 0
vn -0.9997468551973391 0.02249945606077445 0
vn -0.9965231236483011 -0.0833166492019016 0
vn 0.9535676138988674 -0.27209845775295566 0.12911713678549191
vn -0.9535676138988674 0.27209845775295566 -0.12911713678549191
vn 0.8850694381184696 -0.4260743286146111 0.187383980650067
vn -0.8850694381184696 0.4260743286146111 -0.187383980650067
vn 0.26497604633422966 0.4368869932817925 -0.8596030769897669
vn -0.26497604633422966 -0.4368869932817925 0.8596030769897669
vn 0.4839201662550848 0.20977356311180498 -0.8495977430001967
vn -0.4839201662550848 -0.20977356311180498 0.8495977430001967
vn 0.43537738784918373 -0.09619283536315765 -0.895094111573983
vn -0.43537738784918373 0.09619283536315765 0.895094111573983
vn 0.3921618484607821 -0.39216184846090707 -0.8321166800536732
vn -0.3921618484607821 0.39216184846090707 0.8321166800536732
vn 0.3168617183070976 -0.5963447463185315 -0.7375443003710082
vn 0.38465804820294475 -0.6375882401817429 -0.667472412864119
vn -0.3168617183070976 0.5963447463185315 0.7375443003710082
vn -0.38465804820294475 0.6375882401817429 0.667472412864119
vn 0.4364557842539795 -0.7892102606142672 -0.43203415713621995
vn -0.4364557842539795 0.7892102606142672 0.43203415713621995
vn 0.46818793370384443 -0.8429558472851475 -0.26500094011513203
vn -0.46818793370384443 0.8429558472851475 0.26500094011513203
vn 0.7291198956788665 0.19754970085497003 -0.6552543730623634
vn -0.7291198956788665 -0.19754970085497003 0.6552543730623634
vn 0.9017271647832171 0.11740344985507822 -0.4160583495786943
vn -0.9017271647832171 -0.11740344985507822 0.4160583495786943
vn 0.9781258077949536 0.0649193309013857 -0.19762435224634115
vn 0.9830974118426253 -0.03914888778937018 -0.17884866064129967
vn -0.9830974118426253 0.03914888778937018 0.17884866064129967
vn -0.9781258077949536 -0.0649193309013857 0.19762435224634115
vn 0.9655874396331786 -0.26007863507532264 0
vn -0.9655874396331786 0.26007863507532264 0
vn 0.9115431551669274 -0.39960060164162226 0.09699708983251192
vn -0.9115431551669274 0.39960060164162226 -0.09699708983251192
vn 0.5934122514153812 0.06184205246333488 -0.8025194455072415
vn -0.5934122514153812 -0.06184205246333488 0.8025194455072415
vn 0.5444497728480222 -0.2398739329913574 -0.8037629881482443
vn -0.5444497728480222 0.2398739329913574 0.8037629881482443
vn 0.45660323014018556 -0.45660323014042087 -0.7635620344483366
vn 0.5111231491353596 -0.5111231491354836 -0.6910182724326318
vn -0.45660323014018556 0.45660323014042087 0.7635620344483366
vn -0.5111231491353596 0.5111231491354836 0.6910182724326318
vn 0.5215334322759397 -0.7041326323474141 -0.48187147153777365
vn -0.5215334322759397 0.7041326323474141 0.48187147153777365
vn 0.5230714025111581 -0.7880723617721388 -0.32455856249049
vn -0.5230714025111581 0.7880723617721388 0.32455856249049
vn 0.8082201880894747 0.023896471737088417 -0.5883953485566762
vn -0.8082201880894747 -0.023896471737088417 0.5883953485566762
vn 0.9241875716682109 0.010981103132217509 -0.38178102067548525
vn 0.9342836964862942 -0.0879625821457243 -0.3455091295786016
vn -0.9342836964862942 0.0879625821457243 0.3455091295786016
vn -0.9241875716682109 -0.010981103132217509 0.38178102067548525
vn 0.9535676138988639 -0.27209845775296154 -0.12911713678550515
vn -0.9535676138988639 0.27209845775296154 0.12911713678550515
vn 0.9205728404231494 -0.3905709224651202 0
vn -0.9205728404231494 0.3905709224651202 0
vn 0.6863595236706533 -0.09796418403283073 -0.7206341810609428
vn -0.6863595236706533 0.09796418403283073 0.7206341810609428
vn 0.5963447463185048 -0.3168617183071244 -0.7375443003710183
vn 0.6375882401817187 -0.3846580482029689 -0.6674724128641282
vn -0.6375882401817187 0.3846580482029689 0.6674724128641282
vn -0.5963447463185048 0.3168617183071244 0.7375443003710183
vn 0.6128330332962516 -0.6128330332964691 -0.4988700698594417
vn -0.6128330332962516 0.6128330332964691 0.4988700698594417
vn 0.5869845783535729 -0.7241591742118217 -0.3619980596355878
vn -0.5869845783535729 0.7241591742118217 0.3619980596355878
vn 0.8566322747666268 -0.16561397749587703 -0.4886237369245889
vn 0.8383842326498137 -0.07482217969271031 -0.5399199198679514
vn -0.8383842326498137 0.07482217969271031 0.5399199198679514
vn -0.8566322747666268 0.16561397749587703 0.4886237369245889
vn 0.9183272995616738 -0.3073387493644629 -0.24943508979061377
vn -0.9183272995616738 0.3073387493644629 0.24943508979061377
vn 0.9115431551669247 -0.39960060164162675 -0.09699708983251813
vn -0.9115431551669247 0.39960060164162675 0.09699708983251813
vn 0.7265631700980348 -0.1866432913550609 -0.6612641239695709
vn 0.7554349765038957 -0.2668112956344857 -0.5984394111323265
vn -0.7554349765038957 0.2668112956344857 0.5984394111323265
vn -0.7265631700980348 0.1866432913550609 0.6612641239695709
vn 0.7041326323473964 -0.5215334322759573 -0.48187147153778037
vn -0.7041326323473964 0.5215334322759573 0.48187147153778037
vn 0.6555718789940373 -0.6555718789946575 -0.3747679588006978
vn -0.6555718789940373 0.6555718789946575 0.3747679588006978
vn 0.8622680687549205 -0.36339796415654807 -0.35275444327823274
vn -0.8622680687549205 0.36339796415654807 0.35275444327823274
vn 0.8850694381184647 -0.42607432861461986 -0.18738398065007136
vn -0.8850694381184647 0.42607432861461986 0.18738398065007136
vn 0.7892102606142516 -0.4364557842539953 -0.4320341571362329
vn -0.7892102606142516 0.4364557842539953 0.4320341571362329
vn 0.7241591742118086 -0.586984578353586 -0.36199805963559284
vn -0.7241591742118086 0.586984578353586 0.36199805963559284
vn 0.8429558472851378 -0.4681879337038538 -0.26500094011514563
vn -0.8429558472851378 0.4681879337038538 0.26500094011514563
vn 0.7880723617721271 -0.5230714025111698 -0.32455856249049964
vn -0.7880723617721271 0.5230714025111698 0.32455856249049964
usemtl material_0_0
f 1//1 2//2 3//3
f 2//2 1//1 4//4
f 5//5 6//6 7//7
f 8//8 7//7 6//6
f 4//4 9//9 2//2
f 9//9 4//4 10//10
f 11//11 5//5 12//12
f 7//7 12//12 5//5
f 13//13 14//14 15//13
f 14//14 13//13 16//14
f 17//15 18//16 19//15
f 20//16 19//15 18//16
f 3//3 21//17 1//1
f 21//17 3//3 22//18
f 23//19 8//8 24//20
f 6//6 24//20 8//8
f 25//21 4//4 1//1
f 4//4 25//21 26//22
f 27//23 28//24 5//5
f 6//6 5//5 28//24
f 10//10 29//25 9//9
f 29//25 10//10 30//26
f 31//27 11//11 32//28
f 12//12 32//28 11//11
f 16//14 33//29 14//14
f 33//29 16//14 34//29
f 35//30 17//15 36//30
f 19//15 36//30 17//15
f 26//22 10//10 4//4
f 10//10 26//22 37//31
f 38//32 27//23 11//11
f 5//5 11//11 27//23
f 15//13 39//33 13//13
f 39//33 15//13 40//33
f 41//34 20//16 42//34
f 18//16 42//34 20//16
f 22//18 43//35 21//17
f 43//35 22//18 44//36
f 45//37 23//19 46//38
f 24//20 46//38 23//19
f 21//17 25//21 1//1
f 25//21 21//17 47//39
f 48//40 24//20 28//24
f 6//6 28//24 24//20
f 49//41 26//22 25//21
f 26//22 49//41 50//42
f 51//43 52//44 27//23
f 28//24 27//23 52//44
f 30//26 53//45 29//25
f 53//45 30//26 54//46
f 55//47 31//27 56//48
f 32//28 56//48 31//27
f 34//29 57//49 33//29
f 57//49 34//29 58//50
f 59//51 35//30 60//52
f 36//30 60//52 35//30
f 37//31 30//26 10//10
f 30//26 37//31 61//53
f 62//54 38//32 31//27
f 11//11 31//27 38//32
f 50//42 37//31 26//22
f 37//31 50//42 63//55
f 64//56 51//43 38//32
f 27//23 38//32 51//43
f 40//33 65//57 39//33
f 65//57 40//33 66//57
f 67//58 41//34 68//58
f 42//34 68//58 41//34
f 44//36 69//59 43//35
f 69//59 44//36 70//60
f 71//61 45//37 72//62
f 46//38 72//62 45//37
f 43//35 47//39 21//17
f 47//39 43//35 73//63
f 74//64 46//38 48//40
f 24//20 48//40 46//38
f 47//39 49//41 25//21
f 49//41 47//39 75//65
f 76//66 48//40 52//44
f 28//24 52//44 48//40
f 77//67 50//42 49//41
f 50//42 77//67 78//68
f 79//69 80//70 51//43
f 52//44 51//43 80//70
f 54//46 81//71 53//45
f 81//71 54//46 82//72
f 83//73 55//47 84//74
f 56//48 84//74 55//47
f 58//50 85//75 57//49
f 85//75 58//50 86//75
f 87//76 59//51 88//76
f 60//52 88//76 59//51
f 61//53 54//46 30//26
f 54//46 61//53 89//77
f 90//78 62//54 55//47
f 31//27 55//47 62//54
f 63//55 61//53 37//31
f 61//53 63//55 91//79
f 92//80 64//56 62//54
f 38//32 62//54 64//56
f 78//68 63//55 50//42
f 63//55 78//68 93//81
f 94//82 79//69 64//56
f 51//43 64//56 79//69
f 66//57 95//83 65//57
f 95//83 66//57 96//83
f 97//84 67//58 98//84
f 68//58 98//84 67//58
f 99//85 69//59 70//60
f 69//59 99//85 100//86
f 101//87 102//88 72//62
f 71//61 72//62 102//88
f 69//59 73//63 43//35
f 73//63 69//59 103//89
f 104//90 72//62 74//64
f 46//38 74//64 72//62
f 73//63 75//65 47//39
f 75//65 73//63 105//91
f 106//92 74//64 76//66
f 48//40 76//66 74//64
f 75//65 77//67 49//41
f 77//67 75//65 107//93
f 108//94 76//66 80//70
f 52//44 80//70 76//66
f 109//95 110//96 111//97
f 110//96 109//95 78//68
f 110//96 78//68 112//98
f 112//98 78//68 77//67
f 80//70 79//69 113//99
f 113//99 79//69 114//100
f 79//69 115//101 114//100
f 116//102 114//100 115//101
f 82//72 117//103 81//71
f 117//103 82//72 118//104
f 119//105 83//73 120//106
f 84//74 120//106 83//73
f 86//75 121//107 85//75
f 121//107 86//75 122//107
f 123//108 87//76 124//108
f 88//76 124//108 87//76
f 89//77 82//72 54//46
f 82//72 89//77 125//109
f 126//110 90//78 83//73
f 55//47 83//73 90//78
f 91//79 89//77 61//53
f 89//77 91//79 127//111
f 128//112 92//80 90//78
f 62//54 90//78 92//80
f 93//81 91//79 63//55
f 91//79 93//81 129//113
f 130//114 94//82 92//80
f 64//56 92//80 94//82
f 131//115 111//97 132//116
f 111//97 131//115 93//81
f 111//97 93//81 78//68
f 111//97 78//68 109//95
f 115//101 79//69 116//102
f 79//69 94//82 116//102
f 94//82 133//117 116//102
f 134//118 116//102 133//117
f 96//83 135//119 95//83
f 135//119 96//83 136//119
f 137//120 97//84 138//120
f 98//84 138//120 97//84
f 139//121 100//86 99//85
f 100//86 139//121 140//122
f 141//123 142//124 101//87
f 102//88 101//87 142//124
f 69//59 143//125 103//89
f 143//125 69//59 100//86
f 101//87 72//62 144//126
f 104//90 144//126 72//62
f 103//89 105//91 73//63
f 105//91 103//89 145//127
f 146//128 104//90 106//92
f 74//64 106//92 104//90
f 105//91 107//93 75//65
f 107//93 105//91 147//129
f 148//130 106//92 108//94
f 76//66 108//94 106//92
f 112//98 149//131 110//96
f 149//131 112//98 77//67
f 149//131 77//67 150//132
f 150//132 77//67 107//93
f 108//94 80//70 151//133
f 151//133 80//70 152//134
f 80//70 113//99 152//134
f 114//100 152//134 113//99
f 111//97 153//135 154//136
f 153//135 111//97 110//96
f 114//100 116//102 155//137
f 156//138 155//137 116//102
f 157//139 117//103 118//104
f 117//103 157//139 158//140
f 159//141 160//142 120//106
f 119//105 120//106 160//142
f 122//107 161//143 121//107
f 161//143 122//107 162//143
f 163//144 123//108 164//144
f 124//108 164//144 123//108
f 125//109 118//104 82//72
f 118//104 125//109 165//145
f 166//146 126//110 119//105
f 83//73 119//105 126//110
f 127//111 125//109 89//77
f 125//109 127//111 167//147
f 168//148 128//112 126//110
f 90//78 126//110 128//112
f 129//113 127//111 91//79
f 127//111 129//113 169//149
f 170//150 130//114 128//112
f 92//80 128//112 130//114
f 93//81 171//151 129//113
f 171//151 93//81 172//152
f 172//152 93//81 132//116
f 132//116 93//81 131//115
f 133//117 94//82 134//118
f 134//118 94//82 173//153
f 173//153 94//82 174//154
f 130//114 174//154 94//82
f 132//116 154//136 175//155
f 154//136 132//116 111//97
f 116//102 134//118 156//138
f 176//156 156//138 134//118
f 177//157 135//119 136//119
f 135//119 177//157 178//157
f 179//158 180//158 138//120
f 137//120 138//120 180//158
f 181//159 140//122 139//121
f 140//122 181//159 182//160
f 183//161 184//162 141//123
f 142//124 141//123 184//162
f 100//86 185//163 143//125
f 185//163 100//86 140//122
f 141//123 101//87 186//164
f 144//126 186//164 101//87
f 143//125 145//127 103//89
f 145//127 143//125 187//165
f 188//166 144//126 146//128
f 104//90 146//128 144//126
f 145//127 147//129 105//91
f 147//129 145//127 189//167
f 190//168 146//128 148//130
f 106//92 148//130 146//128
f 150//132 191//169 149//131
f 191//169 150//132 107//93
f 191//169 107//93 192//170
f 192//170 107//93 147//129
f 148//130 108//94 193//171
f 193//171 108//94 194//172
f 108//94 151//133 194//172
f 152//134 194//172 151//133
f 110//96 195//173 153//135
f 195//173 110//96 149//131
f 152//134 114//100 196//174
f 155//137 196//174 114//100
f 154//136 197//175 198//176
f 197//175 154//136 153//135
f 155//137 156//138 199//177
f 200//178 199//177 156//138
f 201//179 158//140 157//139
f 158//140 201//179 202//180
f 203//181 204//182 159//141
f 160//142 159//141 204//182
f 205//183 161//143 162//143
f 161//143 205//183 206//183
f 207//184 208//184 164//144
f 163//144 164//144 208//184
f 165//145 157//139 118//104
f 157//139 165//145 209//185
f 210//186 166//146 160//142
f 119//105 160//142 166//146
f 167//147 165//145 125//109
f 165//145 167//147 211//187
f 212//188 168//148 166//146
f 126//110 166//146 168//148
f 169//149 167//147 127//111
f 167//147 169//149 213//189
f 214//190 170//150 168//148
f 128//112 168//148 170//150
f 129//113 215//191 169//149
f 215//191 129//113 216//192
f 216//192 129//113 171//151
f 216//192 171//151 172//152
f 173//153 174//154 217//193
f 174//154 130//114 217//193
f 217//193 130//114 218//194
f 170//150 218//194 130//114
f 132//116 219//195 172//152
f 219//195 132//116 175//155
f 176//156 134//118 220//196
f 173//153 220//196 134//118
f 175//155 198//176 221//197
f 198//176 175//155 154//136
f 156//138 176//156 200//178
f 222//198 200//178 176//156
f 223//199 178//157 177//157
f 178//157 223//199 224//199
f 225//200 226//200 179//158
f 180//158 179//158 226//200
f 227//201 181//159 228//202
f 181//159 227//201 182//160
f 183//161 229//203 184//162
f 230//204 184//162 229//203
f 140//122 231//205 185//163
f 231//205 140//122 182//160
f 183//161 141//123 232//206
f 186//164 232//206 141//123
f 143//125 233//207 187//165
f 233//207 143//125 185//163
f 186//164 144//126 234//208
f 188//166 234//208 144//126
f 187//165 189//167 145//127
f 189//167 187//165 235//209
f 236//210 188//166 190//168
f 146//128 190//168 188//166
f 192//170 237//211 191//169
f 237//211 192//170 147//129
f 237//211 147//129 238//212
f 238//212 147//129 189//167
f 190//168 148//130 239//213
f 239//213 148//130 240//214
f 148//130 193//171 240//214
f 194//172 240//214 193//171
f 149//131 241//215 195//173
f 241//215 149//131 191//169
f 194//172 152//134 242//216
f 196//174 242//216 152//134
f 153//135 243//217 197//175
f 243//217 153//135 195//173
f 196//174 155//137 244//218
f 199//177 244//218 155//137
f 245//219 202//180 201//179
f 202//180 245//219 246//220
f 247//221 248//222 203//181
f 204//182 203//181 248//222
f 249//223 206//183 205//183
f 206//183 249//223 250//223
f 251//224 252//224 207//184
f 208//184 207//184 252//224
f 209//185 201//179 157//139
f 201//179 209//185 253//225
f 254//226 210//186 204//182
f 160//142 204//182 210//186
f 211//187 209//185 165//145
f 209//185 211//187 255//227
f 256//228 212//188 210//186
f 166//146 210//186 212//188
f 213//189 211//187 167//147
f 211//187 213//189 257//229
f 258//230 214//190 212//188
f 168//148 212//188 214//190
f 169//149 259//231 213//189
f 259//231 169//149 260//232
f 260//232 169//149 216//192
f 216//192 169//149 215//191
f 218//194 170//150 217//193
f 217//193 170//150 261//233
f 261//233 170//150 262//234
f 214//190 262//234 170//150
f 172//152 263//235 216//192
f 263//235 172//152 219//195
f 220//196 173//153 264//236
f 217//193 264//236 173//153
f 175//155 265//237 219//195
f 265//237 175//155 221//197
f 222//198 176//156 266//238
f 220//196 266//238 176//156
f 267//239 223//199 268//239
f 223//199 267//239 224//199
f 225//200 269//240 226//200
f 270//240 226//200 269//240
f 271//241 228//202 272//242
f 228//202 271//241 227//201
f 229//203 273//243 230//204
f 274//244 230//204 273//243
f 275//245 182//160 227//201
f 182//160 275//245 231//205
f 232//206 276//246 183//161
f 229//203 183//161 276//246
f 185//163 277//247 233//207
f 277//247 185//163 231//205
f 232//206 186//164 278//248
f 234//208 278//248 186//164
f 187//165 279//249 235//209
f 279//249 187//165 233//207
f 234//208 188//166 280//250
f 236//210 280//250 188//166
f 237//211 281//251 282//252
f 281//251 237//211 235//209
f 235//209 237//211 238//212
f 235//209 238//212 189//167
f 190//168 239//213 236//210
f 239//213 240//214 236//210
f 236//210 240//214 283//253
f 284//254 283//253 240//214
f 191//169 285//255 241//215
f 285//255 191//169 237//211
f 240//214 194//172 286//256
f 242//216 286//256 194//172
f 195//173 287//257 243//217
f 287//257 195//173 241//215
f 242//216 196//174 288//258
f 244//218 288//258 196//174
f 245//219 289//259 246//220
f 289//259 245//219 290//260
f 291//261 248//222 292//262
f 247//221 292//262 248//222
f 293//263 250//223 249//223
f 250//223 293//263 294//263
f 295//264 296//264 251//224
f 252//224 251//224 296//264
f 253//225 245//219 201//179
f 245//219 253//225 297//265
f 298//266 254//226 248//222
f 204//182 248//222 254//226
f 255//227 253//225 209//185
f 253//225 255//227 299//267
f 300//268 256//228 254//226
f 210//186 254//226 256//228
f 257//229 255//227 211//187
f 255//227 257//229 301//269
f 302//270 258//230 256//228
f 212//188 256//228 258//230
f 213//189 303//271 257//229
f 303//271 213//189 304//272
f 304//272 213//189 260//232
f 260//232 213//189 259//231
f 262//234 214//190 261//233
f 261//233 214//190 305//273
f 305//273 214//190 306//274
f 258//230 306//274 214//190
f 216//192 307//275 260//232
f 307//275 216//192 263//235
f 264//236 217//193 308//276
f 261//233 308//276 217//193
f 219//195 309//277 263//235
f 309//277 219//195 265//237
f 266//238 220//196 310//278
f 264//236 310//278 220//196
f 311//279 268//239 312//279
f 268//239 311//279 267//239
f 269//240 313//280 270//240
f 314//280 270//240 313//280
f 315//281 272//242 316//282
f 272//242 315//281 271//241
f 273//243 317//283 274//244
f 318//284 274//244 317//283
f 319//285 227//201 271//241
f 227//201 319//285 275//245
f 276//246 320//286 229//203
f 273//243 229//203 320//286
f 321//287 231//205 275//245
f 231//205 321//287 277//247
f 278//248 322//288 232//206
f 276//246 232//206 322//288
f 233//207 323//289 279//249
f 323//289 233//207 277//247
f 278//248 234//208 324//290
f 280//250 324//290 234//208
f 282//252 325//291 326//292
f 325//291 282//252 279//249
f 279//249 282//252 281//251
f 279//249 281//251 235//209
f 236//210 283//253 280//250
f 283//253 284//254 280//250
f 280//250 284//254 327//293
f 328//294 327//293 284//254
f 285//255 282//252 329//295
f 282//252 285//255 237//211
f 240//214 286//256 284//254
f 330//296 284//254 286//256
f 241//215 331//297 287//257
f 331//297 241//215 285//255
f 286//256 242//216 332//298
f 288//258 332//298 242//216
f 290//260 333//299 289//259
f 333//299 290//260 334//300
f 335//301 291//261 336//302
f 292//262 336//302 291//261
f 293//263 337//303 294//263
f 337//303 293//263 338//303
f 339//304 296//264 340//304
f 295//264 340//304 296//264
f 341//305 245//219 297//265
f 245//219 341//305 290//260
f 291//261 342//306 248//222
f 298//266 248//222 342//306
f 299//267 297//265 253//225
f 297//265 299//267 343//307
f 344//308 300//268 298//266
f 254//226 298//266 300//268
f 301//269 299//267 255//227
f 299//267 301//269 345//309
f 346//310 302//270 300//268
f 256//228 300//268 302//270
f 257//229 347//311 301//269
f 347//311 257//229 348//312
f 348//312 257//229 304//272
f 304//272 257//229 303//271
f 306//274 258//230 305//273
f 305//273 258//230 349//313
f 349//313 258//230 350//314
f 302//270 350//314 258//230
f 260//232 351//315 304//272
f 351//315 260//232 307//275
f 308//276 261//233 352//316
f 305//273 352//316 261//233
f 263//235 353//317 307//275
f 353//317 263//235 309//277
f 310//278 264//236 354//318
f 308//276 354//318 264//236
f 355//319 312//279 356//320
f 312//279 355//319 311//279
f 313//280 357//321 314//280
f 358//322 314//280 357//321
f 359//323 316//282 360//324
f 316//282 359//323 315//281
f 317//283 361//325 318//284
f 362//326 318//284 361//325
f 363//327 271//241 315//281
f 271//241 363//327 319//285
f 320//286 364//328 273//243
f 317//283 273//243 364//328
f 365//329 275//245 319//285
f 275//245 365//329 321//287
f 322//288 366//330 276//246
f 320//286 276//246 366//330
f 367//331 277//247 321//287
f 277//247 367//331 323//289
f 324//290 368//332 278//248
f 322//288 278//248 368//332
f 326//292 369//333 370//334
f 369//333 326//292 323//289
f 323//289 326//292 279//249
f 279//249 326//292 325//291
f 327//293 328//294 280//250
f 280//250 328//294 324//290
f 324//290 328//294 371//335
f 372//336 371//335 328//294
f 329//295 326//292 373//337
f 326//292 329//295 282//252
f 284//254 330//296 328//294
f 374//338 328//294 330//296
f 331//297 329//295 375//339
f 329//295 331//297 285//255
f 286//256 332//298 330//296
f 376//340 330//296 332//298
f 334//300 377//341 333//299
f 377//341 334//300 378//342
f 379//343 335//301 380//344
f 336//302 380//344 335//301
f 338//303 381//345 337//303
f 381//345 338//303 382//345
f 383//346 339//304 384//346
f 340//304 384//346 339//304
f 385//347 290//260 341//305
f 290//260 385//347 334//300
f 335//301 386//348 291//261
f 342//306 291//261 386//348
f 387//349 297//265 343//307
f 297//265 387//349 341//305
f 342//306 388//350 298//266
f 344//308 298//266 388//350
f 345//309 343//307 299//267
f 343//307 345//309 389//351
f 390//352 346//310 344//308
f 300//268 344//308 346//310
f 301//269 391//353 345//309
f 391//353 301//269 347//311
f 391//353 347//311 392//354
f 392//354 347//311 348//312
f 349//313 350//314 393//355
f 393//355 350//314 394//356
f 350//314 302//270 394//356
f 346//310 394//356 302//270
f 304//272 395//357 348//312
f 395//357 304//272 351//315
f 352//316 305//273 396//358
f 349//313 396//358 305//273
f 307//275 397//359 351//315
f 397//359 307//275 353//317
f 354//318 308//276 398//360
f 352//316 398//360 308//276
f 399//361 356//320 400//361
f 356//320 399//361 355//319
f 357//321 401//362 358//322
f 402//362 358//322 401//362
f 403//363 360//324 404//364
f 360//324 403//363 359//323
f 361//325 405//365 362//326
f 406//366 362//326 405//365
f 407//367 315//281 359//323
f 315//281 407//367 363//327
f 364//328 408//368 317//283
f 361//325 317//283 408//368
f 409//369 319//285 363//327
f 319//285 409//369 365//329
f 366//330 410//370 320//286
f 364//328 320//286 410//370
f 411//371 321//287 365//329
f 321//287 411//371 367//331
f 368//332 412//372 322//288
f 366//330 322//288 412//372
f 370//334 413//373 414//374
f 413//373 370//334 367//331
f 367//331 370//334 369//333
f 367//331 369//333 323//289
f 324//290 371//335 368//332
f 371//335 372//336 368//332
f 368//332 372//336 415//375
f 416//376 415//375 372//336
f 373//337 370//334 417//377
f 370//334 373//337 326//292
f 328//294 374//338 372//336
f 418//378 372//336 374//338
f 375//339 373//337 419//379
f 373//337 375//339 329//295
f 330//296 376//340 374//338
f 420//380 374//338 376//340
f 378//342 404//364 377//341
f 404//364 378//342 403//363
f 405//365 379//343 406//366
f 380//344 406//366 379//343
f 382//345 421//381 381//345
f 421//381 382//345 422//381
f 423//382 383//346 424//382
f 384//346 424//382 383//346
f 425//383 334//300 385//347
f 334//300 425//383 378//342
f 379//343 426//384 335//301
f 386//348 335//301 426//384
f 427//385 341//305 387//349
f 341//305 427//385 385//347
f 386//348 428//386 342//306
f 388//350 342//306 428//386
f 429//387 343//307 389//351
f 343//307 429//387 387//349
f 388//350 430//388 344//308
f 390//352 344//308 430//388
f 345//309 431//389 389//351
f 431//389 345//309 391//353
f 431//389 391//353 432//390
f 432//390 391//353 392//354
f 393//355 394//356 433//391
f 433//391 394//356 434//392
f 394//356 346//310 434//392
f 390//352 434//392 346//310
f 348//312 435//393 392//354
f 435//393 348//312 395//357
f 396//358 349//313 436//394
f 393//355 436//394 349//313
f 351//315 437//395 395//357
f 437//395 351//315 397//359
f 398//360 352//316 438//396
f 396//358 438//396 352//316
f 439//397 400//361 440//397
f 400//361 439//397 399//361
f 401//362 441//398 402//362
f 442//398 402//362 441//398
f 443//399 359//323 403//363
f 359//323 443//399 407//367
f 408//368 444//400 361//325
f 405//365 361//325 444//400
f 445//401 363//327 407//367
f 363//327 445//401 409//369
f 410//370 446//402 364//328
f 408//368 364//328 446//402
f 447//403 365//329 409//369
f 365//329 447//403 411//371
f 412//372 448//404 366//330
f 410//370 366//330 448//404
f 414//374 449//405 450//406
f 449//405 414//374 411//371
f 411//371 414//374 367//331
f 367//331 414//374 413//373
f 415//375 416//376 368//332
f 368//332 416//376 412//372
f 412//372 416//376 451//407
f 452//408 451//407 416//376
f 417//377 414//374 453//409
f 414//374 417//377 370//334
f 372//336 418//378 416//376
f 454//410 416//376 418//378
f 419//379 417//377 455//411
f 417//377 419//379 373//337
f 374//338 420//380 418//378
f 456//412 418//378 420//380
f 422//381 440//397 421//381
f 440//397 422//381 439//397
f 441//398 423//382 442//398
f 424//382 442//398 423//382
f 425//383 403//363 378//342
f 403//363 425//383 443//399
f 444//400 426//384 405//365
f 379//343 405//365 426//384
f 457//413 385//347 427//385
f 385//347 457//413 425//383
f 426//384 458//414 386//348
f 428//386 386//348 458//414
f 459//415 387//349 429//387
f 387//349 459//415 427//385
f 428//386 460//416 388//350
f 430//388 388//350 460//416
f 431//389 429//387 389//351
f 429//387 431//389 461//417
f 461//417 431//389 432//390
f 461//417 432//390 462//418
f 463//419 433//391 464//420
f 433//391 434//392 464//420
f 464//420 434//392 430//388
f 390//352 430//388 434//392
f 392//354 465//421 432//390
f 465//421 392//354 435//393
f 436//394 393//355 466//422
f 433//391 466//422 393//355
f 395//357 467//423 435//393
f 467//423 395//357 437//395
f 438//396 396//358 468//424
f 436//394 468//424 396//358
f 469//425 407//367 443//399
f 407//367 469//425 445//401
f 446//402 470//426 408//368
f 444//400 408//368 470//426
f 471//427 409//369 445//401
f 409//369 471//427 447//403
f 448//404 472//428 410//370
f 446//402 410//370 472//428
f 450//406 473//429 474//430
f 473//429 411//371 447//403
f 411//371 473//429 450//406
f 411//371 450//406 449//405
f 451//407 452//408 412//372
f 452//408 475//431 412//372
f 448//404 412//372 475//431
f 476//432 475//431 452//408
f 453//409 450//406 477//433
f 450//406 453//409 414//374
f 416//376 454//410 452//408
f 478//434 452//408 454//410
f 455//411 453//409 479//435
f 453//409 455//411 417//377
f 418//378 456//412 454//410
f 480//436 454//410 456//412
f 457//413 443//399 425//383
f 443//399 457//413 469//425
f 470//426 458//414 444//400
f 426//384 444//400 458//414
f 481//437 427//385 459//415
f 427//385 481//437 457//413
f 458//414 482//438 428//386
f 460//416 428//386 482//438
f 461//417 459//415 429//387
f 459//415 461//417 483//439
f 483//439 461//417 462//418
f 483//439 462//418 484//440
f 485//441 463//419 486//442
f 463//419 464//420 486//442
f 486//442 464//420 460//416
f 430//388 460//416 464//420
f 465//421 462//418 432//390
f 462//418 465//421 487//443
f 488//444 466//422 463//419
f 433//391 463//419 466//422
f 435//393 489//445 465//421
f 489//445 435//393 467//423
f 468//424 436//394 490//446
f 466//422 490//446 436//394
f 491//447 445//401 469//425
f 445//401 491//447 471//427
f 472//428 492//448 446//402
f 470//426 446//402 492//448
f 493//449 447//403 471//427
f 447//403 493//449 494//450
f 447//403 494//450 474//430
f 447//403 474//430 473//429
f 475//431 476//432 448//404
f 476//432 495//451 448//404
f 495//451 496//452 448//404
f 472//428 448//404 496//452
f 477//433 474//430 497//453
f 474//430 477//433 450//406
f 452//408 478//434 476//432
f 498//454 476//432 478//434
f 479//435 477//433 499//455
f 477//433 479//435 453//409
f 454//410 480//436 478//434
f 500//456 478//434 480//436
f 481//437 469//425 457//413
f 469//425 481//437 491//447
f 492//448 482//438 470//426
f 458//414 470//426 482//438
f 483//439 481//437 459//415
f 481//437 483//439 484//440
f 481//437 484//440 501//457
f 481//437 501//457 502//458
f 503//459 504//460 482//438
f 504//460 485//441 482//438
f 485//441 486//442 482//438
f 460//416 482//438 486//442
f 487//443 484//440 462//418
f 484//440 487//443 505//461
f 506//462 488//444 485//441
f 463//419 485//441 488//444
f 489//445 487//443 465//421
f 487//443 489//445 507//463
f 508//464 490//446 488//444
f 466//422 488//444 490//446
f 509//465 471//427 491//447
f 471//427 509//465 510//466
f 471//427 510//466 493//449
f 493//449 510//466 494//450
f 495//451 511//467 496//452
f 496//452 511//467 472//428
f 511//467 512//468 472//428
f 492//448 472//428 512//468
f 513//469 474//430 494//450
f 474//430 513//469 497//453
f 498//454 514//470 476//432
f 495//451 476//432 514//470
f 499//455 497//453 515//471
f 497//453 499//455 477//433
f 478//434 500//456 498//454
f 516//472 498//454 500//456
f 502//458 491//447 481//437
f 491//447 502//458 501//457
f 491//447 501//457 509//465
f 509//465 501//457 510//466
f 511//467 504//460 512//468
f 512//468 504//460 492//448
f 504//460 503//459 492//448
f 482//438 492//448 503//459
f 505//461 501//457 484//440
f 501//457 505//461 517//473
f 518//474 506//462 504//460
f 485//441 504//460 506//462
f 507//463 505//461 487//443
f 505//461 507//463 519//475
f 520//476 508//464 506//462
f 488//444 506//462 508//464
f 521//477 494//450 510//466
f 494//450 521//477 513//469
f 514//470 522//478 495//451
f 511//467 495//451 522//478
f 523//479 497//453 513//469
f 497//453 523//479 515//471
f 516//472 524//480 498//454
f 514//470 498//454 524//480
f 517//473 510//466 501//457
f 510//466 517//473 521//477
f 522//478 518//474 511//467
f 504//460 511//467 518//474
f 519//475 517//473 505//461
f 517//473 519//475 525//481
f 526//482 520//476 518//474
f 506//462 518//474 520//476
f 527//483 513//469 521//477
f 513//469 527//483 523//479
f 524//480 528//484 514//470
f 522//478 514//470 528//484
f 525//481 521//477 517//473
f 521//477 525//481 527//483
f 528//484 526//482 522//478
f 518//474 522//478 526//482
