# SSTK version 0.8.0
# 66
mtllib original-66.mtl
o #ID401
v -0.300630 0.628935 -0.080944
v -0.299760 0.628935 -0.097907
v -0.301311 0.628935 -0.089483
v -0.297761 0.628935 -0.072873
v -0.296080 0.628935 -0.105643
v -0.292902 0.628935 -0.065819
v -0.290525 0.628935 -0.112162
v -0.286382 0.628935 -0.060263
v -0.283471 0.628935 -0.117022
v -0.278647 0.628935 -0.056584
v -0.275399 0.628935 -0.119890
v -0.270223 0.628935 -0.055032
v -0.266861 0.628935 -0.120572
v -0.261684 0.628935 -0.055714
v -0.258436 0.628935 -0.119020
v -0.253612 0.628935 -0.058582
v -0.250701 0.628935 -0.115341
v -0.246559 0.628935 -0.063442
v -0.244181 0.628935 -0.109785
v -0.241003 0.628935 -0.069961
v -0.239322 0.628935 -0.102731
v -0.237324 0.628935 -0.077697
v -0.236453 0.628935 -0.094660
v -0.235772 0.628935 -0.086121
v -0.235772 0.628935 -0.086121
v -0.237324 0.628935 -0.077697
v -0.236453 0.628935 -0.094660
v -0.239322 0.628935 -0.102731
v -0.241003 0.628935 -0.069961
v -0.244181 0.628935 -0.109785
v -0.246559 0.628935 -0.063442
v -0.250701 0.628935 -0.115341
v -0.253612 0.628935 -0.058582
v -0.258436 0.628935 -0.119020
v -0.261684 0.628935 -0.055714
v -0.266861 0.628935 -0.120572
v -0.270223 0.628935 -0.055032
v -0.275399 0.628935 -0.119890
v -0.278647 0.628935 -0.056584
v -0.283471 0.628935 -0.117022
v -0.286382 0.628935 -0.060263
v -0.290525 0.628935 -0.112162
v -0.292902 0.628935 -0.065819
v -0.296080 0.628935 -0.105643
v -0.297761 0.628935 -0.072873
v -0.299760 0.628935 -0.097907
v -0.300630 0.628935 -0.080944
v -0.301311 0.628935 -0.089483
v -0.261684 0.628935 -0.055714
v -0.270223 0.612778 -0.055032
v -0.261684 0.612778 -0.055714
v -0.270223 0.628935 -0.055032
v -0.270223 0.628935 -0.055032
v -0.261684 0.628935 -0.055714
v -0.270223 0.612778 -0.055032
v -0.261684 0.612778 -0.055714
v -0.253612 0.628935 -0.058582
v -0.253612 0.612778 -0.058582
v -0.253612 0.628935 -0.058582
v -0.253612 0.612778 -0.058582
v -0.246559 0.628935 -0.063442
v -0.246559 0.612778 -0.063442
v -0.246559 0.628935 -0.063442
v -0.246559 0.612778 -0.063442
v -0.241003 0.612778 -0.069961
v -0.241003 0.628935 -0.069961
v -0.241003 0.628935 -0.069961
v -0.241003 0.612778 -0.069961
v -0.237324 0.612778 -0.077697
v -0.237324 0.628935 -0.077697
v -0.237324 0.628935 -0.077697
v -0.237324 0.612778 -0.077697
v -0.235772 0.612778 -0.086121
v -0.235772 0.628935 -0.086121
v -0.235772 0.628935 -0.086121
v -0.235772 0.612778 -0.086121
v -0.236113 0.612778 -0.090390
v -0.236453 0.628935 -0.094660
v -0.236453 0.612778 -0.094660
v -0.236453 0.612778 -0.094660
v -0.236113 0.612778 -0.090390
v -0.236453 0.628935 -0.094660
v -0.239322 0.612778 -0.102731
v -0.239322 0.628935 -0.102731
v -0.239322 0.628935 -0.102731
v -0.239322 0.612778 -0.102731
v -0.244181 0.612778 -0.109785
v -0.244181 0.628935 -0.109785
v -0.244181 0.628935 -0.109785
v -0.244181 0.612778 -0.109785
v -0.250701 0.628935 -0.115341
v -0.250701 0.612778 -0.115341
v -0.250701 0.628935 -0.115341
v -0.250701 0.612778 -0.115341
v -0.258436 0.628935 -0.119020
v -0.258436 0.612778 -0.119020
v -0.258436 0.628935 -0.119020
v -0.258436 0.612778 -0.119020
v -0.266861 0.628935 -0.120572
v -0.266861 0.612778 -0.120572
v -0.266861 0.628935 -0.120572
v -0.266861 0.612778 -0.120572
v -0.275399 0.628935 -0.119890
v -0.275399 0.612778 -0.119890
v -0.275399 0.628935 -0.119890
v -0.275399 0.612778 -0.119890
v -0.283471 0.628935 -0.117022
v -0.283471 0.612778 -0.117022
v -0.283471 0.628935 -0.117022
v -0.283471 0.612778 -0.117022
v -0.290525 0.628935 -0.112162
v -0.290525 0.612778 -0.112162
v -0.290525 0.628935 -0.112162
v -0.290525 0.612778 -0.112162
v -0.296080 0.612778 -0.105643
v -0.296080 0.628935 -0.105643
v -0.296080 0.612778 -0.105643
v -0.296080 0.628935 -0.105643
v -0.299760 0.612778 -0.097907
v -0.299760 0.628935 -0.097907
v -0.299760 0.612778 -0.097907
v -0.299760 0.628935 -0.097907
v -0.301311 0.612778 -0.089483
v -0.301311 0.628935 -0.089483
v -0.301311 0.612778 -0.089483
v -0.301311 0.628935 -0.089483
v -0.300630 0.612778 -0.080944
v -0.300630 0.628935 -0.080944
v -0.300630 0.612778 -0.080944
v -0.300630 0.628935 -0.080944
v -0.297761 0.612778 -0.072873
v -0.297761 0.628935 -0.072873
v -0.297761 0.612778 -0.072873
v -0.297761 0.628935 -0.072873
v -0.292902 0.612778 -0.065819
v -0.292902 0.628935 -0.065819
v -0.292902 0.612778 -0.065819
v -0.292902 0.628935 -0.065819
v -0.286382 0.628935 -0.060263
v -0.286382 0.612778 -0.060263
v -0.286382 0.628935 -0.060263
v -0.286382 0.612778 -0.060263
v -0.278647 0.628935 -0.056584
v -0.278647 0.612778 -0.056584
v -0.278647 0.628935 -0.056584
v -0.278647 0.612778 -0.056584
v -0.261684 0.612778 -0.055714
v -0.270223 0.607060 -0.055032
v -0.261684 0.607060 -0.055714
v -0.270223 0.612778 -0.055032
v -0.270223 0.612778 -0.055032
v -0.261684 0.612778 -0.055714
v -0.270223 0.607060 -0.055032
v -0.261684 0.607060 -0.055714
v -0.253612 0.612778 -0.058582
v -0.253612 0.607060 -0.058582
v -0.253612 0.612778 -0.058582
v -0.253612 0.607060 -0.058582
v -0.246559 0.612778 -0.063442
v -0.246559 0.607060 -0.063442
v -0.246559 0.612778 -0.063442
v -0.246559 0.607060 -0.063442
v -0.241003 0.607060 -0.069961
v -0.241003 0.612778 -0.069961
v -0.241003 0.612778 -0.069961
v -0.241003 0.607060 -0.069961
v -0.237324 0.607060 -0.077697
v -0.237324 0.612778 -0.077697
v -0.237324 0.612778 -0.077697
v -0.237324 0.607060 -0.077697
v -0.235772 0.607060 -0.086121
v -0.235772 0.612778 -0.086121
v -0.235772 0.612778 -0.086121
v -0.235772 0.607060 -0.086121
v -0.236113 0.607060 -0.090390
v -0.236113 0.612778 -0.090390
v -0.236113 0.612778 -0.090390
v -0.236113 0.607060 -0.090390
v -0.236453 0.607060 -0.094660
v -0.236113 0.612778 -0.090390
v -0.236113 0.607060 -0.090390
v -0.236453 0.612778 -0.094660
v -0.236453 0.612778 -0.094660
v -0.236453 0.607060 -0.094660
v -0.236113 0.612778 -0.090390
v -0.236113 0.607060 -0.090390
v -0.239322 0.607060 -0.102731
v -0.239322 0.612778 -0.102731
v -0.239322 0.612778 -0.102731
v -0.239322 0.607060 -0.102731
v -0.244181 0.607060 -0.109785
v -0.244181 0.612778 -0.109785
v -0.244181 0.612778 -0.109785
v -0.244181 0.607060 -0.109785
v -0.250701 0.612778 -0.115341
v -0.250701 0.607060 -0.115341
v -0.250701 0.612778 -0.115341
v -0.250701 0.607060 -0.115341
v -0.258436 0.612778 -0.119020
v -0.258436 0.607060 -0.119020
v -0.258436 0.612778 -0.119020
v -0.258436 0.607060 -0.119020
v -0.266861 0.612778 -0.120572
v -0.266861 0.607060 -0.120572
v -0.266861 0.612778 -0.120572
v -0.266861 0.607060 -0.120572
v -0.275399 0.612778 -0.119890
v -0.275399 0.607060 -0.119890
v -0.275399 0.612778 -0.119890
v -0.275399 0.607060 -0.119890
v -0.283471 0.612778 -0.117022
v -0.283471 0.607060 -0.117022
v -0.283471 0.612778 -0.117022
v -0.283471 0.607060 -0.117022
v -0.290525 0.612778 -0.112162
v -0.290525 0.607060 -0.112162
v -0.290525 0.612778 -0.112162
v -0.290525 0.607060 -0.112162
v -0.296080 0.607060 -0.105643
v -0.296080 0.612778 -0.105643
v -0.296080 0.607060 -0.105643
v -0.296080 0.612778 -0.105643
v -0.299760 0.607060 -0.097907
v -0.299760 0.612778 -0.097907
v -0.299760 0.607060 -0.097907
v -0.299760 0.612778 -0.097907
v -0.301311 0.607060 -0.089483
v -0.301311 0.612778 -0.089483
v -0.301311 0.607060 -0.089483
v -0.301311 0.612778 -0.089483
v -0.300630 0.607060 -0.080944
v -0.300630 0.612778 -0.080944
v -0.300630 0.607060 -0.080944
v -0.300630 0.612778 -0.080944
v -0.297761 0.607060 -0.072873
v -0.297761 0.612778 -0.072873
v -0.297761 0.607060 -0.072873
v -0.297761 0.612778 -0.072873
v -0.292902 0.607060 -0.065819
v -0.292902 0.612778 -0.065819
v -0.292902 0.607060 -0.065819
v -0.292902 0.612778 -0.065819
v -0.286382 0.612778 -0.060263
v -0.286382 0.607060 -0.060263
v -0.286382 0.612778 -0.060263
v -0.286382 0.607060 -0.060263
v -0.278647 0.612778 -0.056584
v -0.278647 0.607060 -0.056584
v -0.278647 0.612778 -0.056584
v -0.278647 0.607060 -0.056584
v -0.299760 0.607060 -0.097907
v -0.300630 0.607060 -0.080944
v -0.301311 0.607060 -0.089483
v -0.297761 0.607060 -0.072873
v -0.296080 0.607060 -0.105643
v -0.292902 0.607060 -0.065819
v -0.290525 0.607060 -0.112162
v -0.286382 0.607060 -0.060263
v -0.283471 0.607060 -0.117022
v -0.278647 0.607060 -0.056584
v -0.275399 0.607060 -0.119890
v -0.270223 0.607060 -0.055032
v -0.266861 0.607060 -0.120572
v -0.261684 0.607060 -0.055714
v -0.258436 0.607060 -0.119020
v -0.253612 0.607060 -0.058582
v -0.250701 0.607060 -0.115341
v -0.246559 0.607060 -0.063442
v -0.244181 0.607060 -0.109785
v -0.241003 0.607060 -0.069961
v -0.239322 0.607060 -0.102731
v -0.237324 0.607060 -0.077697
v -0.236453 0.607060 -0.094660
v -0.236113 0.607060 -0.090390
v -0.235772 0.607060 -0.086121
v -0.235772 0.607060 -0.086121
v -0.236113 0.607060 -0.090390
v -0.237324 0.607060 -0.077697
v -0.236453 0.607060 -0.094660
v -0.239322 0.607060 -0.102731
v -0.241003 0.607060 -0.069961
v -0.244181 0.607060 -0.109785
v -0.246559 0.607060 -0.063442
v -0.250701 0.607060 -0.115341
v -0.253612 0.607060 -0.058582
v -0.258436 0.607060 -0.119020
v -0.261684 0.607060 -0.055714
v -0.266861 0.607060 -0.120572
v -0.270223 0.607060 -0.055032
v -0.275399 0.607060 -0.119890
v -0.278647 0.607060 -0.056584
v -0.283471 0.607060 -0.117022
v -0.286382 0.607060 -0.060263
v -0.290525 0.607060 -0.112162
v -0.292902 0.607060 -0.065819
v -0.296080 0.607060 -0.105643
v -0.297761 0.607060 -0.072873
v -0.299760 0.607060 -0.097907
v -0.300630 0.607060 -0.080944
v -0.301311 0.607060 -0.089483
vn 0 1 0
vn 0 -1 0
vn 0.20899450326527894 0 0.9779168152787329
vn -0.05123030823526177 0 0.9986868655980814
vn 0.05123030823526177 0 -0.9986868655980814
vn -0.20899450326527894 0 -0.9779168152787329
vn 0.4549766765790639 0 0.8905033541593597
vn -0.4549766765790639 0 -0.8905033541593597
vn 0.6699529572898438 0 0.7424035526710475
vn -0.6699529572898438 0 -0.7424035526710475
vn 0.83927302093439 0 0.543710213562025
vn -0.83927302093439 0 -0.543710213562025
vn 0.9513980484404968 0 0.30796388331038743
vn -0.9513980484404968 0 -0.30796388331038743
vn 0.9986868655980814 0 0.05123030823526177
vn -0.9986868655980814 0 -0.05123030823526177
vn 0.9968298581809534 0 -0.0795627666621796
vn 0.9779168152787329 0 -0.20899450326527894
vn -0.9779168152787329 0 0.20899450326527894
vn -0.9968298581809534 0 0.0795627666621796
vn 0.8905033541593597 0 -0.4549766765790639
vn -0.8905033541593597 0 0.4549766765790639
vn 0.7424035526710475 0 -0.6699529572898438
vn -0.7424035526710475 0 0.6699529572898438
vn 0.543710213562025 0 -0.83927302093439
vn -0.543710213562025 0 0.83927302093439
vn 0.30796388331038743 0 -0.9513980484404968
vn -0.30796388331038743 0 0.9513980484404968
usemtl material_0_0
f 1//1 2//1 3//1
f 2//1 1//1 4//1
f 2//1 4//1 5//1
f 5//1 4//1 6//1
f 5//1 6//1 7//1
f 7//1 6//1 8//1
f 7//1 8//1 9//1
f 9//1 8//1 10//1
f 9//1 10//1 11//1
f 11//1 10//1 12//1
f 11//1 12//1 13//1
f 13//1 12//1 14//1
f 13//1 14//1 15//1
f 15//1 14//1 16//1
f 15//1 16//1 17//1
f 17//1 16//1 18//1
f 17//1 18//1 19//1
f 19//1 18//1 20//1
f 19//1 20//1 21//1
f 21//1 20//1 22//1
f 21//1 22//1 23//1
f 23//1 22//1 24//1
f 25//2 26//2 27//2
f 27//2 26//2 28//2
f 26//2 29//2 28//2
f 28//2 29//2 30//2
f 29//2 31//2 30//2
f 30//2 31//2 32//2
f 31//2 33//2 32//2
f 32//2 33//2 34//2
f 33//2 35//2 34//2
f 34//2 35//2 36//2
f 35//2 37//2 36//2
f 36//2 37//2 38//2
f 37//2 39//2 38//2
f 38//2 39//2 40//2
f 39//2 41//2 40//2
f 40//2 41//2 42//2
f 41//2 43//2 42//2
f 42//2 43//2 44//2
f 43//2 45//2 44//2
f 44//2 45//2 46//2
f 45//2 47//2 46//2
f 48//2 46//2 47//2
f 49//3 50//4 51//3
f 50//4 49//3 52//4
f 53//5 54//6 55//5
f 56//6 55//5 54//6
f 57//7 51//3 58//7
f 51//3 57//7 49//3
f 54//6 59//8 56//6
f 60//8 56//6 59//8
f 61//9 58//7 62//9
f 58//7 61//9 57//7
f 59//8 63//10 60//8
f 64//10 60//8 63//10
f 65//11 61//9 62//9
f 61//9 65//11 66//11
f 67//12 68//12 63//10
f 64//10 63//10 68//12
f 69//13 66//11 65//11
f 66//11 69//13 70//13
f 71//14 72//14 67//12
f 68//12 67//12 72//14
f 73//15 70//13 69//13
f 70//13 73//15 74//15
f 75//16 76//16 71//14
f 72//14 71//14 76//16
f 77//17 74//15 73//15
f 74//15 77//17 78//18
f 78//18 77//17 79//18
f 80//19 81//20 82//19
f 82//19 81//20 75//16
f 76//16 75//16 81//20
f 83//21 78//18 79//18
f 78//18 83//21 84//21
f 85//22 86//22 82//19
f 80//19 82//19 86//22
f 87//23 84//21 83//21
f 84//21 87//23 88//23
f 89//24 90//24 85//22
f 86//22 85//22 90//24
f 91//25 87//23 92//25
f 87//23 91//25 88//23
f 89//24 93//26 90//24
f 94//26 90//24 93//26
f 95//27 92//25 96//27
f 92//25 95//27 91//25
f 93//26 97//28 94//26
f 98//28 94//26 97//28
f 99//5 96//27 100//5
f 96//27 99//5 95//27
f 97//28 101//4 98//28
f 102//4 98//28 101//4
f 103//6 100//5 104//6
f 100//5 103//6 99//5
f 101//4 105//3 102//4
f 106//3 102//4 105//3
f 107//8 104//6 108//8
f 104//6 107//8 103//6
f 105//3 109//7 106//3
f 110//7 106//3 109//7
f 111//10 108//8 112//10
f 108//8 111//10 107//8
f 109//7 113//9 110//7
f 114//9 110//7 113//9
f 111//10 115//12 116//12
f 115//12 111//10 112//10
f 114//9 113//9 117//11
f 118//11 117//11 113//9
f 116//12 119//14 120//14
f 119//14 116//12 115//12
f 117//11 118//11 121//13
f 122//13 121//13 118//11
f 120//14 123//16 124//16
f 123//16 120//14 119//14
f 121//13 122//13 125//15
f 126//15 125//15 122//13
f 124//16 127//19 128//19
f 127//19 124//16 123//16
f 125//15 126//15 129//18
f 130//18 129//18 126//15
f 128//19 131//22 132//22
f 131//22 128//19 127//19
f 129//18 130//18 133//21
f 134//21 133//21 130//18
f 132//22 135//24 136//24
f 135//24 132//22 131//22
f 133//21 134//21 137//23
f 138//23 137//23 134//21
f 139//26 135//24 140//26
f 135//24 139//26 136//24
f 138//23 141//25 137//23
f 142//25 137//23 141//25
f 143//28 140//26 144//28
f 140//26 143//28 139//26
f 141//25 145//27 142//25
f 146//27 142//25 145//27
f 52//4 144//28 50//4
f 144//28 52//4 143//28
f 145//27 53//5 146//27
f 55//5 146//27 53//5
f 147//3 148//4 149//3
f 148//4 147//3 150//4
f 151//5 152//6 153//5
f 154//6 153//5 152//6
f 155//7 149//3 156//7
f 149//3 155//7 147//3
f 152//6 157//8 154//6
f 158//8 154//6 157//8
f 159//9 156//7 160//9
f 156//7 159//9 155//7
f 157//8 161//10 158//8
f 162//10 158//8 161//10
f 163//11 159//9 160//9
f 159//9 163//11 164//11
f 165//12 166//12 161//10
f 162//10 161//10 166//12
f 167//13 164//11 163//11
f 164//11 167//13 168//13
f 169//14 170//14 165//12
f 166//12 165//12 170//14
f 171//15 168//13 167//13
f 168//13 171//15 172//15
f 173//16 174//16 169//14
f 170//14 169//14 174//16
f 175//17 172//15 171//15
f 172//15 175//17 176//17
f 177//20 178//20 173//16
f 174//16 173//16 178//20
f 179//18 180//17 181//17
f 180//17 179//18 182//18
f 183//19 184//19 185//20
f 186//20 185//20 184//19
f 187//21 182//18 179//18
f 182//18 187//21 188//21
f 189//22 190//22 183//19
f 184//19 183//19 190//22
f 191//23 188//21 187//21
f 188//21 191//23 192//23
f 193//24 194//24 189//22
f 190//22 189//22 194//24
f 195//25 191//23 196//25
f 191//23 195//25 192//23
f 193//24 197//26 194//24
f 198//26 194//24 197//26
f 199//27 196//25 200//27
f 196//25 199//27 195//25
f 197//26 201//28 198//26
f 202//28 198//26 201//28
f 203//5 200//27 204//5
f 200//27 203//5 199//27
f 201//28 205//4 202//28
f 206//4 202//28 205//4
f 207//6 204//5 208//6
f 204//5 207//6 203//5
f 205//4 209//3 206//4
f 210//3 206//4 209//3
f 211//8 208//6 212//8
f 208//6 211//8 207//6
f 209//3 213//7 210//3
f 214//7 210//3 213//7
f 215//10 212//8 216//10
f 212//8 215//10 211//8
f 213//7 217//9 214//7
f 218//9 214//7 217//9
f 215//10 219//12 220//12
f 219//12 215//10 216//10
f 218//9 217//9 221//11
f 222//11 221//11 217//9
f 220//12 223//14 224//14
f 223//14 220//12 219//12
f 221//11 222//11 225//13
f 226//13 225//13 222//11
f 224//14 227//16 228//16
f 227//16 224//14 223//14
f 225//13 226//13 229//15
f 230//15 229//15 226//13
f 228//16 231//19 232//19
f 231//19 228//16 227//16
f 229//15 230//15 233//18
f 234//18 233//18 230//15
f 232//19 235//22 236//22
f 235//22 232//19 231//19
f 233//18 234//18 237//21
f 238//21 237//21 234//18
f 236//22 239//24 240//24
f 239//24 236//22 235//22
f 237//21 238//21 241//23
f 242//23 241//23 238//21
f 243//26 239//24 244//26
f 239//24 243//26 240//24
f 242//23 245//25 241//23
f 246//25 241//23 245//25
f 247//28 244//26 248//28
f 244//26 247//28 243//26
f 245//25 249//27 246//25
f 250//27 246//25 249//27
f 150//4 248//28 148//4
f 248//28 150//4 247//28
f 249//27 151//5 250//27
f 153//5 250//27 151//5
f 251//2 252//2 253//2
f 252//2 251//2 254//2
f 254//2 251//2 255//2
f 254//2 255//2 256//2
f 256//2 255//2 257//2
f 256//2 257//2 258//2
f 258//2 257//2 259//2
f 258//2 259//2 260//2
f 260//2 259//2 261//2
f 260//2 261//2 262//2
f 262//2 261//2 263//2
f 262//2 263//2 264//2
f 264//2 263//2 265//2
f 264//2 265//2 266//2
f 266//2 265//2 267//2
f 266//2 267//2 268//2
f 268//2 267//2 269//2
f 268//2 269//2 270//2
f 270//2 269//2 271//2
f 270//2 271//2 272//2
f 272//2 271//2 273//2
f 272//2 273//2 274//2
f 272//2 274//2 275//2
f 276//1 277//1 278//1
f 277//1 279//1 278//1
f 279//1 280//1 278//1
f 278//1 280//1 281//1
f 280//1 282//1 281//1
f 281//1 282//1 283//1
f 282//1 284//1 283//1
f 283//1 284//1 285//1
f 284//1 286//1 285//1
f 285//1 286//1 287//1
f 286//1 288//1 287//1
f 287//1 288//1 289//1
f 288//1 290//1 289//1
f 289//1 290//1 291//1
f 290//1 292//1 291//1
f 291//1 292//1 293//1
f 292//1 294//1 293//1
f 293//1 294//1 295//1
f 294//1 296//1 295//1
f 295//1 296//1 297//1
f 296//1 298//1 297//1
f 297//1 298//1 299//1
f 300//1 299//1 298//1
