# SSTK version 0.8.0
# 85
mtllib original-85.mtl
o #ID486
v 0.143652 0.172831 0.640679
v 0.148378 0.169575 0.637421
v 0.144385 0.172099 0.642029
v 0.144385 0.172099 0.642029
v 0.148378 0.169575 0.637421
v 0.143652 0.172831 0.640679
v 0.145339 0.171144 0.643065
v 0.145339 0.171144 0.643065
v 0.141651 0.175908 0.646655
v 0.140184 0.177376 0.643951
v 0.140184 0.177376 0.643951
v 0.141651 0.175908 0.646655
v 0.143192 0.173291 0.639108
v 0.143192 0.173291 0.639108
v 0.146451 0.170033 0.643716
v 0.146451 0.170033 0.643716
v 0.143564 0.173996 0.648731
v 0.143564 0.173996 0.648731
v 0.139261 0.178298 0.640801
v 0.139261 0.178298 0.640801
v 0.143035 0.173448 0.637421
v 0.143035 0.173448 0.637421
v 0.147643 0.168840 0.643938
v 0.147643 0.168840 0.643938
v 0.145791 0.171768 0.650035
v 0.145791 0.171768 0.650035
v 0.138947 0.178613 0.637421
v 0.138947 0.178613 0.637421
v 0.143192 0.173291 0.635734
v 0.143192 0.173291 0.635734
v 0.148836 0.167648 0.643716
v 0.148836 0.167648 0.643716
v 0.148181 0.169378 0.650480
v 0.148181 0.169378 0.650480
v 0.139261 0.178298 0.634041
v 0.139261 0.178298 0.634041
v 0.143652 0.172831 0.634162
v 0.143652 0.172831 0.634162
v 0.149947 0.166536 0.643065
v 0.149947 0.166536 0.643065
v 0.150571 0.166988 0.650035
v 0.150571 0.166988 0.650035
v 0.140184 0.177376 0.630891
v 0.140184 0.177376 0.630891
v 0.144385 0.172099 0.632813
v 0.144385 0.172099 0.632813
v 0.150902 0.165582 0.642029
v 0.150902 0.165582 0.642029
v 0.152799 0.164761 0.648731
v 0.152799 0.164761 0.648731
v 0.141651 0.175908 0.628186
v 0.141651 0.175908 0.628186
v 0.145339 0.171144 0.631777
v 0.145339 0.171144 0.631777
v 0.151634 0.164849 0.640679
v 0.151634 0.164849 0.640679
v 0.154711 0.162848 0.646655
v 0.154711 0.162848 0.646655
v 0.143564 0.173996 0.626111
v 0.143564 0.173996 0.626111
v 0.146451 0.170033 0.631126
v 0.146451 0.170033 0.631126
v 0.152094 0.164389 0.639108
v 0.152094 0.164389 0.639108
v 0.156179 0.161381 0.643951
v 0.156179 0.161381 0.643951
v 0.145791 0.171768 0.624806
v 0.145791 0.171768 0.624806
v 0.147643 0.168840 0.630904
v 0.147643 0.168840 0.630904
v 0.152251 0.164232 0.637421
v 0.152251 0.164232 0.637421
v 0.157101 0.160458 0.640801
v 0.157101 0.160458 0.640801
v 0.148181 0.169378 0.624361
v 0.148181 0.169378 0.624361
v 0.148836 0.167648 0.631126
v 0.148836 0.167648 0.631126
v 0.152094 0.164389 0.635734
v 0.152094 0.164389 0.635734
v 0.157416 0.160144 0.637421
v 0.157416 0.160144 0.637421
v 0.150571 0.166988 0.624806
v 0.150571 0.166988 0.624806
v 0.149947 0.166536 0.631777
v 0.149947 0.166536 0.631777
v 0.151634 0.164849 0.634162
v 0.151634 0.164849 0.634162
v 0.157101 0.160458 0.634041
v 0.157101 0.160458 0.634041
v 0.152799 0.164761 0.626111
v 0.152799 0.164761 0.626111
v 0.150902 0.165582 0.632813
v 0.150902 0.165582 0.632813
v 0.156179 0.161381 0.630891
v 0.156179 0.161381 0.630891
v 0.154711 0.162848 0.628186
v 0.154711 0.162848 0.628186
vn -0.7010453953553962 -0.7130996676999494 -0.004921135765068345
vn -0.7071067811865591 -0.707106781186536 0
vn -0.7021513952085282 -0.7119936678362395 -0.006959537902476174
vn 0.7021513952085282 0.7119936678362395 0.006959537902476174
vn 0.7071067811865591 0.707106781186536 0
vn 0.7010453953553962 0.7130996676999494 0.004921135765068345
vn -0.7035927631487073 -0.7105522999048159 -0.008523657943841995
vn 0.7035927631487073 0.7105522999048159 0.008523657943841995
vn -0.7601316859988623 -0.6446143771799533 0.0816830745835861
vn -0.7731126453805762 -0.6316334189259146 0.05775864998947834
vn 0.7731126453805762 0.6316334189259146 -0.05775864998947834
vn 0.7601316859988623 0.6446143771799533 -0.0816830745835861
vn -0.7003501347387239 -0.7137949283180032 -0.0025473670619047513
vn 0.7003501347387239 0.7137949283180032 0.0025473670619047513
vn -0.7052712710510473 -0.7088737920025235 -0.009506904964451036
vn 0.7052712710510473 0.7088737920025235 0.009506904964451036
vn -0.7432145640143842 -0.6615315000427342 0.10004092306710645
vn 0.7432145640143842 0.6615315000427342 -0.10004092306710645
vn -0.781272817533879 -0.6234732469893668 0.029898074707411702
vn 0.781272817533879 0.6234732469893668 -0.029898074707411702
vn -0.7001129947765876 -0.7140320682889234 0
vn 0.7001129947765876 0.7140320682889234 0
vn -0.70707253153089 -0.7070725315309767 -0.009842271530214487
vn 0.70707253153089 0.7070725315309767 0.009842271530214487
vn -0.7235141628466802 -0.6812319012446392 0.11158114933482961
vn 0.7235141628466802 0.6812319012446392 -0.11158114933482961
vn -0.7840560967366061 -0.6206899686398658 0
vn 0.7840560967366061 0.6206899686398658 0
vn -0.7003501347387237 -0.7137949283180032 0.002547367061969866
vn 0.7003501347387237 0.7137949283180032 -0.002547367061969866
vn -0.708873792002524 -0.7052712710510468 -0.00950690496445094
vn 0.708873792002524 0.7052712710510468 0.00950690496445094
vn -0.7023730324389282 -0.7023730324387973 0.11551730002589523
vn 0.7023730324389282 0.7023730324387973 -0.11551730002589523
vn -0.7812728175338814 -0.6234732469893675 -0.029898074707342435
vn 0.7812728175338814 0.6234732469893675 0.029898074707342435
vn -0.7010453953553958 -0.7130996676999491 0.004921135765133496
vn 0.7010453953553958 0.7130996676999491 -0.004921135765133496
vn -0.7105522999048162 -0.7035927631487069 -0.008523657943841806
vn 0.7105522999048162 0.7035927631487069 0.008523657943841806
vn -0.6812319012446362 -0.7235141628466831 0.11158114933482846
vn 0.6812319012446362 0.7235141628466831 -0.11158114933482846
vn -0.7731126453805807 -0.6316334189259158 -0.05775864998940951
vn 0.7731126453805807 0.6316334189259158 0.05775864998940951
vn -0.7021513952085277 -0.7119936678362394 0.006959537902541385
vn 0.7021513952085277 0.7119936678362394 -0.006959537902541385
vn -0.7119936678362399 -0.7021513952085279 -0.006959537902475911
vn 0.7119936678362399 0.7021513952085279 0.006959537902475911
vn -0.6615315000427315 -0.7432145640143869 0.10004092306710426
vn 0.6615315000427315 0.7432145640143869 -0.10004092306710426
vn -0.7601316859988685 -0.6446143771799548 -0.08168307458351799
vn 0.7601316859988685 0.6446143771799548 0.08168307458351799
vn -0.7035927631487068 -0.7105522999048158 0.008523657943907284
vn 0.7035927631487068 0.7105522999048158 -0.008523657943907284
vn -0.7130996676999496 -0.701045395355396 -0.00492113576506802
vn 0.7130996676999496 0.701045395355396 0.00492113576506802
vn -0.6446143771799513 -0.7601316859988646 0.08168307458358304
vn 0.6446143771799513 0.7601316859988646 -0.08168307458358304
vn -0.7432145640143917 -0.6615315000427361 -0.10004092306703923
vn 0.7432145640143917 0.6615315000427361 0.10004092306703923
vn -0.7052712710510466 -0.7088737920025234 0.009506904964516416
vn 0.7052712710510466 0.7088737920025234 -0.009506904964516416
vn -0.7137949283180035 -0.7003501347387237 -0.00254736706190439
vn 0.7137949283180035 0.7003501347387237 0.00254736706190439
vn -0.6316334189259133 -0.7731126453805778 0.05775864998947453
vn 0.6316334189259133 0.7731126453805778 -0.05775864998947453
vn -0.7235141628466885 -0.6812319012446413 -0.11158114933476344
vn 0.7235141628466885 0.6812319012446413 0.11158114933476344
vn -0.7070725315310156 -0.7070725315308505 0.009842271530279965
vn 0.7070725315310156 0.7070725315308505 -0.009842271530279965
vn -0.7140320682889235 -0.7001129947765875 0
vn 0.7140320682889235 0.7001129947765875 0
vn -0.6234732469893661 -0.7812728175338798 0.02989807470740747
vn 0.6234732469893661 0.7812728175338798 -0.02989807470740747
vn -0.7023730324387878 -0.7023730324389484 -0.1155173000258302
vn 0.7023730324387878 0.7023730324389484 0.1155173000258302
vn -0.7088737920025233 -0.7052712710510467 0.009506904964516514
vn 0.7088737920025233 0.7052712710510467 -0.009506904964516514
vn -0.7137949283180032 -0.7003501347387237 0.002547367061970227
vn 0.7137949283180032 0.7003501347387237 -0.002547367061970227
vn -0.6206899686398659 -0.784056096736606 0
vn 0.6206899686398659 0.784056096736606 0
vn -0.6812319012446444 -0.7235141628466852 -0.11158114933476455
vn 0.6812319012446444 0.7235141628466852 0.11158114933476455
vn -0.7105522999048157 -0.7035927631487068 0.00852365794390747
vn 0.7105522999048157 0.7035927631487068 -0.00852365794390747
vn -0.7130996676999491 -0.7010453953553958 0.00492113576513382
vn 0.7130996676999491 0.7010453953553958 -0.00492113576513382
vn -0.6234732469893685 -0.7812728175338804 -0.029898074707346668
vn 0.6234732469893685 0.7812728175338804 0.029898074707346668
vn -0.661531500042739 -0.7432145640143888 -0.1000409230670414
vn 0.661531500042739 0.7432145640143888 0.1000409230670414
vn -0.7119936678362392 -0.7021513952085277 0.006959537902541649
vn 0.7119936678362392 0.7021513952085277 -0.006959537902541649
vn -0.6316334189259175 -0.7731126453805789 -0.0577586499894133
vn 0.6316334189259175 0.7731126453805789 0.0577586499894133
vn -0.6446143771799573 -0.760131685998866 -0.08168307458352109
vn 0.6446143771799573 0.760131685998866 0.08168307458352109
usemtl material_0_0
f 1//1 2//2 3//3
f 4//4 5//5 6//6
f 3//3 2//2 7//7
f 8//8 5//5 4//4
f 9//9 1//1 3//3
f 1//1 9//9 10//10
f 11//11 12//12 6//6
f 4//4 6//6 12//12
f 13//13 2//2 1//1
f 6//6 5//5 14//14
f 7//7 2//2 15//15
f 16//16 5//5 8//8
f 17//17 3//3 7//7
f 3//3 17//17 9//9
f 12//12 18//18 4//4
f 8//8 4//4 18//18
f 10//10 13//13 1//1
f 13//13 10//10 19//19
f 20//20 11//11 14//14
f 6//6 14//14 11//11
f 21//21 2//2 13//13
f 14//14 5//5 22//22
f 15//15 2//2 23//23
f 24//24 5//5 16//16
f 25//25 7//7 15//15
f 7//7 25//25 17//17
f 18//18 26//26 8//8
f 16//16 8//8 26//26
f 19//19 21//21 13//13
f 21//21 19//19 27//27
f 28//28 20//20 22//22
f 14//14 22//22 20//20
f 21//21 29//29 2//2
f 5//5 30//30 22//22
f 2//2 31//31 23//23
f 24//24 32//32 5//5
f 33//33 15//15 23//23
f 15//15 33//33 25//25
f 26//26 34//34 16//16
f 24//24 16//16 34//34
f 21//21 35//35 29//29
f 35//35 21//21 27//27
f 28//28 22//22 36//36
f 30//30 36//36 22//22
f 29//29 37//37 2//2
f 5//5 38//38 30//30
f 2//2 39//39 31//31
f 32//32 40//40 5//5
f 33//33 31//31 41//41
f 31//31 33//33 23//23
f 24//24 34//34 32//32
f 42//42 32//32 34//34
f 29//29 43//43 37//37
f 43//43 29//29 35//35
f 36//36 30//30 44//44
f 38//38 44//44 30//30
f 37//37 45//45 2//2
f 5//5 46//46 38//38
f 2//2 47//47 39//39
f 40//40 48//48 5//5
f 41//41 39//39 49//49
f 39//39 41//41 31//31
f 32//32 42//42 40//40
f 50//50 40//40 42//42
f 37//37 51//51 45//45
f 51//51 37//37 43//43
f 44//44 38//38 52//52
f 46//46 52//52 38//38
f 45//45 53//53 2//2
f 5//5 54//54 46//46
f 2//2 55//55 47//47
f 48//48 56//56 5//5
f 49//49 47//47 57//57
f 47//47 49//49 39//39
f 40//40 50//50 48//48
f 58//58 48//48 50//50
f 45//45 59//59 53//53
f 59//59 45//45 51//51
f 52//52 46//46 60//60
f 54//54 60//60 46//46
f 53//53 61//61 2//2
f 5//5 62//62 54//54
f 2//2 63//63 55//55
f 56//56 64//64 5//5
f 57//57 55//55 65//65
f 55//55 57//57 47//47
f 48//48 58//58 56//56
f 66//66 56//56 58//58
f 53//53 67//67 61//61
f 67//67 53//53 59//59
f 60//60 54//54 68//68
f 62//62 68//68 54//54
f 61//61 69//69 2//2
f 5//5 70//70 62//62
f 2//2 71//71 63//63
f 64//64 72//72 5//5
f 65//65 63//63 73//73
f 63//63 65//65 55//55
f 56//56 66//66 64//64
f 74//74 64//64 66//66
f 69//69 67//67 75//75
f 67//67 69//69 61//61
f 62//62 70//70 68//68
f 76//76 68//68 70//70
f 2//2 69//69 77//77
f 78//78 70//70 5//5
f 2//2 79//79 71//71
f 72//72 80//80 5//5
f 73//73 71//71 81//81
f 71//71 73//73 63//63
f 64//64 74//74 72//72
f 82//82 72//72 74//74
f 77//77 75//75 83//83
f 75//75 77//77 69//69
f 70//70 78//78 76//76
f 84//84 76//76 78//78
f 2//2 77//77 85//85
f 86//86 78//78 5//5
f 2//2 87//87 79//79
f 80//80 88//88 5//5
f 71//71 89//89 81//81
f 89//89 71//71 79//79
f 80//80 72//72 90//90
f 82//82 90//90 72//72
f 85//85 83//83 91//91
f 83//83 85//85 77//77
f 78//78 86//86 84//84
f 92//92 84//84 86//86
f 2//2 85//85 93//93
f 94//94 86//86 5//5
f 2//2 93//93 87//87
f 88//88 94//94 5//5
f 79//79 95//95 89//89
f 95//95 79//79 87//87
f 88//88 80//80 96//96
f 90//90 96//96 80//80
f 93//93 91//91 97//97
f 91//91 93//93 85//85
f 86//86 94//94 92//92
f 98//98 92//92 94//94
f 87//87 97//97 95//95
f 97//97 87//87 93//93
f 94//94 88//88 98//98
f 96//96 98//98 88//88
