# SSTK version 0.8.0
# 54
mtllib original-54.mtl
o #ID368
v -0.273768 0.601245 -0.209958
v -0.273768 0.601245 -0.213545
v -0.274013 0.601245 -0.211752
v -0.273051 0.601245 -0.215215
v -0.273051 0.601245 -0.208289
v -0.271912 0.601245 -0.206860
v -0.271912 0.601245 -0.216644
v -0.270430 0.601245 -0.217736
v -0.270430 0.601245 -0.205768
v -0.268710 0.601245 -0.218416
v -0.268710 0.601245 -0.205088
v -0.266870 0.601245 -0.218640
v -0.266870 0.601245 -0.204864
v -0.265035 0.601245 -0.218395
v -0.265035 0.601245 -0.205109
v -0.263331 0.601245 -0.205805
v -0.263331 0.601245 -0.217699
v -0.261872 0.601245 -0.206902
v -0.261872 0.601245 -0.216601
v -0.260755 0.601245 -0.208326
v -0.260755 0.601245 -0.215177
v -0.260054 0.601245 -0.213524
v -0.260054 0.601245 -0.209980
v -0.259815 0.601245 -0.211752
v -0.259815 0.601245 -0.211752
v -0.260054 0.601245 -0.209980
v -0.260054 0.601245 -0.213524
v -0.260755 0.601245 -0.208326
v -0.260755 0.601245 -0.215177
v -0.261872 0.601245 -0.216601
v -0.261872 0.601245 -0.206902
v -0.263331 0.601245 -0.217699
v -0.263331 0.601245 -0.205805
v -0.265035 0.601245 -0.218395
v -0.265035 0.601245 -0.205109
v -0.266870 0.601245 -0.204864
v -0.266870 0.601245 -0.218640
v -0.268710 0.601245 -0.205088
v -0.268710 0.601245 -0.218416
v -0.270430 0.601245 -0.205768
v -0.270430 0.601245 -0.217736
v -0.271912 0.601245 -0.206860
v -0.271912 0.601245 -0.216644
v -0.273051 0.601245 -0.215215
v -0.273051 0.601245 -0.208289
v -0.273768 0.601245 -0.209958
v -0.273768 0.601245 -0.213545
v -0.274013 0.601245 -0.211752
vn 0 1 0
vn 0 -1 0
usemtl material_0_0
f 1//1 2//1 3//1
f 2//1 1//1 4//1
f 4//1 1//1 5//1
f 4//1 5//1 6//1
f 4//1 6//1 7//1
f 7//1 6//1 8//1
f 8//1 6//1 9//1
f 8//1 9//1 10//1
f 10//1 9//1 11//1
f 10//1 11//1 12//1
f 12//1 11//1 13//1
f 12//1 13//1 14//1
f 14//1 13//1 15//1
f 14//1 15//1 16//1
f 14//1 16//1 17//1
f 17//1 16//1 18//1
f 17//1 18//1 19//1
f 19//1 18//1 20//1
f 19//1 20//1 21//1
f 21//1 20//1 22//1
f 22//1 20//1 23//1
f 22//1 23//1 24//1
usemtl material_1_0
f 25//2 26//2 27//2
f 26//2 28//2 27//2
f 27//2 28//2 29//2
f 29//2 28//2 30//2
f 28//2 31//2 30//2
f 30//2 31//2 32//2
f 31//2 33//2 32//2
f 32//2 33//2 34//2
f 33//2 35//2 34//2
f 35//2 36//2 34//2
f 34//2 36//2 37//2
f 36//2 38//2 37//2
f 37//2 38//2 39//2
f 38//2 40//2 39//2
f 39//2 40//2 41//2
f 40//2 42//2 41//2
f 41//2 42//2 43//2
f 43//2 42//2 44//2
f 42//2 45//2 44//2
f 45//2 46//2 44//2
f 44//2 46//2 47//2
f 48//2 47//2 46//2
