# SSTK version 0.8.0
# 93
mtllib original-93.mtl
o #ID526
v 0.225283 0.277681 0.686995
v 0.228094 0.257440 0.688102
v 0.225283 0.257440 0.686995
v 0.228094 0.267350 0.688102
v 0.228094 0.269742 0.688102
v 0.237818 0.267350 0.691933
v 0.228094 0.277681 0.688102
v 0.240628 0.257440 0.693040
v 0.237818 0.257440 0.691933
v 0.240628 0.277681 0.693040
v 0.237818 0.269742 0.691933
v 0.237818 0.277681 0.691933
v 0.237818 0.277681 0.691933
v 0.237818 0.269742 0.691933
v 0.240628 0.277681 0.693040
v 0.228094 0.269742 0.688102
v 0.237818 0.267350 0.691933
v 0.240628 0.257440 0.693040
v 0.237818 0.257440 0.691933
v 0.228094 0.277681 0.688102
v 0.225283 0.277681 0.686995
v 0.228094 0.267350 0.688102
v 0.228094 0.257440 0.688102
v 0.225283 0.257440 0.686995
v 0.237818 0.257440 0.691933
v 0.239577 0.257440 0.695707
v 0.236767 0.257440 0.694600
v 0.240628 0.257440 0.693040
v 0.240628 0.257440 0.693040
v 0.237818 0.257440 0.691933
v 0.239577 0.257440 0.695707
v 0.236767 0.257440 0.694600
v 0.237818 0.267350 0.691933
v 0.236767 0.257440 0.694600
v 0.236767 0.267350 0.694600
v 0.237818 0.257440 0.691933
v 0.237818 0.257440 0.691933
v 0.237818 0.267350 0.691933
v 0.236767 0.257440 0.694600
v 0.236767 0.267350 0.694600
v 0.228094 0.267350 0.688102
v 0.236767 0.267350 0.694600
v 0.227043 0.267350 0.690770
v 0.237818 0.267350 0.691933
v 0.237818 0.267350 0.691933
v 0.228094 0.267350 0.688102
v 0.236767 0.267350 0.694600
v 0.227043 0.267350 0.690770
v 0.228094 0.257440 0.688102
v 0.227043 0.267350 0.690770
v 0.227043 0.257440 0.690770
v 0.228094 0.267350 0.688102
v 0.228094 0.267350 0.688102
v 0.228094 0.257440 0.688102
v 0.227043 0.267350 0.690770
v 0.227043 0.257440 0.690770
v 0.225283 0.257440 0.686995
v 0.227043 0.257440 0.690770
v 0.224233 0.257440 0.689663
v 0.228094 0.257440 0.688102
v 0.228094 0.257440 0.688102
v 0.225283 0.257440 0.686995
v 0.227043 0.257440 0.690770
v 0.224233 0.257440 0.689663
v 0.225283 0.277681 0.686995
v 0.224233 0.257440 0.689663
v 0.224233 0.277681 0.689663
v 0.225283 0.257440 0.686995
v 0.225283 0.257440 0.686995
v 0.225283 0.277681 0.686995
v 0.224233 0.257440 0.689663
v 0.224233 0.277681 0.689663
v 0.227043 0.277681 0.690770
v 0.225283 0.277681 0.686995
v 0.224233 0.277681 0.689663
v 0.228094 0.277681 0.688102
v 0.228094 0.277681 0.688102
v 0.227043 0.277681 0.690770
v 0.225283 0.277681 0.686995
v 0.224233 0.277681 0.689663
v 0.228094 0.269742 0.688102
v 0.227043 0.277681 0.690770
v 0.227043 0.269742 0.690770
v 0.228094 0.277681 0.688102
v 0.228094 0.277681 0.688102
v 0.228094 0.269742 0.688102
v 0.227043 0.277681 0.690770
v 0.227043 0.269742 0.690770
v 0.236767 0.269742 0.694600
v 0.228094 0.269742 0.688102
v 0.227043 0.269742 0.690770
v 0.237818 0.269742 0.691933
v 0.237818 0.269742 0.691933
v 0.236767 0.269742 0.694600
v 0.228094 0.269742 0.688102
v 0.227043 0.269742 0.690770
v 0.237818 0.277681 0.691933
v 0.236767 0.269742 0.694600
v 0.236767 0.277681 0.694600
v 0.237818 0.269742 0.691933
v 0.237818 0.269742 0.691933
v 0.237818 0.277681 0.691933
v 0.236767 0.269742 0.694600
v 0.236767 0.277681 0.694600
v 0.239577 0.277681 0.695707
v 0.237818 0.277681 0.691933
v 0.236767 0.277681 0.694600
v 0.240628 0.277681 0.693040
v 0.240628 0.277681 0.693040
v 0.239577 0.277681 0.695707
v 0.237818 0.277681 0.691933
v 0.236767 0.277681 0.694600
v 0.240628 0.257440 0.693040
v 0.239577 0.277681 0.695707
v 0.239577 0.257440 0.695707
v 0.240628 0.277681 0.693040
v 0.240628 0.277681 0.693040
v 0.240628 0.257440 0.693040
v 0.239577 0.277681 0.695707
v 0.239577 0.257440 0.695707
v 0.239577 0.277681 0.695707
v 0.236767 0.257440 0.694600
v 0.239577 0.257440 0.695707
v 0.236767 0.267350 0.694600
v 0.236767 0.269742 0.694600
v 0.227043 0.267350 0.690770
v 0.236767 0.277681 0.694600
v 0.224233 0.257440 0.689663
v 0.227043 0.257440 0.690770
v 0.224233 0.277681 0.689663
v 0.227043 0.269742 0.690770
v 0.227043 0.277681 0.690770
v 0.227043 0.277681 0.690770
v 0.227043 0.269742 0.690770
v 0.224233 0.277681 0.689663
v 0.236767 0.269742 0.694600
v 0.227043 0.267350 0.690770
v 0.224233 0.257440 0.689663
v 0.227043 0.257440 0.690770
v 0.236767 0.277681 0.694600
v 0.239577 0.277681 0.695707
v 0.236767 0.267350 0.694600
v 0.236767 0.257440 0.694600
v 0.239577 0.257440 0.695707
vn 0.3665011926715888 0 -0.9304175813957423
vn 0 -1 0
vn -0.9304175813957423 0 -0.3665011926715888
vn 0.9304175813957423 0 0.3665011926715888
vn 0 1 0
vn -0.3665011926715888 0 0.9304175813957423
usemtl material_0_0
f 13//6 14//6 15//6
f 16//6 17//6 14//6
f 14//6 17//6 15//6
f 15//6 17//6 18//6
f 19//6 18//6 17//6
f 20//6 21//6 16//6
f 17//6 16//6 22//6
f 16//6 21//6 22//6
f 22//6 21//6 23//6
f 24//6 23//6 21//6
f 29//5 30//5 31//5
f 32//5 31//5 30//5
f 37//4 38//4 39//4
f 40//4 39//4 38//4
f 45//5 46//5 47//5
f 48//5 47//5 46//5
f 53//3 54//3 55//3
f 56//3 55//3 54//3
f 61//5 62//5 63//5
f 64//5 63//5 62//5
f 69//4 70//4 71//4
f 72//4 71//4 70//4
f 77//2 78//2 79//2
f 80//2 79//2 78//2
f 85//3 86//3 87//3
f 88//3 87//3 86//3
f 93//2 94//2 95//2
f 96//2 95//2 94//2
f 101//4 102//4 103//4
f 104//4 103//4 102//4
f 109//2 110//2 111//2
f 112//2 111//2 110//2
f 117//3 118//3 119//3
f 120//3 119//3 118//3
f 133//1 134//1 135//1
f 136//1 137//1 134//1
f 134//1 137//1 135//1
f 135//1 137//1 138//1
f 139//1 138//1 137//1
f 140//1 141//1 136//1
f 137//1 136//1 142//1
f 136//1 141//1 142//1
f 142//1 141//1 143//1
f 144//1 143//1 141//1
usemtl material_1_0
f 1//1 2//1 3//1
f 2//1 1//1 4//1
f 4//1 1//1 5//1
f 4//1 5//1 6//1
f 5//1 1//1 7//1
f 6//1 8//1 9//1
f 8//1 6//1 10//1
f 10//1 6//1 11//1
f 11//1 6//1 5//1
f 10//1 11//1 12//1
f 25//2 26//2 27//2
f 26//2 25//2 28//2
f 33//3 34//3 35//3
f 34//3 33//3 36//3
f 41//2 42//2 43//2
f 42//2 41//2 44//2
f 49//4 50//4 51//4
f 50//4 49//4 52//4
f 57//2 58//2 59//2
f 58//2 57//2 60//2
f 65//3 66//3 67//3
f 66//3 65//3 68//3
f 73//5 74//5 75//5
f 74//5 73//5 76//5
f 81//4 82//4 83//4
f 82//4 81//4 84//4
f 89//5 90//5 91//5
f 90//5 89//5 92//5
f 97//3 98//3 99//3
f 98//3 97//3 100//3
f 105//5 106//5 107//5
f 106//5 105//5 108//5
f 113//4 114//4 115//4
f 114//4 113//4 116//4
f 121//6 122//6 123//6
f 122//6 121//6 124//6
f 124//6 121//6 125//6
f 124//6 125//6 126//6
f 125//6 121//6 127//6
f 126//6 128//6 129//6
f 128//6 126//6 130//6
f 130//6 126//6 131//6
f 131//6 126//6 125//6
f 130//6 131//6 132//6
