# SSTK version 0.8.0
# 39
mtllib original-39.mtl
o #ID211
v -0.280745 0.604693 0.291013
v -0.281038 0.604693 0.288075
v -0.281038 0.604693 0.288795
v -0.277783 0.604693 0.288075
v -0.279069 0.604693 0.295060
v -0.276402 0.604693 0.298536
v -0.277783 0.604693 0.285157
v -0.281031 0.604693 0.284498
v -0.281031 0.604693 0.285157
v -0.280745 0.604693 0.282326
v -0.279069 0.604693 0.278279
v -0.276402 0.604693 0.274803
v -0.272927 0.604693 0.301203
v -0.272927 0.604693 0.272136
v -0.268879 0.604693 0.302879
v -0.268879 0.604693 0.270460
v -0.264536 0.604693 0.303451
v -0.264536 0.604693 0.269888
v -0.260192 0.604693 0.270460
v -0.260192 0.604693 0.302879
v -0.256145 0.604693 0.272136
v -0.256145 0.604693 0.301203
v -0.252669 0.604693 0.274803
v -0.252669 0.604693 0.298536
v -0.250002 0.604693 0.278279
v -0.250002 0.604693 0.295060
v -0.248326 0.604693 0.291013
v -0.248326 0.604693 0.282326
v -0.247754 0.604693 0.286670
v -0.247754 0.604693 0.286670
v -0.248326 0.604693 0.291013
v -0.248326 0.604693 0.282326
v -0.250002 0.604693 0.278279
v -0.250002 0.604693 0.295060
v -0.252669 0.604693 0.298536
v -0.252669 0.604693 0.274803
v -0.256145 0.604693 0.301203
v -0.256145 0.604693 0.272136
v -0.260192 0.604693 0.302879
v -0.260192 0.604693 0.270460
v -0.264536 0.604693 0.303451
v -0.264536 0.604693 0.269888
v -0.268879 0.604693 0.270460
v -0.268879 0.604693 0.302879
v -0.272927 0.604693 0.272136
v -0.272927 0.604693 0.301203
v -0.276402 0.604693 0.274803
v -0.276402 0.604693 0.298536
v -0.277783 0.604693 0.285157
v -0.279069 0.604693 0.278279
v -0.280745 0.604693 0.282326
v -0.281031 0.604693 0.284498
v -0.281031 0.604693 0.285157
v -0.277783 0.604693 0.288075
v -0.279069 0.604693 0.295060
v -0.280745 0.604693 0.291013
v -0.281038 0.604693 0.288075
v -0.281038 0.604693 0.288795
v -0.280745 0.604693 0.282326
v -0.281031 0.608483 0.284498
v -0.281031 0.604693 0.284498
v -0.280745 0.608483 0.282326
v -0.280745 0.608483 0.282326
v -0.280745 0.604693 0.282326
v -0.281031 0.608483 0.284498
v -0.281031 0.604693 0.284498
v -0.280745 0.601245 0.282326
v -0.281031 0.604693 0.284498
v -0.281031 0.601245 0.284498
v -0.280745 0.604693 0.282326
v -0.280745 0.604693 0.282326
v -0.280745 0.601245 0.282326
v -0.281031 0.604693 0.284498
v -0.281031 0.601245 0.284498
v -0.281031 0.604693 0.284498
v -0.281031 0.608483 0.285157
v -0.281031 0.604693 0.285157
v -0.281031 0.608483 0.284498
v -0.281031 0.608483 0.284498
v -0.281031 0.604693 0.284498
v -0.281031 0.608483 0.285157
v -0.281031 0.604693 0.285157
v -0.281031 0.601245 0.284498
v -0.281031 0.604693 0.285157
v -0.281031 0.601245 0.285157
v -0.281031 0.604693 0.284498
v -0.281031 0.604693 0.284498
v -0.281031 0.601245 0.284498
v -0.281031 0.604693 0.285157
v -0.281031 0.601245 0.285157
v -0.281031 0.608483 0.285157
v -0.277783 0.604693 0.285157
v -0.281031 0.604693 0.285157
v -0.277783 0.608483 0.285157
v -0.277783 0.608483 0.285157
v -0.281031 0.608483 0.285157
v -0.277783 0.604693 0.285157
v -0.281031 0.604693 0.285157
v -0.281031 0.604693 0.285157
v -0.277783 0.601245 0.285157
v -0.281031 0.601245 0.285157
v -0.277783 0.604693 0.285157
v -0.277783 0.604693 0.285157
v -0.281031 0.604693 0.285157
v -0.277783 0.601245 0.285157
v -0.281031 0.601245 0.285157
v -0.277783 0.604693 0.285157
v -0.277783 0.608483 0.288075
v -0.277783 0.604693 0.288075
v -0.277783 0.608483 0.285157
v -0.277783 0.608483 0.285157
v -0.277783 0.604693 0.285157
v -0.277783 0.608483 0.288075
v -0.277783 0.604693 0.288075
v -0.277783 0.601245 0.285157
v -0.277783 0.604693 0.288075
v -0.277783 0.601245 0.288075
v -0.277783 0.604693 0.285157
v -0.277783 0.604693 0.285157
v -0.277783 0.601245 0.285157
v -0.277783 0.604693 0.288075
v -0.277783 0.601245 0.288075
v -0.277783 0.608483 0.288075
v -0.281038 0.604693 0.288075
v -0.277783 0.604693 0.288075
v -0.281038 0.608483 0.288075
v -0.281038 0.608483 0.288075
v -0.277783 0.608483 0.288075
v -0.281038 0.604693 0.288075
v -0.277783 0.604693 0.288075
v -0.277783 0.604693 0.288075
v -0.281038 0.601245 0.288075
v -0.277783 0.601245 0.288075
v -0.281038 0.604693 0.288075
v -0.281038 0.604693 0.288075
v -0.277783 0.604693 0.288075
v -0.281038 0.601245 0.288075
v -0.277783 0.601245 0.288075
v -0.281038 0.604693 0.288075
v -0.281038 0.608483 0.288795
v -0.281038 0.604693 0.288795
v -0.281038 0.608483 0.288075
v -0.281038 0.608483 0.288075
v -0.281038 0.604693 0.288075
v -0.281038 0.608483 0.288795
v -0.281038 0.604693 0.288795
v -0.281038 0.601245 0.288075
v -0.281038 0.604693 0.288795
v -0.281038 0.601245 0.288795
v -0.281038 0.604693 0.288075
v -0.281038 0.604693 0.288075
v -0.281038 0.601245 0.288075
v -0.281038 0.604693 0.288795
v -0.281038 0.601245 0.288795
v -0.281038 0.604693 0.288795
v -0.280745 0.608483 0.291013
v -0.280745 0.604693 0.291013
v -0.281038 0.608483 0.288795
v -0.281038 0.608483 0.288795
v -0.281038 0.604693 0.288795
v -0.280745 0.608483 0.291013
v -0.280745 0.604693 0.291013
v -0.281038 0.601245 0.288795
v -0.280745 0.604693 0.291013
v -0.280745 0.601245 0.291013
v -0.281038 0.604693 0.288795
v -0.281038 0.604693 0.288795
v -0.281038 0.601245 0.288795
v -0.280745 0.604693 0.291013
v -0.280745 0.601245 0.291013
v -0.279069 0.608483 0.295060
v -0.279069 0.604693 0.295060
v -0.279069 0.608483 0.295060
v -0.279069 0.604693 0.295060
v -0.279069 0.604693 0.295060
v -0.279069 0.601245 0.295060
v -0.279069 0.604693 0.295060
v -0.279069 0.601245 0.295060
v -0.276402 0.608483 0.298536
v -0.276402 0.604693 0.298536
v -0.276402 0.608483 0.298536
v -0.276402 0.604693 0.298536
v -0.276402 0.604693 0.298536
v -0.276402 0.601245 0.298536
v -0.276402 0.604693 0.298536
v -0.276402 0.601245 0.298536
v -0.272927 0.604693 0.301203
v -0.272927 0.608483 0.301203
v -0.272927 0.608483 0.301203
v -0.272927 0.604693 0.301203
v -0.272927 0.601245 0.301203
v -0.272927 0.604693 0.301203
v -0.272927 0.604693 0.301203
v -0.272927 0.601245 0.301203
v -0.268879 0.604693 0.302879
v -0.268879 0.608483 0.302879
v -0.268879 0.608483 0.302879
v -0.268879 0.604693 0.302879
v -0.268879 0.601245 0.302879
v -0.268879 0.604693 0.302879
v -0.268879 0.604693 0.302879
v -0.268879 0.601245 0.302879
v -0.264536 0.604693 0.303451
v -0.264536 0.608483 0.303451
v -0.264536 0.608483 0.303451
v -0.264536 0.604693 0.303451
v -0.264536 0.601245 0.303451
v -0.264536 0.604693 0.303451
v -0.264536 0.604693 0.303451
v -0.264536 0.601245 0.303451
v -0.260192 0.604693 0.302879
v -0.260192 0.608483 0.302879
v -0.260192 0.608483 0.302879
v -0.260192 0.604693 0.302879
v -0.260192 0.601245 0.302879
v -0.260192 0.604693 0.302879
v -0.260192 0.604693 0.302879
v -0.260192 0.601245 0.302879
v -0.256145 0.604693 0.301203
v -0.256145 0.608483 0.301203
v -0.256145 0.608483 0.301203
v -0.256145 0.604693 0.301203
v -0.256145 0.601245 0.301203
v -0.256145 0.604693 0.301203
v -0.256145 0.604693 0.301203
v -0.256145 0.601245 0.301203
v -0.252669 0.604693 0.298536
v -0.252669 0.608483 0.298536
v -0.252669 0.608483 0.298536
v -0.252669 0.604693 0.298536
v -0.252669 0.601245 0.298536
v -0.252669 0.604693 0.298536
v -0.252669 0.604693 0.298536
v -0.252669 0.601245 0.298536
v -0.250002 0.608483 0.295060
v -0.250002 0.604693 0.295060
v -0.250002 0.604693 0.295060
v -0.250002 0.608483 0.295060
v -0.250002 0.604693 0.295060
v -0.250002 0.601245 0.295060
v -0.250002 0.601245 0.295060
v -0.250002 0.604693 0.295060
v -0.248326 0.608483 0.291013
v -0.248326 0.604693 0.291013
v -0.248326 0.604693 0.291013
v -0.248326 0.608483 0.291013
v -0.248326 0.604693 0.291013
v -0.248326 0.601245 0.291013
v -0.248326 0.601245 0.291013
v -0.248326 0.604693 0.291013
v -0.247754 0.608483 0.286670
v -0.247754 0.604693 0.286670
v -0.247754 0.604693 0.286670
v -0.247754 0.608483 0.286670
v -0.247754 0.604693 0.286670
v -0.247754 0.601245 0.286670
v -0.247754 0.601245 0.286670
v -0.247754 0.604693 0.286670
v -0.248326 0.608483 0.282326
v -0.248326 0.604693 0.282326
v -0.248326 0.604693 0.282326
v -0.248326 0.608483 0.282326
v -0.248326 0.604693 0.282326
v -0.248326 0.601245 0.282326
v -0.248326 0.601245 0.282326
v -0.248326 0.604693 0.282326
v -0.250002 0.608483 0.278279
v -0.250002 0.604693 0.278279
v -0.250002 0.604693 0.278279
v -0.250002 0.608483 0.278279
v -0.250002 0.604693 0.278279
v -0.250002 0.601245 0.278279
v -0.250002 0.601245 0.278279
v -0.250002 0.604693 0.278279
v -0.252669 0.608483 0.274803
v -0.252669 0.604693 0.274803
v -0.252669 0.604693 0.274803
v -0.252669 0.608483 0.274803
v -0.252669 0.604693 0.274803
v -0.252669 0.601245 0.274803
v -0.252669 0.601245 0.274803
v -0.252669 0.604693 0.274803
v -0.256145 0.604693 0.272136
v -0.256145 0.608483 0.272136
v -0.256145 0.608483 0.272136
v -0.256145 0.604693 0.272136
v -0.256145 0.601245 0.272136
v -0.256145 0.604693 0.272136
v -0.256145 0.604693 0.272136
v -0.256145 0.601245 0.272136
v -0.260192 0.604693 0.270460
v -0.260192 0.608483 0.270460
v -0.260192 0.608483 0.270460
v -0.260192 0.604693 0.270460
v -0.260192 0.601245 0.270460
v -0.260192 0.604693 0.270460
v -0.260192 0.604693 0.270460
v -0.260192 0.601245 0.270460
v -0.264536 0.604693 0.269888
v -0.264536 0.608483 0.269888
v -0.264536 0.608483 0.269888
v -0.264536 0.604693 0.269888
v -0.264536 0.601245 0.269888
v -0.264536 0.604693 0.269888
v -0.264536 0.604693 0.269888
v -0.264536 0.601245 0.269888
v -0.268879 0.604693 0.270460
v -0.268879 0.608483 0.270460
v -0.268879 0.608483 0.270460
v -0.268879 0.604693 0.270460
v -0.268879 0.601245 0.270460
v -0.268879 0.604693 0.270460
v -0.268879 0.604693 0.270460
v -0.268879 0.601245 0.270460
v -0.272927 0.604693 0.272136
v -0.272927 0.608483 0.272136
v -0.272927 0.608483 0.272136
v -0.272927 0.604693 0.272136
v -0.272927 0.601245 0.272136
v -0.272927 0.604693 0.272136
v -0.272927 0.604693 0.272136
v -0.272927 0.601245 0.272136
v -0.276402 0.604693 0.274803
v -0.276402 0.608483 0.274803
v -0.276402 0.608483 0.274803
v -0.276402 0.604693 0.274803
v -0.276402 0.601245 0.274803
v -0.276402 0.604693 0.274803
v -0.276402 0.604693 0.274803
v -0.276402 0.601245 0.274803
v -0.279069 0.608483 0.278279
v -0.279069 0.604693 0.278279
v -0.279069 0.608483 0.278279
v -0.279069 0.604693 0.278279
v -0.279069 0.604693 0.278279
v -0.279069 0.601245 0.278279
v -0.279069 0.604693 0.278279
v -0.279069 0.601245 0.278279
vn 0 1 0
vn 0 -1 0
vn 0.9659258358036645 0 0.2588190095935616
vn 0.9914448610250888 0 0.13052619486885547
vn -0.9659258358036645 0 -0.2588190095935616
vn -0.9914448610250888 0 -0.13052619486885547
vn 1 0 0
vn -1 0 0
vn 0 0 -1
vn 0 0 1
vn 0.9914448610250888 0 -0.13052619486885553
vn 0.9659258358036645 0 -0.25881900959356163
vn -0.9914448610250888 0 0.13052619486885553
vn -0.9659258358036645 0 0.25881900959356163
vn 0.866025402838329 0 -0.5000000016387101
vn -0.866025402838329 0 0.5000000016387101
vn 0.7071067811865476 0 -0.7071067811865476
vn -0.7071067811865476 0 0.7071067811865476
vn 0.5000000016387101 0 -0.866025402838329
vn -0.5000000016387101 0 0.866025402838329
vn 0.2588190095935616 0 -0.9659258358036645
vn -0.2588190095935616 0 0.9659258358036645
vn -0.25881900959356163 0 -0.9659258358036645
vn 0.25881900959356163 0 0.9659258358036645
vn -0.5000000016387101 0 -0.866025402838329
vn 0.5000000016387101 0 0.866025402838329
vn -0.7071067811865476 0 -0.7071067811865476
vn 0.7071067811865476 0 0.7071067811865476
vn -0.866025402838329 0 -0.5000000016387101
vn 0.866025402838329 0 0.5000000016387101
usemtl material_0_0
f 1//1 2//1 3//1
f 2//1 1//1 4//1
f 4//1 1//1 5//1
f 4//1 5//1 6//1
f 4//1 6//1 7//1
f 7//1 8//1 9//1
f 8//1 7//1 10//1
f 10//1 7//1 11//1
f 11//1 7//1 12//1
f 12//1 7//1 6//1
f 12//1 6//1 13//1
f 12//1 13//1 14//1
f 14//1 13//1 15//1
f 14//1 15//1 16//1
f 16//1 15//1 17//1
f 16//1 17//1 18//1
f 18//1 17//1 19//1
f 19//1 17//1 20//1
f 19//1 20//1 21//1
f 21//1 20//1 22//1
f 21//1 22//1 23//1
f 23//1 22//1 24//1
f 23//1 24//1 25//1
f 25//1 24//1 26//1
f 25//1 26//1 27//1
f 25//1 27//1 28//1
f 28//1 27//1 29//1
f 30//2 31//2 32//2
f 32//2 31//2 33//2
f 31//2 34//2 33//2
f 34//2 35//2 33//2
f 33//2 35//2 36//2
f 35//2 37//2 36//2
f 36//2 37//2 38//2
f 37//2 39//2 38//2
f 38//2 39//2 40//2
f 39//2 41//2 40//2
f 40//2 41//2 42//2
f 42//2 41//2 43//2
f 41//2 44//2 43//2
f 43//2 44//2 45//2
f 44//2 46//2 45//2
f 45//2 46//2 47//2
f 46//2 48//2 47//2
f 48//2 49//2 47//2
f 47//2 49//2 50//2
f 50//2 49//2 51//2
f 51//2 49//2 52//2
f 53//2 52//2 49//2
f 49//2 48//2 54//2
f 48//2 55//2 54//2
f 55//2 56//2 54//2
f 54//2 56//2 57//2
f 58//2 57//2 56//2
f 59//3 60//4 61//4
f 60//4 59//3 62//3
f 63//5 64//5 65//6
f 66//6 65//6 64//5
f 67//3 68//4 69//4
f 68//4 67//3 70//3
f 71//5 72//5 73//6
f 74//6 73//6 72//5
f 75//7 76//7 77//7
f 76//7 75//7 78//7
f 79//8 80//8 81//8
f 82//8 81//8 80//8
f 83//7 84//7 85//7
f 84//7 83//7 86//7
f 87//8 88//8 89//8
f 90//8 89//8 88//8
f 91//9 92//9 93//9
f 92//9 91//9 94//9
f 95//10 96//10 97//10
f 98//10 97//10 96//10
f 99//9 100//9 101//9
f 100//9 99//9 102//9
f 103//10 104//10 105//10
f 106//10 105//10 104//10
f 107//7 108//7 109//7
f 108//7 107//7 110//7
f 111//8 112//8 113//8
f 114//8 113//8 112//8
f 115//7 116//7 117//7
f 116//7 115//7 118//7
f 119//8 120//8 121//8
f 122//8 121//8 120//8
f 123//10 124//10 125//10
f 124//10 123//10 126//10
f 127//9 128//9 129//9
f 130//9 129//9 128//9
f 131//10 132//10 133//10
f 132//10 131//10 134//10
f 135//9 136//9 137//9
f 138//9 137//9 136//9
f 139//7 140//7 141//7
f 140//7 139//7 142//7
f 143//8 144//8 145//8
f 146//8 145//8 144//8
f 147//7 148//7 149//7
f 148//7 147//7 150//7
f 151//8 152//8 153//8
f 154//8 153//8 152//8
f 155//11 156//12 157//12
f 156//12 155//11 158//11
f 159//13 160//13 161//14
f 162//14 161//14 160//13
f 163//11 164//12 165//12
f 164//12 163//11 166//11
f 167//13 168//13 169//14
f 170//14 169//14 168//13
f 157//12 171//15 172//15
f 171//15 157//12 156//12
f 161//14 162//14 173//16
f 174//16 173//16 162//14
f 165//12 175//15 176//15
f 175//15 165//12 164//12
f 169//14 170//14 177//16
f 178//16 177//16 170//14
f 172//15 179//17 180//17
f 179//17 172//15 171//15
f 173//16 174//16 181//18
f 182//18 181//18 174//16
f 176//15 183//17 184//17
f 183//17 176//15 175//15
f 177//16 178//16 185//18
f 186//18 185//18 178//16
f 179//17 187//19 180//17
f 187//19 179//17 188//19
f 189//20 181//18 190//20
f 182//18 190//20 181//18
f 183//17 191//19 184//17
f 191//19 183//17 192//19
f 193//20 185//18 194//20
f 186//18 194//20 185//18
f 188//19 195//21 187//19
f 195//21 188//19 196//21
f 197//22 189//20 198//22
f 190//20 198//22 189//20
f 192//19 199//21 191//19
f 199//21 192//19 200//21
f 201//22 193//20 202//22
f 194//20 202//22 193//20
f 196//21 203//9 195//21
f 203//9 196//21 204//9
f 205//10 197//22 206//10
f 198//22 206//10 197//22
f 200//21 207//9 199//21
f 207//9 200//21 208//9
f 209//10 201//22 210//10
f 202//22 210//10 201//22
f 204//9 211//23 203//9
f 211//23 204//9 212//23
f 213//24 205//10 214//24
f 206//10 214//24 205//10
f 208//9 215//23 207//9
f 215//23 208//9 216//23
f 217//24 209//10 218//24
f 210//10 218//24 209//10
f 212//23 219//25 211//23
f 219//25 212//23 220//25
f 221//26 213//24 222//26
f 214//24 222//26 213//24
f 216//23 223//25 215//23
f 223//25 216//23 224//25
f 225//26 217//24 226//26
f 218//24 226//26 217//24
f 220//25 227//27 219//25
f 227//27 220//25 228//27
f 229//28 221//26 230//28
f 222//26 230//28 221//26
f 224//25 231//27 223//25
f 231//27 224//25 232//27
f 233//28 225//26 234//28
f 226//26 234//28 225//26
f 235//29 227//27 228//27
f 227//27 235//29 236//29
f 237//30 238//30 230//28
f 229//28 230//28 238//30
f 239//29 231//27 232//27
f 231//27 239//29 240//29
f 241//30 242//30 234//28
f 233//28 234//28 242//30
f 243//5 236//29 235//29
f 236//29 243//5 244//5
f 245//3 246//3 237//30
f 238//30 237//30 246//3
f 247//5 240//29 239//29
f 240//29 247//5 248//5
f 249//3 250//3 241//30
f 242//30 241//30 250//3
f 251//8 244//5 243//5
f 244//5 251//8 252//8
f 253//7 254//7 245//3
f 246//3 245//3 254//7
f 255//8 248//5 247//5
f 248//5 255//8 256//8
f 257//7 258//7 249//3
f 250//3 249//3 258//7
f 259//14 252//8 251//8
f 252//8 259//14 260//14
f 261//12 262//12 253//7
f 254//7 253//7 262//12
f 263//14 256//8 255//8
f 256//8 263//14 264//14
f 265//12 266//12 257//7
f 258//7 257//7 266//12
f 267//16 260//14 259//14
f 260//14 267//16 268//16
f 269//15 270//15 261//12
f 262//12 261//12 270//15
f 271//16 264//14 263//14
f 264//14 271//16 272//16
f 273//15 274//15 265//12
f 266//12 265//12 274//15
f 275//18 268//16 267//16
f 268//16 275//18 276//18
f 277//17 278//17 269//15
f 270//15 269//15 278//17
f 279//18 272//16 271//16
f 272//16 279//18 280//18
f 281//17 282//17 273//15
f 274//15 273//15 282//17
f 275//18 283//20 276//18
f 283//20 275//18 284//20
f 285//19 278//17 286//19
f 277//17 286//19 278//17
f 279//18 287//20 280//18
f 287//20 279//18 288//20
f 289//19 282//17 290//19
f 281//17 290//19 282//17
f 284//20 291//22 283//20
f 291//22 284//20 292//22
f 293//21 285//19 294//21
f 286//19 294//21 285//19
f 288//20 295//22 287//20
f 295//22 288//20 296//22
f 297//21 289//19 298//21
f 290//19 298//21 289//19
f 292//22 299//10 291//22
f 299//10 292//22 300//10
f 301//9 293//21 302//9
f 294//21 302//9 293//21
f 296//22 303//10 295//22
f 303//10 296//22 304//10
f 305//9 297//21 306//9
f 298//21 306//9 297//21
f 300//10 307//24 299//10
f 307//24 300//10 308//24
f 309//23 301//9 310//23
f 302//9 310//23 301//9
f 304//10 311//24 303//10
f 311//24 304//10 312//24
f 313//23 305//9 314//23
f 306//9 314//23 305//9
f 308//24 315//26 307//24
f 315//26 308//24 316//26
f 317//25 309//23 318//25
f 310//23 318//25 309//23
f 312//24 319//26 311//24
f 319//26 312//24 320//26
f 321//25 313//23 322//25
f 314//23 322//25 313//23
f 316//26 323//28 315//26
f 323//28 316//26 324//28
f 325//27 317//25 326//27
f 318//25 326//27 317//25
f 320//26 327//28 319//26
f 327//28 320//26 328//28
f 329//27 321//25 330//27
f 322//25 330//27 321//25
f 323//28 331//30 332//30
f 331//30 323//28 324//28
f 325//27 326//27 333//29
f 334//29 333//29 326//27
f 327//28 335//30 336//30
f 335//30 327//28 328//28
f 329//27 330//27 337//29
f 338//29 337//29 330//27
f 332//30 62//3 59//3
f 62//3 332//30 331//30
f 333//29 334//29 63//5
f 64//5 63//5 334//29
f 336//30 70//3 67//3
f 70//3 336//30 335//30
f 337//29 338//29 71//5
f 72//5 71//5 338//29
