# SSTK version 0.8.0
# 88
mtllib original-88.mtl
o #ID499
v 0.358857 0.379476 0.640679
v 0.354132 0.382733 0.637421
v 0.358125 0.380209 0.642029
v 0.358125 0.380209 0.642029
v 0.354132 0.382733 0.637421
v 0.358857 0.379476 0.640679
v 0.357170 0.381163 0.643065
v 0.357170 0.381163 0.643065
v 0.360858 0.376399 0.646655
v 0.362325 0.374932 0.643951
v 0.362325 0.374932 0.643951
v 0.360858 0.376399 0.646655
v 0.359317 0.379016 0.639108
v 0.359317 0.379016 0.639108
v 0.356059 0.382274 0.643716
v 0.356059 0.382274 0.643716
v 0.358945 0.378312 0.648731
v 0.358945 0.378312 0.648731
v 0.363248 0.374009 0.640801
v 0.363248 0.374009 0.640801
v 0.359474 0.378859 0.637421
v 0.359474 0.378859 0.637421
v 0.354866 0.383467 0.643938
v 0.354866 0.383467 0.643938
v 0.356718 0.380539 0.650035
v 0.356718 0.380539 0.650035
v 0.363563 0.373695 0.637421
v 0.363563 0.373695 0.637421
v 0.359317 0.379016 0.635734
v 0.359317 0.379016 0.635734
v 0.353673 0.384660 0.643716
v 0.353673 0.384660 0.643716
v 0.354328 0.382929 0.650480
v 0.354328 0.382929 0.650480
v 0.363248 0.374009 0.634041
v 0.363248 0.374009 0.634041
v 0.358857 0.379476 0.634162
v 0.358857 0.379476 0.634162
v 0.352562 0.385771 0.643065
v 0.352562 0.385771 0.643065
v 0.351938 0.385319 0.650035
v 0.351938 0.385319 0.650035
v 0.362325 0.374932 0.630891
v 0.362325 0.374932 0.630891
v 0.358125 0.380209 0.632813
v 0.358125 0.380209 0.632813
v 0.351608 0.386726 0.642029
v 0.351608 0.386726 0.642029
v 0.349711 0.387546 0.648731
v 0.349711 0.387546 0.648731
v 0.360858 0.376399 0.628186
v 0.360858 0.376399 0.628186
v 0.357170 0.381163 0.631777
v 0.357170 0.381163 0.631777
v 0.350875 0.387458 0.640679
v 0.350875 0.387458 0.640679
v 0.347798 0.389459 0.646655
v 0.347798 0.389459 0.646655
v 0.358945 0.378312 0.626111
v 0.358945 0.378312 0.626111
v 0.356059 0.382274 0.631126
v 0.356059 0.382274 0.631126
v 0.350415 0.387918 0.639108
v 0.350415 0.387918 0.639108
v 0.346331 0.390926 0.643951
v 0.346331 0.390926 0.643951
v 0.356718 0.380539 0.624806
v 0.356718 0.380539 0.624806
v 0.354866 0.383467 0.630904
v 0.354866 0.383467 0.630904
v 0.350258 0.388075 0.637421
v 0.350258 0.388075 0.637421
v 0.345408 0.391849 0.640801
v 0.345408 0.391849 0.640801
v 0.354328 0.382929 0.624361
v 0.354328 0.382929 0.624361
v 0.353673 0.384660 0.631126
v 0.353673 0.384660 0.631126
v 0.350415 0.387918 0.635734
v 0.350415 0.387918 0.635734
v 0.345094 0.392164 0.637421
v 0.345094 0.392164 0.637421
v 0.351938 0.385319 0.624806
v 0.351938 0.385319 0.624806
v 0.352562 0.385771 0.631777
v 0.352562 0.385771 0.631777
v 0.350875 0.387458 0.634162
v 0.350875 0.387458 0.634162
v 0.345408 0.391849 0.634041
v 0.345408 0.391849 0.634041
v 0.349711 0.387546 0.626111
v 0.349711 0.387546 0.626111
v 0.351608 0.386726 0.632813
v 0.351608 0.386726 0.632813
v 0.346331 0.390926 0.630891
v 0.346331 0.390926 0.630891
v 0.347798 0.389459 0.628186
v 0.347798 0.389459 0.628186
vn 0.7010453953553962 0.7130996676999491 -0.004921135765100738
vn 0.7071067811865591 0.7071067811865359 0
vn 0.702151395208528 0.7119936678362394 -0.006959537902508597
vn -0.702151395208528 -0.7119936678362394 0.006959537902508597
vn -0.7071067811865591 -0.7071067811865359 0
vn -0.7010453953553962 -0.7130996676999491 0.004921135765100738
vn 0.7035927631487071 0.7105522999048158 -0.008523657943874458
vn -0.7035927631487071 -0.7105522999048158 0.008523657943874458
vn 0.7601316859988654 0.644614377179954 0.0816830745835522
vn 0.7731126453805784 0.6316334189259153 0.05775864998944407
vn -0.7731126453805784 -0.6316334189259153 -0.05775864998944407
vn -0.7601316859988654 -0.644614377179954 -0.0816830745835522
vn 0.7003501347387238 0.7137949283180031 -0.002547367061937126
vn -0.7003501347387238 -0.7137949283180031 0.002547367061937126
vn 0.7052712710510469 0.7088737920025234 -0.009506904964483545
vn -0.7052712710510469 -0.7088737920025234 0.009506904964483545
vn 0.743214564014388 0.6615315000427351 0.10004092306707299
vn -0.743214564014388 -0.6615315000427351 -0.10004092306707299
vn 0.7812728175338802 0.6234732469893671 0.029898074707377216
vn -0.7812728175338802 -0.6234732469893671 -0.029898074707377216
vn 0.7001129947765876 0.7140320682889233 0
vn -0.7001129947765876 -0.7140320682889233 0
vn 0.7070725315308898 0.7070725315309766 -0.009842271530247046
vn -0.7070725315308898 -0.7070725315309766 0.009842271530247046
vn 0.7235141628466843 0.6812319012446402 0.11158114933479668
vn -0.7235141628466843 -0.6812319012446402 -0.11158114933479668
vn 0.7840560967366061 0.6206899686398658 0
vn -0.7840560967366061 -0.6206899686398658 0
vn 0.7003501347387238 0.7137949283180031 0.0025473670619374903
vn -0.7003501347387238 -0.7137949283180031 -0.0025473670619374903
vn 0.7088737920025237 0.7052712710510467 -0.009506904964483545
vn -0.7088737920025237 -0.7052712710510467 0.009506904964483545
vn 0.7023730324389326 0.7023730324387983 0.11551730002586288
vn -0.7023730324389326 -0.7023730324387983 -0.11551730002586288
vn 0.7812728175338802 0.6234732469893671 -0.02989807470737691
vn -0.7812728175338802 -0.6234732469893671 0.02989807470737691
vn 0.7010453953553962 0.7130996676999491 0.0049211357651011015
vn -0.7010453953553962 -0.7130996676999491 -0.0049211357651011015
vn 0.710552299904816 0.7035927631487069 -0.00852365794387446
vn -0.710552299904816 -0.7035927631487069 0.00852365794387446
vn 0.6812319012446404 0.7235141628466841 0.11158114933479668
vn -0.6812319012446404 -0.7235141628466841 -0.11158114933479668
vn 0.7731126453805784 0.6316334189259153 -0.05775864998944376
vn -0.7731126453805784 -0.6316334189259153 0.05775864998944376
vn 0.7021513952085279 0.7119936678362392 0.00695953790250896
vn -0.7021513952085279 -0.7119936678362392 -0.00695953790250896
vn 0.7119936678362396 0.7021513952085278 -0.006959537902508602
vn -0.7119936678362396 -0.7021513952085278 0.006959537902508602
vn 0.6615315000427353 0.7432145640143876 0.100040923067073
vn -0.6615315000427353 -0.7432145640143876 -0.100040923067073
vn 0.7601316859988654 0.644614377179954 -0.0816830745835519
vn -0.7601316859988654 -0.644614377179954 0.0816830745835519
vn 0.703592763148707 0.7105522999048157 0.008523657943874819
vn -0.703592763148707 -0.7105522999048157 -0.008523657943874819
vn 0.7130996676999495 0.701045395355396 -0.004921135765100742
vn -0.7130996676999495 -0.701045395355396 0.004921135765100742
vn 0.6446143771799543 0.7601316859988652 0.08168307458355223
vn -0.6446143771799543 -0.7601316859988652 -0.08168307458355223
vn 0.743214564014388 0.6615315000427352 -0.10004092306707267
vn -0.743214564014388 -0.6615315000427352 0.10004092306707267
vn 0.7052712710510469 0.7088737920025234 0.009506904964483906
vn -0.7052712710510469 -0.7088737920025234 -0.009506904964483906
vn 0.7137949283180033 0.7003501347387235 -0.002547367061937131
vn -0.7137949283180033 -0.7003501347387235 0.002547367061937131
vn 0.6316334189259155 0.7731126453805782 0.05775864998944412
vn -0.6316334189259155 -0.7731126453805782 -0.05775864998944412
vn 0.7235141628466843 0.6812319012446402 -0.11158114933479633
vn -0.7235141628466843 -0.6812319012446402 0.11158114933479633
vn 0.7070725315310159 0.7070725315308505 0.009842271530247405
vn -0.7070725315310159 -0.7070725315308505 -0.009842271530247405
vn 0.7140320682889235 0.7001129947765874 0
vn -0.7140320682889235 -0.7001129947765874 0
vn 0.6234732469893673 0.78127281753388 0.02989807470737727
vn -0.6234732469893673 -0.78127281753388 -0.02989807470737727
vn 0.7023730324387835 0.7023730324389472 -0.1155173000258625
vn -0.7023730324387835 -0.7023730324389472 0.1155173000258625
vn 0.7088737920025237 0.7052712710510467 0.009506904964483906
vn -0.7088737920025237 -0.7052712710510467 -0.009506904964483906
vn 0.7137949283180033 0.7003501347387235 0.002547367061937485
vn -0.7137949283180033 -0.7003501347387235 -0.002547367061937485
vn 0.6206899686398661 0.7840560967366059 0
vn -0.6206899686398661 -0.7840560967366059 0
vn 0.6812319012446404 0.7235141628466841 -0.11158114933479633
vn -0.6812319012446404 -0.7235141628466841 0.11158114933479633
vn 0.7105522999048159 0.7035927631487068 0.008523657943874816
vn -0.7105522999048159 -0.7035927631487068 -0.008523657943874816
vn 0.7130996676999495 0.701045395355396 0.004921135765101098
vn -0.7130996676999495 -0.701045395355396 -0.004921135765101098
vn 0.6234732469893673 0.78127281753388 -0.02989807470737686
vn -0.6234732469893673 -0.78127281753388 0.02989807470737686
vn 0.6615315000427353 0.7432145640143878 -0.10004092306707263
vn -0.6615315000427353 -0.7432145640143878 0.10004092306707263
vn 0.7119936678362395 0.7021513952085277 0.006959537902508956
vn -0.7119936678362395 -0.7021513952085277 -0.006959537902508956
vn 0.6316334189259155 0.7731126453805782 -0.05775864998944372
vn -0.6316334189259155 -0.7731126453805782 0.05775864998944372
vn 0.6446143771799543 0.7601316859988652 -0.08168307458355185
vn -0.6446143771799543 -0.7601316859988652 0.08168307458355185
usemtl material_0_0
f 1//1 2//2 3//3
f 4//4 5//5 6//6
f 3//3 2//2 7//7
f 8//8 5//5 4//4
f 9//9 1//1 3//3
f 1//1 9//9 10//10
f 11//11 12//12 6//6
f 4//4 6//6 12//12
f 13//13 2//2 1//1
f 6//6 5//5 14//14
f 7//7 2//2 15//15
f 16//16 5//5 8//8
f 17//17 3//3 7//7
f 3//3 17//17 9//9
f 12//12 18//18 4//4
f 8//8 4//4 18//18
f 10//10 13//13 1//1
f 13//13 10//10 19//19
f 20//20 11//11 14//14
f 6//6 14//14 11//11
f 21//21 2//2 13//13
f 14//14 5//5 22//22
f 15//15 2//2 23//23
f 24//24 5//5 16//16
f 25//25 7//7 15//15
f 7//7 25//25 17//17
f 18//18 26//26 8//8
f 16//16 8//8 26//26
f 19//19 21//21 13//13
f 21//21 19//19 27//27
f 28//28 20//20 22//22
f 14//14 22//22 20//20
f 21//21 29//29 2//2
f 5//5 30//30 22//22
f 2//2 31//31 23//23
f 24//24 32//32 5//5
f 33//33 15//15 23//23
f 15//15 33//33 25//25
f 26//26 34//34 16//16
f 24//24 16//16 34//34
f 21//21 35//35 29//29
f 35//35 21//21 27//27
f 28//28 22//22 36//36
f 30//30 36//36 22//22
f 29//29 37//37 2//2
f 5//5 38//38 30//30
f 2//2 39//39 31//31
f 32//32 40//40 5//5
f 33//33 31//31 41//41
f 31//31 33//33 23//23
f 24//24 34//34 32//32
f 42//42 32//32 34//34
f 29//29 43//43 37//37
f 43//43 29//29 35//35
f 36//36 30//30 44//44
f 38//38 44//44 30//30
f 37//37 45//45 2//2
f 5//5 46//46 38//38
f 2//2 47//47 39//39
f 40//40 48//48 5//5
f 41//41 39//39 49//49
f 39//39 41//41 31//31
f 32//32 42//42 40//40
f 50//50 40//40 42//42
f 37//37 51//51 45//45
f 51//51 37//37 43//43
f 44//44 38//38 52//52
f 46//46 52//52 38//38
f 45//45 53//53 2//2
f 5//5 54//54 46//46
f 2//2 55//55 47//47
f 48//48 56//56 5//5
f 49//49 47//47 57//57
f 47//47 49//49 39//39
f 40//40 50//50 48//48
f 58//58 48//48 50//50
f 45//45 59//59 53//53
f 59//59 45//45 51//51
f 52//52 46//46 60//60
f 54//54 60//60 46//46
f 53//53 61//61 2//2
f 5//5 62//62 54//54
f 2//2 63//63 55//55
f 56//56 64//64 5//5
f 57//57 55//55 65//65
f 55//55 57//57 47//47
f 48//48 58//58 56//56
f 66//66 56//56 58//58
f 53//53 67//67 61//61
f 67//67 53//53 59//59
f 60//60 54//54 68//68
f 62//62 68//68 54//54
f 61//61 69//69 2//2
f 5//5 70//70 62//62
f 2//2 71//71 63//63
f 64//64 72//72 5//5
f 65//65 63//63 73//73
f 63//63 65//65 55//55
f 56//56 66//66 64//64
f 74//74 64//64 66//66
f 69//69 67//67 75//75
f 67//67 69//69 61//61
f 62//62 70//70 68//68
f 76//76 68//68 70//70
f 2//2 69//69 77//77
f 78//78 70//70 5//5
f 2//2 79//79 71//71
f 72//72 80//80 5//5
f 73//73 71//71 81//81
f 71//71 73//73 63//63
f 64//64 74//74 72//72
f 82//82 72//72 74//74
f 77//77 75//75 83//83
f 75//75 77//77 69//69
f 70//70 78//78 76//76
f 84//84 76//76 78//78
f 2//2 77//77 85//85
f 86//86 78//78 5//5
f 2//2 87//87 79//79
f 80//80 88//88 5//5
f 71//71 89//89 81//81
f 89//89 71//71 79//79
f 80//80 72//72 90//90
f 82//82 90//90 72//72
f 85//85 83//83 91//91
f 83//83 85//85 77//77
f 78//78 86//86 84//84
f 92//92 84//84 86//86
f 2//2 85//85 93//93
f 94//94 86//86 5//5
f 2//2 93//93 87//87
f 88//88 94//94 5//5
f 79//79 95//95 89//89
f 95//95 79//79 87//87
f 88//88 80//80 96//96
f 90//90 96//96 80//80
f 93//93 91//91 97//97
f 91//91 93//93 85//85
f 86//86 94//94 92//92
f 98//98 92//92 94//94
f 87//87 97//97 95//95
f 97//97 87//87 93//93
f 94//94 88//88 98//98
f 96//96 98//98 88//88
