# SSTK version 0.8.0
# 70
mtllib original-70.mtl
o #ID422
v -0.399646 -0.430626 0.535726
v 0.451824 -0.583891 0.535726
v -0.399646 -0.583891 0.535726
v 0.451824 -0.430626 0.535726
v 0.451824 -0.430626 0.535726
v -0.399646 -0.430626 0.535726
v 0.451824 -0.583891 0.535726
v -0.399646 -0.583891 0.535726
v -0.399646 -0.430626 0.535726
v -0.399646 -0.583891 0.563416
v -0.399646 -0.430626 0.563416
v -0.399646 -0.583891 0.535726
v -0.399646 -0.583891 0.535726
v -0.399646 -0.430626 0.535726
v -0.399646 -0.583891 0.563416
v -0.399646 -0.430626 0.563416
v 0.451824 -0.583891 0.535726
v 0.451824 -0.430626 0.563416
v 0.451824 -0.583891 0.563416
v 0.451824 -0.402936 0.563416
v 0.451824 -0.430626 0.535726
v 0.451824 -0.402936 0.133527
v 0.451824 -0.430626 0.133527
v 0.451824 -0.430626 0.133527
v 0.451824 -0.430626 0.535726
v 0.451824 -0.402936 0.133527
v 0.451824 -0.402936 0.563416
v 0.451824 -0.583891 0.535726
v 0.451824 -0.430626 0.563416
v 0.451824 -0.583891 0.563416
v 0.451824 -0.583891 0.535726
v -0.399646 -0.583891 0.563416
v -0.399646 -0.583891 0.535726
v 0.451824 -0.583891 0.563416
v 0.451824 -0.583891 0.563416
v 0.451824 -0.583891 0.535726
v -0.399646 -0.583891 0.563416
v -0.399646 -0.583891 0.535726
v 0.396444 -0.402936 0.563416
v -0.344266 -0.430626 0.563416
v 0.396444 -0.430626 0.563416
v -0.344266 -0.402936 0.563416
v 0.451824 -0.430626 0.563416
v -0.399646 -0.583891 0.563416
v 0.451824 -0.583891 0.563416
v -0.399646 -0.430626 0.563416
v -0.344266 -0.430626 0.563416
v 0.396444 -0.430626 0.563416
v -0.399646 -0.430626 0.563416
v 0.451824 -0.430626 0.563416
v -0.399646 -0.583891 0.563416
v 0.451824 -0.583891 0.563416
v -0.344266 -0.402936 0.563416
v 0.396444 -0.402936 0.563416
v -0.399646 -0.402936 0.133527
v -0.399646 -0.430626 0.563416
v -0.399646 -0.402936 0.563416
v -0.399646 -0.430626 0.535726
v -0.399646 -0.430626 0.133527
v -0.399646 -0.430626 0.133527
v -0.399646 -0.402936 0.133527
v -0.399646 -0.430626 0.535726
v -0.399646 -0.430626 0.563416
v -0.399646 -0.402936 0.563416
v -0.399646 -0.402936 0.133527
v 0.451824 -0.430626 0.133527
v -0.399646 -0.430626 0.133527
v 0.451824 -0.402936 0.133527
v 0.451824 -0.402936 0.133527
v -0.399646 -0.402936 0.133527
v 0.451824 -0.430626 0.133527
v -0.399646 -0.430626 0.133527
v -0.344266 -0.402936 0.563416
v -0.399646 -0.402936 0.133527
v -0.399646 -0.402936 0.563416
v -0.344266 -0.402936 0.508036
v -0.344266 -0.402936 0.188908
v 0.396444 -0.402936 0.508036
v 0.396444 -0.402936 0.563416
v 0.451824 -0.402936 0.563416
v 0.451824 -0.402936 0.133527
v 0.396444 -0.402936 0.188908
v 0.451824 -0.402936 0.563416
v 0.396444 -0.402936 0.508036
v 0.451824 -0.402936 0.133527
v 0.396444 -0.402936 0.188908
v -0.344266 -0.402936 0.188908
v -0.399646 -0.402936 0.133527
v 0.396444 -0.402936 0.563416
v -0.344266 -0.402936 0.563416
v -0.344266 -0.402936 0.508036
v -0.399646 -0.402936 0.563416
v 0.451824 -0.402936 0.563416
v 0.396444 -0.430626 0.563416
v 0.451824 -0.430626 0.563416
v 0.396444 -0.402936 0.563416
v 0.396444 -0.402936 0.563416
v 0.451824 -0.402936 0.563416
v 0.396444 -0.430626 0.563416
v 0.451824 -0.430626 0.563416
v -0.344266 -0.402936 0.563416
v -0.399646 -0.430626 0.563416
v -0.344266 -0.430626 0.563416
v -0.399646 -0.402936 0.563416
v -0.399646 -0.402936 0.563416
v -0.344266 -0.402936 0.563416
v -0.399646 -0.430626 0.563416
v -0.344266 -0.430626 0.563416
vt 0 0.5535
vt -3.075 0
vt 0 0
vt -3.075 0.5535
vt 0.1 -6.313762e-63
vt 0.1 0.5535
vt 1.207614e-15 3.425381e-17
vt -0.1 0.5535
vt -0.1 3.425381e-17
vt -0.1 0.6535
vt 1.207614e-15 0.5535
vt 1.4525 0.6535
vt 1.4525 0.5535
vt -2.504633e-31 -0.1
vt -3.075 -0.1
vt 2.875 0.6535
vt 0.2 0.5535
vt 2.875 0.5535
vt 0.2 0.6535
vt 3.075 0.5535
vt -1.94388e-19 2.10007e-20
vt 3.075 2.10007e-20
vt -1.94388e-19 0.5535
vt -1.4525 0.6535
vt 0.1 0.6535
vt -1.4525 0.5535
vt -2.958332e-16 0.6535
vt -2.958332e-16 0.5535
vt -3.075 0.6535
vt 0.2 -0.1
vt 3.506487e-31 1.4525
vt 2.504633e-31 -0.1
vt 0.2 0.1
vt 0.2 1.2525
vt 2.875 0.1
vt 2.875 -0.1
vt 3.075 -0.1
vt 3.075 1.4525
vt 2.875 1.2525
vt 3.075 0.6535
vt -4.795171e-20 0.5535
vt -4.795171e-20 0.6535
vn 0 0 -1
vn -1 0 0
vn 1 0 0
vn 0 -1 0
vn 0 0 1
vn 0 1 0
usemtl material_0_0
f 1/1/1 2/2/1 3/3/1
f 2/2/1 1/1/1 4/4/1
f 9/1/2 10/5/2 11/6/2
f 10/5/2 9/1/2 12/3/2
f 17/7/3 18/8/3 19/9/3
f 18/8/3 17/7/3 20/10/3
f 20/10/3 17/7/3 21/11/3
f 20/10/3 21/11/3 22/12/3
f 22/12/3 21/11/3 23/13/3
f 31/2/4 32/14/4 33/3/4
f 32/14/4 31/2/4 34/15/4
f 39/16/5 40/17/5 41/18/5
f 40/17/5 39/16/5 42/19/5
f 43/20/5 44/21/5 45/22/5
f 44/21/5 43/20/5 46/23/5
f 46/23/5 43/20/5 41/18/5
f 46/23/5 41/18/5 40/17/5
f 55/24/2 56/6/2 57/25/2
f 56/6/2 55/24/2 58/1/2
f 58/1/2 55/24/2 59/26/2
f 65/27/1 66/4/1 67/28/1
f 66/4/1 65/27/1 68/29/1
f 73/30/6 74/31/6 75/32/6
f 74/31/6 73/30/6 76/33/6
f 74/31/6 76/33/6 77/34/6
f 76/33/6 73/30/6 78/35/6
f 78/35/6 73/30/6 79/36/6
f 78/35/6 79/36/6 80/37/6
f 77/34/6 81/38/6 74/31/6
f 81/38/6 77/34/6 82/39/6
f 81/38/6 82/39/6 78/35/6
f 81/38/6 78/35/6 80/37/6
f 93/40/5 94/18/5 95/20/5
f 94/18/5 93/40/5 96/16/5
f 101/19/5 102/41/5 103/17/5
f 102/41/5 101/19/5 104/42/5
usemtl material_1_0
f 5//5 6//5 7//5
f 8//5 7//5 6//5
f 13//3 14//3 15//3
f 16//3 15//3 14//3
f 24//2 25//2 26//2
f 26//2 25//2 27//2
f 25//2 28//2 27//2
f 27//2 28//2 29//2
f 30//2 29//2 28//2
f 35//6 36//6 37//6
f 38//6 37//6 36//6
f 47//1 48//1 49//1
f 48//1 50//1 49//1
f 49//1 50//1 51//1
f 52//1 51//1 50//1
f 53//1 54//1 47//1
f 48//1 47//1 54//1
f 60//3 61//3 62//3
f 62//3 61//3 63//3
f 64//3 63//3 61//3
f 69//5 70//5 71//5
f 72//5 71//5 70//5
f 83//4 84//4 85//4
f 84//4 86//4 85//4
f 86//4 87//4 85//4
f 88//4 85//4 87//4
f 83//4 89//4 84//4
f 89//4 90//4 84//4
f 84//4 90//4 91//4
f 87//4 91//4 88//4
f 91//4 90//4 88//4
f 92//4 88//4 90//4
f 97//1 98//1 99//1
f 100//1 99//1 98//1
f 105//1 106//1 107//1
f 108//1 107//1 106//1
