# SSTK version 0.8.0
# 8
mtllib original-8.mtl
o Group3/mesh9/mesh9-geometry#mesh9-geometry
v 0.312932 -0.102706 0.860257
v 0.313538 -0.084733 0.860257
v 0.299586 -0.088146 0.860257
v 0.342051 -0.073587 0.860257
v 0.299586 -0.088146 0.161394
v -0.314347 -0.088146 0.860257
v 0.312932 -0.102706 0.161394
v 0.319318 -0.080684 0.860257
v 0.313538 -0.084733 0.161394
v 0.240133 -0.088146 0.452586
v -0.327693 -0.102706 0.860257
v 0.240133 -0.088146 0.569064
v 0.342051 -0.073587 0.161394
v 0.240133 -0.102706 0.452586
v 0.323753 -0.075406 0.860257
v 0.319318 -0.080684 0.161394
v -0.314347 -0.088146 0.161394
v -0.007380 -0.102706 0.860257
v -0.328299 -0.084733 0.860257
v 0.094537 -0.088146 0.569064
v 0.342051 0.101129 0.860257
v 0.050859 -0.102706 0.184689
v 0.240133 -0.102706 0.569064
v 0.327491 -0.062667 0.860257
v -0.007380 -0.102706 0.161394
v 0.094537 -0.088146 0.452586
v -0.007380 -0.102706 0.743780
v -0.328299 -0.084733 0.161394
v -0.356812 -0.073587 0.860257
v -0.109298 -0.088146 0.569064
v 0.342051 0.101129 0.161394
v 0.094537 -0.102706 0.452586
v 0.323753 -0.075406 0.161394
v -0.327693 -0.102706 0.161394
v -0.007380 -0.102706 0.609831
v 0.012033 -0.102706 0.761251
v 0.050859 -0.102706 0.743780
v -0.334079 -0.080684 0.161394
v -0.334079 -0.080684 0.860257
v -0.356812 -0.073587 0.161394
v -0.109298 -0.088146 0.452586
v -0.254894 -0.088146 0.569064
v 0.327491 -0.062667 0.161394
v 0.312932 0.130248 0.161394
v 0.327491 0.090209 0.860257
v 0.031445 -0.102706 0.184689
v -0.109298 -0.102706 0.452586
v -0.109298 -0.102706 0.569064
v 0.012033 -0.102706 0.627303
v 0.012033 -0.102706 0.743780
v 0.031445 -0.102706 0.761251
v 0.094537 -0.102706 0.569064
v -0.254894 -0.088146 0.452586
v -0.338514 -0.075406 0.860257
v -0.356812 0.101129 0.161394
v 0.327491 0.090209 0.161394
v 0.312932 0.130248 0.860257
v 0.323753 0.102950 0.161394
v 0.323753 0.102950 0.860257
v 0.050859 -0.102706 0.202160
v 0.031445 -0.102706 0.202160
v 0.050859 -0.102706 0.318637
v -0.254894 -0.102706 0.452586
v -0.254894 -0.102706 0.569064
v 0.012033 -0.102706 0.609831
v 0.031445 -0.102706 0.743780
v -0.338514 -0.075406 0.161394
v -0.342252 -0.062667 0.860257
v -0.356812 0.101129 0.860257
v -0.342252 -0.062667 0.161394
v 0.240133 0.130248 0.452586
v 0.319318 0.108226 0.161394
v 0.031445 -0.102706 0.318637
v 0.012033 -0.102706 0.184689
v 0.050859 -0.102706 0.609831
v -0.007380 -0.102706 0.184689
v 0.012033 -0.102706 0.336109
v 0.031445 -0.102706 0.336109
v -0.327693 0.130248 0.860257
v -0.342252 0.090209 0.161394
v 0.211014 0.130248 0.306990
v 0.240133 0.130248 0.569064
v 0.319318 0.108226 0.860257
v 0.313538 0.112275 0.161394
v 0.012033 -0.102706 0.202160
v -0.007380 -0.102706 0.318637
v 0.012033 -0.102706 0.318637
v 0.031445 -0.102706 0.609831
v 0.031445 -0.102706 0.627303
v -0.342252 0.090209 0.860257
v -0.327693 0.130248 0.161394
v -0.338514 0.102950 0.860257
v -0.338514 0.102950 0.161394
v 0.211014 0.130248 0.365228
v 0.313538 0.112275 0.860257
v 0.299586 0.115689 0.161394
v -0.254894 0.130248 0.452586
v -0.334079 0.108226 0.860257
v 0.123656 0.130248 0.306990
v 0.094537 0.130248 0.452586
v 0.211014 0.124424 0.365228
v 0.094537 0.130248 0.569064
v -0.314347 0.115689 0.860257
v 0.299586 0.115689 0.860257
v -0.225775 0.130248 0.306990
v -0.254894 0.130248 0.569064
v -0.334079 0.108226 0.161394
v -0.328299 0.112275 0.860257
v 0.123656 0.124424 0.306990
v 0.123656 0.130248 0.365228
v -0.314347 0.115689 0.161394
v 0.211014 0.124424 0.306990
v 0.123656 0.124424 0.365228
v -0.138417 0.130248 0.306990
v -0.225775 0.130248 0.365228
v -0.109298 0.130248 0.569064
v -0.328299 0.112275 0.161394
v 0.240133 0.115689 0.452586
v 0.167336 0.115689 0.365228
v 0.240133 0.115689 0.569064
v -0.225775 0.124424 0.306990
v -0.138417 0.130248 0.365228
v -0.225775 0.124424 0.365228
v 0.167336 0.115689 0.306990
v 0.094537 0.115689 0.452586
v -0.109298 0.130248 0.452586
v 0.094537 0.115689 0.569064
v -0.138417 0.124424 0.306990
v -0.254894 0.115689 0.452586
v -0.109298 0.115689 0.452586
v -0.182097 0.115689 0.306990
v -0.138417 0.124424 0.365228
v -0.254894 0.115689 0.569064
v -0.109298 0.115689 0.569064
v -0.182097 0.115689 0.365228
vn 0 0 1
vn 0 0 -1
vn -0.2376410124179314 0.9713530507580549 0
vn 0.2376410124179314 -0.9713530507580549 0
vn 0 1 0
vn 0 -1 0
vn -0.5737938409340411 0.8189997729585523 0
vn 0.5737938409340411 -0.8189997729585523 0
vn 1 0 0
vn -1 0 0
vn -0.7655520120268221 0.6433740101074058 0
vn 0.7655520120268221 -0.6433740101074058 0
vn 0.2376410124179314 0.9713530507580549 0
vn -0.2376410124179314 -0.9713530507580549 0
vn -0.9595339449203543 0.2815929838358592 0
vn 0.9595339449203543 -0.2815929838358592 0
vn 0.5737938409340411 0.8189997729585523 0
vn -0.5737938409340411 -0.8189997729585523 0
vn 0.7655520120268221 0.6433740101074058 0
vn -0.7655520120268221 -0.6433740101074058 0
vn -0.9595339449203543 -0.2815929838358592 0
vn 0.9595339449203543 0.2815929838358592 0
vn 0.196115942830544 -0.9805807141524285 0
vn -0.196115942830544 0.9805807141524285 0
vn -0.196115942830544 -0.9805807141524285 0
vn 0.196115942830544 0.9805807141524285 0
vn 0.7071067811865476 -0.7071067811865476 0
vn -0.7071067811865476 0.7071067811865476 0
vn -0.7071067811865476 -0.7071067811865476 0
vn 0.7071067811865476 0.7071067811865476 0
usemtl material_0_0
f 1//1 2//1 3//1
f 2//1 1//1 4//1
f 3//2 2//2 1//2
f 4//2 1//2 2//2
f 2//3 5//3 3//3
f 3//4 5//4 2//4
f 6//1 1//1 3//1
f 3//2 1//2 6//2
f 2//1 4//1 8//1
f 8//2 4//2 2//2
f 5//3 2//3 9//3
f 9//4 2//4 5//4
f 5//5 10//5 3//5
f 3//6 10//6 5//6
f 11//1 1//1 6//1
f 6//2 1//2 11//2
f 12//5 6//5 3//5
f 3//6 6//6 12//6
f 14//6 7//6 1//6
f 1//5 7//5 14//5
f 8//1 4//1 15//1
f 15//2 4//2 8//2
f 16//7 2//7 8//7
f 8//8 2//8 16//8
f 2//7 16//7 9//7
f 9//8 16//8 2//8
f 9//2 7//2 5//2
f 5//1 7//1 9//1
f 10//5 5//5 17//5
f 17//6 5//6 10//6
f 3//5 10//5 12//5
f 12//6 10//6 3//6
f 1//1 11//1 18//1
f 18//2 11//2 1//2
f 11//1 6//1 19//1
f 19//2 6//2 11//2
f 6//5 12//5 20//5
f 20//6 12//6 6//6
f 7//2 9//2 13//2
f 13//1 9//1 7//1
f 13//9 21//9 4//9
f 4//10 21//10 13//10
f 22//6 7//6 14//6
f 14//5 7//5 22//5
f 14//6 1//6 23//6
f 23//5 1//5 14//5
f 15//1 4//1 24//1
f 24//2 4//2 15//2
f 15//11 16//11 8//11
f 8//12 16//12 15//12
f 13//2 9//2 16//2
f 16//1 9//1 13//1
f 5//2 7//2 25//2
f 25//1 7//1 5//1
f 5//2 25//2 17//2
f 17//1 25//1 5//1
f 10//5 17//5 26//5
f 26//6 17//6 10//6
f 11//6 27//6 18//6
f 18//5 27//5 11//5
f 18//6 23//6 1//6
f 1//5 23//5 18//5
f 6//13 28//13 19//13
f 19//14 28//14 6//14
f 11//1 19//1 29//1
f 29//2 19//2 11//2
f 6//5 20//5 30//5
f 30//6 20//6 6//6
f 21//9 13//9 31//9
f 31//10 13//10 21//10
f 24//1 4//1 21//1
f 21//2 4//2 24//2
f 7//6 22//6 25//6
f 25//5 22//5 7//5
f 22//6 14//6 32//6
f 32//5 14//5 22//5
f 24//15 33//15 15//15
f 15//16 33//16 24//16
f 16//11 15//11 33//11
f 33//12 15//12 16//12
f 13//2 16//2 33//2
f 33//1 16//1 13//1
f 34//2 17//2 25//2
f 25//1 17//1 34//1
f 26//5 17//5 20//5
f 20//6 17//6 26//6
f 27//6 11//6 35//6
f 35//5 11//5 27//5
f 27//6 36//6 18//6
f 18//5 36//5 27//5
f 23//6 18//6 37//6
f 37//5 18//5 23//5
f 28//13 6//13 17//13
f 17//14 6//14 28//14
f 38//17 19//17 28//17
f 28//18 19//18 38//18
f 29//1 19//1 39//1
f 39//2 19//2 29//2
f 30//5 20//5 41//5
f 41//6 20//6 30//6
f 6//5 30//5 42//5
f 42//6 30//6 6//6
f 13//2 43//2 31//2
f 31//1 43//1 13//1
f 24//1 21//1 45//1
f 45//2 21//2 24//2
f 25//6 22//6 46//6
f 46//5 22//5 25//5
f 22//6 32//6 37//6
f 37//5 32//5 22//5
f 33//15 24//15 43//15
f 43//16 24//16 33//16
f 13//2 33//2 43//2
f 43//1 33//1 13//1
f 17//2 34//2 28//2
f 28//1 34//1 17//1
f 25//6 47//6 34//6
f 34//5 47//5 25//5
f 20//5 17//5 41//5
f 41//6 17//6 20//6
f 35//6 11//6 48//6
f 48//5 11//5 35//5
f 35//6 49//6 27//6
f 27//5 49//5 35//5
f 36//6 27//6 50//6
f 50//5 27//5 36//5
f 51//6 18//6 36//6
f 36//5 18//5 51//5
f 37//6 18//6 51//6
f 51//5 18//5 37//5
f 23//6 37//6 52//6
f 52//5 37//5 23//5
f 6//5 53//5 17//5
f 17//6 53//6 6//6
f 19//17 38//17 39//17
f 39//18 38//18 19//18
f 28//2 40//2 38//2
f 38//1 40//1 28//1
f 29//1 39//1 54//1
f 54//2 39//2 29//2
f 29//10 55//10 40//10
f 40//9 55//9 29//9
f 6//5 42//5 53//5
f 53//6 42//6 6//6
f 31//2 43//2 56//2
f 56//1 43//1 31//1
f 31//2 58//2 44//2
f 44//1 58//1 31//1
f 45//1 21//1 59//1
f 59//2 21//2 45//2
f 56//10 24//10 45//10
f 45//9 24//9 56//9
f 46//6 22//6 60//6
f 60//5 22//5 46//5
f 25//6 46//6 61//6
f 61//5 46//5 25//5
f 52//6 37//6 32//6
f 32//5 37//5 52//5
f 22//6 37//6 62//6
f 62//5 37//5 22//5
f 24//10 56//10 43//10
f 43//9 56//9 24//9
f 28//2 34//2 40//2
f 40//1 34//1 28//1
f 47//6 25//6 48//6
f 48//5 25//5 47//5
f 34//6 47//6 63//6
f 63//5 47//5 34//5
f 41//5 17//5 53//5
f 53//6 17//6 41//6
f 48//6 11//6 64//6
f 64//5 11//5 48//5
f 35//6 48//6 25//6
f 25//5 48//5 35//5
f 49//6 35//6 65//6
f 65//5 35//5 49//5
f 49//6 50//6 27//6
f 27//5 50//5 49//5
f 36//6 50//6 51//6
f 51//5 50//5 36//5
f 37//6 51//6 66//6
f 66//5 51//5 37//5
f 38//19 54//19 39//19
f 39//20 54//20 38//20
f 38//2 40//2 67//2
f 67//1 40//1 38//1
f 29//1 54//1 68//1
f 68//2 54//2 29//2
f 34//6 63//6 11//6
f 11//5 63//5 34//5
f 55//10 29//10 69//10
f 69//9 29//9 55//9
f 70//2 40//2 55//2
f 55//1 40//1 70//1
f 31//2 56//2 58//2
f 58//1 56//1 31//1
f 71//6 44//6 57//6
f 57//5 44//5 71//5
f 59//1 21//1 57//1
f 57//2 21//2 59//2
f 44//2 58//2 72//2
f 72//1 58//1 44//1
f 59//21 56//21 45//21
f 45//22 56//22 59//22
f 60//6 22//6 62//6
f 62//5 22//5 60//5
f 60//6 73//6 46//6
f 46//5 73//5 60//5
f 46//6 73//6 61//6
f 61//5 73//5 46//5
f 25//6 61//6 74//6
f 74//5 61//5 25//5
f 75//6 62//6 37//6
f 37//5 62//5 75//5
f 64//6 11//6 63//6
f 63//5 11//5 64//5
f 76//6 35//6 25//6
f 25//5 35//5 76//5
f 77//6 65//6 35//6
f 35//5 65//5 77//5
f 78//6 49//6 65//6
f 65//5 49//5 78//5
f 49//6 51//6 50//6
f 50//5 51//5 49//5
f 49//6 66//6 51//6
f 51//5 66//5 49//5
f 66//6 75//6 37//6
f 37//5 75//5 66//5
f 54//19 38//19 67//19
f 67//20 38//20 54//20
f 67//2 40//2 70//2
f 70//1 40//1 67//1
f 54//22 70//22 68//22
f 68//21 70//21 54//21
f 29//1 68//1 69//1
f 69//2 68//2 29//2
f 70//2 55//2 80//2
f 80//1 55//1 70//1
f 56//21 59//21 58//21
f 58//22 59//22 56//22
f 81//6 44//6 71//6
f 71//5 44//5 81//5
f 71//6 57//6 82//6
f 82//5 57//5 71//5
f 59//1 57//1 83//1
f 83//2 57//2 59//2
f 59//20 72//20 58//20
f 58//19 72//19 59//19
f 44//2 72//2 84//2
f 84//1 72//1 44//1
f 73//6 60//6 62//6
f 62//5 60//5 73//5
f 61//6 73//6 85//6
f 85//5 73//5 61//5
f 74//6 61//6 85//6
f 85//5 61//5 74//5
f 25//6 74//6 76//6
f 76//5 74//5 25//5
f 62//6 75//6 73//6
f 73//5 75//5 62//5
f 76//6 86//6 35//6
f 35//5 86//5 76//5
f 65//6 77//6 78//6
f 78//5 77//5 65//5
f 77//6 35//6 87//6
f 87//5 35//5 77//5
f 88//6 49//6 78//6
f 78//5 49//5 88//5
f 89//6 66//6 49//6
f 49//5 66//5 89//5
f 75//6 66//6 89//6
f 89//5 66//5 75//5
f 70//22 54//22 67//22
f 67//21 54//21 70//21
f 80//9 68//9 70//9
f 70//10 68//10 80//10
f 69//1 68//1 90//1
f 90//2 68//2 69//2
f 69//1 92//1 79//1
f 79//2 92//2 69//2
f 80//2 55//2 93//2
f 93//1 55//1 80//1
f 44//6 81//6 91//6
f 91//5 81//5 44//5
f 81//6 71//6 94//6
f 94//5 71//5 81//5
f 79//6 82//6 57//6
f 57//5 82//5 79//5
f 83//1 57//1 95//1
f 95//2 57//2 83//2
f 72//20 59//20 83//20
f 83//19 59//19 72//19
f 72//18 95//18 84//18
f 84//17 95//17 72//17
f 44//2 84//2 96//2
f 96//1 84//1 44//1
f 85//6 73//6 77//6
f 77//5 73//5 85//5
f 85//6 87//6 74//6
f 74//5 87//5 85//5
f 74//6 86//6 76//6
f 76//5 86//5 74//5
f 73//6 75//6 78//6
f 78//5 75//5 73//5
f 87//6 35//6 86//6
f 86//5 35//5 87//5
f 77//6 73//6 78//6
f 78//5 73//5 77//5
f 85//6 77//6 87//6
f 87//5 77//5 85//5
f 49//6 88//6 89//6
f 89//5 88//5 49//5
f 78//6 75//6 88//6
f 88//5 75//5 78//5
f 88//6 75//6 89//6
f 89//5 75//5 88//5
f 68//9 80//9 90//9
f 90//10 80//10 68//10
f 69//1 90//1 92//1
f 92//2 90//2 69//2
f 91//6 97//6 79//6
f 79//5 97//5 91//5
f 93//2 55//2 91//2
f 91//1 55//1 93//1
f 79//1 92//1 98//1
f 98//2 92//2 79//2
f 92//16 80//16 93//16
f 93//15 80//15 92//15
f 91//6 81//6 99//6
f 99//5 81//5 91//5
f 96//2 91//2 44//2
f 44//1 91//1 96//1
f 100//6 94//6 71//6
f 71//5 94//5 100//5
f 101//9 81//9 94//9
f 94//10 81//10 101//10
f 82//6 79//6 102//6
f 102//5 79//5 82//5
f 103//1 57//1 79//1
f 79//2 57//2 103//2
f 95//1 57//1 104//1
f 104//2 57//2 95//2
f 95//18 72//18 83//18
f 83//17 72//17 95//17
f 95//14 96//14 84//14
f 84//13 96//13 95//13
f 74//6 87//6 86//6
f 86//5 87//5 74//5
f 80//16 92//16 90//16
f 90//15 92//15 80//15
f 91//6 105//6 97//6
f 97//5 105//5 91//5
f 106//6 79//6 97//6
f 97//5 79//5 106//5
f 93//2 91//2 107//2
f 107//1 91//1 93//1
f 92//12 107//12 98//12
f 98//11 107//11 92//11
f 79//1 98//1 108//1
f 108//2 98//2 79//2
f 107//12 92//12 93//12
f 93//11 92//11 107//11
f 81//2 109//2 99//2
f 99//1 109//1 81//1
f 91//6 99//6 110//6
f 110//5 99//5 91//5
f 111//2 91//2 96//2
f 96//1 91//1 111//1
f 94//6 100//6 110//6
f 110//5 100//5 94//5
f 81//9 101//9 112//9
f 112//10 101//10 81//10
f 113//1 101//1 94//1
f 94//2 101//2 113//2
f 102//6 79//6 100//6
f 100//5 79//5 102//5
f 104//1 57//1 103//1
f 103//2 57//2 104//2
f 79//1 108//1 103//1
f 103//2 108//2 79//2
f 96//14 95//14 104//14
f 104//13 95//13 96//13
f 91//6 114//6 105//6
f 105//5 114//5 91//5
f 115//6 97//6 105//6
f 105//5 97//5 115//5
f 116//6 79//6 106//6
f 106//5 79//5 116//5
f 107//2 91//2 117//2
f 117//1 91//1 107//1
f 107//8 108//8 98//8
f 98//7 108//7 107//7
f 112//2 109//2 81//2
f 81//1 109//1 112//1
f 113//10 99//10 109//10
f 109//9 99//9 113//9
f 99//10 113//10 110//10
f 110//9 113//9 99//9
f 91//6 110//6 100//6
f 100//5 110//5 91//5
f 117//2 91//2 111//2
f 111//1 91//1 117//1
f 96//6 118//6 111//6
f 111//5 118//5 96//5
f 113//1 94//1 110//1
f 110//2 94//2 113//2
f 119//23 112//23 101//23
f 101//24 112//24 119//24
f 101//1 113//1 119//1
f 119//2 113//2 101//2
f 100//6 79//6 116//6
f 116//5 79//5 100//5
f 103//6 120//6 104//6
f 104//5 120//5 103//5
f 117//4 103//4 108//4
f 108//3 103//3 117//3
f 118//6 96//6 104//6
f 104//5 96//5 118//5
f 91//6 100//6 114//6
f 114//5 100//5 91//5
f 114//2 121//2 105//2
f 105//1 121//1 114//1
f 122//6 97//6 115//6
f 115//5 97//5 122//5
f 105//10 123//10 115//10
f 115//9 123//9 105//9
f 108//8 107//8 117//8
f 117//7 107//7 108//7
f 109//2 112//2 124//2
f 124//1 112//1 109//1
f 124//25 113//25 109//25
f 109//26 113//26 124//26
f 103//4 117//4 111//4
f 111//3 117//3 103//3
f 111//6 118//6 125//6
f 125//5 118//5 111//5
f 112//23 119//23 124//23
f 124//24 119//24 112//24
f 113//25 124//25 119//25
f 119//26 124//26 113//26
f 126//6 100//6 116//6
f 116//5 100//5 126//5
f 120//6 103//6 127//6
f 127//5 103//5 120//5
f 118//6 104//6 120//6
f 120//5 104//5 118//5
f 114//6 100//6 126//6
f 126//5 100//5 114//5
f 128//2 121//2 114//2
f 114//1 121//1 128//1
f 123//10 105//10 121//10
f 121//9 105//9 123//9
f 122//6 126//6 97//6
f 97//5 126//5 122//5
f 123//1 122//1 115//1
f 115//2 122//2 123//2
f 129//6 103//6 111//6
f 111//5 103//5 129//5
f 111//6 125//6 130//6
f 130//5 125//5 111//5
f 127//6 103//6 125//6
f 125//5 103//5 127//5
f 126//6 122//6 114//6
f 114//5 122//5 126//5
f 121//2 128//2 131//2
f 131//1 128//1 121//1
f 122//9 128//9 114//9
f 114//10 128//10 122//10
f 131//25 123//25 121//25
f 121//26 123//26 131//26
f 123//1 132//1 122//1
f 122//2 132//2 123//2
f 133//6 103//6 129//6
f 129//5 103//5 133//5
f 111//6 130//6 129//6
f 129//5 130//5 111//5
f 130//6 125//6 134//6
f 134//5 125//5 130//5
f 125//6 103//6 134//6
f 134//5 103//5 125//5
f 132//23 131//23 128//23
f 128//24 131//24 132//24
f 128//9 122//9 132//9
f 132//10 122//10 128//10
f 123//25 131//25 135//25
f 135//26 131//26 123//26
f 132//1 123//1 135//1
f 135//2 123//2 132//2
f 134//6 103//6 133//6
f 133//5 103//5 134//5
f 131//23 132//23 135//23
f 135//24 132//24 131//24
usemtl material_1_0
f 7//27 4//27 1//27
f 1//28 4//28 7//28
f 4//27 7//27 13//27
f 13//28 7//28 4//28
f 40//29 11//29 29//29
f 29//30 11//30 40//30
f 44//30 21//30 31//30
f 31//29 21//29 44//29
f 11//29 40//29 34//29
f 34//30 40//30 11//30
f 21//30 44//30 57//30
f 57//29 44//29 21//29
f 79//28 55//28 69//28
f 69//27 55//27 79//27
f 55//28 79//28 91//28
f 91//27 79//27 55//27
