# SSTK version 0.8.0
# 5
mtllib original-5.mtl
o mesh2/mesh2-geometry#mesh2-geometry
v -0.046209 0.005036 0.641862
v -0.046209 0.005036 0.161394
v -0.060768 0.005036 0.685541
v -0.046209 -0.000788 0.641862
v -0.104447 0.005036 0.161394
v -0.060768 -0.000788 0.685541
v -0.046209 -0.000788 0.161394
v -0.089887 0.005036 0.685541
v -0.104447 -0.000788 0.161394
v -0.104447 0.005036 0.641862
v -0.089887 -0.000788 0.685541
v -0.104447 -0.000788 0.641862
vn 0 1 0
vn 0 -1 0
vn 1 0 0
vn -1 0 0
vn 0.9486831980504455 0 0.31622806601688475
vn -0.9486831980504455 0 -0.31622806601688475
vn 0 0 -1
vn 0 0 1
vn -0.9486831980504455 0 0.31622806601688475
vn 0.9486831980504455 0 -0.31622806601688475
usemtl material_0_0
f 1//1 2//1 3//1
f 3//2 2//2 1//2
f 1//3 4//3 2//3
f 2//4 4//4 1//4
f 5//1 3//1 2//1
f 2//2 3//2 5//2
f 3//5 6//5 1//5
f 1//6 6//6 3//6
f 4//5 1//5 6//5
f 6//6 1//6 4//6
f 7//3 2//3 4//3
f 4//4 2//4 7//4
f 8//1 3//1 5//1
f 5//2 3//2 8//2
f 5//7 2//7 9//7
f 9//8 2//8 5//8
f 3//8 8//8 6//8
f 6//7 8//7 3//7
f 6//2 9//2 4//2
f 4//1 9//1 6//1
f 7//7 9//7 2//7
f 2//8 9//8 7//8
f 7//2 4//2 9//2
f 9//1 4//1 7//1
f 10//1 8//1 5//1
f 5//2 8//2 10//2
f 5//4 9//4 10//4
f 10//3 9//3 5//3
f 11//8 6//8 8//8
f 8//7 6//7 11//7
f 11//2 9//2 6//2
f 6//1 9//1 11//1
f 10//9 12//9 8//9
f 8//10 12//10 10//10
f 12//4 10//4 9//4
f 9//3 10//3 12//3
f 11//9 8//9 12//9
f 12//10 8//10 11//10
f 12//2 9//2 11//2
f 11//1 9//1 12//1
