# SSTK version 0.8.0
# 13
mtllib original-13.mtl
o Group7/mesh34/mesh34-geometry#mesh34-geometry
v -0.334243 -0.159595 0.200962
v -0.333048 0.168768 0.208787
v -0.333048 -0.159595 0.208787
v -0.334243 0.168768 0.200962
v -0.332376 0.168768 0.216673
v -0.332376 -0.159595 0.216673
v -0.335956 -0.159595 0.193235
v -0.332376 0.130248 0.216673
v -0.332376 -0.121071 0.216673
v -0.335956 0.168768 0.193235
v -0.330105 0.168768 0.226536
v -0.338180 -0.159595 0.185638
v -0.330105 -0.159595 0.226536
v -0.338180 0.168768 0.185638
v -0.332371 0.130248 0.872329
v -0.330105 0.130248 0.226536
v -0.344116 0.168768 0.170973
v -0.340903 -0.159595 0.178207
v -0.330105 -0.121071 0.226536
v -0.344116 -0.159595 0.170973
v -0.340903 0.168768 0.178207
v -0.332371 -0.121071 0.872329
v -0.326684 0.168768 0.236061
v -0.347802 0.168768 0.163968
v -0.326684 -0.159595 0.236061
v -0.347802 -0.159595 0.163968
v 0.331078 -0.121071 0.872329
v -0.326684 0.130248 0.236061
v -0.353022 0.168768 0.930745
v -0.351946 0.168768 0.157225
v -0.326684 -0.121071 0.236061
v -0.353022 -0.159595 0.930745
v -0.351946 -0.159595 0.157225
v -0.010941 0.130248 0.872329
v -0.310080 -0.121071 0.261312
v -0.322161 0.168768 0.245115
v -0.322161 -0.121071 0.245115
v -0.322161 -0.159595 0.245115
v 0.331078 0.130248 0.872329
v -0.316600 -0.121071 0.253572
v -0.302690 -0.121071 0.268228
v -0.322161 0.130248 0.245115
v -0.356529 0.168768 0.150772
v -0.316600 0.168768 0.253572
v -0.356529 -0.159595 0.150772
v -0.316600 -0.159595 0.253572
v 0.216836 0.130248 0.872329
v 0.331078 0.130248 0.287942
v -0.310080 -0.159595 0.261312
v -0.294535 -0.121071 0.274222
v -0.302690 -0.159595 0.268228
v -0.316600 0.130248 0.253572
v -0.356928 0.168768 0.929770
v -0.310080 0.168768 0.261312
v -0.356928 -0.159595 0.929770
v 0.245267 0.130248 0.287942
v 0.216836 0.130248 0.287942
v 0.331083 0.130246 0.287942
v 0.328811 0.130245 0.226536
v -0.285729 -0.121071 0.279210
v -0.294535 -0.159595 0.274222
v -0.310080 0.130248 0.261312
v -0.360697 0.168768 0.928355
v -0.361532 -0.159595 0.144638
v 0.338844 0.168768 0.930745
v -0.360697 -0.159595 0.928355
v 0.338844 -0.159595 0.930745
v 0.255379 0.130249 0.287520
v -0.010941 0.130248 0.287942
v 0.331083 0.130243 0.216673
v 0.331083 -0.121071 0.216673
v 0.325390 0.130246 0.236061
v -0.276395 -0.121071 0.283123
v -0.285729 -0.159595 0.279210
v -0.302690 0.130248 0.268228
v -0.361532 0.168768 0.144638
v -0.302690 0.168768 0.268228
v 0.245267 0.168768 0.287942
v 0.265371 0.130249 0.285906
v -0.246561 0.130248 0.287942
v 0.328811 -0.121071 0.226536
v 0.320867 0.130246 0.245115
v 0.328802 0.168768 0.226560
v 0.331083 0.168768 0.216673
v -0.266664 -0.121071 0.285906
v -0.276395 -0.159595 0.283123
v -0.294535 0.130248 0.274222
v -0.364279 0.168768 0.926518
v -0.364279 -0.159595 0.926518
v -0.366932 -0.159595 0.138851
v -0.294535 0.168768 0.274222
v 0.343177 0.168768 0.929909
v 0.255379 0.168768 0.287520
v 0.275101 0.130249 0.283123
v -0.256673 0.130248 0.287520
v 0.331239 0.168768 0.208946
v 0.325390 -0.121071 0.236061
v 0.328811 -0.159595 0.226536
v 0.315307 0.130247 0.253572
v 0.325390 0.168768 0.236061
v 0.328811 0.168768 0.226536
v -0.256673 -0.121071 0.287520
v -0.266664 -0.159595 0.285906
v -0.285729 0.130248 0.279210
v -0.366932 0.168768 0.138851
v -0.285729 0.168768 0.279210
v 0.343177 -0.159595 0.929909
v 0.339819 0.168768 0.171448
v -0.246561 0.168768 0.287942
v 0.265371 0.168768 0.285906
v 0.284435 0.130249 0.279210
v -0.266664 0.130248 0.285906
v -0.256673 0.168768 0.287520
v 0.331083 -0.159595 0.216673
v 0.320867 -0.121071 0.245115
v 0.325390 -0.159595 0.236061
v 0.328802 -0.159595 0.226560
v 0.308786 0.130248 0.261312
v 0.320867 0.168768 0.245115
v -0.246561 -0.121071 0.287942
v -0.256673 -0.159595 0.287520
v -0.276395 0.130248 0.283123
v -0.367628 0.168768 0.924283
v -0.367628 -0.159595 0.924283
v -0.372705 0.168768 0.133435
v -0.276395 0.168768 0.283123
v 0.339819 -0.159595 0.171448
v 0.347400 0.168768 0.928629
v 0.337086 0.168768 0.178678
v 0.343038 0.168768 0.164421
v 0.275101 0.168768 0.283123
v 0.284435 0.168768 0.279210
v 0.293241 0.130249 0.274222
v -0.266664 0.168768 0.285906
v 0.331239 -0.159595 0.208946
v 0.315307 -0.121071 0.253572
v 0.320867 -0.159595 0.245115
v 0.301396 0.130248 0.268228
v 0.315307 0.168768 0.253572
v 0.331922 0.168768 0.201247
v 0.245267 -0.121071 0.287942
v -0.246561 -0.159595 0.287942
v -0.370699 0.168768 0.921679
v -0.372705 -0.159595 0.133435
v -0.370699 -0.159595 0.921679
v 0.337086 -0.159595 0.178678
v 0.343038 -0.159595 0.164421
v 0.347400 -0.159595 0.928629
v 0.346729 0.168768 0.157630
v 0.334853 0.168768 0.186077
v 0.293241 0.168768 0.274222
v 0.308786 -0.121071 0.261312
v 0.315307 -0.159595 0.253572
v 0.308786 0.168768 0.261312
v 0.333129 0.168768 0.193612
v 0.255379 -0.121071 0.287520
v 0.245267 -0.159595 0.287942
v -0.381609 0.168768 0.133435
v -0.373451 0.168768 0.918741
v 0.334853 -0.159595 0.186077
v 0.346729 -0.159595 0.157630
v 0.351467 0.168768 0.926917
v 0.350874 0.168768 0.151106
v 0.301396 0.168768 0.268228
v 0.331922 -0.159595 0.201247
v 0.301396 -0.121071 0.268228
v 0.308786 -0.159595 0.261312
v 0.265371 -0.121071 0.285906
v 0.255379 -0.159595 0.287520
v -0.373451 -0.159595 0.918741
v -0.381609 -0.159595 0.133435
v -0.381349 0.168768 0.900513
v -0.375850 0.168768 0.915508
v 0.333129 -0.159595 0.193612
v 0.350874 -0.159595 0.151106
v 0.351467 -0.159595 0.926917
v 0.293241 -0.121071 0.274222
v 0.301396 -0.159595 0.268228
v 0.275101 -0.121071 0.283123
v -0.375850 -0.159595 0.915508
v -0.381609 -0.159595 0.896496
v -0.381609 0.168768 0.896496
v -0.380630 0.168768 0.904474
v -0.377862 0.168768 0.912021
v 0.355335 0.168768 0.924793
v 0.355454 0.168768 0.144880
v 0.284435 -0.121071 0.279210
v 0.275101 -0.159595 0.283123
v 0.265371 -0.159595 0.285906
v -0.377862 -0.159595 0.912021
v -0.381349 -0.159595 0.900513
v -0.380630 -0.159595 0.904474
v -0.379463 0.168768 0.908327
v 0.355454 -0.159595 0.144880
v 0.355335 -0.159595 0.924793
v 0.293241 -0.159595 0.274222
v 0.284435 -0.159595 0.279210
v -0.379463 -0.159595 0.908327
v 0.358962 0.168768 0.922279
v 0.360448 0.168768 0.138981
v 0.358962 -0.159595 0.922279
v 0.360448 -0.159595 0.138981
v 0.362308 0.168768 0.919402
v 0.365833 0.168768 0.133435
v 0.362308 -0.159595 0.919402
v 0.365833 -0.159595 0.133435
v 0.365338 -0.159595 0.916194
v 0.365338 0.168768 0.916194
v 0.374738 0.168768 0.133435
v 0.368019 0.168768 0.912689
v 0.374738 -0.159595 0.133435
v 0.368019 -0.159595 0.912689
v 0.374738 0.168768 0.896496
v 0.370322 0.168768 0.908925
v 0.370322 -0.159595 0.908925
v 0.374738 -0.159595 0.896496
v 0.373700 0.168768 0.900785
v 0.372223 0.168768 0.904943
v 0.373700 -0.159595 0.900785
v 0.372223 -0.159595 0.904943
vn 0.9829619793946598 0 -0.18380899614690396
vn 0.9930126493509107 0 -0.11800795832945014
vn -0.9930126493509107 0 0.11800795832945014
vn -0.9829619793946598 0 0.18380899614690396
vn 0.996390072961164 0 -0.08489300621633306
vn -0.996390072961164 0 0.08489300621633306
vn 0 -1 0
vn 0 1 0
vn 0.968556156343863 0 -0.2487950401603742
vn -0.968556156343863 0 0.2487950401603742
vn 0.9594931262342822 0 -0.28173203706565525
vn 0.9744842133185155 0 -0.2244560491343323
vn -0.9744842133185155 0 0.2244560491343323
vn -0.9594931262342822 0 0.28173203706565525
vn 0.9498588684816003 0 -0.31267895670616197
vn -0.9498588684816003 0 0.31267895670616197
vn 1 0 -0.000007999999999744
vn -1 0 0.000007999999999744
vn 0.9194850317911955 0 -0.39312501359229757
vn -0.9194850317911955 0 0.39312501359229757
vn 0.9269528165129524 0 -0.37517792573485004
vn -0.9269528165129524 0 0.37517792573485004
vn 0 0 -1
vn 0 0 1
vn 0.899939512311661 0 -0.43601476371821335
vn 0.8689390859024534 0 -0.49491904892720473
vn -0.8689390859024534 0 0.49491904892720473
vn -0.899939512311661 0 0.43601476371821335
vn 0.8665957377088076 0 -0.4990108489651576
vn -0.8665957377088076 0 0.4990108489651576
vn 0.8340881868753941 0 -0.5516311235915881
vn -0.8340881868753941 0 0.5516311235915881
vn 0.7955417327119446 0 -0.6058987964286418
vn -0.7955417327119446 0 0.6058987964286418
vn -1 -0.0000029999999999129988 -0.000006999999999797002
vn 1 0.0000029999999999129988 0.000006999999999797002
vn 0.7253072811023202 0 -0.6884252668082134
vn 0.8015661454073182 0 -0.5979061084625695
vn -0.7253072811023202 0 0.6884252668082134
vn -0.8015661454073182 0 0.5979061084625695
vn 0.6388878829097507 0 -0.7692998590088892
vn -0.6388878829097507 0 0.7692998590088892
vn -0.000023999999993076004 -1 9.999999994894555e-7
vn 0.000023999999993076004 1 -9.999999994894555e-7
vn 0.5435182337310986 0 -0.8393973609690627
vn -0.5435182337310986 0 0.8393973609690627
vn -0.29733688506474665 0 0.9547726309336656
vn -0.24213489863339369 0 0.9702425938206364
vn 0.29733688506474665 0 -0.9547726309336656
vn 0.24213489863339369 0 -0.9702425938206364
vn 0.7534705749805541 0 -0.6574816291262234
vn -0.7534705749805541 0 0.6574816291262234
vn 0.4405339711776254 0 -0.8977359412647303
vn -0.4405339711776254 0 0.8977359412647303
vn -0.4046318531542716 0 0.914479668124415
vn 0.4046318531542716 0 -0.914479668124415
vn -0.04168000046762877 0 -0.9991310112097505
vn -0.10073502932427351 0 -0.9949132896222856
vn 0.04168000046762877 0 0.9991310112097505
vn 0.10073502932427351 0 0.9949132896222856
vn -0.9194850317911955 0 -0.39312501359229757
vn -0.941138502810438 0 -0.33802118059039915
vn -0.9594931262342822 0 -0.28173203706565525
vn 0.9594931262342822 0 0.28173203706565525
vn 0.941138502810438 0 0.33802118059039915
vn 0.9194850317911955 0 0.39312501359229757
vn -0.9744842133185155 0 -0.2244560491343323
vn 0.9744842133185155 0 0.2244560491343323
vn 0.3313789142316921 0 -0.9434977558015838
vn -0.3313789142316921 0 0.9434977558015838
vn -0.5066113263598815 0 0.8621745554143208
vn 0.5066113263598815 0 -0.8621745554143208
vn 0.7080611364710085 0 -0.7061511361028768
vn -0.7080611364710085 0 0.7061511361028768
vn 0.1894329347664122 0 0.981893661872702
vn 0.24015795632487805 0 0.9707338234623628
vn -0.1894329347664122 0 -0.981893661872702
vn -0.24015795632487805 0 -0.9707338234623628
vn -0.21758105686209686 0 -0.9760422550764761
vn 0.21758105686209686 0 0.9760422550764761
vn -0.9997947452398339 0 -0.02025999483750072
vn -0.998522163657796 0 -0.05434600890731158
vn 0.9997947452398339 0 0.02025999483750072
vn 0.998522163657796 0 0.05434600890731158
vn -0.8665957377088076 0 -0.4990108489651576
vn 0.8665957377088076 0 0.4990108489651576
vn 0.21758105686209686 0 -0.9760422550764761
vn -0.21758105686209686 0 0.9760422550764761
vn -0.3313789142316921 0 -0.9434977558015838
vn 0.3313789142316921 0 0.9434977558015838
vn 0.10073502932427351 0 -0.9949132896222856
vn 0.04168000046762877 0 -0.9991310112097505
vn -0.10073502932427351 0 0.9949132896222856
vn -0.04168000046762877 0 0.9991310112097505
vn -0.8015661454073182 0 -0.5979061084625695
vn 0.8015661454073182 0 0.5979061084625695
vn -0.6019361601054088 0 0.798544212400012
vn 0.6019361601054088 0 -0.798544212400012
vn 0.6841666927527803 0 -0.7293256724726774
vn -0.6841666927527803 0 0.7293256724726774
vn 0.33952886808338384 0 0.94059563455186
vn -0.33952886808338384 0 -0.94059563455186
vn -0.4405339711776254 0 -0.8977359412647303
vn 0.4405339711776254 0 0.8977359412647303
vn -0.7253072811023202 0 -0.6884252668082134
vn 0.7253072811023202 0 0.6884252668082134
vn -0.9228104888054629 0 -0.3852542040661239
vn -0.9469261918108093 0 -0.3214510651136165
vn 0.9469261918108093 0 0.3214510651136165
vn 0.9228104888054629 0 0.3852542040661239
vn -0.8944013895002627 0 -0.4472651947782203
vn 0.8944013895002627 0 0.4472651947782203
vn -0.5435182337310986 0 -0.8393973609690627
vn 0.5435182337310986 0 0.8393973609690627
vn -0.9924946625672558 0 -0.12228795842399666
vn 0.9924946625672558 0 0.12228795842399666
vn -0.6388878829097507 0 -0.7692998590088892
vn 0.6388878829097507 0 0.7692998590088892
vn -0.6893548456531227 0 0.7244238378011586
vn 0.6893548456531227 0 -0.7244238378011586
vn 0.43523898120942794 0 0.9003149611307031
vn -0.43523898120942794 0 -0.9003149611307031
vn -0.966636547192265 0 -0.2561518800091379
vn 0.966636547192265 0 0.2561518800091379
vn -0.8618308039434255 0 -0.5071958846187822
vn 0.8618308039434255 0 0.5071958846187822
vn -0.9818496478002852 0 -0.1896609319666445
vn 0.9818496478002852 0 0.1896609319666445
vn -0.7677179276548721 0 0.6407879396159921
vn 0.7677179276548721 0 -0.6407879396159921
vn -0.8252510628193512 0 -0.5647660429908401
vn 0.8252510628193512 0 0.5647660429908401
vn -1 0 0
vn 1 0 0
vn -0.8359962456821948 0 0.5487351612620385
vn 0.8359962456821948 0 -0.5487351612620385
vn 0.5262549126537956 0 0.8503268588653108
vn -0.5262549126537956 0 -0.8503268588653108
vn -0.9979000241846064 0 0.0647730015698061
vn -0.9925482768177828 0 0.1218520339840496
vn 0.9925482768177828 0 -0.1218520339840496
vn 0.9979000241846064 0 -0.0647730015698061
vn -0.9720869274774574 0 0.23462098249610222
vn 0.9720869274774574 0 -0.23462098249610222
vn -0.8932933302841038 0 0.44947416618748526
vn 0.8932933302841038 0 -0.44947416618748526
vn -0.784831798727949 0 -0.6197088410741388
vn 0.784831798727949 0 0.6197088410741388
vn -0.9388563397641905 0 0.3443091246025681
vn 0.9388563397641905 0 -0.3443091246025681
vn 0.6115972211016094 0 0.7911692860196163
vn -0.6115972211016094 0 -0.7911692860196163
vn -0.7407608338910685 0 -0.6717688493618983
vn 0.7407608338910685 0 0.6717688493618983
vn 0.6903441395541173 0 0.7234811462528138
vn -0.6903441395541173 0 -0.7234811462528138
vn -0.7174199500385177 0 -0.6966409514855775
vn 0.7174199500385177 0 0.6966409514855775
vn 0.7616479954358243 0 0.6479909961169139
vn -0.7616479954358243 0 -0.6479909961169139
vn 0.824738473053629 0 0.5655143243677991
vn -0.824738473053629 0 -0.5655143243677991
vn 0.8789358876298119 0 0.4769399390241866
vn -0.8789358876298119 0 -0.4769399390241866
vn 0.9584165711000545 0 0.2853728722930998
vn 0.9719407188384874 0 0.23522593195420505
vn -0.9719407188384874 0 -0.23522593195420505
vn -0.9584165711000545 0 -0.2853728722930998
vn 0.9236562273949545 0 0.38322209434545895
vn -0.9236562273949545 0 -0.38322209434545895
usemtl material_0_0
f 1//1 2//2 3//2
f 2//2 1//1 4//1
f 3//3 2//3 1//4
f 4//4 1//4 2//3
f 5//5 3//2 2//2
f 2//3 3//3 5//6
f 6//7 1//7 3//7
f 3//8 1//8 6//8
f 7//9 4//1 1//1
f 1//4 4//4 7//10
f 4//8 5//8 2//8
f 2//7 5//7 4//7
f 8//5 3//2 5//5
f 5//6 3//3 8//6
f 6//7 7//7 1//7
f 1//8 7//8 6//8
f 3//2 9//5 6//5
f 6//6 9//6 3//3
f 4//1 7//9 10//9
f 10//10 7//10 4//4
f 10//8 5//8 4//8
f 4//7 5//7 10//7
f 9//5 3//2 8//5
f 8//6 3//3 9//6
f 11//11 8//12 5//12
f 5//13 8//13 11//14
f 6//7 12//7 7//7
f 7//8 12//8 6//8
f 9//12 13//11 6//12
f 6//13 13//14 9//13
f 12//15 10//9 7//9
f 7//10 10//10 12//16
f 14//8 5//8 10//8
f 10//7 5//7 14//7
f 15//17 9//17 8//17
f 8//18 9//18 15//18
f 8//12 11//11 16//11
f 16//14 11//14 8//13
f 17//8 11//8 5//8
f 5//7 11//7 17//7
f 6//7 18//7 12//7
f 12//8 18//8 6//8
f 13//11 9//12 19//11
f 19//14 9//13 13//14
f 13//7 20//7 6//7
f 6//8 20//8 13//8
f 10//9 12//15 14//15
f 14//16 12//16 10//10
f 21//8 5//8 14//8
f 14//7 5//7 21//7
f 9//17 15//17 22//17
f 22//18 15//18 9//18
f 16//7 15//7 8//7
f 8//8 15//8 16//8
f 23//19 16//11 11//11
f 11//14 16//14 23//20
f 24//8 11//8 17//8
f 17//7 11//7 24//7
f 17//8 5//8 21//8
f 21//7 5//7 17//7
f 6//7 20//7 18//7
f 18//8 20//8 6//8
f 18//21 14//15 12//15
f 12//16 14//16 18//22
f 22//8 19//8 9//8
f 9//7 19//7 22//7
f 19//11 25//19 13//11
f 13//14 25//20 19//14
f 13//7 26//7 20//7
f 20//8 26//8 13//8
f 14//15 18//21 21//21
f 21//22 18//22 14//16
f 15//23 27//23 22//23
f 22//24 27//24 15//24
f 15//7 16//7 28//7
f 28//8 16//8 15//8
f 16//11 23//19 28//19
f 28//20 23//20 16//14
f 11//8 29//8 23//8
f 23//7 29//7 11//7
f 30//8 11//8 24//8
f 24//7 11//7 30//7
f 17//25 26//26 24//26
f 24//27 26//27 17//28
f 21//21 20//25 17//25
f 17//28 20//28 21//22
f 20//25 21//21 18//21
f 18//22 21//22 20//28
f 19//8 22//8 31//8
f 31//7 22//7 19//7
f 25//19 19//11 31//19
f 31//20 19//14 25//20
f 32//7 13//7 25//7
f 25//8 13//8 32//8
f 13//7 33//7 26//7
f 26//8 33//8 13//8
f 26//26 17//25 20//25
f 20//28 17//28 26//27
f 27//23 15//23 34//23
f 34//24 15//24 27//24
f 35//8 22//8 27//8
f 27//7 22//7 35//7
f 15//7 28//7 34//7
f 34//8 28//8 15//8
f 36//29 28//19 23//19
f 23//20 28//20 36//30
f 30//8 29//8 11//8
f 11//7 29//7 30//7
f 23//8 29//8 36//8
f 36//7 29//7 23//7
f 24//26 33//31 30//31
f 30//32 33//32 24//27
f 33//31 24//26 26//26
f 26//27 24//27 33//32
f 31//8 22//8 37//8
f 37//7 22//7 31//7
f 37//29 25//19 31//19
f 31//20 25//20 37//30
f 32//7 33//7 13//7
f 13//8 33//8 32//8
f 32//7 25//7 38//7
f 38//8 25//8 32//8
f 27//23 34//23 39//23
f 39//24 34//24 27//24
f 40//8 22//8 35//8
f 35//7 22//7 40//7
f 35//8 27//8 41//8
f 41//7 27//7 35//7
f 34//7 28//7 42//7
f 42//8 28//8 34//8
f 28//19 36//29 42//29
f 42//30 36//30 28//20
f 43//8 29//8 30//8
f 30//7 29//7 43//7
f 36//8 29//8 44//8
f 44//7 29//7 36//7
f 45//33 30//31 33//31
f 33//32 30//32 45//34
f 37//8 22//8 40//8
f 40//7 22//7 37//7
f 25//19 37//29 38//29
f 38//30 37//30 25//20
f 32//7 45//7 33//7
f 33//8 45//8 32//8
f 32//7 38//7 46//7
f 46//8 38//8 32//8
f 47//23 39//23 34//23
f 34//24 39//24 47//24
f 48//35 27//35 39//35
f 39//36 27//36 48//36
f 49//37 40//38 35//37
f 35//39 40//40 49//39
f 41//8 27//8 50//8
f 50//7 27//7 41//7
f 51//41 35//37 41//41
f 41//42 35//39 51//42
f 34//7 42//7 52//7
f 52//8 42//8 34//8
f 44//38 42//29 36//29
f 36//30 42//30 44//40
f 43//8 53//8 29//8
f 29//7 53//7 43//7
f 30//31 45//33 43//33
f 43//34 45//34 30//32
f 44//8 29//8 54//8
f 54//7 29//7 44//7
f 40//38 38//29 37//29
f 37//30 38//30 40//40
f 55//7 45//7 32//7
f 32//8 45//8 55//8
f 38//29 40//38 46//38
f 46//40 40//40 38//30
f 32//7 46//7 49//7
f 49//8 46//8 32//8
f 47//43 56//43 39//43
f 39//44 56//44 47//44
f 34//7 57//7 47//7
f 47//8 57//8 34//8
f 27//35 48//35 58//35
f 58//36 48//36 27//36
f 39//43 59//43 48//43
f 48//44 59//44 39//44
f 40//38 49//37 46//38
f 46//40 49//39 40//40
f 35//37 51//41 49//37
f 49//39 51//42 35//39
f 50//8 27//8 60//8
f 60//7 27//7 50//7
f 61//45 41//41 50//45
f 50//46 41//42 61//46
f 41//41 61//45 51//41
f 51//42 61//46 41//42
f 42//29 44//38 52//38
f 52//40 44//40 42//30
f 34//7 52//7 62//7
f 62//8 52//8 34//8
f 43//8 63//8 53//8
f 53//7 63//7 43//7
f 55//47 29//48 53//47
f 53//49 29//50 55//49
f 64//51 43//33 45//33
f 45//34 43//34 64//52
f 54//8 29//8 65//8
f 65//7 29//7 54//7
f 54//37 52//38 44//38
f 44//40 52//40 54//39
f 66//7 45//7 55//7
f 55//8 45//8 66//8
f 29//48 55//47 32//48
f 32//50 55//49 29//50
f 32//7 49//7 67//7
f 67//8 49//8 32//8
f 56//43 47//43 57//43
f 57//44 47//44 56//44
f 39//43 56//43 68//43
f 68//44 56//44 39//44
f 57//7 34//7 69//7
f 69//8 34//8 57//8
f 48//43 70//43 58//43
f 58//44 70//44 48//44
f 27//35 58//35 71//35
f 71//36 58//36 27//36
f 39//43 72//43 59//43
f 59//44 72//44 39//44
f 70//43 48//43 59//43
f 59//44 48//44 70//44
f 67//7 49//7 51//7
f 51//8 49//8 67//8
f 60//8 27//8 73//8
f 73//7 27//7 60//7
f 74//53 50//45 60//53
f 60//54 50//46 74//54
f 50//45 74//53 61//45
f 61//46 74//54 50//46
f 67//7 51//7 61//7
f 61//8 51//8 67//8
f 52//38 54//37 62//37
f 62//39 54//39 52//40
f 34//7 62//7 75//7
f 75//8 62//8 34//8
f 76//8 63//8 43//8
f 43//7 63//7 76//7
f 66//55 53//47 63//55
f 63//56 53//49 66//56
f 53//47 66//55 55//47
f 55//49 66//56 53//49
f 43//33 64//51 76//51
f 76//52 64//52 43//34
f 66//7 64//7 45//7
f 45//8 64//8 66//8
f 32//24 65//24 29//24
f 29//23 65//23 32//23
f 54//8 65//8 77//8
f 77//7 65//7 54//7
f 65//24 32//24 67//24
f 67//23 32//23 65//23
f 57//23 78//23 56//23
f 56//24 78//24 57//24
f 78//57 68//58 56//57
f 56//59 68//60 78//59
f 39//43 68//43 79//43
f 79//44 68//44 39//44
f 34//7 80//7 69//7
f 69//8 80//8 34//8
f 80//23 57//23 69//23
f 69//24 57//24 80//24
f 71//35 58//35 70//35
f 70//36 58//36 71//36
f 81//8 27//8 71//8
f 71//7 27//7 81//7
f 39//43 82//43 72//43
f 72//44 82//44 39//44
f 72//61 83//62 59//63
f 59//64 83//65 72//66
f 59//63 84//67 70//67
f 70//68 84//68 59//64
f 73//8 27//8 85//8
f 85//7 27//7 73//7
f 86//69 60//53 73//69
f 73//70 60//54 86//70
f 60//53 86//69 74//53
f 74//54 86//70 60//54
f 67//7 61//7 74//7
f 74//8 61//8 67//8
f 54//37 75//41 62//37
f 62//39 75//42 54//39
f 34//7 75//7 87//7
f 87//8 75//8 34//8
f 76//8 88//8 63//8
f 63//7 88//7 76//7
f 63//55 89//71 66//55
f 66//56 89//72 63//56
f 90//73 76//51 64//51
f 64//52 76//52 90//74
f 89//7 64//7 66//7
f 66//8 64//8 89//8
f 77//8 65//8 91//8
f 91//7 65//7 77//7
f 75//41 54//37 77//41
f 77//42 54//39 75//42
f 67//75 92//76 65//75
f 65//77 92//78 67//77
f 78//23 57//23 80//23
f 80//24 57//24 78//24
f 68//58 78//57 93//58
f 93//60 78//59 68//60
f 93//58 79//79 68//58
f 68//60 79//80 93//60
f 39//43 79//43 94//43
f 94//44 79//44 39//44
f 34//7 95//7 80//7
f 80//8 95//8 34//8
f 70//81 96//82 71//81
f 71//83 96//84 70//83
f 97//8 27//8 81//8
f 81//7 27//7 97//7
f 71//67 98//63 81//63
f 81//64 98//64 71//68
f 39//43 99//43 82//43
f 82//44 99//44 39//44
f 82//85 100//61 72//61
f 72//66 100//66 82//86
f 83//62 72//61 100//61
f 100//66 72//66 83//65
f 59//63 83//62 101//63
f 101//64 83//65 59//64
f 84//67 59//63 101//63
f 101//64 59//64 84//68
f 96//82 70//81 84//81
f 84//83 70//83 96//84
f 85//8 27//8 102//8
f 102//7 27//7 85//7
f 103//87 73//69 85//87
f 85//88 73//70 103//88
f 73//69 103//87 86//69
f 86//70 103//88 73//70
f 67//7 74//7 86//7
f 86//8 74//8 67//8
f 77//41 87//45 75//41
f 75//42 87//46 77//42
f 34//7 87//7 104//7
f 104//8 87//8 34//8
f 105//8 88//8 76//8
f 76//7 88//7 105//7
f 89//71 63//55 88//71
f 88//72 63//56 89//72
f 76//51 90//73 105//73
f 105//74 90//74 76//52
f 89//7 90//7 64//7
f 64//8 90//8 89//8
f 91//8 65//8 106//8
f 106//7 65//7 91//7
f 87//45 77//41 91//45
f 91//46 77//42 87//46
f 92//76 67//75 107//76
f 107//78 67//77 92//78
f 108//8 65//8 92//8
f 92//7 65//7 108//7
f 78//23 80//23 109//23
f 109//24 80//24 78//24
f 78//8 65//8 93//8
f 93//7 65//7 78//7
f 79//79 93//58 110//79
f 110//80 93//60 79//80
f 110//79 94//89 79//79
f 79//80 94//90 110//80
f 39//43 94//43 111//43
f 111//44 94//44 39//44
f 34//7 112//7 95//7
f 95//8 112//8 34//8
f 113//91 80//92 95//91
f 95//93 80//94 113//93
f 71//81 96//82 114//81
f 114//83 96//84 71//83
f 115//8 27//8 97//8
f 97//7 27//7 115//7
f 81//63 116//61 97//61
f 97//66 116//66 81//64
f 98//63 71//67 114//67
f 114//68 71//68 98//64
f 117//62 81//63 98//63
f 98//64 81//64 117//65
f 39//43 118//43 99//43
f 99//44 118//44 39//44
f 99//95 119//85 82//85
f 82//86 119//86 99//96
f 100//61 82//85 119//85
f 119//86 82//86 100//66
f 100//8 65//8 83//8
f 83//7 65//7 100//7
f 83//8 65//8 101//8
f 101//7 65//7 83//7
f 101//8 65//8 84//8
f 84//7 65//7 101//7
f 84//8 65//8 96//8
f 96//7 65//7 84//7
f 102//8 27//8 120//8
f 120//7 27//7 102//7
f 121//91 85//87 102//91
f 102//93 85//88 121//93
f 85//87 121//91 103//87
f 103//88 121//93 85//88
f 67//7 86//7 103//7
f 103//8 86//8 67//8
f 91//45 104//53 87//45
f 87//46 104//54 91//46
f 34//7 104//7 122//7
f 122//8 104//8 34//8
f 105//8 123//8 88//8
f 88//7 123//7 105//7
f 88//71 124//97 89//71
f 89//72 124//98 88//72
f 90//73 125//99 105//73
f 105//74 125//100 90//74
f 124//7 90//7 89//7
f 89//8 90//8 124//8
f 106//8 65//8 126//8
f 126//7 65//7 106//7
f 104//53 91//45 106//53
f 106//54 91//46 104//54
f 67//7 127//7 107//7
f 107//8 127//8 67//8
f 107//76 128//101 92//76
f 92//78 128//102 107//78
f 129//8 65//8 108//8
f 108//7 65//7 129//7
f 108//8 92//8 130//8
f 130//7 92//7 108//7
f 80//92 113//91 109//92
f 109//94 113//93 80//94
f 109//8 65//8 78//8
f 78//7 65//7 109//7
f 93//8 65//8 110//8
f 110//7 65//7 93//7
f 94//89 110//79 131//89
f 131//90 110//80 94//90
f 94//89 132//103 111//103
f 111//104 132//104 94//90
f 39//43 111//43 133//43
f 133//44 111//44 39//44
f 34//7 122//7 112//7
f 112//8 122//8 34//8
f 134//87 95//91 112//87
f 112//88 95//93 134//88
f 95//91 134//87 113//91
f 113//93 134//88 95//93
f 114//81 96//82 135//82
f 135//84 96//84 114//83
f 136//8 27//8 115//8
f 115//7 27//7 136//7
f 97//61 137//85 115//85
f 115//86 137//86 97//66
f 116//61 81//63 117//62
f 117//65 81//64 116//66
f 137//85 97//61 116//61
f 116//66 97//66 137//86
f 67//7 98//7 114//7
f 114//8 98//8 67//8
f 67//7 117//7 98//7
f 98//8 117//8 67//8
f 39//43 138//43 118//43
f 118//44 138//44 39//44
f 118//105 139//95 99//95
f 99//96 139//96 118//106
f 119//85 99//95 139//95
f 139//96 99//96 119//86
f 119//8 65//8 100//8
f 100//7 65//7 119//7
f 96//8 65//8 140//8
f 140//7 65//7 96//7
f 120//8 27//8 141//8
f 141//7 27//7 120//7
f 142//92 102//91 120//92
f 120//94 102//93 142//94
f 102//91 142//92 121//91
f 121//93 142//94 102//93
f 67//7 103//7 121//7
f 121//8 103//8 67//8
f 106//53 122//69 104//53
f 104//54 122//70 106//54
f 105//8 143//8 123//8
f 123//7 143//7 105//7
f 124//97 88//71 123//97
f 123//98 88//72 124//98
f 125//99 90//73 144//99
f 144//100 90//74 125//100
f 125//8 143//8 105//8
f 105//7 143//7 125//7
f 145//7 90//7 124//7
f 124//8 90//8 145//8
f 126//8 65//8 134//8
f 134//7 65//7 126//7
f 122//69 106//53 126//69
f 126//70 106//54 122//70
f 67//7 146//7 127//7
f 127//8 146//8 67//8
f 107//7 127//7 147//7
f 147//8 127//8 107//8
f 128//101 107//76 148//101
f 148//102 107//78 128//102
f 149//8 92//8 128//8
f 128//7 92//7 149//7
f 150//8 65//8 129//8
f 129//7 65//7 150//7
f 108//107 146//108 129//108
f 129//109 146//109 108//110
f 130//8 92//8 149//8
f 149//7 92//7 130//7
f 130//111 127//107 108//107
f 108//110 127//110 130//112
f 113//8 65//8 109//8
f 109//7 65//7 113//7
f 110//8 65//8 131//8
f 131//7 65//7 110//7
f 132//103 94//89 131//89
f 131//90 94//90 132//104
f 151//113 111//103 132//103
f 132//104 111//104 151//114
f 111//103 151//113 133//113
f 133//114 151//114 111//104
f 39//43 133//43 138//43
f 138//44 133//44 39//44
f 126//69 112//87 122//69
f 122//70 112//88 126//70
f 112//87 126//69 134//87
f 134//88 126//70 112//88
f 134//8 65//8 113//8
f 113//7 65//7 134//7
f 140//115 135//82 96//82
f 96//84 135//84 140//116
f 67//7 114//7 135//7
f 135//8 114//8 67//8
f 152//8 27//8 136//8
f 136//7 27//7 152//7
f 115//85 153//95 136//95
f 136//96 153//96 115//86
f 153//95 115//85 137//85
f 137//86 115//86 153//96
f 67//7 116//7 117//7
f 117//8 116//8 67//8
f 67//7 137//7 116//7
f 116//8 137//8 67//8
f 138//117 154//105 118//105
f 118//106 154//106 138//118
f 139//95 118//105 154//105
f 154//106 118//106 139//96
f 139//8 65//8 119//8
f 119//7 65//7 139//7
f 140//8 65//8 155//8
f 155//7 65//7 140//7
f 141//8 27//8 156//8
f 156//7 27//7 141//7
f 157//23 120//23 141//23
f 141//24 120//24 157//24
f 120//23 157//23 142//23
f 142//24 157//24 120//24
f 67//7 121//7 142//7
f 142//8 121//8 67//8
f 145//119 123//97 143//119
f 143//120 123//98 145//120
f 123//97 145//119 124//97
f 124//98 145//120 123//98
f 145//7 144//7 90//7
f 90//8 144//8 145//8
f 144//23 158//23 125//23
f 125//24 158//24 144//24
f 125//8 159//8 143//8
f 143//7 159//7 125//7
f 67//7 160//7 146//7
f 146//8 160//8 67//8
f 146//108 108//107 127//107
f 127//110 108//110 146//109
f 127//107 130//111 147//111
f 147//112 130//112 127//110
f 107//7 147//7 161//7
f 161//8 147//8 107//8
f 107//7 161//7 148//7
f 148//8 161//8 107//8
f 148//101 162//121 128//101
f 128//102 162//122 148//102
f 149//8 128//8 163//8
f 163//7 128//7 149//7
f 155//8 65//8 150//8
f 150//7 65//7 155//7
f 129//108 160//123 150//123
f 150//124 160//124 129//109
f 160//123 129//108 146//108
f 146//109 129//109 160//124
f 149//125 147//111 130//111
f 130//112 147//112 149//126
f 131//8 65//8 132//8
f 132//7 65//7 131//7
f 132//8 65//8 151//8
f 151//7 65//7 132//7
f 164//117 133//113 151//113
f 151//114 133//114 164//118
f 133//113 164//117 138//117
f 138//118 164//118 133//114
f 135//82 140//115 165//115
f 165//116 140//116 135//84
f 67//7 135//7 165//7
f 165//8 135//8 67//8
f 166//8 27//8 152//8
f 152//7 27//7 166//7
f 136//95 167//105 152//105
f 152//106 167//106 136//96
f 167//105 136//95 153//95
f 153//96 136//96 167//106
f 67//7 153//7 137//7
f 137//8 153//8 67//8
f 154//105 138//117 164//117
f 164//118 138//118 154//106
f 154//8 65//8 139//8
f 139//7 65//7 154//7
f 155//127 165//115 140//115
f 140//116 165//116 155//128
f 156//8 27//8 168//8
f 168//7 27//7 156//7
f 169//58 141//57 156//58
f 156//60 141//59 169//60
f 141//57 169//58 157//57
f 157//59 169//60 141//59
f 67//7 142//7 157//7
f 157//8 142//8 67//8
f 159//129 145//119 143//119
f 143//120 145//120 159//130
f 170//7 144//7 145//7
f 145//8 144//8 170//8
f 158//23 144//23 171//23
f 171//24 144//24 158//24
f 158//8 172//8 125//8
f 125//7 172//7 158//7
f 125//8 173//8 159//8
f 159//7 173//7 125//7
f 67//7 174//7 160//7
f 160//8 174//8 67//8
f 147//111 149//125 161//125
f 161//126 149//126 147//112
f 148//7 161//7 175//7
f 175//8 161//8 148//8
f 162//121 148//101 176//121
f 176//122 148//102 162//122
f 163//8 128//8 162//8
f 162//7 128//7 163//7
f 163//131 161//125 149//125
f 149//126 161//126 163//132
f 150//123 174//127 155//127
f 155//128 174//128 150//124
f 174//127 150//123 160//123
f 160//124 150//124 174//128
f 151//8 65//8 164//8
f 164//7 65//7 151//7
f 67//7 165//7 174//7
f 174//8 165//8 67//8
f 177//8 27//8 166//8
f 166//7 27//7 177//7
f 152//105 178//117 166//117
f 166//118 178//118 152//106
f 178//117 152//105 167//105
f 167//106 152//106 178//118
f 67//7 167//7 153//7
f 153//8 167//8 67//8
f 164//8 65//8 154//8
f 154//7 65//7 164//7
f 165//115 155//127 174//127
f 174//128 155//128 165//116
f 168//8 27//8 179//8
f 179//7 27//7 168//7
f 168//79 169//58 156//58
f 156//60 169//60 168//80
f 67//7 157//7 169//7
f 169//8 157//8 67//8
f 145//119 159//129 170//129
f 170//130 159//130 145//120
f 180//7 144//7 170//7
f 170//8 144//8 180//8
f 144//7 181//7 171//7
f 171//8 181//8 144//8
f 181//133 158//133 171//133
f 171//134 158//134 181//134
f 172//8 158//8 182//8
f 182//7 158//7 172//7
f 125//8 172//8 183//8
f 183//7 172//7 125//7
f 125//8 184//8 173//8
f 173//7 184//7 125//7
f 173//135 170//129 159//129
f 159//130 170//130 173//136
f 161//125 163//131 175//131
f 175//132 163//132 161//126
f 148//7 175//7 176//7
f 176//8 175//8 148//8
f 176//121 185//137 162//121
f 162//122 185//138 176//122
f 163//8 162//8 186//8
f 186//7 162//7 163//7
f 187//8 27//8 177//8
f 177//7 27//7 187//7
f 178//117 177//113 166//117
f 166//118 177//114 178//118
f 67//7 178//7 167//7
f 167//8 178//8 67//8
f 179//8 27//8 187//8
f 187//7 27//7 179//7
f 188//89 168//79 179//89
f 179//90 168//80 188//90
f 169//58 168//79 189//79
f 189//80 168//80 169//60
f 67//7 169//7 189//7
f 189//8 169//8 67//8
f 190//7 144//7 180//7
f 180//8 144//8 190//8
f 170//129 173//135 180//135
f 180//136 173//136 170//130
f 181//7 144//7 191//7
f 191//8 144//8 181//8
f 158//133 181//133 182//133
f 182//134 181//134 158//134
f 182//139 191//140 172//140
f 172//141 191//141 182//142
f 172//140 192//143 183//143
f 183//144 192//144 172//141
f 125//8 183//8 193//8
f 193//7 183//7 125//7
f 125//8 193//8 184//8
f 184//7 193//7 125//7
f 184//145 180//135 173//135
f 173//136 180//136 184//146
f 186//147 175//131 163//131
f 163//132 175//132 186//148
f 176//7 175//7 194//7
f 194//8 175//8 176//8
f 185//137 176//121 195//137
f 195//138 176//122 185//138
f 186//8 162//8 185//8
f 185//7 162//7 186//7
f 196//113 187//103 177//113
f 177//114 187//104 196//114
f 177//113 178//117 196//113
f 196//114 178//118 177//114
f 67//7 196//7 178//7
f 178//8 196//8 67//8
f 197//103 179//89 187//103
f 187//104 179//90 197//104
f 168//79 188//89 189//79
f 189//80 188//90 168//80
f 179//89 197//103 188//89
f 188//90 197//104 179//90
f 67//7 189//7 188//7
f 188//8 189//8 67//8
f 198//7 144//7 190//7
f 190//8 144//8 198//8
f 180//135 184//145 190//145
f 190//146 184//146 180//136
f 191//7 144//7 192//7
f 192//8 144//8 191//8
f 191//140 182//139 181//139
f 181//142 182//142 191//141
f 192//143 172//140 191//140
f 191//141 172//141 192//144
f 198//149 183//143 192//143
f 192//144 183//144 198//150
f 183//143 198//149 193//149
f 193//150 198//150 183//144
f 193//149 190//145 184//145
f 184//146 190//146 193//150
f 175//131 186//147 194//147
f 194//148 186//148 175//132
f 176//7 194//7 195//7
f 195//8 194//8 176//8
f 195//137 199//151 185//137
f 185//138 199//152 195//138
f 186//8 185//8 199//8
f 199//7 185//7 186//7
f 187//103 196//113 197//103
f 197//104 196//114 187//104
f 67//7 197//7 196//7
f 196//8 197//8 67//8
f 67//7 188//7 197//7
f 197//8 188//8 67//8
f 192//7 144//7 198//7
f 198//8 144//8 192//8
f 190//145 193//149 198//149
f 198//150 193//150 190//146
f 200//153 194//147 186//147
f 186//148 194//148 200//154
f 195//7 194//7 201//7
f 201//8 194//8 195//8
f 199//151 195//137 201//151
f 201//152 195//138 199//152
f 186//8 199//8 200//8
f 200//7 199//7 186//7
f 194//147 200//153 202//153
f 202//154 200//154 194//148
f 201//7 194//7 202//7
f 202//8 194//8 201//8
f 201//151 203//155 199//151
f 199//152 203//156 201//152
f 200//8 199//8 203//8
f 203//7 199//7 200//7
f 204//157 202//153 200//153
f 200//154 202//154 204//158
f 201//7 202//7 205//7
f 205//8 202//8 201//8
f 203//155 201//151 205//155
f 205//156 201//152 203//156
f 200//8 203//8 204//8
f 204//7 203//7 200//7
f 202//153 204//157 206//157
f 206//158 204//158 202//154
f 205//7 202//7 206//7
f 206//8 202//8 205//8
f 207//159 203//155 205//155
f 205//156 203//156 207//160
f 204//8 203//8 208//8
f 208//7 203//7 204//7
f 209//23 206//23 204//23
f 204//24 206//24 209//24
f 205//7 206//7 207//7
f 207//8 206//8 205//8
f 203//155 207//159 208//159
f 208//160 207//160 203//156
f 204//8 208//8 210//8
f 210//7 208//7 204//7
f 206//23 209//23 211//23
f 211//24 209//24 206//24
f 204//8 210//8 209//8
f 209//7 210//7 204//7
f 207//7 206//7 212//7
f 212//8 206//8 207//8
f 212//161 208//159 207//159
f 207//160 208//160 212//162
f 208//159 212//161 210//161
f 210//162 212//162 208//160
f 213//134 211//134 209//134
f 209//133 211//133 213//133
f 212//7 206//7 211//7
f 211//8 206//8 212//8
f 209//8 210//8 214//8
f 214//7 210//7 209//7
f 215//163 210//161 212//161
f 212//162 210//162 215//164
f 211//134 213//134 216//134
f 216//133 213//133 211//133
f 209//8 217//8 213//8
f 213//7 217//7 209//7
f 212//7 211//7 215//7
f 215//8 211//8 212//8
f 210//161 215//163 214//163
f 214//164 215//164 210//162
f 209//8 214//8 218//8
f 218//7 214//7 209//7
f 217//165 216//166 213//166
f 213//167 216//167 217//168
f 219//7 211//7 216//7
f 216//8 211//8 219//8
f 209//8 218//8 217//8
f 217//7 218//7 209//7
f 215//7 211//7 220//7
f 220//8 211//8 215//8
f 220//169 214//163 215//163
f 215//164 214//164 220//170
f 214//163 220//169 218//169
f 218//170 220//170 214//164
f 216//166 217//165 219//165
f 219//168 217//168 216//167
f 220//7 211//7 219//7
f 219//8 211//8 220//8
f 218//169 219//165 217//165
f 217//168 219//168 218//170
f 219//165 218//169 220//169
f 220//170 218//170 219//168
