# SSTK version 0.8.0
# 6
mtllib original-6.mtl
o mesh3/mesh3-geometry#mesh3-geometry
v 0.031448 -0.000788 0.641862
v 0.031448 0.005036 0.641862
v 0.031448 -0.000788 0.161394
v 0.046007 0.005036 0.685541
v 0.031448 0.005036 0.161394
v 0.046007 -0.000788 0.685541
v 0.089686 0.005036 0.161394
v 0.075126 -0.000788 0.685541
v 0.075126 0.005036 0.685541
v 0.089686 -0.000788 0.161394
v 0.089686 -0.000788 0.641862
v 0.089686 0.005036 0.641862
vn -1 0 0
vn 1 0 0
vn -0.9486831980504455 0 0.31622806601688475
vn 0.9486831980504455 0 -0.31622806601688475
vn 0 -1 0
vn 0 1 0
vn 0 0 -1
vn 0 0 1
vn 0.9486831980504455 0 0.31622806601688475
vn -0.9486831980504455 0 -0.31622806601688475
usemtl material_0_0
f 1//1 2//1 3//1
f 3//2 2//2 1//2
f 2//3 1//3 4//3
f 4//4 1//4 2//4
f 5//1 3//1 2//1
f 2//2 3//2 5//2
f 1//5 3//5 6//5
f 6//6 3//6 1//6
f 6//3 4//3 1//3
f 1//4 4//4 6//4
f 2//6 4//6 5//6
f 5//5 4//5 2//5
f 5//7 7//7 3//7
f 3//8 7//8 5//8
f 6//5 3//5 8//5
f 8//6 3//6 6//6
f 6//8 8//8 4//8
f 4//7 8//7 6//7
f 4//6 9//6 5//6
f 5//5 9//5 4//5
f 5//6 9//6 7//6
f 7//5 9//5 5//5
f 10//7 3//7 7//7
f 7//8 3//8 10//8
f 8//5 3//5 11//5
f 11//6 3//6 8//6
f 9//8 4//8 8//8
f 8//7 4//7 9//7
f 12//6 7//6 9//6
f 9//5 7//5 12//5
f 10//5 11//5 3//5
f 3//6 11//6 10//6
f 10//2 7//2 11//2
f 11//1 7//1 10//1
f 11//9 12//9 8//9
f 8//10 12//10 11//10
f 9//9 8//9 12//9
f 12//10 8//10 9//10
f 12//2 11//2 7//2
f 7//1 11//1 12//1
