# SSTK version 0.8.0
# 10
mtllib original-10.mtl
o Group5/mesh30/mesh30-geometry#mesh30-geometry
v -0.313132 0.028331 0.161394
v -0.240335 -0.000788 0.161394
v -0.313132 -0.000788 0.161394
v -0.240335 0.005036 0.161394
v -0.240335 -0.000788 0.277870
v -0.313132 0.028331 0.277870
v -0.182097 0.005036 0.161394
v -0.313132 -0.000788 0.277870
v -0.342252 0.028331 0.161394
v -0.046209 0.005036 0.161394
v -0.342252 0.028331 0.277870
v 0.298371 0.028331 0.161394
v 0.031448 0.005036 0.161394
v -0.104447 0.005036 0.161394
v -0.240335 0.005036 0.277870
v -0.342252 0.090209 0.277870
v 0.167336 0.005036 0.161394
v -0.342252 0.090209 0.161394
v 0.089686 0.005036 0.161394
v -0.046209 -0.000788 0.161394
v -0.104447 -0.000788 0.161394
v 0.031448 0.005036 0.277870
v 0.327491 0.090209 0.277870
v 0.225574 0.005036 0.161394
v 0.327491 0.028331 0.161394
v 0.031448 -0.000788 0.161394
v -0.182097 -0.000788 0.161394
v 0.225574 0.005036 0.277870
v -0.046209 0.005036 0.277870
v 0.327491 0.028331 0.277870
v -0.338514 0.102950 0.277870
v 0.225574 -0.000788 0.161394
v 0.167336 -0.000788 0.161394
v 0.327491 0.090209 0.161394
v 0.031448 -0.000788 0.277870
v -0.182097 -0.000788 0.277870
v 0.298371 0.028331 0.277870
v 0.167336 0.005036 0.277870
v -0.182097 0.005036 0.277870
v 0.323753 0.102950 0.277870
v 0.298371 -0.000788 0.161394
v 0.089686 -0.000788 0.161394
v -0.338514 0.102950 0.161394
v -0.046209 -0.000788 0.277870
v -0.104447 -0.000788 0.277870
v 0.225574 -0.000788 0.277870
v 0.089686 0.005036 0.277870
v -0.104447 0.005036 0.277870
v 0.319318 0.108226 0.277870
v 0.298371 -0.000788 0.277870
v 0.167336 -0.000788 0.277870
v 0.323753 0.102950 0.161394
v 0.089686 -0.000788 0.277870
v -0.334079 0.108226 0.277870
v -0.334079 0.108226 0.161394
v -0.328299 0.112275 0.277870
v 0.319318 0.108226 0.161394
v 0.313538 0.112275 0.277870
v 0.313538 0.112275 0.161394
v -0.314347 0.115689 0.277870
v -0.328299 0.112275 0.161394
v 0.299586 0.115689 0.277870
v -0.314347 0.115689 0.161394
v 0.299586 0.115689 0.161394
vn 0 0 -1
vn 0 0 1
vn 0 1 0
vn 0 -1 0
vn 1 0 0
vn -1 0 0
usemtl material_0_0
f 1//1 2//1 3//1
f 2//1 1//1 4//1
f 3//2 2//2 1//2
f 4//2 1//2 2//2
f 3//3 5//3 2//3
f 2//4 5//4 3//4
f 6//5 3//5 1//5
f 1//6 3//6 6//6
f 4//1 1//1 7//1
f 7//2 1//2 4//2
f 5//3 3//3 8//3
f 8//4 3//4 5//4
f 3//5 6//5 8//5
f 8//6 6//6 3//6
f 9//3 6//3 1//3
f 1//4 6//4 9//4
f 7//1 1//1 10//1
f 10//2 1//2 7//2
f 6//1 5//1 8//1
f 8//2 5//2 6//2
f 6//3 9//3 11//3
f 11//4 9//4 6//4
f 12//1 1//1 9//1
f 9//2 1//2 12//2
f 10//1 1//1 13//1
f 13//2 1//2 10//2
f 14//1 7//1 10//1
f 10//2 7//2 14//2
f 5//1 6//1 15//1
f 15//2 6//2 5//2
f 9//5 16//5 11//5
f 11//6 16//6 9//6
f 16//1 6//1 11//1
f 11//2 6//2 16//2
f 12//1 17//1 1//1
f 1//2 17//2 12//2
f 12//1 9//1 18//1
f 18//2 9//2 12//2
f 13//1 1//1 19//1
f 19//2 1//2 13//2
f 13//1 20//1 10//1
f 10//2 20//2 13//2
f 21//1 7//1 14//1
f 14//2 7//2 21//2
f 15//1 6//1 22//1
f 22//2 6//2 15//2
f 16//5 9//5 18//5
f 18//6 9//6 16//6
f 23//1 6//1 16//1
f 16//2 6//2 23//2
f 12//1 24//1 17//1
f 17//2 24//2 12//2
f 19//1 1//1 17//1
f 17//2 1//2 19//2
f 12//1 18//1 25//1
f 25//2 18//2 12//2
f 20//1 13//1 26//1
f 26//2 13//2 20//2
f 7//1 21//1 27//1
f 27//2 21//2 7//2
f 22//1 6//1 28//1
f 28//2 6//2 22//2
f 22//1 29//1 15//1
f 15//2 29//2 22//2
f 30//1 6//1 23//1
f 23//2 6//2 30//2
f 23//1 16//1 31//1
f 31//2 16//2 23//2
f 12//1 32//1 24//1
f 24//2 32//2 12//2
f 33//1 19//1 17//1
f 17//2 19//2 33//2
f 25//1 18//1 34//1
f 34//2 18//2 25//2
f 12//3 30//3 25//3
f 25//4 30//4 12//4
f 20//3 35//3 26//3
f 26//4 35//4 20//4
f 36//3 21//3 27//3
f 27//4 21//4 36//4
f 28//1 6//1 37//1
f 37//2 6//2 28//2
f 38//1 22//1 28//1
f 28//2 22//2 38//2
f 35//1 29//1 22//1
f 22//2 29//2 35//2
f 29//1 39//1 15//1
f 15//2 39//2 29//2
f 37//1 6//1 30//1
f 30//2 6//2 37//2
f 34//6 30//6 23//6
f 23//5 30//5 34//5
f 23//1 31//1 40//1
f 40//2 31//2 23//2
f 32//1 12//1 41//1
f 41//2 12//2 32//2
f 19//1 33//1 42//1
f 42//2 33//2 19//2
f 34//1 18//1 43//1
f 43//2 18//2 34//2
f 30//6 34//6 25//6
f 25//5 34//5 30//5
f 30//3 12//3 37//3
f 37//4 12//4 30//4
f 35//3 20//3 44//3
f 44//4 20//4 35//4
f 21//3 36//3 45//3
f 45//4 36//4 21//4
f 37//1 46//1 28//1
f 28//2 46//2 37//2
f 38//1 47//1 22//1
f 22//2 47//2 38//2
f 29//1 35//1 44//1
f 44//2 35//2 29//2
f 48//1 39//1 29//1
f 29//2 39//2 48//2
f 40//1 31//1 49//1
f 49//2 31//2 40//2
f 50//6 12//6 41//6
f 41//5 12//5 50//5
f 32//3 50//3 41//3
f 41//4 50//4 32//4
f 42//3 51//3 33//3
f 33//4 51//4 42//4
f 34//1 43//1 52//1
f 52//2 43//2 34//2
f 12//6 50//6 37//6
f 37//5 50//5 12//5
f 39//1 45//1 36//1
f 36//2 45//2 39//2
f 46//1 37//1 50//1
f 50//2 37//2 46//2
f 38//1 53//1 47//1
f 47//2 53//2 38//2
f 45//1 39//1 48//1
f 48//2 39//2 45//2
f 49//1 31//1 54//1
f 54//2 31//2 49//2
f 50//3 32//3 46//3
f 46//4 32//4 50//4
f 51//3 42//3 53//3
f 53//4 42//4 51//4
f 52//1 43//1 55//1
f 55//2 43//2 52//2
f 53//1 38//1 51//1
f 51//2 38//2 53//2
f 49//1 54//1 56//1
f 56//2 54//2 49//2
f 52//1 55//1 57//1
f 57//2 55//2 52//2
f 49//1 56//1 58//1
f 58//2 56//2 49//2
f 57//1 55//1 59//1
f 59//2 55//2 57//2
f 58//1 56//1 60//1
f 60//2 56//2 58//2
f 59//1 55//1 61//1
f 61//2 55//2 59//2
f 58//1 60//1 62//1
f 62//2 60//2 58//2
f 59//1 61//1 63//1
f 63//2 61//2 59//2
f 63//4 62//4 60//4
f 60//3 62//3 63//3
f 59//1 63//1 64//1
f 64//2 63//2 59//2
f 62//4 63//4 64//4
f 64//3 63//3 62//3
