# SSTK version 0.8.0
# 11
mtllib original-11.mtl
o mesh31/mesh31-geometry#mesh31-geometry
v 0.342051 0.101129 0.161394
v 0.312932 -0.102706 0.161394
v 0.342051 -0.073587 0.161394
v 0.312932 0.130248 0.161394
v -0.327693 -0.102706 0.161394
v -0.327693 0.130248 0.161394
v -0.356812 -0.073587 0.161394
v -0.356812 0.101129 0.161394
vn 0 0 1
vn 0 0 -1
usemtl material_0_0
f 1//1 2//1 3//1
f 2//1 1//1 4//1
f 3//2 2//2 1//2
f 4//2 1//2 2//2
f 2//1 4//1 5//1
f 5//2 4//2 2//2
f 5//1 4//1 6//1
f 6//2 4//2 5//2
f 5//1 6//1 7//1
f 7//2 6//2 5//2
f 7//1 6//1 8//1
f 8//2 6//2 7//2
