# SSTK version 0.8.0
# 4
mtllib original-4.mtl
o mesh1/mesh1-geometry#mesh1-geometry
v 0.211014 0.005036 0.772899
v 0.211014 -0.000788 0.772899
v 0.225574 0.005036 0.729219
v 0.181895 0.005036 0.772899
v 0.225574 -0.000788 0.729219
v 0.225574 0.005036 0.161394
v 0.167336 0.005036 0.161394
v 0.181895 -0.000788 0.772899
v 0.167336 -0.000788 0.161394
v 0.167336 0.005036 0.729219
v 0.167336 -0.000788 0.729219
v 0.225574 -0.000788 0.161394
vn 0.9486831980504455 0 0.31622806601688475
vn -0.9486831980504455 0 -0.31622806601688475
vn 0 0 1
vn 0 0 -1
vn 0 1 0
vn 0 -1 0
vn 1 0 0
vn -1 0 0
vn -0.9486831980504455 0 0.31622806601688475
vn 0.9486831980504455 0 -0.31622806601688475
usemtl material_0_0
f 1//1 2//1 3//1
f 3//2 2//2 1//2
f 1//3 4//3 2//3
f 2//4 4//4 1//4
f 5//1 3//1 2//1
f 2//2 3//2 5//2
f 3//5 6//5 1//5
f 1//6 6//6 3//6
f 4//5 1//5 7//5
f 7//6 1//6 4//6
f 8//3 2//3 4//3
f 4//4 2//4 8//4
f 3//7 5//7 6//7
f 6//8 5//8 3//8
f 2//6 9//6 5//6
f 5//5 9//5 2//5
f 7//5 1//5 6//5
f 6//6 1//6 7//6
f 10//5 4//5 7//5
f 7//6 4//6 10//6
f 8//6 9//6 2//6
f 2//5 9//5 8//5
f 8//9 4//9 11//9
f 11//10 4//10 8//10
f 12//7 6//7 5//7
f 5//8 6//8 12//8
f 12//6 5//6 9//6
f 9//5 5//5 12//5
f 7//4 6//4 9//4
f 9//3 6//3 7//3
f 10//9 11//9 4//9
f 4//10 11//10 10//10
f 7//8 9//8 10//8
f 10//7 9//7 7//7
f 11//6 9//6 8//6
f 8//5 9//5 11//5
f 12//4 9//4 6//4
f 6//3 9//3 12//3
f 11//8 10//8 9//8
f 9//7 10//7 11//7
