# SSTK version 0.8.0
# 9
mtllib original-9.mtl
o Group4/mesh28/mesh28-geometry#mesh28-geometry
v 0.298371 0.028331 0.161394
v 0.327491 0.028331 0.860257
v 0.327491 0.028331 0.161394
v 0.298371 0.028331 0.860257
v 0.327491 -0.062667 0.161394
v 0.298371 -0.000788 0.161394
v 0.298371 -0.000788 0.860257
v 0.327491 -0.062667 0.860257
v 0.324287 -0.073587 0.860257
v -0.342252 -0.062667 0.161394
v -0.313132 -0.000788 0.161394
v -0.313132 -0.000788 0.860257
v 0.324287 -0.073587 0.161394
v -0.339048 -0.073587 0.860257
v -0.342252 -0.062667 0.860257
v 0.313538 -0.084733 0.860257
v -0.339048 -0.073587 0.161394
v -0.342252 0.028331 0.161394
v -0.313132 0.028331 0.860257
v -0.342252 0.028331 0.860257
v 0.313538 -0.084733 0.161394
v -0.328299 -0.084733 0.860257
v -0.313132 0.028331 0.161394
v 0.299586 -0.088146 0.860257
v -0.328299 -0.084733 0.161394
v 0.299586 -0.088146 0.161394
v -0.314347 -0.088146 0.860257
v -0.314347 -0.088146 0.161394
vn 0 1 0
vn 0 -1 0
vn 1 0 0
vn -1 0 0
vn 0 0 -1
vn 0 0 1
vn 0.9595339449203543 -0.2815929838358592 0
vn -0.9595339449203543 0.2815929838358592 0
vn 0.719830679293549 -0.6941496907352102 0
vn -0.719830679293549 0.6941496907352102 0
vn -0.9595339449203543 -0.2815929838358592 0
vn 0.9595339449203543 0.2815929838358592 0
vn 0.2376410124179314 -0.9713530507580549 0
vn -0.2376410124179314 0.9713530507580549 0
vn -0.719830679293549 -0.6941496907352102 0
vn 0.719830679293549 0.6941496907352102 0
vn -0.2376410124179314 -0.9713530507580549 0
vn 0.2376410124179314 0.9713530507580549 0
usemtl material_0_0
f 1//1 2//1 3//1
f 2//1 1//1 4//1
f 3//2 2//2 1//2
f 4//2 1//2 2//2
f 2//3 5//3 3//3
f 3//4 5//4 2//4
f 3//5 6//5 1//5
f 1//6 6//6 3//6
f 1//4 7//4 4//4
f 4//3 7//3 1//3
f 7//6 2//6 4//6
f 4//5 2//5 7//5
f 5//3 2//3 8//3
f 8//4 2//4 5//4
f 5//5 6//5 3//5
f 3//6 6//6 5//6
f 7//4 1//4 6//4
f 6//3 1//3 7//3
f 2//6 7//6 8//6
f 8//5 7//5 2//5
f 9//7 5//7 8//7
f 8//8 5//8 9//8
f 5//5 10//5 6//5
f 6//6 10//6 5//6
f 11//1 7//1 6//1
f 6//2 7//2 11//2
f 12//6 8//6 7//6
f 7//5 8//5 12//5
f 5//7 9//7 13//7
f 13//8 9//8 5//8
f 14//6 9//6 8//6
f 8//5 9//5 14//5
f 13//5 10//5 5//5
f 5//6 10//6 13//6
f 6//5 10//5 11//5
f 11//6 10//6 6//6
f 7//1 11//1 12//1
f 12//2 11//2 7//2
f 15//6 8//6 12//6
f 12//5 8//5 15//5
f 16//9 13//9 9//9
f 9//10 13//10 16//10
f 14//6 16//6 9//6
f 9//5 16//5 14//5
f 14//6 8//6 15//6
f 15//5 8//5 14//5
f 13//5 17//5 10//5
f 10//6 17//6 13//6
f 18//5 11//5 10//5
f 10//6 11//6 18//6
f 11//3 19//3 12//3
f 12//4 19//4 11//4
f 15//6 12//6 20//6
f 20//5 12//5 15//5
f 13//9 16//9 21//9
f 21//10 16//10 13//10
f 22//6 16//6 14//6
f 14//5 16//5 22//5
f 15//11 17//11 14//11
f 14//12 17//12 15//12
f 21//5 17//5 13//5
f 13//6 17//6 21//6
f 17//11 15//11 10//11
f 10//12 15//12 17//12
f 11//5 18//5 23//5
f 23//6 18//6 11//6
f 15//4 18//4 10//4
f 10//3 18//3 15//3
f 19//3 11//3 23//3
f 23//4 11//4 19//4
f 20//6 12//6 19//6
f 19//5 12//5 20//5
f 18//4 15//4 20//4
f 20//3 15//3 18//3
f 24//13 21//13 16//13
f 16//14 21//14 24//14
f 22//6 24//6 16//6
f 16//5 24//5 22//5
f 17//15 22//15 14//15
f 14//16 22//16 17//16
f 21//5 25//5 17//5
f 17//6 25//6 21//6
f 20//1 23//1 18//1
f 18//2 23//2 20//2
f 23//1 20//1 19//1
f 19//2 20//2 23//2
f 21//13 24//13 26//13
f 26//14 24//14 21//14
f 24//6 22//6 27//6
f 27//5 22//5 24//5
f 22//15 17//15 25//15
f 25//16 17//16 22//16
f 26//5 25//5 21//5
f 21//6 25//6 26//6
f 27//2 26//2 24//2
f 24//1 26//1 27//1
f 22//17 28//17 27//17
f 27//18 28//18 22//18
f 28//17 22//17 25//17
f 25//18 22//18 28//18
f 25//5 26//5 28//5
f 28//6 26//6 25//6
f 26//2 27//2 28//2
f 28//1 27//1 26//1
